<svg width="300" height="282" viewBox="0 0 300 282" fill="none" xmlns="http://www.w3.org/2000/svg">
<g clip-path="url(#clip0_14_1582)">
<path d="M211.903 235.793C215.403 234.674 218.964 233.777 222.547 232.982C233.521 230.554 259.158 221.467 278.179 188.231C303.019 144.819 298.502 78.5977 267.641 41.808C236.78 5.01824 188.607 -7.49026 142.692 4.28245C120.314 10.0216 105.395 24.8847 92.5084 42.8307C81.293 58.4516 68.6475 73.5133 51.6513 83.395C34.8132 93.1885 17.5159 100.995 9.03288 119.603C-11.6591 164.877 3.46283 217.56 52.3814 235.322C101.729 253.246 182.156 245.336 211.903 235.793Z" fill="#92E3A9"/>
<path d="M211.903 235.793C215.403 234.674 218.964 233.777 222.547 232.982C233.521 230.554 259.158 221.467 278.179 188.231C303.019 144.819 298.502 78.5977 267.641 41.808C236.78 5.01824 188.607 -7.49026 142.692 4.28245C120.314 10.0216 105.395 24.8847 92.5084 42.8307C81.293 58.4516 68.6475 73.5133 51.6513 83.395C34.8132 93.1885 17.5159 100.995 9.03288 119.603C-11.6591 164.877 3.46283 217.56 52.3814 235.322C101.729 253.246 182.156 245.336 211.903 235.793Z" fill="#F1CBB5"/>
<path d="M162.322 281.25C238.359 281.25 300 276.309 300 270.213C300 264.118 238.359 259.176 162.322 259.176C86.2844 259.176 24.6438 264.118 24.6438 270.213C24.6438 276.309 86.2844 281.25 162.322 281.25Z" fill="#92E3A9"/>
<path opacity="0.5" d="M162.322 281.25C238.359 281.25 300 276.309 300 270.213C300 264.118 238.359 259.176 162.322 259.176C86.2844 259.176 24.6438 264.118 24.6438 270.213C24.6438 276.309 86.2844 281.25 162.322 281.25Z" fill="#D2977C"/>
<path d="M292.977 173.353C292.059 173.265 282.605 172.47 273.971 176.856C277.786 172.174 279.543 166.203 278.856 160.256C276.779 139.897 257.118 128.242 255.605 127.366V127.292H255.507V127.344C254.002 128.22 234.341 139.852 232.256 160.234C231.806 164.183 232.429 168.177 234.063 171.815C222.99 165.348 210.081 166.437 208.892 166.554H208.847C208.267 167.872 200.876 185.229 209.75 199.989C217.691 213.182 234.334 209.694 238.857 208.458C242.658 212.358 249.576 221.231 252.639 236.418H248.326L250.404 265.114H260.106L262.184 236.418H257.111C259.424 226.149 263.611 216.371 269.47 207.553C273.986 208.649 286.248 210.496 292.285 200.475C299.443 188.511 293.451 174.42 292.977 173.353ZM255.214 173.243L244.954 159.322C244.911 159.262 244.894 159.188 244.907 159.117C244.92 159.045 244.961 158.981 245.022 158.939C245.083 158.897 245.158 158.88 245.232 158.893C245.305 158.905 245.371 158.946 245.413 159.005L255.199 172.33V158.233L244.939 144.311C244.895 144.253 244.877 144.18 244.888 144.108C244.9 144.036 244.94 143.972 244.999 143.929C245.059 143.886 245.134 143.868 245.208 143.879C245.281 143.89 245.347 143.929 245.391 143.988V143.988L255.176 157.313V136.858C255.175 136.822 255.182 136.786 255.195 136.752C255.209 136.719 255.229 136.689 255.255 136.663C255.281 136.638 255.313 136.618 255.347 136.604C255.381 136.591 255.418 136.585 255.455 136.586C255.528 136.587 255.598 136.617 255.649 136.667C255.701 136.718 255.731 136.786 255.733 136.858V156.724L266.459 143.48C266.505 143.424 266.571 143.387 266.644 143.378C266.717 143.368 266.791 143.386 266.851 143.428C266.91 143.474 266.949 143.54 266.959 143.613C266.969 143.686 266.949 143.76 266.903 143.818L255.816 157.563V171.661L266.459 158.446C266.505 158.39 266.571 158.353 266.644 158.344C266.717 158.334 266.791 158.352 266.851 158.395C266.91 158.44 266.949 158.506 266.959 158.579C266.969 158.652 266.949 158.726 266.903 158.784L255.816 172.529V184.456L266.459 171.256C266.482 171.228 266.51 171.205 266.542 171.187C266.574 171.17 266.609 171.159 266.646 171.155C266.682 171.151 266.719 171.154 266.754 171.163C266.789 171.173 266.822 171.19 266.851 171.212V171.212C266.908 171.257 266.946 171.322 266.955 171.393C266.965 171.464 266.947 171.536 266.903 171.595L255.816 185.339V185.597H254.905L244.954 172.176C244.91 172.117 244.892 172.044 244.903 171.972C244.915 171.901 244.955 171.836 245.014 171.793C245.074 171.75 245.149 171.732 245.223 171.744C245.296 171.755 245.362 171.794 245.406 171.852V171.852L255.191 185.177V173.258L255.214 173.243ZM238.925 207.222L237.909 205.868L223.487 201.939C223.457 201.931 223.429 201.918 223.405 201.9C223.381 201.881 223.36 201.859 223.345 201.833C223.329 201.807 223.319 201.778 223.315 201.748C223.311 201.718 223.313 201.688 223.321 201.659C223.328 201.63 223.341 201.602 223.36 201.577C223.378 201.553 223.402 201.533 223.428 201.517C223.455 201.502 223.485 201.493 223.516 201.489C223.547 201.486 223.578 201.488 223.607 201.497V201.497L237.465 205.287L231.443 197.193L217.014 193.256C216.955 193.241 216.906 193.204 216.875 193.153C216.844 193.102 216.834 193.042 216.848 192.984C216.866 192.927 216.905 192.879 216.959 192.85C217.012 192.821 217.075 192.814 217.134 192.83L230.992 196.604L223.863 187.039L209.449 183.213C209.387 183.207 209.33 183.177 209.291 183.13C209.251 183.084 209.232 183.023 209.238 182.963C209.244 182.902 209.275 182.846 209.322 182.808C209.37 182.769 209.432 182.751 209.494 182.757C209.519 182.75 209.545 182.75 209.569 182.757L223.427 186.531L213.408 173.132C213.372 173.082 213.358 173.021 213.367 172.96C213.377 172.9 213.411 172.845 213.461 172.809C213.511 172.774 213.573 172.76 213.634 172.77C213.694 172.779 213.748 172.812 213.785 172.86L224.149 186.723L224.052 172.985C224.049 172.956 224.054 172.927 224.064 172.899C224.074 172.872 224.089 172.846 224.11 172.825C224.13 172.803 224.155 172.786 224.183 172.775C224.21 172.763 224.24 172.757 224.27 172.757C224.3 172.756 224.331 172.761 224.36 172.772C224.388 172.782 224.415 172.798 224.437 172.819C224.459 172.839 224.477 172.864 224.49 172.891C224.503 172.919 224.51 172.948 224.511 172.978V172.978L224.616 187.326L231.737 196.847L231.631 183.066C231.631 183.005 231.656 182.947 231.7 182.904C231.743 182.862 231.803 182.838 231.865 182.838C231.894 182.837 231.924 182.841 231.952 182.852C231.979 182.862 232.005 182.877 232.027 182.897C232.048 182.917 232.066 182.941 232.078 182.967C232.09 182.993 232.097 183.022 232.098 183.051V183.051L232.203 197.399L238.225 205.449L238.127 191.704C238.127 191.643 238.152 191.585 238.196 191.543C238.239 191.5 238.299 191.476 238.361 191.476C238.422 191.476 238.482 191.5 238.526 191.543C238.569 191.585 238.594 191.643 238.594 191.704L238.699 206.052L239.557 207.207L238.925 207.222ZM240.558 207.222C242.666 204.095 248.74 193.816 245.075 183.934C247.907 185.753 250.936 187.261 254.107 188.43V233.041C250.78 219.37 244.503 211.158 240.671 207.222H240.558ZM256.365 230.289V188.636C259.366 187.565 262.245 186.192 264.954 184.537C259.165 193.61 265.646 204.087 267.355 206.56C262.481 213.888 258.766 221.892 256.335 230.304L256.365 230.289ZM292.495 186.811L280.761 189.997L274.98 197.73L286.225 194.669C286.249 194.662 286.274 194.66 286.298 194.663C286.323 194.666 286.347 194.673 286.369 194.684C286.39 194.696 286.409 194.712 286.425 194.731C286.44 194.749 286.452 194.771 286.459 194.794C286.469 194.842 286.46 194.891 286.435 194.933C286.41 194.975 286.37 195.007 286.323 195.022L274.619 198.216L269.733 204.75L280.971 201.681C281.02 201.672 281.071 201.68 281.114 201.704C281.157 201.729 281.189 201.768 281.205 201.814C281.212 201.837 281.214 201.861 281.211 201.885C281.208 201.909 281.201 201.933 281.189 201.954C281.177 201.975 281.161 201.994 281.142 202.009C281.123 202.024 281.101 202.035 281.077 202.042L269.335 205.287L268.717 206.103C268.604 206.045 268.499 205.978 268.394 205.912L268.747 205.441L268.838 193.801C268.838 193.752 268.858 193.705 268.893 193.671C268.928 193.636 268.976 193.617 269.026 193.617C269.076 193.617 269.124 193.636 269.159 193.671C269.194 193.705 269.214 193.752 269.214 193.801L269.131 204.948L274.016 198.414L274.107 186.774C274.107 186.725 274.127 186.679 274.162 186.644C274.197 186.61 274.245 186.59 274.295 186.59C274.345 186.59 274.393 186.61 274.428 186.644C274.463 186.679 274.483 186.725 274.483 186.774L274.355 197.929L280.136 190.203L280.226 178.555C280.226 178.506 280.246 178.46 280.281 178.425C280.317 178.391 280.365 178.371 280.414 178.371C280.465 178.373 280.513 178.394 280.548 178.43C280.583 178.466 280.603 178.513 280.603 178.563L280.52 189.71L288.935 178.46C288.949 178.439 288.968 178.422 288.989 178.409C289.01 178.397 289.034 178.388 289.059 178.385C289.083 178.381 289.109 178.383 289.133 178.389C289.157 178.396 289.179 178.407 289.199 178.423C289.238 178.452 289.265 178.496 289.272 178.544C289.279 178.592 289.266 178.641 289.236 178.68V178.68L281.107 189.555L292.352 186.487C292.377 186.48 292.402 186.479 292.427 186.482C292.452 186.485 292.476 186.493 292.498 186.505C292.519 186.518 292.538 186.534 292.554 186.554C292.569 186.573 292.58 186.596 292.586 186.62C292.596 186.667 292.587 186.717 292.562 186.759C292.537 186.801 292.497 186.832 292.45 186.848L292.495 186.811Z" fill="#638A66"/>
<path d="M57.4922 125.166V131.693" stroke="#263238" stroke-linecap="round" stroke-linejoin="round"/>
<path d="M60.8267 128.426H54.1501" stroke="#263238" stroke-linecap="round" stroke-linejoin="round"/>
<path d="M267.242 69.2456V75.7721" stroke="#263238" stroke-linecap="round" stroke-linejoin="round"/>
<path d="M270.584 72.5054H263.908" stroke="#263238" stroke-linecap="round" stroke-linejoin="round"/>
<path d="M130.249 156.069V162.596" stroke="#263238" stroke-linecap="round" stroke-linejoin="round"/>
<path d="M133.591 159.329H126.915" stroke="#263238" stroke-linecap="round" stroke-linejoin="round"/>
<path d="M190.466 18.7188V25.2452" stroke="#263238" stroke-linecap="round" stroke-linejoin="round"/>
<path d="M193.808 21.9858H187.131" stroke="#263238" stroke-linecap="round" stroke-linejoin="round"/>
<path d="M190.466 193.912V200.438" stroke="#263238" stroke-linecap="round" stroke-linejoin="round"/>
<path d="M193.808 197.178H187.131" stroke="#263238" stroke-linecap="round" stroke-linejoin="round"/>
<path d="M137.588 41.8892V46.3775" stroke="#263238" stroke-linecap="round" stroke-linejoin="round"/>
<path d="M139.884 44.1333H135.292" stroke="#263238" stroke-linecap="round" stroke-linejoin="round"/>
<path d="M39.3669 68.8262V75.36" stroke="#263238" stroke-linecap="round" stroke-linejoin="round"/>
<path d="M42.7088 72.0933H36.0322" stroke="#263238" stroke-linecap="round" stroke-linejoin="round"/>
<path d="M73.043 198.252V204.779" stroke="#263238" stroke-linecap="round" stroke-linejoin="round"/>
<path d="M76.385 201.52H69.7085" stroke="#263238" stroke-linecap="round" stroke-linejoin="round"/>
<path d="M264.064 47.0545C264.825 44.1702 263.05 41.229 260.099 40.4852C257.149 39.7414 254.14 41.4767 253.379 44.361C252.618 47.2453 254.393 50.1865 257.344 50.9302C260.295 51.674 263.303 49.9388 264.064 47.0545Z" stroke="#263238" stroke-linecap="round" stroke-linejoin="round"/>
<path d="M197.014 158.932C197.016 160 196.693 161.045 196.087 161.934C195.482 162.823 194.62 163.516 193.611 163.926C192.602 164.336 191.491 164.445 190.419 164.238C189.347 164.031 188.362 163.518 187.588 162.763C186.814 162.009 186.287 161.048 186.072 160C185.858 158.953 185.965 157.867 186.382 156.879C186.799 155.892 187.506 155.048 188.414 154.453C189.322 153.858 190.389 153.54 191.482 153.539V153.539C192.208 153.537 192.927 153.675 193.598 153.945C194.269 154.215 194.879 154.612 195.393 155.113C195.907 155.614 196.315 156.209 196.593 156.865C196.871 157.52 197.014 158.222 197.014 158.932V158.932Z" stroke="#263238" stroke-linecap="round" stroke-linejoin="round"/>
<path d="M46.018 175.312C48.8482 174.208 50.2272 171.071 49.0981 168.304C47.969 165.538 44.7592 164.19 41.929 165.293C39.0988 166.397 37.7198 169.535 38.8489 172.301C39.9781 175.068 43.1878 176.416 46.018 175.312Z" stroke="#263238" stroke-linecap="round" stroke-linejoin="round"/>
<path d="M140.561 214.838C142.59 214.838 144.234 213.23 144.234 211.247C144.234 209.264 142.59 207.656 140.561 207.656C138.533 207.656 136.888 209.264 136.888 211.247C136.888 213.23 138.533 214.838 140.561 214.838Z" stroke="#263238" stroke-linecap="round" stroke-linejoin="round"/>
<path d="M200.529 100.907C200.529 101.15 200.456 101.388 200.318 101.59C200.179 101.792 199.983 101.949 199.753 102.042C199.524 102.135 199.271 102.16 199.027 102.112C198.783 102.065 198.559 101.948 198.384 101.776C198.208 101.604 198.088 101.385 198.04 101.147C197.991 100.908 198.016 100.661 198.111 100.437C198.206 100.212 198.367 100.02 198.574 99.8853C198.781 99.7503 199.024 99.6782 199.272 99.6782C199.606 99.6782 199.926 99.8077 200.161 100.038C200.397 100.269 200.529 100.581 200.529 100.907V100.907Z" stroke="#263238" stroke-linecap="round" stroke-linejoin="round"/>
<path d="M115.97 83.2478C115.945 83.5664 115.794 83.863 115.55 84.0755C115.306 84.288 114.987 84.3997 114.66 84.3874C114.334 84.375 114.025 84.2394 113.798 84.0091C113.571 83.7788 113.445 83.4717 113.445 83.1522C113.445 82.8326 113.571 82.5255 113.798 82.2952C114.025 82.0649 114.334 81.9293 114.66 81.9169C114.987 81.9046 115.306 82.0163 115.55 82.2288C115.794 82.4413 115.945 82.7379 115.97 83.0565V83.2478Z" stroke="#263238" stroke-linecap="round" stroke-linejoin="round"/>
<path d="M156.368 160.404C156.368 160.647 156.294 160.884 156.156 161.086C156.018 161.288 155.822 161.446 155.592 161.539C155.362 161.632 155.11 161.656 154.866 161.609C154.622 161.561 154.398 161.444 154.222 161.272C154.046 161.101 153.927 160.882 153.878 160.643C153.83 160.405 153.855 160.158 153.95 159.933C154.045 159.709 154.206 159.517 154.413 159.382C154.619 159.247 154.862 159.175 155.111 159.175C155.444 159.175 155.764 159.304 156 159.535C156.236 159.765 156.368 160.078 156.368 160.404V160.404Z" stroke="#263238" stroke-linecap="round" stroke-linejoin="round"/>
<path d="M217.338 217.795C217.338 218.038 217.264 218.276 217.126 218.478C216.988 218.68 216.791 218.837 216.562 218.93C216.332 219.023 216.079 219.048 215.835 219C215.591 218.953 215.367 218.836 215.192 218.664C215.016 218.492 214.896 218.273 214.848 218.035C214.799 217.797 214.824 217.549 214.919 217.325C215.014 217.1 215.175 216.909 215.382 216.774C215.589 216.638 215.832 216.566 216.081 216.566C216.414 216.566 216.734 216.696 216.969 216.926C217.205 217.157 217.338 217.469 217.338 217.795V217.795Z" stroke="#263238" stroke-linecap="round" stroke-linejoin="round"/>
<path d="M151.588 12.8472C152.455 12.8664 153.307 13.0684 154.087 13.4392C154.866 13.81 155.554 14.3409 156.105 14.9957C157.011 16.0605 157.511 17.3999 157.52 18.785C157.501 19.6628 157.282 20.5254 156.878 21.3097C156.475 22.0939 155.896 22.78 155.186 23.3175C154.353 23.6993 153.652 24.3092 153.167 25.0734C152.682 25.8375 152.434 26.7229 152.454 27.6219C152.379 28.1223 152.145 28.3577 151.762 28.3577C151.378 28.3577 151.009 28.0708 151.009 27.7985V27.3717C151.009 25.2453 152.183 23.4794 154.547 22.0593C155.023 21.6149 155.402 21.0805 155.661 20.4886C155.92 19.8967 156.053 19.2595 156.052 18.6158C156.052 16.9382 155.141 15.599 153.335 14.5984C152.712 14.3932 152.064 14.2744 151.408 14.2452C149.631 14.2452 148.239 15.1723 147.23 17.0265L146.846 18.8513C146.643 19.1088 146.455 19.2339 146.289 19.2339C145.762 19.1309 145.537 18.9028 145.537 18.5643C145.537 16.7248 146.465 15.1208 148.322 13.7522C149.314 13.1843 150.439 12.8729 151.588 12.8472V12.8472ZM151.588 30.5651H151.777C152.251 30.5651 152.59 30.8594 152.793 31.4554V31.7424C152.777 32.026 152.649 32.2925 152.435 32.4849C152.221 32.6774 151.939 32.7806 151.649 32.7725C150.896 32.618 150.535 32.2721 150.535 31.7276C150.516 31.4391 150.615 31.1551 150.809 30.9374C151.004 30.7197 151.278 30.5859 151.573 30.5651H151.588Z" fill="#263238"/>
<path d="M26.6536 135.019C25.7863 134.998 24.9338 134.795 24.1543 134.423C23.3749 134.051 22.6868 133.519 22.1373 132.863C21.2348 131.796 20.7375 130.457 20.7297 129.073C20.7483 128.196 20.9674 127.333 21.3712 126.549C21.7749 125.764 22.353 125.078 23.0631 124.541C23.8937 124.156 24.5932 123.545 25.0779 122.782C25.5625 122.019 25.8116 121.135 25.7955 120.236C25.8707 119.736 26.1041 119.501 26.488 119.501C26.8718 119.501 27.2407 119.788 27.2407 120.06V120.487C27.2407 122.613 26.0589 124.379 23.7029 125.799C23.2237 126.241 22.8428 126.775 22.5838 127.368C22.3248 127.96 22.1933 128.598 22.1975 129.243C22.1975 130.92 23.1033 132.259 24.9148 133.26C25.5369 133.466 26.1856 133.585 26.8417 133.613C28.6181 133.613 30.0106 132.686 31.0193 130.832L31.4032 129.014C31.6064 128.75 31.7946 128.625 31.9602 128.625C32.4871 128.728 32.7129 128.956 32.7129 129.301C32.7129 131.126 31.7795 132.73 29.9278 134.106C28.9337 134.678 27.8067 134.992 26.6536 135.019V135.019ZM26.6536 117.293H26.4654C25.9912 117.293 25.6525 116.999 25.4492 116.403V116.116C25.455 115.975 25.4893 115.836 25.5499 115.708C25.6106 115.58 25.6965 115.465 25.8028 115.369C25.909 115.273 26.0336 115.199 26.1692 115.151C26.3049 115.102 26.449 115.08 26.5933 115.086C27.3461 115.24 27.7074 115.586 27.7074 116.131C27.7221 116.418 27.622 116.7 27.4282 116.917C27.2345 117.134 26.9621 117.269 26.6686 117.293H26.6536Z" fill="#263238"/>
<path d="M40.6464 37.7612C41.3092 37.7663 41.9539 37.9739 42.4899 38.3551C43.026 38.7362 43.4267 39.2717 43.6358 39.8866C43.8449 40.5015 43.852 41.1649 43.6561 41.7839C43.4601 42.4029 43.071 42.9465 42.5432 43.3386C42.1543 43.5196 41.8265 43.8056 41.5984 44.1628C41.3704 44.52 41.2516 44.9336 41.2561 45.3546C41.2034 45.7152 41.0152 45.8918 40.7066 45.8918C40.5745 45.898 40.4451 45.8539 40.3454 45.7689C40.2458 45.6838 40.1837 45.5644 40.1722 45.4356V45.2222C40.1908 44.6363 40.3713 44.0663 40.6947 43.5727C41.0181 43.0791 41.4722 42.6804 42.0088 42.4188C42.2292 42.2157 42.4044 41.9705 42.5235 41.6983C42.6426 41.4261 42.7032 41.1329 42.7013 40.8369C42.6937 40.4467 42.573 40.0668 42.3531 39.7411C42.1332 39.4155 41.8233 39.1575 41.4593 38.9974C41.1728 38.9009 40.8738 38.8439 40.5711 38.8281C40.158 38.8342 39.7559 38.9587 39.4146 39.1863C39.0734 39.414 38.8081 39.7346 38.6517 40.1084L38.456 41.0355C38.4043 41.1159 38.3349 41.184 38.2528 41.2349C38.1708 41.2858 38.0782 41.3182 37.9818 41.3298C37.613 41.2563 37.4248 41.0797 37.4248 40.8148C37.4438 40.3005 37.5908 39.7985 37.8531 39.3523C38.1155 38.9061 38.4852 38.5292 38.9302 38.2542C39.4499 37.9495 40.0407 37.7798 40.6464 37.7612V37.7612ZM40.6464 46.6349H40.7668C41.083 46.6349 41.3163 46.8336 41.4518 47.2309V47.4149C41.4384 47.6009 41.3533 47.7751 41.2135 47.9021C41.0738 48.0292 40.8899 48.0996 40.6991 48.0991C40.2174 47.9961 39.9464 47.768 39.9464 47.3633C39.9453 47.1814 40.0131 47.0056 40.1368 46.8697C40.2605 46.7338 40.4313 46.6476 40.6163 46.6276L40.6464 46.6349Z" fill="#263238"/>
<path d="M130.219 84.3663C129.758 84.3555 129.304 84.2474 128.89 84.0492C128.475 83.8511 128.11 83.5677 127.818 83.2184C127.282 82.5987 127.02 81.7964 127.089 80.9879C127.158 80.1794 127.553 79.4308 128.187 78.9067L128.322 78.8037C128.711 78.621 129.038 78.3334 129.265 77.9749C129.491 77.6163 129.608 77.2017 129.602 76.7802C129.662 76.4197 129.843 76.2431 130.159 76.2431C130.225 76.2391 130.291 76.248 130.353 76.2693C130.415 76.2905 130.473 76.3237 130.522 76.3668C130.571 76.41 130.61 76.4623 130.639 76.5206C130.667 76.579 130.683 76.6422 130.686 76.7066V76.92C130.666 77.5057 130.485 78.0754 130.162 78.5688C129.839 79.0623 129.385 79.4612 128.849 79.7234C128.626 79.9248 128.45 80.1697 128.33 80.4423C128.211 80.7149 128.152 81.0089 128.157 81.3054C128.166 81.6941 128.287 82.0724 128.505 82.3975C128.723 82.7226 129.03 82.9815 129.391 83.1448C129.678 83.2389 129.977 83.2934 130.279 83.3067C130.692 83.2979 131.092 83.1722 131.433 82.9449C131.774 82.7177 132.04 82.3986 132.199 82.0264L132.402 81.0993C132.449 81.0164 132.516 80.9462 132.597 80.8948C132.679 80.8435 132.772 80.8126 132.868 80.805C133.237 80.886 133.425 81.0552 133.425 81.3201C133.407 81.8344 133.259 82.3364 132.997 82.7826C132.735 83.2288 132.365 83.6057 131.92 83.8806C131.401 84.1726 130.817 84.3391 130.219 84.3663ZM130.219 75.4852H130.106C129.782 75.4852 129.549 75.2866 129.414 74.8892V74.7053C129.427 74.5192 129.512 74.345 129.652 74.218C129.792 74.091 129.975 74.0205 130.166 74.021C130.64 74.124 130.919 74.3595 130.919 74.7568C130.921 74.9342 130.857 75.1064 130.74 75.2416C130.622 75.3769 130.459 75.466 130.279 75.4926L130.219 75.4852Z" fill="#263238"/>
<path d="M110.588 50.8874C110.588 50.8874 114.6 47.8265 111.808 43.7355C109.015 39.6445 95.0899 39.1368 85.1541 43.5663C75.2183 47.9958 76.1216 53.7865 76.9721 55.6554C77.8227 57.5243 79.0346 59.9156 79.0346 59.9156V65.7063C79.0346 65.7063 78.5152 69.1131 72.5914 73.366C66.6675 77.6188 62.1588 84.6162 63.3782 89.7668C64.5976 94.9174 68.4364 95.0498 65.2976 98.9642C62.1588 102.879 51.3574 105.432 50.6649 113.607C49.9724 121.781 52.4037 133.878 70.3483 135.747C88.2929 137.616 95.6092 131.494 104.491 120.758C113.373 110.023 115.466 101.856 114.773 92.4892C114.081 83.1226 109.369 81.7614 109.549 75.9707C109.73 70.18 117.904 60.8207 115.819 55.03C113.734 49.2393 110.588 50.8874 110.588 50.8874Z" fill="#263238" stroke="#263238" stroke-linecap="round" stroke-linejoin="round"/>
<path d="M94.9092 78.4797C94.9092 78.4797 96.3092 83.7553 95.263 86.3085C94.2167 88.8617 91.251 89.8845 84.981 92.2685C78.7109 94.6524 77.6646 101.098 80.1034 106.403C82.5422 111.708 90.9048 124.798 89.6854 127.69C88.466 130.581 76.1366 139.955 75.9259 153.442C75.7151 166.93 83.453 184.949 83.453 184.949H110.806C110.806 184.949 113.765 129.765 113.765 124.496C113.765 119.228 113.418 118.536 115.503 115.667C115.503 115.667 127.178 128.779 130.317 127.756C133.455 126.733 150.173 93.6959 150.173 93.6959C152.271 92.4506 154.254 91.0275 156.097 89.443C158.536 87.2356 159.928 86.0363 159.236 83.6523C159.073 82.9904 158.727 82.3855 158.234 81.9049C157.741 81.4242 157.121 81.0867 156.443 80.9299C156.443 80.9299 160.959 73.4321 160.282 72.586C159.605 71.7398 158.189 72.9244 156.797 75.6469C155.404 78.3693 152.785 80.7606 150.519 85.2122C148.254 89.6637 147.734 91.0029 147.734 91.0029C147.734 91.0029 133.23 109.979 131.529 111.841C130.845 112.641 130.089 113.38 129.27 114.048C129.27 114.048 124.95 108.897 121.939 104.667C118.928 100.436 118.627 99.0451 116.015 96.8304C113.403 94.6156 104.514 89.6785 103.294 88.6557C102.075 87.6329 103.121 81.5038 103.121 81.5038L94.9092 78.4797Z" fill="white" stroke="#263238" stroke-linecap="round" stroke-linejoin="round"/>
<path d="M161.464 82.9019C161.876 83.1308 162.18 83.5091 162.31 83.9552C162.439 84.4012 162.384 84.8792 162.156 85.2858C161.464 86.9929 158.671 88.1849 158.152 87.4932C157.633 86.8016 161.464 82.9019 161.464 82.9019Z" fill="white" stroke="#263238" stroke-linecap="round" stroke-linejoin="round"/>
<path d="M160.064 80.3486C160.064 80.3486 162.856 81.0329 161.464 82.9018C160.071 84.7708 157.452 87.3166 156.948 86.8236C156.443 86.3306 157.821 84.4397 157.994 83.7554C158.59 82.5678 159.282 81.4286 160.064 80.3486V80.3486Z" fill="white" stroke="#263238" stroke-linecap="round" stroke-linejoin="round"/>
<path d="M157.121 81.8863C157.121 81.8863 154.863 85.2856 155.728 85.8007C156.594 86.3157 158.686 84.0936 159.733 82.0555C160.779 80.0173 158.498 79.5023 157.121 81.8863Z" fill="white" stroke="#263238" stroke-linecap="round" stroke-linejoin="round"/>
<path d="M150.662 89.5462C150.662 89.5462 153.101 88.185 153.794 86.6545C154.185 85.5511 154.185 84.3512 153.794 83.2478C153.794 83.2478 156.932 82.5635 157.625 82.5635C158.317 82.5635 159.198 81.5407 159.025 80.3561C158.852 79.1715 153.967 80.5253 152.251 80.8712C150.534 81.217 150.504 85.1241 150.504 85.1241L148.743 89.7669" fill="white"/>
<path d="M150.662 89.5462C150.662 89.5462 153.101 88.185 153.794 86.6545C154.185 85.5511 154.185 84.3512 153.794 83.2478C153.794 83.2478 156.932 82.5635 157.625 82.5635C158.317 82.5635 159.198 81.5407 159.025 80.3561C158.852 79.1715 153.967 80.5253 152.251 80.8712C150.534 81.217 150.504 85.1241 150.504 85.1241L148.743 89.7669" stroke="#263238" stroke-linecap="round" stroke-linejoin="round"/>
<path d="M112.711 182.477C112.711 182.477 113.358 192.212 111.205 198.665C109.903 202.557 105.327 233.033 104.807 239.28C104.213 246.403 103.851 256.792 105.01 259.846C105.899 262.186 113.064 271.81 116.023 273.164C116.918 273.576 116.316 275.033 115.33 275.15C112.505 275.327 109.67 274.982 106.975 274.135C104.243 273.193 102.986 269.367 100.261 268.109C97.5361 266.851 93.4865 267.167 94.9919 263.841C96.4973 260.515 97.5813 257.727 97.5813 257.727C97.5813 257.727 97.4759 252.576 93.8177 223.777C92.9295 216.846 98.0856 201.608 98.0856 197.929C98.0856 194.25 95.8274 182.845 95.8274 182.845L112.711 182.477Z" fill="white" stroke="#263238" stroke-linecap="round" stroke-linejoin="round"/>
<path d="M98.3191 271.56L99.3503 271.111L100.577 268.057L98.5901 267.594L98.3191 271.56Z" fill="#92E3A9" stroke="#263238" stroke-linecap="round" stroke-linejoin="round"/>
<path d="M94.8416 265.761L96.4524 271.044L98.3191 271.559L98.9062 267.373L94.8416 265.761Z" fill="#92E3A9" stroke="#263238" stroke-linecap="round" stroke-linejoin="round"/>
<path d="M116.023 273.149C115.451 272.597 113.652 271.501 112.944 270.647C111.412 271.042 109.814 271.127 108.247 270.897C105.116 270.103 103.814 266.409 101.209 264.275C99.6192 262.965 98.111 261.562 96.6932 260.074H96.6029C96.1663 261.119 95.5943 262.443 94.9394 263.893C93.434 267.218 97.5062 266.895 100.208 268.16C102.911 269.426 104.19 273.244 106.923 274.186C109.618 275.034 112.452 275.378 115.278 275.202C115.51 275.188 115.734 275.108 115.921 274.972C116.108 274.836 116.25 274.649 116.33 274.435C116.41 274.221 116.425 273.988 116.371 273.766C116.318 273.545 116.199 273.343 116.03 273.186L116.023 273.149Z" fill="#92E3A9" stroke="#263238" stroke-linecap="round" stroke-linejoin="round"/>
<path d="M100.667 174.92C100.667 174.92 100.479 193.786 99.7642 199.202C99.0943 204.264 96.7985 217.207 84.8982 236.86C80.9088 243.482 74.5936 256.903 74.5936 259.846C74.7517 261.045 76.3023 266.873 78.2141 269.286C81.1497 272.965 83.2272 274.885 81.797 275.584C80.3669 276.283 75.2936 275.025 72.072 273.281C69.2644 271.751 67.3977 267.814 65.2525 265.018C63.1073 262.222 64.4998 260.464 66.7579 258.624C69.016 256.785 70.0548 251.472 70.8075 249.633C71.5602 247.793 77.2055 218.134 79.2755 212.041C80.9105 207.645 82.9723 203.412 85.4326 199.4L81.6691 175.487L100.667 174.92Z" fill="white" stroke="#263238" stroke-linecap="round" stroke-linejoin="round"/>
<path d="M66.0427 271.567L67.4653 271.295L68.5944 268.241L66.7051 266.762L66.0427 271.567Z" fill="#92E3A9" stroke="#263238" stroke-linecap="round" stroke-linejoin="round"/>
<path d="M64.3418 262.229V271.015L66.0429 271.567L66.7053 266.762L64.3418 262.229Z" fill="#92E3A9" stroke="#263238" stroke-linecap="round" stroke-linejoin="round"/>
<path d="M77.4313 270.419C75.7904 270.912 73.1333 270.537 70.0924 267.696C67.4127 265.187 66.1783 260.338 65.9901 259.264C64.1158 260.817 63.3405 262.553 65.2374 265.025C67.3826 267.821 69.2493 271.758 72.0569 273.288C75.2785 275.032 80.3367 276.29 81.7819 275.591C83.2271 274.892 81.2475 273.09 78.6582 269.874C78.273 270.103 77.861 270.286 77.4313 270.419V270.419Z" fill="#92E3A9" stroke="#263238" stroke-linecap="round" stroke-linejoin="round"/>
<path d="M121.939 104.703C118.973 100.443 118.627 99.082 116.015 96.8673C113.9 95.284 111.691 93.8246 109.399 92.4967C108.678 94.3988 107.403 96.0526 105.731 97.2532C104.058 98.4539 102.062 99.1485 99.99 99.2513C93.2156 99.8546 90.7843 93.8873 89.9563 90.3481C88.6015 90.9147 86.9455 91.5254 85.0035 92.2686C78.7334 94.6525 77.6872 101.098 80.1259 106.403C82.5647 111.708 90.9273 124.798 89.7079 127.69C88.4885 130.581 76.1592 139.955 75.9484 153.442C75.7376 166.93 82.5346 191.571 82.5346 191.571L114.239 191.329C114.239 191.329 116.881 177.223 116.497 166.922C116.128 156.798 113.14 140.323 113.102 139.845C113.479 132.134 113.742 126.078 113.742 124.496C113.742 119.213 113.396 118.536 115.481 115.667C115.481 115.667 117.423 117.874 119.937 120.361L126.425 110.708C125.003 108.898 123.309 106.69 121.939 104.703Z" fill="#C0E1D9" stroke="#263238" stroke-linecap="round" stroke-linejoin="round"/>
<path d="M115.466 115.6C115.466 115.6 118.778 109.471 116.866 104.873" stroke="#263238" stroke-linecap="round" stroke-linejoin="round"/>
<path d="M101.149 166.665C101.285 168.136 101.383 169.608 101.42 171.079" stroke="#263238" stroke-linecap="round" stroke-linejoin="round"/>
<path d="M95.0222 142.008C97.7831 149.001 99.7224 156.278 100.803 163.7" stroke="#263238" stroke-linecap="round" stroke-linejoin="round"/>
<path d="M108.571 163.346C107.246 168.61 105.222 173.681 102.549 178.43" stroke="#263238" stroke-linecap="round" stroke-linejoin="round"/>
<path d="M84.3035 92.4375C84.3035 92.4375 78.0259 93.4603 75.5871 96.19C73.1483 98.9198 57.635 130.971 58.1543 132.803C58.6737 134.635 66.3438 133.826 69.6558 130.596C72.9677 127.366 85.154 102.157 85.154 102.157" fill="#C0E1D9"/>
<path d="M84.3035 92.4375C84.3035 92.4375 78.0259 93.4603 75.5871 96.19C73.1483 98.9198 57.635 130.971 58.1543 132.803C58.6737 134.635 66.3438 133.826 69.6558 130.596C72.9677 127.366 85.154 102.157 85.154 102.157" stroke="#263238" stroke-linecap="round" stroke-linejoin="round"/>
<path d="M77.7475 116.881L66.6149 113.025C62.1814 122.179 57.8759 131.803 58.1544 132.804C58.6738 134.672 66.3439 133.826 69.6558 130.596C71.1688 129.11 74.5183 123.032 77.7475 116.881Z" fill="white" stroke="#263238" stroke-linecap="round" stroke-linejoin="round"/>
<path d="M63.2278 123.775C63.2278 123.775 90.235 119.176 91.4544 118.838C92.6738 118.5 98.5901 112.025 99.117 111.855C99.6439 111.686 104.514 111.002 106.644 111.517C108.774 112.032 110.302 112.54 109.256 112.878C107.479 113.247 105.674 113.473 103.859 113.555C103.274 113.577 102.69 113.636 102.113 113.732C102.113 113.732 107.517 115.093 108.39 115.77C109.263 116.447 109.256 117.131 108.21 117.131C107.163 117.131 101.593 116.116 101.593 116.116C101.593 116.116 108.563 119.176 108.21 119.692C107.856 120.207 106.644 120.03 105.078 119.692C103.695 119.301 102.352 118.787 101.066 118.154C101.066 118.154 105.252 122.414 104.032 122.568C102.813 122.723 102.64 122.23 101.774 121.207C100.904 120.378 99.9055 119.688 98.8159 119.162C98.8159 119.162 97.0696 122.399 94.4577 123.076C92.7466 123.48 90.9694 123.54 89.2339 123.253C89.2339 123.253 74.0743 131.082 69.3699 132.619C64.6654 134.157 60.0965 135.371 58.5384 133.65C56.9803 131.928 60.7965 126.159 60.7965 126.159" fill="white"/>
<path d="M63.2278 123.775C63.2278 123.775 90.235 119.176 91.4544 118.838C92.6738 118.5 98.5901 112.025 99.117 111.855C99.6439 111.686 104.514 111.002 106.644 111.517C108.774 112.032 110.302 112.54 109.256 112.878C107.479 113.247 105.674 113.473 103.859 113.555C103.274 113.577 102.69 113.636 102.113 113.732C102.113 113.732 107.517 115.093 108.39 115.77C109.263 116.447 109.256 117.131 108.21 117.131C107.163 117.131 101.593 116.116 101.593 116.116C101.593 116.116 108.563 119.176 108.21 119.692C107.856 120.207 106.644 120.03 105.078 119.692C103.695 119.301 102.352 118.787 101.066 118.154C101.066 118.154 105.252 122.414 104.032 122.568C102.813 122.723 102.64 122.23 101.774 121.207C100.904 120.378 99.9055 119.688 98.8159 119.162C98.8159 119.162 97.0696 122.399 94.4577 123.076C92.7466 123.48 90.9694 123.54 89.2339 123.253C89.2339 123.253 74.0743 131.082 69.3699 132.619C64.6654 134.157 60.0965 135.371 58.5384 133.65C56.9803 131.928 60.7965 126.159 60.7965 126.159" stroke="#263238" stroke-linecap="round" stroke-linejoin="round"/>
<path d="M88.993 66.56C88.993 66.56 87.593 64.176 86.5542 65.7065C85.5155 67.2369 85.6811 70.1213 87.2467 72.0049C88.8124 73.8885 91.763 73.0276 91.763 73.0276C91.763 73.0276 93.5017 79.5026 96.6405 81.71C99.7793 83.9174 106.049 84.094 109.181 80.6946C112.312 77.2952 112.493 69.9594 111.973 63.4917C111.454 57.0241 108.315 53.7866 108.315 53.7866C108.315 53.7866 100.991 59.4007 97.333 60.7693C94.9618 61.6222 92.5116 62.2481 90.0167 62.6382L88.993 66.56Z" fill="white" stroke="#263238" stroke-linecap="round" stroke-linejoin="round"/>
<path d="M106.817 74.9037C106.029 75.1887 105.177 75.2612 104.351 75.1136C103.525 74.966 102.754 74.6038 102.12 74.0649" stroke="#263238" stroke-linecap="round" stroke-linejoin="round"/>
<path d="M93.1704 59.9155H79.0571V65.7062H93.1704V59.9155Z" fill="#92E3A9" stroke="#263238" stroke-linecap="round" stroke-linejoin="round"/>
<path d="M115.473 60.085H91.7703C90.5232 60.085 89.5122 61.0732 89.5122 62.2923V69.2897C89.5122 70.5088 90.5232 71.4971 91.7703 71.4971H115.473C116.72 71.4971 117.731 70.5088 117.731 69.2897V62.2923C117.731 61.0732 116.72 60.085 115.473 60.085Z" fill="#92E3A9" stroke="#263238" stroke-linecap="round" stroke-linejoin="round"/>
<path d="M118.431 60.085H96.3018C95.0547 60.085 94.0437 61.0732 94.0437 62.2923V69.2897C94.0437 70.5088 95.0547 71.4971 96.3018 71.4971H118.431C119.679 71.4971 120.69 70.5088 120.69 69.2897V62.2923C120.69 61.0732 119.679 60.085 118.431 60.085Z" fill="#92E3A9"/>
<path opacity="0.3" d="M118.431 60.085H96.3018C95.0547 60.085 94.0437 61.0732 94.0437 62.2923V69.2897C94.0437 70.5088 95.0547 71.4971 96.3018 71.4971H118.431C119.679 71.4971 120.69 70.5088 120.69 69.2897V62.2923C120.69 61.0732 119.679 60.085 118.431 60.085Z" fill="black"/>
<path d="M118.431 60.085H96.3018C95.0547 60.085 94.0437 61.0732 94.0437 62.2923V69.2897C94.0437 70.5088 95.0547 71.4971 96.3018 71.4971H118.431C119.679 71.4971 120.69 70.5088 120.69 69.2897V62.2923C120.69 61.0732 119.679 60.085 118.431 60.085Z" stroke="#263238" stroke-linecap="round" stroke-linejoin="round"/>
<path opacity="0.6" d="M181.621 54.4341H153.658C150.673 54.4341 148.254 56.7994 148.254 59.7171V85.492C148.254 88.4097 150.673 90.775 153.658 90.775H181.621C184.606 90.775 187.026 88.4097 187.026 85.492V59.7171C187.026 56.7994 184.606 54.4341 181.621 54.4341Z" fill="#638A66"/>
<path d="M142.134 74.7788V70.2095" stroke="#263238" stroke-linecap="round" stroke-linejoin="round"/>
<path d="M164.776 97.1248H147.531C146.098 97.1248 144.723 96.5682 143.71 95.5775C142.696 94.5867 142.127 93.243 142.127 91.8418V76.8169" stroke="#263238" stroke-linecap="round" stroke-linejoin="round"/>
<path d="M174.072 97.1543H168.464" stroke="#263238" stroke-linecap="round" stroke-linejoin="round"/>
<path d="M193.138 64.75V91.864C193.136 93.2646 192.566 94.6072 191.553 95.5975C190.54 96.5878 189.166 97.1451 187.733 97.147H177.76" stroke="#263238" stroke-linecap="round" stroke-linejoin="round"/>
<path d="M150.542 48.0547H187.748C188.458 48.0547 189.161 48.1913 189.817 48.4568C190.472 48.7223 191.068 49.1115 191.57 49.602C192.072 50.0926 192.47 50.675 192.741 51.316C193.013 51.9569 193.153 52.6439 193.153 53.3377V59.901" stroke="#263238" stroke-linecap="round" stroke-linejoin="round"/>
<path d="M184.143 52.0723H151.137C148.152 52.0723 145.732 54.4375 145.732 57.3553V87.8613C145.732 90.779 148.152 93.1443 151.137 93.1443H184.143C187.128 93.1443 189.547 90.779 189.547 87.8613V57.3553C189.547 54.4375 187.128 52.0723 184.143 52.0723Z" stroke="#263238" stroke-linecap="round" stroke-linejoin="round"/>
<path opacity="0.5" d="M240.34 52.0723H207.334C204.349 52.0723 201.929 54.4375 201.929 57.3553V87.8613C201.929 90.779 204.349 93.1443 207.334 93.1443H240.34C243.325 93.1443 245.745 90.779 245.745 87.8613V57.3553C245.745 54.4375 243.325 52.0723 240.34 52.0723Z" fill="white" stroke="#263238" stroke-linecap="round" stroke-linejoin="round"/>
<path opacity="0.5" d="M184.143 105.535H151.137C148.152 105.535 145.732 107.9 145.732 110.818V141.324C145.732 144.242 148.152 146.607 151.137 146.607H184.143C187.128 146.607 189.547 144.242 189.547 141.324V110.818C189.547 107.9 187.128 105.535 184.143 105.535Z" fill="white" stroke="#263238" stroke-linecap="round" stroke-linejoin="round"/>
<path opacity="0.5" d="M240.34 105.535H207.334C204.349 105.535 201.929 107.9 201.929 110.818V141.324C201.929 144.242 204.349 146.607 207.334 146.607H240.34C243.325 146.607 245.745 144.242 245.745 141.324V110.818C245.745 107.9 243.325 105.535 240.34 105.535Z" fill="white" stroke="#263238" stroke-linecap="round" stroke-linejoin="round"/>
<path d="M237.819 54.4341H209.856C206.871 54.4341 204.451 56.7994 204.451 59.7171V85.492C204.451 88.4097 206.871 90.775 209.856 90.775H237.819C240.804 90.775 243.223 88.4097 243.223 85.492V59.7171C243.223 56.7994 240.804 54.4341 237.819 54.4341Z" fill="#A2BDA2"/>
<path d="M181.621 107.904H153.658C150.673 107.904 148.254 110.27 148.254 113.187V138.962C148.254 141.88 150.673 144.245 153.658 144.245H181.621C184.606 144.245 187.026 141.88 187.026 138.962V113.187C187.026 110.27 184.606 107.904 181.621 107.904Z" fill="#A2BDA2"/>
<path d="M237.819 107.904H209.856C206.871 107.904 204.451 110.27 204.451 113.187V138.962C204.451 141.88 206.871 144.245 209.856 144.245H237.819C240.804 144.245 243.223 141.88 243.223 138.962V113.187C243.223 110.27 240.804 107.904 237.819 107.904Z" fill="#A2BDA2"/>
<path d="M167.659 65.8462C167.945 65.9051 168.08 66.0228 168.08 66.2067V77.8911C168.025 78.1855 167.882 78.3326 167.651 78.3326C167.342 78.2738 167.184 78.156 167.184 77.9794V66.8763C166.714 67.0523 166.227 67.1853 165.732 67.2736C165.566 67.2736 165.446 67.1338 165.37 66.8542V66.7071C165.37 66.4937 165.784 66.3024 166.597 66.1405L167.659 65.8462Z" fill="#263238"/>
<path d="M223.081 65.8535C224.079 65.8535 225.036 66.2411 225.742 66.9311C226.448 67.621 226.844 68.5568 226.844 69.5325C226.804 70.1602 226.631 70.773 226.336 71.3317C226.04 71.8904 225.629 72.3828 225.128 72.7773L220.928 77.4791H226.618C226.837 77.4791 226.965 77.6262 227.017 77.9132C227.07 78.2001 226.829 78.3547 226.581 78.3547H219.851C219.558 78.2958 219.407 78.156 219.407 77.9279C219.407 77.7807 219.603 77.5232 220.002 77.1921L225.414 71.166C225.714 70.7601 225.893 70.2812 225.932 69.7821C225.97 69.283 225.867 68.7831 225.634 68.3377C225.4 67.8923 225.045 67.5187 224.608 67.2582C224.17 66.9977 223.668 66.8604 223.156 66.8616H223.05C222.455 66.8561 221.875 67.0397 221.395 67.3847C220.916 67.7297 220.565 68.2175 220.393 68.7746C220.309 69.0649 220.259 69.3636 220.243 69.6649C220.138 69.8783 220.01 69.9813 219.851 69.9813H219.791C219.498 69.9298 219.347 69.7974 219.347 69.5987C219.354 68.9619 219.529 68.3375 219.856 67.7868C220.183 67.2361 220.651 66.7778 221.214 66.4569C221.774 66.1046 222.416 65.8971 223.081 65.8535V65.8535Z" fill="#263238"/>
<path d="M167.102 119.36C167.587 119.369 168.063 119.488 168.493 119.707C168.923 119.927 169.294 120.242 169.578 120.626C169.955 121.113 170.158 121.707 170.158 122.318V122.451C170.126 122.941 169.985 123.418 169.744 123.849C169.504 124.28 169.169 124.654 168.765 124.945C169.333 125.283 169.808 125.752 170.147 126.312C170.485 126.871 170.678 127.504 170.707 128.153C170.714 128.632 170.624 129.107 170.442 129.552C170.26 129.997 169.99 130.402 169.647 130.744C169.304 131.086 168.895 131.358 168.444 131.545C167.993 131.732 167.509 131.829 167.019 131.832H166.891C166.168 131.822 165.463 131.608 164.861 131.217C164.259 130.825 163.785 130.273 163.496 129.625C163.313 129.154 163.214 128.656 163.203 128.153C163.203 127.962 163.376 127.837 163.714 127.77C163.918 127.77 164.046 127.925 164.091 128.234C164.102 128.766 164.268 129.284 164.571 129.726C164.874 130.168 165.3 130.516 165.799 130.728C166.182 130.87 166.587 130.948 166.996 130.956C167.553 130.955 168.096 130.79 168.554 130.481C169.012 130.172 169.364 129.735 169.563 129.227C169.676 128.935 169.742 128.627 169.759 128.315V128.028C169.744 127.493 169.566 126.975 169.248 126.54C168.931 126.105 168.487 125.772 167.975 125.585L166.861 125.35C166.796 125.311 166.741 125.257 166.702 125.193C166.662 125.129 166.64 125.056 166.635 124.982V124.945C166.635 124.665 166.868 124.533 167.343 124.533C167.67 124.496 167.985 124.388 168.264 124.216C168.543 124.044 168.778 123.813 168.953 123.54C169.144 123.177 169.252 122.777 169.269 122.37C169.272 121.973 169.158 121.583 168.941 121.248C168.723 120.912 168.411 120.646 168.043 120.479C167.532 120.227 166.941 120.183 166.398 120.357C165.855 120.531 165.404 120.908 165.145 121.406C165.077 121.529 165.023 121.66 164.987 121.796C164.969 122.068 164.929 122.339 164.866 122.605C164.701 122.789 164.58 122.877 164.505 122.877C164.181 122.804 164.016 122.686 164.016 122.524V122.355C164.02 121.808 164.18 121.274 164.478 120.811C164.776 120.349 165.199 119.976 165.702 119.736C166.134 119.51 166.612 119.382 167.102 119.36V119.36Z" fill="#263238"/>
<path d="M225.143 119.419H225.354C225.489 119.419 225.61 119.545 225.715 119.795L225.678 120.096V127.101H227.318C227.514 127.101 227.657 127.263 227.732 127.579C227.732 127.763 227.604 127.903 227.341 127.999L226.867 127.962H225.693V131.479C225.693 131.648 225.542 131.766 225.241 131.825C224.94 131.773 224.789 131.634 224.789 131.413V127.962H219.867L219.114 127.999C218.896 127.911 218.783 127.785 218.783 127.616V127.476C218.783 127.395 218.873 127.278 219.069 127.138C222.772 122.414 224.727 119.9 224.932 119.596C224.978 119.514 225.053 119.451 225.143 119.419V119.419ZM220.168 127.101H224.782V121.215L220.168 127.101Z" fill="#263238"/>
</g>
<defs>
<clipPath id="clip0_14_1582">
<rect width="300" height="281.25" fill="white"/>
</clipPath>
</defs>
</svg>
