<svg fill="none" height="282" viewBox="0 0 300 282" width="300" xmlns="http://www.w3.org/2000/svg" xmlns:xlink="http://www.w3.org/1999/xlink"><clipPath id="a"><path d="m0 0h300v281.25h-300z"/></clipPath><g clip-path="url(#a)"><path d="m211.903 235.793c3.5-1.119 7.061-2.016 10.644-2.811 10.974-2.428 36.611-11.515 55.632-44.751 24.84-43.412 20.323-109.6333-10.538-146.423-30.861-36.78976-79.034-49.29826-124.949-37.52555-22.378 5.73915-37.297 20.60225-50.1836 38.54825-11.2154 15.6209-23.8609 30.6826-40.8571 40.5643-16.8381 9.7935-34.1354 17.6-42.61842 36.208-20.69198 45.274-5.57005 97.957 43.34852 115.719 49.3476 17.924 129.7746 10.014 159.5216.471z" fill="#92e3a9"/><path d="m211.903 235.793c3.5-1.119 7.061-2.016 10.644-2.811 10.974-2.428 36.611-11.515 55.632-44.751 24.84-43.412 20.323-109.6333-10.538-146.423-30.861-36.78976-79.034-49.29826-124.949-37.52555-22.378 5.73915-37.297 20.60225-50.1836 38.54825-11.2154 15.6209-23.8609 30.6826-40.8571 40.5643-16.8381 9.7935-34.1354 17.6-42.61842 36.208-20.69198 45.274-5.57005 97.957 43.34852 115.719 49.3476 17.924 129.7746 10.014 159.5216.471z" fill="#f1cbb5"/><path d="m162.322 281.25c76.037 0 137.678-4.941 137.678-11.037 0-6.095-61.641-11.037-137.678-11.037-76.0376 0-137.6782 4.942-137.6782 11.037 0 6.096 61.6406 11.037 137.6782 11.037z" fill="#92e3a9"/><path d="m162.322 281.25c76.037 0 137.678-4.941 137.678-11.037 0-6.095-61.641-11.037-137.678-11.037-76.0376 0-137.6782 4.942-137.6782 11.037 0 6.096 61.6406 11.037 137.6782 11.037z" fill="#d2977c" opacity=".5"/><path d="m292.977 173.353c-.918-.088-10.372-.883-19.006 3.503 3.815-4.682 5.572-10.653 4.885-16.6-2.077-20.359-21.738-32.014-23.251-32.89v-.074h-.098v.052c-1.505.876-21.166 12.508-23.251 32.89-.45 3.949.173 7.943 1.807 11.581-11.073-6.467-23.982-5.378-25.171-5.261h-.045c-.58 1.318-7.971 18.675.903 33.435 7.941 13.193 24.584 9.705 29.107 8.469 3.801 3.9 10.719 12.773 13.782 27.96h-4.313l2.078 28.696h9.702l2.078-28.696h-5.073c2.313-10.269 6.5-20.047 12.359-28.865 4.516 1.096 16.778 2.943 22.815-7.078 7.158-11.964 1.166-26.055.692-27.122zm-37.763-.11-10.26-13.921c-.043-.06-.06-.134-.047-.205.013-.072.054-.136.115-.178s.136-.059.21-.046c.073.012.139.053.181.112l9.786 13.325v-14.097l-10.26-13.922c-.044-.058-.062-.131-.051-.203.012-.072.052-.136.111-.179.06-.043.135-.061.209-.05.073.011.139.05.183.109l9.785 13.325v-20.455c-.001-.036.006-.072.019-.106.014-.033.034-.063.06-.089.026-.025.058-.045.092-.059.034-.013.071-.019.108-.018.073.001.143.031.194.081.052.051.082.119.084.191v19.866l10.726-13.244c.046-.056.112-.093.185-.102.073-.01.147.008.207.05.059.046.098.112.108.185s-.01.147-.056.205l-11.087 13.745v14.098l10.643-13.215c.046-.056.112-.093.185-.102.073-.01.147.008.207.051.059.045.098.111.108.184s-.01.147-.056.205l-11.087 13.745v11.927l10.643-13.2c.023-.028.051-.051.083-.069.032-.017.067-.028.104-.032.036-.004.073-.001.108.008.035.01.068.027.097.049.057.045.095.11.104.181.01.071-.008.143-.052.202l-11.087 13.744v.258h-.911l-9.951-13.421c-.044-.059-.062-.132-.051-.204.012-.071.052-.136.111-.179.06-.043.135-.061.209-.049.073.011.139.05.183.108l9.785 13.325v-11.919zm-16.289 33.979-1.016-1.354-14.422-3.929c-.03-.008-.058-.021-.082-.039-.024-.019-.045-.041-.06-.067-.016-.026-.026-.055-.03-.085s-.002-.06.006-.089c.007-.029.02-.057.039-.082.018-.024.042-.044.068-.06.027-.015.057-.024.088-.028.031-.003.062-.001.091.008l13.858 3.79-6.022-8.094-14.429-3.937c-.059-.015-.108-.052-.139-.103s-.041-.111-.027-.169c.018-.057.057-.105.111-.134.053-.029.116-.036.175-.02l13.858 3.774-7.129-9.565-14.414-3.826c-.062-.006-.119-.036-.158-.083-.04-.046-.059-.107-.053-.167.006-.061.037-.117.084-.155.048-.039.11-.057.172-.051.025-.007.051-.007.075 0l13.858 3.774-10.019-13.399c-.036-.05-.05-.111-.041-.172.01-.06.044-.115.094-.151.05-.035.112-.049.173-.039.06.009.114.042.151.09l10.364 13.863-.097-13.738c-.003-.029.002-.058.012-.086.01-.027.025-.053.046-.074.02-.022.045-.039.073-.05.027-.012.057-.018.087-.018.03-.001.061.004.09.015.028.01.055.026.077.047.022.02.04.045.053.072.013.028.02.057.021.087l.105 14.348 7.121 9.521-.106-13.781c0-.061.025-.119.069-.162.043-.042.103-.066.165-.066.029-.001.059.003.087.014.027.01.053.025.075.045.021.02.039.044.051.07s.019.055.02.084l.105 14.348 6.022 8.05-.098-13.745c0-.061.025-.119.069-.161.043-.043.103-.067.165-.067.061 0 .121.024.165.067.043.042.068.1.068.161l.105 14.348.858 1.155zm1.633 0c2.108-3.127 8.182-13.406 4.517-23.288 2.832 1.819 5.861 3.327 9.032 4.496v44.611c-3.327-13.671-9.604-21.883-13.436-25.819zm15.807 23.067v-41.653c3.001-1.071 5.88-2.444 8.589-4.099-5.789 9.073.692 19.55 2.401 22.023-4.874 7.328-8.589 15.332-11.02 23.744zm36.13-43.478-11.734 3.186-5.781 7.733 11.245-3.061c.024-.007.049-.009.073-.006.025.003.049.01.071.021.021.012.04.028.056.047.015.018.027.04.034.063.01.048.001.097-.024.139s-.065.074-.112.089l-11.704 3.194-4.886 6.534 11.238-3.069c.049-.009.1-.001.143.023.043.025.075.064.091.11.007.023.009.047.006.071s-.01.048-.022.069-.028.04-.047.055-.041.026-.065.033l-11.742 3.245-.618.816c-.113-.058-.218-.125-.323-.191l.353-.471.091-11.64c0-.049.02-.096.055-.13.035-.035.083-.054.133-.054s.098.019.133.054c.035.034.055.081.055.13l-.083 11.147 4.885-6.534.091-11.64c0-.049.02-.095.055-.13.035-.034.083-.054.133-.054s.098.02.133.054c.035.035.055.081.055.13l-.128 11.155 5.781-7.726.09-11.648c0-.049.02-.095.055-.13.036-.034.084-.054.133-.054.051.002.099.023.134.059s.055.083.055.133l-.083 11.147 8.415-11.25c.014-.021.033-.038.054-.051.021-.012.045-.021.07-.024.024-.004.05-.002.074.004.024.007.046.018.066.034.039.029.066.073.073.121s-.006.097-.036.136l-8.129 10.875 11.245-3.068c.025-.007.05-.008.075-.005s.049.011.071.023c.021.013.04.029.056.049.015.019.026.042.032.066.01.047.001.097-.024.139s-.065.073-.112.089z" fill="#638a66"/><g stroke="#263238" stroke-linecap="round" stroke-linejoin="round"><path d="m57.4922 125.166v6.527"/><path d="m60.8267 128.426h-6.6766"/><path d="m267.242 69.2456v6.5265"/><path d="m270.584 72.5054h-6.676"/><path d="m130.249 156.069v6.527"/><path d="m133.591 159.329h-6.676"/><path d="m190.466 18.7188v6.5264"/><path d="m193.808 21.9858h-6.677"/><path d="m190.466 193.912v6.526"/><path d="m193.808 197.178h-6.677"/><path d="m137.588 41.8892v4.4883"/><path d="m139.884 44.1333h-4.592"/><path d="m39.3669 68.8262v6.5338"/><path d="m42.7088 72.0933h-6.6766"/><path d="m73.043 198.252v6.527"/><path d="m76.385 201.52h-6.6765"/><path d="m264.064 47.0545c.761-2.8843-1.014-5.8255-3.965-6.5693-2.95-.7438-5.959.9915-6.72 3.8758s1.014 5.8255 3.965 6.5692c2.951.7438 5.959-.9914 6.72-3.8757z"/><path d="m197.014 158.932c.002 1.068-.321 2.113-.927 3.002-.605.889-1.467 1.582-2.476 1.992s-2.12.519-3.192.312-2.057-.72-2.831-1.475c-.774-.754-1.301-1.715-1.516-2.763-.214-1.047-.107-2.133.31-3.121.417-.987 1.124-1.831 2.032-2.426s1.975-.913 3.068-.914c.726-.002 1.445.136 2.116.406s1.281.667 1.795 1.168.922 1.096 1.2 1.752c.278.655.421 1.357.421 2.067z"/><path d="m46.018 175.312c2.8302-1.104 4.2092-4.241 3.0801-7.008-1.1291-2.766-4.3389-4.114-7.1691-3.011-2.8302 1.104-4.2092 4.242-3.0801 7.008 1.1292 2.767 4.3389 4.115 7.1691 3.011z"/><path d="m140.561 214.838c2.029 0 3.673-1.608 3.673-3.591s-1.644-3.591-3.673-3.591c-2.028 0-3.673 1.608-3.673 3.591s1.645 3.591 3.673 3.591z"/><path d="m200.529 100.907c0 .243-.073.481-.211.683-.139.202-.335.359-.565.452-.229.093-.482.118-.726.07-.244-.047-.468-.164-.643-.336-.176-.172-.296-.391-.344-.629-.049-.239-.024-.486.071-.71.095-.225.256-.417.463-.5517.207-.135.45-.2071.698-.2071.334 0 .654.1295.889.3598.236.231.368.543.368.869z"/><path d="m115.97 83.2478c-.025.3186-.176.6152-.42.8277s-.563.3242-.89.3119c-.326-.0124-.635-.148-.862-.3783s-.353-.5374-.353-.8569c0-.3196.126-.6267.353-.857s.536-.3659.862-.3783c.327-.0123.646.0994.89.3119s.395.5091.42.8277z"/><path d="m156.368 160.404c0 .243-.074.48-.212.682s-.334.36-.564.453-.482.117-.726.07c-.244-.048-.468-.165-.644-.337-.176-.171-.295-.39-.344-.629-.048-.238-.023-.485.072-.71.095-.224.256-.416.463-.551.206-.135.449-.207.698-.207.333 0 .653.129.889.36.236.23.368.543.368.869z"/><path d="m217.338 217.795c0 .243-.074.481-.212.683s-.335.359-.564.452c-.23.093-.483.118-.727.07-.244-.047-.468-.164-.643-.336-.176-.172-.296-.391-.344-.629-.049-.238-.024-.486.071-.71.095-.225.256-.416.463-.551.207-.136.45-.208.699-.208.333 0 .653.13.888.36.236.231.369.543.369.869z"/></g><path d="m151.588 12.8472c.867.0192 1.719.2212 2.499.592.779.3708 1.467.9017 2.018 1.5565.906 1.0648 1.406 2.4042 1.415 3.7893-.019.8778-.238 1.7404-.642 2.5247-.403.7842-.982 1.4703-1.692 2.0078-.833.3818-1.534.9917-2.019 1.7559-.485.7641-.733 1.6495-.713 2.5485-.075.5004-.309.7358-.692.7358-.384 0-.753-.2869-.753-.5592v-.4268c0-2.1264 1.174-3.8923 3.538-5.3124.476-.4444.855-.9788 1.114-1.5707s.392-1.2291.391-1.8728c0-1.6776-.911-3.0168-2.717-4.0174-.623-.2052-1.271-.324-1.927-.3532-1.777 0-3.169.9271-4.178 2.7813l-.384 1.8248c-.203.2575-.391.3826-.557.3826-.527-.103-.752-.3311-.752-.6696 0-1.8395.928-3.4435 2.785-4.8121.992-.5679 2.117-.8793 3.266-.905zm0 17.7179h.189c.474 0 .813.2943 1.016.8903v.287c-.016.2836-.144.5501-.358.7425-.214.1925-.496.2957-.786.2876-.753-.1545-1.114-.5004-1.114-1.0449-.019-.2885.08-.5725.274-.7902.195-.2177.469-.3515.764-.3723z" fill="#263238"/><path d="m26.6536 135.019c-.8673-.021-1.7198-.224-2.4993-.596-.7794-.372-1.4675-.904-2.017-1.56-.9025-1.067-1.3998-2.406-1.4076-3.79.0186-.877.2377-1.74.6415-2.524.4037-.785.9818-1.471 1.6919-2.008.8306-.385 1.5301-.996 2.0148-1.759.4846-.763.7337-1.647.7176-2.546.0752-.5.3086-.735.6925-.735.3838 0 .7527.287.7527.559v.427c0 2.126-1.1818 3.892-3.5378 5.312-.4792.442-.8601.976-1.1191 1.569-.259.592-.3905 1.23-.3863 1.875 0 1.677.9058 3.016 2.7173 4.017.6221.206 1.2708.325 1.9269.353 1.7764 0 3.1689-.927 4.1776-2.781l.3839-1.818c.2032-.264.3914-.389.557-.389.5269.103.7527.331.7527.676 0 1.825-.9334 3.429-2.7851 4.805-.9941.572-2.1211.886-3.2742.913zm0-17.726h-.1882c-.4742 0-.8129-.294-1.0162-.89v-.287c.0058-.141.0401-.28.1007-.408.0607-.128.1466-.243.2529-.339.1062-.096.2308-.17.3664-.218.1357-.049.2798-.071.4241-.065.7528.154 1.1141.5 1.1141 1.045.0147.287-.0854.569-.2792.786-.1937.217-.4661.352-.7596.376z" fill="#263238"/><path d="m40.6464 37.7612c.6628.0051 1.3075.2127 1.8435.5939.5361.3811.9368.9166 1.1459 1.5315s.2162 1.2783.0203 1.8973c-.196.619-.5851 1.1626-1.1129 1.5547-.3889.181-.7167.467-.9448.8242-.228.3572-.3468.7708-.3423 1.1918-.0527.3606-.2409.5372-.5495.5372-.1321.0062-.2615-.0379-.3612-.1229-.0996-.0851-.1617-.2045-.1732-.3333v-.2134c.0186-.5859.1991-1.1559.5225-1.6495s.7775-.8923 1.3141-1.1539c.2204-.2031.3956-.4483.5147-.7205s.1797-.5654.1778-.8614c-.0076-.3902-.1283-.7701-.3482-1.0958-.2199-.3256-.5298-.5836-.8938-.7437-.2865-.0965-.5855-.1535-.8882-.1693-.4131.0061-.8152.1306-1.1565.3582-.3412.2277-.6065.5483-.7629.9221l-.1957.9271c-.0517.0804-.1211.1485-.2032.1994-.082.0509-.1746.0833-.271.0949-.3688-.0735-.557-.2501-.557-.515.019-.5143.166-1.0163.4283-1.4625.2624-.4462.6321-.8231 1.0771-1.0981.5197-.3047 1.1105-.4744 1.7162-.493zm0 8.8737h.1204c.3162 0 .5495.1987.685.596v.184c-.0134.186-.0985.3602-.2383.4872-.1397.1271-.3236.1975-.5144.197-.4817-.103-.7527-.3311-.7527-.7358-.0011-.1819.0667-.3577.1904-.4936s.2945-.2221.4795-.2421z" fill="#263238"/><path d="m130.219 84.3663c-.461-.0108-.915-.1189-1.329-.3171-.415-.1981-.78-.4815-1.072-.8308-.536-.6197-.798-1.422-.729-2.2305s.464-1.5571 1.098-2.0812l.135-.103c.389-.1827.716-.4703.943-.8288.226-.3586.343-.7732.337-1.1947.06-.3605.241-.5371.557-.5371.066-.004.132.0049.194.0262.062.0212.12.0544.169.0975.049.0432.088.0955.117.1538.028.0584.044.1216.047.186v.2134c-.02.5857-.201 1.1554-.524 1.6488-.323.4935-.777.8924-1.313 1.1546-.223.2014-.399.4463-.519.7189-.119.2726-.178.5666-.173.8631.009.3887.13.767.348 1.0921s.525.584.886.7473c.287.0941.586.1486.888.1619.413-.0088.813-.1345 1.154-.3618.341-.2272.607-.5463.766-.9185l.203-.9271c.047-.0829.114-.1531.195-.2045.082-.0513.175-.0822.271-.0898.369.081.557.2502.557.5151-.018.5143-.166 1.0163-.428 1.4625s-.632.8231-1.077 1.098c-.519.292-1.103.4585-1.701.4857zm0-8.8811h-.113c-.324 0-.557-.1986-.692-.596v-.1839c.013-.1861.098-.3603.238-.4873s.323-.1975.514-.197c.474.103.753.3385.753.7358.002.1774-.062.3496-.179.4848-.118.1353-.281.2244-.461.251z" fill="#263238"/><path d="m110.588 50.8874s4.012-3.0609 1.22-7.1519c-2.793-4.091-16.7181-4.5987-26.6539-.1692s-9.0325 10.2202-8.182 12.0891c.8506 1.8689 2.0625 4.2602 2.0625 4.2602v5.7907s-.5194 3.4068-6.4432 7.6597c-5.9239 4.2528-10.4326 11.2502-9.2132 16.4008s5.0582 5.283 1.9194 9.1974c-3.1388 3.9148-13.9402 6.4678-14.6327 14.6428-.6925 8.174 1.7388 20.271 19.6834 22.14s25.2609-4.253 34.1427-14.989c8.882-10.735 10.975-18.902 10.282-28.2688-.692-9.3666-5.404-10.7278-5.224-16.5185.181-5.7907 8.355-15.15 6.27-20.9407s-5.231-4.1426-5.231-4.1426z" fill="#263238" stroke="#263238" stroke-linecap="round" stroke-linejoin="round"/><path d="m94.9092 78.4797s1.4 5.2756.3538 7.8288c-1.0463 2.5532-4.012 3.576-10.282 5.96-6.2701 2.3839-7.3164 8.8295-4.8776 14.1345s10.8014 18.395 9.582 21.287c-1.2194 2.891-13.5488 12.265-13.7595 25.752-.2108 13.488 7.5271 31.507 7.5271 31.507h27.353s2.959-55.184 2.959-60.453c0-5.268-.347-5.96 1.738-8.829 0 0 11.675 13.112 14.814 12.089 3.138-1.023 19.856-34.0601 19.856-34.0601 2.098-1.2453 4.081-2.6684 5.924-4.2529 2.439-2.2074 3.831-3.4067 3.139-5.7907-.163-.6619-.509-1.2668-1.002-1.7474-.493-.4807-1.113-.8182-1.791-.975 0 0 4.516-7.4978 3.839-8.3439-.677-.8462-2.093.3384-3.485 3.0609-1.393 2.7224-4.012 5.1137-6.278 9.5653-2.265 4.4515-2.785 5.7907-2.785 5.7907s-14.504 18.9761-16.205 20.8381c-.684.8-1.44 1.539-2.259 2.207 0 0-4.32-5.151-7.331-9.381-3.011-4.231-3.312-5.6219-5.924-7.8366-2.612-2.2148-11.501-7.1519-12.721-8.1747-1.219-1.0228-.173-7.1519-.173-7.1519z" fill="#fff" stroke="#263238" stroke-linecap="round" stroke-linejoin="round"/><path d="m161.464 82.9019c.412.2289.716.6072.846 1.0533.129.446.074.924-.154 1.3306-.692 1.7071-3.485 2.8991-4.004 2.2074-.519-.6916 3.312-4.5913 3.312-4.5913z" fill="#fff" stroke="#263238" stroke-linecap="round" stroke-linejoin="round"/><path d="m160.064 80.3486s2.792.6843 1.4 2.5532c-1.393 1.869-4.012 4.4148-4.516 3.9218-.505-.493.873-2.3839 1.046-3.0682.596-1.1876 1.288-2.3268 2.07-3.4068z" fill="#fff" stroke="#263238" stroke-linecap="round" stroke-linejoin="round"/><path d="m157.121 81.8863s-2.258 3.3993-1.393 3.9144c.866.515 2.958-1.7071 4.005-3.7452 1.046-2.0382-1.235-2.5532-2.612-.1692z" fill="#fff" stroke="#263238" stroke-linecap="round" stroke-linejoin="round"/><path d="m150.662 89.5462s2.439-1.3612 3.132-2.8917c.391-1.1034.391-2.3033 0-3.4067 0 0 3.138-.6843 3.831-.6843.692 0 1.573-1.0228 1.4-2.2074s-5.058.1692-6.774.5151c-1.717.3458-1.747 4.2529-1.747 4.2529l-1.761 4.6428" fill="#fff"/><path d="m150.662 89.5462s2.439-1.3612 3.132-2.8917c.391-1.1034.391-2.3033 0-3.4067 0 0 3.138-.6843 3.831-.6843.692 0 1.573-1.0228 1.4-2.2074s-5.058.1692-6.774.5151c-1.717.3458-1.747 4.2529-1.747 4.2529l-1.761 4.6428" stroke="#263238" stroke-linecap="round" stroke-linejoin="round"/><path d="m112.711 182.477s.647 9.735-1.506 16.188c-1.302 3.892-5.878 34.368-6.398 40.615-.594 7.123-.956 17.512.203 20.566.889 2.34 8.054 11.964 11.013 13.318.895.412.293 1.869-.693 1.986-2.825.177-5.66-.168-8.355-1.015-2.732-.942-3.989-4.768-6.714-6.026-2.7249-1.258-6.7745-.942-5.2691-4.268s2.5894-6.114 2.5894-6.114-.1054-5.151-3.7636-33.95c-.8882-6.931 4.2679-22.169 4.2679-25.848s-2.2582-15.084-2.2582-15.084z" fill="#fff" stroke="#263238" stroke-linecap="round" stroke-linejoin="round"/><path d="m98.3191 271.56 1.0312-.449 1.2267-3.054-1.9869-.463z" fill="#92e3a9" stroke="#263238" stroke-linecap="round" stroke-linejoin="round"/><path d="m94.8416 265.761 1.6108 5.283 1.8667.515.5871-4.186z" fill="#92e3a9" stroke="#263238" stroke-linecap="round" stroke-linejoin="round"/><path d="m116.023 273.149c-.572-.552-2.371-1.648-3.079-2.502-1.532.395-3.13.48-4.697.25-3.131-.794-4.433-4.488-7.038-6.622-1.5898-1.31-3.098-2.713-4.5158-4.201h-.0903c-.4366 1.045-1.0086 2.369-1.6635 3.819-1.5054 3.325 2.5668 3.002 5.2686 4.267 2.703 1.266 3.982 5.084 6.715 6.026 2.695.848 5.529 1.192 8.355 1.016.232-.014.456-.094.643-.23s.329-.323.409-.537.095-.447.041-.669c-.053-.221-.172-.423-.341-.58z" fill="#92e3a9" stroke="#263238" stroke-linecap="round" stroke-linejoin="round"/><path d="m100.667 174.92s-.188 18.866-.9028 24.282c-.6699 5.062-2.9657 18.005-14.866 37.658-3.9894 6.622-10.3046 20.043-10.3046 22.986.1581 1.199 1.7087 7.027 3.6205 9.44 2.9356 3.679 5.0131 5.599 3.5829 6.298-1.4301.699-6.5034-.559-9.725-2.303-2.8076-1.53-4.6743-5.467-6.8195-8.263s-.7527-4.554 1.5054-6.394c2.2581-1.839 3.2969-7.152 4.0496-8.991.7527-1.84 6.398-31.499 8.468-37.592 1.635-4.396 3.6968-8.629 6.1571-12.641l-3.7635-23.913z" fill="#fff" stroke="#263238" stroke-linecap="round" stroke-linejoin="round"/><path d="m66.0427 271.567 1.4226-.272 1.1291-3.054-1.8893-1.479z" fill="#92e3a9" stroke="#263238" stroke-linecap="round" stroke-linejoin="round"/><path d="m64.3418 262.229v8.786l1.7011.552.6624-4.805z" fill="#92e3a9" stroke="#263238" stroke-linecap="round" stroke-linejoin="round"/><path d="m77.4313 270.419c-1.6409.493-4.298.118-7.3389-2.723-2.6797-2.509-3.9141-7.358-4.1023-8.432-1.8743 1.553-2.6496 3.289-.7527 5.761 2.1452 2.796 4.0119 6.733 6.8195 8.263 3.2216 1.744 8.2798 3.002 9.725 2.303s-.5344-2.501-3.1237-5.717c-.3852.229-.7972.412-1.2269.545z" fill="#92e3a9" stroke="#263238" stroke-linecap="round" stroke-linejoin="round"/><path d="m121.939 104.703c-2.966-4.26-3.312-5.621-5.924-7.8357-2.115-1.5833-4.324-3.0427-6.616-4.3706-.721 1.9021-1.996 3.5559-3.668 4.7565-1.673 1.2007-3.669 1.8953-5.741 1.9981-6.7744.6033-9.2057-5.364-10.0337-8.9032-1.3548.5666-3.0108 1.1773-4.9528 1.9205-6.2701 2.3839-7.3163 8.8294-4.8776 14.1344 2.4388 5.305 10.8014 18.395 9.582 21.287-1.2194 2.891-13.5487 12.265-13.7595 25.752-.2108 13.488 6.5862 38.129 6.5862 38.129l31.7044-.242s2.642-14.106 2.258-24.407c-.369-10.124-3.357-26.599-3.395-27.077.377-7.711.64-13.767.64-15.349 0-5.283-.346-5.96 1.739-8.829 0 0 1.942 2.207 4.456 4.694l6.488-9.653c-1.422-1.81-3.116-4.018-4.486-6.005z" fill="#c0e1d9" stroke="#263238" stroke-linecap="round" stroke-linejoin="round"/><path d="m115.466 115.6s3.312-6.129 1.4-10.727" stroke="#263238" stroke-linecap="round" stroke-linejoin="round"/><path d="m101.149 166.665c.136 1.471.234 2.943.271 4.414" stroke="#263238" stroke-linecap="round" stroke-linejoin="round"/><path d="m95.0222 142.008c2.7609 6.993 4.7002 14.27 5.7808 21.692" stroke="#263238" stroke-linecap="round" stroke-linejoin="round"/><path d="m108.571 163.346c-1.325 5.264-3.349 10.335-6.022 15.084" stroke="#263238" stroke-linecap="round" stroke-linejoin="round"/><path d="m84.3035 92.4375s-6.2776 1.0228-8.7164 3.7525c-2.4388 2.7298-17.9521 34.781-17.4328 36.613.5194 1.832 8.1895 1.023 11.5015-2.207 3.3119-3.23 15.4982-28.439 15.4982-28.439" fill="#c0e1d9"/><path d="m84.3035 92.4375s-6.2776 1.0228-8.7164 3.7525c-2.4388 2.7298-17.9521 34.781-17.4328 36.613.5194 1.832 8.1895 1.023 11.5015-2.207 3.3119-3.23 15.4982-28.439 15.4982-28.439" stroke="#263238" stroke-linecap="round" stroke-linejoin="round"/><path d="m77.7475 116.881-11.1326-3.856c-4.4335 9.154-8.739 18.778-8.4605 19.779.5194 1.868 8.1895 1.022 11.5014-2.208 1.513-1.486 4.8625-7.564 8.0917-13.715z" fill="#fff" stroke="#263238" stroke-linecap="round" stroke-linejoin="round"/><path d="m63.2278 123.775s27.0072-4.599 28.2266-4.937 7.1357-6.813 7.6626-6.983c.5269-.169 5.397-.853 7.527-.338s3.658 1.023 2.612 1.361c-1.777.369-3.582.595-5.397.677-.585.022-1.169.081-1.746.177 0 0 5.404 1.361 6.277 2.038s.866 1.361-.18 1.361c-1.047 0-6.617-1.015-6.617-1.015s6.97 3.06 6.617 3.576c-.354.515-1.566.338-3.132 0-1.383-.391-2.726-.905-4.012-1.538 0 0 4.186 4.26 2.966 4.414-1.219.155-1.392-.338-2.258-1.361-.87-.829-1.8685-1.519-2.9581-2.045 0 0-1.7463 3.237-4.3582 3.914-1.7111.404-3.4883.464-5.2238.177 0 0-15.1596 7.829-19.864 9.366-4.7045 1.538-9.2734 2.752-10.8315 1.031-1.5581-1.722 2.2581-7.491 2.2581-7.491" fill="#fff"/><path d="m63.2278 123.775s27.0072-4.599 28.2266-4.937 7.1357-6.813 7.6626-6.983c.5269-.169 5.397-.853 7.527-.338s3.658 1.023 2.612 1.361c-1.777.369-3.582.595-5.397.677-.585.022-1.169.081-1.746.177 0 0 5.404 1.361 6.277 2.038s.866 1.361-.18 1.361c-1.047 0-6.617-1.015-6.617-1.015s6.97 3.06 6.617 3.576c-.354.515-1.566.338-3.132 0-1.383-.391-2.726-.905-4.012-1.538 0 0 4.186 4.26 2.966 4.414-1.219.155-1.392-.338-2.258-1.361-.87-.829-1.8685-1.519-2.9581-2.045 0 0-1.7463 3.237-4.3582 3.914-1.7111.404-3.4883.464-5.2238.177 0 0-15.1596 7.829-19.864 9.366-4.7045 1.538-9.2734 2.752-10.8315 1.031-1.5581-1.722 2.2581-7.491 2.2581-7.491" stroke="#263238" stroke-linecap="round" stroke-linejoin="round"/><path d="m88.993 66.56s-1.4-2.384-2.4388-.8535c-1.0387 1.5304-.8731 4.4148.6925 6.2984 1.5657 1.8836 4.5163 1.0227 4.5163 1.0227s1.7387 6.475 4.8775 8.6824 9.4085 2.384 12.5405-1.0154c3.131-3.3994 3.312-10.7352 2.792-17.2029-.519-6.4676-3.658-9.7051-3.658-9.7051s-7.324 5.6141-10.982 6.9827c-2.3712.8529-4.8214 1.4788-7.3163 1.8689z" fill="#fff" stroke="#263238" stroke-linecap="round" stroke-linejoin="round"/><path d="m106.817 74.9037c-.788.285-1.64.3575-2.466.2099s-1.597-.5098-2.231-1.0487" stroke="#263238" stroke-linecap="round" stroke-linejoin="round"/><path d="m93.1704 59.9155h-14.1133v5.7907h14.1133z" fill="#92e3a9" stroke="#263238" stroke-linecap="round" stroke-linejoin="round"/><path d="m115.473 60.085h-23.7027c-1.2471 0-2.2581.9882-2.2581 2.2073v6.9974c0 1.2191 1.011 2.2074 2.2581 2.2074h23.7027c1.247 0 2.258-.9883 2.258-2.2074v-6.9974c0-1.2191-1.011-2.2073-2.258-2.2073z" fill="#92e3a9" stroke="#263238" stroke-linecap="round" stroke-linejoin="round"/><path d="m118.431 60.085h-22.1292c-1.2471 0-2.2581.9882-2.2581 2.2073v6.9974c0 1.2191 1.011 2.2074 2.2581 2.2074h22.1292c1.248 0 2.259-.9883 2.259-2.2074v-6.9974c0-1.2191-1.011-2.2073-2.259-2.2073z" fill="#92e3a9"/><path d="m118.431 60.085h-22.1292c-1.2471 0-2.2581.9882-2.2581 2.2073v6.9974c0 1.2191 1.011 2.2074 2.2581 2.2074h22.1292c1.248 0 2.259-.9883 2.259-2.2074v-6.9974c0-1.2191-1.011-2.2073-2.259-2.2073z" fill="#000" opacity=".3"/><path d="m118.431 60.085h-22.1292c-1.2471 0-2.2581.9882-2.2581 2.2073v6.9974c0 1.2191 1.011 2.2074 2.2581 2.2074h22.1292c1.248 0 2.259-.9883 2.259-2.2074v-6.9974c0-1.2191-1.011-2.2073-2.259-2.2073z" stroke="#263238" stroke-linecap="round" stroke-linejoin="round"/><path d="m181.621 54.4341h-27.963c-2.985 0-5.404 2.3653-5.404 5.283v25.7749c0 2.9177 2.419 5.283 5.404 5.283h27.963c2.985 0 5.405-2.3653 5.405-5.283v-25.7749c0-2.9177-2.42-5.283-5.405-5.283z" fill="#638a66" opacity=".6"/><path d="m142.134 74.7788v-4.5693" stroke="#263238" stroke-linecap="round" stroke-linejoin="round"/><path d="m164.776 97.1248h-17.245c-1.433 0-2.808-.5566-3.821-1.5473-1.014-.9908-1.583-2.3345-1.583-3.7357v-15.0249" stroke="#263238" stroke-linecap="round" stroke-linejoin="round"/><path d="m174.072 97.1543h-5.608" stroke="#263238" stroke-linecap="round" stroke-linejoin="round"/><path d="m193.138 64.75v27.114c-.002 1.4006-.572 2.7432-1.585 3.7335s-2.387 1.5476-3.82 1.5495h-9.973" stroke="#263238" stroke-linecap="round" stroke-linejoin="round"/><path d="m150.542 48.0547h37.206c.71 0 1.413.1366 2.069.4021.655.2655 1.251.6547 1.753 1.1452.502.4906.9 1.073 1.171 1.714.272.6409.412 1.3279.412 2.0217v6.5633" stroke="#263238" stroke-linecap="round" stroke-linejoin="round"/><path d="m184.143 52.0723h-33.006c-2.985 0-5.405 2.3652-5.405 5.283v30.506c0 2.9177 2.42 5.283 5.405 5.283h33.006c2.985 0 5.404-2.3653 5.404-5.283v-30.506c0-2.9178-2.419-5.283-5.404-5.283z" stroke="#263238" stroke-linecap="round" stroke-linejoin="round"/><path d="m240.34 52.0723h-33.006c-2.985 0-5.405 2.3652-5.405 5.283v30.506c0 2.9177 2.42 5.283 5.405 5.283h33.006c2.985 0 5.405-2.3653 5.405-5.283v-30.506c0-2.9178-2.42-5.283-5.405-5.283z" fill="#fff" opacity=".5" stroke="#263238" stroke-linecap="round" stroke-linejoin="round"/><path d="m184.143 105.535h-33.006c-2.985 0-5.405 2.365-5.405 5.283v30.506c0 2.918 2.42 5.283 5.405 5.283h33.006c2.985 0 5.404-2.365 5.404-5.283v-30.506c0-2.918-2.419-5.283-5.404-5.283z" fill="#fff" opacity=".5" stroke="#263238" stroke-linecap="round" stroke-linejoin="round"/><path d="m240.34 105.535h-33.006c-2.985 0-5.405 2.365-5.405 5.283v30.506c0 2.918 2.42 5.283 5.405 5.283h33.006c2.985 0 5.405-2.365 5.405-5.283v-30.506c0-2.918-2.42-5.283-5.405-5.283z" fill="#fff" opacity=".5" stroke="#263238" stroke-linecap="round" stroke-linejoin="round"/><path d="m237.819 54.4341h-27.963c-2.985 0-5.405 2.3653-5.405 5.283v25.7749c0 2.9177 2.42 5.283 5.405 5.283h27.963c2.985 0 5.404-2.3653 5.404-5.283v-25.7749c0-2.9177-2.419-5.283-5.404-5.283z" fill="#a2bda2"/><path d="m181.621 107.904h-27.963c-2.985 0-5.404 2.366-5.404 5.283v25.775c0 2.918 2.419 5.283 5.404 5.283h27.963c2.985 0 5.405-2.365 5.405-5.283v-25.775c0-2.917-2.42-5.283-5.405-5.283z" fill="#a2bda2"/><path d="m237.819 107.904h-27.963c-2.985 0-5.405 2.366-5.405 5.283v25.775c0 2.918 2.42 5.283 5.405 5.283h27.963c2.985 0 5.404-2.365 5.404-5.283v-25.775c0-2.917-2.419-5.283-5.404-5.283z" fill="#a2bda2"/><path d="m167.659 65.8462c.286.0589.421.1766.421.3605v11.6844c-.055.2944-.198.4415-.429.4415-.309-.0588-.467-.1766-.467-.3532v-11.1031c-.47.176-.957.309-1.452.3973-.166 0-.286-.1398-.362-.4194v-.1471c0-.2134.414-.4047 1.227-.5666z" fill="#263238"/><path d="m223.081 65.8535c.998 0 1.955.3876 2.661 1.0776.706.6899 1.102 1.6257 1.102 2.6014-.04.6277-.213 1.2405-.508 1.7992-.296.5587-.707 1.0511-1.208 1.4456l-4.2 4.7018h5.69c.219 0 .347.1471.399.4341.053.2869-.188.4415-.436.4415h-6.73c-.293-.0589-.444-.1987-.444-.4268 0-.1472.196-.4047.595-.7358l5.412-6.0261c.3-.4059.479-.8848.518-1.3839.038-.4991-.065-.999-.298-1.4444-.234-.4454-.589-.819-1.026-1.0795-.438-.2605-.94-.3978-1.452-.3966h-.106c-.595-.0055-1.175.1781-1.655.5231-.479.345-.83.8328-1.002 1.3899-.084.2903-.134.589-.15.8903-.105.2134-.233.3164-.392.3164h-.06c-.293-.0515-.444-.1839-.444-.3826.007-.6368.182-1.2612.509-1.8119s.795-1.009 1.358-1.3299c.56-.3523 1.202-.5598 1.867-.6034z" fill="#263238"/><path d="m167.102 119.36c.485.009.961.128 1.391.347.43.22.801.535 1.085.919.377.487.58 1.081.58 1.692v.133c-.032.49-.173.967-.414 1.398-.24.431-.575.805-.979 1.096.568.338 1.043.807 1.382 1.367.338.559.531 1.192.56 1.841.007.479-.083.954-.265 1.399s-.452.85-.795 1.192-.752.614-1.203.801-.935.284-1.425.287h-.128c-.723-.01-1.428-.224-2.03-.615-.602-.392-1.076-.944-1.365-1.592-.183-.471-.282-.969-.293-1.472 0-.191.173-.316.511-.383.204 0 .332.155.377.464.011.532.177 1.05.48 1.492s.729.79 1.228 1.002c.383.142.788.22 1.197.228.557-.001 1.1-.166 1.558-.475s.81-.746 1.009-1.254c.113-.292.179-.6.196-.912v-.287c-.015-.535-.193-1.053-.511-1.488-.317-.435-.761-.768-1.273-.955l-1.114-.235c-.065-.039-.12-.093-.159-.157-.04-.064-.062-.137-.067-.211v-.037c0-.28.233-.412.708-.412.327-.037.642-.145.921-.317s.514-.403.689-.676c.191-.363.299-.763.316-1.17.003-.397-.111-.787-.328-1.122-.218-.336-.53-.602-.898-.769-.511-.252-1.102-.296-1.645-.122s-.994.551-1.253 1.049c-.068.123-.122.254-.158.39-.018.272-.058.543-.121.809-.165.184-.286.272-.361.272-.324-.073-.489-.191-.489-.353v-.169c.004-.547.164-1.081.462-1.544.298-.462.721-.835 1.224-1.075.432-.226.91-.354 1.4-.376z" fill="#263238"/><path d="m225.143 119.419h.211c.135 0 .256.126.361.376l-.037.301v7.005h1.64c.196 0 .339.162.414.478 0 .184-.128.324-.391.42l-.474-.037h-1.174v3.517c0 .169-.151.287-.452.346-.301-.052-.452-.191-.452-.412v-3.451h-4.922l-.753.037c-.218-.088-.331-.214-.331-.383v-.14c0-.081.09-.198.286-.338 3.703-4.724 5.658-7.238 5.863-7.542.046-.082.121-.145.211-.177zm-4.975 7.682h4.614v-5.886z" fill="#263238"/></g></svg>