<svg viewBox="0 0 482.71 457.38" xmlns="http://www.w3.org/2000/svg"><path d="m70.7 416.57c-94.27-54.42-94.27-142.64 0-197.06s247.07-54.42 341.32 0 94.25 142.64 0 197.06-247.02 54.43-341.32 0z" fill="#f0ebd6"/><path d="m204.09 253.86 71.11-41a.86.86 0 0 0 0-1.62l-5.11-3a3.11 3.11 0 0 0 -2.82 0l-28.86 16.66a3.09 3.09 0 0 1 -2.81 0l-52.6-30.38a3.09 3.09 0 0 0 -2.81 0l-2.47 1.42a.86.86 0 0 0 -.55 1.09.89.89 0 0 0 .55.54l52.64 30.43a.86.86 0 0 1 .54 1.09.9.9 0 0 1 -.54.54l-34.2 19.68a.85.85 0 0 0 -.56 1.07.88.88 0 0 0 .56.55l5.11 3a3.11 3.11 0 0 0 2.82-.07z" fill="#e0e0e0"/><path d="m91.11 391.02 24.95-14.4-80.37-46.4-24.96 14.4z" fill="#e0e0e0"/><path d="m405.43 333.34-56.32-32.52c-3.54-2-3.54-5.41.06-7.49l34.93-20.13a14.38 14.38 0 0 1 13 0l56.27 32.36c3.6 2.08 3.6 5.44 0 7.52l-34.86 20.29a14.49 14.49 0 0 1 -13.08-.03z" fill="#f1cbb5"/><path d="m130.19 366.65-54.74-31.61 56.46-32.58 54.72 31.6z" fill="#e0e0e0"/><ellipse cx="64.96" cy="318.44" fill="#e0e0e0" rx="51.74" ry="29.87"/><path d="m333.55 375.14-56.46-32.41c-3.54-2-3.54-5.41.06-7.49l35.07-20.24a14.38 14.38 0 0 1 13 0l56.27 32.36c3.6 2.07 3.6 5.44 0 7.52l-34.84 20.27a14.47 14.47 0 0 1 -13.1-.01z" fill="#f1cbb5"/><path d="m261.25 416.8-56.46-32.43c-3.54-2-3.54-5.41.06-7.49l35.07-20.22a14.38 14.38 0 0 1 13 0l56.27 32.34c3.6 2.08 3.6 5.45 0 7.52l-34.83 20.29a14.49 14.49 0 0 1 -13.11-.01z" fill="#f1cbb5"/><path d="m441.56 372.35c10.12 5.9 10.12 15.48 0 21.39s-26.52 5.91-36.64 0-10.12-15.49 0-21.39 26.51-5.91 36.64 0z" fill="#e0e0e0"/><path d="m370.27 107.46-1.29.77-26.66-15.39 1.31-.77z" fill="#fafafa"/><path d="m343.63 92.07 25.35 14.63v-84.71l-25.35-14.62z" fill="#fff"/><path d="m339.87 94.26 31.55 18.22v-91.9l-31.55-18.22zm2.49-87.66 26.64 15.4v86.24l-26.64-15.4z" fill="#f0f0f0"/><path d="m342.32 92.84 1.31-.77v-84.7l-1.31-.77z" fill="#e0e0e0"/><path d="m339.88 2.36 1.31-.76 31.56 18.22-1.32.76z" fill="#fafafa"/><path d="m372.75 19.82-1.32.76v91.9l1.32-.76z" fill="#e0e0e0"/><path d="m345.52 90.55 21.55 12.44v-78.71l-21.55-12.44z" fill="#f0f0f0"/><path d="m345.52 90.55 21.55 12.44v-78.71l-21.55-12.44z" fill="#f0f0f0"/><path d="m367.08 82.09a22.61 22.61 0 0 1 -3.08 0 38.52 38.52 0 0 1 -10.5-2.29c-2.61-1-5.21-2.21-8-2.28v13l2.92 1.68a9.93 9.93 0 0 1 4-2.22c4.15-1.09 8.41 1 12.68 1.49a16.64 16.64 0 0 0 2 .09z" fill="#fafafa"/><path d="m367.08 52.45c-4.83-1.42-9.77-2.61-13.21-6.15-2.77-2.85-4.08-6.8-5-10.67s-1.51-7.9-3.29-11.44a1.17 1.17 0 0 0 -.05-.11v38.86c.27.4.54.81.83 1.2 3.16 4.29 7.82 7.87 13.14 8.15 2.5.13 5.09-.46 7.58-.45z" fill="#fafafa"/><path d="m367.08 36.11a14.67 14.67 0 0 1 -4.78-13.38c.07-.36.16-.72.25-1.07l-8.3-4.79c0 .55.06 1.09.08 1.64a49.16 49.16 0 0 0 .67 9.49 18.64 18.64 0 0 0 9.46 12.2 18.34 18.34 0 0 0 2.62 1.1z" fill="#fafafa"/><path d="m322.4 112.17-1.29.77-26.66-15.39 1.3-.77z" fill="#fafafa"/><path d="m295.75 96.78 25.36 14.64v-84.71l-25.36-14.63z" fill="#fff"/><path d="m292 99 31.56 18.22v-91.93l-31.56-18.22zm2.46-87.65 26.65 15.41v86.24l-26.65-15.4z" fill="#f0f0f0"/><path d="m294.45 97.55 1.3-.77v-84.7l-1.3-.76z" fill="#e0e0e0"/><path d="m292 7.07 1.31-.75 31.57 18.21-1.32.76z" fill="#fafafa"/><path d="m324.88 24.53-1.32.76v91.9l1.32-.76z" fill="#e0e0e0"/><path d="m297.65 95.26 21.55 12.44v-78.7l-21.55-12.44z" fill="#f0f0f0"/><path d="m297.65 95.26 21.55 12.44v-78.7l-21.55-12.44z" fill="#f0f0f0"/><path d="m319.21 86.81a19.79 19.79 0 0 1 -3.08 0 38.88 38.88 0 0 1 -10.5-2.28c-2.61-1-5.21-2.21-8-2.29v13l2.91 1.69a9.7 9.7 0 0 1 4-2.22c4.16-1.1 8.42 1 12.68 1.48a19 19 0 0 0 2 .1z" fill="#fafafa"/><path d="m319.21 57.17c-4.83-1.43-9.77-2.62-13.21-6.15-2.78-2.86-4.08-6.81-5-10.68s-1.53-7.87-3.29-11.44a.24.24 0 0 1 0-.1v38.85c.27.41.53.81.82 1.2 3.17 4.29 7.83 7.87 13.16 8.15 2.5.13 5.09-.46 7.57-.45z" fill="#fafafa"/><path d="m319.21 40.83a14.68 14.68 0 0 1 -4.78-13.37c.07-.36.15-.72.25-1.08l-8.32-4.79c0 .55.06 1.1.07 1.64a50 50 0 0 0 .68 9.46 18.66 18.66 0 0 0 9.44 12.21 20.81 20.81 0 0 0 2.63 1.1z" fill="#fafafa"/><path d="m455.7 59c0-20.7-13.65-45.35-30.46-55.06-8.91-5.14-16.92-5.06-22.48-.78-6.93 2.84-11.36 10.84-11.36 22.62v96.64l61 35.16 3.39-2z" fill="#e6e6e6"/><path d="m452.36 157.58v-96.64c0-20.7-13.65-45.35-30.46-55.06s-30.45-.8-30.45 19.9v96.64z" fill="#f5f5f5"/><path d="m449 60.94v90.87l-54.24-31.32v-94.71c0-10.34 3.64-17.48 9.76-19.73a12.4 12.4 0 0 1 4.43-.76 22.73 22.73 0 0 1 11.25 3.44c15.86 9.2 28.8 32.61 28.8 52.21z" fill="#e0e0e0"/><path d="m394.74 120.49 3.44-1.98 50.81 29.33v3.97z" fill="#ebebeb"/><path d="m449 60.94v86.9l-50.8-29.34v-94.71c0-8.22 2.31-14.41 6.34-17.74a12.33 12.33 0 0 1 4.46-.76 22.82 22.82 0 0 1 11.2 3.44c15.86 9.2 28.8 32.61 28.8 52.21z" fill="#fff"/><path d="m423.52 137.11-3.33-1.92v-127.62h3.33z" fill="#f5f5f5"/><path d="m426.86 13.58v121.61l-3.33 1.91v-126.18c1.12.81 2.24 1.7 3.33 2.66z" fill="#e0e0e0"/><path d="m394.74 96.99 25.45 14.7v3.9l-25.45-14.69z" fill="#f5f5f5"/><path d="m398.18 95.01-3.44 1.98 25.45 14.7v-3.91z" fill="#ebebeb"/><path d="m423.52 113.61 25.46 14.69v3.91l-25.46-14.69z" fill="#f5f5f5"/><path d="m426.96 111.62-3.44 1.99 25.46 14.69v-3.9z" fill="#ebebeb"/><path d="m394.74 33.2 25.45 14.7v3.91l-25.45-14.7z" fill="#f5f5f5"/><path d="m398.18 31.22-3.44 1.98 25.45 14.7v-3.91z" fill="#ebebeb"/><path d="m423.52 49.82 25.46 14.69v3.91l-25.46-14.69z" fill="#f5f5f5"/><path d="m426.96 47.84-3.44 1.98 25.46 14.69v-3.9z" fill="#ebebeb"/><path d="m251.38 199.6v-1.85l-32.97 19.07 1.58.93z" fill="#37474f"/><path d="m200.23 118.73a.44.44 0 0 1 .21.47l-17.27 76.64-.78 3.44a2 2 0 0 1 -1.09-.21l-1.83-1.07a.46.46 0 0 1 -.22-.48l18-79.86a.44.44 0 0 1 .53-.33.33.33 0 0 1 .12 0z" fill="#37474f"/><path d="m203.66 117-18.14 80.45a.76.76 0 0 1 -.35.47l-1.81 1.08a2.11 2.11 0 0 1 -1 .23l.78-3.44 17.34-77z" fill="#455a64"/><path d="m216.85 241v3.62a2.29 2.29 0 0 1 -1-.23l-1.7-1a.69.69 0 0 1 -.41-.59v-108.64l3.15 1.81z" fill="#37474f"/><path d="m220 134.16v108.64a.74.74 0 0 1 -.42.55l-1.69 1a2.09 2.09 0 0 1 -1 .25v-108.6z" fill="#455a64"/><path d="m257.61 221.05a2 2 0 0 1 -1-.29l-1.75-1a.85.85 0 0 1 -.43-.6l-18.73-97.71 3.14 1.82 18.08 94.27z" fill="#37474f"/><path d="m260.75 219.22a.76.76 0 0 1 -.44.6l-1.6.92h-.07a2.21 2.21 0 0 1 -1 .25l-.68-3.52-18.1-94.26 3.16-1.81 18.7 97.63z" fill="#455a64"/><path d="m218.91 221.98 35.62-20.56v-3.63l-35.62 20.57z" fill="#455a64"/><path d="m189.85 156.56v1.31a2.19 2.19 0 0 0 1 1.74l10.56 6.12a2.27 2.27 0 0 0 2 0l48.14-27.8a2.24 2.24 0 0 0 1-1.74v-1.3a2.21 2.21 0 0 0 -1-1.74l-10.55-6.09a2.2 2.2 0 0 0 -2 0l-48.14 27.76a2.17 2.17 0 0 0 -1.01 1.74z" fill="#92e3a9"/><path d="m190.86 156 10.55 6.09a2.27 2.27 0 0 0 2 0l48.14-27.79a.62.62 0 0 0 .39-.77.61.61 0 0 0 -.39-.39l-10.55-6.14a2.2 2.2 0 0 0 -2 0l-48.14 27.79a.61.61 0 0 0 -.4.77.62.62 0 0 0 .4.44z" fill="#fff" opacity=".4"/><path d="m202.41 162.31v3.63a2.14 2.14 0 0 1 -1-.24l-10.55-6.09a2.24 2.24 0 0 1 -1-1.74v-1.31a2.16 2.16 0 0 1 .81-1.6c-.36.32-.28.74.19 1l10.56 6.09a2 2 0 0 0 .99.26z" opacity=".1"/><path d="m185.36 165-1.25-.71a4 4 0 0 1 -1.78-2.89l-5.67-97.46a3.43 3.43 0 0 1 1.56-2.9l68.84-39.68a3.65 3.65 0 0 1 3.34 0l1.25.7a4 4 0 0 1 1.78 2.9l5.66 97.46a3.42 3.42 0 0 1 -1.56 2.89l-68.83 39.69a3.71 3.71 0 0 1 -3.34 0z" fill="#263238"/><path d="m253.36 24.64c-.18-.85-.9-1.15-1.75-.67l-68.8 39.69a3.1 3.1 0 0 0 -1.15 1.26l-4.6-2.64a3.13 3.13 0 0 1 1.16-1.28l68.84-39.69a3.65 3.65 0 0 1 3.34 0l1.27.72a4 4 0 0 1 1.69 2.61z" fill="#455a64"/><path d="m181.25 66.55 5.66 97.45a1.09 1.09 0 0 0 .93 1.24 1.15 1.15 0 0 0 .86-.24l68.83-39.69a3.42 3.42 0 0 0 1.56-2.89l-5.66-97.5a1.09 1.09 0 0 0 -.91-1.25 1.11 1.11 0 0 0 -.87.25l-68.83 39.73a3.4 3.4 0 0 0 -1.57 2.9z" fill="#37474f"/><path d="m184 66.39a1.15 1.15 0 0 1 .22-.35l66.56-38.37 5.55 94.88a1.15 1.15 0 0 1 -.22.35l-66.55 38.37z" fill="#fafafa"/><path d="m186.91 67.73 61.37-35.39 5.16 88.87-61.38 35.38z" fill="#d2977c"/><path d="m200.73 133.89a12.67 12.67 0 0 0 7.25-5.42 13.83 13.83 0 0 0 1.61-7.27 8.2 8.2 0 0 0 -.59-3.29c-1.3-2.89-4.92-4-8.1-3.8a23.66 23.66 0 0 0 -11.08 4l1 16.49.77.08a24.52 24.52 0 0 0 9.14-.79z" fill="#263238"/><path d="m251.92 94.85-.77.29a5.18 5.18 0 0 0 -4.79.81 8.22 8.22 0 0 0 -2.78 4.13 11.67 11.67 0 0 0 6.42 14.31 8 8 0 0 0 3.06.7z" fill="#263238"/><path d="m226.28 51.93c-2.85 1.48-4.28 4.69-5.3 7.74s-1.89 6.31-4.21 8.53a14.88 14.88 0 0 1 -6.61 3.19 36 36 0 0 0 -7.07 2.21 8.19 8.19 0 0 0 -4.61 5.47 7.42 7.42 0 0 0 2.74 6.69 14.7 14.7 0 0 0 6.88 2.91 29.05 29.05 0 0 0 20-3.53 28.19 28.19 0 0 0 12.5-15.93 17.44 17.44 0 0 0 .44-9.76c-1.77-6.2-8.62-10.72-14.76-7.52z" fill="#263238"/><path d="m228.48 98.34q-13.95-8.46-28.08-16.58-6.24-3.57-12.5-7.08l-.62-.36.58 10a227.45 227.45 0 0 0 35.26 15.1c2 .66 4.29 1.26 6.31.52.35-.57-.34-1.21-.95-1.6zm23.14-8.61c-6.15-3.08-12.41-5.94-18.67-8.79-2-.93-11.8-7.07-13.82-4.66a1 1 0 0 0 -.22.42c-.66 2.84 10.91 9.2 12.75 10.41 6.76 4.45 13.63 8.72 20.56 12.9zm-1.72-29.67q-3.6-2.88-7.23-5.69a6.84 6.84 0 0 1 -2.11-2.24 2.32 2.32 0 0 1 .46-2.82c1.41-1.06 3.93.3 5-1.12 1.23-1.7-1.92-4.26-.63-5.92a2.85 2.85 0 0 1 2.21-.77l1.25-.07-.52-9-27.23 15.57q14.46 8.07 29 16zm-43 65.33c-3.2-1.94-6.57-3.53-9.83-5.34-2.43-1.35-4.89-2.66-7.36-4l2.36 40.53 14-8.08-8.32-5.33a1.08 1.08 0 0 1 -.5-.51c-.16-.42.24-.87.67-1 3.38-1.13 1.68-2.13-.73-3.56-1.15-.69-1.67-1.81-.23-2.33 1.17-.41 3 .33 4.18.36.48 0 1.06-.06 1.24-.5a1.15 1.15 0 0 0 -.21-1c-1.19-2-3.26-3.15-5.11-4.48a2.3 2.3 0 0 1 -.81-.83.84.84 0 0 1 .18-1.06 1.28 1.28 0 0 1 .88-.11l4.62.49a29 29 0 0 1 4.6.92c1.32.37 7.18 2 5-.82-1.09-1.5-3.12-2.52-4.64-3.44z" fill="#92e3a9"/><path d="m228.48 98.34q-13.95-8.46-28.08-16.58-6.24-3.57-12.5-7.08l-.62-.36.58 10a227.45 227.45 0 0 0 35.26 15.1c2 .66 4.29 1.26 6.31.52.35-.57-.34-1.21-.95-1.6zm23.14-8.61c-6.15-3.08-12.41-5.94-18.67-8.79-2-.93-11.8-7.07-13.82-4.66a1 1 0 0 0 -.22.42c-.66 2.84 10.91 9.2 12.75 10.41 6.76 4.45 13.63 8.72 20.56 12.9zm-1.72-29.67q-3.6-2.88-7.23-5.69a6.84 6.84 0 0 1 -2.11-2.24 2.32 2.32 0 0 1 .46-2.82c1.41-1.06 3.93.3 5-1.12 1.23-1.7-1.92-4.26-.63-5.92a2.85 2.85 0 0 1 2.21-.77l1.25-.07-.52-9-27.23 15.57q14.46 8.07 29 16zm-43 65.33c-3.2-1.94-6.57-3.53-9.83-5.34-2.43-1.35-4.89-2.66-7.36-4l2.36 40.53 14-8.08-8.32-5.33a1.08 1.08 0 0 1 -.5-.51c-.16-.42.24-.87.67-1 3.38-1.13 1.68-2.13-.73-3.56-1.15-.69-1.67-1.81-.23-2.33 1.17-.41 3 .33 4.18.36.48 0 1.06-.06 1.24-.5a1.15 1.15 0 0 0 -.21-1c-1.19-2-3.26-3.15-5.11-4.48a2.3 2.3 0 0 1 -.81-.83.84.84 0 0 1 .18-1.06 1.28 1.28 0 0 1 .88-.11l4.62.49a29 29 0 0 1 4.6.92c1.32.37 7.18 2 5-.82-1.09-1.5-3.12-2.52-4.64-3.44z" fill="#f1cbb5" opacity=".6"/><path d="m205.28 94.63a6.09 6.09 0 0 0 -.58 6.75 6 6 0 0 0 11.11-1.65c1.36-5.65-6.76-9.64-10.53-5.1z" fill="#fafafa"/><path d="m220.36 106.6a11 11 0 0 0 1.75-2.27c.62-.88 1.23-1.75 1.83-2.63 1.13-1.63 2.21-3.29 3.3-4.93 1.2-1.8 2.37-3.59 3.53-5.41a44.4 44.4 0 0 0 3-5.15c.07-.16 0-.74-.27-.49a38.44 38.44 0 0 0 -3.91 5c-1.19 1.62-2.36 3.26-3.51 4.9s-2.32 3.27-3.45 4.92l-1.77 2.63a9.57 9.57 0 0 0 -1.55 2.56c-.06.5.57 1.27 1.05.87zm10.41-8.46a44.53 44.53 0 0 0 3-5.16c.07-.15 0-.73-.27-.48a39.33 39.33 0 0 0 -3.91 5c-1.19 1.62-2.36 3.26-3.51 4.9s-2.32 3.27-3.45 4.93l-1.72 2.67a9.38 9.38 0 0 0 -1.52 2.59c-.14.5.49 1.25 1 .86a10.12 10.12 0 0 0 1.75-2.27l1.83-2.63c1.13-1.63 2.21-3.28 3.3-4.93s2.34-3.63 3.5-5.44zm10.59-10.25a39.25 39.25 0 0 0 -3.9 5c-1.19 1.62-2.35 3.26-3.51 4.9s-2.32 3.27-3.45 4.93l-1.78 2.63a9.35 9.35 0 0 0 -1.51 2.59c-.14.49.49 1.24 1 .86a11.41 11.41 0 0 0 1.76-2.27c.6-.88 1.21-1.75 1.82-2.63 1.12-1.63 2.2-3.29 3.3-4.93s2.37-3.59 3.53-5.41a43.45 43.45 0 0 0 3-5.15c.1-.2.01-.78-.26-.52z" fill="#c0e1d9"/><path d="m203.92 46.19 6.22 3.59a1.89 1.89 0 0 0 1.7 0l16.78-9.69a1.88 1.88 0 0 0 .86-1.46v-1.1a1.85 1.85 0 0 0 -.86-1.46l-6.26-3.6a1.86 1.86 0 0 0 -1.69 0l-16.8 9.69a1.92 1.92 0 0 0 -.84 1.46v1.11a1.91 1.91 0 0 0 .89 1.46z" fill="#92e3a9"/><path d="m203.92 43.14 6.24 3.59a1.91 1.91 0 0 0 1.68 0l16.78-9.73c.47-.27.47-.7 0-1l-6.26-3.56a1.86 1.86 0 0 0 -1.69 0l-16.8 9.69a.52.52 0 0 0 0 1z" fill="#fff" opacity=".4"/><path d="m210.89 46.93v3a1.77 1.77 0 0 1 -.75-.19l-6.22-3.59a1.93 1.93 0 0 1 -.85-1.46v-1.06a1.89 1.89 0 0 1 .69-1.36c-.31.27-.25.63.16.87l6.22 3.59a1.53 1.53 0 0 0 .75.2z" opacity=".1"/><path d="m205.47 11.26a1.33 1.33 0 0 1 .62-1.22l3.91-2.23a1.53 1.53 0 0 1 1.41 0l1.58.9a1.84 1.84 0 0 1 .78 1.22l2.51 25.07-7.92 4.57z" fill="#455a64"/><path d="m211 38.08-2.64 1.52-2.89-28.34a1.23 1.23 0 0 1 .14-.68l3 1.72a1.16 1.16 0 0 0 -.15.68z" fill="#263238"/><path d="m208.44 13a1.34 1.34 0 0 1 .62-1.24l3.88-2.24a.48.48 0 0 1 .68.1.57.57 0 0 1 .1.31l2.56 25.07-5.28 3z" fill="#37474f"/><path d="m368.14 272.32c0-.13 2.06-7.55 2.06-7.55s-.68.68-5-.45a25.45 25.45 0 0 1 -4.68-2l-1.16 5.47c-1.15 2.09-4.94 1.12-9.09.65-.71-.08-1.43-.2-2.15-.32-2.25-.13-4.5 1.22-2.17 3.13s6.18 2.64 9.73 3.28c4.22.77 11.68 2.02 12.46-2.21z" fill="#f28f8f"/><path d="m338.36 271.66a4.28 4.28 0 0 0 -.31 2.29c.07.82 2.12 3.63 5.73 5.35s8.08 1.83 10.18 2.44 4 1.8 6.47 2.4 4.91.92 7.38-.71a5.24 5.24 0 0 0 .81-2.48c-.42-.43-30.26-9.29-30.26-9.29z" fill="#263238"/><path d="m358.68 268.51c-1.59 1.1-4.88.34-8.43-.07-3.36-.38-7.13-1.56-9.41-.77s-4.19 3.47-1.11 6.91a13.06 13.06 0 0 0 4.29 3.29c3.83 1.37 7.26 1.48 9.73 2.09 3.2.79 4.95 2.21 7.92 2.55 3.83.45 6.26-.54 6.92-1.56s1.28-9.29-.36-9.11c0 0-.69 2.67-7 .07-2.7-1.13-2.65-2.8-2.55-3.4z" fill="#37474f"/><path d="m348.05 272.94s.35-3.49 2.94-4.41a1.34 1.34 0 0 1 1.42.19s-2.4.34-3.18 4.44c0 0-.12.27-.64.17-.19-.03-.59-.1-.54-.39z" fill="#fafafa"/><path d="m354.59 269s0-.12-.6-.23a1 1 0 0 0 -.71.08s-1.92.83-2.28 4.48c0 0 0 .43.59.56a.53.53 0 0 0 .68-.32.08.08 0 0 0 0 0s.41-3.84 2.32-4.57z" fill="#fafafa"/><path d="m356.67 269.06s-.11-.22-.56-.21a1.2 1.2 0 0 0 -.71.22 6.55 6.55 0 0 0 -1.38 4.45s-.06.52.66.57.62-.53.62-.53.23-3.83 1.37-4.5z" fill="#fafafa"/><path d="m369.11 223.33c-2.38 10.11-9.75 40.4-9.75 40.4s5.42 4.87 11.31 2.66c6.26-16.55 17.48-27.85 17.42-40z" fill="#92e3a9"/><path d="m369.11 223.33c-2.38 10.11-9.75 40.4-9.75 40.4s5.42 4.87 11.31 2.66c6.26-16.55 17.48-27.85 17.42-40z" opacity=".4"/><path d="m346.58 282.81c.64-.95 3-7.56 3-7.56s-2.52 1.44-6.83.41c-2.2-.52-4.26-2.91-4.26-2.91l-1.84 6.36c-1.09 2.11-4.62 1.41-8.79 1-.71-.06-1.43-.16-2.15-.27-2.25-.07-4.46 1.33-2.09 3.19s6.25 2.48 9.81 3c4.3.7 10.75.35 13.15-3.22z" fill="#f28f8f"/><path d="m314.28 282.61a4.7 4.7 0 0 0 -.28 2.46c.11.89 2.38 3.85 6.31 5.6s8.73 1.75 11 2.34 4.35 1.84 7 2.42 5.29.85 7.9-1a6.2 6.2 0 0 0 .81-2.69c-.43-.4-32.74-9.13-32.74-9.13z" fill="#263238"/><path d="m336 278.63c-.26.18-.52.34-.79.49a2.65 2.65 0 0 1 -.87.18 13.49 13.49 0 0 1 -2.11.05c-1.76-.09-3.51-.35-5.26-.51-3.6-.32-7.7-1.49-10.12-.58s-4.64 3.83-1.25 7.44a17.13 17.13 0 0 0 4.56 3.46c4 1.68 8.21 1.37 10.87 1.95 3.46.77 5.38 2.25 8.57 2.54 4.13.37 6.71-.75 7.4-1.87.38-.62 0-3.86.47-6.37.46-2.17.33-3.64-.45-3.54a3.35 3.35 0 0 1 -.6.76 2.86 2.86 0 0 1 -.92.73 7.44 7.44 0 0 1 -1.55.52 8.66 8.66 0 0 1 -2.87.39 1.42 1.42 0 0 1 -.79-.25 1.8 1.8 0 0 1 -.45-1c-.07-.32-.14-.64-.2-1a1.25 1.25 0 0 0 -.18-.5 1.33 1.33 0 0 0 -.49-.39 4.2 4.2 0 0 1 -1.57-1.2 3.87 3.87 0 0 1 -.46-1.48.32.32 0 0 0 -.11-.24c-.12-.1-.29 0-.41.06z" fill="#37474f"/><path d="m324.75 283.73s.3-3.75 3-4.81a1.42 1.42 0 0 1 1.53.16s-2.55.44-3.29 4.85c0 0-.12.29-.68.2-.16-.03-.57-.13-.56-.4z" fill="#fafafa"/><path d="m331.68 279.31s0-.12-.65-.23a1.18 1.18 0 0 0 -.76.1s-2 .95-2.32 4.87a.71.71 0 0 0 .64.59.59.59 0 0 0 .73-.39s.33-4.14 2.36-4.94z" fill="#fafafa"/><path d="m333.9 279.34s-.12-.23-.6-.22a1.16 1.16 0 0 0 -.75.26 7 7 0 0 0 -1.37 4.81s0 .56.73.6.65-.59.65-.59.15-4.2 1.34-4.86z" fill="#fafafa"/><path d="m348.68 233c-2.47 7.61-8.78 29.26-11.67 40.39 0 0 5.19 4.66 11.85 4.26 3.54-8.32 19.65-31.37 17.69-41.23-1.23-6.24-8-4.42-8-4.42z" fill="#92e3a9"/><path d="m348.68 233c-2.47 7.61-8.78 29.26-11.67 40.39 0 0 5.19 4.66 11.85 4.26 3.54-8.32 19.65-31.37 17.69-41.23-1.23-6.24-8-4.42-8-4.42z" opacity=".3"/><path d="m365.23 245.48c-2.3-1.62-7.52-4.86-8.11-6.51 0 0 .81 5.22 7.26 8.82z" opacity=".3"/><path d="m449.71 309.6-6.87-57.41-5.63-.28 9.67 57.68a.77.77 0 0 0 .37.51 2.27 2.27 0 0 0 2 .1.75.75 0 0 0 .44-.6z" fill="#263238"/><path d="m372.67 247h-5.67l-8.19 54.21a.69.69 0 0 0 .41.62 2.2 2.2 0 0 0 2 0 .75.75 0 0 0 .4-.49z" fill="#37474f"/><path d="m367 247-2.28 15.13a23 23 0 0 0 4.31 2.64l3.64-17.77z" fill="#263238"/><path d="m412.09 328.85-5.29-58.38-5.62-.29 8.08 58.66a.77.77 0 0 0 .38.5 2.21 2.21 0 0 0 2 .1.65.65 0 0 0 .44-.59z" fill="#37474f"/><path d="m407.58 279-.77-8.53-5.62-.29 1.27 9.23a10 10 0 0 0 5.12-.41z" fill="#263238"/><path d="m403.36 229.12h-5.62l-8.21 54.21a.67.67 0 0 0 .42.62 2.27 2.27 0 0 0 2 0 .75.75 0 0 0 .39-.48z" fill="#263238"/><path d="m363.56 245.87c-.79-4.44 2.83-7.91 9.65-12.5a160.71 160.71 0 0 1 19.71-11.08c5.7-2.61 11.51-2.37 18.81 1.38 10.13 5.2 40.6 23.68 40.6 23.68s-45.56 25.72-54.33 24.56-30.67-15.4-32.41-20.41-2.03-5.63-2.03-5.63z" fill="#92e3a9"/><path d="m363.56 245.87c-.79-4.44 2.83-7.91 9.65-12.5a160.71 160.71 0 0 1 19.71-11.08c5.7-2.61 11.51-2.37 18.81 1.38 10.13 5.2 40.6 23.68 40.6 23.68s-45.56 25.72-54.33 24.56-30.67-15.4-32.41-20.41-2.03-5.63-2.03-5.63z" fill="#fff" opacity=".6"/><path d="m402.4 266.5c-6.54 5.92-13.38.83-24.2-6.19-12.24-7.94-14.64-14.44-14.64-14.44s0 4.87.92 7.15 2.89 4.87 11.72 11 15.21 9.13 21.15 10.26l4.68-.65" fill="#92e3a9"/><path d="m378.21 260.31c-12.24-7.94-14.65-14.44-14.65-14.44s0 4.87.93 7.15 2.89 4.87 11.72 11 15.21 9.13 21.15 10.26l4.67-.65.37-7.09c-6.53 5.88-13.4.79-24.19-6.23z" fill="#fff" opacity=".25"/><path d="m408.62 87.73c2.56.18 7.69 1.68 8.61 4.57s-1.74 6.45-4.4 7.66-4.21-12.23-4.21-12.23z" fill="#f0997a"/><path d="m430.86 125.87c-3.46-8.78-8.4-20.75-9.16-22.49a27.37 27.37 0 0 1 -1.31-7.87 5.51 5.51 0 0 0 -2-4.63l-2.18 2.26-.28.6 1.1 5.72c-.06 0-8.19-3.75-9-1.4s-1.18 4 .74 6.11c1.26 1.42 4.2 3.8 4.63 5.26 2.07 7.22 5.19 19.89 5.19 19.89s-2.88 20.25-3.81 22.47a19.2 19.2 0 0 1 -4.69 7c-5.93 5.4 16.16 29.74 16.92 23.21 1.78-15.35 3.5-37.27 4-41.92 1.11-9.24 1.35-10.35-.15-14.21z" fill="#ffa8a7"/><path d="m413.92 103.52a1.58 1.58 0 0 1 .75-1.83 13.48 13.48 0 0 0 1.5-1 2.17 2.17 0 0 0 .54-.59 1.4 1.4 0 0 0 .09-.7c-1.18-.51-8.08-3.48-8.8-1.32-.8 2.46-1.26 4.06 1 6.38h.65a7.77 7.77 0 0 0 1.18-.15 3.86 3.86 0 0 0 2.09-1c.07-.08.11-.17.17-.25a4.43 4.43 0 0 0 .36.84 4.69 4.69 0 0 0 1.18 1.29 14.43 14.43 0 0 1 -.71-1.67z" fill="#f28f8f"/><path d="m403.08 79.25 1.76-1.13 13.16 4.79-1.82 1.09a4.59 4.59 0 0 1 -1.15.45 4.65 4.65 0 0 0 -.32 3.2l2.29 11.81a.18.18 0 0 1 -.08.18l-1.76 1.14c-.62.4-4.65-1.14-4.79-2l-1.81-11.6a10.66 10.66 0 0 0 -3.56-6.18c-.67-.53-1.31-1.13-1.92-1.75z" fill="#263238"/><path d="m395.71 63.11c-.73-4.67.42-8.14 2.79-9.68l1.8-1.15a6.68 6.68 0 0 1 6.09-.29c6.15 2.24 12.37 10.45 13.89 18.32l.52 2.69c.9 4.7-.16 8.17-2.53 9.72l-1.79 1.16c-1.61 1-3.78 1.19-6.37.25h-.11c-6.46-2.38-12.66-10.6-13.9-18.38z" fill="#92e3a9"/><path d="m395.71 63.11c-.73-4.67.42-8.14 2.79-9.68l1.8-1.15a6.68 6.68 0 0 1 6.09-.29c6.15 2.24 12.37 10.45 13.89 18.32l.52 2.69c.9 4.7-.16 8.17-2.53 9.72l-1.79 1.16c-1.61 1-3.78 1.19-6.37.25h-.11c-6.46-2.38-12.66-10.6-13.9-18.38z" opacity=".4"/><path d="m410 84.07h.09c6.45 2.35 10.45-2.12 8.94-10l-.52-2.67c-1.52-7.87-7.74-16.08-13.89-18.33s-10.15 2.23-8.93 10l.41 2.63c1.26 7.81 7.46 16.03 13.9 18.37z" fill="#92e3a9"/><path d="m402 64.54a1.11 1.11 0 0 1 -.15-.43.38.38 0 0 1 .09-.31l2.53-2.26a2.23 2.23 0 0 1 .24-.19.36.36 0 0 1 .35 0l1.8.63a.72.72 0 0 1 .31.26 1 1 0 0 1 .19.43l2.48 13.2a.43.43 0 0 1 0 .35.21.21 0 0 1 -.25.07l-1.93-.68a.86.86 0 0 1 -.31-.26 1.66 1.66 0 0 1 -.19-.43l-1.71-8.92-1.4 1.22a.24.24 0 0 1 -.28 0 .79.79 0 0 1 -.3-.3z" fill="#fff"/><path d="m424.09 72.11a29.73 29.73 0 0 0 -3.56-11.51 22.07 22.07 0 0 0 -3.73-4.81 21 21 0 0 0 -4.91-3.53 31.44 31.44 0 0 1 7.73 8.87 56.34 56.34 0 0 1 4.47 10.98z" fill="#e0e0e0"/><path d="m425.21 63.19a10.28 10.28 0 0 0 -.91-3.12 18.73 18.73 0 0 0 -1.6-2.83 17.06 17.06 0 0 0 -2.12-2.51 7.62 7.62 0 0 0 -2.75-1.73 18.19 18.19 0 0 1 2.17 2.29c.64.82 1.26 1.66 1.85 2.52 1.15 1.75 2.3 3.5 3.36 5.38z" fill="#e0e0e0"/><path d="m403.08 79.25c.61.64 1.25 1.24 1.92 1.82a10.66 10.66 0 0 1 3.55 6.15l1.81 11.6c.16.91 5 2.68 4.87 1.77l-2.23-11.76c-.43-2.22.22-3.92 1.72-4.23a5.38 5.38 0 0 0 1.51-.56z" fill="#455a64"/><path d="m408.62 87.73c.11 1 .3 2 .46 2.92 0 0 1.82 3.24 2.2 3.85s3.38.36 5 1.47c.44.3 1.13 1.26.59 1.75a1.77 1.77 0 0 1 -.9.33 1.57 1.57 0 0 1 0 .53 1.86 1.86 0 0 1 -.89 1 2 2 0 0 1 -.5.22 4.45 4.45 0 0 1 0 .73c-.08.31-.22.44-.61.77a4.16 4.16 0 0 1 -.71.4c.16.4 0 .74-.52 1.09a4.87 4.87 0 0 1 -1.32.53 5 5 0 0 1 -4.13-.48 3.49 3.49 0 0 1 -1.09-2c-.16-.56-.21-1.13-.35-1.69 0-.19-.54-1.34-.43-1.45a2.8 2.8 0 0 1 -.16-.9c0-.53.28-1 .26-1.55a8.44 8.44 0 0 0 -.31-1.32 2.31 2.31 0 0 1 .23-1.55c.17-.27.33-.55.47-.83.31-.82-.17-1.8.2-2.6a1.75 1.75 0 0 1 1-.87 3.92 3.92 0 0 1 .91-.23 3 3 0 0 1 .6-.12z" fill="#ffa8a7"/><path d="m414.36 87.8a31.93 31.93 0 0 0 -4.11 1.11c-.76.21-.81 1.29.87 2a4.61 4.61 0 0 0 3 .24l1.82 2.61 2.46-2.86c-1.19-1.17-3.04-3.05-4.04-3.1z" fill="#ffa8a7"/><path d="m413.28 97.89a21.69 21.69 0 0 1 -2.66-.32 3 3 0 0 1 -1.79-1.69c-.48-.76-1-1.52-1.5-2.27.36.84.77 1.65 1.19 2.47a5.35 5.35 0 0 0 .73 1.19 2.56 2.56 0 0 0 1.27.76 13.26 13.26 0 0 0 2.75.22 13.93 13.93 0 0 0 2.73-.25c-.91 0-1.82 0-2.72-.11zm-3.6 1.9a1.87 1.87 0 0 1 -1.82-1c-.39-.7-.78-1.41-1.22-2.1.26.77.58 1.53.9 2.29a2.77 2.77 0 0 0 .86 1 2.06 2.06 0 0 0 1.3.3 20 20 0 0 0 2.44-.1 12.3 12.3 0 0 0 2.42-.36c-.81.05-1.62 0-2.43 0s-1.63-.09-2.45-.03z" fill="#f28f8f"/><path d="m407.84 159.6c2-1 5.29-4.49 6-6.71s4.16-23.25 4.16-23.25l-3.93-17a10.55 10.55 0 0 0 6.58-.57c3.6-1.48 3.73-3.17 3.73-3.17l6.91 16.85c1 2.39 1.34 2.87.92 8.1s-4.58 49-4.58 49l-19.6-23" fill="#92e3a9"/><path d="m407.84 159.6c2-1 5.29-4.49 6-6.71s4.16-23.25 4.16-23.25l-3.93-17a10.55 10.55 0 0 0 6.58-.57c3.6-1.48 3.73-3.17 3.73-3.17l6.91 16.85c1 2.39 1.34 2.87.92 8.1s-4.58 49-4.58 49l-19.6-23" fill="#f1cbb5" opacity=".75"/><path d="m435.21 222.4c-8.46-.85-32.59-6.9-38.48-7.91-11.25-1.93-17-2.21-20.23-1.19s-6 4.63-7 8.52c-1.17 4.58-1.78 6.91-1.78 6.91s24.74 8.69 37.26 10.16 30.23-16.49 30.23-16.49z" fill="#92e3a9"/><path d="m435.21 222.4c-8.46-.85-32.59-6.9-38.48-7.91-11.25-1.93-17-2.21-20.23-1.19s-6 4.63-7 8.52c-1.17 4.58-1.78 6.91-1.78 6.91s24.74 8.69 37.26 10.16 30.23-16.49 30.23-16.49z" opacity=".4"/><path d="m435.21 222.4c.49 12 .07 23.09-5.67 29.1-3.86 4.05-23.26 14.57-35.78 10.43-12.33-4.08-37.86-23-40.43-25s-4.89-3.21-4.65-4c3.46-11.43 8.49-12.33 17.81-10.27 11.43 2.51 36.47 12.73 36.47 12.73z" fill="#92e3a9"/><path d="m435.21 222.4c.49 12 .07 23.09-5.67 29.1-3.86 4.05-23.26 14.57-35.78 10.43-12.33-4.08-37.86-23-40.43-25s-4.89-3.21-4.65-4c3.46-11.43 8.49-12.33 17.81-10.27 11.43 2.51 36.47 12.73 36.47 12.73z" fill="#37474f" opacity=".3"/><path d="m386.38 159.14 4.67 13.65 14.89-4.57-4.58-15.62z" fill="#f28f8f"/><path d="m376.87 140.88s-3.52 5.09-3.15 5.61 2.88 1 2.88 1z" fill="#b16668"/><path d="m376.9 144.24a4.22 4.22 0 1 1 4.21-4.23 4.23 4.23 0 0 1 -4.21 4.23zm0-7.65a3.44 3.44 0 1 0 3.46 3.44 3.43 3.43 0 0 0 -3.46-3.44z" fill="#263238"/><path d="m386.65 126.8c-6.92 1.3-9 4.28-9.89 15.22-.94 11.42.15 15 1.61 16.62 1 1.06 6.63 1.38 9.49.66 3.58-.9 11.69-3.57 15.59-9.24 4.59-6.67 6-15.82 1.31-19.69-6.55-5.45-15.3-4.1-18.11-3.57z" fill="#f28f8f"/><path d="m386.52 159.55a13 13 0 0 1 -7.83-.68 10.33 10.33 0 0 0 5-.19c2.83-.79 3.36-1.78 3.36-1.78z" fill="#b16668"/><path d="m375.49 131.27a15.82 15.82 0 0 0 6.6 2.25 13.78 13.78 0 0 0 1 5.46c.4 1.22 1.84 5.08 3.4 3 1.15-1.53 2.18-2.92 4.34-2.54 3.57.62 3.95 5.2 1.63 7.93s-4.41 1.61-4.41 1.61-.32 4.93 2.27 8.41a11.69 11.69 0 0 0 9.32.59c3.44-1.13 8.4-5.46 10.23-8.84 5-9.31 5.05-18.23-1-21-.56-4.46-4-6.53-8-7.54-5.5-1.4-11.2 2.05-16.53-.22-1.11-.48-2.14-1.16-3.29-1.58a2.2 2.2 0 0 0 -2 0 2.3 2.3 0 0 0 -.85 1.51 4.32 4.32 0 0 0 .2 3.18 9.18 9.18 0 0 0 -2.5-.93 3.09 3.09 0 0 0 -2.51.58 3.16 3.16 0 0 0 -1 2.2 6.75 6.75 0 0 0 3.1 5.93z" fill="#263238"/><path d="m408.9 129.64 4.18-2.34a2.4 2.4 0 0 0 -4.18 2.34z" fill="#263238"/><path d="m386.44 142.29-13.39-2.51.12-.64 13.39 2.5z" fill="#263238"/><path d="m404.43 163.08-.66-2.23c9.56-4.54 17.48 2.83 22.63 15.77 5.52 13.85 8.93 29.49 9 48.63a44.07 44.07 0 0 1 -17.29 12.82c-11.56 4.56-27.65 2.66-32.66-9.34 0 0 0-8-.37-14.88a69.85 69.85 0 0 0 -5.25-21.1c-2.74-6.35-6.33-18.16 1.07-22.55 2.18-1.29 5.55-2.67 8.5-4.09 6.75 2.25 15.96-.38 15.03-3.03z" fill="#92e3a9"/><path d="m404.43 163.08-.66-2.23c9.56-4.54 17.48 2.83 22.63 15.77 5.52 13.85 8.93 29.49 9 48.63a44.07 44.07 0 0 1 -17.29 12.82c-11.56 4.56-27.65 2.66-32.66-9.34 0 0 0-8-.37-14.88a69.85 69.85 0 0 0 -5.25-21.1c-2.74-6.35-6.33-18.16 1.07-22.55 2.18-1.29 5.55-2.67 8.5-4.09 6.75 2.25 15.96-.38 15.03-3.03z" fill="#f1cbb5" opacity=".6"/><path d="m383.61 168.81c.82-2.12 3.13-6.17 3.79-6.67a21.55 21.55 0 0 0 10.25-.41c5.25-1.62 5.46-3.13 5.46-3.13l-.38-1.27s.4-.55 1.81.56a12.78 12.78 0 0 1 2.63 3.14c.54.72.15 4.3-3.7 6.81s-10.67 1.45-13.25 1.14a24.93 24.93 0 0 1 -4.66-1z" fill="#fff"/><path d="m388.87 183.65c2.5 6.22-.82 16.73-.82 16.73s2.47 12.92 2.47 19.35 3.2 13.26 11.88 10.62 15.17-7.87 22.26-17.63 6.45-17.31 5.24-26.1a132.86 132.86 0 0 1 5.46 38.63 44.18 44.18 0 0 1 -17.3 12.82c-11.51 4.56-27.6 2.66-32.61-9.34 0 0 0-8-.37-14.88a69.85 69.85 0 0 0 -5.25-21.1c-.27-.63-.55-1.32-.83-2 3.46-5.02 8.36-10.96 9.87-7.1z" fill="#92e3a9" opacity=".2"/><path d="m387.68 182.92c2.49 6.23.37 17.46.37 17.46s2.47 12.92 2.47 19.35 3.2 13.26 11.88 10.62 15.17-7.87 22.26-17.63 6.45-17.31 5.24-26.1a132.86 132.86 0 0 1 5.46 38.63 44.18 44.18 0 0 1 -17.3 12.82c-11.51 4.56-27.6 2.66-32.61-9.34 0 0 0-8-.37-14.88a69.85 69.85 0 0 0 -5.25-21.1c-.27-.63-.55-1.32-.83-2 3.46-5.02 7.12-11.69 8.68-7.83z" fill="#f1cbb5" opacity=".05"/><path d="m370 230c-3.68-1.4-5.93-5.54-6.37-8.22s.76-7.08 2.17-9.52 4.2 17.74 4.2 17.74z" fill="#92e3a9"/><path d="m370 230c-3.68-1.4-5.93-5.54-6.37-8.22s.76-7.08 2.17-9.52 4.2 17.74 4.2 17.74z" fill="#fff" opacity=".6"/><path d="m365.71 212.73c1.05-6.47 2.77-16.47 4.91-27 2.09-10.25 4.93-13.27 10.28-15.49 13 7.72 5.77 26.79 5.77 26.79s-4.3 19.87-7 26.32c-1.74 4.19-6.12 8.89-10.68 6.26s-4.32-10.43-3.28-16.88z" fill="#92e3a9"/><path d="m365.71 212.73c1.05-6.47 2.77-16.47 4.91-27 2.09-10.25 4.93-13.27 10.28-15.49 13 7.72 5.77 26.79 5.77 26.79s-4.3 19.87-7 26.32c-1.74 4.19-6.12 8.89-10.68 6.26s-4.32-10.43-3.28-16.88z" fill="#f1cbb5" opacity=".75"/><path d="m402 273.59c3.74-.19 6.65-2.92 15.5-6.61 16.36-6.81 28.61-12.26 33.28-20.83s8-47 6.81-57.67a14.27 14.27 0 0 0 -.79-3.55l1.15-.17-3-2.53c-3.05-2.49-8-.27-11.77 1.77-10.71 5.83-19.07 11.49-25.69 31.93-5 15.37-8.27 43.08-15.13 50.57" fill="#92e3a9"/><path d="m456.83 184.93 1.15-.17-3-2.53c-3.05-2.49-8-.27-11.77 1.77-10.71 5.83-19.07 11.49-25.69 31.93-5 15.37-8.27 43.08-15.13 50.57l-.37 7.09c3.73-.19 6.64-2.92 15.5-6.61 16.35-6.81 28.61-12.26 33.28-20.83s8-47 6.81-57.67a14.35 14.35 0 0 0 -.78-3.55z" fill="#fff" opacity=".25"/><path d="m446.06 185.38c-10.7 5.83-20.76 12.19-26.44 33.14-5.6 20.74-9.26 52.21-22.26 55.72 0 0 5.89 2.34 24-5.3 5.75-2.43 12.72-6.87 17.31-9.44 9-5 14.42-9.17 15.28-10.71 4.75-8.53 8-47 6.82-57.68s-9.34-8.65-14.71-5.73z" fill="#92e3a9"/><path d="m446.06 185.38c-10.7 5.83-20.76 12.19-26.44 33.14-5.6 20.74-9.26 52.21-22.26 55.72 0 0 5.89 2.34 24-5.3 5.75-2.43 12.72-6.87 17.31-9.44 9-5 14.42-9.17 15.28-10.71 4.75-8.53 8-47 6.82-57.68s-9.34-8.65-14.71-5.73z" fill="#638a66" opacity=".4"/><path d="m347.89 133.28c2.53.37 7.53 2.24 8.23 5.19s-2.2 6.3-4.92 7.32-3.31-12.51-3.31-12.51z" fill="#f0997a"/><path d="m367.28 173c-2.82-9-6.87-21.3-7.5-23.09a27.28 27.28 0 0 1 -.73-7.95 5.46 5.46 0 0 0 -1.71-4.76l-2.34 2.06-.32.58.68 5.79c-.06 0-7.89-4.34-8.83-2s-1.47 3.87.29 6.15c1.17 1.51 3.92 4.09 4.24 5.58 1.54 7.36 3.72 20.22 3.72 20.22s-4.34 20-5.44 22.13a19.25 19.25 0 0 1 -5.18 6.62c-6.31 4.95 15 30.95 15.17 24.39.64-19.39 6.31-36.91 7.1-41.52 1.35-8 2.09-10.2.85-14.2z" fill="#ffa8a7"/><path d="m352 149.45a1.57 1.57 0 0 1 .89-1.76 12.24 12.24 0 0 0 1.57-.9 1.76 1.76 0 0 0 .57-.55 1.19 1.19 0 0 0 .15-.69c-1.14-.59-7.81-4.06-8.67-2-1 2.39-1.55 4 .52 6.44l.65.06a5.8 5.8 0 0 0 1.18-.06 3.83 3.83 0 0 0 2.16-.79l.2-.24a4.35 4.35 0 0 0 .29.86 4.65 4.65 0 0 0 1.08 1.37 15.49 15.49 0 0 1 -.59-1.74z" fill="#f28f8f"/><path d="m343 124.46 1.84-1 12.73 5.73-1.83 1a6.18 6.18 0 0 1 -1.18.36 4.56 4.56 0 0 0 -.56 3.17l1.4 11.91a.19.19 0 0 1 -.09.18l-1.84 1c-.65.36-4.55-1.47-4.63-2.3l-1-11.7a10.78 10.78 0 0 0 -3.08-6.39 23.24 23.24 0 0 1 -1.76-1.96z" fill="#263238"/><path d="m336.8 107.83c-.4-4.71 1-8.09 3.5-9.45l1.88-1a6.73 6.73 0 0 1 6.1.15c6 2.69 11.57 11.33 12.51 19.3l.32 2.69c.56 4.75-.75 8.14-3.23 9.51-.31.18-1.57.86-1.88 1-1.67.92-3.86.92-6.37-.21h-.09c-6.27-2.83-11.88-11.47-12.52-19.3z" fill="#92e3a9"/><path d="m336.8 107.83c-.4-4.71 1-8.09 3.5-9.45l1.88-1a6.73 6.73 0 0 1 6.1.15c6 2.69 11.57 11.33 12.51 19.3l.32 2.69c.56 4.75-.75 8.14-3.23 9.51-.31.18-1.57.86-1.88 1-1.67.92-3.86.92-6.37-.21h-.09c-6.27-2.83-11.88-11.47-12.52-19.3z" opacity=".4"/><path d="m349.53 129.78h.09c6.27 2.82 10.58-1.35 9.65-9.31l-.32-2.7c-.95-8-6.55-16.6-12.52-19.29s-10.29 1.48-9.64 9.31l.22 2.65c.64 7.87 6.26 16.56 12.52 19.34z" fill="#92e3a9"/><path d="m346.4 116.47.27.48a4.45 4.45 0 0 0 .33.51 5.11 5.11 0 0 0 .45.48 2.47 2.47 0 0 0 .59.38 1.58 1.58 0 0 0 .56.13.67.67 0 0 0 .44-.13.73.73 0 0 0 .28-.41 1.8 1.8 0 0 0 0-.73 2.58 2.58 0 0 0 -.51-1.31 2.46 2.46 0 0 0 -1.09-.9.77.77 0 0 0 -.37-.08 1.6 1.6 0 0 0 -.31 0l-.25.06a.37.37 0 0 1 -.21 0l-2.23-1a1 1 0 0 1 -.31-.29 1.41 1.41 0 0 1 -.14-.44l-.41-7.19a.57.57 0 0 1 .08-.34.18.18 0 0 1 .24 0l6.12 2.66a.58.58 0 0 1 .29.29.87.87 0 0 1 .16.44l.25 2.19a.38.38 0 0 1 -.07.34.21.21 0 0 1 -.25 0l-4.16-1.81.11 1.79a1.32 1.32 0 0 1 .55-.08 2 2 0 0 1 .72.19 5.79 5.79 0 0 1 1.58 1 7.84 7.84 0 0 1 1.34 1.48 9.16 9.16 0 0 1 1.52 4.1 5.25 5.25 0 0 1 -.08 2 2.17 2.17 0 0 1 -.7 1.21 1.81 1.81 0 0 1 -1.19.51 4.17 4.17 0 0 1 -1.59-.38 7 7 0 0 1 -1.78-1.12 8.65 8.65 0 0 1 -2.38-3.29 7.27 7.27 0 0 1 -.49-1.77.35.35 0 0 1 .06-.28.15.15 0 0 1 .2 0l1.82.79a.84.84 0 0 1 .36.28 1 1 0 0 1 .2.24z" fill="#fff"/><path d="m364.45 118.87a29.91 29.91 0 0 0 -2.71-11.74 22.16 22.16 0 0 0 -3.37-5.07 21.27 21.27 0 0 0 -4.64-3.88 31.46 31.46 0 0 1 7 9.41 55.91 55.91 0 0 1 3.72 11.28z" fill="#e0e0e0"/><path d="m366.23 110.06a11.15 11.15 0 0 0 -.68-3.18 19.22 19.22 0 0 0 -1.4-2.93 16.68 16.68 0 0 0 -1.94-2.63 7.73 7.73 0 0 0 -2.61-2 19.1 19.1 0 0 1 2 2.47c.58.86 1.15 1.74 1.67 2.65 1.08 1.82 2.06 3.7 2.96 5.62z" fill="#e0e0e0"/><path d="m343 124.46a24.43 24.43 0 0 0 1.8 2 10.66 10.66 0 0 1 3.08 6.39l1 11.7c.09.92 4.81 3 4.72 2.12l-1.44-11.94c-.27-2.25.51-3.9 2-4.1a5.77 5.77 0 0 0 1.56-.44z" fill="#455a64"/><path d="m347.89 133.28c0 1 .16 2 .23 2.95 0 0 1.58 3.37 1.91 4s3.36.6 4.92 1.83c.42.34 1 1.35.45 1.79a1.73 1.73 0 0 1 -.92.26 1.37 1.37 0 0 1 -.08.53 1.82 1.82 0 0 1 -1 1 2.82 2.82 0 0 1 -.51.19 3 3 0 0 1 -.09.72c-.07.3-.25.42-.65.72a6.47 6.47 0 0 1 -.75.36c.15.41-.06.73-.59 1a4.53 4.53 0 0 1 -1.35.43 5 5 0 0 1 -4.08-.78 3.38 3.38 0 0 1 -.94-2.09c-.12-.56-.12-1.14-.22-1.7 0-.2-.45-1.38-.33-1.48a2.82 2.82 0 0 1 -.09-.91c0-.52.35-1 .37-1.52a8.69 8.69 0 0 0 -.21-1.34 2.3 2.3 0 0 1 .4-1.51c.19-.26.36-.52.53-.79.35-.8 0-1.81.39-2.57a1.74 1.74 0 0 1 1-.8 4.11 4.11 0 0 1 .93-.16 2.56 2.56 0 0 1 .68-.13z" fill="#ffa8a7"/><path d="m353.55 133.81a33.16 33.16 0 0 0 -4.18.81c-.76.15-.91 1.22.72 2a4.74 4.74 0 0 0 3 .46l1.62 2.73 2.68-2.66c-1.09-1.15-2.8-3.22-3.84-3.34z" fill="#ffa8a7"/><path d="m351.78 143.79a21.08 21.08 0 0 1 -2.61-.5 3 3 0 0 1 -1.68-1.82c-.42-.8-.85-1.59-1.32-2.37.29.86.64 1.7 1 2.54a4.56 4.56 0 0 0 .64 1.24 2.48 2.48 0 0 0 1.2.86 13.14 13.14 0 0 0 2.73.41 13.94 13.94 0 0 0 2.74 0c-.9-.1-1.8-.23-2.7-.36zm-3.72 1.64a1.9 1.9 0 0 1 -1.75-1.13c-.32-.73-.67-1.47-1.06-2.19.21.79.48 1.57.74 2.35a2.46 2.46 0 0 0 .79 1 2.1 2.1 0 0 0 1.27.39c.81 0 1.62.08 2.44.07a11.84 11.84 0 0 0 2.45-.17c-.82 0-1.62-.13-2.43-.19s-1.62-.09-2.45-.13z" fill="#f28f8f"/><path d="m297.8 311.36c-.93 2.47-5.22 2-9.85 2.17-3.74.12-8-.57-10.43.66s-2.84 4.12 1.08 7.4c4.9 4.09 11.38 3.63 15 4s5.77 1.62 9.08 1.53c4.27-.13 6.77-1.6 7.33-2.82s-.09-10.37-1.86-9.92c0 0 .18-.29-6.09-.5-4.35-.15-4.26-2.52-4.26-2.52z" fill="#263238"/><path d="m308.15 314.92c0-.15 1.05-8.6 1.05-8.6s-.17-.74-5.25-.91c-2.5-.08-5.41-2.17-5.69-.19s-.47 6.14-.47 6.14c-.92 2.47-5.22 2-9.85 2.17h-2.38c-2.48.22-4.73 2.06-1.87 3.78s7.19 1.9 11.17 2c4.75.19 13.14.36 13.29-4.39z" fill="#ffa8a7"/><path d="m296.55 257.26c-.38 9.22.88 52.74.88 52.74s4.39 2.12 11.54-.34l4.76-47.22z" fill="#37474f"/><path d="m275.71 322.18c-.84 2.5-7.49 3.59-12.11 3.89-3.73.24-8.07-.3-10.39 1s-2.71 4.22 1.32 7.36c5 3.92 13.84 1.86 17.49 2.09s5.72 1 8.65 1c4.26 0 5.75-1.59 6.26-2.84s1-10.33-.76-9.82c0 0 .17-.29-6.1-.29-4.37-.02-4.36-2.39-4.36-2.39z" fill="#263238"/><path d="m286.18 325.39c0-.15 3.38-13.51 3.38-13.51a10.22 10.22 0 0 1 -7.9 4.15c-2.5 0-5.48-2-5.69 0s-.18 3.81-.45 5.64-5.77 3.57-10.8 4.14c-.78.09-2.7.32-3.51.33-2.8.25-5.6 2.46-2.69 4.08s10.53 0 14.51 0c4.75.03 13.15-.07 13.15-4.83z" fill="#ffa8a7"/><path d="m278.06 274c-1.07 9.55-2.11 36.66-2.35 44.23 0 0 6.34 2.58 12.31.76 0 0 8.35-27.2 7.73-37.41-.29-4.85-17.69-7.58-17.69-7.58z" fill="#455a64"/><path d="m377.59 351.24-6.88-57.41-5.62-.28 9.68 57.68a.77.77 0 0 0 .37.51 2.27 2.27 0 0 0 2 .1.75.75 0 0 0 .44-.6z" fill="#263238"/><path d="m300.56 288.63h-5.63l-8.19 54.21a.66.66 0 0 0 .41.62 2.2 2.2 0 0 0 2 0 .82.82 0 0 0 .4-.49z" fill="#37474f"/><path d="m294.93 288.63-2.29 15.1a22.91 22.91 0 0 0 4.32 2.64l3.6-17.77z" fill="#263238"/><path d="m340 370.49-5.29-58.38-5.62-.29 8.07 58.66a.73.73 0 0 0 .37.5 2.21 2.21 0 0 0 2 .1.68.68 0 0 0 .46-.59z" fill="#37474f"/><path d="m335.46 320.64-.76-8.53-5.62-.29 1.26 9.23a10 10 0 0 0 5.12-.41z" fill="#263238"/><path d="m331.28 270.73h-5.63l-8.19 54.21a.65.65 0 0 0 .41.62 2.2 2.2 0 0 0 2 0 .74.74 0 0 0 .4-.48z" fill="#263238"/><path d="m291.46 287.51c-.79-4.44 2.82-7.91 9.64-12.5a160.71 160.71 0 0 1 19.71-11.08c5.7-2.61 11.52-2.37 18.81 1.38 10.13 5.2 40.6 23.68 40.6 23.68s-45.57 25.74-54.33 24.56-30.68-15.4-32.41-20.41-2.02-5.63-2.02-5.63z" fill="#92e3a9"/><path d="m291.46 287.51c-.79-4.44 2.82-7.91 9.64-12.5a160.71 160.71 0 0 1 19.71-11.08c5.7-2.61 11.52-2.37 18.81 1.38 10.13 5.2 40.6 23.68 40.6 23.68s-45.57 25.74-54.33 24.56-30.68-15.4-32.41-20.41-2.02-5.63-2.02-5.63z" fill="#fff" opacity=".6"/><path d="m330.3 308.14c-6.55 5.92-13.38.83-24.21-6.19-12.23-7.94-14.64-14.44-14.64-14.44s0 4.87.92 7.15 2.9 4.87 11.72 11 15.27 9.07 21.16 10.22l4.68-.65" fill="#92e3a9"/><path d="m306.09 302c-12.23-7.94-14.64-14.44-14.64-14.44s0 4.87.92 7.15 2.9 4.87 11.72 11 15.27 9.07 21.16 10.22l4.68-.65.37-7.09c-6.55 5.87-13.38.81-24.21-6.19z" fill="#fff" opacity=".25"/><path d="m366.28 268.86s-38.28-11.54-44.89-13.36-19.4-4.89-23.14-3.22-5.61 3.61-6 9c-.07 1 0 5.94 0 5.94s18.49 5.72 33.64 5.72 40.39-4.08 40.39-4.08z" fill="#37474f"/><path d="m369 265.06c2.4 8.18 3.68 18.16-2.05 24.07-4.18 4.3-14.81 14.22-37.68 13.25-10.35-.44-39.33-20.66-39.33-20.66s-10.93-1.73-11-5.57c0-.94-1.07-1.17-.88-2.17 1.58-8.4 6.84-12.49 14.2-11.9 12.23 1 39.6 8.68 39.6 8.68z" fill="#455a64"/><path d="m324.73 199.28 3.82 16.59 14.05-2.93-4.85-18.35z" fill="#ffa8a7"/><path d="m365.65 253.35c-1.8-3.27-4.58-8.2-6-14-1.83-11.79 2.3-17.11-2.18-28.51-2.05-5.21-8.53-9.05-14-7.72-1.42.34-2 .36-3.33.71 1 2.75-9.08 5.67-13.68 3.13-2 .6-11.34 4.77-11.34 4.77-2 4-3.14 8.48-4.09 17-.39 3.45 1.05 7.24 2.94 10.56a46.08 46.08 0 0 1 5.81 29l-.12.88s8.51 9.5 29.37 5.7c18.56-3.37 19.13-15.8 19.13-15.8a61.93 61.93 0 0 0 -2.51-5.72z" fill="#c0e1d9"/><path d="m307.77 269.64c-3.63-1.1-6.08-5-6.69-7.51s.26-6.88 1.47-9.34 5.22 16.85 5.22 16.85z" fill="#f28f8f"/><path d="m302.5 253.2c.59-6.31 1.58-16.07 3-26.39 1.34-10 3.2-12.33 9.7-15.1 9.44 5.82 6.22 24.53 6.22 24.53s-3.46 19.95-5.61 26.35c-1.39 4.16-4.38 8.92-9 6.68s-4.88-9.75-4.31-16.07z" fill="#ffa8a7"/><path d="m313.81 183.06s-3.36 5.28-2.94 5.75 2.93.87 2.93.87z" fill="#f28f8f"/><path d="m322.46 167.73c-2.93 1.72-8 4.87-8.71 16-.75 11.44.95 15.34 2.58 16.74 1.1 1 8.6 1.16 10.67.49 3.52-1.15 10.55-6.05 13.81-12.11 3.83-7.13 4.21-16.37-.85-19.72-7.1-4.68-15.03-2.84-17.5-1.4z" fill="#ffa8a7"/><path d="m332.36 201.11a10.32 10.32 0 0 1 -4.38-2.26c-1.46-1.16-3.62-6.19-3.49-7.59.06 0 2 1.43 4.61-1.08s2.7-7.22-.87-8.2c-2.53-.72-4.3 1.26-5.29 3.28-.16.32-.36.69-.71.77-.55.12-1-.49-1.17-1a4.51 4.51 0 0 0 -.86-1.74 4.71 4.71 0 0 1 -1.46-2.93 11.81 11.81 0 0 1 .24-2.85 9.8 9.8 0 0 0 -2.6 3.71 6 6 0 0 1 .07-5.37 10.57 10.57 0 0 0 -2.46 4.82 5.49 5.49 0 0 1 -1.71-3.41 11.69 11.69 0 0 1 3.24-9.5 20.33 20.33 0 0 1 8.84-5.23 27 27 0 0 1 9.91-1.14c7.1.43 11 3.89 12.06 5.18a10.47 10.47 0 0 1 1.79 4.83c4.27 2.17 4.37 7.52 3.41 11.6-.84 3.57-3.23 6.8-5.56 9.58-1.21 1.44-2.46 2.85-3.62 4.35a17.22 17.22 0 0 0 -1.57 2.23c-.69 1.24-1.18 2.29-1.18 2.29a21.73 21.73 0 0 1 -7.24-.34z" fill="#37474f"/><path d="m325.21 201.37-.43-1.72a14.82 14.82 0 0 1 -4.53.74c-3.22.18-4.35-.37-4.41-.4a4.62 4.62 0 0 0 .49.5c.92.8 5.92 1.24 8.88.88z" fill="#f28f8f"/><path d="m358.68 173.73c1.95 2.66 2.57 6.05 2.91 9.33.83 7.86.42 15.85 1.83 23.62a5.69 5.69 0 0 0 .82 2.38 6.32 6.32 0 0 0 3.12 1.92 13 13 0 0 1 -9.18 2.08 9.7 9.7 0 0 1 -4.92-2.16 10.25 10.25 0 0 1 -3-5.34 32.14 32.14 0 0 1 -.62-6.18c-.2-6.11-.43-12.26-1.82-18.22a8.62 8.62 0 0 0 -1.5-3.6c-1.21-1.49-2.33-3.3-1.84-5.39.39-1.71 2.72-2.58 4.3-2.73a11.09 11.09 0 0 1 9.9 4.29z" fill="#37474f"/><path d="m353.27 210.88a9.23 9.23 0 0 0 4 2c-3.52-1.62-4.93-5.65-5.27-11.58-.4-6.66-.69-18.91-3.51-23-2-2.87-3.19-2.24-4.08-5.12a2.53 2.53 0 0 0 0 .55 7.75 7.75 0 0 0 1.93 3.85 8.88 8.88 0 0 1 1.5 3.6 69.88 69.88 0 0 1 1.52 11.44c.14 2.33.23 4.66.31 7 0 1 .06 1.91.14 2.86a18.81 18.81 0 0 0 .46 3.07 10.08 10.08 0 0 0 3 5.33z" opacity=".15"/><path d="m329.93 315.23c3.73-.18 6.64-2.92 15.5-6.61 16.35-6.81 28.6-12.26 33.28-20.83s8-47 6.81-57.67a14.29 14.29 0 0 0 -.8-3.55l1.15-.17-3-2.53c-3-2.49-8-.27-11.77 1.77-10.7 5.83-19.08 11.49-25.69 31.93-5 15.37-8.26 43.08-15.13 50.57" fill="#92e3a9"/><path d="m384.71 226.57 1.15-.17-3-2.53c-3-2.49-8-.27-11.77 1.77-10.7 5.83-19.07 11.49-25.69 31.93-5 15.37-8.26 43.08-15.13 50.57l-.37 7.09c3.74-.18 6.65-2.92 15.5-6.61 16.35-6.81 28.61-12.26 33.28-20.83s8-47 6.81-57.67a13.5 13.5 0 0 0 -.78-3.55z" fill="#fff" opacity=".25"/><path d="m374 227c-10.71 5.83-20.77 12.19-26.43 33.14-5.61 20.74-9.24 52.22-22.27 55.72 0 0 5.9 2.34 24-5.3 5.75-2.43 12.72-6.87 17.31-9.44 9-5 14.42-9.17 15.28-10.71 4.75-8.53 8-47 6.82-57.68s-9.35-8.63-14.71-5.73z" fill="#92e3a9"/><path d="m374 227c-10.71 5.83-20.77 12.19-26.43 33.14-5.61 20.74-9.24 52.22-22.27 55.72 0 0 5.9 2.34 24-5.3 5.75-2.43 12.72-6.87 17.31-9.44 9-5 14.42-9.17 15.28-10.71 4.75-8.53 8-47 6.82-57.68s-9.35-8.63-14.71-5.73z" fill="#638a66" opacity=".4"/><path d="m210.82 358.06s0-3.39 2.4-4.53a1.32 1.32 0 0 1 1.39.05s-2.27.56-2.63 4.58c0 0-.09.27-.61.23-.16-.02-.54-.05-.55-.33z" fill="#fafafa"/><path d="m208.74 355.12c-3.71 0-5.76-.44-10.19-.36-3.34.06-4.56 4.14-.52 7.48a22.94 22.94 0 0 0 5.77 3.15c5.26 1.61 9 .69 11.82 1 3.61.42 4.55 1.44 7.5 1.66 3.87.29 5.27-.32 6.3-1.54 1.21-2.79.44-3.81.86-7.09.23-1.81.1-2.58-.1-2.56-1.18-.13-19.63-1.76-21.44-1.74z" fill="#455a64"/><path d="m230.09 357.18c.58-1.8 2.32-9.23 2.32-9.23s-2.42 1.72-6.93 1.11c-2.3-.31-3.84-6.28-3.84-6.28l-1.28 10c-.89 2.27-5.28 2.39-9.56 2.44-.72 0-1.47 0-2.21-.05-2.29.16-4.42 1.81-1.81 3.46s6.62 1.9 10.31 2.1c4.36.18 11.66.65 13-3.55z" fill="#f28f8f"/><path d="m225.36 302.39c-1.33 10-4.58 45.74-4.58 45.74s5.77 4.54 11.22 1.84c4.42-16.53 13.13-34.76 11.89-46.41z" fill="#263238"/><path d="m188.94 366.73c-3.71 0-5.76-.44-10.19-.36-3.36.06-4.58 4.14-.53 7.48a23 23 0 0 0 5.78 3.15c5.25 1.61 9.05.69 11.81 1 3.61.43 4.55 1.44 7.5 1.66 3.87.29 5.28-.32 6.29-1.54 1.21-2.79.45-3.81.86-7.09.23-1.81.11-2.58-.09-2.56-1.19-.07-19.63-1.74-21.43-1.74z" fill="#455a64"/><path d="m210.28 368.81c.58-1.8 2.31-9.23 2.31-9.23s-2.42 1.72-6.92 1.11c-2.29-.31-3.84-6.28-3.84-6.28l-1.3 9.94c-.9 2.28-5.28 2.39-9.57 2.44-.72 0-1.46 0-2.21-.05-2.3.16-4.42 1.81-1.8 3.46s6.61 1.9 10.3 2.1c4.39.24 11.75.7 13.03-3.49z" fill="#f28f8f"/><path d="m206.64 313.63c-1.64 7.56-4.22 35.88-5.91 46.88a18.14 18.14 0 0 0 11.33 2c2.61-8.34 14.94-38 12.11-47.28-1.79-5.88-8.14-3.48-8.14-3.48z" fill="#37474f"/><path d="m305.59 392.82-6.9-57.57-5.64-.29 9.7 57.85a.71.71 0 0 0 .37.51 2.27 2.27 0 0 0 2 .1.7.7 0 0 0 .44-.6z" fill="#263238"/><path d="m228.36 330h-5.65l-8.21 54.36a.7.7 0 0 0 .41.62 2.27 2.27 0 0 0 2 0 .83.83 0 0 0 .4-.48z" fill="#37474f"/><path d="m222.68 330-2.32 15.17a22.84 22.84 0 0 0 4.33 2.65l3.67-17.82z" fill="#263238"/><path d="m267.87 412.12-5.31-58.54-5.63-.29 8.1 58.82a.71.71 0 0 0 .37.51 2.24 2.24 0 0 0 2 .1.7.7 0 0 0 .44-.6z" fill="#37474f"/><path d="m263.36 362.13-.78-8.55-5.63-.29 1.26 9.26a10.35 10.35 0 0 0 5.15-.42z" fill="#263238"/><path d="m259.14 312.11h-5.65l-8.21 54.37a.7.7 0 0 0 .41.62 2.27 2.27 0 0 0 2 0 .85.85 0 0 0 .4-.49z" fill="#263238"/><path d="m219.21 328.9c-.8-4.45 2.83-7.92 9.66-12.53a159.06 159.06 0 0 1 19.77-11.11c5.7-2.62 11.54-2.38 18.86 1.38 10.15 5.22 40.71 23.75 40.71 23.75s-45.69 25.79-54.48 24.61-30.76-15.45-32.5-20.48-2.02-5.62-2.02-5.62z" fill="#92e3a9"/><path d="m219.21 328.9c-.8-4.45 2.83-7.92 9.66-12.53a159.06 159.06 0 0 1 19.77-11.11c5.7-2.62 11.54-2.38 18.86 1.38 10.15 5.22 40.71 23.75 40.71 23.75s-45.69 25.79-54.48 24.61-30.76-15.45-32.5-20.48-2.02-5.62-2.02-5.62z" fill="#fff" opacity=".6"/><path d="m258.15 349.6c-6.56 5.94-13.42.83-24.26-6.21-12.28-8-14.68-14.49-14.68-14.49s0 4.89.91 7.18 2.9 4.88 11.75 11 15.26 9.15 21.22 10.29l4.69-.65" fill="#92e3a9"/><path d="m233.89 343.39c-12.28-8-14.68-14.49-14.68-14.49s0 4.89.91 7.18 2.9 4.88 11.75 11 15.26 9.15 21.22 10.29l4.69-.65.37-7.11c-6.56 5.93-13.42.82-24.26-6.22z" fill="#fff" opacity=".25"/><path d="m266.9 175.64c2.53.43 7.49 2.43 8.11 5.4s-2.36 6.24-5.11 7.19-3-12.59-3-12.59z" fill="#f0997a"/><path d="m285.28 215.82c-2.58-9.08-6.32-21.47-6.91-23.28a27.91 27.91 0 0 1 -.53-8 5.47 5.47 0 0 0 -1.57-4.81l-2.4 2-.34.57.54 5.8c-.06 0-7.78-4.53-8.78-2.27s-1.57 3.84.13 6.16c1.13 1.53 3.82 4.19 4.09 5.69 1.36 7.39 3.22 20.3 3.22 20.3s-4.85 19.86-6 22a19.28 19.28 0 0 1 -5.35 6.48c-6.43 4.79 18.21 29.93 18.22 23.37 0-18.09 3.57-35.34 4.48-39.93 1.56-7.9 2.35-10.07 1.2-14.08z" fill="#ffbda7"/><path d="m262.06 245a11.57 11.57 0 0 0 4-4.42c.84-1.67 6-19.24 6-19.24a10.28 10.28 0 0 1 7.65-.35 9.92 9.92 0 0 1 5.7 4.65s-1.88 8.4-3 15.91-2.64 22.73-2.64 30.32c0 0-5.15 2.45-11-4s-6.71-22.87-6.71-22.87z" fill="#92e3a9"/><path d="m262.06 245a11.57 11.57 0 0 0 4-4.42c.84-1.67 6-19.24 6-19.24a10.28 10.28 0 0 1 7.65-.35 9.92 9.92 0 0 1 5.7 4.65s-1.88 8.4-3 15.91-2.64 22.73-2.64 30.32c0 0-5.15 2.45-11-4s-6.71-22.87-6.71-22.87z" fill="#d2977c" opacity=".9"/><path d="m270.62 191.91a1.57 1.57 0 0 1 .93-1.74 14.51 14.51 0 0 0 1.6-.86 2.14 2.14 0 0 0 .59-.53 1.49 1.49 0 0 0 .16-.69c-1.12-.62-7.7-4.26-8.62-2.18-1 2.37-1.65 3.92.37 6.45l.64.08a5.82 5.82 0 0 0 1.18 0 3.84 3.84 0 0 0 2.18-.74l.2-.24a3.37 3.37 0 0 0 .27.87 4.52 4.52 0 0 0 1.05 1.41 14.79 14.79 0 0 1 -.55-1.83z" fill="#f0997a"/><path d="m262.21 166.73 1.86-1 12.58 6.06-1.86 1a6 6 0 0 1 -1.19.33 4.63 4.63 0 0 0 -.64 3.15l1.11 11.93a.15.15 0 0 1 -.1.18l-1.86 1c-.66.34-4.51-1.59-4.57-2.43l-.67-11.71a10.63 10.63 0 0 0 -2.91-6.51 25.55 25.55 0 0 1 -1.75-2z" fill="#263238"/><path d="m256.46 149.92c-.26-4.72 1.22-8.07 3.74-9.37l1.9-1a6.74 6.74 0 0 1 6.09.31c5.9 2.84 11.29 11.62 12 19.61l.25 2.7c.44 4.76-1 8.12-3.47 9.42l-1.9 1c-1.7.87-3.89.82-6.37-.38h-.09c-6.2-3-11.58-11.76-12-19.61z" fill="#92e3a9"/><path d="m256.46 149.92c-.26-4.72 1.22-8.07 3.74-9.37l1.9-1a6.74 6.74 0 0 1 6.09.31c5.9 2.84 11.29 11.62 12 19.61l.25 2.7c.44 4.76-1 8.12-3.47 9.42l-1.9 1c-1.7.87-3.89.82-6.37-.38h-.09c-6.2-3-11.58-11.76-12-19.61z" opacity=".4"/><path d="m268.65 172.18h.09c6.19 3 10.6-1.07 9.87-9.06l-.25-2.71c-.74-8-6.12-16.76-12-19.6s-10.36 1.19-9.87 9.07l.15 2.65c.42 7.89 5.82 16.67 12.01 19.65z" fill="#92e3a9"/><path d="m269.9 150.91a.53.53 0 0 1 .28.29.86.86 0 0 1 .15.44l.19 2.2a.61.61 0 0 1 -.06.37l-.16.22-1.48 1.73a7.9 7.9 0 0 1 1.91 2.24 6.73 6.73 0 0 1 .93 2.92c.14 1.56-.13 2.56-.79 3s-1.66.36-3-.26a8.16 8.16 0 0 1 -1.84-1.19 9.39 9.39 0 0 1 -1.4-1.55 9.08 9.08 0 0 1 -.94-1.7 6.22 6.22 0 0 1 -.44-1.64.38.38 0 0 1 .11-.25.15.15 0 0 1 .2 0l1.78.83a.9.9 0 0 1 .47.41c.12.17.24.37.4.58a4.65 4.65 0 0 0 .53.66 3 3 0 0 0 .88.6 1.68 1.68 0 0 0 1.1.19c.28-.08.39-.37.35-.85a2.18 2.18 0 0 0 -.54-1.26 3.34 3.34 0 0 0 -1.15-.86l-1.17-.54a.68.68 0 0 1 -.29-.29 1.2 1.2 0 0 1 -.15-.45l-.16-1.78a.59.59 0 0 1 .06-.37 1.46 1.46 0 0 1 .17-.24l1.3-1.52-3.69-1.71a.81.81 0 0 1 -.28-.3 1.15 1.15 0 0 1 -.15-.44l-.19-2.2a.45.45 0 0 1 .08-.34.17.17 0 0 1 .25 0z" fill="#fff"/><path d="m262.21 166.73c.55.7 1.13 1.36 1.74 2a10.59 10.59 0 0 1 2.92 6.47l.68 11.71c.07.93 4.73 3.17 4.66 2.25l-1.11-11.93c-.21-2.25.61-3.88 2.13-4a6.25 6.25 0 0 0 1.57-.4z" fill="#455a64"/><path d="m266.9 175.64c0 1 .11 2 .18 3 0 0 1.48 3.41 1.79 4s3.34.69 4.87 2c.41.34 1 1.37.41 1.8a1.76 1.76 0 0 1 -.92.24 1.88 1.88 0 0 1 -.08.52 1.93 1.93 0 0 1 -1 1 2.63 2.63 0 0 1 -.52.17 3.57 3.57 0 0 1 -.1.72c-.09.3-.26.42-.67.7-.25.13-.5.24-.75.34.12.41-.09.73-.62 1a5.12 5.12 0 0 1 -1.37.4 5 5 0 0 1 -4.06-.88 3.45 3.45 0 0 1 -.89-2.12c-.11-.56-.11-1.14-.18-1.71 0-.19-.41-1.38-.29-1.49a3.12 3.12 0 0 1 -.08-.91c.06-.52.37-1 .41-1.51a8.62 8.62 0 0 0 -.17-1.34 2.36 2.36 0 0 1 .38-1.53 6.78 6.78 0 0 0 .54-.78c.4-.78 0-1.8.46-2.56a1.79 1.79 0 0 1 1.07-.77 4.1 4.1 0 0 1 .93-.14 2.93 2.93 0 0 1 .66-.15z" fill="#ffbda7"/><path d="m272.56 176.32a32.7 32.7 0 0 0 -4.19.7c-.78.13-.94 1.19.67 2a4.61 4.61 0 0 0 2.94.53l1.55 2.77 2.74-2.6c-1.02-1.18-2.68-3.26-3.71-3.4z" fill="#ffbda7"/><path d="m273.23 186.64a13.94 13.94 0 0 1 -2.74 0 14.78 14.78 0 0 1 -2.72-.49 2.51 2.51 0 0 1 -1.17-.89 5.4 5.4 0 0 1 -.6-1.26c-.34-.85-.67-1.7-.94-2.57.46.79.86 1.6 1.27 2.41a2.94 2.94 0 0 0 1.62 1.86 19.6 19.6 0 0 0 2.61.57c.87.13 1.8.28 2.67.37z" fill="#f0997a"/><path d="m271.64 188.28a11.93 11.93 0 0 1 -2.46.11c-.82 0-1.63-.09-2.44-.13a2.17 2.17 0 0 1 -1.25-.43 2.6 2.6 0 0 1 -.76-1.06c-.25-.79-.49-1.57-.68-2.37.37.73.69 1.48 1 2.22a1.84 1.84 0 0 0 1.72 1.17l2.43.24c.8.09 1.63.22 2.44.25z" fill="#f0997a"/><path d="m285.4 305.36s-18.73-5.4-31.51-8.25c-10.78-2.4-15.94-3.16-19.08-2.18s-4.93 3.29-7 7.4c-1.79 3.47-3.42 7.2-3.42 7.2s22.2 10.93 34.31 12.35 26.7-16.52 26.7-16.52z" fill="#263238"/><path d="m286 305.36c4 11.41 3.31 22.31-3.58 28.73-4 3.69-22.52 14.09-34.64 10.08-11.92-3.95-34.2-24.8-36.67-26.65s-4.75-3.11-4.5-3.89c3.33-11.06 8.2-11.93 17.22-9.94 11.06 2.43 32.87 14.84 32.87 14.84z" fill="#37474f"/><path d="m241.75 243.8 1.28 14.34 16.09-2.49-2.06-15.61z" fill="#ffbda7"/><path d="m234.06 229.91a4.08 4.08 0 1 1 4.65-3.42 4.08 4.08 0 0 1 -4.65 3.42zm1.13-7.32a3.33 3.33 0 1 0 2.77 3.8 3.33 3.33 0 0 0 -2.77-3.8z" fill="#263238"/><path d="m233.42 227.19s-3.45 4.2-3.11 4.72a7.59 7.59 0 0 0 2.22 1.2z" fill="#f0997a"/><path d="m266 217c.92-3.82-2.51-6-4-6.77a19.42 19.42 0 0 0 -7.63-2.07c-2.55-.17-5 .1-7.5-.61a37.33 37.33 0 0 0 -5.67-1.51 6.91 6.91 0 0 0 -5.53 1.39 5.89 5.89 0 0 0 -1.79 3.8 10 10 0 0 0 .6 4.22c-2 1.16-2.74 3.9-2.13 6.16.82 3.1 3.53 5.2 5.67 7.39 1.68 1.72 3.27 3.53 4.78 5.41a33.64 33.64 0 0 1 2.12 2.76c0 .07.07.14.11.2a4.16 4.16 0 0 1 -1.91-.34s-.22 5.85 4.37 8.5c0 0 5.57 2.22 10.35.12 1.22-1.93 3.94-4.17 6.7-7.89 5.46-7.45 5.04-15.76 1.46-20.76z" fill="#263238"/><path d="m247.56 236.08a3.6 3.6 0 0 1 -2.58 1.26 4.11 4.11 0 0 1 -1.92-.33s.42 4.65 3.23 7.69a10.93 10.93 0 0 1 -2.93.89c-2.83.57-8.06-.29-9-1.35-1.38-1.58-3.49-5.6-1.1-16.4a22.47 22.47 0 0 1 4.13-9.4 4.72 4.72 0 0 0 2.37 3.84 4.61 4.61 0 0 0 -1.11 3.72 9.14 9.14 0 0 0 2.33 4.14.46.46 0 0 0 .22.19 1.63 1.63 0 0 0 1-.05c1.1-1.33 2.6-2.86 5.13-1.74 2.91 1.28 2.4 4.96.23 7.54z" fill="#ffbda7"/><path d="m236.09 219.71h.65v12.23h-.65z" fill="#263238" transform="matrix(.27999657 -.960001 .960001 .27999657 -46.57 389.55)"/><path d="m234.63 244.46c1.17.8 4.65 1.42 7.3 1.29l-.22-2a11.93 11.93 0 0 1 -3.26.83 12.53 12.53 0 0 1 -3.82-.12z" fill="#f0997a"/><path d="m240.36 234a2.54 2.54 0 0 1 -1.27-3.35v-.05a2.6 2.6 0 0 1 3.45-1.2z" fill="#263238"/><path d="m258.14 248.53-.27-2.25c9.25-4.4 14.86 1.57 19.86 14.09 2.86 7.2 1.64 16.63 2.55 27.35.67 7.73 4.18 8.84 7.65 22.65 0 0-5 7.89-16.58 10.72s-27.45.33-30.25-8.6c0 0-.1-7.52-.48-14.2-.32-5.72-3.5-14.53-6.29-21-2.63-6.15-6.12-17.57 1-21.82 2.1-1.25 4.26-2.08 7.12-3.45 6.55 2.13 16.55-.9 15.69-3.49z" fill="#d2977c"/><path d="m224.81 313.32a8.75 8.75 0 0 1 -6.37-8.26c-.17-2.63.24-5.93 1.77-10.73.84-2.6 4.6 18.99 4.6 18.99z" fill="#f0997a"/><path d="m220.14 294.73c1-6.26 3.22-14.11 5.29-24.31 2-9.92 3.68-11.79 8.86-13.94 12.54 7.47 6.37 24.43 6.37 24.43s-4.8 19.67-7.39 25.91c-1.67 4-5 8.6-9.39 6s-4.75-11.82-3.74-18.09z" fill="#ffbda7"/><path d="m235.36 255.44c-5.19 2.42-7.77 3.88-9.36 10.06s-5.52 27.23-5.52 27.23 1.61 5.74 6.89 7.65 8.44.71 8.44.71 5.15-18.38 6.11-23.15 3.36-18.81-6.56-22.5z" fill="#d2977c"/><path d="m237.36 255.44c-3.81 2.42-5.71 3.88-6.87 10.06s-4.06 27.23-4.06 27.23 1.19 5.74 5.07 7.65 6.2.71 6.2.71 3.78-18.38 4.48-23.15 2.47-18.81-4.82-22.5z" opacity=".2"/><path d="m277.5 218.4a8.1 8.1 0 0 0 -3.51-2.61 5 5 0 1 0 -10-.21 4.94 4.94 0 0 0 .68 2.62 8.22 8.22 0 0 0 -.56 9.76 5 5 0 1 0 8.05 5.93 5.1 5.1 0 0 0 .95-2.46 8.25 8.25 0 0 0 4.42-13z" fill="#263238"/><path d="m282.83 155.62a29.91 29.91 0 0 0 -4.16-11.3 22.33 22.33 0 0 0 -4-4.61 20.81 20.81 0 0 0 -5.09-3.26 31.62 31.62 0 0 1 8.19 8.44 56.55 56.55 0 0 1 5.06 10.73z" fill="#e0e0e0"/><path d="m283.49 146.66a11.11 11.11 0 0 0 -1.08-3.07 19.08 19.08 0 0 0 -1.76-2.74 16.15 16.15 0 0 0 -2.25-2.35 7.25 7.25 0 0 0 -2.84-1.61 17.47 17.47 0 0 1 2.27 2.2c.69.78 1.35 1.58 2 2.41 1.3 1.65 2.52 3.38 3.66 5.16z" fill="#e0e0e0"/><path d="m257.78 356.73c3.74-.19 6.66-2.93 15.54-6.63 16.4-6.83 28.69-12.3 33.38-20.89s8-47.1 6.83-57.84a14.29 14.29 0 0 0 -.8-3.55l1.15-.17-3-2.55c-3.06-2.5-8-.27-11.8 1.78-10.72 5.85-19.12 11.5-25.72 32-5 15.41-8.28 43.2-15.18 50.72" fill="#92e3a9"/><path d="m312.73 267.8 1.14-.17-3-2.55c-3.06-2.5-8-.27-11.79 1.78-10.72 5.87-19.12 11.52-25.72 32-5 15.41-8.28 43.2-15.18 50.72l-.37 7.11c3.74-.19 6.67-2.93 15.55-6.63 16.39-6.83 28.69-12.3 33.38-20.89s8-47.1 6.82-57.84a13.9 13.9 0 0 0 -.83-3.53z" fill="#fff" opacity=".25"/><path d="m301.93 268.25c-10.73 5.84-20.82 12.22-26.51 33.23-5.62 20.8-9.25 52.36-22.33 55.88 0 0 5.91 2.35 24-5.32 5.77-2.44 12.76-6.88 17.36-9.46 9-5.06 14.47-9.2 15.33-10.75 4.76-8.55 8-47.1 6.83-57.84s-9.25-8.67-14.68-5.74z" fill="#92e3a9"/><path d="m301.93 268.25c-10.73 5.84-20.82 12.22-26.51 33.23-5.62 20.8-9.25 52.36-22.33 55.88 0 0 5.91 2.35 24-5.32 5.77-2.44 12.76-6.88 17.36-9.46 9-5.06 14.47-9.2 15.33-10.75 4.76-8.55 8-47.1 6.83-57.84s-9.25-8.67-14.68-5.74z" fill="#638a66" opacity=".4"/><path d="m79.36 311.88 4.66-1.61-1.44-3.17-2.91 2.57z"/><path d="m74.8 303.43s-.26 3-.33 3.95 3.9 4 4.89 4.5l.32-2.21a17.62 17.62 0 0 1 2.22 3.65c.74 1.37 1.67 4 3.76 5.75 3.1 2.66 8 4.1 13 4.42s8-.85 9.41-1.91a3.36 3.36 0 0 0 1.63-3.58c-.28-1.27-34.9-14.57-34.9-14.57z" fill="#263238"/><path d="m88.55 293.52.11-1.74c.93 0 1 2.53 2.27 4.78a44.93 44.93 0 0 0 6.86 9.25c5 4.8 9.48 7.84 11.71 10 3 2.88-2.5 7.2-10.72 6.53-4.08-.34-11.28-2.58-13.25-5s-3.13-6.27-4.72-8.06-5-3.66-6-5.81c-.53-1.18-.17-3.91.23-6.22.36-2.12.51-5.38 1.7-5.08l.06 1.1c.47.94 1.55 2.5 4.84 3.15 1.63.31 6.53.58 6.91-2.9z" fill="#37474f"/><path d="m84.27 296.53c1.58-.09 3.29-.57 4-2a4 4 0 0 0 1 3.38c1.42 1.76 10.4 14.14 10.4 14.14s-8.39-10.24-10-12.17c-2.38-2.85-3.15-3.2-5.39-3.33z" opacity=".15"/><path d="m86.25 299.8a.53.53 0 0 1 -.57.43.5.5 0 0 1 -.44-.54.5.5 0 0 1 .56-.44.51.51 0 0 1 .45.55z" opacity=".15"/><path d="m88.6 302.55a.5.5 0 0 1 -.55.43.51.51 0 0 1 -.44-.56.5.5 0 0 1 1 .13z" opacity=".15"/><path d="m91 305.3a.51.51 0 0 1 -.57.42.5.5 0 0 1 -.42-.57.49.49 0 0 1 .56-.42.5.5 0 0 1 .43.56z" opacity=".15"/><path d="m93.36 308.05a.53.53 0 0 1 -.57.43.51.51 0 0 1 -.43-.57.5.5 0 0 1 1 .13z" opacity=".15"/><path d="m95.68 310.79a.5.5 0 0 1 -1-.13.5.5 0 0 1 .56-.43.49.49 0 0 1 .43.54z" opacity=".15"/><path d="m85.73 299.94a.19.19 0 0 1 -.13-.07.19.19 0 0 1 0-.27 8.22 8.22 0 0 1 5.75-2.11.21.21 0 0 1 .18.22.22.22 0 0 1 -.22.19 8 8 0 0 0 -5.44 2 .24.24 0 0 1 -.14.04z" fill="#263238"/><path d="m88.09 302.67a.15.15 0 0 1 -.13-.06.21.21 0 0 1 0-.29 8.27 8.27 0 0 1 5.75-2.1.19.19 0 0 1 .19.2.2.2 0 0 1 -.19.2 8 8 0 0 0 -5.44 2 .18.18 0 0 1 -.18.05z" fill="#263238"/><path d="m90.44 305.43a.2.2 0 0 1 -.18-.22.17.17 0 0 1 .07-.13 8.18 8.18 0 0 1 5.74-2.1.19.19 0 0 1 .19.2.2.2 0 0 1 -.19.2 8 8 0 0 0 -5.44 2 .2.2 0 0 1 -.19.05z" fill="#263238"/><path d="m92.8 308.18a.27.27 0 0 1 -.13-.07.19.19 0 0 1 0-.28 8.26 8.26 0 0 1 5.75-2.11.2.2 0 0 1 .15.25.2.2 0 0 1 -.15.16 7.93 7.93 0 0 0 -5.44 2 .24.24 0 0 1 -.18.05z" fill="#263238"/><path d="m95.16 310.93a.27.27 0 0 1 -.13-.07.19.19 0 0 1 0-.28 8.26 8.26 0 0 1 5.75-2.11.21.21 0 0 1 .18.22.22.22 0 0 1 -.22.19 7.93 7.93 0 0 0 -5.44 2 .27.27 0 0 1 -.14.05z" fill="#263238"/><path d="m41.87 323.89c-.82 3.91-1.82 6.43-3.57 8.54s-4.78 2.25-7 1.72a9.65 9.65 0 0 1 -7.23-7.6c-.64-2.73-.05-5.82 1.11-9.39z" fill="#263238"/><path d="m34 293.42c-1.11-.08-2.23 5.16-3.67 10.37-1.53 5.59-3.75 8.51-4.89 12.25-1.58 5.2-1.57 7.65-.19 11.15s9 8 12.94 3.83c3.22-3.36 4-7.51 4.51-12.87.58-5.53.94-9.43 1.79-13.57s1.67-7.78.78-8.37c-.16.58-.34 1.31-.51 1.87s-.56 2.58-1.18 2.5a7.53 7.53 0 0 1 .21-1.5 1.85 1.85 0 0 0 -.1-1.33 2.12 2.12 0 0 0 -1.15-.73 28.19 28.19 0 0 0 -3.2-1c-.54-.13-1.09-.24-1.64-.32a18.9 18.9 0 0 0 -2.9-.31.88.88 0 0 0 -.68.45 1.56 1.56 0 0 0 -.15.6 5.18 5.18 0 0 1 -.3 1.07c-.07.15-.2.33-.36.27s-.15-.22-.13-.35c.1-.65.25-1.1.39-1.84.06-.35.19-.81.25-1.16s.18-.7.18-1.01z" fill="#37474f"/><path d="m29.36 318a.37.37 0 0 0 .26.46.39.39 0 0 0 .19-.76.38.38 0 0 0 -.47.28z" opacity=".15"/><path d="m30.24 314.35a.38.38 0 0 0 .28.47.4.4 0 0 0 .43-.34.39.39 0 0 0 -.24-.41.38.38 0 0 0 -.48.27z" opacity=".15"/><path d="m31.11 310.93a.41.41 0 0 0 .29.48.42.42 0 0 0 .47-.29.39.39 0 0 0 -.76-.19z" opacity=".15"/><path d="m32 307.56a.39.39 0 0 0 .28.48.39.39 0 0 0 .2-.76.39.39 0 0 0 -.48.28z" opacity=".15"/><path d="m40.61 309.42a.37.37 0 0 0 .26.46.39.39 0 0 0 .19-.76.38.38 0 0 0 -.47.28z" opacity=".15"/><path d="m39.75 312.81a.37.37 0 0 0 .26.46.4.4 0 0 0 .43-.34.39.39 0 0 0 -.24-.41.37.37 0 0 0 -.47.26z" opacity=".15"/><path d="m38.88 316.23a.38.38 0 0 0 .21.5.39.39 0 0 0 .51-.22v-.09a.4.4 0 0 0 -.35-.44.38.38 0 0 0 -.37.25z" opacity=".15"/><path d="m38 319.85a.38.38 0 0 0 .21.5.39.39 0 0 0 .51-.22v-.09a.39.39 0 0 0 -.27-.47.37.37 0 0 0 -.47.26z" opacity=".15"/><path d="m34.45 321.1 6.82-25.21-1.43-.24z" opacity=".15"/><path d="m29.65 318.26h.06c2.63-.18 6.94.73 8.52 1.82a.2.2 0 0 0 .27-.05.2.2 0 0 0 0-.27c-1.67-1.16-6-2.08-8.76-1.89a.2.2 0 0 0 -.2.21.19.19 0 0 0 .11.18z" fill="#263238"/><path d="m30.58 314.64h.1c2.08-.62 6.67.59 8.47 1.83a.2.2 0 0 0 .27-.05.2.2 0 0 0 -.05-.27c-1.88-1.3-6.61-2.55-8.81-1.88a.2.2 0 0 0 -.13.24.22.22 0 0 0 .15.13z" fill="#263238"/><path d="m31.45 311.22h.1c2.08-.63 6.67.58 8.47 1.83a.18.18 0 0 0 .26-.05.21.21 0 0 0 0-.28c-1.87-1.3-6.61-2.54-8.8-1.88a.18.18 0 0 0 -.19.19.19.19 0 0 0 .19.19z" fill="#263238"/><path d="m32.3 307.85h.11c2.08-.63 6.67.59 8.47 1.83a.18.18 0 0 0 .26-.05.21.21 0 0 0 0-.28c-1.88-1.29-6.61-2.54-8.81-1.88a.19.19 0 0 0 -.13.25.17.17 0 0 0 .1.13z" fill="#263238"/><path d="m43.18 170.49c-3.58 32.63-6.53 77.14-6.53 77.14-.31 2.47-2.2 6.68-3.77 18.9-1.67 12.89-3.44 37.07-3.44 37.07s8.9 5.14 16.3 2.92c0 0 8.28-34.21 12.5-49.34 4-14.31 10.4-41.47 10.4-41.47l3 27.16s-.79 9.31-.71 15.84c.09 7.6 4 39.25 4 39.25s9.66 6.09 17.45.5c0 0 2.71-45.29 3.2-54.41 1-17.89-.06-52.67 0-75.81z" fill="#263238"/><path d="m55.36 208.55q-1.36 11.73-3 23.45-.81 5.85-1.64 11.7l-.85 5.84-.51 2.92c-.14 1-.37 1.94-.55 2.9q-2.31 11.56-4.81 23.12t-5.21 23q1.88-11.67 4.07-23.26t4.52-23.16c.19-1 .42-1.93.56-2.9l.45-2.91.92-5.83q.9-5.85 1.89-11.65 1.99-11.61 4.16-23.22z"/><path d="m91.63 207.44c.6 7.34.8 14.71.9 22.07s.15 14.74-.35 22.08-.82 14.7-1.33 22-1 14.69-1.72 22q.16-11 .61-22.07c.26-7.35.62-14.7 1-22l.26-5.52.08-1.37v-4.13l.2-11 .16-11c.21-3.7.2-7.38.19-11.06z"/><path d="m68.64 215.73 3.72-17.84s8.92-1 13.59-5c0 0-3.1 5.31-11.54 7.17l-3.63 15.77.82 27z"/><path d="m150.36 100.53c1.33-1.77 1.17-3.51.59-3.72-.78-.29-3 .76-4.56 1.24-2.65.81-4.83.53-7.28 1.85-1.91 1-.32 2.19-3.08 4.82-5.8 5.5-17.82 15.41-19.56 16.85-4.21-2.11-8.17-4.25-15.75-8.61-4.47-2.56-6.56-3.93-10.18-5.29a18 18 0 0 0 -8-1.46l4 18.42c14.43 7.55 21.87 11.53 25.29 13 6.49 2.87 7.67 4.3 15.25-4.61 4.42-5.2 13-16.82 14.74-17.42s3.64.52 6.35-1.41 8-13.49 8-13.49-2.74-.12-5.81-.17z" fill="#ffbda7"/><path d="m141.77 115.64a6.84 6.84 0 0 1 -2.62-3.57 4.8 4.8 0 0 0 4.47-3c1.15-3.07.23-4.17 2.65-5.3a14.21 14.21 0 0 0 4.1-3l5.47.22s-2.4 7-3.62 9.41-4.22 6.05-10.45 5.24z" fill="#f0997a"/><path d="m147 111.73a1.29 1.29 0 0 1 -.75-1.67l10.66-27.84 2.39.92-10.69 27.86a1.3 1.3 0 0 1 -1.61.73z"/><path d="m155.16 71a3.62 3.62 0 0 0 -3.61.8 11.49 11.49 0 0 0 -4.14 9.6 3.63 3.63 0 0 0 1.92 3.18l2 .86a3.69 3.69 0 0 0 3.63-.79 11.57 11.57 0 0 0 4.13-9.61 3.68 3.68 0 0 0 -1.91-3.18z" fill="#37474f"/><path d="m153.53 72.73c2.67-2 5.17-.92 5.54 2.39a11.51 11.51 0 0 1 -4.13 9.61c-2.68 2-5.16.92-5.55-2.39a11.58 11.58 0 0 1 4.14-9.61z" fill="#263238"/><path d="m156.93 72.73a3.21 3.21 0 0 0 -3.19.71 10.17 10.17 0 0 0 -3.66 8.49 3.22 3.22 0 0 0 1.69 2.81l12.83 5.53a3.28 3.28 0 0 0 3.21-.7 10.3 10.3 0 0 0 3.66-8.49 3.24 3.24 0 0 0 -1.7-2.81z" fill="#92e3a9"/><path d="m156.93 72.73a3.21 3.21 0 0 0 -3.19.71 10.17 10.17 0 0 0 -3.66 8.49 3.22 3.22 0 0 0 1.69 2.81l12.83 5.53a3.28 3.28 0 0 0 3.21-.7 10.3 10.3 0 0 0 3.66-8.49 3.24 3.24 0 0 0 -1.7-2.81z" opacity=".3"/><path d="m169.84 87.31-19.48-8.41a8.41 8.41 0 0 0 -.25 3 3.22 3.22 0 0 0 1.69 2.81l12.83 5.53a3.28 3.28 0 0 0 3.21-.7 8.68 8.68 0 0 0 2-2.23z" opacity=".15"/><path d="m168.11 76.62a3.66 3.66 0 0 0 -3.62.79 11.54 11.54 0 0 0 -4.13 9.59 3.66 3.66 0 0 0 1.91 3.18l2 .86a3.69 3.69 0 0 0 3.63-.79 11.58 11.58 0 0 0 4.1-9.59 3.67 3.67 0 0 0 -1.92-3.18z" fill="#37474f"/><path d="m166.48 78.27c2.67-2 5.16-.93 5.55 2.39a11.58 11.58 0 0 1 -4.14 9.61c-2.67 2-5.16.92-5.55-2.39a11.58 11.58 0 0 1 4.14-9.61z" fill="#455a64"/><path d="m151.14 98.57s3.5-.4 5.37.34c.81.33 1.29.87.86 2.49a3 3 0 0 1 -1.88 1.85 2.51 2.51 0 0 1 .86 2.21 3.2 3.2 0 0 1 -2.46 2.53 2 2 0 0 1 .15 2 3.42 3.42 0 0 1 -2.49 1.59 2.93 2.93 0 0 1 -.54 2.12c-.73.83-3.4 1.68-5.62 1.81a1.73 1.73 0 0 1 -1.75-2.72 4.64 4.64 0 0 1 2.09-1.4 2.24 2.24 0 0 1 -.5-2c.3-1.11 2.77-1.66 2.77-1.66s-1.53-.93-1.16-2.26 3.3-1.91 3.3-1.91a1.56 1.56 0 0 1 -1.42-1.31c1.37-1.25 2.39-2.61 2.42-3.68z" fill="#ffbda7"/><path d="m146 103.93c2.41-1.39 3.35-1.7 4.34-3.4 1.33-1.77 1.17-3.51.58-3.72-.78-.29-3 .76-4.55 1.24-2.65.81-4.84.53-7.28 1.85-1.91 1-3.5 5-6.27 7.67z" fill="#ffbda7"/><path d="m127.36 112.25 3.12-2.92a11.92 11.92 0 0 0 3 6.49c2.83 3.44 4.89 3.59 4.89 3.59l-2.62 3.14a10.62 10.62 0 0 1 -5.64-3.5 14.82 14.82 0 0 1 -2.75-6.8z" fill="#e6e6e6"/><path d="m82.7 105.57c7.33.61 10.72 2.76 18.12 7s15.61 8.43 15.61 8.43l12.28-10.21a10.2 10.2 0 0 0 2.76 7.51c3.24 3.58 5.3 3.3 5.3 3.3s-5.41 7.4-10.41 12.9-6.23 7.5-12.36 4.8-26.86-13.57-26.86-13.57z" fill="#37474f"/><path d="m42.21 112.28s-2 1.62.36 13.35c1.84 9.2 4 20.9 4.11 24.91.23 6.19-1.45 21.19-1.45 21.19 14.2 7.21 43.13 5.49 48.26-4.46 0 0-1.22-35.92-2.88-46.42-1.27-8-4-12.47-6.9-14.8l-9.95-1.43-12-.52z" fill="#e6e6e6"/><path d="m85.17 69.48a2.52 2.52 0 0 0 -2.42-4.42 4.83 4.83 0 0 0 .61-4.19c-.3-.86-1.15-1.72-2-1.41a2.53 2.53 0 0 0 -.82.59 6.43 6.43 0 0 1 -3.77 1.4c-2.57.19-5.11-.52-7.71-.39-9 .46-13.69 4.85-14.34 8.53a6.34 6.34 0 0 0 -3.4 3.22c-.85 1.63-.86 5.53 1.89 13.93 1.95 6 2.24 8.32 3 9.85s1.66 1.47 1.66 1.47l18.84-21.13c2.41.16 4.77 1.15 7.12.1a5.09 5.09 0 0 0 2.9-3.44 4 4 0 0 0 -1.56-4.11z" fill="#e0e0e0"/><path d="m85.17 69.48a2.52 2.52 0 0 0 -2.42-4.42 4.83 4.83 0 0 0 .61-4.19c-.3-.86-1.15-1.72-2-1.41a2.53 2.53 0 0 0 -.82.59 6.43 6.43 0 0 1 -3.77 1.4c-2.57.19-5.11-.52-7.71-.39-9 .46-13.69 4.85-14.34 8.53a6.34 6.34 0 0 0 -3.4 3.22c-.85 1.63-.86 5.53 1.89 13.93 1.95 6 2.24 8.32 3 9.85s1.66 1.47 1.66 1.47l18.84-21.13c2.41.16 4.77 1.15 7.12.1a5.09 5.09 0 0 0 2.9-3.44 4 4 0 0 0 -1.56-4.11z" opacity=".2"/><path d="m52.5 92.73c2.56 1.33 4.94-1 4.94-1l.48 13.52s.26 2.61 4.42 4.9c5.88 3.26 8.42 4 11 7.52 1.91-5.82 4-9.08.28-13.5v-3.09a19.33 19.33 0 0 0 4.53-.58c3.71-1.19 5.84-5.37 6.16-8.73a54.15 54.15 0 0 0 -.74-17.64 6.34 6.34 0 0 0 -2.47-4c-4.87-3.49-9.85.06-15.25 1.64a11 11 0 0 1 -6.61 0c1.26.75 3.46 4.52.35 10.68 0 1.71-.35 3-1.1 3.12-1.43.27-2-1.52-2.92-2.49a3.79 3.79 0 0 0 -5.34.46 3.51 3.51 0 0 0 -.55.88 6.22 6.22 0 0 0 2.82 8.31z" fill="#ffbda7"/><path d="m71.13 90.23 5.05.44a2.49 2.49 0 0 1 -2.6 2.39h-.09a2.66 2.66 0 0 1 -2.36-2.83z" fill="#b16668"/><path d="m71.82 91a2.49 2.49 0 0 0 -.61.08 2.64 2.64 0 0 0 2.29 2 2.48 2.48 0 0 0 .81-.08 2.34 2.34 0 0 0 -2.49-2z" fill="#f28f8f"/><path d="m73.56 101c-3 .14-8.36-.71-10.32-2.66a18.06 18.06 0 0 1 -3.9-6.34c.4 3 1.4 6.41 3.5 8.34s7.47 2.53 10.72 2.53z" fill="#f0997a"/><path d="m79.28 73.42a4.58 4.58 0 0 0 -2.81-.11 17.3 17.3 0 0 1 -3.35.45c-1.94 0-4.33-.79-6.15.09 0 0-.06.11 0 .09a8.26 8.26 0 0 1 2.58-.16c1 0 2.39.48 3.43.48 2.13 0 4.16-.91 6.28-.75.03.01.1-.08.02-.09z" fill="#f0997a"/><path d="m76.78 71.57c-.68.12-1.37.22-2 .35a8.41 8.41 0 0 1 -2.12.18c-.64 0-1.27-.16-1.92-.22a3.49 3.49 0 0 0 -1.83.26c1.32-.26 2.67.23 4 .25a10.6 10.6 0 0 0 1.88-.17 12.21 12.21 0 0 0 2-.62s.03-.03-.01-.03z" fill="#f0997a"/><path d="m65.71 81.14a2 2 0 0 0 -.49 0 3 3 0 0 0 -.52.11 1.43 1.43 0 0 0 -.44.15l-.23.1a.47.47 0 0 0 -.24.31c0 .26.56 0 .65 0 .43-.15.9-.12 1.34-.24.22-.07.22-.41-.07-.43z" fill="#f0997a"/><path d="m65.94 82.12h-.12a.67.67 0 0 0 -.37.08l-.43.15-.42.15a.74.74 0 0 0 -.4.3.17.17 0 0 0 0 .1.12.12 0 0 0 .09.08h.14l1-.29a1 1 0 0 0 .5-.24.16.16 0 0 0 .08-.12.14.14 0 0 0 0-.2z" fill="#f0997a"/><path d="m81.92 80.23a1.93 1.93 0 0 1 .48 0 3.46 3.46 0 0 1 .52.11 3.26 3.26 0 0 1 .44.15l.23.1c.08.06.23.18.23.3s-.55 0-.65 0c-.42-.15-.89-.12-1.33-.24-.25-.06-.16-.4.08-.42z" fill="#f0997a"/><path d="m81.69 81.21h.12a.68.68 0 0 1 .36.08l.43.15.41.15a.76.76 0 0 1 .41.3v.11a.16.16 0 0 1 -.1.08.33.33 0 0 1 -.14 0l-1-.29a1 1 0 0 1 -.5-.24.23.23 0 0 1 -.08-.12.14.14 0 0 1 .06-.2z" fill="#f0997a"/><path d="m67.66 76.73-3.3 1.43a1.88 1.88 0 0 1 1-2.43 1.76 1.76 0 0 1 2.29 1z" fill="#37474f"/><path d="m82.36 76.62-3.5-1a1.75 1.75 0 0 1 2.1-1.3h.1a1.92 1.92 0 0 1 1.3 2.3z" fill="#37474f"/><path d="m67 81.47a1.48 1.48 0 1 0 3-.09 1.47 1.47 0 0 0 -1.62-1.38 1.46 1.46 0 0 0 -1.38 1.47z" fill="#263238"/><path d="m77.92 81a1.48 1.48 0 1 0 1.44-1.52 1.34 1.34 0 0 0 -1.45 1.22 1 1 0 0 0 .01.3z" fill="#263238"/><path d="m68.83 88.94-.27.15a3.79 3.79 0 0 1 -2.18.46 1.58 1.58 0 0 0 1.23 1 2.69 2.69 0 0 0 2-.25c-.07.49.55.89 1.14.9a3.28 3.28 0 0 0 1.63-.53c0 .35.47.63.9.58a1.77 1.77 0 0 0 1-.6.83.83 0 0 0 .88.63.73.73 0 0 0 .76-.72c.09.8 2.16.67 1.74 0a2.37 2.37 0 0 0 1.87.32 2.2 2.2 0 0 0 .79-.44 4.08 4.08 0 0 0 .34-.57 3.75 3.75 0 0 1 -2.58-.87 8.51 8.51 0 0 0 -3.08-1.46 7.75 7.75 0 0 0 -4.61.52c-.52.23-1.03.58-1.56.88z" fill="#e0e0e0"/><path d="m79.75 85.57a4.45 4.45 0 1 1 4.43-4.46 4.46 4.46 0 0 1 -4.43 4.46zm0-8.23a3.79 3.79 0 1 0 3.78 3.8 3.79 3.79 0 0 0 -3.78-3.8z" fill="#455a64"/><path d="m68.83 88.94-.27.15a3.79 3.79 0 0 1 -2.18.46 1.58 1.58 0 0 0 1.23 1 2.69 2.69 0 0 0 2-.25c-.07.49.55.89 1.14.9a3.28 3.28 0 0 0 1.63-.53c0 .35.47.63.9.58a1.77 1.77 0 0 0 1-.6.83.83 0 0 0 .88.63.73.73 0 0 0 .76-.72c.09.8 2.16.67 1.74 0a2.37 2.37 0 0 0 1.87.32 2.2 2.2 0 0 0 .79-.44 4.08 4.08 0 0 0 .34-.57 3.75 3.75 0 0 1 -2.58-.87 8.51 8.51 0 0 0 -3.08-1.46 7.75 7.75 0 0 0 -4.61.52c-.52.23-1.03.58-1.56.88z" opacity=".2"/><path d="m72.36 78.2 1.2 9.39 5-1.82a22.1 22.1 0 0 0 -6.2-7.57z" fill="#f0997a"/><path d="m68.25 86.52a4.44 4.44 0 1 1 4.44-4.44 4.44 4.44 0 0 1 -4.44 4.44zm0-8.23a3.79 3.79 0 1 0 3.75 3.8 3.79 3.79 0 0 0 -3.75-3.8z" fill="#455a64"/><path d="m72.36 82.14a.31.31 0 0 1 -.28-.34 2.35 2.35 0 0 1 2.75-1.88 2.3 2.3 0 0 1 1.07.5.34.34 0 0 1 -.07.46.33.33 0 0 1 -.38 0 1.64 1.64 0 0 0 -1.62-.26 1.55 1.55 0 0 0 -1.1 1.27.36.36 0 0 1 -.37.25z" fill="#455a64"/><path d="m55.51 83.33a.33.33 0 0 1 -.33-.29.33.33 0 0 1 .3-.37l8.62-.92a.33.33 0 0 1 .08.65l-8.62.93z" fill="#455a64"/><path d="m75.36 118.23s2.35-4.08 2.41-5.74l-2.59-2.87-1 6.76z" fill="#92e3a9"/><path d="m75.36 118.23s2.35-4.08 2.41-5.74l-2.59-2.87-1 6.76z" fill="#fff" opacity=".3"/><path d="m71.97 116.39-4.47-3.27-3.91 2.43 6.91 3.84z" fill="#92e3a9"/><path d="m71.97 116.39-4.47-3.27-3.91 2.43 6.91 3.84z" fill="#fff" opacity=".3"/><path d="m69.86 151.3c.83-13.74 2.38-26.25 2.25-29.6l2.34-.15c1.48 4.08 6 12.23 7 29.75 0 3.13-3.13 9.85-5.35 9.85s-6.36-7.83-6.24-9.85z" fill="#92e3a9"/><path d="m69.86 151.3c.83-13.74 2.38-26.25 2.25-29.6l2.34-.15c1.48 4.08 6 12.23 7 29.75 0 3.13-3.13 9.85-5.35 9.85s-6.36-7.83-6.24-9.85z" fill="#fff" opacity=".6"/><path d="m74.64 122.05c-.07-.17-.13-.33-.19-.49l-2.34.15v1.05a4.23 4.23 0 0 0 2.53-.71z" fill="#92e3a9" opacity=".5"/><path d="m72 116.39a9.08 9.08 0 0 1 2.21 0 5.3 5.3 0 0 1 1.17 1.84 8.11 8.11 0 0 1 -1 3.32 2.82 2.82 0 0 1 -2.34.15 4.94 4.94 0 0 1 -1.61-2.31 4.4 4.4 0 0 1 1.57-3z" fill="#92e3a9"/><path d="m72 116.39a9.08 9.08 0 0 1 2.21 0 5.3 5.3 0 0 1 1.17 1.84 8.11 8.11 0 0 1 -1 3.32 2.82 2.82 0 0 1 -2.34.15 4.94 4.94 0 0 1 -1.61-2.31 4.4 4.4 0 0 1 1.57-3z" fill="#fff" opacity=".6"/><path d="m42.56 171.66-.32 6s8.53 9 29 7.8 24.35-10.53 24.35-10.53v-5.3z" fill="#92e3a9"/><path d="m42.56 171.66-.32 6s8.53 9 29 7.8 24.35-10.53 24.35-10.53v-5.3z" fill="none" opacity=".2"/><path d="m56.54 106.3a142.77 142.77 0 0 0 18.1 22.9c4.14-13.9.74-19.95-.88-24.56 0 0 6.86.69 9.95 1.43 4.5 1.89 9.61 1.26 11.7 36.92.2 3.43.73 16.86.91 23.08a8.21 8.21 0 0 1 -2 5.78c-3.68 4.16-11.4 8-20.2 9.16-10.11 1.26-24.36-.72-30.38-6.94a6.48 6.48 0 0 1 -1.74-4.51l1.34-19.43-4.2-37.4z" fill="#f1cbb5"/><path d="m75.16 133.89c6.54-8.09 4.75-22.45 1.57-28.89l-3-.36c1.62 4.61 5 10.66.88 24.56a142.77 142.77 0 0 1 -18.1-22.9l-3 1.09c2.54 5.61 13.04 21.47 21.65 26.5z" opacity=".2"/><path d="m72.36 116.35h-.36a15 15 0 0 0 -2.8-2.36c-.65-.32-3.2 4.28-3.67 5.48s-.39 1.18-2 .16a28.45 28.45 0 0 1 -7.54-6.8 16.69 16.69 0 0 1 -2.83-5.33l2-4c1-1.9 1.51-3.58 2.58-3.45l.08 2.12c.24 1.63 2 3.13 4.35 5s6.1 3.66 7 4.47a31.69 31.69 0 0 1 3.19 4.71z" fill="#f5f5f5"/><path d="m80 116.25c-.24.68-2.52-4.47-3.56-4.32-.5 0-1.73 2.89-2.62 4.42h-.17a26 26 0 0 0 1-4.78c.2-1.27-1-7.47-1-7.47v-3.1h.74c.27.26 1.21 1.76 1.49 2.19 1.07 1.63 3.46 5.25 3.86 7.24a17.12 17.12 0 0 1 .26 5.82z" fill="#f5f5f5"/><path d="m55.16 103.57c-.42 2.93 4.13 18 6.83 26s3 20.22 2.83 41.36-.25 22.74-.25 22.74-16.22-1.59-24.7-8.6c0 0 2.09-26.31 2.83-34.17 0 0-5-28.52-5.54-32.08a20.45 20.45 0 0 1 0-6.15s4.54-2.34 9.84-4.67a50.68 50.68 0 0 0 8.16-4.43z" fill="#455a64"/><path d="m76.19 103.79s7.81 1.81 9.81 2.21c1.77.34 6.26 2.88 8.13 14.75s3.16 31.82 3.75 60.64c-2.42 5.06-9.1 8.57-9.1 8.57s-1-51.28-3.71-62.58c-4.21-17.76-8.88-23.59-8.88-23.59z" fill="#455a64"/><path d="m60.45 158c-.67-2.12-1.31-4.24-1.88-6.39s-1-4.32-1.55-6.48-.92-4.23-1.29-6.36c1.3-1.76 2.63-3.51 3.94-5.29l.51-.71-.87.06-5.66.39c-.49-1.92-.89-3.88-1.27-5.83s-.78-4.13-1.14-6.2c-.69-4.15-1.38-8.29-1.8-12.48.06 2.1.27 4.2.48 6.3s.5 4.18.79 6.26.62 4.17 1 6.24.75 4.19 1.27 6.19l.08.3h.32l5.1-.3c-1.17 1.58-2.32 3.16-3.48 4.75l-.1.13v.17c.41 2.2.88 4.37 1.4 6.54s1.1 4.33 1.71 6.47 1.31 4.27 2.09 6.36a62.62 62.62 0 0 0 2.63 6.14c-.83-2.03-1.6-4.11-2.28-6.26z" fill="#37474f"/><path d="m93 132.48v-.2l-.19-.1c-1.38-.77-2.77-1.52-4.17-2.27l3.77-3.33.21-.18-.11-.24c-.74-1.74-1.49-3.49-2.32-5.2s-1.72-3.39-2.67-5a48.47 48.47 0 0 0 -6.66-9.23 58.22 58.22 0 0 1 6.21 9.46q2.57 4.88 4.64 10l-4 3.49-.43.37.5.28 4.46 2.45a49.22 49.22 0 0 1 .19 7.08c-.08 2.44-.29 4.88-.52 7.31s-.61 4.86-1 7.28l-.61 3.62-.69 3.66.89-3.58.78-3.6c.47-2.41.89-4.83 1.2-7.27s.57-4.89.66-7.35a50 50 0 0 0 -.14-7.45z" fill="#37474f"/><path d="m73.94 135c3.09-2.31 4.65-3.2 6.09-3.61s6.5-2.51 8.44-3c1.23-.31 1.73 1.65.16 3a47.28 47.28 0 0 1 -5.72 3.15c-1.38.75-4.07 4-4.07 4z" fill="#f0997a"/><path d="m29 123.11c1.82-7 5.18-9.42 12-11.9 7 6.79 3.91 22.79 3.91 22.79l-3.73 18.34s18.48-5 20.57-6.31 7.7-7.37 9.58-9.18c2.56-2.46 3.83-2.13 5.14-1.93 4.26.64 5.19 1 6.1 1.57a2 2 0 0 1 .82 1.66c1.14.14 2.83.11 3 2a6.19 6.19 0 0 1 .07 1.49 1.27 1.27 0 0 1 .73.42c.94 1.09-.67 4.87-1.7 5.79a3.77 3.77 0 0 1 -3.09.54c-1.15-.15-.62-1.32-.62-1.32l-1.6.09c-3.47 2.47-3.65 7.35-8.23 8.42a31.15 31.15 0 0 0 -5.6 1.09c-9.86 3.31-26 13.36-34.83 14.12-8.58.73-8.34-3.84-8.47-9.1-.05-4.77 4.15-31.61 5.95-38.58z" fill="#ffbda7"/><path d="m83.29 137.4-5-.32 5.06 1a1.94 1.94 0 0 0 -.06-.68zm-2.61 3.4 5.83.76a3.86 3.86 0 0 0 0-.68zm3.43 4.08a19.39 19.39 0 0 1 -2 .14 2.34 2.34 0 0 1 -.72 1.12 14.43 14.43 0 0 1 -1.13.94l1.6-.09a2.5 2.5 0 0 1 1.65-1 1.16 1.16 0 0 1 .79.15 1.88 1.88 0 0 1 .59.63 1.61 1.61 0 0 0 -.51-.76 1.23 1.23 0 0 0 -.6-.23l.33-.72a3.93 3.93 0 0 0 .87-.31 1.92 1.92 0 0 0 .79-.68 2.37 2.37 0 0 1 -.85.54 6.09 6.09 0 0 1 -.81.27z" fill="#f0997a"/><path d="m53.72 148.1 5-1.41a16.12 16.12 0 0 0 -.7 7.23 17.45 17.45 0 0 0 1.89 6l-4.32 2.16s-3.33-3.76-1.87-13.98z" fill="#fafafa"/><path d="m41.54 150.49-.36 1.8c-3.91 1-8.13 3.81-9.07 6 .73-3.44 2.55-5.97 9.43-7.8z" fill="#f0997a"/><path d="m41.54 110.49c-3 1.22-9.51 3.76-11.71 8.43s-2.37 7.28-4.42 18.67-3.61 25.06-2.62 28.89 3.54 6.51 10.34 4.81 24.66-9.35 24.66-9.35a17.92 17.92 0 0 1 -2.43-9.56c.28-5.24 1.2-5.56 1.2-5.56l-14.56 4.28s3-15.65 3.61-18.34 2.93-15.13-4.07-22.27z" fill="#37474f"/><path d="m42 151.1c-6.64 1.9-12.64 3.22-14.22 7.9.93-6.65 8.47-8.81 14.68-10.34z" fill="#263238"/><path d="m133.62 360.72v-9.33l46.57-26.89v9.33z" fill="#92e3a9"/><path d="m133.62 360.72v-9.33l46.57-26.89v9.33z" fill="#fff" opacity=".7"/><path d="m133.62 351.39-40.56-23.41v9.32l40.56 23.42z" fill="#92e3a9"/><path d="m133.62 351.39-40.56-23.41v9.32l40.56 23.42z" fill="#fff" opacity=".5"/><path d="m133.62 351.39-40.56-23.41 49.91-24.97 37.22 21.49z" fill="#92e3a9"/><path d="m133.62 351.39-40.56-23.41 49.91-24.97 37.22 21.49z" fill="#fff" opacity=".85"/><path d="m133.62 347.55 39.92-23.05 4.5-120.23-44.42 25.65z" fill="#92e3a9"/><path d="m133.62 347.55 39.92-23.05 4.5-120.23-44.42 25.65z" fill="#fff" opacity=".7"/><path d="m133.62 347.55-33.9-19.57-4.52-120.24 38.42 22.18z" fill="#92e3a9"/><path d="m133.62 347.55-33.9-19.57-4.52-120.24 38.42 22.18z" fill="#638a66" opacity=".5"/><path d="m177.51 218.34.53-14.07-44.42 25.65-38.42-22.18.53 14.08 37.89 21.87z" fill="#638a66" opacity=".4"/><path d="m141.69 241.74 28.28-16.32-2.68 93.32-25.6 14.82z" fill="#fff" opacity=".55"/><path d="m165.86 232.37-2.5 84.05-17.69 10.25v-82.67l20.19-11.67m1.12-1.79-22.31 12.88v84.93l19.69-11.35 2.64-86.42z" fill="#92e3a9" opacity=".3"/><path d="m130.5 239.29v-12.89l62.38-36.03v12.89z" fill="#92e3a9"/><path d="m130.5 239.29v-12.89l62.38-36.03v12.89z" fill="#fff" opacity=".7"/><path d="m130.5 226.4-43.69-19.17v6.84l43.69 25.22z" fill="#92e3a9"/><path d="m130.5 226.4-43.69-19.17v6.84l43.69 25.22z" fill="#fff" opacity=".5"/><path d="m130.5 226.4-43.69-19.17 62.41-36.02 43.66 19.16z" fill="#92e3a9"/><path d="m130.5 226.4-43.69-19.17 62.41-36.02 43.66 19.16z" fill="#fff" opacity=".85"/><path d="m172.53 186.66a14.72 14.72 0 0 0 -13.31 0c-1.84 1.06-2.75 2.45-2.75 3.84v1.44c0 1.39.91 2.78 2.75 3.84a14.66 14.66 0 0 0 13.31 0c1.83-1.06 2.75-2.45 2.75-3.84v-1.44c0-1.39-.92-2.77-2.75-3.84z" fill="#263238"/><ellipse cx="165.86" cy="190.5" fill="#455a64" rx="9.41" ry="5.43"/><path d="m171.36 184.87a12.18 12.18 0 0 0 -11 0 3.83 3.83 0 0 0 -2.27 3.18v2.12a3.83 3.83 0 0 0 2.27 3.17 12.12 12.12 0 0 0 11 0 3.9 3.9 0 0 0 2.28-3.17v-2.12a3.88 3.88 0 0 0 -2.28-3.18z" fill="#37474f"/><path d="m160.36 184.87c-3 1.76-3 4.6 0 6.35a12.18 12.18 0 0 0 11 0c3-1.75 3-4.59 0-6.35a12.18 12.18 0 0 0 -11 0z" fill="#455a64"/><path d="m102.77 382.4 5.86-63.25-77.51-44.59-2.9 1.68-5.86 63.24 77.51 44.59z" fill="#e0e0e0"/><path d="m96.14 372.56-64.75-37.05 4.6-49.67 64.76 37.09z" fill="#f5f5f5"/><path d="m95.77 376.61.37-4.05-64.75-37.05-4.05 1.86z" fill="#263238"/><path d="m36.01 285.82-4.62 49.69-4.05 1.86 4.96-53.67z" fill="#37474f"/><path d="m72.06 306.49-4.61 49.69-4.05 1.87 4.98-53.68z" fill="#37474f"/><path d="m105.73 320.83-77.51-44.59-5.86 63.24 77.51 44.59zm-10 55.78-32.37-18.56 5-53.67 32.37 18.55zm-63.37-92.88 32.37 18.56-5 53.67-32.37-18.59z" fill="#455a64"/><path d="m108.63 319.15-2.91 1.68-77.51-44.6 2.9-1.67z" fill="#f5f5f5"/><path d="m104.48 320.11c.81 1.3.49 2.51-.87 2.51h-.41c-1.63 0-1.78 1.7-.31 3.25l.38.39c1.47 1.54 1.3 3.25-.31 3.25h-.41c-1.62 0-1.78 1.7-.3 3.25l.37.39c1.47 1.55 1.31 3.25-.3 3.25h-.41c-1.62 0-1.77 1.71-.3 3.25l.37.39c1.47 1.55 1.32 3.25-.3 3.25h-.41c-1.62 0-1.77 1.71-.3 3.25l.37.39c1.48 1.55 1.32 3.25-.3 3.25h-.41c-1.61 0-1.77 1.71-.3 3.25l.38.4c1.47 1.54 1.31 3.24-.31 3.24h-.4c-1.61 0-1.77 1.71-.3 3.25l.38.4c1.47 1.54 1.31 3.24-.3 3.25h-.41c-1.61 0-1.77 1.7-.3 3.24l.37.4c1.48 1.54 1.31 3.25-.3 3.25h-.41c-1.62 0-1.78 1.7-.31 3.25l.38.39c1.47 1.54 1.31 3.25-.3 3.25h-.41c-1.62 0-1.78 1.7-.3 3.25l.37.39a2.9 2.9 0 0 1 1 2.27l.71.41 5.86-63.24z" fill="#f0f0f0"/><path d="m22.36 339.48 22.15 12.74 55.36 31.85.09-1a3.51 3.51 0 0 1 -.49-.8l-.21-.44c-.79-1.72-3-3-4.14-2.38l-.3.15c-1.17.59-3.35-.66-4.14-2.39l-.2-.44c-.8-1.72-3-3-4.14-2.38l-.3.15c-1.18.59-3.35-.66-4.15-2.38l-.2-.44c-.79-1.72-3-3-4.14-2.38l-.3.15c-1.18.59-3.35-.66-4.14-2.39l-.2-.44c-.8-1.72-3-3-4.15-2.38l-.3.15c-1.17.59-3.34-.66-4.14-2.38l-.2-.44c-.79-1.73-3-3-4.14-2.38l-.3.15c-1.18.59-3.35-.66-4.14-2.39l-.2-.44c-.8-1.72-3-3-4.15-2.38l-.3.15c-1.17.59-3.34-.66-4.14-2.38l-.2-.44c-.8-1.73-3-3-4.14-2.39l-.3.15c-1.18.59-3.35-.65-4.14-2.38l-.21-.44c-.79-1.72-3-3-4.14-2.38l-.3.15c-1.17.59-3.35-.66-4.14-2.38l-.2-.44c-.8-1.73-3-3-4.14-2.39l-.3.15a2.4 2.4 0 0 1 -2.13-.27z" fill="#f0f0f0"/><path d="m28.17 276.79a4.93 4.93 0 0 1 1.92 2l.2.44c.8 1.73 3 3 4.14 2.38l.3-.15c1.18-.59 3.35.66 4.15 2.39l.2.44c.79 1.72 3 3 4.14 2.38l.3-.15c1.18-.59 3.35.66 4.14 2.38l.2.44c.8 1.73 3 3 4.15 2.38l.29-.15c1.18-.59 3.35.66 4.15 2.39l.2.44c.79 1.72 3 3 4.14 2.38l.3-.15c1.18-.59 3.35.66 4.14 2.38l.21.44c.79 1.72 3 3 4.14 2.38l.3-.15c1.17-.59 3.34.66 4.14 2.39l.2.44c.8 1.72 3 3 4.14 2.38l.3-.15c1.18-.59 3.35.66 4.15 2.38l.2.44c.79 1.72 3 3 4.14 2.38l.3-.15c1.17-.59 3.35.66 4.14 2.39l.2.44c.8 1.72 3 3 4.15 2.38l.3-.15c1.17-.59 3.34.66 4.14 2.38l.2.44c.79 1.72 3 3 4.14 2.38l.3-.15a1.44 1.44 0 0 1 .62-.14l.09-1-77.51-44.52z" fill="#f0f0f0"/><path d="m23.07 339.88a1.16 1.16 0 0 1 1.16-1.16h.54c1.62 0 1.77-1.7.3-3.25l-.37-.39c-1.47-1.54-1.32-3.25.3-3.25h.41c1.62 0 1.77-1.7.3-3.25l-.35-.36c-1.48-1.54-1.32-3.25.3-3.25h.41c1.61 0 1.77-1.7.3-3.25l-.38-.39c-1.47-1.55-1.31-3.25.31-3.25h.41c1.61 0 1.77-1.7.3-3.25l-.38-.39c-1.47-1.55-1.31-3.25.3-3.25h.43c1.61 0 1.77-1.71.3-3.25l-.38-.39c-1.47-1.55-1.31-3.25.3-3.25h.42c1.62 0 1.78-1.71.3-3.25l-.37-.39c-1.47-1.55-1.31-3.25.3-3.25h.41c1.62 0 1.78-1.71.3-3.25l-.37-.4c-1.47-1.54-1.32-3.24.3-3.24h.41c1.62 0 1.77-1.7.3-3.24l-.37-.4c-1.47-1.54-1.32-3.25.3-3.25h.41c1.61 0 1.77-1.7.29-3.25l-.36-.39c-1.21-1.26-1.32-2.62-.44-3.08l-1.17-.67-5.87 63.23.63.36z" fill="#f0f0f0"/><g fill="#455a64"><path d="m24.46 337.59a.87.87 0 0 1 -.55-.74c0-.24.3-.31.63-.15a1 1 0 0 1 .55.74c-.03.29-.31.29-.63.15z"/><path d="m25.1 330.73c-.33-.17-.58-.5-.55-.74s.3-.31.63-.15a.93.93 0 0 1 .55.74c-.03.2-.31.27-.63.15z"/><path d="m25.74 323.79c-.33-.17-.58-.5-.55-.74s.3-.31.63-.15a.93.93 0 0 1 .55.74c-.01.24-.31.36-.63.15z"/><path d="m26.36 316.88c-.33-.16-.58-.49-.55-.73s.3-.31.63-.15a.93.93 0 0 1 .55.74c.01.26-.29.31-.63.14z"/><path d="m27 310c-.33-.16-.58-.49-.55-.73s.3-.32.63-.15a1 1 0 0 1 .55.73c-.01.23-.27.3-.63.15z"/><path d="m27.66 303.08a.87.87 0 0 1 -.55-.74c0-.24.3-.31.63-.14a1 1 0 0 1 .55.73c-.03.25-.29.31-.63.15z"/><path d="m28.3 296.18a.87.87 0 0 1 -.55-.74c0-.24.3-.31.63-.15a1 1 0 0 1 .55.74c-.03.25-.31.31-.63.15z"/><path d="m28.94 289.28a.89.89 0 0 1 -.55-.74c0-.24.3-.31.63-.15a1 1 0 0 1 .55.74c-.03.24-.31.31-.63.15z"/><path d="m29.58 282.38c-.33-.17-.58-.5-.55-.74s.3-.31.63-.15a.93.93 0 0 1 .55.74c-.03.24-.31.31-.63.15z"/><path d="m98.36 379.86a.87.87 0 0 1 -.55-.74c0-.24.3-.31.62-.14a.94.94 0 0 1 .56.73c-.07.29-.35.29-.63.15z"/><path d="m99 373a.87.87 0 0 1 -.55-.74c0-.24.3-.31.62-.15a1 1 0 0 1 .56.74c-.07.21-.35.27-.63.15z"/><path d="m99.6 366.06a.87.87 0 0 1 -.55-.74c0-.24.3-.31.62-.15a1 1 0 0 1 .56.74c-.03.25-.31.31-.63.15z"/><path d="m100.24 359.16a.94.94 0 0 1 -.56-.74c0-.24.31-.31.63-.15a.89.89 0 0 1 .55.74c-.02.24-.3.31-.62.15z"/><path d="m100.87 352.26c-.32-.17-.57-.5-.54-.74s.3-.31.63-.15a.93.93 0 0 1 .55.74c-.03.24-.31.31-.64.15z"/><path d="m101.51 345.35a.89.89 0 0 1 -.54-.73c0-.25.3-.31.63-.15a.93.93 0 0 1 .55.74c-.03.24-.31.31-.64.14z"/><path d="m102.15 338.45a.87.87 0 0 1 -.54-.74c0-.24.3-.31.63-.14a1 1 0 0 1 .55.73c-.03.25-.31.32-.64.15z"/><path d="m102.79 331.55a.87.87 0 0 1 -.54-.74c0-.24.3-.31.63-.15a1 1 0 0 1 .55.74c-.07.25-.31.33-.64.15z"/><path d="m103.43 324.65a.87.87 0 0 1 -.54-.74c0-.24.3-.31.63-.15a1 1 0 0 1 .55.74c-.07.23-.31.31-.64.15z"/><path d="m102.83 321.08a1 1 0 0 1 -.55-.74c0-.25.31-.31.64-.15a.9.9 0 0 1 .54.74c-.02.24-.3.31-.63.15z"/><path d="m94.05 316a.9.9 0 0 1 -.55-.74c0-.24.31-.31.63-.14s.58.49.55.73-.32.34-.63.15z"/><path d="m85.27 311a1 1 0 0 1 -.55-.74c0-.25.31-.31.63-.15a.91.91 0 0 1 .55.74c-.02.23-.3.3-.63.15z"/><path d="m76.49 305.94a.92.92 0 0 1 -.56-.73c0-.25.31-.32.63-.15a.86.86 0 0 1 .55.73c-.01.21-.29.32-.62.15z"/><path d="m67.71 300.9a.89.89 0 0 1 -.55-.74c0-.24.3-.31.62-.15a.92.92 0 0 1 .58.72c0 .27-.36.33-.65.17z"/><path d="m58.93 295.85a.89.89 0 0 1 -.55-.73c0-.25.3-.31.62-.15a.9.9 0 0 1 .56.74c-.02.29-.31.29-.63.14z"/><path d="m50.15 290.81a.89.89 0 0 1 -.55-.74c0-.24.3-.31.63-.15a1 1 0 0 1 .55.74c-.02.25-.31.34-.63.15z"/><path d="m41.36 285.73c-.33-.17-.58-.5-.55-.74s.3-.31.63-.15a.93.93 0 0 1 .55.74c.01.28-.3.35-.63.15z"/><path d="m32.59 280.73a.87.87 0 0 1 -.59-.73c0-.24.3-.31.63-.14a1 1 0 0 1 .55.73c.01.23-.27.29-.59.14z"/><path d="m97 381.44a.89.89 0 0 1 -.55-.73c0-.25.3-.31.62-.15a.9.9 0 0 1 .56.74c-.06.24-.35.31-.63.14z"/><path d="m88.18 376.4a.89.89 0 0 1 -.55-.74c0-.24.3-.31.62-.15a.92.92 0 0 1 .56.74c-.02.25-.31.31-.63.15z"/><path d="m79.36 371.36a.9.9 0 0 1 -.55-.74c0-.25.3-.31.62-.15a.92.92 0 0 1 .56.74c.01.24-.27.31-.63.15z"/><path d="m70.62 366.31a.87.87 0 0 1 -.55-.74c0-.24.3-.31.63-.14a1 1 0 0 1 .55.73c-.03.25-.31.31-.63.15z"/><path d="m61.83 361.27c-.32-.17-.57-.5-.54-.74s.3-.31.63-.15a.9.9 0 0 1 .54.74c-.02.24-.3.31-.63.15z"/><path d="m53.05 356.22a.9.9 0 0 1 -.55-.74c0-.24.31-.31.64-.14a.9.9 0 0 1 .54.73c-.02.25-.32.32-.63.15z"/><path d="m44.27 351.18a.9.9 0 0 1 -.55-.74c0-.24.31-.31.63-.15s.58.5.55.74-.3.31-.63.15z"/><path d="m35.49 346.13a.93.93 0 0 1 -.55-.73c0-.25.31-.31.63-.15a.91.91 0 0 1 .55.74c-.02.24-.3.31-.63.14z"/><path d="m26.71 341.09a.89.89 0 0 1 -.55-.74c0-.24.31-.31.63-.15a.93.93 0 0 1 .55.74c.02.25-.34.31-.63.15z"/></g><path d="m71.16 358.26 4.59-49.66-3.69-2.12-4.59 49.67z" fill="#e0e0e0"/><path d="m35.09 337.62 4.6-49.66-3.7-2.12-4.6 49.67z" fill="#e0e0e0"/><path d="m94.06 387.42 5.87-63.24-77.51-44.59-2.9 1.67-5.86 63.24 77.5 44.6z" fill="#e0e0e0"/><path d="m87.44 377.59-64.74-37.06 4.6-49.67 64.73 37.1z" fill="#f5f5f5"/><path d="m87.06 381.63.38-4.04-64.74-37.06-4.06 1.87z" fill="#263238"/><path d="m27.3 290.84-4.6 49.69-4.06 1.87 4.97-53.67z" fill="#37474f"/><path d="m63.37 311.52-4.61 49.69-4.06 1.86 4.96-53.67z" fill="#37474f"/><path d="m97 325.85-77.48-44.59-5.86 63.24 77.5 44.6zm-10 55.78-32.3-18.56 5-53.67 32.36 18.6zm-63.42-92.9 32.42 18.55-5 53.72-32.36-18.6z" fill="#455a64"/><path d="m99.92 324.18-2.89 1.67-77.51-44.59 2.89-1.67z" fill="#f5f5f5"/><path d="m95.78 325.13c.8 1.31.48 2.51-.88 2.51h-.41c-1.61 0-1.77 1.71-.31 3.25l.38.4c1.47 1.54 1.31 3.24-.31 3.24h-.41c-1.61 0-1.77 1.71-.3 3.25l.38.4c1.47 1.54 1.31 3.24-.3 3.25h-.42c-1.61 0-1.77 1.7-.3 3.24l.38.4c1.47 1.54 1.31 3.25-.3 3.25h-.41c-1.62 0-1.78 1.7-.3 3.25l.37.39c1.47 1.54 1.31 3.25-.3 3.25h-.41c-1.62 0-1.78 1.7-.3 3.25l.37.39c1.47 1.54 1.32 3.25-.3 3.25h-.41c-1.62 0-1.77 1.7-.3 3.25l.37.39c1.48 1.55 1.32 3.25-.3 3.25h-.4c-1.61 0-1.77 1.71-.3 3.25l.37.39c1.48 1.55 1.32 3.25-.3 3.25h-.43c-1.61 0-1.77 1.71-.31 3.25l.38.39c1.47 1.55 1.31 3.25-.31 3.25h-.42c-1.61 0-1.77 1.71-.3 3.25l.37.4a3 3 0 0 1 1 2.27l.7.41 5.89-63.25z" fill="#f0f0f0"/><path d="m13.66 344.5 22.15 12.75 55.35 31.85.09-1a3.91 3.91 0 0 1 -.49-.8l-.2-.44c-.8-1.72-3-3-4.14-2.38l-.3.15c-1.18.59-3.35-.66-4.14-2.38l-.21-.44c-.79-1.72-3-3-4.14-2.38l-.3.15c-1.17.59-3.35-.66-4.14-2.39l-.2-.44c-.8-1.72-3-3-4.14-2.38l-.3.15c-1.18.59-3.35-.66-4.15-2.38l-.2-.44c-.79-1.73-3-3-4.14-2.38l-.3.15c-1.17.59-3.35-.66-4.14-2.39l-.2-.44c-.8-1.72-3-3-4.15-2.38l-.29.15c-1.18.59-3.35-.66-4.15-2.38l-.2-.44c-.79-1.73-3-3-4.14-2.39l-.3.15c-1.18.6-3.35-.65-4.14-2.38l-.2-.44c-.8-1.72-3-3-4.15-2.38l-.3.15c-1.17.59-3.34-.66-4.14-2.38l-.2-.44c-.79-1.73-3-3-4.14-2.39l-.3.15c-1.18.59-3.35-.65-4.14-2.38l-.21-.44c-.79-1.72-3-3-4.14-2.38l-.3.15a2.41 2.41 0 0 1 -2.12-.28z" fill="#f0f0f0"/><path d="m19.47 281.82a4.86 4.86 0 0 1 1.89 2.05l.2.44c.79 1.72 3 3 4.14 2.38l.3-.15c1.18-.59 3.35.66 4.14 2.38l.2.44c.8 1.73 3 3 4.15 2.38l.3-.15c1.17-.59 3.34.66 4.14 2.39l.2.44c.79 1.72 3 3 4.14 2.38l.3-.15c1.18-.59 3.35.66 4.14 2.38l.21.44c.79 1.73 3 3 4.14 2.38l.3-.12c1.17-.59 3.35.66 4.14 2.39l.2.44c.8 1.72 3 3 4.14 2.38l.3-.15c1.18-.59 3.35.66 4.15 2.38l.2.44c.79 1.72 3 3 4.14 2.38l.3-.15c1.18-.59 3.35.66 4.14 2.39l.2.44c.8 1.72 3 3 4.15 2.38l.3-.15c1.17-.59 3.34.66 4.14 2.38l.2.44c.79 1.72 3 3 4.14 2.38l.3-.15c1.18-.59 3.35.66 4.14 2.39l.21.44c.79 1.72 3 3 4.14 2.38l.3-.15a1.25 1.25 0 0 1 .61-.14l.1-1-77.48-44.61z" fill="#f0f0f0"/><path d="m14.36 344.91a1.15 1.15 0 0 1 1.18-1.13h.55c1.61 0 1.77-1.71.3-3.25l-.38-.39c-1.47-1.55-1.31-3.25.31-3.25h.41c1.61 0 1.77-1.71.3-3.25l-.38-.39c-1.47-1.55-1.31-3.25.3-3.25h.41c1.62 0 1.78-1.71.31-3.25l-.38-.4c-1.47-1.54-1.31-3.24.3-3.25h.41c1.62 0 1.78-1.7.3-3.24l-.37-.4c-1.47-1.54-1.31-3.25.3-3.25h.41c1.62 0 1.77-1.7.3-3.25l-.37-.39c-1.47-1.54-1.32-3.25.29-3.25h.41c1.63 0 1.78-1.7.3-3.25l-.37-.39c-1.48-1.54-1.32-3.25.3-3.25h.41c1.61 0 1.77-1.7.3-3.25l-.37-.39c-1.48-1.55-1.32-3.25.3-3.25h.41c1.61 0 1.77-1.7.3-3.25l-.38-.39c-1.47-1.55-1.31-3.25.3-3.25h.42c1.61 0 1.77-1.71.3-3.25l-.38-.39c-1.2-1.26-1.31-2.63-.44-3.09l-1.16-.67-5.85 63.25.63.37z" fill="#f0f0f0"/><path d="m15.75 342.61a.93.93 0 0 1 -.55-.73c0-.25.31-.31.63-.15a.89.89 0 0 1 .55.74c-.02.26-.3.31-.63.14z" fill="#455a64"/><path d="m16.36 335.73a.9.9 0 0 1 -.55-.74c0-.24.31-.31.63-.14s.58.49.55.73-.27.3-.63.15z" fill="#455a64"/><path d="m17 328.81a.9.9 0 0 1 -.55-.74c0-.24.31-.31.63-.14s.58.49.55.73-.27.34-.63.15z" fill="#455a64"/><path d="m17.67 321.91a.9.9 0 0 1 -.55-.74c0-.24.31-.31.63-.15s.58.5.55.74-.3.31-.63.15z" fill="#455a64"/><path d="m18.36 315a1 1 0 0 1 -.55-.74c0-.24.31-.31.63-.15a.91.91 0 0 1 .55.74c-.07.25-.35.32-.63.15z" fill="#455a64"/><path d="m19 308.11a1 1 0 0 1 -.55-.74c0-.25.31-.31.63-.15a.89.89 0 0 1 .55.74c-.07.24-.35.31-.63.15z" fill="#455a64"/><path d="m19.59 301.2a.93.93 0 0 1 -.55-.73c0-.25.31-.31.63-.15a.89.89 0 0 1 .55.74c-.02.24-.3.31-.63.14z" fill="#455a64"/><path d="m20.23 294.3a.93.93 0 0 1 -.55-.73c0-.25.31-.32.63-.15a.89.89 0 0 1 .55.74c-.02.24-.3.31-.63.14z" fill="#455a64"/><path d="m20.87 287.4a.9.9 0 0 1 -.55-.74c0-.24.31-.31.63-.14s.58.49.55.73-.3.31-.63.15z" fill="#455a64"/><path d="m89.61 384.89a1 1 0 0 1 -.55-.74c0-.25.3-.31.62-.15a.9.9 0 0 1 .56.74c-.02.26-.3.31-.63.15z" fill="#455a64"/><path d="m90.25 378a1 1 0 0 1 -.55-.74c0-.25.3-.31.62-.15a.89.89 0 0 1 .56.74c-.02.23-.3.3-.63.15z" fill="#455a64"/><path d="m90.89 371.08a.93.93 0 0 1 -.55-.73c0-.25.3-.31.62-.15a.9.9 0 0 1 .56.74c-.02.24-.3.31-.63.14z" fill="#455a64"/><path d="m91.53 364.18a.9.9 0 0 1 -.55-.74c0-.24.3-.31.62-.14a.89.89 0 0 1 .56.73c-.02.25-.3.31-.63.15z" fill="#455a64"/><path d="m92.17 357.28a.93.93 0 0 1 -.56-.74c0-.24.31-.31.63-.15a.92.92 0 0 1 .56.74c-.02.25-.3.31-.63.15z" fill="#455a64"/><path d="m92.81 350.38a.93.93 0 0 1 -.56-.74c0-.24.31-.31.63-.15a.89.89 0 0 1 .55.74c-.01.25-.29.31-.62.15z" fill="#455a64"/><path d="m93.45 343.48a1 1 0 0 1 -.56-.74c0-.24.31-.31.63-.15a.88.88 0 0 1 .55.74c-.01.24-.29.31-.62.15z" fill="#455a64"/><path d="m94.09 336.58a1 1 0 0 1 -.55-.74c0-.25.31-.31.63-.15a.91.91 0 0 1 .55.74c-.02.24-.3.3-.63.15z" fill="#455a64"/><path d="m94.73 329.67a.93.93 0 0 1 -.55-.73c0-.25.31-.31.63-.15a.91.91 0 0 1 .55.74c0 .2-.3.31-.63.14z" fill="#455a64"/><path d="m94.13 326.1a.92.92 0 0 1 -.56-.74c0-.24.31-.31.63-.15a.89.89 0 0 1 .55.74c-.01.25-.29.31-.62.15z" fill="#455a64"/><path d="m85.36 321.06a.9.9 0 0 1 -.55-.74c0-.25.3-.31.62-.15a.9.9 0 0 1 .56.74c.01.24-.32.31-.63.15z" fill="#455a64"/><path d="m76.57 316a.89.89 0 0 1 -.55-.74c0-.24.3-.31.62-.14a.89.89 0 0 1 .56.73c-.02.26-.31.32-.63.15z" fill="#455a64"/><path d="m67.79 311a.9.9 0 0 1 -.55-.74c0-.24.3-.31.62-.15a.92.92 0 0 1 .56.74c-.06.21-.31.28-.63.15z" fill="#455a64"/><path d="m59 305.92c-.33-.16-.58-.49-.55-.73s.3-.31.63-.15a.93.93 0 0 1 .55.74c-.02.22-.27.31-.63.14z" fill="#455a64"/><path d="m50.22 300.88a.87.87 0 0 1 -.54-.74c0-.24.3-.31.63-.15a1 1 0 0 1 .55.74c-.03.27-.31.27-.64.15z" fill="#455a64"/><path d="m41.44 295.83a.93.93 0 0 1 -.55-.73c0-.25.31-.31.64-.15a.9.9 0 0 1 .54.74c-.02.24-.3.31-.63.14z" fill="#455a64"/><path d="m32.66 290.79a.9.9 0 0 1 -.55-.74c0-.24.31-.31.63-.14s.58.49.55.73-.29.36-.63.15z" fill="#455a64"/><path d="m23.88 285.73a1 1 0 0 1 -.55-.74c0-.25.31-.31.63-.15a.91.91 0 0 1 .55.74c-.02.26-.3.33-.63.15z" fill="#455a64"/><path d="m88.25 386.47a.87.87 0 0 1 -.54-.74c0-.24.3-.31.63-.15a1 1 0 0 1 .55.74c-.03.25-.31.31-.64.15z" fill="#455a64"/><path d="m79.47 381.42a.89.89 0 0 1 -.54-.73c0-.25.3-.31.63-.15a.9.9 0 0 1 .54.74c-.02.24-.3.31-.63.14z" fill="#455a64"/><path d="m70.69 376.38a.9.9 0 0 1 -.55-.74c0-.24.31-.31.63-.15s.58.5.55.74-.32.31-.63.15z" fill="#455a64"/><path d="m61.91 371.34a1 1 0 0 1 -.55-.74c0-.25.31-.31.63-.15a.91.91 0 0 1 .55.74c-.02.24-.3.31-.63.15z" fill="#455a64"/><path d="m53.13 366.29a.89.89 0 0 1 -.55-.74c0-.24.31-.31.63-.14a.9.9 0 0 1 .55.73c-.02.25-.3.31-.63.15z" fill="#455a64"/><path d="m44.36 361.25a.9.9 0 0 1 -.55-.74c0-.24.31-.31.63-.15a.91.91 0 0 1 .55.74c.01.24-.31.31-.63.15z" fill="#455a64"/><path d="m35.57 356.2a.89.89 0 0 1 -.55-.73c0-.25.3-.32.63-.15a.91.91 0 0 1 .55.74c-.02.24-.31.31-.63.14z" fill="#455a64"/><path d="m26.79 351.16a.89.89 0 0 1 -.55-.74c0-.24.3-.31.63-.15a.93.93 0 0 1 .55.74c-.06.25-.31.31-.63.15z" fill="#455a64"/><path d="m18 346.11c-.33-.16-.58-.49-.55-.73s.3-.31.63-.15a.93.93 0 0 1 .55.74c-.02.24-.27.31-.63.14z" fill="#455a64"/><path d="m62.45 363.29 4.61-49.67-3.71-2.12-4.59 49.67z" fill="#e0e0e0"/><path d="m26.39 342.65 4.59-49.67-3.68-2.12-4.6 49.67z" fill="#e0e0e0"/><path d="m407.23 386.14c-8.93-9.21-14.17-34.85-5.46-42.15h44.28c8.7 7.3 3.45 32.93-5.46 42.14l-.25.25-.31.31c-.1.1-.51.48-.79.72l-.22.17a7.53 7.53 0 0 1 -.68.51 12.45 12.45 0 0 1 -1.14.75c-7.34 4.28-19.24 4.28-26.58 0a12.76 12.76 0 0 1 -1.16-.75l-.63-.48-.27-.21c-.28-.23-.54-.46-.78-.7l-.35-.35z" fill="#37474f"/><path d="m442.2 341.05c10.1 5.9 10.1 15.46 0 21.36s-26.49 5.9-36.58 0-10.11-15.46 0-21.36 26.47-5.9 36.58 0z" fill="#455a64"/><path d="m437.36 343.89c7.42 4.33 7.42 11.35 0 15.69s-19.46 4.33-26.86 0-7.42-11.36 0-15.69 19.42-4.33 26.86 0z" fill="#263238"/><path d="m410.48 351.33c7.41-4.33 19.44-4.33 26.85 0a12.47 12.47 0 0 1 4.45 4.12 12.42 12.42 0 0 1 -4.45 4.13c-7.42 4.33-19.45 4.33-26.85 0a12.45 12.45 0 0 1 -4.46-4.13 12.42 12.42 0 0 1 4.46-4.12z" fill="#fafafa"/><path d="m436.64 292.4-11.59 9.93 11.35-5.78a31.86 31.86 0 0 1 -1.59 11 71.05 71.05 0 0 0 -8.75 6.72l8.74-3.84s.82 5.82-1.27 14.82c-.54 2.36-3 6.91-4.51 10.3a38.69 38.69 0 0 1 -2.4 4.55c-.05.09-.11.18-.17.27q-3.1-1.62-6.45-3.12c-1.54-2.94-3.69-10.27-4.58-16.3-3.46-23.09 13.57-37.06 27.5-42.07a41.73 41.73 0 0 0 -6.28 13.52z" fill="#92e3a9"/><path d="m436.64 292.4-11.59 9.93 11.35-5.78a31.86 31.86 0 0 1 -1.59 11 71.05 71.05 0 0 0 -8.75 6.72l8.74-3.84s.82 5.82-1.27 14.82c-.54 2.36-3 6.91-4.51 10.3a38.69 38.69 0 0 1 -2.4 4.55c-.05.09-.11.18-.17.27q-3.1-1.62-6.45-3.12c-1.54-2.94-3.69-10.27-4.58-16.3-3.46-23.09 13.57-37.06 27.5-42.07a41.73 41.73 0 0 0 -6.28 13.52z" fill="#fff" opacity=".45"/><path d="m426.68 293.73a23.07 23.07 0 0 0 -4.35 9.1 49.41 49.41 0 0 0 -1.62 10.17 46 46 0 0 0 3.13 20 .36.36 0 0 1 -.17.44.32.32 0 0 1 -.42-.18 46.53 46.53 0 0 1 -2.83-20.33 50.33 50.33 0 0 1 1.8-10.15 23.29 23.29 0 0 1 4.46-9.05z"/><path d="m382.87 307.34a186.08 186.08 0 0 1 12.94 18.66l12.86 2.28-9.54 1.47 5 8.09 12.62 2.86-9.94 1.41s2.58 9.61 9.61 13.73c3.86 2.27 5.57 2.35 7 1.55 1.7-1 2.57-3.7 3.32-7.78s-.53-12.37-4.29-20.47a24.94 24.94 0 0 0 -3.95-6c-9.22-10.48-26.85-15.77-35.63-15.8z" fill="#92e3a9"/><path d="m382.87 307.34a186.08 186.08 0 0 1 12.94 18.66l12.86 2.28-9.54 1.47 5 8.09 12.62 2.86-9.94 1.41s2.58 9.61 9.61 13.73c3.86 2.27 5.57 2.35 7 1.55 1.7-1 2.57-3.7 3.32-7.78s-.53-12.37-4.29-20.47a24.94 24.94 0 0 0 -3.95-6c-9.22-10.48-26.85-15.77-35.63-15.8z" fill="#fff" opacity=".65"/><path d="m396.28 311.73a52.24 52.24 0 0 1 17.72 12.56 34.62 34.62 0 0 1 6 9.13 32.14 32.14 0 0 1 2.61 10.52 42 42 0 0 0 -3.24-10.21 39.54 39.54 0 0 0 -5.77-9 53.37 53.37 0 0 0 -17.31-12.87"/><path d="m467.83 305.44a30.6 30.6 0 0 0 -3.83.18 60.93 60.93 0 0 0 -14.64 3.56q-2.62 1-5.24 2.22c-.85.41-1.7.84-2.56 1.3a42.19 42.19 0 0 0 -11.2 8.48 26.44 26.44 0 0 0 -3.86 5.42c-.14.25-.29.5-.41.76-.32.66-.61 1.32-.89 2a36.34 36.34 0 0 0 -3.3 18c.15 4.37 1.64 9.35 2.49 10.17a1.59 1.59 0 0 0 .38.29c1.23.79 3.22.33 6.92-1.74 7.41-4.15 10.32-14.65 10.32-14.65l-10.3-1.75 13.23-2.68 5.37-8.38-9.89-1.8 13.44-2.06a199.13 199.13 0 0 1 13.95-19.33z" fill="#92e3a9"/><path d="m467.83 305.44a30.6 30.6 0 0 0 -3.83.18 60.93 60.93 0 0 0 -14.64 3.56q-2.62 1-5.24 2.22c-.85.41-1.7.84-2.56 1.3a42.19 42.19 0 0 0 -11.2 8.48 26.44 26.44 0 0 0 -3.86 5.42c-.14.25-.29.5-.41.76-.32.66-.61 1.32-.89 2a36.34 36.34 0 0 0 -3.3 18c.15 4.37 1.64 9.35 2.49 10.17a1.59 1.59 0 0 0 .38.29c1.23.79 3.22.33 6.92-1.74 7.41-4.15 10.32-14.65 10.32-14.65l-10.3-1.75 13.23-2.68 5.37-8.38-9.89-1.8 13.44-2.06a199.13 199.13 0 0 1 13.95-19.33z" fill="#fff" opacity=".65"/><path d="m464 305.62a60.93 60.93 0 0 0 -14.64 3.56q-2.62 1-5.24 2.22c-.85.41-1.7.84-2.56 1.3a42.19 42.19 0 0 0 -11.2 8.48 26.44 26.44 0 0 0 -3.86 5.42c-.14.25-.29.5-.41.76-.32.66-.61 1.32-.89 2a36.34 36.34 0 0 0 -3.3 18c.15 4.37 1.64 9.35 2.49 10.17a1.59 1.59 0 0 0 .38.29 2.26 2.26 0 0 0 .81.3c-.91-6.77 2.42-23.93 7.45-31 5.24-7.34 17.68-18 34.77-21.66a32.29 32.29 0 0 0 -3.8.16z" fill="#92e3a9"/><path d="m464 305.62a60.93 60.93 0 0 0 -14.64 3.56q-2.62 1-5.24 2.22c-.85.41-1.7.84-2.56 1.3a42.19 42.19 0 0 0 -11.2 8.48 26.44 26.44 0 0 0 -3.86 5.42c-.14.25-.29.5-.41.76-.32.66-.61 1.32-.89 2a36.34 36.34 0 0 0 -3.3 18c.15 4.37 1.64 9.35 2.49 10.17a1.59 1.59 0 0 0 .38.29 2.26 2.26 0 0 0 .81.3c-.91-6.77 2.42-23.93 7.45-31 5.24-7.34 17.68-18 34.77-21.66a32.29 32.29 0 0 0 -3.8.16z" fill="#c0e1d9" opacity=".25"/><path d="m425.53 358.11a59 59 0 0 1 1-15 48.68 48.68 0 0 1 5-14.19 42.37 42.37 0 0 1 10-11.22 56.28 56.28 0 0 1 12.9-7.72m0 .07a74.44 74.44 0 0 0 -12.39 8.3 56.7 56.7 0 0 0 -5.45 5.07 33.92 33.92 0 0 0 -4.55 5.84 48.13 48.13 0 0 0 -5.14 13.94 58.5 58.5 0 0 0 -1.3 14.87z"/><path d="m111.06 30.06a22.87 22.87 0 0 0 -9.76 13.72l-.49 2.58a22.91 22.91 0 0 0 44.67 9.49l.61-2.55a22.9 22.9 0 0 0 -35-23.24z" fill="#fff"/><path d="m110 28.43a24.88 24.88 0 0 0 -9.27 30.73l-4.52 6.27a1.42 1.42 0 0 0 .29 2 1.43 1.43 0 0 0 1.17.25l7.57-1.58a24.86 24.86 0 1 0 4.76-37.67zm32.75 8.37a22.79 22.79 0 0 1 3.34 16.5l-.61 2.55a22.91 22.91 0 0 1 -44.67-9.49l.49-2.58a22.9 22.9 0 0 1 41.45-7z" fill="#455a64"/><path d="m142.75 36.8a22.79 22.79 0 0 1 3.34 16.5l-.61 2.55a22.91 22.91 0 0 1 -44.67-9.49l.49-2.58a22.9 22.9 0 0 1 41.45-7z" fill="#fff" opacity=".7"/><path d="m120.36 61.37a3.26 3.26 0 0 1 -2.4-1l-7.49-8a3.3 3.3 0 1 1 4.82-4.52l4.85 5.15 11.5-14.56a3.3 3.3 0 1 1 5.18 4.09l-13.89 17.58a3.32 3.32 0 0 1 -2.45 1.25z" fill="#92e3a9"/></svg>