<svg id="Layer_1" data-name="Layer 1" xmlns="http://www.w3.org/2000/svg" viewBox="0 0 402 328.17"><defs><style>.cls-1{fill:#c0e1d9;}.cls-2,.cls-4,.cls-5{fill:#fff;}.cls-2,.cls-4{isolation:isolate;}.cls-2{opacity:0.7;}.cls-3{fill:#92e3a9;}.cls-4{opacity:0.5;}.cls-6{fill:#263238;}.cls-7{fill:#638a66;}.cls-8{fill:#d2977c;}.cls-9{fill:#a2bda2;}.cls-10{fill:#f1cbb5;}</style></defs><g id="freepik--background-simple--inject-25"><path class="cls-1" d="M388.74,94.15c-9.62-23.44-24.36-45.18-43.3-61.66-22.22-19.32-57.27-34.22-86.9-23.65-30.67,10.9-51.18,37-73.92,58.28-8,7.46-16.72,14.53-27.09,18.69-47.45,19-79.68-6.92-121.76,22.48S-9.9,196.45,17.86,233.63s94,32,144.15,32,42.08,35.45,129.83,36.31c89.73.89,118.05-94.3,108.35-165.54A173.47,173.47,0,0,0,388.74,94.15Z"/><path class="cls-2" d="M388.74,94.15c-9.62-23.44-24.36-45.18-43.3-61.66-22.22-19.32-57.27-34.22-86.9-23.65-30.67,10.9-51.18,37-73.92,58.28-8,7.46-16.72,14.53-27.09,18.69-47.45,19-79.68-6.92-121.76,22.48S-9.9,196.45,17.86,233.63s94,32,144.15,32,42.08,35.45,129.83,36.31c89.73.89,118.05-94.3,108.35-165.54A173.47,173.47,0,0,0,388.74,94.15Z"/></g><g id="freepik--Clouds--inject-25"><path class="cls-3" d="M189,34.84c-5.8-3.17-8.44-.53-10.55-3.17s5.8-9.5-10-16.36c0,0-1-14.77-22.69-15.3S129.91,14.84,124.1,18.49s-7.39-2.11-13.19,1.58S107.74,31.15,103,32.21,91.91,27.46,86.1,31.15,80.3,38,77.66,38s-7.92-2.12-11.08,0-6.86,4.75-6.86,4.75H193.24S194.82,38,189,34.84Z"/><path class="cls-4" d="M189,34.84c-5.8-3.17-8.44-.53-10.55-3.17s5.8-9.5-10-16.36c0,0-1-14.77-22.69-15.3S129.91,14.84,124.1,18.49s-7.39-2.11-13.19,1.58S107.74,31.15,103,32.21,91.91,27.46,86.1,31.15,80.3,38,77.66,38s-7.92-2.12-11.08,0-6.86,4.75-6.86,4.75H193.24S194.82,38,189,34.84Z"/><path class="cls-5" d="M298.61,57.15c-3.73-2-5.43-.34-6.78-2s3.73-6.11-6.44-10.51c0,0-.68-9.5-14.58-9.84s-10.17,9.5-13.9,11.87-4.75-1.36-8.48,1-2,7.12-5.09,7.8-7.12-3.06-10.84-.68-3.73,4.4-5.43,4.4-5.09-1.35-7.12,0-4.41,3.06-4.41,3.06h85.78S302.34,59.18,298.61,57.15Z"/></g><g id="freepik--House--inject-25"><rect class="cls-5" x="63.09" y="154.26" width="272.47" height="85.98"/><path class="cls-6" d="M335.56,240.74H63.09a.5.5,0,0,1-.5-.5v-86a.5.5,0,0,1,.5-.5H335.56a.51.51,0,0,1,.5.5v86A.5.5,0,0,1,335.56,240.74Zm-272-1h271.5v-85H63.59Z"/><polygon class="cls-7" points="199.69 75.81 63.81 154.26 335.56 154.26 199.69 75.81"/><path class="cls-6" d="M335.56,154.76H63.81a.5.5,0,0,1-.5-.5.53.53,0,0,1,.25-.43L199.44,75.38a.5.5,0,0,1,.5,0l135.87,78.46a.49.49,0,0,1-.25.92Zm-269.88-1h268l-134-77.37Z"/><rect class="cls-5" x="187.11" y="147.27" width="67.43" height="92.97"/><path class="cls-6" d="M254.54,240.74H187.11a.5.5,0,0,1-.5-.5v-93a.5.5,0,0,1,.5-.5h67.43a.52.52,0,0,1,.5.5v93A.5.5,0,0,1,254.54,240.74Zm-66.93-1H254v-92H187.61Z"/><rect class="cls-6" x="187.11" y="147.27" width="67.43" height="3.95"/><path class="cls-6" d="M254.54,151.73H187.11a.5.5,0,0,1-.5-.5v-4a.5.5,0,0,1,.5-.5h67.43a.52.52,0,0,1,.5.5v4A.51.51,0,0,1,254.54,151.73Zm-66.93-1H254v-3H187.61Z"/><path class="cls-8" d="M237.66,240.24H204V182.13a16.83,16.83,0,0,1,16.82-16.84h0a16.84,16.84,0,0,1,16.84,16.84Z"/><path class="cls-6" d="M237.66,240.74H204a.5.5,0,0,1-.5-.5V182.13a17.34,17.34,0,0,1,34.67-.83c0,.28,0,.56,0,.83v58.11a.5.5,0,0,1-.5.5Zm-33.17-1h32.67V182.13a16.34,16.34,0,0,0-32.67-.81q0,.41,0,.81Z"/><rect class="cls-5" x="43.53" y="169.32" width="156.18" height="70.92"/><path class="cls-6" d="M199.71,240.74H43.53a.5.5,0,0,1-.5-.5V169.32a.5.5,0,0,1,.5-.5H199.71a.51.51,0,0,1,.5.5v70.92A.5.5,0,0,1,199.71,240.74ZM44,239.74H199.21v-69.9H44Z"/><rect class="cls-6" x="43.53" y="169.32" width="156.18" height="3.16"/><path class="cls-6" d="M199.71,173H43.53a.5.5,0,0,1-.5-.5v-3.16a.5.5,0,0,1,.5-.5H199.71a.51.51,0,0,1,.5.5v3.16A.5.5,0,0,1,199.71,173ZM44,172H199.21v-2.14H44Z"/><rect class="cls-9" x="60.25" y="174.67" width="121.81" height="65.07"/><path class="cls-6" d="M182.52,240.74H60.71a.5.5,0,0,1-.5-.5V175.17a.5.5,0,0,1,.5-.5H182.52a.51.51,0,0,1,.5.5v65.07A.5.5,0,0,1,182.52,240.74Zm-121.31-1H182V175.67H61.21Z"/><polygon class="cls-7" points="121.62 117.43 38.73 165.29 204.51 165.29 121.62 117.43"/><path class="cls-6" d="M204.51,165.84H38.73a.5.5,0,0,1-.5-.5.53.53,0,0,1,.25-.43l82.89-47.86a.5.5,0,0,1,.5,0l82.89,47.79a.5.5,0,0,1,.17.69.49.49,0,0,1-.42.24Zm-163.91-1h162l-81-46.78Z"/><rect class="cls-5" x="38.73" y="165.29" width="165.77" height="4.03"/><path class="cls-6" d="M204.51,169.84H38.73a.5.5,0,0,1-.5-.5v-4a.5.5,0,0,1,.5-.5H204.51a.51.51,0,0,1,.5.5v4A.5.5,0,0,1,204.51,169.84Zm-165.28-1H204v-3H39.23Z"/><polygon class="cls-7" points="220.82 120.29 177.9 145.07 263.75 145.07 220.82 120.29"/><path class="cls-6" d="M263.75,145.57H177.9a.5.5,0,0,1-.25-.93l42.92-24.8a.55.55,0,0,1,.5,0L264,144.64a.5.5,0,0,1,.17.69A.49.49,0,0,1,263.75,145.57Zm-84-1h82.12l-41.05-23.73Z"/><rect class="cls-5" x="177.9" y="145.07" width="85.85" height="3.98"/><path class="cls-6" d="M263.75,149.55H177.9a.5.5,0,0,1-.5-.5v-4a.5.5,0,0,1,.5-.5h85.85a.51.51,0,0,1,.5.5v4A.5.5,0,0,1,263.75,149.55Zm-85.35-1h84.85v-3H178.4Z"/><rect class="cls-10" x="65.15" y="180.4" width="9.86" height="9.86"/><path class="cls-6" d="M75,190.76H65.14a.5.5,0,0,1-.5-.5V180.4a.5.5,0,0,1,.5-.5H75a.51.51,0,0,1,.5.5v9.86A.5.5,0,0,1,75,190.76Zm-9.36-1H74.5V180.9H65.64Z"/><rect class="cls-5" x="79.95" y="180.4" width="9.86" height="9.86"/><path class="cls-6" d="M89.81,190.76H80a.5.5,0,0,1-.5-.5V180.4a.5.5,0,0,1,.5-.5h9.86a.51.51,0,0,1,.5.5v9.86a.51.51,0,0,1-.5.51Zm-9.36-1h8.86V180.9H80.45Z"/><rect class="cls-10" x="94.74" y="180.4" width="9.86" height="9.86"/><path class="cls-6" d="M104.61,190.76H94.74a.5.5,0,0,1-.5-.5V180.4a.5.5,0,0,1,.5-.5h9.87a.51.51,0,0,1,.5.5v9.86A.5.5,0,0,1,104.61,190.76Zm-9.37-1h8.87V180.9H95.24Z"/><rect class="cls-5" x="109.54" y="180.4" width="9.86" height="9.86"/><path class="cls-6" d="M119.41,190.76h-9.87a.5.5,0,0,1-.5-.5V180.4a.5.5,0,0,1,.5-.5h9.87a.51.51,0,0,1,.5.5v9.86A.5.5,0,0,1,119.41,190.76Zm-9.37-1h8.87V180.9H110Z"/><rect class="cls-5" x="124.34" y="180.4" width="9.86" height="9.86"/><path class="cls-6" d="M134.2,190.76h-9.86a.5.5,0,0,1-.5-.5V180.4a.5.5,0,0,1,.5-.5h9.86a.51.51,0,0,1,.5.5v9.86A.5.5,0,0,1,134.2,190.76Zm-9.36-1h8.86V180.9h-8.86Z"/><rect class="cls-5" x="139.13" y="180.4" width="9.86" height="9.86"/><path class="cls-6" d="M149,190.76h-9.87a.5.5,0,0,1-.5-.5V180.4a.5.5,0,0,1,.5-.5H149a.51.51,0,0,1,.5.5v9.86A.5.5,0,0,1,149,190.76Zm-9.37-1h8.87V180.9h-8.87Z"/><rect class="cls-5" x="153.93" y="180.4" width="9.86" height="9.86"/><path class="cls-6" d="M163.8,190.76h-9.87a.5.5,0,0,1-.5-.5V180.4a.5.5,0,0,1,.5-.5h9.87a.51.51,0,0,1,.5.5v9.86A.5.5,0,0,1,163.8,190.76Zm-9.37-1h8.87V180.9h-8.87Z"/><rect class="cls-10" x="168.73" y="180.4" width="9.86" height="9.86"/><path class="cls-6" d="M178.59,190.76h-9.86a.5.5,0,0,1-.5-.5V180.4a.5.5,0,0,1,.5-.5h9.86a.51.51,0,0,1,.5.5v9.86A.5.5,0,0,1,178.59,190.76Zm-9.36-1h8.86V180.9h-8.86Z"/><rect class="cls-5" x="65.15" y="194.92" width="9.86" height="9.86"/><path class="cls-6" d="M75,205.28H65.14a.5.5,0,0,1-.5-.5v-9.86a.5.5,0,0,1,.5-.5H75a.51.51,0,0,1,.5.5v9.86A.5.5,0,0,1,75,205.28Zm-9.36-1H74.5v-8.86H65.64Z"/><rect class="cls-10" x="79.95" y="194.92" width="9.86" height="9.86"/><path class="cls-6" d="M89.81,205.28H80a.5.5,0,0,1-.5-.5v-9.86a.5.5,0,0,1,.5-.5h9.86a.51.51,0,0,1,.5.5v9.86a.51.51,0,0,1-.5.51Zm-9.36-1h8.86v-8.86H80.45Z"/><rect class="cls-5" x="94.74" y="194.92" width="9.86" height="9.86"/><path class="cls-6" d="M104.61,205.28H94.74a.5.5,0,0,1-.5-.5v-9.86a.5.5,0,0,1,.5-.5h9.87a.51.51,0,0,1,.5.5v9.86A.5.5,0,0,1,104.61,205.28Zm-9.37-1h8.87v-8.86H95.24Z"/><rect class="cls-5" x="109.54" y="194.92" width="9.86" height="9.86"/><path class="cls-6" d="M119.41,205.28h-9.87a.5.5,0,0,1-.5-.5v-9.86a.5.5,0,0,1,.5-.5h9.87a.51.51,0,0,1,.5.5v9.86A.5.5,0,0,1,119.41,205.28Zm-9.37-1h8.87v-8.86H110Z"/><rect class="cls-10" x="124.34" y="194.92" width="9.86" height="9.86"/><path class="cls-6" d="M134.2,205.28h-9.86a.5.5,0,0,1-.5-.5v-9.86a.5.5,0,0,1,.5-.5h9.86a.51.51,0,0,1,.5.5v9.86A.5.5,0,0,1,134.2,205.28Zm-9.36-1h8.86v-8.86h-8.86Z"/><rect class="cls-5" x="139.13" y="194.92" width="9.86" height="9.86"/><path class="cls-6" d="M149,205.28h-9.87a.5.5,0,0,1-.5-.5v-9.86a.5.5,0,0,1,.5-.5H149a.51.51,0,0,1,.5.5v9.86A.5.5,0,0,1,149,205.28Zm-9.37-1h8.87v-8.86h-8.87Z"/><rect class="cls-5" x="153.93" y="194.92" width="9.86" height="9.86"/><path class="cls-6" d="M163.8,205.28h-9.87a.5.5,0,0,1-.5-.5v-9.86a.5.5,0,0,1,.5-.5h9.87a.51.51,0,0,1,.5.5v9.86A.5.5,0,0,1,163.8,205.28Zm-9.37-1h8.87v-8.86h-8.87Z"/><rect class="cls-5" x="168.73" y="194.92" width="9.86" height="9.86"/><path class="cls-6" d="M178.59,205.28h-9.86a.5.5,0,0,1-.5-.5v-9.86a.5.5,0,0,1,.5-.5h9.86a.51.51,0,0,1,.5.5v9.86A.5.5,0,0,1,178.59,205.28Zm-9.36-1h8.86v-8.86h-8.86Z"/><rect class="cls-5" x="65.15" y="209.43" width="9.86" height="9.86"/><path class="cls-6" d="M75,219.84H65.14a.5.5,0,0,1-.5-.5v-9.87a.5.5,0,0,1,.5-.5H75a.51.51,0,0,1,.5.5v9.87A.5.5,0,0,1,75,219.84Zm-9.36-1H74.5V210H65.64Z"/><rect class="cls-5" x="79.95" y="209.43" width="9.86" height="9.86"/><path class="cls-6" d="M89.81,219.84H80a.5.5,0,0,1-.5-.5v-9.87a.5.5,0,0,1,.5-.5h9.86a.51.51,0,0,1,.5.5v9.87a.51.51,0,0,1-.5.51Zm-9.36-1h8.86V210H80.45Z"/><rect class="cls-5" x="94.74" y="209.43" width="9.86" height="9.86"/><path class="cls-6" d="M104.61,219.84H94.74a.5.5,0,0,1-.5-.5v-9.87a.5.5,0,0,1,.5-.5h9.87a.51.51,0,0,1,.5.5v9.87A.5.5,0,0,1,104.61,219.84Zm-9.37-1h8.87V210H95.24Z"/><rect class="cls-5" x="109.54" y="209.43" width="9.86" height="9.86"/><path class="cls-6" d="M119.41,219.84h-9.87a.5.5,0,0,1-.5-.5v-9.87a.5.5,0,0,1,.5-.5h9.87a.51.51,0,0,1,.5.5v9.87A.51.51,0,0,1,119.41,219.84Zm-9.41-1h8.87V210H110Z"/><rect class="cls-5" x="124.34" y="209.43" width="9.86" height="9.86"/><path class="cls-6" d="M134.2,219.84h-9.86a.5.5,0,0,1-.5-.5v-9.87a.5.5,0,0,1,.5-.5h9.86a.51.51,0,0,1,.5.5v9.87A.5.5,0,0,1,134.2,219.84Zm-9.36-1h8.86V210h-8.86Z"/><rect class="cls-10" x="139.13" y="209.43" width="9.86" height="9.86"/><path class="cls-6" d="M149,219.84h-9.87a.5.5,0,0,1-.5-.5v-9.87a.5.5,0,0,1,.5-.5H149a.51.51,0,0,1,.5.5v9.87A.5.5,0,0,1,149,219.84Zm-9.37-1h8.87V210h-8.87Z"/><rect class="cls-5" x="153.93" y="209.43" width="9.86" height="9.86"/><path class="cls-6" d="M163.8,219.84h-9.87a.5.5,0,0,1-.5-.5v-9.87a.5.5,0,0,1,.5-.5h9.87a.51.51,0,0,1,.5.5v9.87A.51.51,0,0,1,163.8,219.84Zm-9.37-1h8.87V210h-8.87Z"/><rect class="cls-5" x="168.73" y="209.43" width="9.86" height="9.86"/><path class="cls-6" d="M178.59,219.84h-9.86a.5.5,0,0,1-.5-.5v-9.87a.5.5,0,0,1,.5-.5h9.86a.51.51,0,0,1,.5.5v9.87A.5.5,0,0,1,178.59,219.84Zm-9.36-1h8.86V210h-8.86Z"/><rect class="cls-5" x="65.15" y="223.95" width="9.86" height="9.86"/><path class="cls-6" d="M75,234.31H65.14a.5.5,0,0,1-.5-.5V224a.5.5,0,0,1,.5-.5H75a.51.51,0,0,1,.5.5v9.89A.5.5,0,0,1,75,234.31Zm-9.36-1H74.5v-8.86H65.64Z"/><rect class="cls-5" x="79.95" y="223.95" width="9.86" height="9.86"/><path class="cls-6" d="M89.81,234.31H80a.5.5,0,0,1-.5-.5V224a.5.5,0,0,1,.5-.5h9.86a.51.51,0,0,1,.5.5v9.89a.51.51,0,0,1-.53.48Zm-9.36-1h8.86v-8.86H80.45Z"/><rect class="cls-5" x="94.74" y="223.95" width="9.86" height="9.86"/><path class="cls-6" d="M104.61,234.31H94.74a.5.5,0,0,1-.5-.5V224a.5.5,0,0,1,.5-.5h9.87a.51.51,0,0,1,.5.5v9.89A.5.5,0,0,1,104.61,234.31Zm-9.37-1h8.87v-8.86H95.24Z"/><rect class="cls-10" x="109.54" y="223.95" width="9.86" height="9.86"/><path class="cls-6" d="M119.41,234.31h-9.87a.5.5,0,0,1-.5-.5V224a.5.5,0,0,1,.5-.5h9.87a.51.51,0,0,1,.5.5v9.89A.5.5,0,0,1,119.41,234.31Zm-9.37-1h8.87v-8.86H110Z"/><rect class="cls-5" x="124.34" y="223.95" width="9.86" height="9.86"/><path class="cls-6" d="M134.2,234.31h-9.86a.5.5,0,0,1-.5-.5V224a.5.5,0,0,1,.5-.5h9.86a.51.51,0,0,1,.5.5v9.89A.5.5,0,0,1,134.2,234.31Zm-9.36-1h8.86v-8.86h-8.86Z"/><rect class="cls-5" x="139.13" y="223.95" width="9.86" height="9.86"/><path class="cls-6" d="M149,234.31h-9.87a.5.5,0,0,1-.5-.5V224a.5.5,0,0,1,.5-.5H149a.51.51,0,0,1,.5.5v9.89A.5.5,0,0,1,149,234.31Zm-9.37-1h8.87v-8.86h-8.87Z"/><rect class="cls-5" x="153.93" y="223.95" width="9.86" height="9.86"/><path class="cls-6" d="M163.8,234.31h-9.87a.5.5,0,0,1-.5-.5V224a.5.5,0,0,1,.5-.5h9.87a.51.51,0,0,1,.5.5v9.89A.5.5,0,0,1,163.8,234.31Zm-9.37-1h8.87v-8.86h-8.87Z"/><rect class="cls-5" x="168.73" y="223.95" width="9.86" height="9.86"/><path class="cls-6" d="M178.59,234.31h-9.86a.5.5,0,0,1-.5-.5V224a.5.5,0,0,1,.5-.5h9.86a.51.51,0,0,1,.5.5v9.89A.5.5,0,0,1,178.59,234.31Zm-9.36-1h8.86v-8.86h-8.86Z"/><path class="cls-5" d="M210.78,240.74a.5.5,0,0,1-.5-.5V229.92a.5.5,0,0,1,.5-.5.51.51,0,0,1,.5.5v10.32A.5.5,0,0,1,210.78,240.74Z"/><polyline class="cls-6" points="228.91 240.24 228.91 185.33 210.78 185.33 210.78 225.37"/><path class="cls-5" d="M228.91,240.74a.5.5,0,0,1-.5-.5v-54.4H211.28v39.54a.5.5,0,0,1-.5.5.5.5,0,0,1-.5-.5v-40a.51.51,0,0,1,.5-.5h18.13a.52.52,0,0,1,.5.5v54.86A.5.5,0,0,1,228.91,240.74Z"/><polygon class="cls-5" points="343.29 240.24 243.67 240.24 243.67 147.27 293.48 120.29 343.29 147.27 343.29 240.24"/><path class="cls-6" d="M343.29,240.74H243.67a.5.5,0,0,1-.5-.5v-93a.51.51,0,0,1,.26-.44l49.81-27a.51.51,0,0,1,.48,0l49.81,27a.51.51,0,0,1,.26.44v93a.5.5,0,0,1-.5.5Zm-99.12-1h98.62V147.57l-49.31-26.73-49.31,26.71Z"/><polygon class="cls-5" points="350.9 151.23 293.48 120.12 236.06 151.23 234.27 147.93 293.48 115.85 352.69 147.93 350.9 151.23"/><path class="cls-6" d="M350.9,151.73a.46.46,0,0,1-.23-.06l-57.19-31-57.19,31a.5.5,0,0,1-.38,0,.48.48,0,0,1-.29-.25l-1.79-3.29a.5.5,0,0,1,.2-.68h0l59.21-32.08a.51.51,0,0,1,.48,0l59.21,32.08a.59.59,0,0,1,.24.3.5.5,0,0,1,0,.38l-1.79,3.29A.49.49,0,0,1,350.9,151.73Zm-57.42-32.11a.53.53,0,0,1,.24.06l57,30.87,1.31-2.42L293.5,116.42,235,148.13l1.31,2.42,57-30.87a.49.49,0,0,1,.17-.06Z"/><polygon class="cls-6" points="243.67 147.27 243.67 149.53 293.48 122.55 343.29 149.53 343.29 147.27 293.48 120.29 243.67 147.27"/><path class="cls-6" d="M343.29,150a.5.5,0,0,1-.24-.06l-49.57-26.85L243.91,150a.48.48,0,0,1-.49,0,.47.47,0,0,1-.25-.43v-2.26a.51.51,0,0,1,.26-.44l49.81-27a.51.51,0,0,1,.48,0l49.81,27a.51.51,0,0,1,.26.44v2.26a.5.5,0,0,1-.24.43A.4.4,0,0,1,343.29,150Zm-49.81-28a.53.53,0,0,1,.24.06l49.07,26.58v-1.12l-49.31-26.71-49.31,26.71v1.12l49.07-26.58a.64.64,0,0,1,.24,0Z"/><polyline class="cls-5" points="271.69 169.85 271.69 160.05 314.67 160.05 314.67 208.9"/><path class="cls-6" d="M314.67,209.4a.5.5,0,0,1-.5-.5V160.55h-42v9.29a.5.5,0,0,1-.5.5.5.5,0,0,1-.5-.5V160a.5.5,0,0,1,.5-.5h43a.51.51,0,0,1,.5.5v48.85a.5.5,0,0,1-.49.51Z"/><polyline class="cls-5" points="314.67 213.95 314.67 223.57 271.69 223.57 271.69 173.58"/><path class="cls-6" d="M314.67,224.07h-43a.5.5,0,0,1-.5-.5v-50a.5.5,0,0,1,.5-.5.51.51,0,0,1,.5.5v49.49h42v-9.12a.5.5,0,0,1,.5-.5.51.51,0,0,1,.5.5v9.62A.5.5,0,0,1,314.67,224.07Z"/><rect class="cls-6" x="295.09" y="179.14" width="16.72" height="11.62"/><path class="cls-6" d="M311.8,191.26H295.09a.5.5,0,0,1-.5-.5V179.14a.5.5,0,0,1,.5-.5H311.8a.51.51,0,0,1,.5.5v11.62a.5.5,0,0,1-.5.5Zm-16.21-1H311.3V179.64H295.59Z"/><rect class="cls-8" x="295.09" y="194.58" width="16.72" height="11.62"/><path class="cls-6" d="M311.8,206.69H295.09a.5.5,0,0,1-.5-.5V194.58a.5.5,0,0,1,.5-.5H311.8a.51.51,0,0,1,.5.5v11.61a.5.5,0,0,1-.5.5Zm-16.21-1H311.3V195.08H295.59Z"/><rect class="cls-8" x="295.09" y="162.91" width="16.72" height="12.4"/><path class="cls-6" d="M311.8,175.84H295.09a.5.5,0,0,1-.5-.5V162.91a.5.5,0,0,1,.5-.5H311.8a.51.51,0,0,1,.5.5v12.41a.5.5,0,0,1-.48.52Zm-16.21-1H311.3V163.41H295.59Z"/><rect class="cls-6" x="274.55" y="162.91" width="16.72" height="12.4"/><path class="cls-6" d="M291.27,175.84H274.55a.5.5,0,0,1-.5-.5V162.91a.5.5,0,0,1,.5-.5h16.72a.52.52,0,0,1,.5.5v12.41a.51.51,0,0,1-.5.52Zm-16.22-1h15.72V163.41H275.05Z"/><rect class="cls-8" x="274.55" y="194.58" width="16.72" height="11.62"/><path class="cls-6" d="M291.27,206.69H274.55a.5.5,0,0,1-.5-.5V194.58a.5.5,0,0,1,.5-.5h16.72a.51.51,0,0,1,.5.5v11.61a.5.5,0,0,1-.5.5Zm-16.22-1h15.72V195.08H275.05Z"/><rect class="cls-8" x="274.55" y="179.14" width="16.72" height="11.62"/><path class="cls-6" d="M291.27,191.26H274.55a.5.5,0,0,1-.5-.5V179.14a.5.5,0,0,1,.5-.5h16.72a.51.51,0,0,1,.5.5v11.62A.51.51,0,0,1,291.27,191.26Zm-16.22-1h15.72V179.64H275.05Z"/><rect class="cls-8" x="295.09" y="210.01" width="16.72" height="10.69"/><path class="cls-6" d="M310.83,220.2H295.06a.46.46,0,0,1-.47-.45V210a.47.47,0,0,1,.47-.46h15.77a.47.47,0,0,1,.47.46v9.78A.46.46,0,0,1,310.83,220.2Zm-15.3-.91h14.83v-8.86H295.53Z"/><rect class="cls-8" x="274.55" y="210.01" width="16.72" height="10.69"/><path class="cls-6" d="M291.27,221.2H274.55a.5.5,0,0,1-.5-.5V210a.5.5,0,0,1,.5-.5h16.72a.52.52,0,0,1,.5.5V220.7A.5.5,0,0,1,291.27,221.2Zm-16.22-1h15.72v-9.69H275.05Z"/></g><g id="freepik--magnifying-glass--inject-25"><path class="cls-6" d="M293.17,279.09h-2a.5.5,0,0,1-.5-.5.5.5,0,0,1,.5-.5h2a.51.51,0,0,1,.5.5A.5.5,0,0,1,293.17,279.09Zm-6,0h-2a.5.5,0,0,1-.5-.5.5.5,0,0,1,.5-.5h2a.51.51,0,0,1,.5.5A.5.5,0,0,1,287.17,279.09Zm-6,0h-2a.5.5,0,0,1-.5-.5.5.5,0,0,1,.5-.5h2a.51.51,0,0,1,.5.5A.5.5,0,0,1,281.17,279.09Zm-6,0h-2a.5.5,0,0,1-.5-.5.5.5,0,0,1,.5-.5h2a.51.51,0,0,1,.5.5A.5.5,0,0,1,275.17,279.09Z"/><path class="cls-6" d="M68.21,279.09h-.89a.49.49,0,0,1-.47-.52h0a.49.49,0,0,1,.51-.47h2a.51.51,0,0,1,.5.5.5.5,0,0,1-.5.5Zm187.14,0h-2a.5.5,0,0,1-.5-.5.5.5,0,0,1,.5-.5h2a.51.51,0,0,1,.5.5A.5.5,0,0,1,255.35,279.09Zm-6,0h-2a.5.5,0,0,1-.5-.5.5.5,0,0,1,.5-.5h2a.51.51,0,0,1,.5.5A.5.5,0,0,1,249.35,279.09Zm-6,0h-2a.5.5,0,0,1-.5-.5.5.5,0,0,1,.5-.5h2a.51.51,0,0,1,.5.5A.5.5,0,0,1,243.35,279.09Zm-6,0h-2a.5.5,0,0,1-.5-.5.5.5,0,0,1,.5-.5h2a.51.51,0,0,1,.5.5A.5.5,0,0,1,237.35,279.09Zm-6,0h-2a.5.5,0,0,1-.5-.5.5.5,0,0,1,.5-.5h2a.51.51,0,0,1,.5.5A.5.5,0,0,1,231.35,279.09Zm-6,0h-2a.5.5,0,0,1-.5-.5.5.5,0,0,1,.5-.5h2a.51.51,0,0,1,.5.5A.5.5,0,0,1,225.35,279.09Zm-6,0h-2a.5.5,0,0,1-.5-.5.5.5,0,0,1,.5-.5h2a.51.51,0,0,1,.5.5A.5.5,0,0,1,219.35,279.09Zm-6,0h-2a.5.5,0,0,1-.5-.5.5.5,0,0,1,.5-.5h2a.51.51,0,0,1,.5.5A.5.5,0,0,1,213.35,279.09Zm-6,0h-2a.5.5,0,0,1-.5-.5.5.5,0,0,1,.5-.5h2a.51.51,0,0,1,.5.5A.5.5,0,0,1,207.35,279.09Zm-6,0h-2a.5.5,0,0,1-.5-.5.5.5,0,0,1,.5-.5h2a.51.51,0,0,1,.5.5A.5.5,0,0,1,201.35,279.09Zm-6,0h-2a.5.5,0,0,1-.5-.5.5.5,0,0,1,.5-.5h2a.51.51,0,0,1,.5.5A.5.5,0,0,1,195.35,279.09Zm-6,0h-2a.5.5,0,0,1-.5-.5.5.5,0,0,1,.5-.5h2a.51.51,0,0,1,.5.5A.5.5,0,0,1,189.35,279.09Zm-6,0h-2a.5.5,0,0,1-.5-.5.5.5,0,0,1,.5-.5h2a.51.51,0,0,1,.5.5A.5.5,0,0,1,183.35,279.09Zm-6,0h-2a.5.5,0,0,1-.5-.5.5.5,0,0,1,.5-.5h2a.51.51,0,0,1,.5.5A.5.5,0,0,1,177.35,279.09Zm-6,0h-2a.5.5,0,0,1-.5-.5.5.5,0,0,1,.5-.5h2a.51.51,0,0,1,.5.5A.5.5,0,0,1,171.35,279.09Zm-6,0h-2a.5.5,0,0,1-.5-.5.5.5,0,0,1,.5-.5h2a.51.51,0,0,1,.5.5A.5.5,0,0,1,165.35,279.09Zm-6,0h-2a.5.5,0,0,1-.5-.5.5.5,0,0,1,.5-.5h2a.51.51,0,0,1,.5.5A.5.5,0,0,1,159.35,279.09Zm-6,0h-2a.5.5,0,0,1-.5-.5.5.5,0,0,1,.5-.5h2a.51.51,0,0,1,.5.5A.5.5,0,0,1,153.35,279.09Zm-6,0h-2a.5.5,0,0,1-.5-.5.5.5,0,0,1,.5-.5h2a.51.51,0,0,1,.5.5A.5.5,0,0,1,147.35,279.09Zm-6,0h-2a.5.5,0,0,1-.5-.5.5.5,0,0,1,.5-.5h2a.51.51,0,0,1,.5.5A.5.5,0,0,1,141.35,279.09Zm-6,0h-2a.5.5,0,0,1-.5-.5.5.5,0,0,1,.5-.5h2a.51.51,0,0,1,.5.5A.5.5,0,0,1,135.35,279.09Zm-6,0h-2a.5.5,0,0,1-.5-.5.5.5,0,0,1,.5-.5h2a.51.51,0,0,1,.5.5A.5.5,0,0,1,129.35,279.09Zm-6,0h-2a.5.5,0,0,1-.5-.5.5.5,0,0,1,.5-.5h2a.51.51,0,0,1,.5.5A.5.5,0,0,1,123.35,279.09Zm-6,0h-2a.5.5,0,0,1-.5-.5.5.5,0,0,1,.5-.5h2a.51.51,0,0,1,.5.5A.5.5,0,0,1,117.35,279.09Zm-6,0h-2a.5.5,0,0,1-.5-.5.5.5,0,0,1,.5-.5h2a.51.51,0,0,1,.5.5A.5.5,0,0,1,111.35,279.09Zm-6,0h-2a.5.5,0,0,1-.5-.5.5.5,0,0,1,.5-.5h2a.51.51,0,0,1,.5.5A.5.5,0,0,1,105.35,279.09Zm-6,0h-2a.5.5,0,0,1-.5-.5.5.5,0,0,1,.5-.5h2a.51.51,0,0,1,.5.5A.5.5,0,0,1,99.35,279.09Zm-6,0h-2a.5.5,0,0,1-.5-.5.5.5,0,0,1,.5-.5h2a.51.51,0,0,1,.5.5A.5.5,0,0,1,93.35,279.09Zm-6,0h-2a.5.5,0,0,1-.5-.5.5.5,0,0,1,.5-.5h2a.51.51,0,0,1,.5.5A.5.5,0,0,1,87.35,279.09Zm-6,0h-2a.5.5,0,0,1-.5-.5.5.5,0,0,1,.5-.5h2a.51.51,0,0,1,.5.5A.5.5,0,0,1,81.35,279.09Zm-6,0h-2a.5.5,0,0,1-.5-.5.5.5,0,0,1,.5-.5h2a.51.51,0,0,1,.5.5.5.5,0,0,1-.5.5Zm-11.92-.77h-.15a14.46,14.46,0,0,1-1.92-.76.5.5,0,0,1-.24-.67.49.49,0,0,1,.66-.24h0a14.07,14.07,0,0,0,1.8.72A.52.52,0,0,1,64,278a.51.51,0,0,1-.58.42Zm-5.2-2.9a.5.5,0,0,1-.33-.12,15.25,15.25,0,0,1-1.48-1.42.5.5,0,0,1,.68-.73l0,.05a16.08,16.08,0,0,0,1.4,1.34.5.5,0,0,1-.32.88Zm-3.74-4.64a.5.5,0,0,1-.45-.27,15.14,15.14,0,0,1-.84-1.88.5.5,0,0,1,.29-.64.5.5,0,0,1,.65.29h0a14,14,0,0,0,.79,1.77.5.5,0,0,1-.22.68A.54.54,0,0,1,54.49,270.78Zm-1.72-5.71a.5.5,0,0,1-.5-.45c0-.53-.08-1.06-.08-1.6v-.45a.5.5,0,0,1,.5-.5.51.51,0,0,1,.5.5V263a14.91,14.91,0,0,0,.08,1.5.51.51,0,0,1-.45.55Zm-.08-6a.5.5,0,0,1-.5-.5v-2a.5.5,0,0,1,.5-.5.51.51,0,0,1,.5.5v2a.5.5,0,0,1-.5.5Zm0-6a.5.5,0,0,1-.5-.5v-2a.5.5,0,0,1,.5-.5.51.51,0,0,1,.5.5v2a.5.5,0,0,1-.5.5Zm0-6a.5.5,0,0,1-.5-.5v-2a.5.5,0,0,1,.5-.5.51.51,0,0,1,.5.5v2a.5.5,0,0,1-.5.5Zm0-6a.5.5,0,0,1-.5-.5v-2a.5.5,0,0,1,.5-.5.51.51,0,0,1,.5.5v2a.5.5,0,0,1-.5.5Zm0-6a.5.5,0,0,1-.5-.5v-2a.5.5,0,0,1,.5-.5.51.51,0,0,1,.5.5v2a.5.5,0,0,1-.5.5Zm0-6a.5.5,0,0,1-.5-.5v-2a.5.5,0,0,1,.5-.5.51.51,0,0,1,.5.5v2a.5.5,0,0,1-.5.5Zm0-6a.5.5,0,0,1-.5-.5v-2a.5.5,0,0,1,.5-.5.51.51,0,0,1,.5.5v2a.5.5,0,0,1-.5.5Zm0-6a.5.5,0,0,1-.5-.5v-2a.5.5,0,0,1,.5-.5.51.51,0,0,1,.5.5v2a.5.5,0,0,1-.5.5Zm0-6a.5.5,0,0,1-.5-.5v-2a.5.5,0,0,1,.5-.5.51.51,0,0,1,.5.5v2a.5.5,0,0,1-.5.5Zm0-6a.5.5,0,0,1-.5-.5v-2a.5.5,0,0,1,.5-.5.51.51,0,0,1,.5.5v2a.5.5,0,0,1-.5.5Zm0-6a.5.5,0,0,1-.5-.5v-2a.5.5,0,0,1,.5-.5.51.51,0,0,1,.5.5v2a.5.5,0,0,1-.5.5Zm0-6a.5.5,0,0,1-.5-.5v-2a.5.5,0,0,1,.5-.5.51.51,0,0,1,.5.5v2a.5.5,0,0,1-.5.5Zm0-6a.5.5,0,0,1-.5-.5v-2a.5.5,0,0,1,.5-.5.51.51,0,0,1,.5.5v2a.5.5,0,0,1-.5.5Zm0-6a.5.5,0,0,1-.5-.5v-2a.5.5,0,0,1,.5-.5.51.51,0,0,1,.5.5v2a.5.5,0,0,1-.5.5Zm0-6a.5.5,0,0,1-.5-.5v-2a.5.5,0,0,1,.5-.5.51.51,0,0,1,.5.5v2a.5.5,0,0,1-.5.5Zm0-6a.5.5,0,0,1-.5-.5v-2a.5.5,0,0,1,.5-.5.51.51,0,0,1,.5.5v2a.5.5,0,0,1-.5.5Zm0-6a.5.5,0,0,1-.5-.5v-2a.5.5,0,0,1,.5-.5.51.51,0,0,1,.5.5v2a.5.5,0,0,1-.5.5Zm0-6a.5.5,0,0,1-.5-.5v-2a.5.5,0,0,1,.5-.5.51.51,0,0,1,.5.5v2a.5.5,0,0,1-.5.5Zm0-6a.5.5,0,0,1-.5-.5v-2a.5.5,0,0,1,.5-.5.51.51,0,0,1,.5.5v2a.5.5,0,0,1-.5.5Zm0-6a.5.5,0,0,1-.5-.5v-2a.5.5,0,0,1,.5-.5.51.51,0,0,1,.5.5v2a.5.5,0,0,1-.5.5Zm0-6a.5.5,0,0,1-.5-.5v-2a.5.5,0,0,1,.5-.5.51.51,0,0,1,.5.5v2a.5.5,0,0,1-.5.5Zm0-6a.5.5,0,0,1-.5-.5v-2a.5.5,0,0,1,.5-.5.51.51,0,0,1,.5.5v2a.5.5,0,0,1-.5.5Zm0-6a.5.5,0,0,1-.5-.5v-2a.5.5,0,0,1,.5-.5.51.51,0,0,1,.5.5v2a.5.5,0,0,1-.5.5Zm0-6a.5.5,0,0,1-.5-.5v-2a.5.5,0,0,1,.5-.5.51.51,0,0,1,.5.5v2a.5.5,0,0,1-.5.5Zm0-6a.5.5,0,0,1-.5-.5v-2a.5.5,0,0,1,.5-.5.51.51,0,0,1,.5.5v2a.5.5,0,0,1-.5.5Zm0-6a.5.5,0,0,1-.5-.5v-2a.5.5,0,0,1,.5-.5.51.51,0,0,1,.5.5v2a.5.5,0,0,1-.5.5Zm0-6a.5.5,0,0,1-.5-.5v-2a.5.5,0,0,1,.5-.5.51.51,0,0,1,.5.5v2a.5.5,0,0,1-.5.5Zm0-6a.5.5,0,0,1-.5-.5v-2a.5.5,0,0,1,.5-.5.51.51,0,0,1,.5.5v2a.5.5,0,0,1-.5.5Zm0-6a.5.5,0,0,1-.5-.5v-2a.5.5,0,0,1,.5-.5.51.51,0,0,1,.5.5v2a.5.5,0,0,1-.5.5Zm0-6a.5.5,0,0,1-.5-.5v-2a.5.5,0,0,1,.5-.5.51.51,0,0,1,.5.5v2a.5.5,0,0,1-.5.5Zm0-6a.5.5,0,0,1-.5-.5v-2a.5.5,0,0,1,.5-.5.51.51,0,0,1,.5.5v2a.5.5,0,0,1-.5.5Zm0-6a.5.5,0,0,1-.5-.5v-2a.5.5,0,0,1,.5-.5.51.51,0,0,1,.5.5v2a.5.5,0,0,1-.5.5Zm0-6h0a.49.49,0,0,1-.47-.52h0a16.86,16.86,0,0,1,.27-2,.51.51,0,0,1,.6-.4.52.52,0,0,1,.4.6,15.36,15.36,0,0,0-.25,1.91.5.5,0,0,1-.51.42Zm1.53-5.76a.34.34,0,0,1-.22-.05.49.49,0,0,1-.23-.66h0a16.61,16.61,0,0,1,1-1.79.5.5,0,0,1,.69-.14.49.49,0,0,1,.15.69h0a14.3,14.3,0,0,0-1,1.68.49.49,0,0,1-.35.28Zm3.59-4.76a.44.44,0,0,1-.37-.16.48.48,0,0,1,0-.7h0a16.88,16.88,0,0,1,1.62-1.28.5.5,0,0,1,.61.79l0,0a16,16,0,0,0-1.52,1.2.43.43,0,0,1-.26.13Zm5.11-3.07a.48.48,0,0,1-.47-.33.5.5,0,0,1,.3-.64,16.94,16.94,0,0,1,2-.57.5.5,0,0,1,.6.38h0a.49.49,0,0,1-.37.59h0a15.19,15.19,0,0,0-1.86.54.23.23,0,0,1-.11,0Zm7.89-.92h-2a.5.5,0,0,1-.5-.5.5.5,0,0,1,.5-.5h2a.51.51,0,0,1,.5.5.5.5,0,0,1-.46.5Z"/><path class="cls-6" d="M330.24,68.12a.5.5,0,0,1-.5-.5,15.63,15.63,0,0,0-.12-1.93.5.5,0,0,1,.43-.56.53.53,0,0,1,.56.43,17.8,17.8,0,0,1,.13,2.06A.5.5,0,0,1,330.24,68.12Zm-1.14-5.85a.47.47,0,0,1-.46-.31,16.45,16.45,0,0,0-.85-1.74.52.52,0,0,1,.19-.69.51.51,0,0,1,.68.19,15.93,15.93,0,0,1,.9,1.86.5.5,0,0,1-.26.65h0a.43.43,0,0,1-.19,0Zm-3.26-5a.45.45,0,0,1-.36-.16A16.25,16.25,0,0,0,324,55.84a.5.5,0,0,1,0-.72.51.51,0,0,1,.61-.07,16.82,16.82,0,0,1,1.53,1.39.51.51,0,0,1,0,.72.48.48,0,0,1-.32.13Zm-4.9-3.41a.34.34,0,0,1-.2,0,14.5,14.5,0,0,0-1.81-.66.48.48,0,0,1-.34-.61v0a.51.51,0,0,1,.62-.33,18.66,18.66,0,0,1,1.94.7.51.51,0,0,1,.25.66.48.48,0,0,1-.46.24Zm-5.81-1.31h-2a.5.5,0,0,1-.5-.5.5.5,0,0,1,.5-.5h2a.52.52,0,0,1,.49.51h0a.5.5,0,0,1-.49.49Zm-6,0h-2a.5.5,0,0,1-.5-.5.5.5,0,0,1,.5-.5h2a.51.51,0,0,1,.5.5.5.5,0,0,1-.49.51h0Zm-6,0h-2a.5.5,0,0,1-.5-.5.5.5,0,0,1,.5-.5h2a.51.51,0,0,1,.5.5.5.5,0,0,1-.49.51h0Zm-6,0h-2a.5.5,0,0,1-.5-.5.5.5,0,0,1,.5-.5h2a.51.51,0,0,1,.5.5.5.5,0,0,1-.49.51h0Zm-6,0h-2a.5.5,0,0,1-.5-.5.5.5,0,0,1,.5-.5h2a.51.51,0,0,1,.5.5.5.5,0,0,1-.49.51h0Zm-6,0h-2a.5.5,0,0,1-.5-.5.5.5,0,0,1,.5-.5h2a.51.51,0,0,1,.5.5.5.5,0,0,1-.49.51h0Zm-6,0h-2a.5.5,0,0,1-.5-.5.5.5,0,0,1,.5-.5h2a.51.51,0,0,1,.5.5.5.5,0,0,1-.49.51h0Zm-6,0h-2a.5.5,0,0,1-.5-.5.5.5,0,0,1,.5-.5h2a.51.51,0,0,1,.5.5.5.5,0,0,1-.49.51h0Zm-6,0h-2a.5.5,0,0,1-.5-.5.5.5,0,0,1,.5-.5h2a.51.51,0,0,1,.5.5.5.5,0,0,1-.49.51h0Zm-6,0h-2a.5.5,0,0,1-.5-.5.5.5,0,0,1,.5-.5h2a.51.51,0,0,1,.5.5.5.5,0,0,1-.49.51h0Zm-6,0h-2a.5.5,0,0,1-.5-.5.5.5,0,0,1,.5-.5h2a.51.51,0,0,1,.5.5.5.5,0,0,1-.49.51h0Zm-6,0h-2a.5.5,0,0,1-.5-.5.5.5,0,0,1,.5-.5h2a.51.51,0,0,1,.5.5.5.5,0,0,1-.49.51h0Zm-6,0h-2a.5.5,0,0,1-.5-.5.5.5,0,0,1,.5-.5h2a.51.51,0,0,1,.5.5.5.5,0,0,1-.49.51h0Zm-6,0h-2a.5.5,0,0,1-.5-.5.5.5,0,0,1,.5-.5h2a.51.51,0,0,1,.5.5.5.5,0,0,1-.49.51h0Zm-6,0h-2a.5.5,0,0,1-.5-.5.5.5,0,0,1,.5-.5h2a.51.51,0,0,1,.5.5.5.5,0,0,1-.49.51h0Zm-6,0h-2a.5.5,0,0,1-.5-.5.5.5,0,0,1,.5-.5h2a.51.51,0,0,1,.5.5.5.5,0,0,1-.49.51h0Zm-6,0h-2a.5.5,0,0,1-.5-.5.5.5,0,0,1,.5-.5h2a.51.51,0,0,1,.5.5.5.5,0,0,1-.49.51h0Zm-6,0h-2a.5.5,0,0,1-.5-.5.5.5,0,0,1,.5-.5h2a.51.51,0,0,1,.5.5.5.5,0,0,1-.49.51h0Zm-6,0h-2a.5.5,0,0,1-.5-.5.5.5,0,0,1,.5-.5h2a.51.51,0,0,1,.5.5.5.5,0,0,1-.49.51h0Zm-6,0h-2a.5.5,0,0,1-.5-.5.5.5,0,0,1,.5-.5h2a.51.51,0,0,1,.5.5.5.5,0,0,1-.49.51h0Zm-6,0h-2a.5.5,0,0,1-.5-.5.5.5,0,0,1,.5-.5h2a.51.51,0,0,1,.5.5.5.5,0,0,1-.49.51h0Zm-6,0h-2a.5.5,0,0,1-.5-.5.5.5,0,0,1,.5-.5h2a.51.51,0,0,1,.5.5.5.5,0,0,1-.49.51h0Zm-6,0h-2a.5.5,0,0,1-.5-.5.5.5,0,0,1,.5-.5h2a.51.51,0,0,1,.5.5.5.5,0,0,1-.49.51h0Zm-6,0h-2a.5.5,0,0,1-.5-.5.5.5,0,0,1,.5-.5h2a.51.51,0,0,1,.5.5.5.5,0,0,1-.49.51h0Zm-6,0h-2a.5.5,0,0,1-.5-.5.5.5,0,0,1,.5-.5h2a.51.51,0,0,1,.5.5.5.5,0,0,1-.49.51h0Zm-6,0h-2a.5.5,0,0,1-.5-.5.5.5,0,0,1,.5-.5h2a.51.51,0,0,1,.5.5.5.5,0,0,1-.49.51h0Zm-6,0h-2a.5.5,0,0,1-.5-.5.5.5,0,0,1,.5-.5h2a.51.51,0,0,1,.5.5.5.5,0,0,1-.49.51h0Zm-6,0h-2a.5.5,0,0,1-.5-.5.5.5,0,0,1,.5-.5h2a.51.51,0,0,1,.5.5.5.5,0,0,1-.49.51h0Zm-6,0h-2a.5.5,0,0,1-.5-.5.5.5,0,0,1,.5-.5h2a.51.51,0,0,1,.5.5.5.5,0,0,1-.49.51h0Zm-6,0h-2a.5.5,0,0,1-.5-.5.5.5,0,0,1,.5-.5h2a.51.51,0,0,1,.5.5.5.5,0,0,1-.49.51h0Zm-6,0h-2a.5.5,0,0,1-.5-.5.5.5,0,0,1,.5-.5h2a.51.51,0,0,1,.5.5.5.5,0,0,1-.49.51h0Zm-6,0h-2a.5.5,0,0,1-.5-.5.5.5,0,0,1,.5-.5h2a.51.51,0,0,1,.5.5.5.5,0,0,1-.49.51h0Zm-6,0h-2a.5.5,0,0,1-.5-.5.5.5,0,0,1,.5-.5h2a.51.51,0,0,1,.5.5.5.5,0,0,1-.49.51h0Zm-6,0h-2a.5.5,0,0,1-.5-.5.5.5,0,0,1,.5-.5h2a.51.51,0,0,1,.5.5.5.5,0,0,1-.49.51h0Zm-6,0h-2a.5.5,0,0,1-.5-.5.5.5,0,0,1,.5-.5h2a.51.51,0,0,1,.5.5.5.5,0,0,1-.49.51h0Zm-6,0h-2a.5.5,0,0,1-.5-.5.5.5,0,0,1,.5-.5h2a.51.51,0,0,1,.5.5.5.5,0,0,1-.49.51h0Zm-6,0h-2a.5.5,0,0,1-.5-.5.5.5,0,0,1,.5-.5h2a.51.51,0,0,1,.5.5.5.5,0,0,1-.49.51h0Zm-6,0h-2a.5.5,0,0,1-.5-.5.5.5,0,0,1,.5-.5h2a.51.51,0,0,1,.5.5.5.5,0,0,1-.49.51h0Zm-6,0h-2a.5.5,0,0,1-.5-.5.5.5,0,0,1,.5-.5h2a.51.51,0,0,1,.5.5.5.5,0,0,1-.49.51h0Z"/><path class="cls-5" d="M329.83,75.1a64.13,64.13,0,1,0,64.49,63.77v0A64.13,64.13,0,0,0,329.83,75.1Zm.65,115.6a51.47,51.47,0,1,1,51.18-51.76,51.47,51.47,0,0,1-51.18,51.76Z"/><path class="cls-6" d="M330.18,203.84a64.63,64.63,0,1,1-.35-129.26h.37a64.63,64.63,0,0,1,.35,129.26Zm0-128.26h-.37a63.63,63.63,0,1,0,.37,127.26h.37a63.63,63.63,0,0,0-.35-127.26Zm0,115.6a52,52,0,0,1-.29-103.93h.29a52,52,0,0,1,.29,103.93Zm.29-1h0a51,51,0,0,0-.29-101.93h-.29a51,51,0,0,0,.29,101.93Z"/><path class="cls-5" d="M329.81,71.43A64.13,64.13,0,1,0,394.3,135.2h0A64.13,64.13,0,0,0,329.81,71.43ZM330.46,187a51.47,51.47,0,1,1,51.17-51.76h0A51.47,51.47,0,0,1,330.46,187Z"/><path class="cls-6" d="M330.16,200.18a64.46,64.46,0,1,1,.37,0Zm0-128.25h-.37a63.63,63.63,0,0,0,.35,127.25h.37a63.63,63.63,0,0,0-.35-127.25Zm0,115.59a52,52,0,0,1-.28-103.93h.3a52,52,0,0,1,.28,103.93Zm0-102.93h-.3a51,51,0,0,0,.28,101.93h.3a51,51,0,0,0-.28-101.93Z"/><rect class="cls-7" x="324.76" y="199.44" width="15.52" height="57.18" rx="2.88" transform="translate(-2.26 3.34) rotate(-0.57)"/><path class="cls-6" d="M326.38,258.84a3.4,3.4,0,0,1-3.38-3.37l-.29-51.41a3.39,3.39,0,0,1,1-2.4,3.35,3.35,0,0,1,2.39-1l9.75-.06a3.57,3.57,0,0,1,2.4,1,3.35,3.35,0,0,1,1,2.39l.29,51.41a3.4,3.4,0,0,1-3.36,3.41h0l-9.75.05Zm9.78-.55Zm-.31-56.69h0l-9.76.06a2.39,2.39,0,0,0-1.68.7,2.43,2.43,0,0,0-.69,1.69l.29,51.42a2.39,2.39,0,0,0,.71,1.68,2.28,2.28,0,0,0,1.67.69h0l9.75,0a2.39,2.39,0,0,0,2.37-2.4L338.22,204a2.37,2.37,0,0,0-.7-1.68,2.42,2.42,0,0,0-1.67-.71Z"/><path class="cls-6" d="M337.49,327.6l-13.11.08a7.3,7.3,0,0,1-7.35-7.27h0V243.66a5.71,5.71,0,0,1,5.68-5.74h0l16.29-.08a5.7,5.7,0,0,1,5.74,5.66v76.77A7.29,7.29,0,0,1,337.49,327.6Z"/><path class="cls-6" d="M324.34,328.17a7.8,7.8,0,0,1-7.81-7.76V243.66a6.21,6.21,0,0,1,6.17-6.24l16.31-.09h0a6.21,6.21,0,0,1,6.21,6.17v76.76a7.8,7.8,0,0,1-7.76,7.84h0l-13.11.07Zm13.15-.57ZM339,238.33h0l-16.3.09a5.21,5.21,0,0,0-5.18,5.24h0v76.75a6.81,6.81,0,0,0,6.81,6.76h0l13.11-.07a6.79,6.79,0,0,0,6.77-6.83h0V243.51A5.22,5.22,0,0,0,339,238.33Z"/></g></svg>