<svg viewBox="0 0 402 328.17" xmlns="http://www.w3.org/2000/svg">
    <path
        d="m388.74 94.15c-9.62-23.44-24.36-45.18-43.3-61.66-22.22-19.32-57.27-34.22-86.9-23.65-30.67 10.9-51.18 37-73.92 58.28-8 7.46-16.72 14.53-27.09 18.69-47.45 19-79.68-6.92-121.76 22.48s-45.67 88.16-17.91 125.34 94 32 144.15 32 42.08 35.45 129.83 36.31c89.73.89 118.05-94.3 108.35-165.54a173.47 173.47 0 0 0 -11.45-42.25z"
        fill="#c0e1d9" />
    <path
        d="m388.74 94.15c-9.62-23.44-24.36-45.18-43.3-61.66-22.22-19.32-57.27-34.22-86.9-23.65-30.67 10.9-51.18 37-73.92 58.28-8 7.46-16.72 14.53-27.09 18.69-47.45 19-79.68-6.92-121.76 22.48s-45.67 88.16-17.91 125.34 94 32 144.15 32 42.08 35.45 129.83 36.31c89.73.89 118.05-94.3 108.35-165.54a173.47 173.47 0 0 0 -11.45-42.25z"
        fill="#fff" opacity=".7" />
    <path
        d="m189 34.84c-5.8-3.17-8.44-.53-10.55-3.17s5.8-9.5-10-16.36c0 0-1-14.77-22.69-15.3s-15.85 14.83-21.66 18.48-7.39-2.11-13.19 1.58-3.17 11.08-7.91 12.14-11.09-4.75-16.9-1.06-5.8 6.85-8.44 6.85-7.92-2.12-11.08 0-6.86 4.75-6.86 4.75h133.52s1.58-4.75-4.24-7.91z"
        fill="#92e3a9" />
    <path
        d="m189 34.84c-5.8-3.17-8.44-.53-10.55-3.17s5.8-9.5-10-16.36c0 0-1-14.77-22.69-15.3s-15.85 14.83-21.66 18.48-7.39-2.11-13.19 1.58-3.17 11.08-7.91 12.14-11.09-4.75-16.9-1.06-5.8 6.85-8.44 6.85-7.92-2.12-11.08 0-6.86 4.75-6.86 4.75h133.52s1.58-4.75-4.24-7.91z"
        fill="#fff" opacity=".5" />
    <path
        d="m298.61 57.15c-3.73-2-5.43-.34-6.78-2s3.73-6.11-6.44-10.51c0 0-.68-9.5-14.58-9.84s-10.17 9.5-13.9 11.87-4.75-1.36-8.48 1-2 7.12-5.09 7.8-7.12-3.06-10.84-.68-3.73 4.4-5.43 4.4-5.09-1.35-7.12 0-4.41 3.06-4.41 3.06h85.78s1.02-3.07-2.71-5.1z"
        fill="#fff" />
    <path d="m63.09 154.26h272.47v85.98h-272.47z" fill="#fff" />
    <path
        d="m335.56 240.74h-272.47a.5.5 0 0 1 -.5-.5v-86a.5.5 0 0 1 .5-.5h272.47a.51.51 0 0 1 .5.5v86a.5.5 0 0 1 -.5.5zm-272-1h271.5v-85h-271.47z"
        fill="#263238" />
    <path d="m199.69 75.81-135.88 78.45h271.75z" fill="#638a66" />
    <path
        d="m335.56 154.76h-271.75a.5.5 0 0 1 -.5-.5.53.53 0 0 1 .25-.43l135.88-78.45a.5.5 0 0 1 .5 0l135.87 78.46a.49.49 0 0 1 -.25.92zm-269.88-1h268l-134-77.37z"
        fill="#263238" />
    <path d="m187.11 147.27h67.43v92.97h-67.43z" fill="#fff" />
    <path
        d="m254.54 240.74h-67.43a.5.5 0 0 1 -.5-.5v-93a.5.5 0 0 1 .5-.5h67.43a.52.52 0 0 1 .5.5v93a.5.5 0 0 1 -.5.5zm-66.93-1h66.39v-92h-66.39z"
        fill="#263238" />
    <path d="m187.11 147.27h67.43v3.95h-67.43z" fill="#263238" />
    <path
        d="m254.54 151.73h-67.43a.5.5 0 0 1 -.5-.5v-4a.5.5 0 0 1 .5-.5h67.43a.52.52 0 0 1 .5.5v4a.51.51 0 0 1 -.5.5zm-66.93-1h66.39v-3h-66.39z"
        fill="#263238" />
    <path
        d="m237.66 240.24h-33.66v-58.11a16.83 16.83 0 0 1 16.82-16.84 16.84 16.84 0 0 1 16.84 16.84z"
        fill="#d2977c" />
    <path
        d="m237.66 240.74h-33.66a.5.5 0 0 1 -.5-.5v-58.11a17.34 17.34 0 0 1 34.67-.83v.83 58.11a.5.5 0 0 1 -.5.5zm-33.17-1h32.67v-57.61a16.34 16.34 0 0 0 -32.67-.81q0 .41 0 .81z"
        fill="#263238" />
    <path d="m43.53 169.32h156.18v70.92h-156.18z" fill="#fff" />
    <path
        d="m199.71 240.74h-156.18a.5.5 0 0 1 -.5-.5v-70.92a.5.5 0 0 1 .5-.5h156.18a.51.51 0 0 1 .5.5v70.92a.5.5 0 0 1 -.5.5zm-155.71-1h155.21v-69.9h-155.21z"
        fill="#263238" />
    <path d="m43.53 169.32h156.18v3.16h-156.18z" fill="#263238" />
    <path
        d="m199.71 173h-156.18a.5.5 0 0 1 -.5-.5v-3.16a.5.5 0 0 1 .5-.5h156.18a.51.51 0 0 1 .5.5v3.16a.5.5 0 0 1 -.5.5zm-155.71-1h155.21v-2.14h-155.21z"
        fill="#263238" />
    <path d="m60.25 174.67h121.81v65.07h-121.81z" fill="#a2bda2" />
    <path
        d="m182.52 240.74h-121.81a.5.5 0 0 1 -.5-.5v-65.07a.5.5 0 0 1 .5-.5h121.81a.51.51 0 0 1 .5.5v65.07a.5.5 0 0 1 -.5.5zm-121.31-1h120.79v-64.07h-120.79z"
        fill="#263238" />
    <path d="m121.62 117.43-82.89 47.86h165.78z" fill="#638a66" />
    <path
        d="m204.51 165.84h-165.78a.5.5 0 0 1 -.5-.5.53.53 0 0 1 .25-.43l82.89-47.86a.5.5 0 0 1 .5 0l82.89 47.79a.5.5 0 0 1 .17.69.49.49 0 0 1 -.42.24zm-163.91-1h162l-81-46.78z"
        fill="#263238" />
    <path d="m38.73 165.29h165.77v4.03h-165.77z" fill="#fff" />
    <path
        d="m204.51 169.84h-165.78a.5.5 0 0 1 -.5-.5v-4a.5.5 0 0 1 .5-.5h165.78a.51.51 0 0 1 .5.5v4a.5.5 0 0 1 -.5.5zm-165.28-1h164.77v-3h-164.77z"
        fill="#263238" />
    <path d="m220.82 120.29-42.92 24.78h85.85z" fill="#638a66" />
    <path
        d="m263.75 145.57h-85.85a.5.5 0 0 1 -.25-.93l42.92-24.8a.55.55 0 0 1 .5 0l42.93 24.8a.5.5 0 0 1 .17.69.49.49 0 0 1 -.42.24zm-84-1h82.12l-41.05-23.73z"
        fill="#263238" />
    <path d="m177.9 145.07h85.85v3.98h-85.85z" fill="#fff" />
    <path
        d="m263.75 149.55h-85.85a.5.5 0 0 1 -.5-.5v-4a.5.5 0 0 1 .5-.5h85.85a.51.51 0 0 1 .5.5v4a.5.5 0 0 1 -.5.5zm-85.35-1h84.85v-3h-84.85z"
        fill="#263238" />
    <path d="m65.15 180.4h9.86v9.86h-9.86z" fill="#f1cbb5" />
    <path
        d="m75 190.76h-9.86a.5.5 0 0 1 -.5-.5v-9.86a.5.5 0 0 1 .5-.5h9.86a.51.51 0 0 1 .5.5v9.86a.5.5 0 0 1 -.5.5zm-9.36-1h8.86v-8.86h-8.86z"
        fill="#263238" />
    <path d="m79.95 180.4h9.86v9.86h-9.86z" fill="#fff" />
    <path
        d="m89.81 190.76h-9.81a.5.5 0 0 1 -.5-.5v-9.86a.5.5 0 0 1 .5-.5h9.86a.51.51 0 0 1 .5.5v9.86a.51.51 0 0 1 -.5.51zm-9.36-1h8.86v-8.86h-8.86z"
        fill="#263238" />
    <path d="m94.74 180.4h9.86v9.86h-9.86z" fill="#f1cbb5" />
    <path
        d="m104.61 190.76h-9.87a.5.5 0 0 1 -.5-.5v-9.86a.5.5 0 0 1 .5-.5h9.87a.51.51 0 0 1 .5.5v9.86a.5.5 0 0 1 -.5.5zm-9.37-1h8.87v-8.86h-8.87z"
        fill="#263238" />
    <path d="m109.54 180.4h9.86v9.86h-9.86z" fill="#fff" />
    <path
        d="m119.41 190.76h-9.87a.5.5 0 0 1 -.5-.5v-9.86a.5.5 0 0 1 .5-.5h9.87a.51.51 0 0 1 .5.5v9.86a.5.5 0 0 1 -.5.5zm-9.37-1h8.87v-8.86h-8.91z"
        fill="#263238" />
    <path d="m124.34 180.4h9.86v9.86h-9.86z" fill="#fff" />
    <path
        d="m134.2 190.76h-9.86a.5.5 0 0 1 -.5-.5v-9.86a.5.5 0 0 1 .5-.5h9.86a.51.51 0 0 1 .5.5v9.86a.5.5 0 0 1 -.5.5zm-9.36-1h8.86v-8.86h-8.86z"
        fill="#263238" />
    <path d="m139.13 180.4h9.86v9.86h-9.86z" fill="#fff" />
    <path
        d="m149 190.76h-9.87a.5.5 0 0 1 -.5-.5v-9.86a.5.5 0 0 1 .5-.5h9.87a.51.51 0 0 1 .5.5v9.86a.5.5 0 0 1 -.5.5zm-9.37-1h8.87v-8.86h-8.87z"
        fill="#263238" />
    <path d="m153.93 180.4h9.86v9.86h-9.86z" fill="#fff" />
    <path
        d="m163.8 190.76h-9.87a.5.5 0 0 1 -.5-.5v-9.86a.5.5 0 0 1 .5-.5h9.87a.51.51 0 0 1 .5.5v9.86a.5.5 0 0 1 -.5.5zm-9.37-1h8.87v-8.86h-8.87z"
        fill="#263238" />
    <path d="m168.73 180.4h9.86v9.86h-9.86z" fill="#f1cbb5" />
    <path
        d="m178.59 190.76h-9.86a.5.5 0 0 1 -.5-.5v-9.86a.5.5 0 0 1 .5-.5h9.86a.51.51 0 0 1 .5.5v9.86a.5.5 0 0 1 -.5.5zm-9.36-1h8.86v-8.86h-8.86z"
        fill="#263238" />
    <path d="m65.15 194.92h9.86v9.86h-9.86z" fill="#fff" />
    <path
        d="m75 205.28h-9.86a.5.5 0 0 1 -.5-.5v-9.86a.5.5 0 0 1 .5-.5h9.86a.51.51 0 0 1 .5.5v9.86a.5.5 0 0 1 -.5.5zm-9.36-1h8.86v-8.86h-8.86z"
        fill="#263238" />
    <path d="m79.95 194.92h9.86v9.86h-9.86z" fill="#f1cbb5" />
    <path
        d="m89.81 205.28h-9.81a.5.5 0 0 1 -.5-.5v-9.86a.5.5 0 0 1 .5-.5h9.86a.51.51 0 0 1 .5.5v9.86a.51.51 0 0 1 -.5.51zm-9.36-1h8.86v-8.86h-8.86z"
        fill="#263238" />
    <path d="m94.74 194.92h9.86v9.86h-9.86z" fill="#fff" />
    <path
        d="m104.61 205.28h-9.87a.5.5 0 0 1 -.5-.5v-9.86a.5.5 0 0 1 .5-.5h9.87a.51.51 0 0 1 .5.5v9.86a.5.5 0 0 1 -.5.5zm-9.37-1h8.87v-8.86h-8.87z"
        fill="#263238" />
    <path d="m109.54 194.92h9.86v9.86h-9.86z" fill="#fff" />
    <path
        d="m119.41 205.28h-9.87a.5.5 0 0 1 -.5-.5v-9.86a.5.5 0 0 1 .5-.5h9.87a.51.51 0 0 1 .5.5v9.86a.5.5 0 0 1 -.5.5zm-9.37-1h8.87v-8.86h-8.91z"
        fill="#263238" />
    <path d="m124.34 194.92h9.86v9.86h-9.86z" fill="#f1cbb5" />
    <path
        d="m134.2 205.28h-9.86a.5.5 0 0 1 -.5-.5v-9.86a.5.5 0 0 1 .5-.5h9.86a.51.51 0 0 1 .5.5v9.86a.5.5 0 0 1 -.5.5zm-9.36-1h8.86v-8.86h-8.86z"
        fill="#263238" />
    <path d="m139.13 194.92h9.86v9.86h-9.86z" fill="#fff" />
    <path
        d="m149 205.28h-9.87a.5.5 0 0 1 -.5-.5v-9.86a.5.5 0 0 1 .5-.5h9.87a.51.51 0 0 1 .5.5v9.86a.5.5 0 0 1 -.5.5zm-9.37-1h8.87v-8.86h-8.87z"
        fill="#263238" />
    <path d="m153.93 194.92h9.86v9.86h-9.86z" fill="#fff" />
    <path
        d="m163.8 205.28h-9.87a.5.5 0 0 1 -.5-.5v-9.86a.5.5 0 0 1 .5-.5h9.87a.51.51 0 0 1 .5.5v9.86a.5.5 0 0 1 -.5.5zm-9.37-1h8.87v-8.86h-8.87z"
        fill="#263238" />
    <path d="m168.73 194.92h9.86v9.86h-9.86z" fill="#fff" />
    <path
        d="m178.59 205.28h-9.86a.5.5 0 0 1 -.5-.5v-9.86a.5.5 0 0 1 .5-.5h9.86a.51.51 0 0 1 .5.5v9.86a.5.5 0 0 1 -.5.5zm-9.36-1h8.86v-8.86h-8.86z"
        fill="#263238" />
    <path d="m65.15 209.43h9.86v9.86h-9.86z" fill="#fff" />
    <path
        d="m75 219.84h-9.86a.5.5 0 0 1 -.5-.5v-9.87a.5.5 0 0 1 .5-.5h9.86a.51.51 0 0 1 .5.5v9.87a.5.5 0 0 1 -.5.5zm-9.36-1h8.86v-8.84h-8.86z"
        fill="#263238" />
    <path d="m79.95 209.43h9.86v9.86h-9.86z" fill="#fff" />
    <path
        d="m89.81 219.84h-9.81a.5.5 0 0 1 -.5-.5v-9.87a.5.5 0 0 1 .5-.5h9.86a.51.51 0 0 1 .5.5v9.87a.51.51 0 0 1 -.5.51zm-9.36-1h8.86v-8.84h-8.86z"
        fill="#263238" />
    <path d="m94.74 209.43h9.86v9.86h-9.86z" fill="#fff" />
    <path
        d="m104.61 219.84h-9.87a.5.5 0 0 1 -.5-.5v-9.87a.5.5 0 0 1 .5-.5h9.87a.51.51 0 0 1 .5.5v9.87a.5.5 0 0 1 -.5.5zm-9.37-1h8.87v-8.84h-8.87z"
        fill="#263238" />
    <path d="m109.54 209.43h9.86v9.86h-9.86z" fill="#fff" />
    <path
        d="m119.41 219.84h-9.87a.5.5 0 0 1 -.5-.5v-9.87a.5.5 0 0 1 .5-.5h9.87a.51.51 0 0 1 .5.5v9.87a.51.51 0 0 1 -.5.5zm-9.41-1h8.87v-8.84h-8.87z"
        fill="#263238" />
    <path d="m124.34 209.43h9.86v9.86h-9.86z" fill="#fff" />
    <path
        d="m134.2 219.84h-9.86a.5.5 0 0 1 -.5-.5v-9.87a.5.5 0 0 1 .5-.5h9.86a.51.51 0 0 1 .5.5v9.87a.5.5 0 0 1 -.5.5zm-9.36-1h8.86v-8.84h-8.86z"
        fill="#263238" />
    <path d="m139.13 209.43h9.86v9.86h-9.86z" fill="#f1cbb5" />
    <path
        d="m149 219.84h-9.87a.5.5 0 0 1 -.5-.5v-9.87a.5.5 0 0 1 .5-.5h9.87a.51.51 0 0 1 .5.5v9.87a.5.5 0 0 1 -.5.5zm-9.37-1h8.87v-8.84h-8.87z"
        fill="#263238" />
    <path d="m153.93 209.43h9.86v9.86h-9.86z" fill="#fff" />
    <path
        d="m163.8 219.84h-9.87a.5.5 0 0 1 -.5-.5v-9.87a.5.5 0 0 1 .5-.5h9.87a.51.51 0 0 1 .5.5v9.87a.51.51 0 0 1 -.5.5zm-9.37-1h8.87v-8.84h-8.87z"
        fill="#263238" />
    <path d="m168.73 209.43h9.86v9.86h-9.86z" fill="#fff" />
    <path
        d="m178.59 219.84h-9.86a.5.5 0 0 1 -.5-.5v-9.87a.5.5 0 0 1 .5-.5h9.86a.51.51 0 0 1 .5.5v9.87a.5.5 0 0 1 -.5.5zm-9.36-1h8.86v-8.84h-8.86z"
        fill="#263238" />
    <path d="m65.15 223.95h9.86v9.86h-9.86z" fill="#fff" />
    <path
        d="m75 234.31h-9.86a.5.5 0 0 1 -.5-.5v-9.81a.5.5 0 0 1 .5-.5h9.86a.51.51 0 0 1 .5.5v9.89a.5.5 0 0 1 -.5.42zm-9.36-1h8.86v-8.86h-8.86z"
        fill="#263238" />
    <path d="m79.95 223.95h9.86v9.86h-9.86z" fill="#fff" />
    <path
        d="m89.81 234.31h-9.81a.5.5 0 0 1 -.5-.5v-9.81a.5.5 0 0 1 .5-.5h9.86a.51.51 0 0 1 .5.5v9.89a.51.51 0 0 1 -.53.48zm-9.36-1h8.86v-8.86h-8.86z"
        fill="#263238" />
    <path d="m94.74 223.95h9.86v9.86h-9.86z" fill="#fff" />
    <path
        d="m104.61 234.31h-9.87a.5.5 0 0 1 -.5-.5v-9.81a.5.5 0 0 1 .5-.5h9.87a.51.51 0 0 1 .5.5v9.89a.5.5 0 0 1 -.5.42zm-9.37-1h8.87v-8.86h-8.87z"
        fill="#263238" />
    <path d="m109.54 223.95h9.86v9.86h-9.86z" fill="#f1cbb5" />
    <path
        d="m119.41 234.31h-9.87a.5.5 0 0 1 -.5-.5v-9.81a.5.5 0 0 1 .5-.5h9.87a.51.51 0 0 1 .5.5v9.89a.5.5 0 0 1 -.5.42zm-9.37-1h8.87v-8.86h-8.91z"
        fill="#263238" />
    <path d="m124.34 223.95h9.86v9.86h-9.86z" fill="#fff" />
    <path
        d="m134.2 234.31h-9.86a.5.5 0 0 1 -.5-.5v-9.81a.5.5 0 0 1 .5-.5h9.86a.51.51 0 0 1 .5.5v9.89a.5.5 0 0 1 -.5.42zm-9.36-1h8.86v-8.86h-8.86z"
        fill="#263238" />
    <path d="m139.13 223.95h9.86v9.86h-9.86z" fill="#fff" />
    <path
        d="m149 234.31h-9.87a.5.5 0 0 1 -.5-.5v-9.81a.5.5 0 0 1 .5-.5h9.87a.51.51 0 0 1 .5.5v9.89a.5.5 0 0 1 -.5.42zm-9.37-1h8.87v-8.86h-8.87z"
        fill="#263238" />
    <path d="m153.93 223.95h9.86v9.86h-9.86z" fill="#fff" />
    <path
        d="m163.8 234.31h-9.87a.5.5 0 0 1 -.5-.5v-9.81a.5.5 0 0 1 .5-.5h9.87a.51.51 0 0 1 .5.5v9.89a.5.5 0 0 1 -.5.42zm-9.37-1h8.87v-8.86h-8.87z"
        fill="#263238" />
    <path d="m168.73 223.95h9.86v9.86h-9.86z" fill="#fff" />
    <path
        d="m178.59 234.31h-9.86a.5.5 0 0 1 -.5-.5v-9.81a.5.5 0 0 1 .5-.5h9.86a.51.51 0 0 1 .5.5v9.89a.5.5 0 0 1 -.5.42zm-9.36-1h8.86v-8.86h-8.86z"
        fill="#263238" />
    <path
        d="m210.78 240.74a.5.5 0 0 1 -.5-.5v-10.32a.5.5 0 0 1 .5-.5.51.51 0 0 1 .5.5v10.32a.5.5 0 0 1 -.5.5z"
        fill="#fff" />
    <path d="m228.91 240.24v-54.91h-18.13v40.04" fill="#263238" />
    <path
        d="m228.91 240.74a.5.5 0 0 1 -.5-.5v-54.4h-17.13v39.54a.5.5 0 0 1 -.5.5.5.5 0 0 1 -.5-.5v-40a.51.51 0 0 1 .5-.5h18.13a.52.52 0 0 1 .5.5v54.86a.5.5 0 0 1 -.5.5z"
        fill="#fff" />
    <path d="m343.29 240.24h-99.62v-92.97l49.81-26.98 49.81 26.98z" fill="#fff" />
    <path
        d="m343.29 240.74h-99.62a.5.5 0 0 1 -.5-.5v-93a.51.51 0 0 1 .26-.44l49.81-27a.51.51 0 0 1 .48 0l49.81 27a.51.51 0 0 1 .26.44v93a.5.5 0 0 1 -.5.5zm-99.12-1h98.62v-92.17l-49.31-26.73-49.31 26.71z"
        fill="#263238" />
    <path d="m350.9 151.23-57.42-31.11-57.42 31.11-1.79-3.3 59.21-32.08 59.21 32.08z" fill="#fff" />
    <path
        d="m350.9 151.73a.46.46 0 0 1 -.23-.06l-57.19-31-57.19 31a.5.5 0 0 1 -.38 0 .48.48 0 0 1 -.29-.25l-1.79-3.29a.5.5 0 0 1 .2-.68l59.21-32.08a.51.51 0 0 1 .48 0l59.21 32.08a.59.59 0 0 1 .24.3.5.5 0 0 1 0 .38l-1.79 3.29a.49.49 0 0 1 -.48.31zm-57.42-32.11a.53.53 0 0 1 .24.06l57 30.87 1.31-2.42-58.53-31.71-58.5 31.71 1.31 2.42 57-30.87a.49.49 0 0 1 .17-.06z"
        fill="#263238" />
    <path d="m243.67 147.27v2.26l49.81-26.98 49.81 26.98v-2.26l-49.81-26.98z" fill="#263238" />
    <path
        d="m343.29 150a.5.5 0 0 1 -.24-.06l-49.57-26.85-49.57 26.91a.48.48 0 0 1 -.49 0 .47.47 0 0 1 -.25-.43v-2.26a.51.51 0 0 1 .26-.44l49.81-27a.51.51 0 0 1 .48 0l49.81 27a.51.51 0 0 1 .26.44v2.26a.5.5 0 0 1 -.24.43.4.4 0 0 1 -.26 0zm-49.81-28a.53.53 0 0 1 .24.06l49.07 26.58v-1.12l-49.31-26.71-49.31 26.71v1.12l49.07-26.58a.64.64 0 0 1 .24 0z"
        fill="#263238" />
    <path d="m271.69 169.85v-9.8h42.98v48.85" fill="#fff" />
    <path
        d="m314.67 209.4a.5.5 0 0 1 -.5-.5v-48.35h-42v9.29a.5.5 0 0 1 -.5.5.5.5 0 0 1 -.5-.5v-9.84a.5.5 0 0 1 .5-.5h43a.51.51 0 0 1 .5.5v48.85a.5.5 0 0 1 -.49.51z"
        fill="#263238" />
    <path d="m314.67 213.95v9.62h-42.98v-49.99" fill="#fff" />
    <path
        d="m314.67 224.07h-43a.5.5 0 0 1 -.5-.5v-50a.5.5 0 0 1 .5-.5.51.51 0 0 1 .5.5v49.49h42v-9.12a.5.5 0 0 1 .5-.5.51.51 0 0 1 .5.5v9.62a.5.5 0 0 1 -.5.51z"
        fill="#263238" />
    <path d="m295.09 179.14h16.72v11.62h-16.72z" fill="#263238" />
    <path
        d="m311.8 191.26h-16.71a.5.5 0 0 1 -.5-.5v-11.62a.5.5 0 0 1 .5-.5h16.71a.51.51 0 0 1 .5.5v11.62a.5.5 0 0 1 -.5.5zm-16.21-1h15.71v-10.62h-15.71z"
        fill="#263238" />
    <path d="m295.09 194.58h16.72v11.62h-16.72z" fill="#d2977c" />
    <path
        d="m311.8 206.69h-16.71a.5.5 0 0 1 -.5-.5v-11.61a.5.5 0 0 1 .5-.5h16.71a.51.51 0 0 1 .5.5v11.61a.5.5 0 0 1 -.5.5zm-16.21-1h15.71v-10.61h-15.71z"
        fill="#263238" />
    <path d="m295.09 162.91h16.72v12.4h-16.72z" fill="#d2977c" />
    <path
        d="m311.8 175.84h-16.71a.5.5 0 0 1 -.5-.5v-12.43a.5.5 0 0 1 .5-.5h16.71a.51.51 0 0 1 .5.5v12.41a.5.5 0 0 1 -.48.52zm-16.21-1h15.71v-11.43h-15.71z"
        fill="#263238" />
    <path d="m274.55 162.91h16.72v12.4h-16.72z" fill="#263238" />
    <path
        d="m291.27 175.84h-16.72a.5.5 0 0 1 -.5-.5v-12.43a.5.5 0 0 1 .5-.5h16.72a.52.52 0 0 1 .5.5v12.41a.51.51 0 0 1 -.5.52zm-16.22-1h15.72v-11.43h-15.72z"
        fill="#263238" />
    <path d="m274.55 194.58h16.72v11.62h-16.72z" fill="#d2977c" />
    <path
        d="m291.27 206.69h-16.72a.5.5 0 0 1 -.5-.5v-11.61a.5.5 0 0 1 .5-.5h16.72a.51.51 0 0 1 .5.5v11.61a.5.5 0 0 1 -.5.5zm-16.22-1h15.72v-10.61h-15.72z"
        fill="#263238" />
    <path d="m274.55 179.14h16.72v11.62h-16.72z" fill="#d2977c" />
    <path
        d="m291.27 191.26h-16.72a.5.5 0 0 1 -.5-.5v-11.62a.5.5 0 0 1 .5-.5h16.72a.51.51 0 0 1 .5.5v11.62a.51.51 0 0 1 -.5.5zm-16.22-1h15.72v-10.62h-15.72z"
        fill="#263238" />
    <path d="m295.09 210.01h16.72v10.69h-16.72z" fill="#d2977c" />
    <path
        d="m310.83 220.2h-15.77a.46.46 0 0 1 -.47-.45v-9.75a.47.47 0 0 1 .47-.46h15.77a.47.47 0 0 1 .47.46v9.78a.46.46 0 0 1 -.47.42zm-15.3-.91h14.83v-8.86h-14.83z"
        fill="#263238" />
    <path d="m274.55 210.01h16.72v10.69h-16.72z" fill="#d2977c" />
    <g fill="#263238">
        <path
            d="m291.27 221.2h-16.72a.5.5 0 0 1 -.5-.5v-10.7a.5.5 0 0 1 .5-.5h16.72a.52.52 0 0 1 .5.5v10.7a.5.5 0 0 1 -.5.5zm-16.22-1h15.72v-9.69h-15.72z" />
        <path
            d="m293.17 279.09h-2a.5.5 0 0 1 -.5-.5.5.5 0 0 1 .5-.5h2a.51.51 0 0 1 .5.5.5.5 0 0 1 -.5.5zm-6 0h-2a.5.5 0 0 1 -.5-.5.5.5 0 0 1 .5-.5h2a.51.51 0 0 1 .5.5.5.5 0 0 1 -.5.5zm-6 0h-2a.5.5 0 0 1 -.5-.5.5.5 0 0 1 .5-.5h2a.51.51 0 0 1 .5.5.5.5 0 0 1 -.5.5zm-6 0h-2a.5.5 0 0 1 -.5-.5.5.5 0 0 1 .5-.5h2a.51.51 0 0 1 .5.5.5.5 0 0 1 -.5.5z" />
        <path
            d="m68.21 279.09h-.89a.49.49 0 0 1 -.47-.52.49.49 0 0 1 .51-.47h2a.51.51 0 0 1 .5.5.5.5 0 0 1 -.5.5zm187.14 0h-2a.5.5 0 0 1 -.5-.5.5.5 0 0 1 .5-.5h2a.51.51 0 0 1 .5.5.5.5 0 0 1 -.5.5zm-6 0h-2a.5.5 0 0 1 -.5-.5.5.5 0 0 1 .5-.5h2a.51.51 0 0 1 .5.5.5.5 0 0 1 -.5.5zm-6 0h-2a.5.5 0 0 1 -.5-.5.5.5 0 0 1 .5-.5h2a.51.51 0 0 1 .5.5.5.5 0 0 1 -.5.5zm-6 0h-2a.5.5 0 0 1 -.5-.5.5.5 0 0 1 .5-.5h2a.51.51 0 0 1 .5.5.5.5 0 0 1 -.5.5zm-6 0h-2a.5.5 0 0 1 -.5-.5.5.5 0 0 1 .5-.5h2a.51.51 0 0 1 .5.5.5.5 0 0 1 -.5.5zm-6 0h-2a.5.5 0 0 1 -.5-.5.5.5 0 0 1 .5-.5h2a.51.51 0 0 1 .5.5.5.5 0 0 1 -.5.5zm-6 0h-2a.5.5 0 0 1 -.5-.5.5.5 0 0 1 .5-.5h2a.51.51 0 0 1 .5.5.5.5 0 0 1 -.5.5zm-6 0h-2a.5.5 0 0 1 -.5-.5.5.5 0 0 1 .5-.5h2a.51.51 0 0 1 .5.5.5.5 0 0 1 -.5.5zm-6 0h-2a.5.5 0 0 1 -.5-.5.5.5 0 0 1 .5-.5h2a.51.51 0 0 1 .5.5.5.5 0 0 1 -.5.5zm-6 0h-2a.5.5 0 0 1 -.5-.5.5.5 0 0 1 .5-.5h2a.51.51 0 0 1 .5.5.5.5 0 0 1 -.5.5zm-6 0h-2a.5.5 0 0 1 -.5-.5.5.5 0 0 1 .5-.5h2a.51.51 0 0 1 .5.5.5.5 0 0 1 -.5.5zm-6 0h-2a.5.5 0 0 1 -.5-.5.5.5 0 0 1 .5-.5h2a.51.51 0 0 1 .5.5.5.5 0 0 1 -.5.5zm-6 0h-2a.5.5 0 0 1 -.5-.5.5.5 0 0 1 .5-.5h2a.51.51 0 0 1 .5.5.5.5 0 0 1 -.5.5zm-6 0h-2a.5.5 0 0 1 -.5-.5.5.5 0 0 1 .5-.5h2a.51.51 0 0 1 .5.5.5.5 0 0 1 -.5.5zm-6 0h-2a.5.5 0 0 1 -.5-.5.5.5 0 0 1 .5-.5h2a.51.51 0 0 1 .5.5.5.5 0 0 1 -.5.5zm-6 0h-2a.5.5 0 0 1 -.5-.5.5.5 0 0 1 .5-.5h2a.51.51 0 0 1 .5.5.5.5 0 0 1 -.5.5zm-6 0h-2a.5.5 0 0 1 -.5-.5.5.5 0 0 1 .5-.5h2a.51.51 0 0 1 .5.5.5.5 0 0 1 -.5.5zm-6 0h-2a.5.5 0 0 1 -.5-.5.5.5 0 0 1 .5-.5h2a.51.51 0 0 1 .5.5.5.5 0 0 1 -.5.5zm-6 0h-2a.5.5 0 0 1 -.5-.5.5.5 0 0 1 .5-.5h2a.51.51 0 0 1 .5.5.5.5 0 0 1 -.5.5zm-6 0h-2a.5.5 0 0 1 -.5-.5.5.5 0 0 1 .5-.5h2a.51.51 0 0 1 .5.5.5.5 0 0 1 -.5.5zm-6 0h-2a.5.5 0 0 1 -.5-.5.5.5 0 0 1 .5-.5h2a.51.51 0 0 1 .5.5.5.5 0 0 1 -.5.5zm-6 0h-2a.5.5 0 0 1 -.5-.5.5.5 0 0 1 .5-.5h2a.51.51 0 0 1 .5.5.5.5 0 0 1 -.5.5zm-6 0h-2a.5.5 0 0 1 -.5-.5.5.5 0 0 1 .5-.5h2a.51.51 0 0 1 .5.5.5.5 0 0 1 -.5.5zm-6 0h-2a.5.5 0 0 1 -.5-.5.5.5 0 0 1 .5-.5h2a.51.51 0 0 1 .5.5.5.5 0 0 1 -.5.5zm-6 0h-2a.5.5 0 0 1 -.5-.5.5.5 0 0 1 .5-.5h2a.51.51 0 0 1 .5.5.5.5 0 0 1 -.5.5zm-6 0h-2a.5.5 0 0 1 -.5-.5.5.5 0 0 1 .5-.5h2a.51.51 0 0 1 .5.5.5.5 0 0 1 -.5.5zm-6 0h-2a.5.5 0 0 1 -.5-.5.5.5 0 0 1 .5-.5h2a.51.51 0 0 1 .5.5.5.5 0 0 1 -.5.5zm-6 0h-2a.5.5 0 0 1 -.5-.5.5.5 0 0 1 .5-.5h2a.51.51 0 0 1 .5.5.5.5 0 0 1 -.5.5zm-6 0h-2a.5.5 0 0 1 -.5-.5.5.5 0 0 1 .5-.5h2a.51.51 0 0 1 .5.5.5.5 0 0 1 -.5.5zm-6 0h-2a.5.5 0 0 1 -.5-.5.5.5 0 0 1 .5-.5h2a.51.51 0 0 1 .5.5.5.5 0 0 1 -.5.5zm-6 0h-2a.5.5 0 0 1 -.5-.5.5.5 0 0 1 .5-.5h2a.51.51 0 0 1 .5.5.5.5 0 0 1 -.5.5zm-11.92-.77h-.15a14.46 14.46 0 0 1 -1.92-.76.5.5 0 0 1 -.24-.67.49.49 0 0 1 .66-.24 14.07 14.07 0 0 0 1.8.72.52.52 0 0 1 .42.63.51.51 0 0 1 -.58.42zm-5.2-2.9a.5.5 0 0 1 -.33-.12 15.25 15.25 0 0 1 -1.48-1.42.5.5 0 0 1 .68-.73v.05a16.08 16.08 0 0 0 1.4 1.34.5.5 0 0 1 -.32.88zm-3.74-4.64a.5.5 0 0 1 -.45-.27 15.14 15.14 0 0 1 -.84-1.88.5.5 0 0 1 .29-.64.5.5 0 0 1 .65.29 14 14 0 0 0 .79 1.77.5.5 0 0 1 -.22.68.54.54 0 0 1 -.22.05zm-1.72-5.71a.5.5 0 0 1 -.5-.45c0-.53-.08-1.06-.08-1.6v-.45a.5.5 0 0 1 .5-.5.51.51 0 0 1 .5.5v.43a14.91 14.91 0 0 0 .08 1.5.51.51 0 0 1 -.45.55zm-.08-6a.5.5 0 0 1 -.5-.5v-2a.5.5 0 0 1 .5-.5.51.51 0 0 1 .5.5v2a.5.5 0 0 1 -.5.5zm0-6a.5.5 0 0 1 -.5-.5v-2a.5.5 0 0 1 .5-.5.51.51 0 0 1 .5.5v2a.5.5 0 0 1 -.5.5zm0-6a.5.5 0 0 1 -.5-.5v-2a.5.5 0 0 1 .5-.5.51.51 0 0 1 .5.5v2a.5.5 0 0 1 -.5.5zm0-6a.5.5 0 0 1 -.5-.5v-2a.5.5 0 0 1 .5-.5.51.51 0 0 1 .5.5v2a.5.5 0 0 1 -.5.5zm0-6a.5.5 0 0 1 -.5-.5v-2a.5.5 0 0 1 .5-.5.51.51 0 0 1 .5.5v2a.5.5 0 0 1 -.5.5zm0-6a.5.5 0 0 1 -.5-.5v-2a.5.5 0 0 1 .5-.5.51.51 0 0 1 .5.5v2a.5.5 0 0 1 -.5.5zm0-6a.5.5 0 0 1 -.5-.5v-2a.5.5 0 0 1 .5-.5.51.51 0 0 1 .5.5v2a.5.5 0 0 1 -.5.5zm0-6a.5.5 0 0 1 -.5-.5v-2a.5.5 0 0 1 .5-.5.51.51 0 0 1 .5.5v2a.5.5 0 0 1 -.5.5zm0-6a.5.5 0 0 1 -.5-.5v-2a.5.5 0 0 1 .5-.5.51.51 0 0 1 .5.5v2a.5.5 0 0 1 -.5.5zm0-6a.5.5 0 0 1 -.5-.5v-2a.5.5 0 0 1 .5-.5.51.51 0 0 1 .5.5v2a.5.5 0 0 1 -.5.5zm0-6a.5.5 0 0 1 -.5-.5v-2a.5.5 0 0 1 .5-.5.51.51 0 0 1 .5.5v2a.5.5 0 0 1 -.5.5zm0-6a.5.5 0 0 1 -.5-.5v-2a.5.5 0 0 1 .5-.5.51.51 0 0 1 .5.5v2a.5.5 0 0 1 -.5.5zm0-6a.5.5 0 0 1 -.5-.5v-2a.5.5 0 0 1 .5-.5.51.51 0 0 1 .5.5v2a.5.5 0 0 1 -.5.5zm0-6a.5.5 0 0 1 -.5-.5v-2a.5.5 0 0 1 .5-.5.51.51 0 0 1 .5.5v2a.5.5 0 0 1 -.5.5zm0-6a.5.5 0 0 1 -.5-.5v-2a.5.5 0 0 1 .5-.5.51.51 0 0 1 .5.5v2a.5.5 0 0 1 -.5.5zm0-6a.5.5 0 0 1 -.5-.5v-2a.5.5 0 0 1 .5-.5.51.51 0 0 1 .5.5v2a.5.5 0 0 1 -.5.5zm0-6a.5.5 0 0 1 -.5-.5v-2a.5.5 0 0 1 .5-.5.51.51 0 0 1 .5.5v2a.5.5 0 0 1 -.5.5zm0-6a.5.5 0 0 1 -.5-.5v-2a.5.5 0 0 1 .5-.5.51.51 0 0 1 .5.5v2a.5.5 0 0 1 -.5.5zm0-6a.5.5 0 0 1 -.5-.5v-2a.5.5 0 0 1 .5-.5.51.51 0 0 1 .5.5v2a.5.5 0 0 1 -.5.5zm0-6a.5.5 0 0 1 -.5-.5v-2a.5.5 0 0 1 .5-.5.51.51 0 0 1 .5.5v2a.5.5 0 0 1 -.5.5zm0-6a.5.5 0 0 1 -.5-.5v-2a.5.5 0 0 1 .5-.5.51.51 0 0 1 .5.5v2a.5.5 0 0 1 -.5.5zm0-6a.5.5 0 0 1 -.5-.5v-2a.5.5 0 0 1 .5-.5.51.51 0 0 1 .5.5v2a.5.5 0 0 1 -.5.5zm0-6a.5.5 0 0 1 -.5-.5v-2a.5.5 0 0 1 .5-.5.51.51 0 0 1 .5.5v2a.5.5 0 0 1 -.5.5zm0-6a.5.5 0 0 1 -.5-.5v-2a.5.5 0 0 1 .5-.5.51.51 0 0 1 .5.5v2a.5.5 0 0 1 -.5.5zm0-6a.5.5 0 0 1 -.5-.5v-2a.5.5 0 0 1 .5-.5.51.51 0 0 1 .5.5v2a.5.5 0 0 1 -.5.5zm0-6a.5.5 0 0 1 -.5-.5v-2a.5.5 0 0 1 .5-.5.51.51 0 0 1 .5.5v2a.5.5 0 0 1 -.5.5zm0-6a.5.5 0 0 1 -.5-.5v-2a.5.5 0 0 1 .5-.5.51.51 0 0 1 .5.5v2a.5.5 0 0 1 -.5.5zm0-6a.5.5 0 0 1 -.5-.5v-2a.5.5 0 0 1 .5-.5.51.51 0 0 1 .5.5v2a.5.5 0 0 1 -.5.5zm0-6a.5.5 0 0 1 -.5-.5v-2a.5.5 0 0 1 .5-.5.51.51 0 0 1 .5.5v2a.5.5 0 0 1 -.5.5zm0-6a.5.5 0 0 1 -.5-.5v-2a.5.5 0 0 1 .5-.5.51.51 0 0 1 .5.5v2a.5.5 0 0 1 -.5.5zm0-6a.5.5 0 0 1 -.5-.5v-2a.5.5 0 0 1 .5-.5.51.51 0 0 1 .5.5v2a.5.5 0 0 1 -.5.5zm0-6a.5.5 0 0 1 -.5-.5v-2a.5.5 0 0 1 .5-.5.51.51 0 0 1 .5.5v2a.5.5 0 0 1 -.5.5zm0-6a.49.49 0 0 1 -.47-.52 16.86 16.86 0 0 1 .27-2 .51.51 0 0 1 .6-.4.52.52 0 0 1 .4.6 15.36 15.36 0 0 0 -.25 1.91.5.5 0 0 1 -.51.42zm1.53-5.76a.34.34 0 0 1 -.22-.05.49.49 0 0 1 -.23-.66 16.61 16.61 0 0 1 1-1.79.5.5 0 0 1 .69-.14.49.49 0 0 1 .15.69 14.3 14.3 0 0 0 -1 1.68.49.49 0 0 1 -.35.28zm3.59-4.76a.44.44 0 0 1 -.37-.16.48.48 0 0 1 0-.7 16.88 16.88 0 0 1 1.62-1.28.5.5 0 0 1 .61.79 16 16 0 0 0 -1.52 1.2.43.43 0 0 1 -.26.13zm5.11-3.07a.48.48 0 0 1 -.47-.33.5.5 0 0 1 .3-.64 16.94 16.94 0 0 1 2-.57.5.5 0 0 1 .6.38.49.49 0 0 1 -.37.59 15.19 15.19 0 0 0 -1.86.54.23.23 0 0 1 -.11 0zm7.89-.92h-2a.5.5 0 0 1 -.5-.5.5.5 0 0 1 .5-.5h2a.51.51 0 0 1 .5.5.5.5 0 0 1 -.46.5z" />
        <path
            d="m330.24 68.12a.5.5 0 0 1 -.5-.5 15.63 15.63 0 0 0 -.12-1.93.5.5 0 0 1 .43-.56.53.53 0 0 1 .56.43 17.8 17.8 0 0 1 .13 2.06.5.5 0 0 1 -.5.5zm-1.14-5.85a.47.47 0 0 1 -.46-.31 16.45 16.45 0 0 0 -.85-1.74.52.52 0 0 1 .19-.69.51.51 0 0 1 .68.19 15.93 15.93 0 0 1 .9 1.86.5.5 0 0 1 -.26.65.43.43 0 0 1 -.19 0zm-3.26-5a.45.45 0 0 1 -.36-.16 16.25 16.25 0 0 0 -1.48-1.27.5.5 0 0 1 0-.72.51.51 0 0 1 .61-.07 16.82 16.82 0 0 1 1.53 1.39.51.51 0 0 1 0 .72.48.48 0 0 1 -.32.13zm-4.9-3.41a.34.34 0 0 1 -.2 0 14.5 14.5 0 0 0 -1.81-.66.48.48 0 0 1 -.34-.61.51.51 0 0 1 .62-.33 18.66 18.66 0 0 1 1.94.7.51.51 0 0 1 .25.66.48.48 0 0 1 -.46.24zm-5.81-1.31h-2a.5.5 0 0 1 -.5-.5.5.5 0 0 1 .5-.5h2a.52.52 0 0 1 .49.51.5.5 0 0 1 -.49.49zm-6 0h-2a.5.5 0 0 1 -.5-.5.5.5 0 0 1 .5-.5h2a.51.51 0 0 1 .5.5.5.5 0 0 1 -.49.51zm-6 0h-2a.5.5 0 0 1 -.5-.5.5.5 0 0 1 .5-.5h2a.51.51 0 0 1 .5.5.5.5 0 0 1 -.49.51zm-6 0h-2a.5.5 0 0 1 -.5-.5.5.5 0 0 1 .5-.5h2a.51.51 0 0 1 .5.5.5.5 0 0 1 -.49.51zm-6 0h-2a.5.5 0 0 1 -.5-.5.5.5 0 0 1 .5-.5h2a.51.51 0 0 1 .5.5.5.5 0 0 1 -.49.51zm-6 0h-2a.5.5 0 0 1 -.5-.5.5.5 0 0 1 .5-.5h2a.51.51 0 0 1 .5.5.5.5 0 0 1 -.49.51zm-6 0h-2a.5.5 0 0 1 -.5-.5.5.5 0 0 1 .5-.5h2a.51.51 0 0 1 .5.5.5.5 0 0 1 -.49.51zm-6 0h-2a.5.5 0 0 1 -.5-.5.5.5 0 0 1 .5-.5h2a.51.51 0 0 1 .5.5.5.5 0 0 1 -.49.51zm-6 0h-2a.5.5 0 0 1 -.5-.5.5.5 0 0 1 .5-.5h2a.51.51 0 0 1 .5.5.5.5 0 0 1 -.49.51zm-6 0h-2a.5.5 0 0 1 -.5-.5.5.5 0 0 1 .5-.5h2a.51.51 0 0 1 .5.5.5.5 0 0 1 -.49.51zm-6 0h-2a.5.5 0 0 1 -.5-.5.5.5 0 0 1 .5-.5h2a.51.51 0 0 1 .5.5.5.5 0 0 1 -.49.51zm-6 0h-2a.5.5 0 0 1 -.5-.5.5.5 0 0 1 .5-.5h2a.51.51 0 0 1 .5.5.5.5 0 0 1 -.49.51zm-6 0h-2a.5.5 0 0 1 -.5-.5.5.5 0 0 1 .5-.5h2a.51.51 0 0 1 .5.5.5.5 0 0 1 -.49.51zm-6 0h-2a.5.5 0 0 1 -.5-.5.5.5 0 0 1 .5-.5h2a.51.51 0 0 1 .5.5.5.5 0 0 1 -.49.51zm-6 0h-2a.5.5 0 0 1 -.5-.5.5.5 0 0 1 .5-.5h2a.51.51 0 0 1 .5.5.5.5 0 0 1 -.49.51zm-6 0h-2a.5.5 0 0 1 -.5-.5.5.5 0 0 1 .5-.5h2a.51.51 0 0 1 .5.5.5.5 0 0 1 -.49.51zm-6 0h-2a.5.5 0 0 1 -.5-.5.5.5 0 0 1 .5-.5h2a.51.51 0 0 1 .5.5.5.5 0 0 1 -.49.51zm-6 0h-2a.5.5 0 0 1 -.5-.5.5.5 0 0 1 .5-.5h2a.51.51 0 0 1 .5.5.5.5 0 0 1 -.49.51zm-6 0h-2a.5.5 0 0 1 -.5-.5.5.5 0 0 1 .5-.5h2a.51.51 0 0 1 .5.5.5.5 0 0 1 -.49.51zm-6 0h-2a.5.5 0 0 1 -.5-.5.5.5 0 0 1 .5-.5h2a.51.51 0 0 1 .5.5.5.5 0 0 1 -.49.51zm-6 0h-2a.5.5 0 0 1 -.5-.5.5.5 0 0 1 .5-.5h2a.51.51 0 0 1 .5.5.5.5 0 0 1 -.49.51zm-6 0h-2a.5.5 0 0 1 -.5-.5.5.5 0 0 1 .5-.5h2a.51.51 0 0 1 .5.5.5.5 0 0 1 -.49.51zm-6 0h-2a.5.5 0 0 1 -.5-.5.5.5 0 0 1 .5-.5h2a.51.51 0 0 1 .5.5.5.5 0 0 1 -.49.51zm-6 0h-2a.5.5 0 0 1 -.5-.5.5.5 0 0 1 .5-.5h2a.51.51 0 0 1 .5.5.5.5 0 0 1 -.49.51zm-6 0h-2a.5.5 0 0 1 -.5-.5.5.5 0 0 1 .5-.5h2a.51.51 0 0 1 .5.5.5.5 0 0 1 -.49.51zm-6 0h-2a.5.5 0 0 1 -.5-.5.5.5 0 0 1 .5-.5h2a.51.51 0 0 1 .5.5.5.5 0 0 1 -.49.51zm-6 0h-2a.5.5 0 0 1 -.5-.5.5.5 0 0 1 .5-.5h2a.51.51 0 0 1 .5.5.5.5 0 0 1 -.49.51zm-6 0h-2a.5.5 0 0 1 -.5-.5.5.5 0 0 1 .5-.5h2a.51.51 0 0 1 .5.5.5.5 0 0 1 -.49.51zm-6 0h-2a.5.5 0 0 1 -.5-.5.5.5 0 0 1 .5-.5h2a.51.51 0 0 1 .5.5.5.5 0 0 1 -.49.51zm-6 0h-2a.5.5 0 0 1 -.5-.5.5.5 0 0 1 .5-.5h2a.51.51 0 0 1 .5.5.5.5 0 0 1 -.49.51zm-6 0h-2a.5.5 0 0 1 -.5-.5.5.5 0 0 1 .5-.5h2a.51.51 0 0 1 .5.5.5.5 0 0 1 -.49.51zm-6 0h-2a.5.5 0 0 1 -.5-.5.5.5 0 0 1 .5-.5h2a.51.51 0 0 1 .5.5.5.5 0 0 1 -.49.51zm-6 0h-2a.5.5 0 0 1 -.5-.5.5.5 0 0 1 .5-.5h2a.51.51 0 0 1 .5.5.5.5 0 0 1 -.49.51zm-6 0h-2a.5.5 0 0 1 -.5-.5.5.5 0 0 1 .5-.5h2a.51.51 0 0 1 .5.5.5.5 0 0 1 -.49.51zm-6 0h-2a.5.5 0 0 1 -.5-.5.5.5 0 0 1 .5-.5h2a.51.51 0 0 1 .5.5.5.5 0 0 1 -.49.51zm-6 0h-2a.5.5 0 0 1 -.5-.5.5.5 0 0 1 .5-.5h2a.51.51 0 0 1 .5.5.5.5 0 0 1 -.49.51zm-6 0h-2a.5.5 0 0 1 -.5-.5.5.5 0 0 1 .5-.5h2a.51.51 0 0 1 .5.5.5.5 0 0 1 -.49.51zm-6 0h-2a.5.5 0 0 1 -.5-.5.5.5 0 0 1 .5-.5h2a.51.51 0 0 1 .5.5.5.5 0 0 1 -.49.51zm-6 0h-2a.5.5 0 0 1 -.5-.5.5.5 0 0 1 .5-.5h2a.51.51 0 0 1 .5.5.5.5 0 0 1 -.49.51z" />
    </g>
    <path
        d="m329.83 75.1a64.13 64.13 0 1 0 64.49 63.77 64.13 64.13 0 0 0 -64.49-63.77zm.65 115.6a51.47 51.47 0 1 1 51.18-51.76 51.47 51.47 0 0 1 -51.18 51.76z"
        fill="#fff" />
    <path
        d="m330.18 203.84a64.63 64.63 0 1 1 -.35-129.26h.37a64.63 64.63 0 0 1 .35 129.26zm0-128.26h-.37a63.63 63.63 0 1 0 .37 127.26h.37a63.63 63.63 0 0 0 -.35-127.26zm0 115.6a52 52 0 0 1 -.29-103.93h.29a52 52 0 0 1 .29 103.93zm.29-1a51 51 0 0 0 -.29-101.93h-.29a51 51 0 0 0 .29 101.93z"
        fill="#263238" />
    <path
        d="m329.81 71.43a64.13 64.13 0 1 0 64.49 63.77 64.13 64.13 0 0 0 -64.49-63.77zm.65 115.57a51.47 51.47 0 1 1 51.17-51.76 51.47 51.47 0 0 1 -51.17 51.76z"
        fill="#fff" />
    <path
        d="m330.16 200.18a64.46 64.46 0 1 1 .37 0zm0-128.25h-.37a63.63 63.63 0 0 0 .35 127.25h.37a63.63 63.63 0 0 0 -.35-127.25zm0 115.59a52 52 0 0 1 -.28-103.93h.3a52 52 0 0 1 .28 103.93zm0-102.93h-.3a51 51 0 0 0 .28 101.93h.3a51 51 0 0 0 -.28-101.93z"
        fill="#263238" />
    <rect fill="#638a66" height="57.18" rx="2.88"
        transform="matrix(.99995052 -.00994821 .00994821 .99995052 -2.26 3.34)" width="15.52"
        x="324.76" y="199.44" />
    <path
        d="m326.38 258.84a3.4 3.4 0 0 1 -3.38-3.37l-.29-51.41a3.39 3.39 0 0 1 1-2.4 3.35 3.35 0 0 1 2.39-1l9.75-.06a3.57 3.57 0 0 1 2.4 1 3.35 3.35 0 0 1 1 2.39l.29 51.41a3.4 3.4 0 0 1 -3.36 3.41l-9.75.05zm9.47-57.24-9.76.06a2.39 2.39 0 0 0 -1.68.7 2.43 2.43 0 0 0 -.69 1.69l.29 51.42a2.39 2.39 0 0 0 .71 1.68 2.28 2.28 0 0 0 1.67.69h9.75a2.39 2.39 0 0 0 2.37-2.4l-.29-51.44a2.37 2.37 0 0 0 -.7-1.68 2.42 2.42 0 0 0 -1.67-.71z"
        fill="#263238" />
    <path
        d="m337.49 327.6-13.11.08a7.3 7.3 0 0 1 -7.35-7.27v-76.75a5.71 5.71 0 0 1 5.68-5.74l16.29-.08a5.7 5.7 0 0 1 5.74 5.66v76.77a7.29 7.29 0 0 1 -7.25 7.33z"
        fill="#263238" />
    <path
        d="m324.34 328.17a7.8 7.8 0 0 1 -7.81-7.76v-76.75a6.21 6.21 0 0 1 6.17-6.24l16.31-.09a6.21 6.21 0 0 1 6.21 6.17v76.76a7.8 7.8 0 0 1 -7.76 7.84l-13.11.07zm14.66-89.84-16.3.09a5.21 5.21 0 0 0 -5.18 5.24v76.75a6.81 6.81 0 0 0 6.81 6.76l13.11-.07a6.79 6.79 0 0 0 6.77-6.83v-76.76a5.22 5.22 0 0 0 -5.21-5.18z"
        fill="#263238" />
</svg>