<svg enable-background="new 0 0 500 500" viewBox="0 0 500 500" xmlns="http://www.w3.org/2000/svg"><path d="m469.6 276.3c0 .1-96.2.3-214.9.3s-214.9-.1-214.9-.3 96.2-.3 214.9-.3 214.9.1 214.9.3z" fill="#e0e0e0"/><path d="m170.3 240c-18.6-5.2-29.5-24.6-24.3-43.2.2-.6.3-1.1.5-1.7 2.4-7 6.9-13.2 8.8-20.3 2.2-8.1.9-16.7-.5-25s-2.8-16.9-.7-25 8.6-15.8 17-16.4c7.8-.5 14.9 5.2 18.2 12.3s3.3 15.2 2.5 23-2.2 15.5-1.8 23.3c.9 15.7 9.8 30.6 8.7 46.3-.5 8.2-3.7 13.4-9.1 19.6-4.6 5.2-12.4 8.7-19.3 7.1" fill="#f0f0f0"/><path d="m171.8 279.1c-.1 0-.2-28.4-.2-63.4s.1-63.4.2-63.4.2 28.4.2 63.4-.1 63.4-.2 63.4z" fill="#e0e0e0"/><path d="m185.9 202.6c.1.1-3 2.6-6.9 5.6s-7.1 5.4-7.1 5.3 3-2.6 6.9-5.6 7-5.4 7.1-5.3z" fill="#e0e0e0"/><path d="m171.8 200.7c-1.5-.8-3-1.7-4.3-2.7-1.4-.9-2.8-2-4.1-3.1 1.5.8 3 1.7 4.3 2.7 1.5 1 2.8 2 4.1 3.1z" fill="#e0e0e0"/><path d="m85.1 155.7-17.2 34.6 5.1.1-14.5 27.5h7.7l-11.9 24.4h66.4l-14.6-24.4 7-.3-14-27.4 5.2-.3z" fill="#f0f0f0"/><path d="m85.7 195.7c.1 0 0 17.9-.2 40.1s-.6 40.1-.7 40.1 0-17.9.2-40.1.6-40.1.7-40.1z" fill="#e0e0e0"/><path d="m95.6 206c-1.5 1.6-3.1 3-4.9 4.4-1.6 1.5-3.4 2.8-5.2 4 1.5-1.6 3.1-3 4.9-4.4 1.6-1.5 3.4-2.8 5.2-4z" fill="#e0e0e0"/><path d="m67.1 89h48.8s0-11.2-5.8-11.2c-4.3-.1-8 2.8-8.9 6.9 0 0 0-20.8-10.5-17.8-9.9 2.9-11 16.2-11 16.2s-1.8-6.7-7.2-2.9-5.4 8.8-5.4 8.8z" fill="#f0f0f0"/><path d="m481.9 439.5c0 .1-100.9.3-225.2.3s-225.3-.1-225.3-.3 100.8-.3 225.3-.3 225.2.2 225.2.3z" fill="#263238"/><path d="m223.4 140.8v183.6h206.5v-183.6h-22.4l-45.2-56.7-38.1 56.2z" fill="#638a66"/><path d="m224.3 144.6v183.6h206.5v-183.6h-22.3l-45.2-56.7-38.2 56.1z" fill="#fff" opacity=".05"/><path d="m264.2 73.3c-1 1.4-59.3 70.1-59.3 70.1h117.9l39.5-59.3 45.2 56.7 41.4-.1-50.5-69.1z" fill="#263238"/><path d="m254.4 316.8h48.9v7.6h-48.9z" fill="#e6e6e6"/><path d="m243.2 328.2h65.3v5.9h-65.3z" fill="#e6e6e6"/><path d="m257.7 243 .4 73.4h42v-73.4z" fill="#d2977c"/><path d="m257.5 243 .4 73.4h42v-73.4z" opacity=".2"/><circle cx="290.7" cy="279.7" opacity=".4" r="1.9"/><path d="m279 217.8-38.7 31.9v8.8l39.1-31.7 35.8 29.3v-9.2z" fill="#263238"/><path d="m291 63.8h9.1v12.6h-9.1z" fill="#ff725e"/><path d="m306.2 57.2h9.5v19.2h-9.5z" fill="#ff725e"/><g opacity=".4"><path d="m291 63.8h9.1v12.6h-9.1z"/><path d="m306.2 57.2h9.5v19.2h-9.5z"/></g><path d="m358.4 113.6h10.7v10.7h-10.7z" fill="#fff"/><path d="m322.8 143.5h5.7l37.4-54.9-3.6-4.5z" opacity=".1"/><path d="m223.4 143.5v5.9l99.4-5.9z" opacity=".1"/><path d="m407.5 140.8 22.4 7.4v-7.4z" opacity=".1"/><path d="m249.3 321.5h56.9v7.4h-56.9z" fill="#e6e6e6"/><path d="m304.7 321.6c0 .1-12.3.3-27.5.3s-27.5-.1-27.5-.3 12.3-.3 27.5-.3 27.5.1 27.5.3z" fill="#e0e0e0"/><path d="m304.7 328.2c0 .1-12.3.3-27.5.3s-27.5-.1-27.5-.3 12.3-.3 27.5-.3 27.5.1 27.5.3z" fill="#e0e0e0"/><path d="m254.4 153.6h47.4v45h-47.4z" fill="#fff"/><path d="m275.9 153.6s-13.4 22.9-20.8 23.1c0 0 6.8 3.5 7.3 21.9h-8v-45z" fill="#a2bda2"/><path d="m280.4 153.6s13.4 22.9 20.8 23.1c0 0-6.8 3.5-7.3 21.9h8v-45z" fill="#a2bda2"/><path d="m277 153.2h1.5v48h-1.5z" fill="#263238"/><path d="m253.7 176.5h48v1.5h-48z" fill="#263238"/><path d="m251.3 198.7h52.9v1.1h-52.9z" fill="#263238"/><path d="m353.4 153.6h47.4v45h-47.4z" fill="#fff"/><path d="m374.8 153.6s-13.4 22.9-20.8 23.1c0 0 6.8 3.5 7.3 21.9h-8v-45z" fill="#a2bda2"/><path d="m379.3 153.6s13.4 22.9 20.8 23.1c0 0-6.8 3.5-7.3 21.9h8v-45z" fill="#a2bda2"/><path d="m375.9 153.2h1.5v48h-1.5z" fill="#263238"/><path d="m352.7 176.5h48v1.5h-48z" fill="#263238"/><path d="m350.2 198.7h52.9v1.1h-52.9z" fill="#263238"/><path d="m353.4 248.7h47.4v45h-47.4z" fill="#fff"/><path d="m375.1 249.3s-13.6 22.6-21 22.8c0 0 6.9 3.4 7.4 21.6h-8.1v-44.4z" fill="#a2bda2"/><path d="m379.3 248.7s13.4 22.9 20.8 23.1c0 0-6.8 3.5-7.3 21.9h8v-45z" fill="#a2bda2"/><path d="m375.9 248.3h1.5v48h-1.5z" fill="#263238"/><path d="m352.7 271.6h48v1.5h-48z" fill="#263238"/><path d="m350.2 293.7h52.9v1.1h-52.9z" fill="#263238"/><path d="m228.2 288.5v150.3h12.9v-140.2h98.1v-10.1z" fill="#455a64"/><path d="m236.9 298.6h4.2v140.2h-4.2z" fill="#263238"/><path d="m331.4 288.5h7.9v10.1h-7.9z" fill="#263238"/><path d="m246.8 305.9h94.7v59.7h-94.7z" fill="#ff725e"/><path d="m246.8 305.9h94.7v59.7h-94.7z" fill="#f1cbb5"/><path d="m336.3 305.9h5.2v59.7h-5.2z" fill="#ff725e"/><path d="m336.3 305.9h5.2v59.7h-5.2z" opacity=".2"/><path d="m331.4 360.5s0-.3 0-.9 0-1.5 0-2.6c0-2.3 0-5.6 0-9.9 0-8.6-.1-20.9-.1-36l.2.2-79 .1.3-.3v49.5l-.2-.2 56.8.1 16.3.1h4.4 1.1l.2-.1h-1.4-4.3l-16.3.1-57 .1h-.2v-.2c0-15.2 0-31.9 0-49.5v-.3h.3l79 .1h.2v.3c0 15.1-.1 27.5-.1 36.1 0 4.3 0 7.6-.1 9.9v2.6c-.1.5-.1.8-.1.8z" fill="#263238"/><path d="m262.3 298.6h2.8v5.2h-2.8z" fill="#f1cbb5"/><path d="m308.6 298.6h2.8v5.2h-2.8z" fill="#f1cbb5"/><path d="m278.1 323.4v3.1h6.3v3.1h-6.3v4.9h-4v-14.3h11.2v3.1h-7.2z" fill="#ff725e"/><path d="m278.1 323.4v3.1h6.3v3.1h-6.3v4.9h-4v-14.3h11.2v3.1h-7.2z" opacity=".2"/><path d="m286.3 327.4c0-4.3 3.4-7.4 7.9-7.4s7.9 3.1 7.9 7.4-3.4 7.4-7.9 7.4-7.9-3.2-7.9-7.4zm11.8 0c-.1-2.1-1.9-3.8-4.1-3.6-2.1.1-3.8 1.9-3.6 4.1.1 2 1.8 3.6 3.9 3.6s3.8-1.7 3.9-3.8c-.1-.1-.1-.2-.1-.3z" fill="#ff725e"/><path d="m286.3 327.4c0-4.3 3.4-7.4 7.9-7.4s7.9 3.1 7.9 7.4-3.4 7.4-7.9 7.4-7.9-3.2-7.9-7.4zm11.8 0c-.1-2.1-1.9-3.8-4.1-3.6-2.1.1-3.8 1.9-3.6 4.1.1 2 1.8 3.6 3.9 3.6s3.8-1.7 3.9-3.8c-.1-.1-.1-.2-.1-.3z" opacity=".2"/><path d="m310.5 330.7h-2.2v3.8h-4v-14.3h6.5c3.9 0 6.3 2 6.3 5.3.1 1.9-1 3.7-2.8 4.5l3.1 4.5h-4.3zm0-7.3h-2.2v4.2h2.2c1.7 0 2.5-.8 2.5-2.1s-.8-2.1-2.5-2.1z" fill="#ff725e"/><path d="m310.5 330.7h-2.2v3.8h-4v-14.3h6.5c3.9 0 6.3 2 6.3 5.3.1 1.9-1 3.7-2.8 4.5l3.1 4.5h-4.3zm0-7.3h-2.2v4.2h2.2c1.7 0 2.5-.8 2.5-2.1s-.8-2.1-2.5-2.1z" opacity=".2"/><path d="m266.8 353.5 1.4-3.1c1.5.9 3.2 1.5 4.9 1.5 1.8 0 2.4-.5 2.4-1.2 0-2.4-8.5-.6-8.5-6.2 0-2.7 2.2-4.9 6.6-4.9 1.9 0 3.8.4 5.4 1.3l-1.3 3.1c-1.3-.7-2.7-1.1-4.1-1.2-1.8 0-2.4.6-2.4 1.4 0 2.3 8.5.6 8.5 6.1 0 2.6-2.2 4.8-6.6 4.8-2.2.1-4.4-.5-6.3-1.6z" fill="#ff725e"/><path d="m266.8 353.5 1.4-3.1c1.5.9 3.2 1.5 4.9 1.5 1.8 0 2.4-.5 2.4-1.2 0-2.4-8.5-.6-8.5-6.2 0-2.7 2.2-4.9 6.6-4.9 1.9 0 3.8.4 5.4 1.3l-1.3 3.1c-1.3-.7-2.7-1.1-4.1-1.2-1.8 0-2.4.6-2.4 1.4 0 2.3 8.5.6 8.5 6.1 0 2.6-2.2 4.8-6.6 4.8-2.2.1-4.4-.5-6.3-1.6z" opacity=".2"/><path d="m291.7 351.9h-6.3l-1.2 2.9h-4.3l6.6-15h4.2l6.6 15h-4.4zm-1.3-3.1-1.9-4.8-1.9 4.8z" fill="#ff725e"/><path d="m291.7 351.9h-6.3l-1.2 2.9h-4.3l6.6-15h4.2l6.6 15h-4.4zm-1.3-3.1-1.9-4.8-1.9 4.8z" opacity=".2"/><path d="m298.4 339.9h4.2v11.6h7.1v3.4h-11.4v-15z" fill="#ff725e"/><path d="m298.4 339.9h4.2v11.6h7.1v3.4h-11.4v-15z" opacity=".2"/><path d="m323.5 351.6v3.3h-12v-15h11.7v3.3h-7.5v2.5h6.6v3.2h-6.6v2.7z" fill="#ff725e"/><path d="m323.5 351.6v3.3h-12v-15h11.7v3.3h-7.5v2.5h6.6v3.2h-6.6v2.7z" opacity=".2"/><g fill="#263238"><path d="m329.5 315.1s-.1-.2-.2-.5c-.1-.4-.4-.8-.8-1-.5-.4-1.2-.5-1.8-.2-.7.3-1.2 1-1.2 1.7 0 .8.5 1.5 1.2 1.7.6.2 1.3.1 1.8-.2.4-.2.6-.6.8-1 .1-.2.2-.4.2-.5.1.1.1.2 0 .6-.1.5-.4 1-.8 1.3-.6.5-1.4.6-2.2.4-1.2-.4-1.8-1.8-1.4-3 .2-.7.7-1.2 1.4-1.4.7-.3 1.6-.1 2.2.4.4.3.7.8.8 1.3.1.2 0 .4 0 .4z"/><path d="m328.6 313.9c.1.1-.3.7-.8 1.3s-1.1 1-1.2.9.3-.7.8-1.3 1.1-1 1.2-.9z"/><path d="m328.8 315.9c0 .1-.8 0-1.5-.6s-1-1.2-.9-1.3.6.4 1.2.9 1.2.9 1.2 1z"/><path d="m328.7 357.3s-.1-.2-.2-.5c-.1-.4-.4-.8-.8-1-.5-.4-1.2-.5-1.8-.2-.7.3-1.2 1-1.2 1.7s.5 1.4 1.2 1.7c.6.2 1.3.1 1.8-.2.3-.3.6-.6.8-1 .1-.3.2-.5.2-.5s.1.2 0 .5c-.1.5-.3 1-.7 1.3-.6.5-1.4.6-2.2.4-1.2-.4-1.8-1.7-1.4-2.9.2-.7.8-1.2 1.4-1.4.7-.3 1.6-.1 2.2.4.4.3.7.8.7 1.3.1.2.1.4 0 .4z"/><path d="m327.8 356c.1.1-.3.7-.8 1.3s-1.1 1-1.2.9.3-.7.8-1.3 1.1-1 1.2-.9z"/><path d="m328 358.1c0 .1-.8 0-1.5-.6s-1-1.2-.9-1.3.6.4 1.2.9 1.3.8 1.2 1z"/><path d="m258.7 356.3s-.1-.2-.2-.5c-.1-.4-.4-.8-.8-1-.5-.4-1.2-.4-1.8-.2-.7.3-1.2 1-1.2 1.7 0 .8.5 1.4 1.2 1.7.6.2 1.3.1 1.8-.2.4-.2.6-.6.8-1 .2-.3.2-.5.2-.5.1 0 .1.2 0 .6-.1.5-.4 1-.8 1.3-.6.5-1.4.6-2.2.4-1.2-.4-1.8-1.8-1.4-3 .2-.7.7-1.2 1.4-1.4.7-.3 1.6-.1 2.2.4.4.3.7.8.8 1.3.1.2 0 .4 0 .4z"/><path d="m257.8 355c.1.1-.3.7-.8 1.3s-1.1 1-1.2.9.3-.7.8-1.3 1-1 1.2-.9z"/><path d="m258 357c0 .1-.8-.1-1.5-.6s-1-1.2-.9-1.3.6.4 1.2.9 1.2.9 1.2 1z"/><path d="m259.1 315.9s-.1-.2-.2-.5c-.1-.4-.4-.8-.8-1-.5-.4-1.2-.4-1.8-.2-.7.3-1.2 1-1.2 1.7 0 .8.5 1.5 1.2 1.7.6.2 1.3.1 1.8-.2.4-.2.6-.6.8-1 .1-.2.1-.4.2-.5.1.1.1.2 0 .6-.1.5-.4 1-.8 1.3-.6.5-1.4.6-2.2.4-1.2-.4-1.8-1.8-1.4-3 .2-.7.7-1.2 1.4-1.4.7-.3 1.6-.1 2.2.4.4.3.7.8.8 1.3.1.3 0 .4 0 .4z"/><path d="m258.1 314.7c.1.1-.3.7-.8 1.3s-1.1 1-1.2.9.3-.7.8-1.3 1.1-1 1.2-.9z"/><path d="m258.4 316.7c0 .1-.8-.1-1.5-.6s-1-1.2-.9-1.3.6.4 1.2.9 1.2.9 1.2 1z"/></g><path d="m274.1 323.4v3.1h6.3v3.1h-6.3v4.9h-4v-14.3h11.2v3.1h-7.2z" fill="#fafafa"/><path d="m282.3 327.4c0-4.3 3.4-7.4 7.9-7.4s7.9 3.1 7.9 7.4-3.4 7.4-7.9 7.4-7.9-3.2-7.9-7.4zm11.8 0c-.1-2.1-1.9-3.8-4.1-3.6-2.1.1-3.8 1.9-3.6 4.1.1 2 1.8 3.6 3.9 3.6s3.8-1.7 3.9-3.8c-.1-.1-.1-.2-.1-.3z" fill="#fafafa"/><path d="m306.5 330.7h-2.2v3.8h-4v-14.3h6.5c3.9 0 6.3 2 6.3 5.3.1 1.9-1 3.7-2.8 4.5l3.1 4.5h-4.3zm0-7.3h-2.2v4.2h2.2c1.7 0 2.5-.8 2.5-2.1s-.8-2.1-2.5-2.1z" fill="#fafafa"/><path d="m262.8 353.5 1.4-3.1c1.5.9 3.2 1.4 4.9 1.5 1.8 0 2.4-.5 2.4-1.2 0-2.4-8.5-.6-8.5-6.2 0-2.7 2.2-4.9 6.6-4.9 1.9 0 3.8.4 5.4 1.3l-1.3 3.1c-1.3-.7-2.7-1.1-4.1-1.2-1.8 0-2.4.6-2.4 1.4 0 2.3 8.5.6 8.5 6.1 0 2.6-2.2 4.8-6.6 4.8-2.3.1-4.4-.5-6.3-1.6z" fill="#fafafa"/><path d="m287.6 351.9h-6.3l-1.2 2.9h-4.3l6.6-15h4.2l6.6 15h-4.4zm-1.2-3.1-1.9-4.8-1.9 4.8z" fill="#fafafa"/><path d="m294.4 339.9h4.2v11.6h7.1v3.4h-11.4v-15z" fill="#fafafa"/><path d="m319.5 351.6v3.3h-12v-15h11.7v3.3h-7.5v2.5h6.6v3.2h-6.6v2.7z" fill="#fafafa"/><path d="m377.5 416.7c-6-3.2-8.4-7.8-9.8-14.5-1.4-6.8.2-13.8 4.4-19.3 3.5-4.5 8.6-7.8 11-12.9 2.5-5.5 1.6-12.5 5.5-17.1 2.7-3.2 6.9-4.5 10.4-6.9 2.8-2 4.9-4.6 7.4-7s5.5-4.4 8.9-4.5c5.1-.2 9.6 4.3 10.5 9.4s-1.5 10.2-5 14c-2.5 2.7-5.8 4.9-7.3 8.4-2.8 6.4 1.8 14.3-1.2 20.6-2.2 4.6-8.1 7.3-8.4 12.4-.1 1.9.6 3.7.8 5.5.6 5.8-4.3 11.1-9.9 12.8s-11.7.6-17.3-.9" fill="#a2bda2"/><path d="m406.6 356.2c-.1.3-.3.5-.5.8l-1.6 2.1c-.7.9-1.6 2-2.5 3.3s-2.1 2.8-3.1 4.5c-.6.9-1.1 1.7-1.8 2.7s-1.2 2-1.8 3c-1.3 2-2.4 4.3-3.6 6.7-5.2 10.5-8.8 21.7-10.6 33.2-.4 2.7-.8 5.2-.9 7.6-.1 1.2-.2 2.3-.3 3.5s-.1 2.2-.1 3.2c-.1 2 0 3.9 0 5.5s.1 3 .2 4.1.1 2 .1 2.6v.9c-.1-.3-.1-.6-.1-.9-.1-.7-.2-1.5-.3-2.6s-.3-2.5-.3-4.1-.2-3.5-.1-5.5c0-1 0-2.1.1-3.2s.1-2.3.2-3.5c.1-2.4.5-5 .8-7.6 1.7-11.6 5.3-22.9 10.6-33.4 1.3-2.4 2.4-4.7 3.7-6.7.6-1 1.2-2 1.8-3l1.8-2.7c1.1-1.7 2.3-3.2 3.3-4.5s1.9-2.4 2.6-3.2l1.7-2c.2-.4.5-.6.7-.8z" fill="#263238"/><path d="m351.2 394.8c2.4.2 4.7 1.4 6.2 3.3s2.6 4.1 3.1 6.4c1.2 4.5.4 9.8-.9 14.2-4.9-1.8-7.8-7-9.1-9.7-2.2-4.3-3.3-13.4.7-14.2" fill="#a2bda2"/><path d="m366.5 424.2c-1.5-2.3-1.6-5.2-.3-7.7 1.3-2.4 3.5-4.1 6.1-4.9 1.2-.5 2.5-.4 3.6.2.9.7 1.4 1.9 1.2 3.1s-.7 2.2-1.4 3.1c-2.3 3.3-5.2 6-9.2 6.2" fill="#ff725e"/><path d="m351.2 394.8c2.4.2 4.7 1.4 6.2 3.3s2.6 4.1 3.1 6.4c1.2 4.5.4 9.8-.9 14.2-4.9-1.8-7.8-7-9.1-9.7-2.2-4.3-3.3-13.4.7-14.2" opacity=".2"/><path d="m366.5 424.2c-1.5-2.3-1.6-5.2-.3-7.7 1.3-2.4 3.5-4.1 6.1-4.9 1.2-.5 2.5-.4 3.6.2.9.7 1.4 1.9 1.2 3.1s-.7 2.2-1.4 3.1c-2.3 3.3-5.2 6-9.2 6.2" opacity=".2"/><path d="m361.5 428.6c-3.2-4.8-8.6-7.6-14.3-7.8-1.4 0-3.1.3-3.7 1.6s.4 2.8 1.4 3.8c4.5 4.2 11.1 5.3 16.7 2.7" opacity=".2"/><path d="m361.5 428.6c-3.2-4.8-8.6-7.6-14.3-7.8-1.4 0-3.1.3-3.7 1.6s.4 2.8 1.4 3.8c4.5 4.2 11.1 5.3 16.7 2.7" fill="#a2bda2"/><path d="m366.6 439.6c-.1-.3-.2-.6-.2-.9-.1-.6-.3-1.5-.4-2.6-.5-2.9-.5-5.9-.2-8.8.4-3 1.5-5.8 3.3-8.1.6-.7 1.2-1.3 1.9-1.9.2-.2.5-.4.8-.5-.9.8-1.7 1.7-2.5 2.6-1.7 2.4-2.7 5.1-3.1 8-.3 2.9-.3 5.8.1 8.7.2 1.2.2 2.4.3 3.5z" fill="#263238"/><path d="m352.7 401.6c.3.5.5.9.7 1.4.4.9 1 2.3 1.8 4 1.5 3.4 3.4 8.1 5.4 13.4s3.7 10.1 4.9 13.6c.6 1.8 1 3.2 1.3 4.2.2.5.3 1 .4 1.6-.2-.5-.5-1-.6-1.5-.4-1.1-.9-2.5-1.5-4.1-1.3-3.5-3-8.3-5-13.6s-3.9-10-5.2-13.5l-1.6-4.1c-.3-.3-.5-.8-.6-1.4z" fill="#263238"/><path d="m349.6 424.4h.9c.4 0 .7.1 1.1.1.5.1 1 .2 1.4.3 1.2.3 2.4.7 3.6 1.3 1.4.7 2.7 1.5 3.9 2.5s2.3 2.1 3.2 3.3c.8 1 1.4 2.1 2 3.2.2.4.4.9.6 1.3.1.3.3.7.4 1s.2.6.2.9c-.1 0-.5-1.3-1.5-3.1-.6-1.1-1.2-2.1-2-3.1-1-1.2-2-2.3-3.2-3.2s-2.5-1.8-3.8-2.5c-1.1-.6-2.3-1-3.5-1.4-2-.4-3.3-.5-3.3-.6z" fill="#263238"/><path d="m123 436.4-.3 2.2s-5.8 13.7-4.8 14.7c1.5 1.4 3.7 1.8 5.6.9 2.6-1.1 12.3-13.5 12.3-13.5l.4-1.8z" fill="#ff725e"/><path d="m118.4 450.5s3.1-2 5.7 2c0 0 1.4-.8 4.8-4.7s6.8-7.9 6.8-7.9.4-.4.3 0-.1 1-.1 1l-6.6 8s-4 4.7-5.1 5.2c-1.1.7-2.5.9-3.8.6-1-.2-1.9-.8-2.5-1.6-.1-.2.5-2.6.5-2.6z" fill="#f0f0f0"/><path d="m124.8 453.8c-1.1-2.5-3.6-4-6.3-3.8.4-.1.8-.2 1.2-.2 1 0 1.9.3 2.7.8s1.5 1.2 2 2c.2.4.3.8.4 1.2z" fill="#263238"/><path d="m136.3 439.3c-.2.3-.4.5-.6.8l-1.7 2.1-5.8 6.7c-1 1.3-2.2 2.5-3.4 3.5-1 .9-2.3 1.4-3.7 1.5-.9 0-1.8-.3-2.6-.8-.3-.2-.5-.5-.6-.8.2.2.5.5.7.7.7.5 1.6.8 2.5.7 1.3-.1 2.5-.7 3.5-1.5 1.2-1.1 2.3-2.3 3.3-3.5l5.9-6.7 1.8-2c.2-.3.4-.5.7-.7z" fill="#263238"/><path d="m124.9 446.4c-.6-.1-1.1-.3-1.6-.6-.5-.2-1-.5-1.5-.8.6 0 1.1.2 1.7.5.5.2 1 .5 1.4.9z" fill="#263238"/><path d="m126.3 444.4c-.6-.1-1.3-.2-1.9-.4-.6-.1-1.2-.3-1.8-.6 1.3 0 2.6.4 3.7 1z" fill="#263238"/><path d="m127.6 442.6c-.1.1-.8-.4-1.9-.7s-2-.4-2-.5c1.4-.2 2.9.2 3.9 1.2z" fill="#263238"/><path d="m128.2 440.6c-.1.1-.8-.3-1.7-.5-.6-.1-1.2-.2-1.8-.4 1.2-.2 2.5.1 3.5.9z" fill="#455a64"/><path d="m127.5 438.9c-.4-.1-.8-.2-1.1-.5-.4-.2-.7-.5-1-.8-.2-.2-.3-.3-.5-.5-.1-.1-.2-.2-.3-.3-.1-.2-.1-.4 0-.5.2-.3.6-.4.9-.3s.5.2.7.3c.3.3.6.6.8 1s.2.8.2 1.1c0 0-.1-.4-.4-1.1-.2-.4-.4-.7-.7-.9s-.9-.4-1.2-.1c-.1.1 0 .3.2.5s.3.4.5.5c.3.3.6.5.9.8.6.6 1 .8 1 .8z" fill="#455a64"/><path d="m127.3 438.7c0-.4.1-.8.4-1.1.2-.4.5-.7.9-1 .2-.2.4-.3.7-.4.1-.1.3-.1.4-.1.2 0 .4.1.4.3.1.3 0 .6-.2.9-.1.2-.3.4-.5.6-.3.3-.7.5-1.1.7s-.8.2-1.2.1c.4-.1.8-.2 1.1-.3.4-.2.7-.4 1-.7.2-.2.3-.4.4-.6s.2-.4.2-.6c-.1-.1-.3-.2-.5-.1s-.4.2-.6.3c-.3.2-.6.5-.9.9-.3.7-.4 1.2-.5 1.1z" fill="#455a64"/><path d="m133.9 438.6c-.4 0-.7.1-1.1.3-.8.5-1.3 1.2-1.6 2.1s-.3 1.8-.1 2.6c.2.7.4 1 .4 1.1-.3-.3-.5-.6-.6-1-.3-.9-.3-1.9 0-2.8s1-1.7 1.8-2.1c.8-.5 1.3-.2 1.2-.2z" fill="#263238"/><path d="m130.2 444.4c-.3.6-.6 1.1-1.1 1.5-.4.5-.8.9-1.3 1.3.3-.6.6-1.1 1.1-1.5.3-.6.8-1 1.3-1.3z" fill="#263238"/><path d="m131.5 443.1c.1 0 .2.2.3.4s.1.5 0 .5-.3-.1-.3-.4-.1-.5 0-.5z" fill="#263238"/><path d="m131.7 441.1c.1 0 .1.3 0 .5s-.1.5-.2.5-.1-.2-.1-.5.2-.5.3-.5z" fill="#263238"/><path d="m132.8 439.5c.1.1-.1.3-.3.4s-.4.3-.4.3 0-.3.2-.5.5-.2.5-.2z" fill="#455a64"/><path d="m134.6 438.8c0 .1-.2.2-.4.3s-.5.1-.5 0 .1-.2.4-.3.5-.1.5 0z" fill="#455a64"/><path d="m155.1 441.4 2-9.1-17.1-3.8-3 13.3 1.1.3c4.7 1.3 23.8 6.3 27.2 6.1 3.6-.3-10.2-6.8-10.2-6.8z" fill="#ff725e"/><path d="m143.1 443c.1-1.5-.4-3-1.4-4.1-.9-1.2-2.3-1.9-3.7-2.1l-1.1 4.8z" fill="#ff725e"/><path d="m161.8 444.8s4.8 2.6 4 3.3-20.4-3.6-28.8-6.3l.1-.4 22.7 5.3s1-2.1 2-1.9z" fill="#f0f0f0"/><path d="m136.8 441.3c.1 0 .2.1.3.1l.8.2 3.1.8c2.6.7 6.2 1.6 10.2 2.5s7.6 1.6 10.3 2.1l3.1.6.9.1h.3c-.1 0-.2-.1-.3-.1l-.9-.2-3.1-.6c-2.6-.5-6.3-1.3-10.3-2.2s-7.6-1.7-10.2-2.4l-3.1-.8-.9-.2z" fill="#263238"/><path d="m159.7 446.9c.3-.5.6-.9.9-1.4.4-.4.9-.7 1.3-1-.6.1-1.1.4-1.5.8-.4.5-.6 1.1-.7 1.6z" fill="#263238"/><path d="m155.2 443.3s.4-.2.7-.5.6-.6.5-.7-.4.2-.7.5-.5.6-.5.7z" fill="#263238"/><path d="m154 442.2s.3-.1.7-.3.6-.4.6-.5-.3.1-.7.3-.6.5-.6.5z" fill="#263238"/><path d="m153.5 440.4c0 .1.4.2.9.3.3.1.6.1.9.1-.3-.2-.6-.3-.9-.3-.3-.1-.6-.1-.9-.1z" fill="#263238"/><path d="m153.4 439.2c.2.3.6.4.9.5s.7.2 1.1.1c-.3-.1-.7-.2-1-.3s-.6-.2-1-.3z" fill="#263238"/><path d="m156.1 441.9c.3.1.7.2 1.1.2h1.2c.2 0 .5-.1.7-.1.1-.1.3-.2.4-.3.1-.2 0-.3-.1-.5-.8-.6-1.9-.6-2.6 0-.2.2-.4.4-.5.7-.1.1-.1.2-.1.3.2-.3.4-.6.7-.8s.7-.4 1.1-.4c.5-.1.9.1 1.3.4.1.2 0 .4-.2.4-.2.1-.4.1-.7.1-.4 0-.8 0-1.2 0-.6.1-1.1 0-1.1 0z" fill="#263238"/><path d="m156.4 442c.2-.2.3-.5.3-.7 0-.3 0-.6-.1-.9-.1-.4-.4-.7-.8-.8-.2 0-.4.2-.4.4 0 .2 0 .4.1.5.1.3.2.5.4.8 0 .3.2.5.5.7-.1 0-.3-.3-.5-.7-.1-.2-.2-.5-.3-.8s-.1-.7.2-.7.5.4.6.6.2.5.1.8c0 .3 0 .6-.1.8z" fill="#263238"/><path d="m138.1 436.7s.5.1 1.3.3c2 .7 3.4 2.5 3.7 4.6.1.8 0 1.3 0 1.3 0-.1.1-.2.1-.3 0-.3 0-.7 0-1-.2-2.2-1.7-4.1-3.8-4.7-.3-.1-.6-.2-.9-.2-.2 0-.4 0-.4 0z" fill="#263238"/><path d="m141.5 430c-.4 1.1-.7 2.3-.9 3.5-.3 1.2-.5 2.3-.7 3.5.4-1.1.7-2.3.9-3.5.3-1.1.5-2.3.7-3.5z" fill="#455a64"/><path d="m145.7 441.8c1.6.7 3.3 1.1 5 1.2 0-.1-1.1-.2-2.5-.6s-2.5-.6-2.5-.6z" fill="#263238"/><path d="m142.3 441.1c-.1 0 0 .3.1.5s.1.5.1.5.1-.3.1-.6-.2-.5-.3-.4z" fill="#263238"/><path d="m141.4 439.2c-.1 0 0 .2.2.5s.3.4.3.3 0-.2-.2-.5-.3-.3-.3-.3z" fill="#455a64"/><path d="m139.8 438.1c0 .1.2.1.5.3s.4.3.4.3 0-.3-.3-.5-.6-.1-.6-.1z" fill="#455a64"/><path d="m138.5 437.5s.1.2.2.2.3.1.3.1 0-.2-.2-.2-.2-.2-.3-.1z" fill="#455a64"/><path d="m163.2 286.6-20.2-7.2-27.9 5.1.8 156.3 26.5-.4s0-1.8-.1-5l15.5 4.3s15.1-51.1 20.3-72.1c4.3-17.5-14.9-81-14.9-81zm-21.2 123.4c-.4-37.8-.9-98.3-.4-106.2 0 0 14.8 52.8 15 57.3.1 2.7-8.2 28.8-14.6 48.9z" fill="#263238"/><path d="m142.3 408.5c.1 0 .3 7 .3 15.6s-.1 15.7-.3 15.7-.3-7-.3-15.7.1-15.6.3-15.6z" fill="#455a64"/><path d="m148 436.8s0-.1.1-.4.1-.6.3-1c.2-1 .6-2.3 1-4 .9-3.5 2.2-8.5 3.7-14.7 3.2-12.5 7.6-29.6 12.5-48.6 1-3.8 2-7.6 2.9-11.2v.1c-3.3-16.6-6.5-31-9.1-41.4l-3-12.1c-.4-1.4-.6-2.5-.8-3.3-.1-.4-.1-.6-.2-.9 0-.1 0-.2 0-.3 0 .1.1.2.1.3l.2.8c.2.8.5 1.9.9 3.3.8 2.8 1.9 7 3.2 12.1 2.7 10.3 6 24.8 9.2 41.4v.1l-2.9 11.2c-5 19-9.4 36.1-12.7 48.6l-3.9 14.7c-.5 1.7-.8 3-1.1 4-.1.4-.2.8-.3 1 .1 0 0 .2-.1.3z" fill="#455a64"/><path d="m127.1 439.5c-.1 0-.3-31.5-.3-70.3s.1-70.3.3-70.3.3 31.5.3 70.3-.2 70.3-.3 70.3z" fill="#455a64"/><path d="m134.4 201.6 16 .8c.2-1.9.3-9.1.3-9.1s6.7-.8 7-7.4-.3-21.9-.3-21.9c-7.5-3.6-16.4-2.8-23.3 2l-1 .7z" fill="#e6bbac"/><path d="m154.1 175.3c-.4-.4-.4-1 0-1.4.3-.5.9-.7 1.4-.4s.7.9.4 1.4c-.1.2-.2.3-.4.4-.4.4-1 .4-1.4 0z" fill="#263238"/><path d="m157.2 173.9c-.1.1-.7-.4-1.6-.4s-1.6.4-1.7.3.1-.3.4-.5c.4-.3.9-.4 1.4-.4s.9.2 1.3.5c.1.2.2.4.2.5z" fill="#263238"/><path d="m145.7 174.3c.5.3.6.9.3 1.4s-.9.6-1.4.3-.6-.9-.3-1.4c0 0 0 0 0-.1.3-.4.9-.5 1.4-.2z" fill="#263238"/><path d="m147.2 174.3c-.1.1-.7-.4-1.6-.4s-1.6.4-1.7.3.1-.3.4-.5c.8-.5 1.9-.5 2.7.1.2.2.3.5.2.5z" fill="#263238"/><path d="m150.6 182c.5-.2 1-.3 1.5-.3.2 0 .4-.1.5-.2 0-.2 0-.5-.1-.7-.2-.6-.4-1.2-.6-1.9-.6-1.6-1.1-3.2-1.4-4.9.8 1.5 1.4 3.1 1.9 4.8.2.7.4 1.3.6 1.9.1.3.2.7.1 1-.1.2-.2.3-.4.4-.1 0-.3 0-.4 0-.7 0-1.2 0-1.7-.1z" fill="#263238"/><path d="m147.6 182.9c-.9-.6 2.6 1.5 4.4 1.5-.7 1-1.9 1.3-3 .9-1.9-.9-1.4-2.4-1.4-2.4z" fill="#fff"/><path d="m150.7 193.2c-3.1-.1-6-1-8.6-2.8 0 0 1.9 4.8 8.5 4.5z" fill="#d88876"/><path d="m134.5 174c-.1 0-4.9-.6-4.3 5.1s6.1 3.2 6.1 3-1.8-8.1-1.8-8.1z" fill="#e6bbac"/><path d="m134.3 180.3s-.1.1-.3.2-.5.2-.7.1c-.8-.4-1.3-1.2-1.4-2.1-.1-.5 0-1 .1-1.4s.3-.7.7-.8c.2-.1.5 0 .6.2.1.1.1.3.1.3s.1-.1 0-.3c0-.1-.1-.3-.3-.3-.2-.1-.4-.1-.6-.1-.5.1-.8.5-.9 1-.2.5-.3 1.1-.2 1.6.1 1 .7 1.9 1.7 2.3.3.1.6 0 .9-.2.3-.3.3-.5.3-.5z" fill="#d88876"/><path d="m156.5 164.4c1.7-.5 2.7-2.1 2.6-3.9-.2-1.7-1.3-3.2-2.9-3.9-1.6-.6-3.4-.6-4.9.2-.6-2.9-3.4-4.7-6.3-4.1-2.2.5-3.9 2.3-4.1 4.6-.2-1.3-1.7-2-2.9-2-1.3-.1-2.6.4-3.5 1.4s-.8 2.5.1 3.5c-1.4-.2-2.9.2-4.1 1.1s-1.8 2.3-1.7 3.8c.2 1.5 1.2 2.7 2.7 3 .5.1 1.1.1 1.3.5.1.2.2.5.1.8v4.8c.9-.3 1.9.1 2.3 1s.5 1.8.3 2.8c.4.6 1.4.4 1.9-.2.4-.6.5-1.4.4-2.1l-.1-7.7c1.2.7 2.8.2 3.4-1.1.2-.3.3-.7.3-1.1 2.1 1.9 5.3 1.7 7.1-.3.2-.3.4-.5.6-.8.8.6 1.6 1.2 2.6 1.6.9.4 2 .5 2.9.2 1-.3 1.6-1.3 1.7-2.3l-.3-.3" fill="#263238"/><path d="m209.5 220.5c-3 0-5.5 2.4-5.5 5.5s2.4 5.5 5.5 5.5 5.5-2.4 5.5-5.5c-.1-3-2.5-5.5-5.5-5.5zm0 4.5c-.9 0-1.6-.7-1.6-1.6s.7-1.6 1.6-1.6 1.6.7 1.6 1.6c-.1.9-.7 1.6-1.6 1.6z" fill="#f1cbb5"/><path d="m207.6 231.1v9.8s2.2 1 2.1 1.1 1.6-1.1 1.6-1.1v-1.2l-1-1 1-.9-1-1.3 1-1.1-1.1-1.3 1.1-1.1v-2z" fill="#f1cbb5"/><path d="m215.6 211.8-6.3-5.6-6.3 5.7 1.9.3.2 5.7 8.5.1-.3-6zm-6.3 5.1c-.6 0-1-.5-.9-1.1 0-.6.5-1 1.1-.9.5 0 .9.5.9 1-.1.6-.5 1-1.1 1z" fill="#263238"/><path d="m210.1 216.6s-.2.1-.5.1c-.4 0-.8 0-1.2.2-.6.2-1.1.6-1.4 1.1-.4.6-.6 1.3-.6 2.1.1.7.4 1.4 1 1.9.5.4 1 .7 1.6.8.6 0 1.2 0 1.7-.1-.5.4-1.1.6-1.7.5-.7 0-1.4-.3-1.9-.8-.7-.6-1.1-1.4-1.2-2.2-.1-.9.2-1.7.7-2.4.4-.6 1-1 1.7-1.1.4-.1.9-.2 1.4-.1.2-.1.4-.1.4 0z" fill="#455a64"/><path d="m212.1 221.2c-.1-.1.2-.8.1-1.7s-.4-1.6-.3-1.6.8.6.8 1.6-.5 1.8-.6 1.7z" fill="#455a64"/><path d="m193.7 213.2c.6-1.8 1.4-3.6 2.4-5.3.9-1.3 2.1-2.4 3.6-3 1.9-.7 4.1-.4 6.1-.1l4.9.7c.7.1 1.5.4 1.5 1.1-.1.4-.4.7-.8.8s-.8.1-1.2 0c-1.1-.1-2.2-.2-3.3-.1-.8.1-1.8.3-1.9 1.1s.6 1.3 1.3 1.3 1.4-.3 1.9-.7l1.9-1.1c.3-.3.8-.4 1.2-.4.7.2.9 1.2.5 1.8-.5.6-1 1.1-1.7 1.4-2.5 1.7-3.6 4.4-4.8 8" fill="#e6bbac"/><path d="m193.7 212.4-11 28.4-11.4-26.5c-3.6-12.8-19.4-13.6-19.4-13.6l-15.6-2c-5.6-2.3-14.8-.4-18.3 1.6-4.6 2.5-8.6 10.2-9.5 15.9 0 0-15.8 40.7-13.1 45s19.5 20.9 19.5 20.9l-2.3 8.6 26.8 1.7 2.7-10.6.3 11.3 25.2 1.8c-1.1-10-2.9-20-3.4-22.8l-2-29.2.3-6 .2-.6c2.4 3.9 5.3 9 9 15.5 7.4 13 14.8 9.7 19.1 4.5 1.9-2.4 3.3-5.1 4.1-8l10.8-30.4zm-76.7 48.7c0 .2-2.7-4.8-2.7-4.8l3.9-13s-1.2 17.6-1.2 17.8z" fill="#c0e1d9"/><path d="m134.2 199 8.4 32.5 8.8-30.5-1-.1.2-4-16.4-2z" fill="#fff"/><path d="m133.7 199.3v.4c-.1.3-.1.8-.2 1.3-.2 1.1-.5 2.7-.9 4.6s-.9 4.4-1.4 7.1c-.3 1.3-.6 2.8.1 4.1s2.3 1.8 3.8 2.4l.3.1-.2.3c-1.2 2.1-1.1 5-.2 7.5.6 1.6 1.3 3.1 2.1 4.6.7 1.5 1.5 2.9 2.1 4.3 1.4 2.8 2.6 5.4 3.8 7.6l-.4.1c0-3.7 0-6.7 0-8.9 0-1 0-1.8 0-2.4 0-.3 0-.6 0-.9.1.3.1.6.1.9 0 .6.1 1.4.1 2.4.1 2.2.1 5.2.2 8.9v.9l-.4-.8c-1.1-2.3-2.4-4.8-3.8-7.6-.7-1.4-1.4-2.8-2.2-4.3s-1.5-3.1-2.1-4.7c-.9-2.6-1-5.6.3-7.9l.1.4c-.8-.2-1.5-.6-2.3-.9-.7-.4-1.3-.9-1.8-1.6-.4-.7-.6-1.5-.5-2.3.1-.7.2-1.4.4-2.1.6-2.7 1.1-5 1.5-7s.8-3.5 1-4.6c.1-.5.2-.9.3-1.2.1-.4.1-.5.2-.7z" fill="#263238"/><path d="m152.9 201.2c.2.5.3 1 .3 1.5.2 1 .4 2.4.7 4.2s.6 3.9.8 6.4c0 .6.1 1.2.1 1.9s-.2 1.4-.6 2c-.9 1.1-2 2-3.3 2.6v-.4c.5.4.8.8 1.1 1.3.1.1.1.3.2.4 0 .1.1.2.1.4v.2c-.1.3-.1.6-.2.9-1 3.1-2.2 6-3.3 8.6s-2.1 4.9-3 6.9-1.6 3.5-2.1 4.6l-.6 1.2c-.1.3-.2.4-.2.4 0-.2.1-.3.1-.5.1-.3.3-.8.5-1.3l2-4.7c.8-2 1.8-4.3 2.9-6.9s2.3-5.5 3.3-8.6c.1-.3.2-.5.2-.8v-.2-.1l-.2-.4c-.3-.4-.6-.8-1-1.2l-.3-.3.4-.2c1.2-.5 2.3-1.4 3.1-2.4s.5-2.4.5-3.6c-.1-2.4-.4-4.6-.7-6.4s-.4-3.1-.6-4.2c-.1-.3-.2-.8-.2-1.3z" fill="#263238"/><path d="m142 282.9c-.1 0 0-9.2.3-20.5s.7-20.5.9-20.5 0 9.2-.3 20.5c-.3 11.4-.7 20.5-.9 20.5z" fill="#263238"/><path d="m146.1 250.2c-.1 0 .3-.4.8-.1.5.2.7.7.5 1.2-.1.3-.4.5-.7.6-.5.2-1-.1-1.2-.6-.1-.3-.1-.6.1-.9.3-.5.8-.4.8-.3s-.3.1-.4.5c-.1.2-.1.4 0 .6s.4.3.6.2c.2 0 .4-.2.4-.4s-.1-.4-.3-.5c-.3-.3-.6-.2-.6-.3z" fill="#263238"/><path d="m146.2 260.6c-.1 0 .3-.4.8-.1.3.2.5.5.6.8 0 .5-.3.9-.8 1-.4.1-.9-.1-1.1-.5-.2-.3-.1-.7.1-1 .4-.5.8-.4.8-.3s-.3.1-.4.5c-.1.2-.1.4 0 .6.2.2.6.3.8.1.1-.1.2-.2.2-.3 0-.2-.1-.4-.3-.5-.4-.4-.6-.3-.7-.3z" fill="#263238"/><path d="m145.8 272.3c-.1 0 .3-.4.8-.1.3.1.5.4.6.8 0 .5-.3.9-.8 1-.4.1-.9-.1-1.1-.5-.2-.3-.1-.7.1-1 .4-.5.8-.4.8-.3s-.3.1-.4.5c-.1.2-.1.4 0 .6s.4.2.6.2.4-.2.4-.5c0-.2-.1-.4-.3-.5-.4-.2-.7-.1-.7-.2z" fill="#263238"/><path d="m151.4 232.6h7.3v-1.1h-7.7z" fill="#263238"/><path d="m203.6 223.3c-2-.7-4-1.5-5.9-2.5-2-.8-3.9-1.9-5.7-3 2 .7 4 1.5 5.9 2.6 2 .7 3.9 1.7 5.7 2.9z" fill="#455a64"/><path d="m193.7 215.5s.1-.3.5-.5c.3-.1.6-.1.8 0 .3.2.6.5.5.9 0 .4-.3.8-.7.8-.3 0-.6-.1-.8-.4-.1-.2-.1-.4 0-.6.1-.1.2-.1.2-.1s-.1.3.1.5.6.2.6-.2-.4-.6-.7-.6-.5.3-.5.2z" fill="#455a64"/><path d="m182.1 246.7c-.1-1.1-.1-2.2.1-3.2 0-1.1.3-2.2.6-3.2.2 2.2-.1 4.4-.7 6.4z" fill="#263238"/><path d="m184.7 246.4c-.6-.9-1-1.8-1.2-2.8-.4-1-.7-2-.7-3 .9 1.8 1.6 3.8 1.9 5.8z" fill="#263238"/><path d="m144.7 198.3c-.4 1.4-1 2.7-1.9 3.9l1.5 4h1.3l1.1-3.8s-.7-.6-1.3-4.2z" fill="#455a64"/><path d="m150.4 200.8s-.1.3-.4.7c-.4.6-1.1 1.1-1.9 1.3-.6.1-1.2 0-1.6-.4-.4-.5-.7-1.1-.9-1.7-.4-1.4-.6-2.8-.7-4.2l.5.1c-.2.8-.4 1.7-.8 2.6-.3.9-.7 1.7-1.1 2.5-.2.4-.6.8-1 1s-.9.3-1.3.3c-.8-.1-1.5-.3-2.2-.6-.6-.3-1.2-.6-1.8-1-.8-.5-1.6-1.1-2.3-1.7-.3-.2-.6-.4-.8-.7.1-.1 1.3.8 3.3 2.1.6.3 1.1.6 1.7.9.7.3 1.4.5 2.1.6.8 0 1.5-.4 1.8-1.1.4-.8.7-1.6 1-2.4.3-.9.5-1.7.8-2.5 0-.1.2-.2.3-.2.1 0 .2.1.2.2 0 1.4.2 2.8.6 4.1.1.6.3 1.1.7 1.5.4.3.8.4 1.3.3.7-.2 1.3-.6 1.8-1.1.2-.2.4-.4.7-.6z" fill="#e0e0e0"/><path d="m144.3 206.2c-.2.5-4.1 15.7-4.1 15.7l2.5 9.6 4.6-16s-1.6-9.8-1.6-9.5-1.4.2-1.4.2z" fill="#455a64"/><path d="m129.9 277.2c-2 .4-4.1.5-6.2.2-2.1-.1-4.1-.5-6-1.3 0-.1 2.7.5 6.1.8s6.1.1 6.1.3z" fill="#263238"/><path d="m164.6 279.2c-1.4.2-2.8.2-4.3 0-1.4 0-2.8-.2-4.2-.5 1.4-.2 2.8-.2 4.3 0 1.4 0 2.8.2 4.2.5z" fill="#263238"/><path d="m118.4 229v.6c0 .4 0 .9.1 1.6 0 1.4.1 3.4.1 5.8 0 4.9-.1 11.7-.5 19.2s-1 14.3-1.6 19.2c-.3 2.5-.5 4.4-.7 5.8-.1.6-.2 1.1-.2 1.6 0 .2-.1.4-.1.5 0-.2 0-.4 0-.5 0-.4.1-1 .1-1.6.1-1.4.3-3.4.5-5.8.4-4.9 1-11.7 1.4-19.2s.6-14.3.7-19.2c0-2.4.1-4.4.1-5.8 0-.6 0-1.2 0-1.6 0-.2 0-.4.1-.6z" fill="#263238"/><path d="m114.3 256.8c.5-2.8 1.2-5.6 2.1-8.3.7-2.8 1.6-5.5 2.6-8.2-.5 2.8-1.2 5.6-2.1 8.3-.7 2.8-1.6 5.5-2.6 8.2z" fill="#263238"/><path d="m117.4 262c-1.3-1.7-2.4-3.6-3.3-5.5-1.1-1.8-2.1-3.7-2.9-5.7 1.3 1.7 2.4 3.6 3.3 5.5 1.1 1.9 2.1 3.8 2.9 5.7z" fill="#263238"/></svg>