<?xml version="1.0" encoding="utf-8"?>
<!-- Generator: Adobe Illustrator 26.3.1, SVG Export Plug-In . SVG Version: 6.00 Build 0)  -->
<svg version="1.1" id="Layer_1" xmlns="http://www.w3.org/2000/svg" xmlns:xlink="http://www.w3.org/1999/xlink" x="0px" y="0px"
	 viewBox="0 0 500 500" style="enable-background:new 0 0 500 500;" xml:space="preserve">
<style type="text/css">
	.st0{fill:#E0E0E0;}
	.st1{fill:#F0F0F0;}
	.st2{fill:#263238;}
	.st3{fill:#638A66;}
	.st4{opacity:0.5;}
	.st5{opacity:0.1;fill:#FFFFFF;}
	.st6{fill:#E6E6E6;}
	.st7{fill:#D2977C;}
	.st8{opacity:0.2;}
	.st9{opacity:0.4;}
	.st10{fill:#FF725E;}
	.st11{fill:#FFFFFF;}
	.st12{opacity:0.1;}
	.st13{fill:#A2BDA2;}
	.st14{fill:#455A64;}
	.st15{fill:#F1CBB5;}
	.st16{opacity:0.2;enable-background:new    ;}
	.st17{fill:#FAFAFA;}
	.st18{fill:#E6BBAC;}
	.st19{fill:#D88876;}
	.st20{fill:#C0E1D9;}
</style>
<g id="freepik--background-complete--inject-27">
	<path class="st0" d="M469.6,276.3c0,0.1-96.2,0.3-214.9,0.3s-214.9-0.1-214.9-0.3S136,276,254.7,276S469.6,276.1,469.6,276.3z"/>
	<path class="st1" d="M170.3,240c-18.6-5.2-29.5-24.6-24.3-43.2c0.2-0.6,0.3-1.1,0.5-1.7c2.4-7,6.9-13.2,8.8-20.3
		c2.2-8.1,0.9-16.7-0.5-25s-2.8-16.9-0.7-25s8.6-15.8,17-16.4c7.8-0.5,14.9,5.2,18.2,12.3s3.3,15.2,2.5,23s-2.2,15.5-1.8,23.3
		c0.9,15.7,9.8,30.6,8.7,46.3c-0.5,8.2-3.7,13.4-9.1,19.6C185,238.1,177.2,241.6,170.3,240"/>
	<path class="st0" d="M171.8,279.1c-0.1,0-0.2-28.4-0.2-63.4s0.1-63.4,0.2-63.4s0.2,28.4,0.2,63.4S171.9,279.1,171.8,279.1z"/>
	<path class="st0" d="M185.9,202.6c0.1,0.1-3,2.6-6.9,5.6s-7.1,5.4-7.1,5.3s3-2.6,6.9-5.6S185.8,202.5,185.9,202.6z"/>
	<path class="st0" d="M171.8,200.7c-1.5-0.8-3-1.7-4.3-2.7c-1.4-0.9-2.8-2-4.1-3.1c1.5,0.8,3,1.7,4.3,2.7
		C169.2,198.6,170.5,199.6,171.8,200.7z"/>
	<polygon class="st1" points="85.1,155.7 67.9,190.3 73,190.4 58.5,217.9 66.2,217.9 54.3,242.3 120.7,242.3 106.1,217.9 
		113.1,217.6 99.1,190.2 104.3,189.9 	"/>
	<path class="st0" d="M85.7,195.7c0.1,0,0,17.9-0.2,40.1s-0.6,40.1-0.7,40.1s0-17.9,0.2-40.1S85.6,195.7,85.7,195.7z"/>
	<path class="st0" d="M95.6,206c-1.5,1.6-3.1,3-4.9,4.4c-1.6,1.5-3.4,2.8-5.2,4c1.5-1.6,3.1-3,4.9-4.4C92,208.5,93.8,207.2,95.6,206
		z"/>
	<path class="st1" d="M67.1,89h48.8c0,0,0-11.2-5.8-11.2c-4.3-0.1-8,2.8-8.9,6.9c0,0,0-20.8-10.5-17.8c-9.9,2.9-11,16.2-11,16.2
		s-1.8-6.7-7.2-2.9S67.1,89,67.1,89z"/>
</g>
<g id="freepik--Floor--inject-27">
	<path class="st2" d="M481.9,439.5c0,0.1-100.9,0.3-225.2,0.3s-225.3-0.1-225.3-0.3s100.8-0.3,225.3-0.3S481.9,439.4,481.9,439.5z"
		/>
</g>
<g id="freepik--House--inject-27">
	<polygon class="st3" points="223.4,140.8 223.4,324.4 429.9,324.4 429.9,140.8 407.5,140.8 362.3,84.1 324.2,140.3 	"/>
	<g class="st4">
		<polygon class="st5" points="224.3,144.6 224.3,328.2 430.8,328.2 430.8,144.6 408.5,144.6 363.3,87.9 325.1,144 		"/>
	</g>
	<path class="st2" d="M264.2,73.3c-1,1.4-59.3,70.1-59.3,70.1h117.9l39.5-59.3l45.2,56.7l41.4-0.1l-50.5-69.1L264.2,73.3z"/>
	<rect x="254.4" y="316.8" class="st6" width="48.9" height="7.6"/>
	<rect x="243.2" y="328.2" class="st6" width="65.3" height="5.9"/>
	<polygon class="st7" points="257.7,243 258.1,316.4 300.1,316.4 300.1,243 	"/>
	<g class="st8">
		<polygon points="257.5,243 257.9,316.4 299.9,316.4 299.9,243 		"/>
	</g>
	<g class="st9">
		<circle cx="290.7" cy="279.7" r="1.9"/>
	</g>
	<polygon class="st2" points="279,217.8 240.3,249.7 240.3,258.5 279.4,226.8 315.2,256.1 315.2,246.9 	"/>
	<rect x="291" y="63.8" class="st10" width="9.1" height="12.6"/>
	<rect x="306.2" y="57.2" class="st10" width="9.5" height="19.2"/>
	<g class="st9">
		<rect x="291" y="63.8" width="9.1" height="12.6"/>
		<rect x="306.2" y="57.2" width="9.5" height="19.2"/>
	</g>
	<rect x="358.4" y="113.6" class="st11" width="10.7" height="10.7"/>
	<g class="st12">
		<polygon points="322.8,143.5 328.5,143.5 365.9,88.6 362.3,84.1 		"/>
	</g>
	<g class="st12">
		<polygon points="223.4,143.5 223.4,149.4 322.8,143.5 		"/>
	</g>
	<g class="st12">
		<polygon points="407.5,140.8 429.9,148.2 429.9,140.8 		"/>
	</g>
	<rect x="249.3" y="321.5" class="st6" width="56.9" height="7.4"/>
	<path class="st0" d="M304.7,321.6c0,0.1-12.3,0.3-27.5,0.3s-27.5-0.1-27.5-0.3s12.3-0.3,27.5-0.3S304.7,321.4,304.7,321.6z"/>
	<path class="st0" d="M304.7,328.2c0,0.1-12.3,0.3-27.5,0.3s-27.5-0.1-27.5-0.3s12.3-0.3,27.5-0.3S304.7,328,304.7,328.2z"/>
	<rect x="254.4" y="153.6" class="st11" width="47.4" height="45"/>
	<path class="st13" d="M275.9,153.6c0,0-13.4,22.9-20.8,23.1c0,0,6.8,3.5,7.3,21.9h-8v-45L275.9,153.6z"/>
	<path class="st13" d="M280.4,153.6c0,0,13.4,22.9,20.8,23.1c0,0-6.8,3.5-7.3,21.9h8v-45L280.4,153.6z"/>
	<rect x="277" y="153.2" class="st2" width="1.5" height="48"/>
	<rect x="253.7" y="176.5" class="st2" width="48" height="1.5"/>
	<rect x="251.3" y="198.7" class="st2" width="52.9" height="1.1"/>
	<rect x="353.4" y="153.6" class="st11" width="47.4" height="45"/>
	<path class="st13" d="M374.8,153.6c0,0-13.4,22.9-20.8,23.1c0,0,6.8,3.5,7.3,21.9h-8v-45L374.8,153.6z"/>
	<path class="st13" d="M379.3,153.6c0,0,13.4,22.9,20.8,23.1c0,0-6.8,3.5-7.3,21.9h8v-45L379.3,153.6z"/>
	<rect x="375.9" y="153.2" class="st2" width="1.5" height="48"/>
	<rect x="352.7" y="176.5" class="st2" width="48" height="1.5"/>
	<rect x="350.2" y="198.7" class="st2" width="52.9" height="1.1"/>
	<rect x="353.4" y="248.7" class="st11" width="47.4" height="45"/>
	<path class="st13" d="M375.1,249.3c0,0-13.6,22.6-21,22.8c0,0,6.9,3.4,7.4,21.6h-8.1v-44.4L375.1,249.3z"/>
	<path class="st13" d="M379.3,248.7c0,0,13.4,22.9,20.8,23.1c0,0-6.8,3.5-7.3,21.9h8v-45L379.3,248.7z"/>
	<rect x="375.9" y="248.3" class="st2" width="1.5" height="48"/>
	<rect x="352.7" y="271.6" class="st2" width="48" height="1.5"/>
	<rect x="350.2" y="293.7" class="st2" width="52.9" height="1.1"/>
</g>
<g id="freepik--Sign--inject-27">
	<polygon class="st14" points="228.2,288.5 228.2,438.8 241.1,438.8 241.1,298.6 339.2,298.6 339.2,288.5 	"/>
	<rect x="236.9" y="298.6" class="st2" width="4.2" height="140.2"/>
	<rect x="331.4" y="288.5" class="st2" width="7.9" height="10.1"/>
	<rect x="246.8" y="305.9" class="st10" width="94.7" height="59.7"/>
	<rect x="246.8" y="305.9" class="st15" width="94.7" height="59.7"/>
	<rect x="336.3" y="305.9" class="st10" width="5.2" height="59.7"/>
	<g class="st8">
		<rect x="336.3" y="305.9" width="5.2" height="59.7"/>
	</g>
	<path class="st2" d="M331.4,360.5c0,0,0-0.3,0-0.9s0-1.5,0-2.6c0-2.3,0-5.6,0-9.9c0-8.6-0.1-20.9-0.1-36l0.2,0.2l-79,0.1l0,0
		l0.3-0.3c0,17.5,0,34.3,0,49.5l-0.2-0.2l56.8,0.1l16.3,0.1h4.4h1.1L331.4,360.5l-1.4,0h-4.3l-16.3,0.1l-57,0.1h-0.2v-0.2
		c0-15.2,0-31.9,0-49.5v-0.3h0.3l79,0.1h0.2v0.3c0,15.1-0.1,27.5-0.1,36.1c0,4.3,0,7.6-0.1,9.9v2.6
		C331.4,360.2,331.4,360.5,331.4,360.5z"/>
	<rect x="262.3" y="298.6" class="st15" width="2.8" height="5.2"/>
	<rect x="308.6" y="298.6" class="st15" width="2.8" height="5.2"/>
	<path class="st10" d="M278.1,323.4v3.1h6.3v3.1h-6.3v4.9h-4v-14.3h11.2v3.1H278.1z"/>
	<path class="st16" d="M278.1,323.4v3.1h6.3v3.1h-6.3v4.9h-4v-14.3h11.2v3.1H278.1z"/>
	<path class="st10" d="M286.3,327.4c0-4.3,3.4-7.4,7.9-7.4s7.9,3.1,7.9,7.4s-3.4,7.4-7.9,7.4S286.3,331.6,286.3,327.4z M298.1,327.4
		c-0.1-2.1-1.9-3.8-4.1-3.6c-2.1,0.1-3.8,1.9-3.6,4.1c0.1,2,1.8,3.6,3.9,3.6c2.1,0,3.8-1.7,3.9-3.8
		C298.1,327.6,298.1,327.5,298.1,327.4z"/>
	<path class="st16" d="M286.3,327.4c0-4.3,3.4-7.4,7.9-7.4s7.9,3.1,7.9,7.4s-3.4,7.4-7.9,7.4S286.3,331.6,286.3,327.4z M298.1,327.4
		c-0.1-2.1-1.9-3.8-4.1-3.6c-2.1,0.1-3.8,1.9-3.6,4.1c0.1,2,1.8,3.6,3.9,3.6c2.1,0,3.8-1.7,3.9-3.8
		C298.1,327.6,298.1,327.5,298.1,327.4z"/>
	<path class="st10" d="M310.5,330.7h-2.2v3.8h-4v-14.3h6.5c3.9,0,6.3,2,6.3,5.3c0.1,1.9-1,3.7-2.8,4.5l3.1,4.5h-4.3L310.5,330.7z
		 M310.5,323.4h-2.2v4.2h2.2c1.7,0,2.5-0.8,2.5-2.1S312.2,323.4,310.5,323.4L310.5,323.4z"/>
	<path class="st16" d="M310.5,330.7h-2.2v3.8h-4v-14.3h6.5c3.9,0,6.3,2,6.3,5.3c0.1,1.9-1,3.7-2.8,4.5l3.1,4.5h-4.3L310.5,330.7z
		 M310.5,323.4h-2.2v4.2h2.2c1.7,0,2.5-0.8,2.5-2.1S312.2,323.4,310.5,323.4L310.5,323.4z"/>
	<path class="st10" d="M266.8,353.5l1.4-3.1c1.5,0.9,3.2,1.5,4.9,1.5c1.8,0,2.4-0.5,2.4-1.2c0-2.4-8.5-0.6-8.5-6.2
		c0-2.7,2.2-4.9,6.6-4.9c1.9,0,3.8,0.4,5.4,1.3l-1.3,3.1c-1.3-0.7-2.7-1.1-4.1-1.2c-1.8,0-2.4,0.6-2.4,1.4c0,2.3,8.5,0.6,8.5,6.1
		c0,2.6-2.2,4.8-6.6,4.8C270.9,355.2,268.7,354.6,266.8,353.5z"/>
	<path class="st16" d="M266.8,353.5l1.4-3.1c1.5,0.9,3.2,1.5,4.9,1.5c1.8,0,2.4-0.5,2.4-1.2c0-2.4-8.5-0.6-8.5-6.2
		c0-2.7,2.2-4.9,6.6-4.9c1.9,0,3.8,0.4,5.4,1.3l-1.3,3.1c-1.3-0.7-2.7-1.1-4.1-1.2c-1.8,0-2.4,0.6-2.4,1.4c0,2.3,8.5,0.6,8.5,6.1
		c0,2.6-2.2,4.8-6.6,4.8C270.9,355.2,268.7,354.6,266.8,353.5z"/>
	<path class="st10" d="M291.7,351.9h-6.3l-1.2,2.9h-4.3l6.6-15h4.2l6.6,15h-4.4L291.7,351.9z M290.4,348.8l-1.9-4.8l-1.9,4.8
		L290.4,348.8z"/>
	<path class="st16" d="M291.7,351.9h-6.3l-1.2,2.9h-4.3l6.6-15h4.2l6.6,15h-4.4L291.7,351.9z M290.4,348.8l-1.9-4.8l-1.9,4.8
		L290.4,348.8z"/>
	<path class="st10" d="M298.4,339.9h4.2v11.6h7.1v3.4h-11.4V339.9z"/>
	<path class="st16" d="M298.4,339.9h4.2v11.6h7.1v3.4h-11.4V339.9z"/>
	<path class="st10" d="M323.5,351.6v3.3h-12v-15h11.7v3.3h-7.5v2.5h6.6v3.2h-6.6v2.7L323.5,351.6z"/>
	<path class="st16" d="M323.5,351.6v3.3h-12v-15h11.7v3.3h-7.5v2.5h6.6v3.2h-6.6v2.7L323.5,351.6z"/>
	<path class="st2" d="M329.5,315.1c0,0-0.1-0.2-0.2-0.5c-0.1-0.4-0.4-0.8-0.8-1c-0.5-0.4-1.2-0.5-1.8-0.2c-0.7,0.3-1.2,1-1.2,1.7
		c0,0.8,0.5,1.5,1.2,1.7c0.6,0.2,1.3,0.1,1.8-0.2c0.4-0.2,0.6-0.6,0.8-1C329.4,315.4,329.5,315.2,329.5,315.1c0.1,0.1,0.1,0.2,0,0.6
		c-0.1,0.5-0.4,1-0.8,1.3c-0.6,0.5-1.4,0.6-2.2,0.4c-1.2-0.4-1.8-1.8-1.4-3c0.2-0.7,0.7-1.2,1.4-1.4c0.7-0.3,1.6-0.1,2.2,0.4
		c0.4,0.3,0.7,0.8,0.8,1.3C329.6,314.9,329.5,315.1,329.5,315.1z"/>
	<path class="st2" d="M328.6,313.9c0.1,0.1-0.3,0.7-0.8,1.3s-1.1,1-1.2,0.9s0.3-0.7,0.8-1.3S328.5,313.8,328.6,313.9z"/>
	<path class="st2" d="M328.8,315.9c0,0.1-0.8,0-1.5-0.6s-1-1.2-0.9-1.3s0.6,0.4,1.2,0.9S328.8,315.8,328.8,315.9z"/>
	<path class="st2" d="M328.7,357.3c0,0-0.1-0.2-0.2-0.5c-0.1-0.4-0.4-0.8-0.8-1c-0.5-0.4-1.2-0.5-1.8-0.2c-0.7,0.3-1.2,1-1.2,1.7
		c0,0.7,0.5,1.4,1.2,1.7c0.6,0.2,1.3,0.1,1.8-0.2c0.3-0.3,0.6-0.6,0.8-1C328.6,357.5,328.7,357.3,328.7,357.3c0,0,0.1,0.2,0,0.5
		c-0.1,0.5-0.3,1-0.7,1.3c-0.6,0.5-1.4,0.6-2.2,0.4c-1.2-0.4-1.8-1.7-1.4-2.9c0.2-0.7,0.8-1.2,1.4-1.4c0.7-0.3,1.6-0.1,2.2,0.4
		c0.4,0.3,0.7,0.8,0.7,1.3C328.8,357.1,328.8,357.3,328.7,357.3z"/>
	<path class="st2" d="M327.8,356c0.1,0.1-0.3,0.7-0.8,1.3s-1.1,1-1.2,0.9s0.3-0.7,0.8-1.3S327.7,355.9,327.8,356z"/>
	<path class="st2" d="M328,358.1c0,0.1-0.8,0-1.5-0.6s-1-1.2-0.9-1.3s0.6,0.4,1.2,0.9S328.1,357.9,328,358.1z"/>
	<path class="st2" d="M258.7,356.3c0,0-0.1-0.2-0.2-0.5c-0.1-0.4-0.4-0.8-0.8-1c-0.5-0.4-1.2-0.4-1.8-0.2c-0.7,0.3-1.2,1-1.2,1.7
		c0,0.8,0.5,1.4,1.2,1.7c0.6,0.2,1.3,0.1,1.8-0.2c0.4-0.2,0.6-0.6,0.8-1C258.7,356.5,258.7,356.3,258.7,356.3c0.1,0,0.1,0.2,0,0.6
		c-0.1,0.5-0.4,1-0.8,1.3c-0.6,0.5-1.4,0.6-2.2,0.4c-1.2-0.4-1.8-1.8-1.4-3c0.2-0.7,0.7-1.2,1.4-1.4c0.7-0.3,1.6-0.1,2.2,0.4
		c0.4,0.3,0.7,0.8,0.8,1.3C258.8,356.1,258.7,356.3,258.7,356.3z"/>
	<path class="st2" d="M257.8,355c0.1,0.1-0.3,0.7-0.8,1.3s-1.1,1-1.2,0.9s0.3-0.7,0.8-1.3C257.1,355.3,257.6,354.9,257.8,355z"/>
	<path class="st2" d="M258,357c0,0.1-0.8-0.1-1.5-0.6s-1-1.2-0.9-1.3s0.6,0.4,1.2,0.9S258,356.9,258,357z"/>
	<path class="st2" d="M259.1,315.9c0,0-0.1-0.2-0.2-0.5c-0.1-0.4-0.4-0.8-0.8-1c-0.5-0.4-1.2-0.4-1.8-0.2c-0.7,0.3-1.2,1-1.2,1.7
		c0,0.8,0.5,1.5,1.2,1.7c0.6,0.2,1.3,0.1,1.8-0.2c0.4-0.2,0.6-0.6,0.8-1C259,316.2,259,316,259.1,315.9c0.1,0.1,0.1,0.2,0,0.6
		c-0.1,0.5-0.4,1-0.8,1.3c-0.6,0.5-1.4,0.6-2.2,0.4c-1.2-0.4-1.8-1.8-1.4-3c0.2-0.7,0.7-1.2,1.4-1.4c0.7-0.3,1.6-0.1,2.2,0.4
		c0.4,0.3,0.7,0.8,0.8,1.3C259.2,315.8,259.1,315.9,259.1,315.9z"/>
	<path class="st2" d="M258.1,314.7c0.1,0.1-0.3,0.7-0.8,1.3s-1.1,1-1.2,0.9s0.3-0.7,0.8-1.3S258,314.6,258.1,314.7z"/>
	<path class="st2" d="M258.4,316.7c0,0.1-0.8-0.1-1.5-0.6s-1-1.2-0.9-1.3s0.6,0.4,1.2,0.9S258.4,316.6,258.4,316.7z"/>
	<path class="st17" d="M274.1,323.4v3.1h6.3v3.1h-6.3v4.9h-4v-14.3h11.2v3.1H274.1z"/>
	<path class="st17" d="M282.3,327.4c0-4.3,3.4-7.4,7.9-7.4s7.9,3.1,7.9,7.4s-3.4,7.4-7.9,7.4S282.3,331.6,282.3,327.4z M294.1,327.4
		c-0.1-2.1-1.9-3.8-4.1-3.6c-2.1,0.1-3.8,1.9-3.6,4.1c0.1,2,1.8,3.6,3.9,3.6c2.1,0,3.8-1.7,3.9-3.8
		C294.1,327.6,294.1,327.5,294.1,327.4L294.1,327.4z"/>
	<path class="st17" d="M306.5,330.7h-2.2v3.8h-4v-14.3h6.5c3.9,0,6.3,2,6.3,5.3c0.1,1.9-1,3.7-2.8,4.5l3.1,4.5h-4.3L306.5,330.7z
		 M306.5,323.4h-2.2v4.2h2.2c1.7,0,2.5-0.8,2.5-2.1S308.2,323.4,306.5,323.4L306.5,323.4z"/>
	<path class="st17" d="M262.8,353.5l1.4-3.1c1.5,0.9,3.2,1.4,4.9,1.5c1.8,0,2.4-0.5,2.4-1.2c0-2.4-8.5-0.6-8.5-6.2
		c0-2.7,2.2-4.9,6.6-4.9c1.9,0,3.8,0.4,5.4,1.3l-1.3,3.1c-1.3-0.7-2.7-1.1-4.1-1.2c-1.8,0-2.4,0.6-2.4,1.4c0,2.3,8.5,0.6,8.5,6.1
		c0,2.6-2.2,4.8-6.6,4.8C266.8,355.2,264.7,354.6,262.8,353.5z"/>
	<path class="st17" d="M287.6,351.9h-6.3l-1.2,2.9h-4.3l6.6-15h4.2l6.6,15h-4.4L287.6,351.9z M286.4,348.8l-1.9-4.8l-1.9,4.8
		L286.4,348.8z"/>
	<path class="st17" d="M294.4,339.9h4.2v11.6h7.1v3.4h-11.4V339.9z"/>
	<path class="st17" d="M319.5,351.6v3.3h-12v-15h11.7v3.3h-7.5v2.5h6.6v3.2h-6.6v2.7L319.5,351.6z"/>
</g>
<g id="freepik--Plants--inject-27">
	<path class="st13" d="M377.5,416.7c-6-3.2-8.4-7.8-9.8-14.5c-1.4-6.8,0.2-13.8,4.4-19.3c3.5-4.5,8.6-7.8,11-12.9
		c2.5-5.5,1.6-12.5,5.5-17.1c2.7-3.2,6.9-4.5,10.4-6.9c2.8-2,4.9-4.6,7.4-7s5.5-4.4,8.9-4.5c5.1-0.2,9.6,4.3,10.5,9.4
		s-1.5,10.2-5,14c-2.5,2.7-5.8,4.9-7.3,8.4c-2.8,6.4,1.8,14.3-1.2,20.6c-2.2,4.6-8.1,7.3-8.4,12.4c-0.1,1.9,0.6,3.7,0.8,5.5
		c0.6,5.8-4.3,11.1-9.9,12.8S383.1,418.2,377.5,416.7"/>
	<path class="st2" d="M406.6,356.2c-0.1,0.3-0.3,0.5-0.5,0.8l-1.6,2.1c-0.7,0.9-1.6,2-2.5,3.3s-2.1,2.8-3.1,4.5
		c-0.6,0.9-1.1,1.7-1.8,2.7s-1.2,2-1.8,3c-1.3,2-2.4,4.3-3.6,6.7c-5.2,10.5-8.8,21.7-10.6,33.2c-0.4,2.7-0.8,5.2-0.9,7.6
		c-0.1,1.2-0.2,2.3-0.3,3.5s-0.1,2.2-0.1,3.2c-0.1,2,0,3.9,0,5.5s0.1,3,0.2,4.1s0.1,2,0.1,2.6c0,0.3,0,0.6,0,0.9
		c-0.1-0.3-0.1-0.6-0.1-0.9c-0.1-0.7-0.2-1.5-0.3-2.6s-0.3-2.5-0.3-4.1s-0.2-3.5-0.1-5.5c0-1,0-2.1,0.1-3.2s0.1-2.3,0.2-3.5
		c0.1-2.4,0.5-5,0.8-7.6c1.7-11.6,5.3-22.9,10.6-33.4c1.3-2.4,2.4-4.7,3.7-6.7c0.6-1,1.2-2,1.8-3l1.8-2.7c1.1-1.7,2.3-3.2,3.3-4.5
		s1.9-2.4,2.6-3.2l1.7-2C406.1,356.6,406.4,356.4,406.6,356.2z"/>
	<path class="st13" d="M351.2,394.8c2.4,0.2,4.7,1.4,6.2,3.3c1.5,1.9,2.6,4.1,3.1,6.4c1.2,4.5,0.4,9.8-0.9,14.2
		c-4.9-1.8-7.8-7-9.1-9.7C348.3,404.7,347.2,395.6,351.2,394.8"/>
	<path class="st10" d="M366.5,424.2c-1.5-2.3-1.6-5.2-0.3-7.7c1.3-2.4,3.5-4.1,6.1-4.9c1.2-0.5,2.5-0.4,3.6,0.2
		c0.9,0.7,1.4,1.9,1.2,3.1c-0.2,1.2-0.7,2.2-1.4,3.1C373.4,421.3,370.5,424,366.5,424.2"/>
	<g class="st8">
		<path d="M351.2,394.8c2.4,0.2,4.7,1.4,6.2,3.3c1.5,1.9,2.6,4.1,3.1,6.4c1.2,4.5,0.4,9.8-0.9,14.2c-4.9-1.8-7.8-7-9.1-9.7
			C348.3,404.7,347.2,395.6,351.2,394.8"/>
	</g>
	<g class="st8">
		<path d="M366.5,424.2c-1.5-2.3-1.6-5.2-0.3-7.7c1.3-2.4,3.5-4.1,6.1-4.9c1.2-0.5,2.5-0.4,3.6,0.2c0.9,0.7,1.4,1.9,1.2,3.1
			c-0.2,1.2-0.7,2.2-1.4,3.1C373.4,421.3,370.5,424,366.5,424.2"/>
	</g>
	<g class="st8">
		<path d="M361.5,428.6c-3.2-4.8-8.6-7.6-14.3-7.8c-1.4,0-3.1,0.3-3.7,1.6s0.4,2.8,1.4,3.8c4.5,4.2,11.1,5.3,16.7,2.7"/>
	</g>
	<path class="st13" d="M361.5,428.6c-3.2-4.8-8.6-7.6-14.3-7.8c-1.4,0-3.1,0.3-3.7,1.6s0.4,2.8,1.4,3.8c4.5,4.2,11.1,5.3,16.7,2.7"
		/>
	<path class="st2" d="M366.6,439.6c-0.1-0.3-0.2-0.6-0.2-0.9c-0.1-0.6-0.3-1.5-0.4-2.6c-0.5-2.9-0.5-5.9-0.2-8.8
		c0.4-3,1.5-5.8,3.3-8.1c0.6-0.7,1.2-1.3,1.9-1.9c0.2-0.2,0.5-0.4,0.8-0.5c-0.9,0.8-1.7,1.7-2.5,2.6c-1.7,2.4-2.7,5.1-3.1,8
		c-0.3,2.9-0.3,5.8,0.1,8.7C366.5,437.3,366.5,438.5,366.6,439.6z"/>
	<path class="st2" d="M352.7,401.6c0.3,0.5,0.5,0.9,0.7,1.4c0.4,0.9,1,2.3,1.8,4c1.5,3.4,3.4,8.1,5.4,13.4s3.7,10.1,4.9,13.6
		c0.6,1.8,1,3.2,1.3,4.2c0.2,0.5,0.3,1,0.4,1.6c-0.2-0.5-0.5-1-0.6-1.5c-0.4-1.1-0.9-2.5-1.5-4.1c-1.3-3.5-3-8.3-5-13.6
		s-3.9-10-5.2-13.5l-1.6-4.1C353,402.7,352.8,402.2,352.7,401.6z"/>
	<path class="st2" d="M349.6,424.4c0.3,0,0.6,0,0.9,0c0.4,0,0.7,0.1,1.1,0.1c0.5,0.1,1,0.2,1.4,0.3c1.2,0.3,2.4,0.7,3.6,1.3
		c1.4,0.7,2.7,1.5,3.9,2.5c1.2,1,2.3,2.1,3.2,3.3c0.8,1,1.4,2.1,2,3.2c0.2,0.4,0.4,0.9,0.6,1.3c0.1,0.3,0.3,0.7,0.4,1
		c0.1,0.3,0.2,0.6,0.2,0.9c-0.1,0-0.5-1.3-1.5-3.1c-0.6-1.1-1.2-2.1-2-3.1c-1-1.2-2-2.3-3.2-3.2c-1.2-0.9-2.5-1.8-3.8-2.5
		c-1.1-0.6-2.3-1-3.5-1.4C350.9,424.6,349.6,424.5,349.6,424.4z"/>
</g>
<g id="freepik--Character--inject-27">
	<path class="st10" d="M123,436.4l-0.3,2.2c0,0-5.8,13.7-4.8,14.7c1.5,1.4,3.7,1.8,5.6,0.9c2.6-1.1,12.3-13.5,12.3-13.5l0.4-1.8
		L123,436.4z"/>
	<path class="st1" d="M118.4,450.5c0,0,3.1-2,5.7,2c0,0,1.4-0.8,4.8-4.7s6.8-7.9,6.8-7.9s0.4-0.4,0.3,0s-0.1,1-0.1,1l-6.6,8
		c0,0-4,4.7-5.1,5.2c-1.1,0.7-2.5,0.9-3.8,0.6c-1-0.2-1.9-0.8-2.5-1.6C117.8,452.9,118.4,450.5,118.4,450.5z"/>
	<path class="st2" d="M124.8,453.8c-1.1-2.5-3.6-4-6.3-3.8c0.4-0.1,0.8-0.2,1.2-0.2c1,0,1.9,0.3,2.7,0.8c0.8,0.5,1.5,1.2,2,2
		C124.6,453,124.7,453.4,124.8,453.8z"/>
	<path class="st2" d="M136.3,439.3c-0.2,0.3-0.4,0.5-0.6,0.8l-1.7,2.1l-5.8,6.7c-1,1.3-2.2,2.5-3.4,3.5c-1,0.9-2.3,1.4-3.7,1.5
		c-0.9,0-1.8-0.3-2.6-0.8c-0.3-0.2-0.5-0.5-0.6-0.8c0.2,0.2,0.5,0.5,0.7,0.7c0.7,0.5,1.6,0.8,2.5,0.7c1.3-0.1,2.5-0.7,3.5-1.5
		c1.2-1.1,2.3-2.3,3.3-3.5l5.9-6.7l1.8-2C135.8,439.7,136,439.5,136.3,439.3z"/>
	<path class="st2" d="M124.9,446.4c-0.6-0.1-1.1-0.3-1.6-0.6c-0.5-0.2-1-0.5-1.5-0.8c0.6,0,1.1,0.2,1.7,0.5
		C124,445.7,124.5,446,124.9,446.4z"/>
	<path class="st2" d="M126.3,444.4c-0.6-0.1-1.3-0.2-1.9-0.4c-0.6-0.1-1.2-0.3-1.8-0.6C123.9,443.4,125.2,443.8,126.3,444.4
		L126.3,444.4z"/>
	<path class="st2" d="M127.6,442.6c-0.1,0.1-0.8-0.4-1.9-0.7s-2-0.4-2-0.5C125.1,441.2,126.6,441.6,127.6,442.6L127.6,442.6z"/>
	<path class="st14" d="M128.2,440.6c-0.1,0.1-0.8-0.3-1.7-0.5c-0.6-0.1-1.2-0.2-1.8-0.4C125.9,439.5,127.2,439.8,128.2,440.6z"/>
	<path class="st14" d="M127.5,438.9c-0.4-0.1-0.8-0.2-1.1-0.5c-0.4-0.2-0.7-0.5-1-0.8c-0.2-0.2-0.3-0.3-0.5-0.5
		c-0.1-0.1-0.2-0.2-0.3-0.3c-0.1-0.2-0.1-0.4,0-0.5c0.2-0.3,0.6-0.4,0.9-0.3c0.3,0.1,0.5,0.2,0.7,0.3c0.3,0.3,0.6,0.6,0.8,1
		c0.2,0.4,0.2,0.8,0.2,1.1c0,0-0.1-0.4-0.4-1.1c-0.2-0.4-0.4-0.7-0.7-0.9c-0.3-0.2-0.9-0.4-1.2-0.1c-0.1,0.1,0,0.3,0.2,0.5
		c0.2,0.2,0.3,0.4,0.5,0.5c0.3,0.3,0.6,0.5,0.9,0.8C127.1,438.7,127.5,438.9,127.5,438.9z"/>
	<path class="st14" d="M127.3,438.7c0-0.4,0.1-0.8,0.4-1.1c0.2-0.4,0.5-0.7,0.9-1c0.2-0.2,0.4-0.3,0.7-0.4c0.1-0.1,0.3-0.1,0.4-0.1
		c0.2,0,0.4,0.1,0.4,0.3c0.1,0.3,0,0.6-0.2,0.9c-0.1,0.2-0.3,0.4-0.5,0.6c-0.3,0.3-0.7,0.5-1.1,0.7c-0.4,0.2-0.8,0.2-1.2,0.1
		c0.4-0.1,0.8-0.2,1.1-0.3c0.4-0.2,0.7-0.4,1-0.7c0.2-0.2,0.3-0.4,0.4-0.6c0.1-0.2,0.2-0.4,0.2-0.6c-0.1-0.1-0.3-0.2-0.5-0.1
		c-0.2,0.1-0.4,0.2-0.6,0.3c-0.3,0.2-0.6,0.5-0.9,0.9C127.5,438.3,127.4,438.8,127.3,438.7z"/>
	<path class="st2" d="M133.9,438.6c-0.4,0-0.7,0.1-1.1,0.3c-0.8,0.5-1.3,1.2-1.6,2.1c-0.3,0.9-0.3,1.8-0.1,2.6
		c0.2,0.7,0.4,1,0.4,1.1c-0.3-0.3-0.5-0.6-0.6-1c-0.3-0.9-0.3-1.9,0-2.8c0.3-0.9,1-1.7,1.8-2.1C133.5,438.3,134,438.6,133.9,438.6z"
		/>
	<path class="st2" d="M130.2,444.4c-0.3,0.6-0.6,1.1-1.1,1.5c-0.4,0.5-0.8,0.9-1.3,1.3c0.3-0.6,0.6-1.1,1.1-1.5
		C129.2,445.1,129.7,444.7,130.2,444.4z"/>
	<path class="st2" d="M131.5,443.1c0.1,0,0.2,0.2,0.3,0.4s0.1,0.5,0,0.5s-0.3-0.1-0.3-0.4S131.4,443.1,131.5,443.1z"/>
	<path class="st2" d="M131.7,441.1c0.1,0,0.1,0.3,0,0.5s-0.1,0.5-0.2,0.5s-0.1-0.2-0.1-0.5S131.6,441.1,131.7,441.1z"/>
	<path class="st14" d="M132.8,439.5c0.1,0.1-0.1,0.3-0.3,0.4s-0.4,0.3-0.4,0.3s0-0.3,0.2-0.5S132.8,439.5,132.8,439.5z"/>
	<path class="st14" d="M134.6,438.8c0,0.1-0.2,0.2-0.4,0.3s-0.5,0.1-0.5,0s0.1-0.2,0.4-0.3S134.6,438.7,134.6,438.8z"/>
	<path class="st10" d="M155.1,441.4l2-9.1l-17.1-3.8l-3,13.3l1.1,0.3c4.7,1.3,23.8,6.3,27.2,6.1
		C168.9,447.9,155.1,441.4,155.1,441.4z"/>
	<path class="st10" d="M143.1,443c0.1-1.5-0.4-3-1.4-4.1c-0.9-1.2-2.3-1.9-3.7-2.1l-1.1,4.8L143.1,443z"/>
	<path class="st1" d="M161.8,444.8c0,0,4.8,2.6,4,3.3s-20.4-3.6-28.8-6.3l0.1-0.4l22.7,5.3C159.8,446.7,160.8,444.6,161.8,444.8z"/>
	<path class="st2" d="M136.8,441.3c0.1,0,0.2,0.1,0.3,0.1l0.8,0.2l3.1,0.8c2.6,0.7,6.2,1.6,10.2,2.5s7.6,1.6,10.3,2.1l3.1,0.6
		l0.9,0.1h0.3c-0.1,0-0.2-0.1-0.3-0.1l-0.9-0.2l-3.1-0.6c-2.6-0.5-6.3-1.3-10.3-2.2s-7.6-1.7-10.2-2.4l-3.1-0.8l-0.9-0.2
		L136.8,441.3z"/>
	<path class="st2" d="M159.7,446.9c0.3-0.5,0.6-0.9,0.9-1.4c0.4-0.4,0.9-0.7,1.3-1c-0.6,0.1-1.1,0.4-1.5,0.8
		C160,445.8,159.8,446.4,159.7,446.9z"/>
	<path class="st2" d="M155.2,443.3c0,0,0.4-0.2,0.7-0.5s0.6-0.6,0.5-0.7s-0.4,0.2-0.7,0.5S155.2,443.2,155.2,443.3z"/>
	<path class="st2" d="M154,442.2c0,0,0.3-0.1,0.7-0.3s0.6-0.4,0.6-0.5s-0.3,0.1-0.7,0.3S154,442.2,154,442.2z"/>
	<path class="st2" d="M153.5,440.4c0,0.1,0.4,0.2,0.9,0.3c0.3,0.1,0.6,0.1,0.9,0.1c-0.3-0.2-0.6-0.3-0.9-0.3
		C154.1,440.4,153.8,440.4,153.5,440.4z"/>
	<path class="st2" d="M153.4,439.2c0.2,0.3,0.6,0.4,0.9,0.5c0.3,0.1,0.7,0.2,1.1,0.1c-0.3-0.1-0.7-0.2-1-0.3
		C154.1,439.4,153.8,439.3,153.4,439.2z"/>
	<path class="st2" d="M156.1,441.9c0.3,0.1,0.7,0.2,1.1,0.2c0.4,0,0.8,0,1.2,0c0.2,0,0.5-0.1,0.7-0.1c0.1-0.1,0.3-0.2,0.4-0.3
		c0.1-0.2,0-0.3-0.1-0.5c-0.8-0.6-1.9-0.6-2.6,0c-0.2,0.2-0.4,0.4-0.5,0.7c-0.1,0.1-0.1,0.2-0.1,0.3c0.2-0.3,0.4-0.6,0.7-0.8
		c0.3-0.2,0.7-0.4,1.1-0.4c0.5-0.1,0.9,0.1,1.3,0.4c0.1,0.2,0,0.4-0.2,0.4c-0.2,0.1-0.4,0.1-0.7,0.1c-0.4,0-0.8,0-1.2,0
		C156.6,442,156.1,441.9,156.1,441.9z"/>
	<path class="st2" d="M156.4,442c0.2-0.2,0.3-0.5,0.3-0.7c0-0.3,0-0.6-0.1-0.9c-0.1-0.4-0.4-0.7-0.8-0.8c-0.2,0-0.4,0.2-0.4,0.4
		c0,0,0,0,0,0c0,0.2,0,0.4,0.1,0.5c0.1,0.3,0.2,0.5,0.4,0.8C155.9,441.6,156.1,441.8,156.4,442c-0.1,0-0.3-0.3-0.5-0.7
		c-0.1-0.2-0.2-0.5-0.3-0.8c-0.1-0.3-0.1-0.7,0.2-0.7s0.5,0.4,0.6,0.6c0.1,0.2,0.2,0.5,0.1,0.8C156.5,441.5,156.5,441.8,156.4,442z"
		/>
	<path class="st2" d="M138.1,436.7c0,0,0.5,0.1,1.3,0.3c2,0.7,3.4,2.5,3.7,4.6c0.1,0.8,0,1.3,0,1.3c0-0.1,0.1-0.2,0.1-0.3
		c0-0.3,0-0.7,0-1c-0.2-2.2-1.7-4.1-3.8-4.7c-0.3-0.1-0.6-0.2-0.9-0.2C138.3,436.7,138.1,436.7,138.1,436.7z"/>
	<path class="st14" d="M141.5,430c-0.4,1.1-0.7,2.3-0.9,3.5c-0.3,1.2-0.5,2.3-0.7,3.5c0.4-1.1,0.7-2.3,0.9-3.5
		C141.1,432.4,141.3,431.2,141.5,430z"/>
	<path class="st2" d="M145.7,441.8c1.6,0.7,3.3,1.1,5,1.2c0-0.1-1.1-0.2-2.5-0.6S145.7,441.8,145.7,441.8z"/>
	<path class="st2" d="M142.3,441.1c-0.1,0,0,0.3,0.1,0.5s0.1,0.5,0.1,0.5s0.1-0.3,0.1-0.6S142.4,441,142.3,441.1z"/>
	<path class="st14" d="M141.4,439.2c-0.1,0,0,0.2,0.2,0.5s0.3,0.4,0.3,0.3s0-0.2-0.2-0.5S141.4,439.2,141.4,439.2z"/>
	<path class="st14" d="M139.8,438.1c0,0.1,0.2,0.1,0.5,0.3s0.4,0.3,0.4,0.3s0-0.3-0.3-0.5S139.8,438.1,139.8,438.1z"/>
	<path class="st14" d="M138.5,437.5c0,0,0.1,0.2,0.2,0.2s0.3,0.1,0.3,0.1s0-0.2-0.2-0.2S138.6,437.4,138.5,437.5z"/>
	<path class="st2" d="M163.2,286.6l-20.2-7.2l0,0l-27.9,5.1l0.8,156.3l26.5-0.4c0,0,0-1.8-0.1-5l15.5,4.3c0,0,15.1-51.1,20.3-72.1
		C182.4,350.1,163.2,286.6,163.2,286.6z M142,410c-0.4-37.8-0.9-98.3-0.4-106.2c0,0,14.8,52.8,15,57.3
		C156.7,363.8,148.4,389.9,142,410z"/>
	<path class="st14" d="M142.3,408.5c0.1,0,0.3,7,0.3,15.6s-0.1,15.7-0.3,15.7s-0.3-7-0.3-15.7S142.1,408.5,142.3,408.5z"/>
	<path class="st14" d="M148,436.8c0,0,0-0.1,0.1-0.4s0.1-0.6,0.3-1c0.2-1,0.6-2.3,1-4c0.9-3.5,2.2-8.5,3.7-14.7
		c3.2-12.5,7.6-29.6,12.5-48.6c1-3.8,2-7.6,2.9-11.2v0.1c-3.3-16.6-6.5-31-9.1-41.4l-3-12.1c-0.4-1.4-0.6-2.5-0.8-3.3
		c-0.1-0.4-0.1-0.6-0.2-0.9c0-0.1,0-0.2,0-0.3c0,0.1,0.1,0.2,0.1,0.3l0.2,0.8c0.2,0.8,0.5,1.9,0.9,3.3c0.8,2.8,1.9,7,3.2,12.1
		c2.7,10.3,6,24.8,9.2,41.4v0.1l-2.9,11.2c-5,19-9.4,36.1-12.7,48.6l-3.9,14.7c-0.5,1.7-0.8,3-1.1,4c-0.1,0.4-0.2,0.8-0.3,1
		C148.2,436.5,148.1,436.7,148,436.8z"/>
	<path class="st14" d="M127.1,439.5c-0.1,0-0.3-31.5-0.3-70.3s0.1-70.3,0.3-70.3s0.3,31.5,0.3,70.3S127.2,439.5,127.1,439.5z"/>
	<path class="st18" d="M134.4,201.6l16,0.8c0.2-1.9,0.3-9.1,0.3-9.1s6.7-0.8,7-7.4s-0.3-21.9-0.3-21.9l0,0c-7.5-3.6-16.4-2.8-23.3,2
		l-1,0.7L134.4,201.6z"/>
	<path class="st2" d="M154.1,175.3c-0.4-0.4-0.4-1,0-1.4c0.3-0.5,0.9-0.7,1.4-0.4c0.5,0.3,0.7,0.9,0.4,1.4c-0.1,0.2-0.2,0.3-0.4,0.4
		C155.1,175.7,154.5,175.7,154.1,175.3z"/>
	<path class="st2" d="M157.2,173.9c-0.1,0.1-0.7-0.4-1.6-0.4s-1.6,0.4-1.7,0.3s0.1-0.3,0.4-0.5c0.4-0.3,0.9-0.4,1.4-0.4
		c0.5,0,0.9,0.2,1.3,0.5C157.1,173.6,157.2,173.8,157.2,173.9z"/>
	<path class="st2" d="M145.7,174.3c0.5,0.3,0.6,0.9,0.3,1.4s-0.9,0.6-1.4,0.3c-0.5-0.3-0.6-0.9-0.3-1.4c0,0,0,0,0-0.1
		C144.6,174.1,145.2,174,145.7,174.3z"/>
	<path class="st2" d="M147.2,174.3c-0.1,0.1-0.7-0.4-1.6-0.4s-1.6,0.4-1.7,0.3s0.1-0.3,0.4-0.5c0.8-0.5,1.9-0.5,2.7,0.1
		C147.2,174,147.3,174.3,147.2,174.3z"/>
	<path class="st2" d="M150.6,182c0.5-0.2,1-0.3,1.5-0.3c0.2,0,0.4-0.1,0.5-0.2c0-0.2,0-0.5-0.1-0.7c-0.2-0.6-0.4-1.2-0.6-1.9
		c-0.6-1.6-1.1-3.2-1.4-4.9c0.8,1.5,1.4,3.1,1.9,4.8c0.2,0.7,0.4,1.3,0.6,1.9c0.1,0.3,0.2,0.7,0.1,1c-0.1,0.2-0.2,0.3-0.4,0.4
		c-0.1,0-0.3,0-0.4,0C151.6,182.1,151.1,182.1,150.6,182z"/>
	<path class="st11" d="M147.6,182.9c-0.9-0.6,2.6,1.5,4.4,1.5c-0.7,1-1.9,1.3-3,0.9C147.1,184.4,147.6,182.9,147.6,182.9z"/>
	<path class="st19" d="M150.7,193.2c-3.1-0.1-6-1-8.6-2.8c0,0,1.9,4.8,8.5,4.5L150.7,193.2z"/>
	<path class="st18" d="M134.5,174c-0.1,0-4.9-0.6-4.3,5.1s6.1,3.2,6.1,3S134.5,174,134.5,174z"/>
	<path class="st19" d="M134.3,180.3c0,0-0.1,0.1-0.3,0.2c-0.2,0.1-0.5,0.2-0.7,0.1c-0.8-0.4-1.3-1.2-1.4-2.1c-0.1-0.5,0-1,0.1-1.4
		c0.1-0.4,0.3-0.7,0.7-0.8c0.2-0.1,0.5,0,0.6,0.2c0.1,0.1,0.1,0.3,0.1,0.3s0.1-0.1,0-0.3c0-0.1-0.1-0.3-0.3-0.3
		c-0.2-0.1-0.4-0.1-0.6-0.1c-0.5,0.1-0.8,0.5-0.9,1c-0.2,0.5-0.3,1.1-0.2,1.6c0.1,1,0.7,1.9,1.7,2.3c0.3,0.1,0.6,0,0.9-0.2
		C134.3,180.5,134.3,180.3,134.3,180.3z"/>
	<path class="st2" d="M156.5,164.4c1.7-0.5,2.7-2.1,2.6-3.9c-0.2-1.7-1.3-3.2-2.9-3.9c-1.6-0.6-3.4-0.6-4.9,0.2
		c-0.6-2.9-3.4-4.7-6.3-4.1c-2.2,0.5-3.9,2.3-4.1,4.6c-0.2-1.3-1.7-2-2.9-2c-1.3-0.1-2.6,0.4-3.5,1.4c-0.9,1-0.8,2.5,0.1,3.5
		c-1.4-0.2-2.9,0.2-4.1,1.1c-1.2,0.9-1.8,2.3-1.7,3.8c0.2,1.5,1.2,2.7,2.7,3c0.5,0.1,1.1,0.1,1.3,0.5c0.1,0.2,0.2,0.5,0.1,0.8v4.8
		c0.9-0.3,1.9,0.1,2.3,1c0.4,0.9,0.5,1.8,0.3,2.8c0.4,0.6,1.4,0.4,1.9-0.2c0.4-0.6,0.5-1.4,0.4-2.1l-0.1-7.7
		c1.2,0.7,2.8,0.2,3.4-1.1c0.2-0.3,0.3-0.7,0.3-1.1c2.1,1.9,5.3,1.7,7.1-0.3c0.2-0.3,0.4-0.5,0.6-0.8c0.8,0.6,1.6,1.2,2.6,1.6
		c0.9,0.4,2,0.5,2.9,0.2c1-0.3,1.6-1.3,1.7-2.3l-0.3-0.3"/>
	<path class="st15" d="M209.5,220.5c-3,0-5.5,2.4-5.5,5.5s2.4,5.5,5.5,5.5s5.5-2.4,5.5-5.5C214.9,223,212.5,220.5,209.5,220.5
		C209.5,220.5,209.5,220.5,209.5,220.5z M209.5,225c-0.9,0-1.6-0.7-1.6-1.6s0.7-1.6,1.6-1.6s1.6,0.7,1.6,1.6
		C211,224.3,210.4,225,209.5,225C209.5,225,209.5,225,209.5,225L209.5,225z"/>
	<path class="st15" d="M207.6,231.1v9.8c0,0,2.2,1,2.1,1.1s1.6-1.1,1.6-1.1v-1.2l-1-1l1-0.9l-1-1.3l1-1.1l-1.1-1.3l1.1-1.1v-2
		L207.6,231.1z"/>
	<path class="st2" d="M215.6,211.8l-6.3-5.6l-6.3,5.7l1.9,0.3l0.2,5.7l8.5,0.1l-0.3-6L215.6,211.8z M209.3,216.9
		c-0.6,0-1-0.5-0.9-1.1c0-0.6,0.5-1,1.1-0.9c0.5,0,0.9,0.5,0.9,1C210.3,216.5,209.9,216.9,209.3,216.9
		C209.3,216.9,209.3,216.9,209.3,216.9L209.3,216.9z"/>
	<path class="st14" d="M210.1,216.6c0,0-0.2,0.1-0.5,0.1c-0.4,0-0.8,0-1.2,0.2c-0.6,0.2-1.1,0.6-1.4,1.1c-0.4,0.6-0.6,1.3-0.6,2.1
		c0.1,0.7,0.4,1.4,1,1.9c0.5,0.4,1,0.7,1.6,0.8c0.6,0,1.2,0,1.7-0.1c-0.5,0.4-1.1,0.6-1.7,0.5c-0.7,0-1.4-0.3-1.9-0.8
		c-0.7-0.6-1.1-1.4-1.2-2.2c-0.1-0.9,0.2-1.7,0.7-2.4c0.4-0.6,1-1,1.7-1.1c0.4-0.1,0.9-0.2,1.4-0.1
		C209.9,216.5,210.1,216.5,210.1,216.6z"/>
	<path class="st14" d="M212.1,221.2c-0.1-0.1,0.2-0.8,0.1-1.7s-0.4-1.6-0.3-1.6s0.8,0.6,0.8,1.6S212.2,221.3,212.1,221.2z"/>
	<path class="st18" d="M193.7,213.2c0.6-1.8,1.4-3.6,2.4-5.3c0.9-1.3,2.1-2.4,3.6-3c1.9-0.7,4.1-0.4,6.1-0.1l4.9,0.7
		c0.7,0.1,1.5,0.4,1.5,1.1c-0.1,0.4-0.4,0.7-0.8,0.8c-0.4,0.1-0.8,0.1-1.2,0c-1.1-0.1-2.2-0.2-3.3-0.1c-0.8,0.1-1.8,0.3-1.9,1.1
		s0.6,1.3,1.3,1.3c0.7,0,1.4-0.3,1.9-0.7l1.9-1.1c0.3-0.3,0.8-0.4,1.2-0.4c0.7,0.2,0.9,1.2,0.5,1.8c-0.5,0.6-1,1.1-1.7,1.4
		c-2.5,1.7-3.6,4.4-4.8,8"/>
	<path class="st20" d="M193.7,212.4l-11,28.4l-11.4-26.5c-3.6-12.8-19.4-13.6-19.4-13.6l-15.6-2c-5.6-2.3-14.8-0.4-18.3,1.6
		c-4.6,2.5-8.6,10.2-9.5,15.9c0,0-15.8,40.7-13.1,45s19.5,20.9,19.5,20.9l-2.3,8.6l26.8,1.7l2.7-10.6l0.3,11.3l25.2,1.8
		c-1.1-10-2.9-20-3.4-22.8l-2-29.2l0.3-6l0.2-0.6c2.4,3.9,5.3,9,9,15.5c7.4,13,14.8,9.7,19.1,4.5c1.9-2.4,3.3-5.1,4.1-8l10.8-30.4
		L193.7,212.4z M117,261.1c0,0.2-2.7-4.8-2.7-4.8l3.9-13C118.2,243.3,117,260.9,117,261.1z"/>
	<polygon class="st11" points="134.2,199 142.6,231.5 151.4,201 150.4,200.9 150.6,196.9 134.2,194.9 	"/>
	<path class="st2" d="M133.7,199.3c0,0.1,0,0.3,0,0.4c-0.1,0.3-0.1,0.8-0.2,1.3c-0.2,1.1-0.5,2.7-0.9,4.6s-0.9,4.4-1.4,7.1
		c-0.3,1.3-0.6,2.8,0.1,4.1s2.3,1.8,3.8,2.4l0.3,0.1l-0.2,0.3c-1.2,2.1-1.1,5-0.2,7.5c0.6,1.6,1.3,3.1,2.1,4.6
		c0.7,1.5,1.5,2.9,2.1,4.3c1.4,2.8,2.6,5.4,3.8,7.6l-0.4,0.1c0-3.7,0-6.7,0-8.9c0-1,0-1.8,0-2.4c0-0.3,0-0.6,0-0.9
		c0.1,0.3,0.1,0.6,0.1,0.9c0,0.6,0.1,1.4,0.1,2.4c0.1,2.2,0.1,5.2,0.2,8.9v0.9l-0.4-0.8c-1.1-2.3-2.4-4.8-3.8-7.6
		c-0.7-1.4-1.4-2.8-2.2-4.3c-0.8-1.5-1.5-3.1-2.1-4.7c-0.9-2.6-1-5.6,0.3-7.9l0.1,0.4c-0.8-0.2-1.5-0.6-2.3-0.9
		c-0.7-0.4-1.3-0.9-1.8-1.6c-0.4-0.7-0.6-1.5-0.5-2.3c0.1-0.7,0.2-1.4,0.4-2.1c0.6-2.7,1.1-5,1.5-7s0.8-3.5,1-4.6
		c0.1-0.5,0.2-0.9,0.3-1.2C133.6,199.6,133.6,199.5,133.7,199.3z"/>
	<path class="st2" d="M152.9,201.2c0.2,0.5,0.3,1,0.3,1.5c0.2,1,0.4,2.4,0.7,4.2s0.6,3.9,0.8,6.4c0,0.6,0.1,1.2,0.1,1.9
		c0,0.7-0.2,1.4-0.6,2c-0.9,1.1-2,2-3.3,2.6v-0.4c0.5,0.4,0.8,0.8,1.1,1.3c0.1,0.1,0.1,0.3,0.2,0.4c0,0.1,0.1,0.2,0.1,0.4v0.2
		c-0.1,0.3-0.1,0.6-0.2,0.9c-1,3.1-2.2,6-3.3,8.6s-2.1,4.9-3,6.9s-1.6,3.5-2.1,4.6l-0.6,1.2c-0.1,0.3-0.2,0.4-0.2,0.4
		c0-0.2,0.1-0.3,0.1-0.5c0.1-0.3,0.3-0.8,0.5-1.3l2-4.7c0.8-2,1.8-4.3,2.9-6.9s2.3-5.5,3.3-8.6c0.1-0.3,0.2-0.5,0.2-0.8v-0.2
		c0,0,0-0.1,0-0.1l-0.2-0.4c-0.3-0.4-0.6-0.8-1-1.2l-0.3-0.3l0.4-0.2c1.2-0.5,2.3-1.4,3.1-2.4c0.8-1,0.5-2.4,0.5-3.6
		c-0.1-2.4-0.4-4.6-0.7-6.4s-0.4-3.1-0.6-4.2C153,202.2,152.9,201.7,152.9,201.2z"/>
	<path class="st2" d="M142,282.9c-0.1,0,0-9.2,0.3-20.5c0.3-11.3,0.7-20.5,0.9-20.5s0,9.2-0.3,20.5
		C142.6,273.8,142.2,282.9,142,282.9z"/>
	<path class="st2" d="M146.1,250.2c-0.1,0,0.3-0.4,0.8-0.1c0.5,0.2,0.7,0.7,0.5,1.2c-0.1,0.3-0.4,0.5-0.7,0.6
		c-0.5,0.2-1-0.1-1.2-0.6c-0.1-0.3-0.1-0.6,0.1-0.9c0.3-0.5,0.8-0.4,0.8-0.3s-0.3,0.1-0.4,0.5c-0.1,0.2-0.1,0.4,0,0.6
		c0.1,0.2,0.4,0.3,0.6,0.2c0.2,0,0.4-0.2,0.4-0.4c0-0.2-0.1-0.4-0.3-0.5C146.4,250.2,146.1,250.3,146.1,250.2z"/>
	<path class="st2" d="M146.2,260.6c-0.1,0,0.3-0.4,0.8-0.1c0.3,0.2,0.5,0.5,0.6,0.8c0,0.5-0.3,0.9-0.8,1c-0.4,0.1-0.9-0.1-1.1-0.5
		c-0.2-0.3-0.1-0.7,0.1-1c0.4-0.5,0.8-0.4,0.8-0.3s-0.3,0.1-0.4,0.5c-0.1,0.2-0.1,0.4,0,0.6c0.2,0.2,0.6,0.3,0.8,0.1
		c0.1-0.1,0.2-0.2,0.2-0.3c0-0.2-0.1-0.4-0.3-0.5C146.5,260.5,146.3,260.6,146.2,260.6z"/>
	<path class="st2" d="M145.8,272.3c-0.1,0,0.3-0.4,0.8-0.1c0.3,0.1,0.5,0.4,0.6,0.8c0,0.5-0.3,0.9-0.8,1c-0.4,0.1-0.9-0.1-1.1-0.5
		c-0.2-0.3-0.1-0.7,0.1-1c0.4-0.5,0.8-0.4,0.8-0.3s-0.3,0.1-0.4,0.5c-0.1,0.2-0.1,0.4,0,0.6c0.1,0.2,0.4,0.2,0.6,0.2
		c0.2,0,0.4-0.2,0.4-0.5c0-0.2-0.1-0.4-0.3-0.5C146.1,272.3,145.8,272.4,145.8,272.3z"/>
	<polygon class="st2" points="151.4,232.6 158.7,232.6 158.7,231.5 151,231.5 	"/>
	<path class="st14" d="M203.6,223.3c-2-0.7-4-1.5-5.9-2.5c-2-0.8-3.9-1.9-5.7-3c2,0.7,4,1.5,5.9,2.6
		C199.9,221.1,201.8,222.1,203.6,223.3z"/>
	<path class="st14" d="M193.7,215.5c0,0,0.1-0.3,0.5-0.5c0.3-0.1,0.6-0.1,0.8,0c0.3,0.2,0.6,0.5,0.5,0.9c0,0.4-0.3,0.8-0.7,0.8
		c-0.3,0-0.6-0.1-0.8-0.4c-0.1-0.2-0.1-0.4,0-0.6c0.1-0.1,0.2-0.1,0.2-0.1s-0.1,0.3,0.1,0.5s0.6,0.2,0.6-0.2s-0.4-0.6-0.7-0.6
		S193.7,215.6,193.7,215.5z"/>
	<path class="st2" d="M182.1,246.7c-0.1-1.1-0.1-2.2,0.1-3.2c0-1.1,0.3-2.2,0.6-3.2C183,242.5,182.7,244.7,182.1,246.7L182.1,246.7z
		"/>
	<path class="st2" d="M184.7,246.4c-0.6-0.9-1-1.8-1.2-2.8c-0.4-1-0.7-2-0.7-3C183.7,242.4,184.4,244.4,184.7,246.4L184.7,246.4z"/>
	<path class="st14" d="M144.7,198.3c-0.4,1.4-1,2.7-1.9,3.9l1.5,4h1.3l1.1-3.8c0,0-0.7-0.6-1.3-4.2L144.7,198.3z"/>
	<path class="st0" d="M150.4,200.8c0,0-0.1,0.3-0.4,0.7c-0.4,0.6-1.1,1.1-1.9,1.3c-0.6,0.1-1.2,0-1.6-0.4c-0.4-0.5-0.7-1.1-0.9-1.7
		c-0.4-1.4-0.6-2.8-0.7-4.2l0.5,0.1c-0.2,0.8-0.4,1.7-0.8,2.6c-0.3,0.9-0.7,1.7-1.1,2.5c-0.2,0.4-0.6,0.8-1,1
		c-0.4,0.2-0.9,0.3-1.3,0.3c-0.8-0.1-1.5-0.3-2.2-0.6c-0.6-0.3-1.2-0.6-1.8-1c-0.8-0.5-1.6-1.1-2.3-1.7c-0.3-0.2-0.6-0.4-0.8-0.7
		c0.1-0.1,1.3,0.8,3.3,2.1c0.6,0.3,1.1,0.6,1.7,0.9c0.7,0.3,1.4,0.5,2.1,0.6c0.8,0,1.5-0.4,1.8-1.1c0.4-0.8,0.7-1.6,1-2.4
		c0.3-0.9,0.5-1.7,0.8-2.5c0-0.1,0.2-0.2,0.3-0.2c0,0,0,0,0,0c0.1,0,0.2,0.1,0.2,0.2c0,1.4,0.2,2.8,0.6,4.1c0.1,0.6,0.3,1.1,0.7,1.5
		c0.4,0.3,0.8,0.4,1.3,0.3c0.7-0.2,1.3-0.6,1.8-1.1C149.9,201.2,150.1,201,150.4,200.8z"/>
	<path class="st14" d="M144.3,206.2c-0.2,0.5-4.1,15.7-4.1,15.7l2.5,9.6l4.6-16c0,0-1.6-9.8-1.6-9.5S144.3,206.2,144.3,206.2z"/>
	<path class="st2" d="M129.9,277.2c-2,0.4-4.1,0.5-6.2,0.2c-2.1-0.1-4.1-0.5-6-1.3c0-0.1,2.7,0.5,6.1,0.8S129.9,277,129.9,277.2z"/>
	<path class="st2" d="M164.6,279.2c-1.4,0.2-2.8,0.2-4.3,0c-1.4,0-2.8-0.2-4.2-0.5c1.4-0.2,2.8-0.2,4.3,0
		C161.8,278.7,163.2,278.9,164.6,279.2z"/>
	<path class="st2" d="M118.4,229c0,0.2,0,0.4,0,0.6c0,0.4,0,0.9,0.1,1.6c0,1.4,0.1,3.4,0.1,5.8c0,4.9-0.1,11.7-0.5,19.2
		c-0.4,7.5-1,14.3-1.6,19.2c-0.3,2.5-0.5,4.4-0.7,5.8c-0.1,0.6-0.2,1.1-0.2,1.6c0,0.2-0.1,0.4-0.1,0.5c0-0.2,0-0.4,0-0.5
		c0-0.4,0.1-1,0.1-1.6c0.1-1.4,0.3-3.4,0.5-5.8c0.4-4.9,1-11.7,1.4-19.2c0.4-7.5,0.6-14.3,0.7-19.2c0-2.4,0.1-4.4,0.1-5.8
		c0-0.6,0-1.2,0-1.6C118.3,229.4,118.3,229.2,118.4,229z"/>
	<path class="st2" d="M114.3,256.8c0.5-2.8,1.2-5.6,2.1-8.3c0.7-2.8,1.6-5.5,2.6-8.2c-0.5,2.8-1.2,5.6-2.1,8.3
		C116.2,251.4,115.3,254.1,114.3,256.8z"/>
	<path class="st2" d="M117.4,262c-1.3-1.7-2.4-3.6-3.3-5.5c-1.1-1.8-2.1-3.7-2.9-5.7c1.3,1.7,2.4,3.6,3.3,5.5
		C115.6,258.2,116.6,260.1,117.4,262z"/>
</g>
</svg>
