<svg id="Layer_1" data-name="Layer 1" xmlns="http://www.w3.org/2000/svg" xmlns:xlink="http://www.w3.org/1999/xlink" viewBox="0 0 398.56 382.24"><defs><style>.cls-1,.cls-6,.cls-7,.cls-8{fill:none;}.cls-12,.cls-2{fill:#92e3a9;}.cls-3{fill:#f1cbb5;}.cls-15,.cls-16,.cls-17,.cls-3,.cls-4{isolation:isolate;}.cls-4{fill:#d2977c;}.cls-17,.cls-4{opacity:0.5;}.cls-16,.cls-5{fill:#638a66;}.cls-10,.cls-11,.cls-12,.cls-13,.cls-17,.cls-6,.cls-7,.cls-8{stroke:#263238;stroke-linecap:round;stroke-linejoin:round;}.cls-10,.cls-9{fill:#263238;}.cls-11,.cls-17{fill:#fff;}.cls-13{fill:#c0e1d9;}.cls-14{clip-path:url(#clip-path);}.cls-15{opacity:0.3;}.cls-16{opacity:0.6;}.cls-18{fill:#a2bda2;}</style><clipPath id="clip-path"><rect class="cls-1" x="124.94" y="81.66" width="35.4" height="15.51" rx="3"/></clipPath></defs><g id="freepik--background-simple--inject-102"><path class="cls-2" d="M281.52,320.46c4.65-1.52,9.38-2.74,14.14-3.82,14.58-3.3,48.64-15.65,73.91-60.82,33-59,27-149-14-199s-105-67-166-51c-29.73,7.8-49.55,28-66.67,52.39C108,79.44,91.2,99.91,68.62,113.34,46.25,126.65,23.27,137.26,12,162.55c-27.49,61.53-7.4,133.13,57.59,157.27C135.15,344.18,242,333.43,281.52,320.46Z"/><path class="cls-3" d="M281.52,320.46c4.65-1.52,9.38-2.74,14.14-3.82,14.58-3.3,48.64-15.65,73.91-60.82,33-59,27-149-14-199s-105-67-166-51c-29.73,7.8-49.55,28-66.67,52.39C108,79.44,91.2,99.91,68.62,113.34,46.25,126.65,23.27,137.26,12,162.55c-27.49,61.53-7.4,133.13,57.59,157.27C135.15,344.18,242,333.43,281.52,320.46Z"/></g><g id="freepik--Ground--inject-102"><ellipse class="cls-2" cx="215.65" cy="367.24" rx="182.91" ry="15"/><ellipse class="cls-4" cx="215.65" cy="367.24" rx="182.91" ry="15"/></g><g id="freepik--Plants--inject-102"><path class="cls-5" d="M389.23,235.6h0v0h0c-1.22-.12-13.78-1.2-25.25,4.76a30.69,30.69,0,0,0,6.49-22.56c-2.76-27.67-28.88-43.51-30.89-44.7V173h-.13v.07c-2,1.19-28.12,17-30.89,44.7a30.7,30.7,0,0,0,2.4,15.74c-14.71-8.79-31.86-7.31-33.44-7.15v0h-.06v0c-.77,1.79-10.59,25.38,1.2,45.44,10.55,17.93,32.66,13.19,38.67,11.51,5.05,5.3,14.24,17.36,18.31,38h-5.73l2.76,39h12.89l2.76-39h-6.74A119,119,0,0,1,358,282.08c6,1.49,22.29,4,30.31-9.62C397.82,256.2,389.86,237.05,389.23,235.6Zm-50.17-.15-13.63-18.92a.37.37,0,0,1,.61-.43l13,18.11V215.05h0l-13.63-18.92a.37.37,0,0,1,.6-.44h0l13,18.11V186a.36.36,0,0,1,.37-.37.38.38,0,0,1,.37.37v27L354,195a.38.38,0,0,1,.52-.07.38.38,0,0,1,.07.53h0l-14.73,18.68v19.16L354,215.34a.38.38,0,0,1,.52-.07.38.38,0,0,1,.07.53l-14.73,18.68v16.21L354,232.75a.37.37,0,0,1,.52-.06h0a.38.38,0,0,1,.07.52l-14.73,18.68v.35h-1.21L325.43,234a.37.37,0,0,1,.6-.44h0l13,18.11v-16.2Zm-21.64,46.18-1.35-1.84-19.16-5.34a.31.31,0,0,1-.22-.38.3.3,0,0,1,.38-.22h0L315.48,279l-8-11-19.17-5.35a.31.31,0,0,1-.22-.37h0a.31.31,0,0,1,.38-.21l18.41,5.13-9.47-13L278.26,249a.31.31,0,1,1,.06-.62.19.19,0,0,1,.1,0l18.41,5.13-13.31-18.21a.32.32,0,0,1,.07-.44.31.31,0,0,1,.43.07l13.77,18.84-.13-18.67a.29.29,0,0,1,.29-.31h0a.31.31,0,0,1,.32.3h0l.14,19.5h0l9.46,12.94-.14-18.73a.31.31,0,0,1,.31-.31.3.3,0,0,1,.31.29h0l.14,19.5h0l8,10.94-.13-18.68a.31.31,0,0,1,.62,0l.14,19.5h0l1.14,1.57Zm2.17,0c2.8-4.25,10.87-18.22,6-31.65a61.06,61.06,0,0,0,12,6.11v60.63c-4.42-18.58-12.76-29.74-17.85-35.09Zm21,31.35V256.37A61,61,0,0,0,352,250.8c-7.69,12.33.92,26.57,3.19,29.93A118.11,118.11,0,0,0,340.55,313Zm48-59.09L373,258.22l-7.68,10.51,14.94-4.16a.25.25,0,0,1,.31.17h0a.27.27,0,0,1-.18.31l-15.55,4.34-6.49,8.88,14.93-4.17a.27.27,0,0,1,.31.18.25.25,0,0,1-.17.31h0L357.82,279l-.82,1.11c-.15-.08-.29-.17-.43-.26l.47-.64h0l.12-15.82a.25.25,0,0,1,.5,0l-.11,15.15,6.49-8.88h0l.12-15.82a.25.25,0,0,1,.5,0L364.49,269l7.68-10.5h0l.12-15.83a.25.25,0,0,1,.25-.25.26.26,0,0,1,.25.26l-.11,15.15,11.18-15.29a.24.24,0,0,1,.35-.05.25.25,0,0,1,.05.35h0l-10.8,14.78,14.94-4.17a.25.25,0,0,1,.31.18.27.27,0,0,1-.18.31Z"/></g><g id="freepik--Graphics--inject-102"><line class="cls-6" x1="76.38" y1="170.11" x2="76.38" y2="178.98"/><line class="cls-6" x1="80.81" y1="174.54" x2="71.94" y2="174.54"/><line class="cls-6" x1="355.04" y1="94.11" x2="355.04" y2="102.98"/><line class="cls-6" x1="359.48" y1="98.54" x2="350.61" y2="98.54"/><line class="cls-6" x1="173.04" y1="212.11" x2="173.04" y2="220.98"/><line class="cls-6" x1="177.48" y1="216.54" x2="168.61" y2="216.54"/><line class="cls-6" x1="253.04" y1="25.44" x2="253.04" y2="34.31"/><line class="cls-6" x1="257.48" y1="29.88" x2="248.61" y2="29.88"/><line class="cls-6" x1="253.04" y1="263.54" x2="253.04" y2="272.41"/><line class="cls-6" x1="257.48" y1="267.98" x2="248.61" y2="267.98"/><line class="cls-6" x1="182.79" y1="56.93" x2="182.79" y2="63.03"/><line class="cls-6" x1="185.84" y1="59.98" x2="179.74" y2="59.98"/><line class="cls-6" x1="52.3" y1="93.54" x2="52.3" y2="102.42"/><line class="cls-6" x1="56.74" y1="97.98" x2="47.87" y2="97.98"/><line class="cls-6" x1="97.04" y1="269.44" x2="97.04" y2="278.31"/><line class="cls-6" x1="101.48" y1="273.88" x2="92.61" y2="273.88"/><circle class="cls-7" cx="343.72" cy="62.12" r="7.33" transform="translate(197.74 379.44) rotate(-75.54)"/><path class="cls-6" d="M261.74,216a7.34,7.34,0,1,1-7.35-7.33h0A7.33,7.33,0,0,1,261.74,216Z"/><circle class="cls-8" cx="58.42" cy="231.46" r="7.33" transform="translate(-81.61 38.12) rotate(-21.75)"/><circle class="cls-6" cx="186.74" cy="287.1" r="4.88"/><path class="cls-6" d="M266.41,137.14a1.67,1.67,0,1,1-1.67-1.67,1.67,1.67,0,0,1,1.67,1.67Z"/><path class="cls-6" d="M154.07,113.14a1.68,1.68,0,1,1,0-.26Z"/><path class="cls-6" d="M207.74,218a1.67,1.67,0,1,1-1.67-1.67,1.67,1.67,0,0,1,1.67,1.67Z"/><path class="cls-6" d="M288.74,296a1.67,1.67,0,1,1-1.67-1.67,1.67,1.67,0,0,1,1.67,1.67Z"/><path class="cls-9" d="M201.39,17.46a8,8,0,0,1,6,2.92,8.13,8.13,0,0,1,1.88,5.15,8,8,0,0,1-3.1,6.16,6.31,6.31,0,0,0-3.63,5.85c-.1.68-.41,1-.92,1s-1-.39-1-.76V37.2c0-2.89,1.56-5.29,4.7-7.22a6.46,6.46,0,0,0,2-4.68c0-2.28-1.21-4.1-3.61-5.46a9.34,9.34,0,0,0-2.56-.48q-3.54,0-5.55,3.78l-.51,2.48c-.27.35-.52.52-.74.52-.7-.14-1-.45-1-.91q0-3.75,3.7-6.54A9,9,0,0,1,201.39,17.46Zm0,24.08h.25c.63,0,1.08.4,1.35,1.21v.39a1.48,1.48,0,0,1-1.52,1.4c-1-.21-1.48-.68-1.48-1.42a1.49,1.49,0,0,1,1.38-1.58Z"/><path class="cls-9" d="M35.41,183.5a8,8,0,0,1-6-2.93,8.15,8.15,0,0,1-1.87-5.15,8,8,0,0,1,3.1-6.16,6.35,6.35,0,0,0,3.63-5.85c.1-.68.41-1,.92-1s1,.39,1,.76v.58c0,2.89-1.57,5.29-4.7,7.22a6.38,6.38,0,0,0-2,4.68q0,3.42,3.61,5.46a9.27,9.27,0,0,0,2.56.48q3.54,0,5.55-3.78l.51-2.47c.27-.36.52-.53.74-.53.7.14,1,.45,1,.92,0,2.48-1.24,4.66-3.7,6.53A9,9,0,0,1,35.41,183.5Zm0-24.09h-.25c-.63,0-1.08-.4-1.35-1.21v-.39a1.46,1.46,0,0,1,1.52-1.4c1,.21,1.48.68,1.48,1.42a1.51,1.51,0,0,1-1.38,1.58Z"/><path class="cls-9" d="M54,51.32a4.22,4.22,0,0,1,2.52,7.58,3,3,0,0,0-1.71,2.74c-.07.49-.32.73-.73.73a.68.68,0,0,1-.71-.62v-.29a4.41,4.41,0,0,1,2.44-3.81,2.93,2.93,0,0,0,.92-2.15A2.8,2.8,0,0,0,55.08,53a4.33,4.33,0,0,0-1.18-.23,2.8,2.8,0,0,0-2.55,1.74l-.26,1.26a.87.87,0,0,1-.63.4c-.49-.1-.74-.34-.74-.7a4.3,4.3,0,0,1,2-3.48A4.72,4.72,0,0,1,54,51.32Zm0,12.06h.16c.42,0,.73.27.91.81v.25a1,1,0,0,1-1,.93c-.64-.14-1-.45-1-1a1,1,0,0,1,.89-1Z"/><path class="cls-9" d="M173,114.66a4.25,4.25,0,0,1-3.19-1.56,4.16,4.16,0,0,1,.49-5.86l.18-.14a3,3,0,0,0,1.7-2.75c.08-.49.32-.73.74-.73a.66.66,0,0,1,.7.63v.29a4.42,4.42,0,0,1-2.44,3.81,2.87,2.87,0,0,0-.92,2.15A2.83,2.83,0,0,0,171.9,113a4.32,4.32,0,0,0,1.18.22,2.83,2.83,0,0,0,2.55-1.74l.27-1.26a.78.78,0,0,1,.62-.4c.49.11.74.34.74.7a4.3,4.3,0,0,1-2,3.48A5,5,0,0,1,173,114.66Zm0-12.07h-.15c-.43,0-.74-.27-.92-.81v-.25a1,1,0,0,1,1-.93c.63.14,1,.46,1,1a1,1,0,0,1-.85,1Z"/></g><g id="freepik--Character--inject-102"><path class="cls-10" d="M146.92,69.16s5.33-4.16,1.62-9.72-22.21-6.25-35.41-.23-12,13.89-10.87,16.43S105,81.43,105,81.43V89.3s-.69,4.63-8.56,10.41S82.58,115,84.2,122s6.72,7.18,2.55,12.5-18.52,8.79-19.44,19.9,2.31,27.55,26.15,30.09,33.56-5.78,45.36-20.37,14.58-25.69,13.66-38.42-7.18-14.58-6.94-22.45,11.1-20.59,8.33-28.46S146.92,69.16,146.92,69.16Z"/><path class="cls-11" d="M126.09,106.66s1.86,7.17.47,10.64-5.33,4.86-13.66,8.1-9.72,12-6.48,19.21,14.35,25,12.73,28.93-18,16.67-18.28,35,10,42.82,10,42.82h36.34s3.93-75,3.93-82.16-.46-8.1,2.31-12c0,0,15.51,17.82,19.68,16.43s26.38-46.29,26.38-46.29a55.67,55.67,0,0,0,7.87-5.78c3.24-3,5.09-4.63,4.17-7.87a5,5,0,0,0-3.71-3.7s6-10.19,5.1-11.34-2.78.46-4.63,4.16-5.33,6.95-8.34,13-3.7,7.87-3.7,7.87S177,149.47,174.74,152a23.62,23.62,0,0,1-3,3S166,148,162,142.25s-4.4-7.64-7.87-10.65-15.28-9.72-16.9-11.11-.23-9.72-.23-9.72Z"/><path class="cls-11" d="M214.51,112.67a2.4,2.4,0,0,1,.92,3.24c-.92,2.32-4.63,3.94-5.32,3S214.51,112.67,214.51,112.67Z"/><path class="cls-11" d="M212.65,109.2s3.71.93,1.86,3.47-5.33,6-6,5.33,1.16-3.24,1.39-4.17A33.8,33.8,0,0,1,212.65,109.2Z"/><path class="cls-11" d="M208.74,111.29s-3,4.62-1.85,5.32,3.93-2.32,5.32-5.09S210.57,108.05,208.74,111.29Z"/><path class="cls-11" d="M200.16,121.7s3.24-1.85,4.16-3.93a7.07,7.07,0,0,0,0-4.63s4.17-.93,5.09-.93,2.09-1.39,1.86-3-6.72.23-9,.7-2.32,5.78-2.32,5.78L197.61,122"/><path class="cls-11" d="M149.74,248s.86,13.23-2,22c-1.73,5.29-7.81,46.71-8.5,55.2-.79,9.68-1.27,23.8.27,27.95,1.18,3.18,10.7,16.26,14.63,18.1,1.19.56.39,2.54-.92,2.7a30,30,0,0,1-11.1-1.38c-3.63-1.28-5.3-6.48-8.92-8.19s-9-1.28-7-5.8,3.44-8.31,3.44-8.31-.14-7-5-46.14c-1.18-9.42,5.67-30.13,5.67-35.13s-3-20.5-3-20.5Z"/><polygon class="cls-12" points="130.62 369.07 131.99 368.46 133.62 364.31 130.98 363.68 130.62 369.07"/><polygon class="cls-12" points="126 361.19 128.14 368.37 130.62 369.07 131.4 363.38 126 361.19"/><path class="cls-12" d="M154.14,371.23c-.76-.75-3.15-2.24-4.09-3.4a15.46,15.46,0,0,1-6.24.34c-4.16-1.08-5.89-6.1-9.35-9a68.86,68.86,0,0,1-6-5.71l-.12,0c-.58,1.42-1.34,3.22-2.21,5.19-2,4.52,3.41,4.08,7,5.8s5.29,6.91,8.92,8.19a30,30,0,0,0,11.1,1.38,1.59,1.59,0,0,0,1-2.74Z"/><path class="cls-11" d="M133.74,237.73s-.25,25.64-1.2,33c-.89,6.88-3.94,24.47-19.75,51.18-5.3,9-13.69,27.24-13.69,31.24.21,1.63,2.27,9.55,4.81,12.83,3.9,5,6.66,7.61,4.76,8.56s-8.64-.76-12.92-3.13c-3.73-2.08-6.21-7.43-9.06-11.23s-1-6.19,2-8.69,4.38-9.72,5.38-12.22,8.5-42.81,11.25-51.09A99.61,99.61,0,0,1,113.5,271l-5-32.5Z"/><polygon class="cls-12" points="87.74 369.08 89.63 368.71 91.13 364.56 88.62 362.55 87.74 369.08"/><polygon class="cls-12" points="85.48 356.39 85.48 368.33 87.74 369.08 88.62 362.55 85.48 356.39"/><path class="cls-12" d="M102.87,367.52c-2.18.67-5.71.16-9.75-3.7-3.56-3.41-5.2-10-5.45-11.46-2.49,2.11-3.52,4.47-1,7.83,2.85,3.8,5.33,9.15,9.06,11.23,4.28,2.37,11,4.08,12.92,3.13s-.71-3.4-4.15-7.77A7.49,7.49,0,0,1,102.87,367.52Z"/><path class="cls-13" d="M162,142.3c-3.94-5.79-4.4-7.64-7.87-10.65a89.66,89.66,0,0,0-8.79-5.94,14.09,14.09,0,0,1-12.5,9.18c-9,.82-12.23-7.29-13.33-12.1-1.8.77-4,1.6-6.58,2.61-8.33,3.24-9.72,12-6.48,19.21s14.35,25,12.73,28.93-18,16.67-18.28,35,8.75,51.82,8.75,51.82l42.12-.33s3.51-19.17,3-33.17c-.49-13.76-4.46-36.15-4.51-36.8.5-10.48.85-18.71.85-20.86,0-7.18-.46-8.1,2.31-12,0,0,2.58,3,5.92,6.38l8.62-13.12C166.07,148,163.82,145,162,142.3Z"/><path class="cls-6" d="M153.4,157.11s4.4-8.33,1.86-14.58"/><path class="cls-6" d="M134.38,226.51c.18,2,.31,4,.36,6"/><path class="cls-6" d="M126.24,193a134.54,134.54,0,0,1,7.68,29.48"/><path class="cls-6" d="M144.24,222a84.34,84.34,0,0,1-8,20.5"/><path class="cls-13" d="M112,125.63s-8.34,1.39-11.58,5.1S76.57,178,77.26,180.49s10.88,1.39,15.28-3,20.59-38.65,20.59-38.65"/><path class="cls-11" d="M103.29,158.85,88.5,153.61c-5.89,12.44-11.61,25.52-11.24,26.88.69,2.54,10.88,1.39,15.28-3C94.55,175.47,99,167.21,103.29,158.85Z"/><path class="cls-11" d="M84,168.22s35.88-6.25,37.5-6.71,9.48-9.26,10.18-9.49,7.17-1.16,10-.46,4.86,1.39,3.47,1.85a44.37,44.37,0,0,1-7.17.92,17.88,17.88,0,0,0-2.32.24s7.18,1.85,8.34,2.77,1.15,1.85-.24,1.85-8.79-1.38-8.79-1.38,9.26,4.16,8.79,4.86-2.08.46-4.16,0a30.87,30.87,0,0,1-5.33-2.09s5.56,5.79,3.94,6-1.85-.46-3-1.85a15.4,15.4,0,0,0-3.93-2.78s-2.32,4.4-5.79,5.32a17.27,17.27,0,0,1-6.94.24s-20.14,10.64-26.39,12.73-12.32,3.74-14.39,1.4,3-10.18,3-10.18"/><path class="cls-11" d="M118.23,90.46s-1.86-3.24-3.24-1.16-1.16,6,.92,8.56,6,1.39,6,1.39,2.31,8.8,6.48,11.8,12.5,3.24,16.66-1.38,4.4-14.59,3.71-23.38S143.9,73.1,143.9,73.1s-9.73,7.63-14.59,9.49a51.88,51.88,0,0,1-9.72,2.54Z"/><path class="cls-6" d="M141.91,101.8a6.22,6.22,0,0,1-6.24-1.14"/><rect class="cls-12" x="105.03" y="81.43" width="18.75" height="7.87"/><rect class="cls-12" x="118.92" y="81.66" width="37.49" height="15.51" rx="3"/><rect class="cls-2" x="124.94" y="81.66" width="35.4" height="15.51" rx="3"/><g class="cls-14"><rect class="cls-15" x="124.94" y="81.66" width="35.4" height="15.51" rx="3"/></g><rect class="cls-6" x="124.94" y="81.66" width="35.4" height="15.51" rx="3"/></g><g id="freepik--Options--inject-102"><rect class="cls-16" x="196.96" y="73.98" width="51.51" height="49.39" rx="7.18"/><line class="cls-6" x1="188.83" y1="101.63" x2="188.83" y2="95.42"/><path class="cls-6" d="M218.91,132H196a7.18,7.18,0,0,1-7.18-7.18V104.4"/><line class="cls-6" x1="231.26" y1="132.04" x2="223.81" y2="132.04"/><path class="cls-6" d="M256.59,88v36.85a7.19,7.19,0,0,1-7.18,7.18H236.16"/><path class="cls-6" d="M200,65.31h49.43a7.18,7.18,0,0,1,7.18,7.18v8.92"/><rect class="cls-6" x="193.61" y="70.77" width="58.21" height="55.82" rx="7.18"/><rect class="cls-17" x="268.27" y="70.77" width="58.21" height="55.82" rx="7.18"/><rect class="cls-17" x="193.61" y="143.43" width="58.21" height="55.82" rx="7.18"/><rect class="cls-17" x="268.27" y="143.43" width="58.21" height="55.82" rx="7.18"/><rect class="cls-18" x="271.62" y="73.98" width="51.51" height="49.39" rx="7.18"/><rect class="cls-18" x="196.96" y="146.65" width="51.51" height="49.39" rx="7.18"/><rect class="cls-18" x="271.62" y="146.65" width="51.51" height="49.39" rx="7.18"/><path class="cls-9" d="M222.74,89.49h0c.38.08.56.24.56.49v15.88q-.11.6-.57.6h0c-.41-.08-.62-.24-.62-.48V90.89a10.85,10.85,0,0,1-1.93.54q-.33,0-.48-.57v-.2c0-.29.55-.55,1.63-.77Z"/><path class="cls-9" d="M296.37,89.5a5,5,0,0,1,5,5,6.15,6.15,0,0,1-2.28,4.41l-5.58,6.39h7.56c.29,0,.46.2.53.59s-.25.6-.58.6h-8.94c-.39-.08-.59-.27-.59-.58v0c0-.2.26-.55.79-1l7.19-8.19a3.69,3.69,0,0,0-3-5.85h-.14a3.65,3.65,0,0,0-3.53,2.6,5.46,5.46,0,0,0-.2,1.21c-.14.29-.31.43-.52.43H292c-.39-.07-.59-.25-.59-.52a5,5,0,0,1,2.48-4.27A5.23,5.23,0,0,1,296.37,89.5Z"/><path class="cls-9" d="M222,162.22a4.15,4.15,0,0,1,3.29,1.72,3.81,3.81,0,0,1,.77,2.3v.18a4.57,4.57,0,0,1-1.85,3.39,5.38,5.38,0,0,1,2.58,4.36,4.93,4.93,0,0,1-4.9,5h-.17a5,5,0,0,1-4.51-3,6,6,0,0,1-.39-2c0-.26.23-.43.68-.52.27,0,.44.21.5.63a3.78,3.78,0,0,0,2.27,3.39,4.78,4.78,0,0,0,1.59.31,3.66,3.66,0,0,0,3.41-2.35,4.1,4.1,0,0,0,.26-1.24V174a3.65,3.65,0,0,0-2.37-3.32l-1.48-.32a.63.63,0,0,1-.3-.5v-.05c0-.38.31-.56.94-.56a2.92,2.92,0,0,0,2.14-1.35,3.84,3.84,0,0,0,.42-1.59,2.81,2.81,0,0,0-1.63-2.57A2.87,2.87,0,0,0,219.4,165a2.44,2.44,0,0,0-.21.53,6.78,6.78,0,0,1-.16,1.1c-.22.25-.38.37-.48.37-.43-.1-.65-.26-.65-.48v-.23a4,4,0,0,1,2.24-3.56A4.38,4.38,0,0,1,222,162.22Z"/><path class="cls-9" d="M299.11,162.3h.28q.27,0,.48.51l-.05.41v9.52H302c.26,0,.45.22.55.65,0,.25-.17.44-.52.57l-.63-.05h-1.56v4.78c0,.23-.2.39-.6.47h0c-.4-.07-.6-.26-.6-.56v-4.69H292.1l-1,.05c-.29-.12-.44-.29-.44-.52v-.19c0-.11.12-.27.38-.46q7.38-9.63,7.79-10.25A.51.51,0,0,1,299.11,162.3Zm-6.61,10.44h6.13v-8Z"/></g></svg>