<svg id="Layer_2" data-name="Layer 2" xmlns="http://www.w3.org/2000/svg" xmlns:xlink="http://www.w3.org/1999/xlink" viewBox="0 0 479.11 289.65"><defs><style>.cls-1{fill:url(#linear-gradient);}.cls-2{fill:#fdfdfd;}.cls-3{fill:#93c1a1;}.cls-4{fill:#1a7c55;}.cls-5{fill:#49b770;}.cls-6{fill:#24774f;}.cls-7{fill:#638a66;}</style><linearGradient id="linear-gradient" y1="216.93" x2="73.68" y2="216.93" gradientTransform="matrix(1, 0, 0, -1, 0, 291.2)" gradientUnits="userSpaceOnUse"><stop offset="0" stop-color="#fff"/><stop offset="1" stop-color="#7ec374"/><stop offset="1" stop-color="#94c943"/><stop offset="1" stop-color="#8fc73e"/></linearGradient></defs><polygon class="cls-1" points="73.68 93.6 50.42 146.4 42.71 146.4 0 2.14 43.15 2.14 73.68 93.6"/><polygon class="cls-2" points="146.07 99.86 127.92 143.75 115.68 143.75 66.96 2.14 114.48 2.14 146.07 99.86"/><path class="cls-2" d="M441.84,92.64a28.13,28.13,0,0,0,7.92-3.36c.72-.45,1.84-1.26,4.08-2.88,2.59-1.87,3.88-2.81,4.8-3.6a38.46,38.46,0,0,0,4.8-5,55.11,55.11,0,0,0,3.84-5.28,31.46,31.46,0,0,0,4.08-7.92,33.8,33.8,0,0,0,1-4.32,85.54,85.54,0,0,0,1.2-9.84,55.13,55.13,0,0,0,.24-7.92,43.47,43.47,0,0,0-1.44-8.16,44.27,44.27,0,0,0-3.84-9.6,42,42,0,0,0-6.24-8.4,50.34,50.34,0,0,0-8.16-7.2A38.35,38.35,0,0,0,448.6,5.8,83.6,83.6,0,0,0,440.46,2a38.73,38.73,0,0,0-8-2H379.92L333.6,109.44l-10.08,26.4L272.64,2.14H216.48l-11.4,25.2,48.84,1L308.16,156.5h27.36L391.68,34.67l34,.25c.3.06,1.27,0,1.83.09,1.29.21,1.29.4,2.12.56a5.54,5.54,0,0,1,1.9.82,4.21,4.21,0,0,1,1.59,1l1.8,1.56a24.61,24.61,0,0,1,1.92,2.4,11.75,11.75,0,0,1,1,1.65,7.24,7.24,0,0,1,.48,2.76,14.51,14.51,0,0,1-.48,5.16c-.16.59-.31,1-.6,1.8a14.08,14.08,0,0,1-.84,2,6.55,6.55,0,0,1-1.68,1.8c-1.1.91-1.17.61-3.12,1.92a5.69,5.69,0,0,1-1.8,1c-.62.18-.53.31-1.16.49-1.05.3-1.3.33-2.1.55a13.35,13.35,0,0,1-2,0L384,60.6l57.12,95.88h38Z"/><polygon class="cls-2" points="187.8 64.8 250.56 64.8 250.56 90.24 176.28 90.24 187.8 64.8"/><polygon class="cls-2" points="161.97 121.69 254.88 121.44 254.88 143.75 152.16 143.25 161.97 121.69"/><polygon class="cls-2" points="161.6 67.57 140.64 2.14 191.28 2.14 161.6 67.57"/><rect class="cls-2" x="116.16" y="153.84" width="143.76" height="3.84"/><rect class="cls-2" x="88.08" y="285.81" width="332.64" height="3.84"/><polygon class="cls-2" points="113.07 264.53 114.17 246.03 117.7 246.03 122.69 261.24 127.68 246.03 131.03 246.03 131.7 264.53 129.2 264.53 128.84 249.44 123.72 264.53 120.98 264.53 116.6 250.05 115.93 264.53 113.07 264.53"/><polygon class="cls-2" points="192.36 253.26 192.39 246 189.69 245.97 189.78 264.41 192.18 264.41 192.18 257.46 193.75 255.74 199.31 264.41 202.62 264.41 195.66 254.22 202.2 246 198.2 246.02 192.36 253.26"/><polygon class="cls-2" points="232.89 245.99 222.94 245.99 222.94 264.48 233.43 264.48 233.43 262.37 225.28 262.19 225.29 256.07 232.35 256.02 232.35 253.9 225.29 253.81 225.51 247.97 232.8 248.06 232.89 245.99"/><polygon class="cls-2" points="322.98 245.99 313.04 245.99 313.04 264.48 323.52 264.48 323.52 262.37 315.37 262.19 315.38 256.07 322.44 256.02 322.44 253.9 315.38 253.81 315.6 247.97 322.89 248.06 322.98 245.99"/><path class="cls-2" d="M285.32,246a15.18,15.18,0,0,1,1.9.24,3.42,3.42,0,0,1,1.14.54,4.48,4.48,0,0,1,.66.72,6.14,6.14,0,0,1,.54.72,9.18,9.18,0,0,1,.48,1,3.7,3.7,0,0,1,.3.78,2,2,0,0,1,.08.81v.81l-.05.68a4.93,4.93,0,0,1-1.53,2.42,2.36,2.36,0,0,1-.95.67c-.57.26-1,.06-1,.19s.44.19.84.54a3.92,3.92,0,0,1,.63.72,7.66,7.66,0,0,1,.45.66,4.29,4.29,0,0,1,.51,1c.28.73.2.61.39,1.13a9.12,9.12,0,0,1,.42,1.44c.11.55.12.51.26,1.32.09.55.11,1,.16,1.14.08.33,0,.62.08.84h-2.21v-1.48a6.34,6.34,0,0,0-.13-1.24l-.16-.88a7.17,7.17,0,0,0-.18-.9,5.8,5.8,0,0,0-.4-.88c-.09-.16-.21-.38-.39-.65a6.85,6.85,0,0,0-.45-.61l-.49-.56-.59-.63-4.09.07v7.92h-2.16l2.07-9.89h4l.94-.27.81-.54.67-.63.46-1.2v-1.68a1.22,1.22,0,0,0-.21-.54c-.08-.18-.17-.24-.22-.37a1.28,1.28,0,0,0-.24-.34l-.21-.23a1.24,1.24,0,0,0-.22-.18l-.36-.21a1.46,1.46,0,0,0-.3-.17l-.34-.11h-.89C285.29,247.44,285.31,246.65,285.32,246Zm-6,18.46,2.07-9.89.06-6.48h3.84V246h-6Z"/><polygon class="cls-2" points="348.3 256.44 353.52 256.32 353.16 255.12 350.82 248.44 350.82 246 352.56 246 358.68 264.24 355.62 264.24 353.82 258.54 347.82 258.54 346.08 264.24 342.96 264.24 349.13 246 350.82 246 350.82 248.44 347.91 256.44 348.3 256.44"/><polygon class="cls-2" points="382.65 246 380.04 246 380.04 264.44 390.48 264.44 390.48 262.34 382.74 262.27 382.65 246"/><polygon class="cls-3" points="170.28 252.36 170.28 266.4 150.6 266.4 150.6 252.48 160.44 244.44 170.28 252.36"/><polygon class="cls-4" points="148.56 250.44 148.56 252.48 150.6 252.48 160.44 244.44 170.28 252.36 172.2 252.48 172.2 250.92 161.88 241.8 159.72 241.8 148.56 250.44"/><path class="cls-5" d="M160.37,248.08l1.9,1.9a7,7,0,0,1,0,9.9l-1.69,1.69h0l-1.9-1.9a7,7,0,0,1,0-9.9l1.69-1.69Z"/><rect class="cls-6" x="159.12" y="255.23" width="2.76" height="9.18"/><g id="devices"><g id="vr"><path id="Shape" class="cls-7" d="M422.6,66.08l-8-8h-8l-8,8h-8a8,8,0,0,1-8-8v-24a8,8,0,0,1,8-8h39.92a8,8,0,0,1,8,8v24a8,8,0,0,1-8,8ZM450.54,54.7a4,4,0,0,1-8,0v-16a4,4,0,1,1,8,0Zm-71.84,0a4,4,0,0,1-8,0v-16a4,4,0,1,1,8,0Z"/></g></g></svg>