<svg viewBox="0 0 479.11 289.65" xmlns="http://www.w3.org/2000/svg" xmlns:xlink="http://www.w3.org/1999/xlink"><linearGradient id="a" gradientUnits="userSpaceOnUse" x2="73.68" y1="74.27" y2="74.27"><stop offset="0" stop-color="#fff"/><stop offset="1" stop-color="#7ec374"/><stop offset="1" stop-color="#94c943"/><stop offset="1" stop-color="#8fc73e"/></linearGradient><path d="m73.68 93.6-23.26 52.8h-7.71l-42.71-144.26h43.15z" fill="url(#a)"/><g fill="#231f20"><path d="m146.07 99.86-18.15 43.89h-12.24l-48.72-141.61h47.52z"/><path d="m441.84 92.64a28.07 28.07 0 0 0 7.92-3.36c.72-.45 1.84-1.26 4.08-2.88 2.59-1.87 3.88-2.81 4.8-3.6a38.54 38.54 0 0 0 4.8-5 55.08 55.08 0 0 0 3.84-5.28 31.31 31.31 0 0 0 4.08-7.92 34 34 0 0 0 1-4.32 87.42 87.42 0 0 0 1.2-9.84 54.68 54.68 0 0 0 .24-7.92 43.72 43.72 0 0 0 -1.44-8.16 44.68 44.68 0 0 0 -3.84-9.6 42.16 42.16 0 0 0 -6.24-8.4 50.42 50.42 0 0 0 -8.16-7.2 38 38 0 0 0 -5.52-3.36 84.21 84.21 0 0 0 -8.14-3.8 38.82 38.82 0 0 0 -8-2h-52.54l-46.32 109.44-10.08 26.4-50.88-133.7h-56.16l-11.4 25.2 48.84 1 54.24 128.16h27.36l56.16-121.83 34 .25c.3.06 1.27 0 1.83.09 1.29.21 1.29.4 2.12.56a5.65 5.65 0 0 1 1.9.82 4.35 4.35 0 0 1 1.59 1l1.8 1.56a23.35 23.35 0 0 1 1.92 2.4 11.89 11.89 0 0 1 1.04 1.65 7.32 7.32 0 0 1 .48 2.76 14.48 14.48 0 0 1 -.48 5.16c-.16.59-.31 1-.6 1.8a13.54 13.54 0 0 1 -.84 2 6.61 6.61 0 0 1 -1.68 1.8c-1.1.91-1.17.61-3.12 1.92a5.78 5.78 0 0 1 -1.8 1c-.62.18-.53.31-1.16.49-1.05.3-1.3.33-2.1.55a13.26 13.26 0 0 1 -2 0l-40.58.12 57.12 95.88h38z"/><path d="m187.8 64.8h62.76v25.44h-74.28z"/><path d="m161.97 121.69 92.91-.25v22.31l-102.72-.5z"/><path d="m161.6 67.57-20.96-65.43h50.64z"/><path d="m116.16 153.84h143.76v3.84h-143.76z"/><path d="m88.08 285.81h332.64v3.84h-332.64z"/><path d="m113.07 264.53 1.1-18.5h3.53l4.99 15.21 4.99-15.21h3.35l.67 18.5h-2.5l-.36-15.09-5.12 15.09h-2.74l-4.38-14.48-.67 14.48z"/><path d="m192.36 253.26.03-7.26-2.7-.03.09 18.44h2.4v-6.95l1.57-1.72 5.56 8.67h3.31l-6.96-10.19 6.54-8.22-4 .02z"/><path d="m232.89 245.99h-9.95v18.49h10.49v-2.11l-8.15-.18.01-6.12 7.06-.05v-2.12l-7.06-.09.22-5.84 7.29.09z"/><path d="m322.98 245.99h-9.94v18.49h10.48v-2.11l-8.15-.18.01-6.12 7.06-.05v-2.12l-7.06-.09.22-5.84 7.29.09z"/><path d="m285.32 246a15.75 15.75 0 0 1 1.9.24 3.41 3.41 0 0 1 1.14.54 4.59 4.59 0 0 1 .66.72 5.88 5.88 0 0 1 .54.72 7.74 7.74 0 0 1 .48 1 4.07 4.07 0 0 1 .3.78 2.08 2.08 0 0 1 .08.81v.81l-.05.68a5 5 0 0 1 -1.53 2.42 2.47 2.47 0 0 1 -.95.67c-.57.26-1 .06-1 .19s.44.19.84.54a4.12 4.12 0 0 1 .63.72 6.57 6.57 0 0 1 .45.66 4.14 4.14 0 0 1 .51 1c.28.73.2.61.39 1.13a8.84 8.84 0 0 1 .42 1.44c.11.55.12.51.26 1.32.09.55.11 1 .16 1.14.08.33 0 .62.08.84h-2.21c0-.2 0-.43 0-.7s0-.41 0-.78c0-.64-.11-1.12-.13-1.24s-.06-.32-.16-.88a6.69 6.69 0 0 0 -.18-.9 5.25 5.25 0 0 0 -.4-.88c-.09-.16-.21-.38-.39-.65a5.71 5.71 0 0 0 -.45-.61l-.49-.56-.59-.63-4.09.07v7.92h-2.16l2.07-9.89h4l.94-.27.81-.54.67-.63.46-1.2v-.54s0-.41 0-.63c0 0 0-.28 0-.51s-.13-.36-.21-.54-.17-.24-.22-.37-.17-.26-.24-.34l-.21-.23a1.34 1.34 0 0 0 -.22-.18l-.36-.21a1.63 1.63 0 0 0 -.3-.17l-.34-.11h-.46s-.4 0-.43 0c-.05-.73-.03-1.52-.02-2.17zm-6 18.46 2.07-9.89.06-6.48h3.84v-2.09h-6z"/><path d="m348.3 256.44 5.22-.12-.36-1.2-2.34-6.68v-2.44h1.74l6.12 18.24h-3.06l-1.8-5.7h-6l-1.74 5.7h-3.12l6.17-18.24h1.69v2.44l-2.91 8z"/><path d="m382.65 246h-2.61v18.44h10.44v-2.1l-7.74-.07z"/></g><path d="m170.28 252.36v14.04h-19.68v-13.92l9.84-8.04z" fill="#93c1a1"/><path d="m148.56 250.44v2.04h2.04l9.84-8.04 9.84 7.92 1.92.12v-1.56l-10.32-9.12h-2.16z" fill="#1a7c55"/><path d="m155.63 250.12h2.69a7 7 0 0 1 7 7v2.39a0 0 0 0 1 0 0h-2.69a7 7 0 0 1 -7-7v-2.39a0 0 0 0 1 0 0z" fill="#49b770" transform="matrix(.70710678 .70710678 -.70710678 .70710678 227.18 -38.83)"/><path d="m159.12 255.23h2.76v9.18h-2.76z" fill="#24774f"/><path d="m422.6 66.08-8-8h-8l-8 8h-8a8 8 0 0 1 -8-8v-24a8 8 0 0 1 8-8h39.92a8 8 0 0 1 8 8v24a8 8 0 0 1 -8 8zm27.94-11.38a4 4 0 0 1 -8 0v-16a4 4 0 0 1 8 0zm-71.84 0a4 4 0 0 1 -8 0v-16a4 4 0 0 1 8 0z" fill="#fff"/></svg>