<svg fill="none" height="156" viewBox="0 0 258 156" width="258" xmlns="http://www.w3.org/2000/svg" xmlns:xlink="http://www.w3.org/1999/xlink"><linearGradient id="a" gradientUnits="userSpaceOnUse" x1="0" x2="39.6766" y1="40.0002" y2="40.0002"><stop offset="0" stop-color="#fff"/><stop offset="1" stop-color="#8fc73e"/></linearGradient><clipPath id="b"><path d="m0 0h258v156h-258z"/></clipPath><g clip-path="url(#b)"><path d="m39.6766 50.411-12.5255 28.437h-4.1518l-22.9993-77.69566h23.2362z" fill="url(#a)"/><g fill="#231f20"><path d="m78.6585 53.7825-9.7738 23.6383h-6.5912l-26.2356-76.26846h25.5894z"/><path d="m237.93 49.8942c1.506-.3805 2.945-.9909 4.265-1.8097.388-.2423.991-.6786 2.197-1.5511 1.395-1.0071 2.09-1.5134 2.585-1.9389.941-.8182 1.806-1.7194 2.585-2.6929.745-.9062 1.435-1.8557 2.068-2.8437.932-1.3098 1.671-2.7462 2.197-4.2656.23-.763.409-1.5402.538-2.3266.316-1.7529.531-3.5223.646-5.2997.147-1.4168.19-2.8424.13-4.2655-.119-1.4862-.379-2.9578-.776-4.3949-.487-1.7976-1.181-3.5327-2.068-5.1703-.928-1.6418-2.056-3.1615-3.36-4.52411-1.32-1.44737-2.794-2.74753-4.394-3.87779-.938-.68653-1.932-1.29193-2.973-1.80963-1.423-.75972-2.886-1.44289-4.383-2.04661-1.394-.511008-2.838-.872099-4.308-1.07716h-28.293l-24.943 58.9423-5.428 14.2186-27.399-72.00834h-30.242l-6.139 13.57224 26.301.5386 29.208 69.0245h14.733l30.242-65.6153 18.309.1347c.162.0323.684 0 .986.0484.694.1131.694.2155 1.141.3016.365.083.712.2327 1.023.4417.321.115.614.2988.856.5385l.97.8402c.372.4077.718.8395 1.034 1.2926.21.2804.398.5776.56.8887.181.4742.269.979.258 1.4865.082.9343-.006 1.8758-.258 2.779-.086.3178-.167.5386-.323.9695-.122.3706-.273.7308-.453 1.0772-.238.3769-.545.7058-.904.9694-.593.4901-.63.3285-1.68 1.0341-.289.2361-.617.4185-.97.5386-.334.0969-.285.1669-.624.2639-.566.1615-.7.1777-1.131.2962-.359.0271-.719.0271-1.077 0l-21.853.0646 30.759 51.6392h20.463z"/><path d="m101.13 34.8999h33.796v13.7015h-39.9995z"/><path d="m87.2206 65.5399 50.0314-.1346v12.0157l-55.3141-.2693z"/><path d="m87.0214 36.3917-11.287-35.23936h27.2696z"/><path d="m139.967 82.8555h-77.415v2.0681h77.415z"/><path d="m226.557 153.932h-179.1261v2.068h179.1261z"/><path d="m60.888 142.471.5923-9.964h1.9009l2.6872 8.192 2.6871-8.192h1.8039l.3608 9.964h-1.3462l-.1939-8.127-2.7571 8.127h-1.4755l-2.3586-7.799-.3608 7.799z"/><path d="m103.586 136.401.016-3.91-1.454-.016.048 9.931h1.293v-3.743l.845-.926 2.994 4.669h1.783l-3.748-5.488 3.521-4.427-2.154.011z"/><path d="m125.411 132.485h-5.358v9.959h5.649v-1.137l-4.389-.097.005-3.296 3.802-.027v-1.141l-3.802-.049.119-3.145 3.925.048z"/><path d="m173.924 132.485h-5.352v9.959h5.643v-1.137l-4.389-.097.006-3.296 3.801-.027v-1.141l-3.801-.049.118-3.145 3.926.048z"/><path d="m153.644 132.491c.344.022.685.065 1.024.129.22.058.429.157.613.291.132.116.251.246.356.388.106.121.204.251.291.387.099.173.185.353.258.539.068.134.122.275.162.42.043.141.057.289.043.436v.437l-.027.366c-.142.505-.428.958-.824 1.303-.14.159-.315.283-.512.361-.307.14-.538.032-.538.102s.237.103.452.291c.128.116.242.246.339.388.088.113.169.232.243.355.115.167.208.348.274.539.151.393.108.329.21.609.098.251.173.511.227.775.059.296.064.275.14.711.048.296.059.539.086.614.043.178 0 .334.043.452h-1.19c0-.107 0-.231 0-.377 0-.145 0-.22 0-.42 0-.344-.06-.603-.07-.667-.011-.065-.033-.173-.086-.474-.022-.164-.054-.326-.097-.485-.057-.164-.13-.323-.216-.474-.048-.086-.113-.205-.21-.35-.073-.115-.154-.225-.242-.329l-.264-.301-.318-.34-2.202.038v4.266h-1.163l1.114-5.327h2.154l.507-.145.436-.291.361-.339.247-.647v-.291s0-.22 0-.339c0 0 0-.151 0-.275 0-.123-.07-.193-.113-.29s-.091-.13-.118-.2-.092-.14-.13-.183l-.113-.124c-.036-.036-.075-.069-.118-.097l-.194-.113c-.05-.036-.105-.067-.162-.091l-.183-.06h-.247s-.216 0-.232 0c-.027-.393-.016-.818-.011-1.168zm-3.231 9.942 1.115-5.327.032-3.49h2.068v-1.125h-3.231z"/><path d="m187.559 138.114 2.811-.065-.194-.646-1.26-3.598v-1.314h.937l3.296 9.823h-1.648l-.969-3.069h-3.231l-.937 3.069h-1.681l3.323-9.823h.91v1.314l-1.567 4.309z"/><path d="m206.056 132.491h-1.405v9.931h5.622v-1.131l-4.168-.038z"/></g><path d="m91.6955 135.916v7.562h-10.5976v-7.497l5.2988-4.33z" fill="#93c1a1"/><path d="m79.9993 134.882v1.099h1.0986l5.2988-4.33 5.2988 4.265 1.0339.065v-.84l-5.5573-4.912h-1.1631z" fill="#1a7c55"/><path d="m86.3566 133.61 1.0243 1.025c.7069.707 1.104 1.666 1.104 2.666s-.3971 1.958-1.104 2.665l-.9101.911-1.0243-1.025c-.7069-.707-1.104-1.666-1.104-2.666 0-.999.3971-1.958 1.104-2.665z" fill="#49b770"/><path d="m87.1721 137.462h-1.4862v4.944h1.4862z" fill="#24774f"/><path d="m227.569 35.5896-4.308-4.3086h-4.308l-4.307 4.3086h-4.308c-1.143 0-2.239-.4539-3.047-1.2619-.808-.8081-1.261-1.904-1.261-3.0467v-12.926c0-1.1427.453-2.2386 1.261-3.0466.808-.8081 1.904-1.262 3.047-1.262h21.496c1.143 0 2.239.4539 3.047 1.262.807.808 1.261 1.9039 1.261 3.0466v12.926c0 1.1427-.454 2.2386-1.261 3.0467-.808.808-1.904 1.2619-3.047 1.2619zm15.046-6.129c0 .5713-.227 1.1193-.631 1.5233s-.952.631-1.523.631-1.119-.227-1.523-.631-.631-.952-.631-1.5233v-8.6173c0-.5714.227-1.1193.631-1.5234.404-.404.952-.6309 1.523-.6309s1.119.2269 1.523.6309c.404.4041.631.952.631 1.5234zm-38.686 0c0 .5713-.227 1.1193-.631 1.5233-.403.404-.951.631-1.523.631-.571 0-1.119-.227-1.523-.631s-.631-.952-.631-1.5233v-8.6173c0-.5714.227-1.1193.631-1.5234.404-.404.952-.6309 1.523-.6309.572 0 1.12.2269 1.523.6309.404.4041.631.952.631 1.5234z" fill="#d4e7da"/></g></svg>