<svg fill="none" height="160" viewBox="0 0 264 160" width="264" xmlns="http://www.w3.org/2000/svg" xmlns:xlink="http://www.w3.org/1999/xlink"><linearGradient id="a" gradientUnits="userSpaceOnUse" x1="0" x2="40.5993" y1="41.0261" y2="41.0261"><stop offset="0" stop-color="#fff"/><stop offset="1" stop-color="#8fc73e"/></linearGradient><clipPath id="b"><path d="m0 0h264v160h-264z"/></clipPath><g clip-path="url(#b)"><path d="m40.5993 51.7038-12.8168 29.1662h-4.2484l-23.5341-79.68787h23.7766z" fill="url(#a)"/><g fill="#231f20"><path d="m80.4878 55.1618-10.001 24.2444h-6.7445l-26.8458-78.22407h26.1845z"/><path d="m243.463 51.1735c1.542-.3902 3.014-1.0162 4.364-1.856.397-.2486 1.014-.6961 2.249-1.5909 1.427-1.033 2.138-1.5522 2.645-1.9886.962-.8392 1.847-1.7636 2.644-2.762.763-.9294 1.469-1.9033 2.116-2.9166.954-1.3434 1.711-2.8167 2.248-4.375.236-.7825.42-1.5797.552-2.3863.322-1.7978.543-3.6126.661-5.4355.149-1.4532.193-2.9153.132-4.3749-.122-1.5243-.387-3.0336-.793-4.5076-.499-1.8437-1.209-3.6233-2.116-5.3029-.95-1.6838-2.105-3.2425-3.439-4.64009-1.351-1.48447-2.859-2.81798-4.496-3.97721-.96-.70414-1.977-1.32506-3.042-1.85603-1.457-.7792-2.954-1.47989-4.485-2.09909-1.426-.524111-2.904-.894461-4.408-1.10478h-28.951l-25.523 60.4537-5.555 14.5831-28.036-73.85468h-30.945l-6.282 13.92028 26.912.5524 29.888 70.7944h15.076l30.945-67.2978 18.735.1381c.165.0331.7 0 1.008.0497.711.116.711.221 1.168.3093.374.0851.729.2387 1.047.453.329.118.628.3065.876.5524l.992.8617c.382.4182.735.861 1.058 1.3258.216.2875.407.5924.573.9114.186.4864.275 1.0041.265 1.5246.083.9583-.006 1.9239-.265 2.8503-.088.3259-.171.5524-.33.9943-.125.3801-.28.7496-.463 1.1048-.244.3867-.558.7239-.926.9943-.606.5027-.645.337-1.719 1.0606-.295.2422-.631.4293-.992.5524-.342.0994-.292.1713-.639.2707-.579.1657-.716.1823-1.157.3038-.367.0278-.735.0278-1.102 0l-22.361.0663 31.475 52.9632h20.938z"/><path d="m103.482 35.7949h34.582v14.0528h-40.9297z"/><path d="m89.2488 67.2206 51.1952-.1381v12.3239l-56.6007-.2762z"/><path d="m89.045 37.3251-11.5494-36.14297h27.9034z"/><path d="m143.222 84.98h-79.2152v2.1212h79.2152z"/><path d="m231.826 157.879h-183.2918v2.121h183.2918z"/><path d="m62.3042 146.124.6061-10.219h1.9451l2.7496 8.402 2.7496-8.402h1.8459l.3692 10.219h-1.3775l-.1984-8.336-2.8212 8.336h-1.5098l-2.4135-7.999-.3692 7.999z"/><path d="m105.995 139.899.016-4.011-1.488-.016.05 10.186h1.322v-3.839l.866-.951 3.063 4.79h1.824l-3.835-5.629 3.604-4.541-2.204.011z"/><path d="m128.327 135.883h-5.482v10.214h5.78v-1.166l-4.491-.099.006-3.381 3.89-.028v-1.171l-3.89-.049.121-3.226 4.017.049z"/><path d="m177.969 135.883h-5.477v10.214h5.774v-1.166l-4.49-.099.005-3.381 3.89-.028v-1.171l-3.89-.049.121-3.226 4.017.049z"/><path d="m157.218 135.888c.351.023.701.067 1.047.133.226.059.439.16.628.298.135.119.257.253.363.398.11.125.209.257.298.397.101.178.19.363.265.553.069.137.125.282.165.431.044.145.059.297.044.447v.448l-.028.375c-.145.519-.438.983-.843 1.337-.142.163-.322.29-.523.37-.314.144-.551.033-.551.105s.242.105.463.298c.13.119.247.252.347.398.09.116.173.238.248.365.118.17.213.356.281.552.154.403.11.337.215.624.099.258.177.524.231.796.061.304.066.281.143.729.05.304.061.552.089.63.044.182 0 .342.044.464h-1.218c0-.111 0-.238 0-.387s0-.227 0-.431c0-.353-.061-.619-.072-.685s-.033-.177-.088-.486c-.022-.168-.055-.334-.099-.497-.059-.169-.132-.331-.221-.486-.049-.089-.115-.21-.214-.359-.076-.118-.158-.231-.248-.337l-.27-.31-.326-.348-2.253.039v4.375h-1.19l1.14-5.463h2.204l.518-.149.447-.299.369-.348.253-.662v-.299s0-.226 0-.348c0 0 0-.154 0-.281 0-.128-.071-.199-.115-.299-.045-.099-.094-.132-.122-.204-.027-.072-.093-.144-.132-.188l-.116-.127c-.036-.037-.077-.071-.121-.099l-.198-.116c-.052-.038-.107-.069-.166-.094l-.187-.061h-.253s-.221 0-.237 0c-.028-.403-.017-.84-.011-1.199zm-3.306 10.197 1.14-5.463.033-3.579h2.116v-1.155h-3.306z"/><path d="m191.921 141.655 2.876-.066-.198-.663-1.289-3.69v-1.348h.958l3.373 10.076h-1.687l-.991-3.149h-3.307l-.958 3.149h-1.719l3.399-10.076h.932v1.348l-1.604 4.419z"/><path d="m210.848 135.888h-1.438v10.186h5.753v-1.16l-4.265-.038z"/></g><path d="m93.828 139.401v7.756h-10.8441v-7.689l5.422-4.442z" fill="#93c1a1"/><path d="m81.8599 138.341v1.126h1.1241l5.422-4.441 5.4221 4.375 1.0579.066v-.861l-5.6865-5.038h-1.1902z" fill="#1a7c55"/><path d="m88.3647 137.036 1.0482 1.051c.7233.725 1.1297 1.709 1.1297 2.734 0 1.026-.4064 2.009-1.1297 2.734l-.9313.934-1.0481-1.051c-.7233-.725-1.1297-1.709-1.1297-2.734 0-1.026.4064-2.009 1.1297-2.734z" fill="#49b770"/><path d="m89.1995 140.987h-1.5208v5.071h1.5208z" fill="#24774f"/><path d="m232.862 36.5019-4.408-4.4191h-4.409l-4.408 4.4191h-4.408c-1.169 0-2.29-.4656-3.117-1.2943-.827-.8288-1.291-1.9528-1.291-3.1248v-13.2574c0-1.172.464-2.2961 1.291-3.1248.827-.8288 1.948-1.2943 3.117-1.2944h21.997c1.169.0001 2.29.4656 3.117 1.2944.827.8287 1.291 1.9528 1.291 3.1248v13.2574c0 1.172-.464 2.296-1.291 3.1248-.827.8287-1.948 1.2943-3.117 1.2943zm15.395-6.2862c0 .586-.232 1.148-.645 1.5624-.414.4143-.974.6471-1.559.6471-.584 0-1.145-.2328-1.558-.6471-.414-.4144-.646-.9764-.646-1.5624v-8.8383c0-.586.232-1.148.646-1.5624.413-.4143.974-.6471 1.558-.6471.585 0 1.145.2328 1.559.6471.413.4144.645.9764.645 1.5624zm-39.585 0c0 .586-.232 1.148-.646 1.5624-.413.4143-.974.6471-1.558.6471-.585 0-1.145-.2328-1.559-.6471-.413-.4144-.645-.9764-.645-1.5624v-8.8383c0-.586.232-1.148.645-1.5624.414-.4143.974-.6471 1.559-.6471.584 0 1.145.2328 1.558.6471.414.4144.646.9764.646 1.5624z" fill="#bcd0da"/></g></svg>