<svg viewBox="0 0 479.11 289.65" xmlns="http://www.w3.org/2000/svg" xmlns:xlink="http://www.w3.org/1999/xlink"><linearGradient id="a" gradientTransform="matrix(1 0 0 -1 0 291.2)" gradientUnits="userSpaceOnUse" x2="73.68" y1="216.93" y2="216.93"><stop offset="0" stop-color="#fff"/><stop offset="1" stop-color="#7ec374"/><stop offset="1" stop-color="#94c943"/><stop offset="1" stop-color="#8fc73e"/></linearGradient><path d="m73.68 93.6-23.26 52.8h-7.71l-42.71-144.26h43.15z" fill="url(#a)"/><path d="m146.07 99.86-18.15 43.89h-12.24l-48.72-141.61h47.52zm295.77-7.22a28.13 28.13 0 0 0 7.92-3.36c.72-.45 1.84-1.26 4.08-2.88 2.59-1.87 3.88-2.81 4.8-3.6a38.46 38.46 0 0 0 4.8-5 55.11 55.11 0 0 0 3.84-5.28 31.46 31.46 0 0 0 4.08-7.92 33.8 33.8 0 0 0 1-4.32 85.54 85.54 0 0 0 1.2-9.84 55.13 55.13 0 0 0 .24-7.92 43.47 43.47 0 0 0 -1.44-8.16 44.27 44.27 0 0 0 -3.84-9.6 42 42 0 0 0 -6.24-8.4 50.34 50.34 0 0 0 -8.16-7.2 38.35 38.35 0 0 0 -5.52-3.36 83.6 83.6 0 0 0 -8.14-3.8 38.73 38.73 0 0 0 -8-2h-52.54l-46.32 109.44-10.08 26.4-50.88-133.7h-56.16l-11.4 25.2 48.84 1 54.24 128.16h27.36l56.16-121.83 34 .25c.3.06 1.27 0 1.83.09 1.29.21 1.29.4 2.12.56a5.54 5.54 0 0 1 1.9.82 4.21 4.21 0 0 1 1.59 1l1.8 1.56a24.61 24.61 0 0 1 1.92 2.4 11.75 11.75 0 0 1 1 1.65 7.24 7.24 0 0 1 .48 2.76 14.51 14.51 0 0 1 -.48 5.16c-.16.59-.31 1-.6 1.8a14.08 14.08 0 0 1 -.84 2 6.55 6.55 0 0 1 -1.68 1.8c-1.1.91-1.17.61-3.12 1.92a5.69 5.69 0 0 1 -1.8 1c-.62.18-.53.31-1.16.49-1.05.3-1.3.33-2.1.55a13.35 13.35 0 0 1 -2 0l-40.54.12 57.12 95.88h38z" fill="#fdfdfd"/><path d="m187.8 64.8h62.76v25.44h-74.28zm-25.83 56.89 92.91-.25v22.31l-102.72-.5zm-.37-54.12-20.96-65.43h50.64zm-45.44 86.27h143.76v3.84h-143.76zm-28.08 131.97h332.64v3.84h-332.64zm24.99-21.28 1.1-18.5h3.53l4.99 15.21 4.99-15.21h3.35l.67 18.5h-2.5l-.36-15.09-5.12 15.09h-2.74l-4.38-14.48-.67 14.48zm79.29-11.27.03-7.26-2.7-.03.09 18.44h2.4v-6.95l1.57-1.72 5.56 8.67h3.31l-6.96-10.19 6.54-8.22-4 .02zm40.53-7.27h-9.95v18.49h10.49v-2.11l-8.15-.18.01-6.12 7.06-.05v-2.12l-7.06-.09.22-5.84 7.29.09zm90.09 0h-9.94v18.49h10.48v-2.11l-8.15-.18.01-6.12 7.06-.05v-2.12l-7.06-.09.22-5.84 7.29.09zm-37.66.01a15.18 15.18 0 0 1 1.9.24 3.42 3.42 0 0 1 1.14.54 4.48 4.48 0 0 1 .66.72 6.14 6.14 0 0 1 .54.72 9.18 9.18 0 0 1 .48 1 3.7 3.7 0 0 1 .3.78 2 2 0 0 1 .08.81v.81l-.05.68a4.93 4.93 0 0 1 -1.53 2.42 2.36 2.36 0 0 1 -.95.67c-.57.26-1 .06-1 .19s.44.19.84.54a3.92 3.92 0 0 1 .63.72 7.66 7.66 0 0 1 .45.66 4.29 4.29 0 0 1 .51 1c.28.73.2.61.39 1.13a9.12 9.12 0 0 1 .42 1.44c.11.55.12.51.26 1.32.09.55.11 1 .16 1.14.08.33 0 .62.08.84h-2.21v-1.48a6.34 6.34 0 0 0 -.13-1.24l-.16-.88a7.17 7.17 0 0 0 -.18-.9 5.8 5.8 0 0 0 -.4-.88c-.09-.16-.21-.38-.39-.65a6.85 6.85 0 0 0 -.45-.61l-.49-.56-.59-.63-4.09.07v7.92h-2.16l2.07-9.89h4l.94-.27.81-.54.67-.63.46-1.2v-1.68a1.22 1.22 0 0 0 -.21-.54c-.08-.18-.17-.24-.22-.37a1.28 1.28 0 0 0 -.24-.34l-.21-.23a1.24 1.24 0 0 0 -.22-.18l-.36-.21a1.46 1.46 0 0 0 -.3-.17l-.34-.11h-.89c-.05-.73-.03-1.52-.02-2.17zm-6 18.46 2.07-9.89.06-6.48h3.84v-2.09h-6zm68.98-8.02 5.22-.12-.36-1.2-2.34-6.68v-2.44h1.74l6.12 18.24h-3.06l-1.8-5.7h-6l-1.74 5.7h-3.12l6.17-18.24h1.69v2.44l-2.91 8zm34.35-10.44h-2.61v18.44h10.44v-2.1l-7.74-.07z" fill="#fdfdfd"/><path d="m170.28 252.36v14.04h-19.68v-13.92l9.84-8.04z" fill="#93c1a1"/><path d="m148.56 250.44v2.04h2.04l9.84-8.04 9.84 7.92 1.92.12v-1.56l-10.32-9.12h-2.16z" fill="#1a7c55"/><path d="m160.37 248.08 1.9 1.9a7 7 0 0 1 0 9.9l-1.69 1.69-1.9-1.9a7 7 0 0 1 0-9.9z" fill="#49b770"/><path d="m159.12 255.23h2.76v9.18h-2.76z" fill="#24774f"/><path d="m422.6 66.08-8-8h-8l-8 8h-8a8 8 0 0 1 -8-8v-24a8 8 0 0 1 8-8h39.92a8 8 0 0 1 8 8v24a8 8 0 0 1 -8 8zm27.94-11.38a4 4 0 0 1 -8 0v-16a4 4 0 1 1 8 0zm-71.84 0a4 4 0 0 1 -8 0v-16a4 4 0 1 1 8 0z" fill="#638a66"/></svg>