<svg fill="none" height="40" viewBox="0 0 34 40" width="34" xmlns="http://www.w3.org/2000/svg" xmlns:xlink="http://www.w3.org/1999/xlink"><linearGradient id="a" gradientUnits="userSpaceOnUse" x1="17.4209" x2="17.4209" y1=".080444" y2="39.9237"><stop offset="0" stop-color="#b0e2b8"/><stop offset="1" stop-color="#666"/></linearGradient><path clip-rule="evenodd" d="m32.499 29.63c-1.07-1.3475-2.8075-3.3-4.295-3.485-.905-.1125-1.945.6375-2.97 1.345-.2.1-1.745 1.02-1.9325 1.075-.99.2825-3.1025.365-4.38-.8-1.23-1.125-3.175-3.2075-4.745-5.115-1.5-1.965-3.0725-4.3275-3.8775-5.7775-.84002-1.5025-.235-3.49.285-4.365.095-.1575 1.245-1.34 1.5025-1.615l.0375.045c.9525-.8 1.95-1.61246 2.0625-2.49247.185-1.46499-1.3125-3.59749-2.3825-4.94749-1.07-1.3525-2.72752-3.720004-4.98502-3.385004-.85.125-1.5825.4225-2.305.85l-.02-.0225c-.015.01-.085.065004-.12.092504-.0225.0125-.0425.02-.0625.0325l.0075.01c-.415.32-1.6 1.205-1.735 1.325-1.465 1.3025-3.67 4.37-1.965002 9.88746 1.265002 4.1 3.962502 8.915 7.637502 13.785l-.02.0175c.18.235.365.4475.5525.675.175.2325.3475.4625.5275.6925l.025-.0175c3.90002 4.6975 7.99002 8.4525 11.72252 10.6675 5.025 2.98 8.5975 1.6375 10.2475.57.155-.1025 1.335-1.02 1.735-1.3225l.01.01c.015-.015.025-.035.045-.05.03-.0225.095-.0725.1075-.0825l-.015-.02c.605-.585 1.09-1.21 1.425-1.9975.8775-2.0725-1.05-4.2325-2.12-5.585z" fill="url(#a)" fill-rule="evenodd"/></svg>