<svg fill="none" height="40" viewBox="0 0 40 40" width="40" xmlns="http://www.w3.org/2000/svg" xmlns:xlink="http://www.w3.org/1999/xlink"><linearGradient id="a"><stop offset="0" stop-color="#b0e2b8"/><stop offset="1" stop-color="#555"/></linearGradient><linearGradient id="b" gradientUnits="userSpaceOnUse" x1="12.2222" x2="12.2222" xlink:href="#a" y1="18.3334" y2="21.7778"/><linearGradient id="c" gradientUnits="userSpaceOnUse" x1="17.2222" x2="17.2222" xlink:href="#a" y1="3.33337" y2="35.6667"/><path d="m12.2222 18.3334-1.1111 3.4444h2.2222z" fill="url(#b)"/><path d="m31.1111 3.33337h-17.7778v5.55556h4.4445v2.22227h-14.44447c-1.88889 0-3.33333 1.4444-3.33333 3.3333v12.2222c0 1.8889 1.44444 3.3333 3.33333 3.3333h1.11111v5.6667l6.99996-5.6667h7.4445v-7.7777h12.2222c1.8889 0 3.3333-1.4445 3.3333-3.3334v-12.22219c0-1.88889-1.4444-3.33334-3.3333-3.33334zm-19.1111 22.11113-.5556-1.7778h-3.4444l-.66667 1.7778h-2.66666l3.66666-9.8889h2.66667l3.6667 9.8889zm16.8889-8.7778v2.2222c-1.4445 0-3-.4444-4.3333-1.1111-1.3334.6667-2.8889 1-4.4445 1.1111l-.1111-2.2222c.7778 0 1.5556-.1111 2.3333-.3333-1-1-1.6666-2.2222-2-3.5556h2.3334c.3333 1 1 1.7778 1.7777 2.4445 1.2223-1 2-2.4445 2.1112-4.1111h-6.6667v-2.22227h3.3333v-2.22222h2.2222v2.22222h3.6667l.1111 1.11107c.1111 2.3334-.7778 4.6667-2.4444 6.3334.7778.2222 1.4444.3333 2.1111.3333z" fill="url(#c)"/></svg>