<svg fill="none" height="40" viewBox="0 0 40 40" width="40" xmlns="http://www.w3.org/2000/svg" xmlns:xlink="http://www.w3.org/1999/xlink"><linearGradient id="a"><stop offset="0"/><stop offset=".0001" stop-color="#b0e2b8"/><stop offset="1" stop-color="#555"/></linearGradient><linearGradient id="b" gradientUnits="userSpaceOnUse" x1="20.0002" x2="20.0002" xlink:href="#a" y1="4.75415" y2="25.8956"/><linearGradient id="c" gradientUnits="userSpaceOnUse" x1="16.8871" x2="16.8871" xlink:href="#a" y1="12.521" y2="35.2463"/><path d="m39.6587 18.2016-6.4871-6.486v-4.23459c0-.64519-.5225-1.1677-1.1671-1.1677-.6469 0-1.1694.52251-1.1694 1.1677v1.89979l-4.2829-4.2846c-.4583-.45607-1.195-.45607-1.6505 0l-5.1393 5.1388-2.0515-2.05087c-.4554-.45606-1.1955-.45606-1.651 0l-15.717365 15.71797c-.456062.4566-.456062 1.1949 0 1.6504.455494.4567 1.194965.4567 1.651025 0l14.89334-14.8938 14.8933 14.8938c.2271.2267.527.3431.8257.3431.2977 0 .5975-.1142.8247-.3431.4561-.4566.4561-1.1949 0-1.6504l-7.8473-7.8468v-5.1751c0-.6452-.5237-1.16829-1.1683-1.16829s-1.1683.52309-1.1683 1.16829v2.8409l-1.8339-1.8345 4.3142-4.31301 12.2801 12.27961c.2272.2266.5277.3419.8253.3419.2981 0 .598-.1142.8263-.3419.455-.4561.455-1.195 0-1.6516z" fill="url(#b)"/><path d="m30.0904 25.2436-12.3784-12.3807c-.2192-.2187-.5163-.3419-.8252-.3419-.3096 0-.6066.1232-.8258.3419l-12.37959 12.3807c-.16527.1641-.27659.3743-.32089.6032-.03464.1777-.05168.3583-.05168.535v6.0424c0 1.5556 1.26595 2.8221 2.82213 2.8221h6.04123c.7821 0 1.5369-.3306 2.0702-.907.485-.5248.752-1.2041.752-1.9157v-4.4368c0-1.0768.8252-1.9759 1.8912-2.0776 1.0661.1017 1.8919 1.0013 1.8919 2.0776v4.4368c0 .7116.2669 1.3909.7519 1.9157.5328.5759 1.2876.9064 2.0708.9064h6.0429c1.5562 0 2.8222-1.2659 2.8222-2.8221v-6.0413c0-.1772-.0165-.3583-.0523-.5355-.0466-.2289-.1573-.4391-.3226-.6032z" fill="url(#c)"/></svg>