<svg fill="none" height="40" viewBox="0 0 40 40" width="40" xmlns="http://www.w3.org/2000/svg" xmlns:xlink="http://www.w3.org/1999/xlink"><linearGradient id="a" gradientUnits="userSpaceOnUse" x1="19.9994" x2="19.9994" y1="8.3678" y2="31.7096"><stop offset="0" stop-color="#b0e2b8"/><stop offset="1" stop-color="#666"/></linearGradient><path d="m36.6473 18.3245.0009 8.8018c0 2.4375-1.9029 4.4306-4.3042 4.5749l-.2792.0084h-24.12968c-2.43755 0-4.43067-1.9028-4.57497-4.3041l-.00836-.2792-.0012-8.8018zm-6.2258 5.8421h-4.1666l-.1696.0114c-.6102.0828-1.0804.6058-1.0804 1.2386s.4702 1.1558 1.0804 1.2386l.1696.0114h4.1666l.1697-.0114c.6101-.0828 1.0803-.6058 1.0803-1.2386s-.4702-1.1558-1.0803-1.2386zm1.6433-15.7988c2.4376 0 4.4307 1.9028 4.575 4.3041l.0084.2792-.0009 2.8734h-33.29671l.0012-2.8734c0-2.4375 1.90284-4.43064 4.30412-4.57494l.27921-.00836z" fill="url(#a)"/></svg>