<svg fill="none" height="40" viewBox="0 0 40 40" width="40" xmlns="http://www.w3.org/2000/svg" xmlns:xlink="http://www.w3.org/1999/xlink"><linearGradient id="a"><stop offset="0" stop-color="#b0e2b8"/><stop offset="1" stop-color="#666"/></linearGradient><linearGradient id="b" gradientUnits="userSpaceOnUse" x1="20" x2="20" xlink:href="#a" y1="6.4054" y2="21.2081"/><linearGradient id="c" gradientUnits="userSpaceOnUse" x1="20" x2="20" xlink:href="#a" y1="23.813" y2="34.1592"/><path d="m20 21.2081c4.0592 0 7.347-3.3121 7.347-7.4014 0-4.08921-3.2878-7.4013-7.347-7.4013s-7.3469 3.31209-7.3469 7.4013c0 4.0893 3.2877 7.4014 7.3469 7.4014z" fill="url(#b)"/><path d="m14.1866 23.8385c.4105-.1009.8315.1054 1.0178.4873l3.3175 2.4492c1.4781-.0003 1.4781.0001 2.9561-.0002l3.3176-2.449c.1864-.3819.6074-.5882 1.0178-.4873 4.4115 1.084 8.8805 3.2946 8.8805 6.62v3.7007h-29.38775v-3.7007c0-3.3254 4.46898-5.536 8.88045-6.62z" fill="url(#c)"/></svg>