<svg fill="none" height="40" viewBox="0 0 40 40" width="40" xmlns="http://www.w3.org/2000/svg" xmlns:xlink="http://www.w3.org/1999/xlink"><linearGradient id="a" gradientUnits="userSpaceOnUse" x1="20" x2="20" y1="0" y2="40"><stop offset="0" stop-color="#607d8b"/><stop offset=".0001" stop-color="#b0e2b8"/><stop offset="1" stop-color="#555"/></linearGradient><path d="m20 40c11.0457 0 20-8.9543 20-20s-8.9543-20-20-20-20 8.9543-20 20 8.9543 20 20 20z" fill="url(#a)"/><path d="m27.6016 12.6992c-.2343-.1914-.5429-.2617-.8359-.1992-2.1523.4492-4.3945-.0078-6.1953-1.2656-.3399-.2383-.793-.2383-1.1367 0-1.8008 1.2578-4.043 1.7148-6.1953 1.2656-.293-.0625-.6016.0078-.836.1992-.2343.1914-.3711.4766-.3672.7774v7.4218c0 2.8985 1.3985 5.6172 3.7539 7.3008l3.6368 2.5899c.3476.2461.8086.2461 1.1562 0l3.6367-2.5899c2.3516-1.6836 3.75-4.4023 3.75-7.3008v-7.4218c0-.3008-.1328-.586-.3672-.7774zm-1.625 8.1992c0 2.2539-1.0859 4.3672-2.9179 5.6758l-3.0586 2.1836-3.0586-2.1797c-1.832-1.3125-2.918-3.4258-2.918-5.6797v-6.2773c2.0899.1797 4.1797-.3047 5.9766-1.3828 1.7969 1.0781 3.8867 1.5625 5.9765 1.3828z" fill="#fff"/></svg>