<svg fill="none" height="41" viewBox="0 0 40 41" width="40" xmlns="http://www.w3.org/2000/svg" xmlns:xlink="http://www.w3.org/1999/xlink"><linearGradient id="a"><stop offset="0" stop-color="#878181"/><stop offset=".463542" stop-color="#6e876f"/><stop offset="1" stop-color="#555"/></linearGradient><linearGradient id="b" gradientUnits="userSpaceOnUse" x1="20" x2="20" xlink:href="#a" y1="1.94678" y2="21.2183"/><linearGradient id="c" gradientUnits="userSpaceOnUse" x1="14.4022" x2="14.4022" xlink:href="#a" y1="34.7684" y2="39.2194"/><linearGradient id="d" gradientUnits="userSpaceOnUse" x1="25.5978" x2="25.5978" xlink:href="#a" y1="34.7684" y2="39.2194"/><linearGradient id="e" gradientUnits="userSpaceOnUse" x1="19.9998" x2="19.9998" xlink:href="#a" y1="8.49133" y2="39.2194"/><clipPath id="f"><path d="m0 .583008h40v40h-40z"/></clipPath><g clip-path="url(#f)"><path d="m39.3673 18.0218-18.1816-15.63555c-.6823-.58596-1.6891-.58596-2.3714 0l-18.181593 15.63555c-.762246.655-.847158 1.8029-.192702 2.5642.654455.7617 1.803925.8463 2.563505.1931l16.99649-14.61643 16.9966 14.61643c.3429.2952.764.4392 1.1842.4392.5114 0 1.02-.2145 1.3793-.6325.6544-.7611.5695-1.9092-.1928-2.564z" fill="url(#b)"/><path d="m14.8974 39.2194v-4.451l-.9904 4.451z" fill="url(#c)"/><path d="m25.1025 39.2194h.9905l-.9905-4.451z" fill="url(#d)"/><path d="m20.5937 8.71175c-.3403-.29389-.8471-.29389-1.1875 0l-13.70146 11.81865c-.19972.1724-.31509.4236-.31509.6879v17.0916c0 .5022.40702.9094.90961.9094h3.87344l2.2317-9.9805c.1102-.48.4003-.9154.8627-1.1788.1138-.0647 2.6737-1.4744 6.034-1.6588l.4532.9093h.0156l-1.2284 9.559 1.3456 2.3499h.2255l1.3455-2.3499-1.2283-9.559h.0114l.4557-.9093c3.3586.1844 5.9218 1.5941 6.0356 1.6588.4626.2634.7526.6988.8628 1.1788l2.2317 9.9805h3.8734c.5026 0 .9096-.4071.9096-.9094v-17.0915c0-.2643-.1154-.5156-.3151-.6878zm-.5937 17.27935c-2.5451 0-4.6104-2.9511-4.6104-5.4962s2.0653-4.6084 4.6104-4.6084c2.5435 0 4.6078 2.0633 4.6078 4.6084s-2.0643 5.4962-4.6078 5.4962z" fill="url(#e)"/></g></svg>