<svg fill="none" height="40" viewBox="0 0 40 40" width="40" xmlns="http://www.w3.org/2000/svg" xmlns:xlink="http://www.w3.org/1999/xlink"><linearGradient id="a" gradientUnits="userSpaceOnUse" x1="20" x2="20" y1="0" y2="40.0003"><stop offset="0" stop-color="#b0e2b8"/><stop offset="1" stop-color="#666"/></linearGradient><clipPath id="b"><path d="m0 0h40v40h-40z"/></clipPath><g clip-path="url(#b)"><path d="m22.1561 0c.5888 0 1.114.366113 1.3118.914462l1.4114 3.912948c.5069.12561.9423.2532 1.3092.38443.4019.14376.9196.36299 1.5608.65988l3.2877-1.73978c.5513-.29175 1.2317-.18443 1.6638.26244l2.8912 2.98981c.3837.39683.4924.98112.2766 1.48697l-1.5429 3.61554c.257.4693.4622.8704.6165 1.2065.1685.3668.3755.8716.6237 1.5202l3.5948 1.5391c.5387.2306.8733.7706.8365 1.3499l-.2634 4.15c-.0348.5485-.3961 1.0241-.9193 1.2098l-3.4046 1.2088c-.0974.4701-.1991.8738-.3069 1.214-.1263.3985-.3249.911-.5977 1.5461l1.7116 3.7827c.2465.5446.1101 1.1843-.3377 1.5842l-3.2515 2.9039c-.4363.3896-1.073.4664-1.5912.1919l-3.3521-1.7755c-.5889.3067-1.1278.5515-1.6195.7343-.4394.1634-.9279.3459-1.4654.5474l-1.2996 3.6005c-.194.5375-.7031.9009-1.2801.9139l-3.8012.0856c-.5926.0129-1.1287-.346-1.3362-.895l-1.5322-4.0536c-.7038-.2461-1.2179-.4374-1.5522-.5782-.3168-.1334-.7271-.3287-1.2368-.5879l-3.79739 1.6246c-.51226.2191-1.10738.1147-1.51212-.2653l-2.80955-2.638c-.43028-.4041-.55441-1.0332-.30925-1.5675l1.63355-3.5601c-.2461-.483-.4473-.9113-.6041-1.287-.16519-.3958-.3651-.9348-.60216-1.6222l-3.576759-1.0874c-.602477-.1831-1.0054382-.7436-.98248911-1.3664l.14156711-3.8419c.018756-.509.32014-.9662.783554-1.1887l3.755887-1.8029c.17326-.6379.32579-1.1341.46137-1.497.13426-.3594.34256-.8307.62758-1.4226l-1.63094-3.44297c-.25371-.53557-.13321-1.17151.29936-1.57996l2.80955-2.65292c.39994-.37764.98796-.48553 1.49831-.27493l3.79703 1.56693c.4205-.27717.8007-.50588 1.1432-.68683.4113-.21727.9578-.44585 1.6494-.69268l1.319-3.682234c.1969-.54982.7229-.917306 1.3128-.917306zm-2.1087 14.0371c-3.3331 0-6.0351 2.6716-6.0351 5.9672s2.702 5.9673 6.0351 5.9673 6.0351-2.6717 6.0351-5.9673-2.702-5.9672-6.0351-5.9672z" fill="url(#a)"/></g></svg>