<svg viewBox="0 0 435.99 489.1" xmlns="http://www.w3.org/2000/svg"><g fill="#a2bda2"><path d="m182.4 200.1v60.6l-1 147.3-15.5-12c-19-16.6-63.8-37-99.8 2.4a12.08 12.08 0 0 0 -.9 15.3c1 1.4 25.2 35.3 63.7 71.8a12.24 12.24 0 0 0 16.8-17.8 566.26 566.26 0 0 1 -54.2-59.6c26.5-19.8 55 3.5 58.4 6.5a2.65 2.65 0 0 0 .6.5l35.4 27.3a12.15 12.15 0 0 0 12.8 1.3 12.34 12.34 0 0 0 6.9-10.9l1.2-172v-60.3a17.7 17.7 0 0 1 35.4.5 7.57 7.57 0 0 0 .1 1.5l13.4 111.8a12.2 12.2 0 0 0 10.1 10.6c.8.1 83.4 14.3 142.4 52.8 2.2 14.1 7.2 56.7-2.7 96.1a12.22 12.22 0 0 0 8.9 14.9 10.32 10.32 0 0 0 3 .4 12.26 12.26 0 0 0 11.9-9.3c13.4-53.2 2.6-109.3 2.2-111.7a12 12 0 0 0 -5.1-7.7c-52.7-36.2-122.7-52.8-147.5-57.9l-12.3-102.2a42.18 42.18 0 0 0 -84.3-1.3 3.11 3.11 0 0 1 .1 1.1z"/><path d="m104.2 24.6h33.9a12.3 12.3 0 1 0 0-24.6h-33.9a12.3 12.3 0 1 0 0 24.6z"/><path d="m104.2 116.8h33.9a12.25 12.25 0 1 0 0-24.5h-33.9a12.25 12.25 0 1 0 0 24.5z"/><path d="m104.2 208.8h33.9a12.3 12.3 0 1 0 0-24.6h-33.9a12.3 12.3 0 1 0 0 24.6z"/><path d="m104.2 300.8h33.9a12.3 12.3 0 1 0 0-24.6h-33.9a12.3 12.3 0 1 0 0 24.6z"/><path d="m12.3 24.6h33.9a12.3 12.3 0 0 0 0-24.6h-33.9a12.3 12.3 0 0 0 0 24.6z"/><path d="m12.3 116.8h33.9a12.25 12.25 0 1 0 0-24.5h-33.9a12.25 12.25 0 1 0 0 24.5z"/><path d="m12.3 208.8h33.9a12.3 12.3 0 0 0 0-24.6h-33.9a12.3 12.3 0 0 0 0 24.6z"/><path d="m196 24.6h33.9a12.3 12.3 0 0 0 0-24.6h-33.9a12.3 12.3 0 0 0 0 24.6z"/><path d="m196 116.8h33.9a12.25 12.25 0 1 0 0-24.5h-33.9a12.25 12.25 0 1 0 0 24.5z"/></g></svg>