<svg fill="none" height="264" viewBox="0 0 304 264" width="304" xmlns="http://www.w3.org/2000/svg" xmlns:xlink="http://www.w3.org/1999/xlink"><clipPath id="a"><path d="m0 0h304v264h-304z"/></clipPath><g clip-path="url(#a)"><path d="m230.275 35.3168s-29.756-36.9959-76.867-35.2581779c-47.11 1.7377279-87.2951 37.6506779-120.5177 65.7229779-33.222678 28.0722-42.12885 71.6744-22.8161 105.7154 19.3127 34.041 50.0889 19.711 89.2687 41.807 39.1801 22.095 46.6221 34.645 90.2661 29.306s76.867-60.325 71.915-118.862c-4.952-58.5373-31.249-88.4312-31.249-88.4312z" fill="#d2977c"/><path d="m157.273 264c81.035 0 146.727-4.07 146.727-9.092 0-5.021-65.692-9.091-146.727-9.091-81.0343 0-146.726 4.07-146.726 9.091 0 5.022 65.6917 9.092 146.726 9.092z" fill="#f0ebb5"/><path d="m243.985 117.872c-.044 0 .51-3.132.569-3.358.636-2.233 3.03-6.129 5.344-6.12.36.012.714.104 1.043.272s.625.407.872.705.44.648.568 1.031c.128.382.188.79.178 1.199.007.109.007.218 0 .327-.17 1.855-1.634 3.425-2.957 4.34-1.574 1.1-5.617 1.604-5.617 1.604z" fill="#92e3a9"/><path d="m239.469 96.7922c2.18.8898 3.267 5.4738 3.193 7.8238 0 .202-.414 3.358-.451 3.358h-.044c.17.722.355 1.503.539 2.351.326 1.578.68 3.358.954 5.339.317 2.125.525 4.269.621 6.422.117 2.409.045 4.825-.215 7.219v.084c.289-.697 1.139-2.627 1.22-2.77 1.138-1.964 4.346-5.037 6.585-4.298.344.121.664.317.941.578.278.261.507.582.675.943.168.362.272.758.305 1.165.034.407-.004.818-.11 1.209-.024.104-.056.205-.096.302-.591 1.73-2.365 2.812-3.851 3.291-1.678.546-5.417-.101-5.713-.151-.312 2.428-.772 4.829-1.375 7.186-.34 1.377-.714 2.753-1.123 4.13.258-.596.502-1.125.539-1.2 1.139-1.965 4.346-5.037 6.586-4.307.343.119.663.314.94.573.278.259.507.578.676.938.169.361.274.755.308 1.161.035.406-.001.816-.106 1.206-.027.11-.061.217-.104.319-.591 1.738-2.365 2.813-3.85 3.3-1.486.487-4.708 0-5.551-.126-.155.52-.31 1.049-.473 1.57-.739 2.518-1.537 5.036-2.217 7.505-.244.839-.458 1.746-.673 2.619.237-.529.436-.974.473-1.033 1.131-1.964 4.346-5.037 6.578-4.306.696.247 1.278.797 1.619 1.53.34.733.412 1.589.199 2.382 0 .092-.059.193-.096.285-.591 1.729-2.372 2.812-3.858 3.291-1.485.478-4.39.059-5.395-.101-.2.907-.392 1.805-.547 2.686-.096.605-.222 1.184-.288 1.797-.067.613-.148 1.209-.222 1.796-.104 1.15-.222 2.343-.296 3.467-.059.781-.103 1.528-.148 2.275.23-.839.739-2.568.776-2.711.824-1.843 2.044-3.42 3.548-4.584.082-.21.184-.41.303-.596.396-.692 1.018-1.177 1.729-1.349.711-.171 1.453-.015 2.063.434l.236.193c1.759 1.679 1.316 6.448.51 8.613-.044.126-.739 1.444-1.123 2.267.318-.437.613-.839.946-1.326.643-.89 1.308-1.763 2.018-2.703l1.086-1.335c.355-.462.784-.89 1.175-1.335.924-1.016 1.907-1.998 2.957-2.963-.695-.638-3.112-2.964-3.807-4.542-.694-1.578-1.19-3.786-.465-5.448.3-.753.85-1.34 1.53-1.632.68-.293 1.435-.268 2.099.07l.266.16c1.958 1.393 2.158 6.136 1.648 8.395 0 .142-.562 1.729-.865 2.594.614-.571 1.22-1.15 1.855-1.679 1.833-1.612 3.696-3.174 5.617-4.743l1.723-1.453c-.244-.226-3.171-2.913-3.955-4.676-.687-1.569-1.19-3.786-.465-5.456.303-.754.856-1.341 1.539-1.632s1.44-.263 2.105.079l.251.151c1.958 1.402 2.158 6.145 1.648 8.395-.037.176-.798 2.459-1.02 3.03 1.264-1.074 2.513-2.149 3.696-3.265 1.618-1.503 3.149-3.124 4.582-4.853-.111-.1-3.178-2.887-3.976-4.701-.695-1.57-1.19-3.786-.466-5.448.299-.75.846-1.335 1.524-1.627.677-.293 1.428-.269 2.09.066l.274.159c1.966 1.394 2.165 6.137 1.655 8.395-.037.143-.613 1.889-.909 2.711l.118.076c1.404-1.781 2.663-3.703 3.762-5.742.614-1.108 1.153-2.208 1.656-3.299-.621-.454-3.422-2.519-4.302-4.097-.879-1.578-1.544-3.61-.99-5.356.23-.784.723-1.432 1.373-1.803.65-.372 1.402-.436 2.093-.178l.23.101c2.091 1.142 2.742 5.876 2.453 8.16 0 .125-.295 1.393-.51 2.317.215-.496.451-.999.651-1.478.739-1.796 1.367-3.492 1.885-5.037.295-.839.539-1.679.739-2.376-.407-.839-1.989-4.071-2.144-5.876s.096-4.021 1.301-5.28c.52-.578 1.221-.897 1.948-.889.727.007 1.422.342 1.932.931l.193.252c1.389 2.107.066 6.606-1.131 8.529-.104.159-1.988 2.518-2.011 2.518v-.05c-.207.713-.428 1.477-.694 2.3-.488 1.519-1.065 3.24-1.789 5.037-.769 1.971-1.64 3.888-2.609 5.742-1.074 2.081-2.311 4.047-3.696 5.876l-.051.067c.576-.411 2.217-1.477 2.357-1.544 1.907-.924 6.061-1.453 7.584.537.462.641.682 1.463.611 2.288-.071.824-.426 1.583-.988 2.111l-.229.185c-1.338 1.074-3.349.839-4.819.327-1.663-.596-4.435-3.475-4.694-3.702-1.439 1.829-2.987 3.543-4.634 5.129-.961.94-1.944 1.847-2.956 2.737.51-.328.968-.621 1.034-.655 1.9-.923 6.054-1.452 7.576.537.23.316.403.68.509 1.072.106.391.143.803.109 1.211-.035.407-.14.804-.309 1.165-.169.362-.4.682-.678.943l-.237.193c-1.33 1.074-3.341.839-4.811.327-1.471-.512-3.932-2.93-4.568-3.576l-1.16 1.016c-1.863 1.62-3.696 3.223-5.507 4.86-.628.58-1.227 1.176-1.833 1.763.459-.294.836-.537.902-.562 1.9-.932 6.053-1.452 7.576.529.463.633.686 1.45.62 2.27-.067.82-.417 1.577-.975 2.103-.079.078-.163.148-.251.21-1.338 1.075-3.341.84-4.812.336s-3.695-2.703-4.434-3.467c-.599.63-1.205 1.251-1.759 1.897-.377.445-.74.84-1.109 1.318-.37.479-.739.907-1.064 1.36-.643.89-1.316 1.813-1.929 2.703-.429.613-.828 1.209-1.227 1.805.613-.579 1.855-1.679 1.966-1.771 1.751-1.243 5.787-2.519 7.561-.781.542.555.868 1.332.907 2.159.038.828-.213 1.64-.7 2.257-.066.08-.135.155-.207.227-1.176 1.284-3.186 1.427-4.708 1.158-1.686-.302-4.731-2.518-5.108-2.837-.665.99-1.3 1.964-1.892 2.896-2.047 3.215-3.644 5.977-4.737 7.933l-.111.193-1.419-.781.221-.378c1.146-1.947 2.816-4.701 4.945-7.899.673-1.007 1.404-2.074 2.166-3.165-.793-.978-1.534-2.01-2.218-3.089-1.633.722-5.026.755-5.462.755-.066 1.243-.125 2.452-.17 3.593-.148 3.971-.133 7.279-.096 9.587v.277l-1.559-.839c0-2.292.081-5.407.288-9.075.066-1.268.163-2.619.273-3.996-.436-.126-3.961-1.158-5.292-2.367-1.204-1.092-2.476-2.871-2.431-4.727-.006-.823.275-1.615.782-2.203.507-.589 1.198-.925 1.923-.936h.31c2.299.336 4.221 4.55 4.605 6.858 0 .135.118 1.679.163 2.603.051-.571.088-1.117.14-1.679.103-1.15.237-2.3.377-3.534.081-.588.17-1.184.251-1.789.082-.604.222-1.225.333-1.846.281-1.428.621-2.863.998-4.299-.887-.109-4.028-.528-5.381-1.401-1.353-.874-2.831-2.418-3.03-4.257-.119-.806.048-1.633.463-2.301s1.045-1.123 1.754-1.266h.31c2.314-.068 4.782 3.769 5.462 5.985.045.143.377 1.797.54 2.712.236-.84.458-1.73.739-2.586.739-2.518 1.574-4.987 2.387-7.48.252-.764.488-1.528.739-2.283-.317 0-4.065-.445-5.572-1.427-1.338-.84-2.831-2.418-3.038-4.256-.113-.818.064-1.654.492-2.324s1.072-1.121 1.792-1.253h.281c2.32-.067 4.789 3.77 5.469 5.986.052.168.525 2.518.621 3.165.532-1.679 1.057-3.358 1.478-5.037.629-2.266 1.123-4.577 1.478-6.918-.148 0-4.065-.419-5.602-1.427-1.345-.839-2.838-2.417-3.038-4.256-.113-.818.064-1.653.492-2.323.428-.671 1.072-1.121 1.792-1.253h.281c2.313-.059 4.782 3.769 5.462 5.985.044.152.406 1.965.561 2.83h.133c.307-2.365.426-4.756.355-7.144-.016-1.269-.09-2.535-.222-3.795-.739 0-4.094 0-5.572-.722-1.479-.722-3.053-2.048-3.437-3.853-.191-.796-.097-1.645.262-2.362.359-.718.953-1.245 1.652-1.466l.303-.076c2.299-.352 5.122 3.148 6.016 5.272.045.118.429 1.352.688 2.25-.052-.546-.104-1.116-.17-1.679-.229-1.973-.555-3.769-.85-5.347-.178-.899-.348-1.679-.518-2.46-.739-.42-3.636-2.149-4.634-3.551s-1.87-3.408-1.478-5.2132c.159-.8059.593-1.5072 1.207-1.9496.614-.4423 1.358-.5896 2.067-.4094.107.0081.213.0249.318.0504z" fill="#638a66"/><path d="m239.713 96.1795c2.18.8898 3.267 5.4735 3.193 7.8235 0 .202-.414 3.358-.451 3.358h-.03c.17.722.355 1.503.54 2.351.325 1.578.68 3.358.953 5.339.318 2.125.525 4.269.621 6.422.118 2.409.046 4.825-.214 7.22-.007.027-.007.056 0 .084.288-.697 1.138-2.628 1.219-2.771 1.139-1.964 4.346-5.037 6.586-4.298.345.12.665.316.943.577.277.26.507.581.675.943.169.362.272.758.305 1.166.033.407-.005.818-.112 1.209 0 .101-.059.202-.096.302-.592 1.73-2.366 2.813-3.851 3.291-1.678.546-5.418-.1-5.713-.151-.318 2.427-.777 4.828-1.375 7.186-.347 1.377-.739 2.754-1.124 4.13.259-.596.503-1.125.54-1.2 1.138-1.964 4.346-5.037 6.585-4.307.344.119.664.314.941.573.277.26.507.579.676.939s.274.754.308 1.16c.035.407-.001.816-.106 1.207 0 .109-.067.218-.104.319-.591 1.737-2.365 2.812-3.851 3.299-1.485.487-4.708 0-5.55-.126-.155.52-.311 1.049-.473 1.57-.739 2.518-1.538 5.037-2.218 7.505-.243.839-.458 1.746-.672 2.619.236-.529.436-.974.473-1.033 1.131-1.964 4.346-5.036 6.578-4.306.696.246 1.277.794 1.618 1.526.341.731.413 1.586.2 2.377-.028.1-.06.198-.096.294-.591 1.73-2.373 2.813-3.858 3.291-1.486.479-4.39.059-5.396-.101-.199.907-.391 1.805-.547 2.687-.096.604-.221 1.183-.288 1.796-.066.613-.148 1.209-.222 1.797-.103 1.15-.221 2.342-.295 3.467-.059.78-.104 1.528-.148 2.275.229-.84.739-2.569.776-2.712.819-1.846 2.04-3.424 3.548-4.583.082-.211.183-.411.303-.596.195-.344.449-.64.745-.872.297-.233.631-.396.983-.481.353-.085.716-.09 1.07-.015s.692.229.993.453l.237.193c1.759 1.679 1.316 6.447.51 8.613-.044.126-.702 1.444-1.124 2.266.318-.436.614-.839.946-1.326.644-.89 1.309-1.763 2.018-2.703l1.087-1.335c.355-.462.783-.89 1.175-1.335.924-1.016 1.907-1.998 2.919-2.963-.694-.638-3.111-2.964-3.806-4.542s-1.19-3.786-.466-5.448c.148-.373.359-.71.622-.991.262-.28.571-.499.908-.644s.696-.213 1.056-.201c.36.013.715.106 1.043.275l.266.159c1.959 1.394 2.159 6.137 1.649 8.395 0 .143-.562 1.729-.865 2.594.613-.571 1.219-1.15 1.855-1.679 1.833-1.612 3.732-3.173 5.617-4.743l1.722-1.452c-.244-.227-3.17-2.913-3.954-4.676-.687-1.57-1.19-3.786-.466-5.457.15-.374.362-.711.626-.991.264-.281.574-.499.913-.644.338-.144.698-.211 1.06-.197.361.014.716.109 1.045.279.082.05.17.092.252.151 1.958 1.402 2.158 6.145 1.648 8.395 0 .176-.798 2.46-1.02 3.03 1.264-1.074 2.513-2.149 3.695-3.265 1.619-1.503 3.15-3.124 4.583-4.852-.111-.101-3.178-2.888-3.977-4.701-.694-1.57-1.19-3.787-.465-5.449.297-.751.844-1.338 1.522-1.63.678-.293 1.43-.268 2.092.069l.273.159c1.966 1.394 2.166 6.137 1.656 8.395 0 .143-.613 1.889-.909 2.712l.118.075c1.404-1.781 2.663-3.703 3.762-5.742.614-1.108 1.153-2.208 1.656-3.299-.621-.453-3.422-2.518-4.302-4.097-.879-1.578-1.545-3.609-.99-5.355.113-.389.292-.749.527-1.059.236-.31.522-.564.844-.748s.673-.294 1.032-.324c.36-.03.721.021 1.063.149l.229.101c2.092 1.142 2.742 5.834 2.454 8.16 0 .126-.296 1.393-.51 2.317.214-.495.451-.999.651-1.478.739-1.796 1.367-3.492 1.884-5.037.296-.839.54-1.679.739-2.375-.406-.84-1.988-4.072-2.143-5.877s.096-4.021 1.301-5.28c.52-.577 1.22-.897 1.948-.889.727.008 1.422.342 1.932.931l.192.252c1.39 2.107.067 6.607-1.131 8.529-.103.159-1.988 2.518-2.01 2.518v-.033c-.207.713-.429 1.477-.695 2.3-.488 1.519-1.064 3.24-1.788 5.037-.769 1.971-1.641 3.888-2.609 5.742-1.077 2.079-2.314 4.045-3.696 5.876l-.052.067c.577-.411 2.218-1.477 2.358-1.544 1.907-.924 6.061-1.453 7.583.537.462.642.68 1.465.608 2.29-.072.824-.429 1.583-.992 2.109-.069.068-.144.13-.222.185-1.338 1.074-3.348.839-4.819.327-1.663-.596-4.434-3.475-4.693-3.702-1.439 1.829-2.987 3.543-4.634 5.129-.961.94-1.944 1.847-2.957 2.737.51-.328.969-.621 1.035-.655 1.9-.923 6.053-1.452 7.576.537.462.637.683 1.457.614 2.278-.07.822-.423 1.579-.984 2.104-.073.075-.153.142-.236.202-1.33 1.074-3.341.839-4.812.327-1.47-.512-3.932-2.93-4.567-3.576l-1.161 1.016c-1.862 1.62-3.695 3.223-5.506 4.86-.628.58-1.227 1.176-1.833 1.763.458-.293.835-.537.902-.562 1.899-.932 6.053-1.452 7.576.529.463.633.686 1.45.62 2.27-.067.82-.418 1.577-.975 2.103l-.252.21c-1.337 1.075-3.34.84-4.811.336s-3.696-2.703-4.435-3.467c-.598.63-1.204 1.251-1.759 1.897-.377.445-.739.84-1.108 1.318-.37.479-.74.907-1.065 1.36-.643.89-1.315 1.814-1.929 2.703-.428.613-.828 1.209-1.227 1.805.614-.579 1.855-1.679 1.966-1.771 1.752-1.242 5.787-2.476 7.561-.781.287.293.516.651.673 1.051.156.4.237.833.237 1.27 0 .438-.081.871-.237 1.271-.157.4-.386.758-.673 1.051-1.175 1.284-3.185 1.427-4.708 1.158-1.685-.302-4.73-2.518-5.107-2.837-.665.99-1.301 1.964-1.892 2.896-2.047 3.215-3.644 5.977-4.738 7.933l-.111.193-1.419-.781c.074-.126.148-.243.222-.377 1.146-1.948 2.816-4.702 4.945-7.9.672-1.007 1.404-2.074 2.165-3.165-.791-.98-1.531-2.011-2.217-3.089-1.633.722-5.026.755-5.462.755-.067 1.243-.126 2.452-.17 3.593-.148 3.971-.133 7.279-.096 9.587v.277l-1.56-.839c0-2.292.082-5.406.289-9.075.066-1.268.162-2.619.273-3.996-.436-.126-3.961-1.158-5.292-2.367-1.205-1.092-2.476-2.871-2.432-4.727-.003-.407.063-.812.197-1.191.134-.378.332-.723.584-1.015.251-.291.55-.524.88-.684.331-.16.685-.245 1.045-.249h.31c2.299.336 4.22 4.55 4.605 6.858 0 .135.118 1.679.162 2.603.052-.571.089-1.117.141-1.679.103-1.15.236-2.3.377-3.534.081-.588.17-1.184.251-1.789.081-.604.222-1.225.333-1.846.28-1.427.62-2.863.997-4.299-.887-.109-4.028-.528-5.38-1.401-1.353-.873-2.831-2.418-3.031-4.257-.059-.402-.047-.814.034-1.211.081-.398.231-.773.441-1.105.209-.331.474-.612.78-.827.305-.215.645-.359 1-.424.102-.023.206-.037.31-.042 2.313-.068 4.782 3.769 5.462 5.985.044.143.377 1.797.54 2.712.236-.84.458-1.73.739-2.586.739-2.518 1.574-4.986 2.387-7.48.251-.764.488-1.528.739-2.283-.318 0-4.065-.445-5.573-1.427-1.338-.84-2.831-2.418-3.038-4.256-.056-.406-.042-.819.041-1.219.084-.399.237-.775.449-1.107s.48-.613.788-.828c.307-.215.65-.358 1.006-.423h.281c2.321-.067 4.79 3.77 5.47 5.986.051.168.524 2.518.62 3.165.533-1.679 1.057-3.358 1.479-5.037.625-2.267 1.119-4.577 1.478-6.917-.148 0-4.065-.42-5.603-1.428-1.345-.839-2.838-2.417-3.037-4.256-.057-.405-.043-.819.041-1.218s.236-.775.448-1.107.48-.614.788-.828c.308-.215.65-.359 1.006-.423h.281c2.314-.059 4.782 3.769 5.462 5.986.045.151.407 1.964.562 2.829h.133c.303-2.365.422-4.756.355-7.144-.016-1.269-.09-2.535-.222-3.795-.739 0-4.095 0-5.573-.722s-3.052-2.048-3.437-3.853c-.192-.796-.099-1.646.26-2.364s.954-1.244 1.655-1.464c.099-.033.2-.058.303-.076 2.298-.352 5.122 3.148 6.016 5.272.044.118.429 1.352.687 2.25-.051-.545-.103-1.116-.17-1.637-.229-1.973-.554-3.769-.85-5.347-.177-.899-.347-1.679-.517-2.46-.739-.42-3.636-2.149-4.634-3.551s-1.87-3.408-1.478-5.2132c.159-.8059.593-1.5071 1.207-1.9495s1.357-.5897 2.067-.4094c.101.0043.203.0155.303.0336z" fill="#f5f7f5" opacity=".2"/><path d="m281.391 137.364c-1.811-.084-5.433-2.191-5.433-2.199s1.944-2.283 2.085-2.409c1.618-1.469 5.506-3.216 7.435-1.763.295.236.547.537.74.884.193.348.323.735.385 1.139.061.405.051.819-.029 1.22-.08.4-.229.779-.438 1.114-.053.089-.112.173-.177.251-1.035 1.411-3.023 1.831-4.568 1.763z" fill="#92e3a9"/><g fill="#fff" opacity=".5"><path d="m243.985 117.872c-.044 0 .51-3.132.569-3.358.636-2.233 3.03-6.129 5.344-6.12.36.012.714.104 1.043.272s.625.407.872.705.44.648.568 1.031c.128.382.188.79.178 1.199.007.109.007.218 0 .327-.17 1.855-1.634 3.425-2.957 4.34-1.574 1.1-5.617 1.604-5.617 1.604z"/><path d="m281.391 137.364c-1.811-.084-5.433-2.191-5.433-2.199s1.944-2.283 2.085-2.409c1.618-1.469 5.506-3.216 7.435-1.763.295.236.547.537.74.884.193.348.323.735.385 1.139.061.405.051.819-.029 1.22-.08.4-.229.779-.438 1.114-.053.089-.112.173-.177.251-1.035 1.411-3.023 1.831-4.568 1.763z"/></g><path d="m260.245 188.883s-10.99-30.095-17.14-28.786c-6.149 1.31 10.533 47.968 10.533 47.968s-19.335-41.428-32.521-41.428c-13.185 0 4.834 45.794 21.53 61.055 0 0-26.364-32.269-41.744-25.293-15.381 6.976 30.761 39.682 30.761 39.682s-26.807-9.595-23.732-2.183c3.074 7.413 11.426 8.723 11.426 8.723l-30.303 1.746h105.47l-23.733-2.619s24.612-13.953 18.02-19.619c-6.593-5.667-21.094 6.54-21.094 6.54s25.048-31.397 20.214-43.175-26.371 21.373-26.371 21.373 17.583-42.301 14.043-49.714c-3.541-7.412-15.359 25.73-15.359 25.73z" fill="#638a66"/><path d="m263.763 190.453c-9.675 32.446-9.674 55.406-9.674 55.406s11.426.495 23.296-9.486" stroke="#263238" stroke-linecap="round" stroke-linejoin="round"/><path d="m258.93 207.931c-1.997-9.701-4.643-19.215-7.916-28.458" stroke="#263238" stroke-linecap="round" stroke-linejoin="round"/><path d="m230.363 188.959 24.627 41.428s16.704-15.95 22.417-24.957" stroke="#263238" stroke-linecap="round" stroke-linejoin="round"/><path d="m254.532 240.377s-25.928-13.977-36.497-21.936" stroke="#263238" stroke-linecap="round" stroke-linejoin="round"/><path d="m231.258 16.9658h-78.966c-3.233 0-5.854 2.9767-5.854 6.6487v220.0955c0 3.672 2.621 6.648 5.854 6.648h78.966c3.232 0 5.853-2.976 5.853-6.648v-220.0955c0-3.672-2.621-6.6487-5.853-6.6487z" fill="#fff" stroke="#263238" stroke-linecap="round" stroke-linejoin="round"/><path d="m234.081 57.8234c-.32 0-.626-.1442-.852-.4008s-.353-.6047-.353-.9676v-18.3427c.024-.3454.162-.668.386-.9033s.518-.366.823-.366.599.1307.823.366.361.5579.385.9033v18.3091c.004.1811-.024.3613-.082.5301-.057.1688-.144.3229-.255.4533s-.243.2346-.389.3064c-.147.0719-.304.11-.464.1122z" fill="#263238"/><path d="m234.081 74.8145c-.32 0-.626-.1442-.852-.4008s-.353-.6046-.353-.9676v-10.25c.024-.3455.162-.6681.386-.9034s.518-.3659.823-.3659.599.1306.823.3659.361.5579.385.9034v10.25c0 .1804-.031.3591-.092.5256-.061.1666-.151.3178-.263.445-.113.1272-.247.2278-.394.2961-.147.0682-.304.1028-.463.1017z" fill="#263238"/><path d="m224.421 16.9658h-78.966c-3.233 0-5.853 2.9767-5.853 6.6487v220.0955c0 3.672 2.62 6.648 5.853 6.648h78.966c3.233 0 5.854-2.976 5.854-6.648v-220.0955c0-3.672-2.621-6.6487-5.854-6.6487z" fill="#263238" stroke="#263238" stroke-linecap="round" stroke-linejoin="round"/><path d="m224.236 32.5046h-78.596v200.1824h78.596z" fill="#a2bda2"/><path d="m173.268 26.1077h20.924" stroke="#fff" stroke-linecap="round" stroke-linejoin="round" stroke-width="3"/><path d="m182.122 239.773c0 1.637-.902 2.963-2.018 2.963s-2.01-1.326-2.01-2.963.902-2.972 2.01-2.972c1.109 0 2.018 1.326 2.018 2.972z" fill="#fff"/><path d="m184.938 82.3194c7.527 0 13.629-8.0808 13.629-18.0489s-6.102-18.0488-13.629-18.0488-13.629 8.0807-13.629 18.0488 6.102 18.0489 13.629 18.0489z" fill="#f0ebb5"/><path d="m184.938 64.044c2.857 0 5.174-3.0707 5.174-6.8585 0-3.7879-2.317-6.8586-5.174-6.8586s-5.174 3.0707-5.174 6.8586c0 3.7878 2.317 6.8585 5.174 6.8585z" fill="#263238" stroke="#263238" stroke-linecap="round" stroke-linejoin="round"/><path d="m184.938 65.8655c-5.174 0-9.409 4.508-9.409 10.0738.005.5179.047 1.0345.126 1.5446 1.044 1.3879 2.319 2.5282 3.752 3.3556 1.432.8273 2.995 1.3255 4.597 1.4658 1.603.1404 3.214-.0798 4.741-.6478 1.528-.5681 2.942-1.4728 4.161-2.6625.479-.4609.924-.9663 1.33-1.5111.073-.5109.112-1.0272.118-1.5446-.015-5.5658-4.227-10.0738-9.416-10.0738z" fill="#263238" stroke="#263238" stroke-linecap="round" stroke-linejoin="round"/><path d="m201.509 142.888h-33.142c-.877-.039-1.704-.473-2.3-1.205s-.912-1.702-.878-2.699v-23.236c0-13.39 8.869-24.2866 19.749-24.2866s19.741 10.9136 19.741 24.2866v23.22c.02.493-.046.986-.194 1.451-.149.464-.376.891-.67 1.255s-.649.659-1.043.867c-.394.209-.821.327-1.256.347zm-29.971-7.807h26.793v-19.308c0-9.083-6.009-16.4792-13.393-16.4792s-13.4 7.3962-13.4 16.4792z" fill="#263238"/><path d="m207.946 127.03h-46.016v49.446h46.016z" fill="#f0ebb5"/><path d="m191.642 161.071-3.415-9.327c.756-.648 1.367-1.488 1.784-2.453.417-.966.629-2.029.618-3.104 0-3.719-2.446-6.716-5.469-6.716s-5.462 3.006-5.462 6.716c-.012 1.075.198 2.138.614 3.103s1.026 1.806 1.781 2.454l-3.408 9.327z" fill="#263238" stroke="#263238" stroke-linecap="round" stroke-linejoin="round"/><path d="m170.917 220.909c.071.059.156.092.244.093.064-.003.126-.025.181-.063.054-.038.099-.092.13-.156l52.757-81.505v-1.519l-53.378 82.512c-.033.047-.058.1-.073.157s-.02.117-.014.176c.005.06.021.117.046.169.025.053.059.099.1.136z" fill="#fff"/><path d="m213.6 61.8696c-.031.0484-.054.1033-.066.1617-.013.0584-.015.1191-.007.1784.008.0594.027.1163.055.1675.028.0511.064.0955.107.1304.043.0358.091.0615.143.0758.051.0143.104.0168.157.0074.052-.0094.102-.0304.147-.062s.084-.073.115-.1219l9.985-15.3961v-1.511z" fill="#fff"/><path d="m145.64 168.459 65.13-100.5954c.031-.0484.054-.1033.066-.1617.013-.0584.015-.1191.007-.1784-.008-.0594-.027-.1163-.055-.1675-.028-.0511-.064-.0955-.107-.1304-.087-.07-.194-.0986-.299-.0798s-.199.0836-.263.1805l-64.449 99.5877z" fill="#fff"/><path d="m164.82 230.857c.063.001.125-.016.182-.048.056-.032.105-.079.143-.137l3.695-5.675c.032-.047.055-.101.068-.158s.016-.117.008-.176c-.007-.058-.025-.115-.052-.165-.027-.051-.063-.095-.105-.13-.087-.07-.194-.099-.299-.08s-.199.084-.263.181l-3.695 5.666c-.032.048-.055.102-.068.161-.013.058-.016.118-.009.177.008.06.026.117.053.168.027.052.063.097.105.132.067.061.151.091.237.084z" fill="#fff"/><path d="m224.236 155.623-43.311 66.915c-.062.098-.087.22-.071.339.017.12.074.227.159.299.087.07.194.098.299.08.105-.019.2-.084.263-.181l42.661-65.916z" fill="#fff"/><g stroke-linecap="round" stroke-linejoin="round"><path d="m72.1216 61.576c.7328-1.8443 1.0866-3.8538 1.0347-5.8764 0-3.7525-3.9985-5.9267-8.6992-6.5228-4.7007-.596-6.8072 1.5783-6.0681 2.9634.7216 1.1428 1.6029 2.1438 2.6091 2.9634 0 0-4.7007-2.9634-7.8345-.5877-3.1338 2.3758 1.3969 1.3852.5248 3.7525-.8722 2.3673-5.7429 1.3851-6.9624 7.7064s2.2395 12.651-.9017 15.4549-12.5647-1.0242-15.3068 5.8764c-2.7421 6.9005 1.153 9.9898-5.4546 14.3379-6.6075 4.349-11.4265 8.597-9.5122 19.308 1.9143 10.712 8.1819 14.406 20.5396 10.637 12.3578-3.77 11.4857-12.257 15.5212-20.987 4.0355-8.731 10.2735-6.918 12.1878-11.8622 1.9142-4.9446-.5248-10.9133-.3474-15.4213s4.1759-5.5322 5.7428-10.9132c1.5669-5.3811 2.9269-10.8293 2.9269-10.8293z" fill="#263238" stroke="#263238"/><path d="m16.9993 120.726c-.3233.743-.4879 1.563-.4804 2.392" stroke="#fff" stroke-width=".5"/><path d="m65.4401 57.6555s-2.1729-2.8542 2.0104-1.5278c5.2698 1.6789-.9165 8.6046-3.2964 9.9982-4.7746 2.7787-11.0865 1.8888-14.782 6.9425-3.3556 4.5668 1.1751 9.3266-.8352 12.9448-2.0104 3.6182-10.0592 1.5195-12.7348 5.8764-2.6755 4.3569 4.8559 13.7084-2.8529 18.8464-5.5728 3.719-11.6778 5.146-14.6268 8.093" stroke="#fff" stroke-width=".5"/><path d="m52.9418 74.5459c-.4551 1.2145-.5937 2.5519-.3991 3.8532.6652 3.232 4.5233 9.3266 1.0052 12.7517-3.5182 3.4251-9.5566 3.232-10.5544 7.2448-.9978 4.0124 1.0052 15.0354-2.343 20.1474-3.3481 5.113-9.8891 4.76-13.4073 8.219-3.5181 3.458-3.0155 5.33-3.0155 5.33" stroke="#fff" stroke-width=".5"/><path d="m54.6935 70.7852c-.303.4953-.5839.9989-.8425 1.5194" stroke="#fff" stroke-width=".5"/><path d="m74.3758 120.424.85 7.555s4.4346 5.037 7.6941 8.151c3.2594 3.115 11.6113 9.705 11.6113 9.705l-4.2351 1.368s-13.8434-9.318-16.5781-10.074c-2.7346-.755-4.7819-5.238-5.6319-6.598s4.065-11.467 6.2897-10.107z" fill="#f1cbb5" stroke="#263238"/><path d="m82.8312 243.349s4.1833 4.013 5.9128 5.356 3.7473 1.947 3.4294 2.678c-.3178.73-1.1825 1.46-5.255.839-4.0724-.621-5.2476-2.191-6.0015-2.434-.7539-.244-2.5721.369-3.9616-.605s.813-6.774.813-6.774c.6095.812 1.4527 1.352 2.3797 1.524.9271.172 1.8778-.035 2.6832-.584z" fill="#c0e1d9" stroke="#263238"/><path d="m92.1586 251.383c.0074-.039.0074-.079 0-.118-2.3513.248-4.7227-.005-6.9919-.747-2.6312-.705-3.4073-2.292-5.9128-2.292-.9836.015-1.9619-.167-2.8899-.537-.0269.28.0068.563.0982.825.0915.262.2379.495.4265.678 1.3895.973 3.2151.361 3.9616.604.7465.244 1.9291 1.83 6.0015 2.435 4.0725.604 4.9816-.118 5.3068-.848z" fill="#fff" stroke="#263238"/><path d="m60.9316 81.1023s.8056 6.1618-.2291 8.6467c-1.0348 2.4848-4.272 2.7534-7.0363 3.2823-2.7642.5289-9.1131 3.274-8.4257 10.3507.6873 7.077 8.6548 22.406 8.6548 26.738 0 4.331-2.4242 6.548-5.0776 14.934s-2.306 23.984-1.4782 34.074c.6068 6.66 1.7649 13.24 3.459 19.653 0 0-6.6519 12.189-9.6083 17.427-2.9564 5.239-13.3038 28.047-13.3038 28.047s0 .781 1.6112 1.31c1.1331.317 2.3064.405 3.4664.26 0 0 19.8375-27.123 23.533-31.707s7.1545-12.592 7.6127-16.252c.4583-3.66-.1108-26.075-.1108-26.075s4.1463 11.266 7.391 17.033c1.9664 3.531 3.7722 7.173 5.4102 10.914-.4508 4.743-.4508 9.528 0 14.271.8056 6.548.1257 27.585.9313 29.289.8056 1.705 3.932.991 4.6268.21.6947-.78 1.0199-5.876 1.0199-5.876s1.3822-15.95 2.2173-23.455c.8352-7.505 2.2173-13.894 1.7369-15.598s-3.3481-19.921-5.5432-28.542c-2.1952-8.622-8.8693-24.765-10.3475-28.954s-2.3134-8-2.0768-9.31c.2365-1.309 4.7302-9.167 5.9128-11.265.6753-1.423 1.0477-3.005 1.0875-4.62.0398-1.616-.2542-3.219-.8584-4.682-1.3821-3.408 0-8-.2291-10.745-.2292-2.7454-3.8064-3.9206-5.6542-4.9868-1.8477-1.0661-2.5425-3.4083-2.5425-5.3727.1129-1.6547.465-3.2771 1.0422-4.8018 0 0-5.6911-4.1974-7.1915-4.1974z" fill="#c0e1d9" stroke="#263238"/><path d="m74.9153 109.133c-.5955-1.756-1.0892-3.553-1.4782-5.382" stroke="#263238"/><path d="m59.9337 123.723s2.0843.52 6.2602-1.847" stroke="#263238"/><path d="m81.8112 169.944c-2.0917-8.26-8.2927-23.345-10.1183-28.324-8.8692 3.778-17.1619.554-21.057-1.527-.5617 1.393-1.1678 3.005-1.7886 4.952-2.6534 8.395-2.306 23.984-1.4782 34.075.6067 6.66 1.7648 13.239 3.459 19.652 0 0-6.652 12.19-9.6084 17.428s-13.3038 28.047-13.3038 28.047 0 .781 1.6112 1.31c1.1331.316 2.3065.404 3.4664.26 0 0 19.8375-27.124 23.533-31.707 3.6955-4.584 7.1545-12.593 7.6128-16.253.4582-3.66-.1109-26.074-.1109-26.074s4.1464 11.266 7.391 17.033c1.9664 3.53 3.7722 7.173 5.4103 10.913-.4509 4.744-.4509 9.528 0 14.271.8056 6.548.1256 27.586.9312 29.29.8057 1.704 3.932.991 4.6268.21s1.02-5.877 1.02-5.877 1.3821-15.95 2.2173-23.455 2.2173-13.893 1.7369-15.597c-.4805-1.704-3.3556-19.98-5.5507-28.627z" fill="#263238" stroke="#263238"/><path d="m127 161.625v-1.712h1.264v-13.449h-1.264-12.476-1.264v13.449h1.264v1.712h-1.271v3.123h4.87v-1.049h5.277v1.049h4.871v-3.123z" fill="#a2bda2" stroke="#263238"/><path d="m46.3639 142.443h87.0371c.348 0 .683.158.93.438s.385.66.385 1.056v2.972c0 .396-.138.777-.385 1.057s-.582.437-.93.437h-87.0371v-6.002z" fill="#a2bda2" stroke="#263238"/><path d="m108.833 141.545h-5.3c-.404 0-.731.372-.731.831v6.137c0 .459.327.831.731.831h5.3c.404 0 .731-.372.731-.831v-6.137c0-.459-.327-.831-.731-.831z" fill="#92e3a9" stroke="#263238"/><path d="m35.5286 161.054c7.5883 0 13.7399-6.987 13.7399-15.606 0-8.618-6.1516-15.605-13.7399-15.605s-13.7399 6.987-13.7399 15.605c0 8.619 6.1516 15.606 13.7399 15.606z" fill="#a2bda2" stroke="#263238"/><path d="m38.352 145.407c.7971-.433 1.4736-1.107 1.9548-1.948.4812-.842.7486-1.818.7725-2.821 0-3.064-2.4833-5.549-5.5506-5.549s-5.5507 2.519-5.5507 5.549c.024 1.003.2913 1.979.7726 2.821.4812.841 1.1576 1.515 1.9547 1.948-.7961.436-1.4714 1.112-1.9524 1.954-.4809.843-.749 1.819-.7749 2.822 0 3.064 2.4834 5.549 5.5507 5.549s5.5506-2.518 5.5506-5.549c-.0259-1.003-.2939-1.979-.7749-2.822-.4809-.842-1.1562-1.518-1.9524-1.954z" fill="#fff" stroke="#263238"/><path d="m91.8186 148.588s4.3016 2.065 5.632 2.065c1.3303 0 2.8674-1.519 3.6294-3.358.761-1.838.739-2.711.288-2.275l-.954.84s.739-1.839-.096-1.62c-.5773.22-1.0569.687-1.3375 1.301 0 0-.0961-1.629-.8574-.84-.5018.521-.9505 1.104-1.3377 1.738 0 0-.0961-2.057-.5765-1.519-.4805.537-2.2839 3.467-2.2839 3.467z" fill="#fff" stroke="#263238"/></g><path d="m96.8224 146.406s-.2883 2.602-1.7147 3.038z" fill="#fff"/><path d="m96.8224 146.406s-.2883 2.602-1.7147 3.038" stroke="#263238" stroke-linecap="round" stroke-linejoin="round"/><path d="m98.9805 145.541s-.7391 4.113-1.9069 4.768z" fill="#fff"/><path d="m98.9805 145.541s-.7391 4.113-1.9069 4.768" stroke="#263238" stroke-linecap="round" stroke-linejoin="round"/><path d="m100.414 145.86c-.379 1.502-.8916 2.956-1.5296 4.34z" fill="#fff"/><path d="m100.414 145.86c-.379 1.502-.8916 2.956-1.5296 4.34" stroke="#263238" stroke-linecap="round" stroke-linejoin="round"/><path d="m69.35 95.2224c-.7449-.5703-1.3483-1.3486-1.7521-2.26-.4038-.9115-.5946-1.9255-.5539-2.9448.1325-1.6286.497-3.222 1.0791-4.7179 0 0-5.6542-4.1974-7.1545-4.1974 0 0 .8056 6.1618-.2292 8.6467-.343.7635-.8956 1.3794-1.5742 1.7545 1.3675 4.178 3.2192 8.1304 5.5063 11.7525 2.0768 2.989 3.0894-3.257 4.6785-8.0336z" fill="#f1cbb5" stroke="#263238" stroke-linecap="round" stroke-linejoin="round"/><path d="m51.8997 93.8792c-1.4104.2735-2.7455.9157-3.8999 1.8757-1.1544.9601-2.0965 2.2119-2.752 3.6564-2.2764 4.9867-12.2247 27.6187-11.3748 28.9707 4.8337 7.723 22.417 13.28 24.2056 15.312 1.7888 2.118 3.7514 4.038 5.8611 5.734 1.7886 1.292 5.3585.738 6.0089.369s1.1382-2.032 0-2.032c-.4352.009-.8596-.154-1.2015-.46-.342-.306-.5807-.736-.6758-1.219-.1626-.738 1.7886.739 2.7642.185s-2.2173-2.577-3.156-3.5c-.9386-.924-1.7886-2.208-3.0894-2.208h-3.7473s-5.9867-4.928-9.6083-8.597c-2.8187-2.887-5.8924-5.436-9.1722-7.605l10.9756-20.509" fill="#c0e1d9"/><path d="m51.8997 93.8792c-1.4104.2735-2.7455.9157-3.8999 1.8757-1.1544.9601-2.0965 2.2119-2.752 3.6564-2.2764 4.9867-12.2247 27.6187-11.3748 28.9707 4.8337 7.723 22.417 13.28 24.2056 15.312 1.7888 2.118 3.7514 4.038 5.8611 5.734 1.7886 1.292 5.3585.738 6.0089.369s1.1382-2.032 0-2.032c-.4352.009-.8596-.154-1.2015-.46-.342-.306-.5807-.736-.6758-1.219-.1626-.738 1.7886.739 2.7642.185s-2.2173-2.577-3.156-3.5c-.9386-.924-1.7886-2.208-3.0894-2.208h-3.7473s-5.9867-4.928-9.6083-8.597c-2.8187-2.887-5.8924-5.436-9.1722-7.605l10.9756-20.509" stroke="#263238" stroke-linecap="round" stroke-linejoin="round"/><path d="m67.6722 142.796c-.9756-.924-1.7886-2.208-3.0894-2.208h-3.7473s-5.9867-4.928-9.6083-8.596c-2.8187-2.887-5.8924-5.436-9.1723-7.606l4.3903-8.21c-2.2452-1.541-4.8122-2.373-7.4354-2.409-2.9564 7.001-5.6097 13.918-5.1737 14.649 4.8338 7.723 22.417 13.28 24.2056 15.312 1.7881 2.124 3.7507 4.05 5.8611 5.75 1.7886 1.293 5.3585.739 6.0089.369.6504-.369 1.1382-2.031 0-2.031-.4352.008-.8595-.155-1.2015-.46-.342-.306-.5807-.737-.6758-1.219-.1626-.739 1.7886.739 2.7642.185s-2.1508-2.594-3.1264-3.526z" fill="#f1cbb5" stroke="#263238" stroke-linecap="round" stroke-linejoin="round"/><path d="m73.6219 72.0611c-.5765-1.3096-.5765-2.3589-.3474-4.1974.2291-1.8384-1.153-6.2961-1.153-6.2961-1.4117 2.7703-5.4915 4.4157-7.2949 5.0369-2.003.6884.9534 2.233.606 4.3401-.3473 2.1071-4.2794 3.2992-4.2794 3.2992s-1.1604-2.7115-2.7642-2.7115c-1.6039 0-2.7569 4.1974-1.8404 6.422.2439.6095.6623 1.1072 1.1871 1.4121s1.125.3989 1.7028.2669c0 0-.1108 3.9371 2.0769 5.1124 2.3342 1.2654 4.7695 2.2746 7.2728 3.0137 1.3821.2603 2.7642-.5204 3.3407-2.8794.4519-2.3771.7606-4.7864.9239-7.2111.9704-.7152 1.8613-1.5608 2.6534-2.5185.5469-.8646-1.5078-1.7797-2.0843-3.0893z" fill="#f1cbb5" stroke="#263238" stroke-linecap="round" stroke-linejoin="round"/><path d="m71.3751 72.1198c0 .722-.2069 1.3012-.4582 1.3012s-.4583-.5792-.4583-1.3012.207-1.3012.4583-1.3012.4582.5792.4582 1.3012z" fill="#263238"/><path d="m69.3868 69.9539s1.227-1.5698 2.1434-1.2172" stroke="#263238" stroke-linecap="round" stroke-linejoin="round"/><path d="m71.5303 80.7162c-.5539.1898-1.1418.2121-1.7057.0649-.5638-.1472-1.0841-.4589-1.5094-.9044" stroke="#263238" stroke-linecap="round" stroke-linejoin="round"/><path d="m27.9381 244.289s-2.7569 6.279-2.6534 7.136c.1035.856 5.5728 5.356 8.1301 6.934s7.1841 1.83 6.8589-.361-4.7155-3.652-5.7872-6.943c-.5713-1.702-1.0647-3.436-1.4782-5.196-1.7868.032-3.5451-.512-5.0702-1.57z" fill="#c0e1d9" stroke="#263238" stroke-linecap="round" stroke-linejoin="round"/><path d="m40.2884 257.989c-1.9678.304-3.9712-.019-5.7872-.932-3.969-1.956-7.8123-5.952-8.8692-7.085-.184.454-.3038.939-.3548 1.436.1109.839 5.5729 5.356 8.1301 6.934 2.5573 1.578 7.1472 1.796 6.8811-.353z" fill="#fff" stroke="#263238" stroke-linecap="round" stroke-linejoin="round"/></g></svg>