<svg id="Layer_1" data-name="Layer 1" xmlns="http://www.w3.org/2000/svg" viewBox="0 0 411.31 314.48"><defs><style>.cls-1{fill:#d2977c;}.cls-2{fill:#f0ebb5;}.cls-18,.cls-3{fill:#92e3a9;}.cls-4{fill:#638a66;}.cls-5{fill:#f5f7f5;opacity:0.2;}.cls-6{opacity:0.5;}.cls-7,.cls-9{fill:#fff;}.cls-13,.cls-14,.cls-8{fill:none;}.cls-11,.cls-15,.cls-16,.cls-17,.cls-18,.cls-19,.cls-8,.cls-9{stroke:#263238;}.cls-11,.cls-13,.cls-14,.cls-15,.cls-16,.cls-17,.cls-18,.cls-19,.cls-8,.cls-9{stroke-linecap:round;stroke-linejoin:round;}.cls-10,.cls-11{fill:#263238;}.cls-12,.cls-17,.cls-19{fill:#a2bda2;}.cls-13,.cls-14{stroke:#fff;}.cls-13{stroke-width:3px;}.cls-14{stroke-width:0.5px;}.cls-15{fill:#f1cbb5;}.cls-16{fill:#c0e1d9;}</style></defs><g id="freepik--background-simple--inject-38"><path class="cls-1" d="M311.56,42.07S271.3-2,207.56.07,89.45,44.92,44.5,78.36s-57,85.38-30.87,125.93,67.77,23.48,120.78,49.8S197.49,295.36,256.54,289s104-71.86,97.3-141.59S311.56,42.07,311.56,42.07Z"/></g><g id="freepik--Floor--inject-38"><ellipse class="cls-2" cx="212.79" cy="303.65" rx="198.52" ry="10.83"/></g><g id="freepik--Plants--inject-38"><path class="cls-3" d="M330.11,140.41c-.06,0,.69-3.73.77-4,.86-2.66,4.1-7.3,7.23-7.29a3.71,3.71,0,0,1,3.6,3.82,2.56,2.56,0,0,1,0,.39c-.23,2.21-2.21,4.08-4,5.17C335.58,139.81,330.11,140.41,330.11,140.41Z"/><path class="cls-4" d="M324,115.3c2.95,1.06,4.42,6.52,4.32,9.32,0,.24-.56,4-.61,4h-.06c.23.86.48,1.79.73,2.8.44,1.88.92,4,1.29,6.36a65.54,65.54,0,0,1,.84,7.65,48.45,48.45,0,0,1-.29,8.6v.1c.39-.83,1.54-3.13,1.65-3.3,1.54-2.34,5.88-6,8.91-5.12a3.71,3.71,0,0,1,2.45,4.64,2.2,2.2,0,0,1-.13.36c-.8,2.06-3.2,3.35-5.21,3.92-2.27.65-7.33-.12-7.73-.18a63.65,63.65,0,0,1-1.86,8.56q-.69,2.46-1.52,4.92c.35-.71.68-1.34.73-1.43,1.54-2.34,5.88-6,8.91-5.13a3.7,3.7,0,0,1,2.46,4.62,2.46,2.46,0,0,1-.14.38c-.8,2.07-3.2,3.35-5.21,3.93s-6.37,0-7.51-.15c-.21.62-.42,1.25-.64,1.87-1,3-2.08,6-3,8.94-.33,1-.62,2.08-.91,3.12.32-.63.59-1.16.64-1.23,1.53-2.34,5.88-6,8.9-5.13a3.74,3.74,0,0,1,2.46,4.66c0,.11-.08.23-.13.34-.8,2.06-3.21,3.35-5.22,3.92s-5.94.07-7.3-.12c-.27,1.08-.53,2.15-.74,3.2-.13.72-.3,1.41-.39,2.14s-.2,1.44-.3,2.14c-.14,1.37-.3,2.79-.4,4.13-.08.93-.14,1.82-.2,2.71.31-1,1-3.06,1.05-3.23a14.59,14.59,0,0,1,4.8-5.46,3.85,3.85,0,0,1,.41-.71,3.71,3.71,0,0,1,5.13-1.09l.32.23c2.38,2,1.78,7.68.69,10.26-.06.15-1,1.72-1.52,2.7.43-.52.83-1,1.28-1.58.87-1.06,1.77-2.1,2.73-3.22l1.47-1.59c.48-.55,1.06-1.06,1.59-1.59,1.25-1.21,2.58-2.38,4-3.53-.94-.76-4.21-3.53-5.15-5.41s-1.61-4.51-.63-6.49a3.72,3.72,0,0,1,4.91-1.86l.36.19c2.65,1.66,2.92,7.31,2.23,10,0,.17-.76,2.06-1.17,3.09.83-.68,1.65-1.37,2.51-2,2.48-1.92,5-3.78,7.6-5.65l2.33-1.73c-.33-.27-4.29-3.47-5.35-5.57-.93-1.87-1.61-4.51-.63-6.5a3.73,3.73,0,0,1,4.93-1.85l.34.18c2.65,1.67,2.92,7.32,2.23,10-.05.21-1.08,2.93-1.38,3.61,1.71-1.28,3.4-2.56,5-3.89a65.16,65.16,0,0,0,6.2-5.78c-.15-.12-4.3-3.44-5.38-5.6-.94-1.87-1.61-4.51-.63-6.49a3.71,3.71,0,0,1,4.89-1.86l.37.19c2.66,1.66,2.93,7.31,2.24,10-.05.17-.83,2.25-1.23,3.23l.16.09a47.24,47.24,0,0,0,5.09-6.84c.83-1.32,1.56-2.63,2.24-3.93-.84-.54-4.63-3-5.82-4.88s-2.09-4.3-1.34-6.38a3.72,3.72,0,0,1,4.69-2.36l.31.12c2.83,1.36,3.71,7,3.32,9.72,0,.15-.4,1.66-.69,2.76.29-.59.61-1.19.88-1.76,1-2.14,1.85-4.16,2.55-6,.4-1,.73-2,1-2.83-.55-1-2.69-4.85-2.9-7s.13-4.79,1.76-6.29a3.72,3.72,0,0,1,5.25.05l.26.3c1.88,2.51.09,7.87-1.53,10.16-.14.19-2.69,3-2.72,3v-.06c-.28.85-.58,1.76-.94,2.74-.66,1.81-1.44,3.86-2.42,6a65,65,0,0,1-3.53,6.84,47.89,47.89,0,0,1-5,7l-.07.08c.78-.49,3-1.76,3.19-1.84,2.58-1.1,8.2-1.73,10.26.64a3.73,3.73,0,0,1-.51,5.24l-.31.22c-1.81,1.28-4.53,1-6.52.39-2.25-.71-6-4.14-6.35-4.41a63.45,63.45,0,0,1-6.27,6.11c-1.3,1.12-2.63,2.2-4,3.26.69-.39,1.31-.74,1.4-.78,2.57-1.1,8.19-1.73,10.25.64a3.71,3.71,0,0,1-.5,5.23l-.32.23c-1.8,1.28-4.52,1-6.51.39s-5.32-3.49-6.18-4.26l-1.57,1.21c-2.52,1.93-5,3.84-7.45,5.79-.85.69-1.66,1.4-2.48,2.1.62-.35,1.13-.64,1.22-.67,2.57-1.11,8.19-1.73,10.25.63a3.7,3.7,0,0,1-.48,5.21,2.7,2.7,0,0,1-.34.25c-1.81,1.28-4.52,1-6.51.4s-5-3.22-6-4.13c-.81.75-1.63,1.49-2.38,2.26-.51.53-1,1-1.5,1.57s-1,1.08-1.44,1.62c-.87,1.06-1.78,2.16-2.61,3.22-.58.73-1.12,1.44-1.66,2.15.83-.69,2.51-2,2.66-2.11,2.37-1.48,7.83-3,10.23-.93a3.73,3.73,0,0,1,.28,5.26,3.57,3.57,0,0,1-.28.27c-1.59,1.53-4.31,1.7-6.37,1.38-2.28-.36-6.4-3-6.91-3.38-.9,1.18-1.76,2.34-2.56,3.45-2.77,3.83-4.93,7.12-6.41,9.45l-.15.23-1.92-.93.3-.45c1.55-2.32,3.81-5.6,6.69-9.41.91-1.2,1.9-2.47,2.93-3.77a39.45,39.45,0,0,1-3-3.68c-2.21.86-6.8.9-7.39.9-.09,1.48-.17,2.92-.23,4.28-.2,4.73-.18,8.67-.13,11.42v.33l-2.11-1c0-2.73.11-6.44.39-10.81.09-1.51.22-3.12.37-4.76-.59-.15-5.36-1.38-7.16-2.82-1.63-1.3-3.35-3.42-3.29-5.63a3.71,3.71,0,0,1,3.66-3.74l.42,0c3.11.4,5.71,5.42,6.23,8.17,0,.16.16,2,.22,3.1.07-.68.12-1.33.19-2,.14-1.37.32-2.74.51-4.21.11-.7.23-1.41.34-2.13s.3-1.46.45-2.2c.38-1.7.84-3.41,1.35-5.12-1.2-.13-5.45-.63-7.28-1.67s-3.83-2.88-4.1-5.07a3.7,3.7,0,0,1,3-4.25l.42,0c3.13-.08,6.47,4.49,7.39,7.13.06.17.51,2.14.73,3.23.32-1,.62-2.06,1-3.08,1-3,2.13-5.94,3.23-8.91.34-.91.66-1.82,1-2.72-.43,0-5.5-.53-7.54-1.7-1.81-1-3.83-2.88-4.11-5.07a3.73,3.73,0,0,1,3.09-4.26l.38,0c3.14-.08,6.48,4.49,7.4,7.13.07.2.71,3,.84,3.77.72-2,1.43-4,2-6a63,63,0,0,0,2-8.24c-.2,0-5.5-.5-7.58-1.7-1.82-1-3.84-2.88-4.11-5.07a3.73,3.73,0,0,1,3.09-4.26l.38,0c3.13-.07,6.47,4.49,7.39,7.13.06.18.55,2.34.76,3.37h.18a47.45,47.45,0,0,0,.48-8.51,43.6,43.6,0,0,0-.3-4.52c-1,0-5.54,0-7.54-.86s-4.13-2.44-4.65-4.59a3.72,3.72,0,0,1,2.59-4.56l.41-.09c3.11-.42,6.93,3.75,8.14,6.28.06.14.58,1.61.93,2.68-.07-.65-.14-1.33-.23-2-.31-2.35-.75-4.49-1.15-6.37-.24-1.07-.47-2-.7-2.93-1-.5-4.92-2.56-6.27-4.23s-2.53-4.06-2-6.21a3.71,3.71,0,0,1,4.43-2.81A3,3,0,0,1,324,115.3Z"/><path class="cls-5" d="M324.33,114.57c2.95,1.06,4.42,6.52,4.32,9.32,0,.24-.56,4-.61,4H328c.23.86.48,1.79.73,2.8.44,1.88.92,4,1.29,6.36a65.54,65.54,0,0,1,.84,7.65,48.45,48.45,0,0,1-.29,8.6.17.17,0,0,0,0,.1c.39-.83,1.54-3.13,1.65-3.3,1.54-2.34,5.88-6,8.91-5.12a3.7,3.7,0,0,1,2.45,4.64c0,.12-.08.24-.13.36-.8,2.06-3.2,3.35-5.21,3.92-2.27.65-7.33-.12-7.73-.18a65.94,65.94,0,0,1-1.86,8.56c-.47,1.64-1,3.28-1.52,4.92.35-.71.68-1.34.73-1.43,1.54-2.34,5.88-6,8.91-5.13a3.7,3.7,0,0,1,2.46,4.62c0,.13-.09.26-.14.38-.8,2.07-3.2,3.35-5.21,3.93s-6.37,0-7.51-.15c-.21.62-.42,1.25-.64,1.87-1,3-2.08,6-3,8.94-.33,1-.62,2.08-.91,3.12.32-.63.59-1.16.64-1.23,1.53-2.34,5.88-6,8.9-5.13a3.73,3.73,0,0,1,2.46,4.65,3.62,3.62,0,0,1-.13.35c-.8,2.06-3.21,3.35-5.22,3.92s-5.94.07-7.3-.12c-.27,1.08-.53,2.15-.74,3.2-.13.72-.3,1.41-.39,2.14s-.2,1.44-.3,2.14c-.14,1.37-.3,2.79-.4,4.13-.08.93-.14,1.82-.2,2.71.31-1,1-3.06,1.05-3.23a14.44,14.44,0,0,1,4.8-5.46,3.85,3.85,0,0,1,.41-.71,3.7,3.7,0,0,1,5.13-1.09l.32.23c2.38,2,1.78,7.68.69,10.26-.06.15-.95,1.72-1.52,2.7.43-.52.83-1,1.28-1.58.87-1.06,1.77-2.1,2.73-3.22l1.47-1.59c.48-.55,1.06-1.06,1.59-1.59,1.25-1.21,2.58-2.38,3.95-3.53-.94-.76-4.21-3.53-5.15-5.41s-1.61-4.51-.63-6.49a3.71,3.71,0,0,1,4.91-1.86l.36.19c2.65,1.66,2.92,7.31,2.23,10,0,.17-.76,2.06-1.17,3.09.83-.68,1.65-1.37,2.51-2,2.48-1.92,5.05-3.78,7.6-5.65l2.33-1.73c-.33-.27-4.29-3.47-5.35-5.57-.93-1.87-1.61-4.51-.63-6.5a3.72,3.72,0,0,1,4.93-1.85c.11.06.23.11.34.18,2.65,1.67,2.92,7.32,2.23,10,0,.21-1.08,2.93-1.38,3.61,1.71-1.28,3.4-2.56,5-3.89a65.16,65.16,0,0,0,6.2-5.78c-.15-.12-4.3-3.44-5.38-5.6-.94-1.87-1.61-4.51-.63-6.49a3.7,3.7,0,0,1,4.89-1.86l.37.19c2.66,1.66,2.93,7.31,2.24,10,0,.17-.83,2.25-1.23,3.23l.16.09a47.24,47.24,0,0,0,5.09-6.84c.83-1.32,1.56-2.63,2.24-3.93-.84-.54-4.63-3-5.82-4.88s-2.09-4.3-1.34-6.38a3.71,3.71,0,0,1,4.69-2.36l.31.12c2.83,1.36,3.71,6.95,3.32,9.72,0,.15-.4,1.66-.69,2.76.29-.59.61-1.19.88-1.76,1-2.14,1.85-4.16,2.55-6,.4-1,.73-2,1-2.83-.55-1-2.69-4.85-2.9-7s.13-4.79,1.76-6.29a3.72,3.72,0,0,1,5.25.05l.26.3c1.88,2.51.09,7.87-1.53,10.16-.14.19-2.69,3-2.72,3V149c-.28.85-.58,1.76-.94,2.74-.66,1.81-1.44,3.86-2.42,6a65,65,0,0,1-3.53,6.84,48.65,48.65,0,0,1-5,7l-.07.08c.78-.49,3-1.76,3.19-1.84,2.58-1.1,8.2-1.73,10.26.64a3.73,3.73,0,0,1-.52,5.24,2.32,2.32,0,0,1-.3.22c-1.81,1.28-4.53,1-6.52.39-2.25-.71-6-4.14-6.35-4.41a63.45,63.45,0,0,1-6.27,6.11c-1.3,1.12-2.63,2.2-4,3.26.69-.39,1.31-.74,1.4-.78,2.57-1.1,8.19-1.73,10.25.64a3.71,3.71,0,0,1-.5,5.22,2.43,2.43,0,0,1-.32.24c-1.8,1.28-4.52,1-6.51.39s-5.32-3.49-6.18-4.26l-1.57,1.21c-2.52,1.93-5,3.84-7.45,5.79-.85.69-1.66,1.4-2.48,2.1.62-.35,1.13-.64,1.22-.67,2.57-1.11,8.19-1.73,10.25.63a3.7,3.7,0,0,1-.48,5.21l-.34.25c-1.81,1.28-4.52,1-6.51.4s-5-3.22-6-4.13c-.81.75-1.63,1.49-2.38,2.26-.51.53-1,1-1.5,1.57s-1,1.08-1.44,1.62c-.87,1.06-1.78,2.16-2.61,3.22-.58.73-1.12,1.44-1.66,2.15.83-.69,2.51-2,2.66-2.11,2.37-1.48,7.83-2.95,10.23-.93a3.72,3.72,0,0,1,0,5.53c-1.59,1.53-4.31,1.7-6.37,1.38-2.28-.36-6.4-3-6.91-3.38-.9,1.18-1.76,2.34-2.56,3.45-2.77,3.83-4.93,7.12-6.41,9.45l-.15.23-1.92-.93c.1-.15.2-.29.3-.45,1.55-2.32,3.81-5.6,6.69-9.41.91-1.2,1.9-2.47,2.93-3.77a40.8,40.8,0,0,1-3-3.68c-2.21.86-6.8.9-7.39.9-.09,1.48-.17,2.92-.23,4.28-.2,4.73-.18,8.67-.13,11.42v.33l-2.11-1c0-2.73.11-6.44.39-10.81.09-1.51.22-3.12.37-4.76-.59-.15-5.36-1.38-7.16-2.82-1.63-1.3-3.35-3.42-3.29-5.63a3.7,3.7,0,0,1,3.66-3.74l.42,0c3.11.4,5.71,5.42,6.23,8.17,0,.16.16,2,.22,3.1.07-.68.12-1.33.19-2,.14-1.37.32-2.74.51-4.21.11-.7.23-1.41.34-2.13s.3-1.46.45-2.2c.38-1.7.84-3.41,1.35-5.12-1.2-.13-5.45-.63-7.28-1.67s-3.83-2.88-4.1-5.07a3.69,3.69,0,0,1,3.05-4.25,3,3,0,0,1,.42-.05c3.13-.08,6.47,4.49,7.39,7.13.06.17.51,2.14.73,3.23.32-1,.62-2.06,1-3.08,1-3,2.13-5.94,3.23-8.91.34-.91.66-1.82,1-2.72-.43,0-5.5-.53-7.54-1.7-1.81-1-3.83-2.88-4.11-5.07a3.72,3.72,0,0,1,3.09-4.26l.38,0c3.14-.08,6.48,4.49,7.4,7.13.07.2.71,3,.84,3.77.72-2,1.43-4,2-6a64.66,64.66,0,0,0,2-8.24c-.2,0-5.5-.5-7.58-1.7-1.82-1-3.84-2.88-4.11-5.07a3.72,3.72,0,0,1,3.09-4.26l.38,0c3.13-.07,6.47,4.49,7.39,7.13.06.18.55,2.34.76,3.37h.18a48.44,48.44,0,0,0,.48-8.51,43.6,43.6,0,0,0-.3-4.52c-1,0-5.54,0-7.54-.86s-4.13-2.44-4.65-4.59a3.71,3.71,0,0,1,2.59-4.56,3,3,0,0,1,.41-.09c3.11-.42,6.93,3.75,8.14,6.28.06.14.58,1.61.93,2.68-.07-.65-.14-1.33-.23-1.95-.31-2.35-.75-4.49-1.15-6.37-.24-1.07-.47-2-.7-2.93-1-.5-4.92-2.56-6.27-4.23s-2.53-4.06-2-6.21a3.71,3.71,0,0,1,4.43-2.81A3.45,3.45,0,0,1,324.33,114.57Z"/><path class="cls-3" d="M380.72,163.63c-2.45-.1-7.35-2.61-7.35-2.62s2.63-2.72,2.82-2.87c2.19-1.75,7.45-3.83,10.06-2.1a3.72,3.72,0,0,1,.89,5.19,2.25,2.25,0,0,1-.24.3C385.5,163.21,382.81,163.71,380.72,163.63Z"/><g class="cls-6"><path class="cls-7" d="M330.11,140.41c-.06,0,.69-3.73.77-4,.86-2.66,4.1-7.3,7.23-7.29a3.71,3.71,0,0,1,3.6,3.82,2.56,2.56,0,0,1,0,.39c-.23,2.21-2.21,4.08-4,5.17C335.58,139.81,330.11,140.41,330.11,140.41Z"/><path class="cls-7" d="M380.72,163.63c-2.45-.1-7.35-2.61-7.35-2.62s2.63-2.72,2.82-2.87c2.19-1.75,7.45-3.83,10.06-2.1a3.72,3.72,0,0,1,.89,5.19,2.25,2.25,0,0,1-.24.3C385.5,163.21,382.81,163.71,380.72,163.63Z"/></g><path class="cls-4" d="M352.11,225s-14.87-35.85-23.19-34.29,14.25,57.14,14.25,57.14-26.16-49.35-44-49.35,6.54,54.55,29.13,72.73c0,0-35.67-38.44-56.48-30.13s41.62,47.27,41.62,47.27-36.27-11.43-32.11-2.6,15.46,10.39,15.46,10.39l-41,2.08h142.7l-32.11-3.12s33.3-16.62,24.38-23.37-28.54,7.79-28.54,7.79,33.89-37.4,27.35-51.43-35.68,25.46-35.68,25.46,23.79-50.39,19-59.22S352.11,225,352.11,225Z"/><path class="cls-8" d="M356.87,226.87c-13.09,38.65-13.09,66-13.09,66s15.46.59,31.52-11.3"/><path class="cls-8" d="M350.33,247.69a232.81,232.81,0,0,0-10.71-33.9"/><path class="cls-8" d="M311.68,225.09,345,274.44s22.6-19,30.33-29.73"/><path class="cls-8" d="M344.38,286.34S309.3,269.69,295,260.21"/></g><g id="freepik--Device--inject-38"><rect class="cls-9" x="198.13" y="20.21" width="122.68" height="278.02" rx="7.92"/><path class="cls-10" d="M316.71,68.88a1.63,1.63,0,0,1-1.63-1.63h0V45.4a1.64,1.64,0,0,1,3.27,0V67.21a1.63,1.63,0,0,1-1.61,1.67Z"/><path class="cls-10" d="M316.71,89.12a1.63,1.63,0,0,1-1.63-1.63h0V75.28a1.64,1.64,0,0,1,3.27,0V87.49A1.63,1.63,0,0,1,316.71,89.12Z"/><rect class="cls-11" x="188.88" y="20.21" width="122.68" height="278.02" rx="7.92"/><rect class="cls-12" x="197.05" y="38.72" width="106.34" height="238.46"/><line class="cls-13" x1="234.43" y1="31.1" x2="262.74" y2="31.1"/><path class="cls-7" d="M246.41,285.62c0,1.95-1.22,3.53-2.73,3.53s-2.72-1.58-2.72-3.53,1.22-3.54,2.72-3.54S246.41,283.66,246.41,285.62Z"/><ellipse class="cls-2" cx="250.22" cy="76.56" rx="18.44" ry="21.5"/><ellipse class="cls-11" cx="250.22" cy="68.12" rx="7" ry="8.17"/><path class="cls-11" d="M250.22,78.46c-7,0-12.73,5.37-12.73,12a11.24,11.24,0,0,0,.17,1.84A16.53,16.53,0,0,0,261,94.1a15.3,15.3,0,0,0,1.8-1.8,12.58,12.58,0,0,0,.16-1.84C262.94,83.83,257.24,78.46,250.22,78.46Z"/><path class="cls-10" d="M272.64,170.21H227.8a4.48,4.48,0,0,1-4.3-4.65V137.88c0-15.95,12-28.93,26.72-28.93s26.71,13,26.71,28.93v27.66a4.47,4.47,0,0,1-4.28,4.67Zm-40.55-9.3h36.25v-23c0-10.82-8.13-19.63-18.12-19.63s-18.13,8.81-18.13,19.63Z"/><rect class="cls-2" x="219.09" y="151.32" width="62.26" height="58.9"/><path class="cls-11" d="M259.29,191.87l-4.62-11.11a8.18,8.18,0,0,0,3.25-6.62c0-4.43-3.31-8-7.4-8s-7.39,3.58-7.39,8a8.17,8.17,0,0,0,3.24,6.62l-4.61,11.11Z"/><path class="cls-7" d="M231.25,263.15a.57.57,0,0,0,.33.11A.5.5,0,0,0,232,263l71.38-97.09V164.1l-72.22,98.29a.54.54,0,0,0,.08.76Z"/><path class="cls-7" d="M289,73.7a.54.54,0,0,0,.12.76h0a.54.54,0,0,0,.76-.12L303.39,56v-1.8Z"/><path class="cls-7" d="M197.05,200.67,285.17,80.84a.54.54,0,0,0-.12-.76.55.55,0,0,0-.76.12h0l-87.2,118.63Z"/><path class="cls-7" d="M223,275a.54.54,0,0,0,.44-.22l5-6.76a.53.53,0,0,0-.11-.75h0a.55.55,0,0,0-.76.12l-5,6.75a.54.54,0,0,0,.11.76h0A.46.46,0,0,0,223,275Z"/><path class="cls-7" d="M303.39,185.38l-58.6,79.71a.55.55,0,0,0,.12.76.55.55,0,0,0,.76-.12l57.72-78.52Z"/></g><g id="freepik--Character--inject-38"><path class="cls-11" d="M97.58,73.35a15.89,15.89,0,0,0,1.4-7c0-4.47-5.41-7.06-11.77-7.77S78,60.46,79,62.11a15.36,15.36,0,0,0,3.53,3.53s-6.36-3.53-10.6-.7,1.89,1.65.71,4.47-7.77,1.65-9.42,9.18S66.25,93.66,62,97,45,95.78,41.29,104s1.56,11.9-7.38,17.08-15.46,10.24-12.87,23,11.07,17.16,27.79,12.67,15.54-14.6,21-25,13.9-8.24,16.49-14.13-.71-13-.47-18.37,5.65-6.59,7.77-13S97.58,73.35,97.58,73.35Z"/><path class="cls-14" d="M23,143.81a6.29,6.29,0,0,0-.65,2.85"/><path class="cls-14" d="M88.54,68.68s-2.94-3.4,2.72-1.82c7.13,2-1.24,10.25-4.46,11.91-6.46,3.31-15,2.25-20,8.27-4.54,5.44,1.59,11.11-1.13,15.42s-13.61,1.81-17.23,7,6.57,16.33-3.86,22.45c-7.54,4.43-15.8,6.13-19.79,9.64"/><path class="cls-14" d="M71.63,88.8a8.21,8.21,0,0,0-.54,4.59c.9,3.85,6.12,11.11,1.36,15.19s-12.93,3.85-14.28,8.63,1.36,17.91-3.17,24S41.62,146.88,36.86,151s-4.08,6.35-4.08,6.35"/><path class="cls-14" d="M74,84.32c-.41.59-.79,1.19-1.14,1.81"/><path class="cls-15" d="M100.63,143.45l1.15,9s6,6,10.41,9.71,15.71,11.56,15.71,11.56l-5.73,1.63s-18.73-11.1-22.43-12-6.47-6.24-7.62-7.86S97.62,141.83,100.63,143.45Z"/><path class="cls-16" d="M112.07,289.88s5.66,4.78,8,6.38,5.07,2.32,4.64,3.19-1.6,1.74-7.11,1-7.1-2.61-8.12-2.9-3.48.44-5.36-.72,1.1-8.07,1.1-8.07A5.37,5.37,0,0,0,112.07,289.88Z"/><path class="cls-9" d="M124.69,299.45a.33.33,0,0,0,0-.14,25.62,25.62,0,0,1-9.46-.89c-3.56-.84-4.61-2.73-8-2.73a11.33,11.33,0,0,1-3.91-.64,2.06,2.06,0,0,0,.71,1.79c1.88,1.16,4.35.43,5.36.72s2.61,2.18,8.12,2.9S124.25,300.32,124.69,299.45Z"/><path class="cls-16" d="M82.44,96.61s1.09,7.34-.31,10.3-5.78,3.28-9.52,3.91-12.33,3.9-11.4,12.33S72.92,149.84,72.92,155s-3.28,7.8-6.87,17.79-3.12,28.57-2,40.59a126.91,126.91,0,0,0,4.68,23.41s-9,14.52-13,20.76-18,33.41-18,33.41,0,.93,2.18,1.56a13.47,13.47,0,0,0,4.69.31s26.84-32.31,31.84-37.77,9.68-15,10.3-19.36-.15-31.06-.15-31.06,5.61,13.42,10,20.29a145.61,145.61,0,0,1,7.32,13,79.19,79.19,0,0,0,0,17c1.09,7.8.17,32.86,1.26,34.89s5.32,1.18,6.26.25,1.38-7,1.38-7,1.87-19,3-27.94,3-16.55,2.35-18.58-4.53-23.73-7.5-34-12-29.5-14-34.49-3.13-9.53-2.81-11.09,6.4-10.92,8-13.42a12.32,12.32,0,0,0,.31-11.08c-1.87-4.06,0-9.53-.31-12.8S96.7,115,94.2,113.73s-3.44-4.06-3.44-6.4a18,18,0,0,1,1.41-5.72S84.47,96.61,82.44,96.61Z"/><path class="cls-8" d="M101.36,130a51.39,51.39,0,0,1-2-6.41"/><path class="cls-8" d="M81.09,147.38s2.82.62,8.47-2.2"/><path class="cls-11" d="M110.69,202.44C107.86,192.6,99.47,174.63,97,168.7c-12,4.5-23.22.66-28.49-1.82-.76,1.66-1.58,3.58-2.42,5.9-3.59,10-3.12,28.57-2,40.59a126.91,126.91,0,0,0,4.68,23.41s-9,14.52-13,20.76-18,33.41-18,33.41,0,.93,2.18,1.56a13.47,13.47,0,0,0,4.69.31s26.84-32.31,31.84-37.77,9.68-15,10.3-19.36-.15-31.06-.15-31.06,5.61,13.42,10,20.29a145.61,145.61,0,0,1,7.32,13,79.19,79.19,0,0,0,0,17c1.09,7.8.17,32.86,1.26,34.89s5.32,1.18,6.26.25,1.38-7,1.38-7,1.87-19,3-27.94,3-16.55,2.35-18.58S113.66,212.74,110.69,202.44Z"/><polygon class="cls-17" points="171.83 192.53 171.83 190.49 173.54 190.49 173.54 174.47 171.83 174.47 154.95 174.47 153.24 174.47 153.24 190.49 154.95 190.49 154.95 192.53 153.23 192.53 153.23 196.25 159.82 196.25 159.82 195 166.96 195 166.96 196.25 173.55 196.25 173.55 192.53 171.83 192.53"/><path class="cls-17" d="M62.73,169.68H180.49a1.78,1.78,0,0,1,1.78,1.78V175a1.78,1.78,0,0,1-1.78,1.78H62.73v-7.15Z"/><rect class="cls-18" x="139.09" y="168.61" width="9.15" height="9.29" rx="0.99"/><circle class="cls-19" cx="48.07" cy="173.26" r="18.59"/><path class="cls-9" d="M51.89,173.21a6.49,6.49,0,0,0,3.69-5.68c0-3.65-3.36-6.61-7.51-6.61s-7.51,3-7.51,6.61a6.49,6.49,0,0,0,3.69,5.68,6.53,6.53,0,0,0-3.69,5.69c0,3.65,3.36,6.61,7.51,6.61s7.51-3,7.51-6.61A6.53,6.53,0,0,0,51.89,173.21Z"/><path class="cls-9" d="M124.23,177s5.82,2.46,7.62,2.46,3.88-1.81,4.91-4,1-3.23.39-2.71l-1.29,1s1-2.19-.13-1.93a3.18,3.18,0,0,0-1.81,1.55s-.13-1.94-1.16-1a12.27,12.27,0,0,0-1.81,2.07s-.13-2.45-.78-1.81-3.09,4.13-3.09,4.13Z"/><path class="cls-9" d="M131,174.4s-.39,3.1-2.32,3.62"/><path class="cls-9" d="M133.92,173.37s-1,4.9-2.58,5.68"/><path class="cls-9" d="M135.86,173.75a27.5,27.5,0,0,1-2.07,5.17"/><path class="cls-15" d="M93.83,113.43a7.09,7.09,0,0,1-3.12-6.2,18,18,0,0,1,1.46-5.62s-7.65-5-9.68-5c0,0,1.09,7.34-.31,10.3A4.7,4.7,0,0,1,80.05,109a59.75,59.75,0,0,0,7.45,14C90.31,126.56,91.68,119.12,93.83,113.43Z"/><path class="cls-16" d="M70.22,111.83a12.49,12.49,0,0,0-9,6.59c-3.08,5.94-16.54,32.9-15.39,34.51,6.54,9.2,30.33,15.82,32.75,18.24A55,55,0,0,0,86.51,178c2.42,1.54,7.25.88,8.13.44s1.54-2.42,0-2.42a2.56,2.56,0,0,1-2.54-2c-.22-.88,2.42.88,3.74.22s-3-3.07-4.27-4.17-2.42-2.63-4.18-2.63H82.32s-8.1-5.87-13-10.24a74.58,74.58,0,0,0-12.41-9.06l14.85-24.43"/><path class="cls-15" d="M91.56,170.1c-1.32-1.1-2.42-2.63-4.18-2.63H82.31s-8.1-5.87-13-10.24a74.58,74.58,0,0,0-12.41-9.06l5.94-9.78a19.92,19.92,0,0,0-10.06-2.87c-4,8.34-7.59,16.58-7,17.45,6.54,9.2,30.33,15.82,32.75,18.24a55,55,0,0,0,7.93,6.85c2.42,1.54,7.25.88,8.13.44s1.54-2.42,0-2.42a2.56,2.56,0,0,1-2.54-2c-.22-.88,2.42.88,3.74.22S92.88,171.21,91.56,170.1Z"/><path class="cls-15" d="M99.61,85.84c-.78-1.56-.78-2.81-.47-5s-1.56-7.5-1.56-7.5h0c-1.91,3.3-7.43,5.26-9.87,6C85,80.16,89,82,88.53,84.51s-5.79,3.93-5.79,3.93S81.17,85.21,79,85.21s-3.73,5-2.49,7.65a3.53,3.53,0,0,0,3.91,2s-.15,4.69,2.81,6.09a54.93,54.93,0,0,0,9.84,3.59c1.87.31,3.74-.62,4.52-3.43a63.73,63.73,0,0,0,1.25-8.59,19.45,19.45,0,0,0,3.59-3C103.17,88.49,100.39,87.4,99.61,85.84Z"/><path class="cls-10" d="M96.57,85.91c0,.86-.28,1.55-.62,1.55s-.62-.69-.62-1.55.28-1.55.62-1.55S96.57,85.05,96.57,85.91Z"/><path class="cls-8" d="M93.88,83.33s1.66-1.87,2.9-1.45"/><path class="cls-8" d="M96.78,96.15a4.5,4.5,0,0,1-4.35-1"/><path class="cls-16" d="M37.8,291s-3.73,7.48-3.59,8.5,7.54,6.38,11,8.26,9.72,2.18,9.28-.43-6.38-4.35-7.83-8.27a62.89,62.89,0,0,1-2-6.19A12.77,12.77,0,0,1,37.8,291Z"/><path class="cls-9" d="M54.51,307.32a14.52,14.52,0,0,1-7.83-1.11c-5.37-2.33-10.57-7.09-12-8.44a5.66,5.66,0,0,0-.48,1.71c.15,1,7.54,6.38,11,8.26S54.87,309.88,54.51,307.32Z"/></g></svg>