<svg viewBox="0 0 303.09 514.61" xmlns="http://www.w3.org/2000/svg"><rect fill="#f0ebd6" height="366.54" rx="11.23" width="211.8" x="45.63" y="50.95"/><g stroke="#000" stroke-miterlimit="10" stroke-width=".75"><path d="m35 .38a34.63 34.63 0 0 0 -34.62 34.62v444.57a34.63 34.63 0 0 0 34.62 34.66h233a34.66 34.66 0 0 0 34.66-34.66v-444.57a34.66 34.66 0 0 0 -34.6-34.62zm116 492.69a21.81 21.81 0 1 1 21.81-21.81 21.8 21.8 0 0 1 -21.81 21.81zm105-83.74a9.54 9.54 0 0 1 -9.55 9.54h-189.77a9.53 9.53 0 0 1 -9.54-9.54v-342.22a9.54 9.54 0 0 1 9.54-9.55h189.69a9.54 9.54 0 0 1 9.55 9.55v342.22z" fill="#638a66"/><path d="m151.55 170.23c-39.43 0-71.44 24.9-71.44 55.59 0 26.43 23.71 48.47 55.44 54.14a49.2 49.2 0 0 0 48.45 30.26h.13a2.08 2.08 0 0 1 .25 0h-.13a4.49 4.49 0 0 0 1.85-8.5 4.69 4.69 0 0 0 -2.16-.45 4.36 4.36 0 0 1 1.91.33 27.57 27.57 0 0 1 -16.59-21.23 3.55 3.55 0 0 1 -.09-.72c30.92-6.09 53.8-27.86 53.8-53.81.03-30.72-31.97-55.61-71.42-55.61zm-43.12 65.07a10.78 10.78 0 1 1 10.77-10.78 10.78 10.78 0 0 1 -10.77 10.78zm73.64 74.44s0 0 0 0zm-30.53-74.44a10.78 10.78 0 1 1 10.78-10.78 10.78 10.78 0 0 1 -10.78 10.78zm43.11 0a10.78 10.78 0 1 1 10.78-10.78 10.78 10.78 0 0 1 -10.78 10.78z" fill="#d2977c"/></g></svg>