<svg viewBox="0 0 512 512" xmlns="http://www.w3.org/2000/svg"><path d="m437 75a256 256 0 0 0 -362 362 256 256 0 0 0 437-181 254.33 254.33 0 0 0 -75-181z" fill="#638a66"/><path d="m255.87 0a256 256 0 0 0 -180.87 437 254.6 254.6 0 0 0 180.89 75z" fill="#a2bda2"/><path d="m398.45 113.55a201.45 201.45 0 1 0 -284.9 284.9 201.45 201.45 0 1 0 284.9-284.9z" fill="#a2bda2"/><path d="m255.87 54.54a201.46 201.46 0 0 0 0 402.92z" fill="#638a66"/><path d="m225.38 368.77a39 39 0 0 1 -27.55-11.41l-68.09-68.1a39 39 0 0 1 55.09-55.09l40.55 40.55 101.94-101.94a39 39 0 1 1 55.09 55.09l-129.48 129.49a39 39 0 0 1 -27.55 11.41z" fill="#c0e1d9"/><path d="m255.87 244.23-30.49 30.49-40.55-40.55a39 39 0 0 0 -55.09 55.09l68.09 68.1a39 39 0 0 0 55.1 0l2.94-2.95z" fill="#f0ebd6"/></svg>