<svg id="Layer_1" data-name="Layer 1" xmlns="http://www.w3.org/2000/svg" viewBox="0 0 512 512"><defs><style>.cls-1{fill:#638a66;}.cls-2{fill:#a2bda2;}.cls-3{fill:#c0e1d9;}.cls-4{fill:#f0ebd6;}</style></defs><path class="cls-1" d="M437,75A256,256,0,0,0,75,437,256,256,0,0,0,512,256,254.33,254.33,0,0,0,437,75Z"/><path class="cls-2" d="M255.87,0A256,256,0,0,0,75,437a254.6,254.6,0,0,0,180.89,75Z"/><path class="cls-2" d="M398.45,113.55a201.45,201.45,0,1,0-284.9,284.9,201.45,201.45,0,1,0,284.9-284.9Z"/><path class="cls-1" d="M255.87,54.54a201.46,201.46,0,0,0,0,402.92Z"/><path class="cls-3" d="M225.38,368.77a39,39,0,0,1-27.55-11.41l-68.09-68.1a39,39,0,0,1,55.09-55.09l40.55,40.55L327.32,172.78a39,39,0,1,1,55.09,55.09L252.93,357.36A39,39,0,0,1,225.38,368.77Z"/><path class="cls-4" d="M255.87,244.23l-30.49,30.49-40.55-40.55a39,39,0,0,0-55.09,55.09l68.09,68.1a39,39,0,0,0,55.1,0l2.94-2.95V244.23Z"/></svg>