<svg fill="none" height="20" viewBox="0 0 20 20" width="20" xmlns="http://www.w3.org/2000/svg" xmlns:xlink="http://www.w3.org/1999/xlink"><clipPath id="a"><path d="m0 0h20v20h-20z"/></clipPath><g clip-path="url(#a)" fill="#878181" fill-opacity=".75"><path d="m18.6868 17.3909h-6.5229c-.7205 0-1.3045.584-1.3045 1.3045v.6523c0 .3602.292.6523.6522.6523h7.8275c.3602 0 .6522-.2921.6522-.6523v-.6523c.0001-.7205-.584-1.3045-1.3045-1.3045z"/><path d="m11.3844.382148c-.5096-.509609-1.3351-.509375-1.84471-.000234l-3.80543 3.805196c-.50961.50961-.50961 1.33559 0 1.84496.50961.50961 1.335.50949 1.84472.00023l3.80542-3.80519c.5096-.50961.5096-1.335587 0-1.844962z"/><path d="m18.7634 7.76108c-.5096-.50918-1.3352-.50938-1.8447.00023l-3.805 3.80519c-.5097.5094-.5097 1.3354 0 1.845.5097.5093 1.3351.5093 1.8447-.0003l3.805-3.80516c.5096-.50941.5096-1.33535 0-1.84496z"/><path d="m12.2492 3.20715-3.68987 3.68961 3.68947 3.68954 3.6897-3.68993z"/><path d="m8.09802 8.28052-7.518713 7.51868c-.761016.761-.761016 2.0047 0 2.7657l.004336.0043c.786757.7778 2.023127.7423 2.761327-.0043l7.52053-7.5168z"/></g></svg>