<svg height="256" viewBox="0 0 256 256" width="256" xmlns="http://www.w3.org/2000/svg"><g fill="none" stroke-miterlimit="10" stroke-width="0" transform="matrix(2.81 0 0 2.81 1.406593 1.406593)"><circle cx="45" cy="45" fill="#28c937" r="45"/><path d="m38.478 64.5c-.01 0-.02 0-.029 0-1.3-.009-2.533-.579-3.381-1.563l-13.478-15.653c-1.622-1.883-1.41-4.725.474-6.347 1.884-1.621 4.725-1.409 6.347.474l10.112 11.744 23.106-26.135c1.645-1.862 4.489-2.037 6.352-.391 1.862 1.646 2.037 4.49.391 6.352l-26.521 30c-.856.966-2.084 1.519-3.373 1.519z" fill="#fff"/></g></svg>