<svg fill="none" height="56" viewBox="0 0 56 56" width="56" xmlns="http://www.w3.org/2000/svg"><path d="m49.1597 8.99121h-42.31942c-3.77156 0-6.84028 3.06869-6.84028 6.84029v24.337c0 3.7716 3.06872 6.8403 6.84028 6.8403h42.31942c3.7716 0 6.8403-3.0687 6.8403-6.8403v-24.3363c.0007-3.7723-3.068-6.84099-6.8403-6.84099zm-3.3424 4.46249-17.8173 11.4791-17.8173-11.4791zm3.3424 29.0933h-42.31942c-1.31123 0-2.37777-1.0673-2.37777-2.3777v-24.2106l22.16079 14.2502c.0298.0186.0617.0313.0922.0484.032.0178.0647.0349.0975.0513.1718.0885.3488.1599.5295.2068.0186.0052.0372.0074.0558.0119.1986.0468.3994.0758.6002.0758h.0015.003c.2008 0 .4016-.0282.6002-.0758.0186-.0045.0372-.0067.0558-.0119.1807-.0469.357-.1183.5295-.2068.0327-.0164.0655-.0335.0974-.0513.0305-.0171.0625-.0298.0923-.0484l22.1608-14.2502v24.2098c-.0008 1.3112-1.068 2.3785-2.3793 2.3785z" fill="#000"/></svg>