<svg fill="none" height="42" viewBox="0 0 46 42" width="46" xmlns="http://www.w3.org/2000/svg"><path d="m45.288 37.3686-9.9502-2.0176-18.8238 6.0506-15.59774-4.033v-34.68997l15.05984 4.03299 19.3617-6.050487 9.9502 2.017497z" fill="#85c88e"/><path d="m43.5304 35.2673-9.1613-1.857v-30.73159l9.1613 1.85714z" fill="#71c176"/><path d="m34.3692 33.4103-17.3329 5.571-.496-30.73146 17.8289-5.57113z" fill="#57ba68"/><path d="m17.0363 38.9811-14.36223-3.714v-30.73146l13.86623 3.71399z" fill="#6cc077"/><path d="m14.9673 38.427-12.29323-3.3356v-12.1311s4.529-3.0044 9.82203-3.2201c5.2931-.2158 12.6068.5722 11.8497 6.0816-.7558 5.5084-9.3785 12.6052-9.3785 12.6052z" fill="#f0ebd6"/><path d="m13.7132 38.0747-11.03913-2.8556v-11.2195s4.33361-2.8744 9.39743-3.0806c5.0647-.2067 11.3687-.1036 10.645 5.1674s-9.0033 11.9883-9.0033 11.9883z" fill="#67b8cb"/><path d="m16.8508 20.9653c3.5547.2895 6.3732 1.4238 5.8659 5.1212-.4172 3.042-3.2728 6.5659-5.6801 9.0023z" fill="#5fadb5"/><path d="m35.9296 23.1016c-1.7459-12.5494 6.13-16.82023 7.6009-17.50301v-1.06295l-.4499-.0913c-1.8693.96374-8.8299 5.26878-8.5953 15.77486-.7382-1.3663-1.6976-2.9318-3.108-4.7363-6.7387-8.62799-26.76139-.0219-28.70323.8407v1.3969c2.79447-1.2079 21.83673-9.06186 27.75023-1.4919 2.1782 2.7859 3.2046 4.9043 4.1102 6.7726 1.5762 3.2519 3.1226 5.9351 8.9959 8.9169v-1.486c-5.0153-2.5711-6.2334-4.5473-7.6008-7.3305z" fill="#fff"/><path d="m43.5305 5.59859v-1.06295l-.45-.0913c-1.8693.96374-8.8298 5.26878-8.5953 15.77486-.7382-1.3663-1.6976-2.9318-3.108-4.7363-3.1176-3.991-9.0773-4.2928-14.7747-3.3806l.021 1.3508c5.4696-.9283 11.0519-.7414 13.8002 2.7756 2.1781 2.7859 3.2046 4.9043 4.1102 6.7727 1.5762 3.2518 3.1225 5.935 8.9958 8.9168v-1.4861c-5.0154-2.5711-6.2336-4.5478-7.6009-7.3305-1.7452-12.5494 6.1307-16.82008 7.6017-17.50301z" fill="#dddddc"/><path d="m2.67407 16.3235v1.3969c1.49622-.6459 7.64823-3.197 13.95003-4.2676l-.0209-1.3507c-6.61973 1.0587-12.88499 3.7582-13.92913 4.2214z" fill="#f0ebd6"/><path d="m43.0805 4.44434c-1.8693.96374-8.8299 5.26878-8.5953 15.77486-.0376-.0692-.0778-.1407-.1165-.211v2.6516c.0558.1144.1101.2277.1659.341 1.5762 3.2518 3.1225 5.935 8.9958 8.9169v-1.4861c-5.0153-2.5711-6.2336-4.5478-7.6009-7.3305-1.7459-12.5487 6.13-16.81958 7.6009-17.50251v-1.06295z" fill="#f0ebd6"/><path d="m27.5167 13.1841c-2.5555 0-4.6273 2.0717-4.6273 4.6273 0 3.3662 4.3675 7.8663 4.7604 7.8663.392 0 4.4941-4.8968 4.4941-7.8663.0002-2.555-2.0706-4.6273-4.6272-4.6273zm-.0219 6.1739c-1.0024 0-1.8152-.7907-1.8152-1.7668s.8128-1.768 1.8152-1.768c1.0033 0 1.8162.7919 1.8162 1.768s-.8129 1.7668-1.8162 1.7668z" fill="#c30"/><path d="m27.65 25.9468c-.5885 0-5.0289-4.6842-5.0289-8.1346 0-2.6999 2.1968-4.8957 4.8957-4.8957 2.6998 0 4.8956 2.1958 4.8956 4.8957.0002 2.8625-4.0328 8.1346-4.7624 8.1346zm-.1332-12.4941c-2.4036 0-4.3589 1.9558-4.3589 4.3589 0 3.042 3.7602 7.0936 4.4839 7.5698.6598-.5095 4.2343-4.857 4.2343-7.5698-.0005-2.4031-1.9547-4.3589-4.3593-4.3589zm-.022 6.174c-1.1495 0-2.0836-.9132-2.0836-2.0353 0-1.1231.9342-2.0363 2.0836-2.0363s2.0847.9132 2.0847 2.0363c0 1.1221-.9353 2.0353-2.0847 2.0353zm0-3.5347c-.8525 0-1.5468.6722-1.5468 1.4995 0 .8262.6942 1.4984 1.5468 1.4984.8536 0 1.5477-.6722 1.5477-1.4984 0-.8273-.6941-1.4995-1.5477-1.4995z" fill="#e4b422"/></svg>