<svg fill="none" height="56" viewBox="0 0 56 56" width="56" xmlns="http://www.w3.org/2000/svg"><g fill="#000"><path d="m25.0868 2.5491c.0912 0 .1652-.07395.1652-.16517 0-.09123-.074-.16518-.1652-.16518s-.1652.07395-.1652.16518c0 .09122.074.16517.1652.16517z"/><path d="m25.5697 2.5491c.0912 0 .1652-.07395.1652-.16517 0-.09123-.074-.16518-.1652-.16518s-.1652.07395-.1652.16518c0 .09122.074.16517.1652.16517z"/><path d="m26.0516 2.5491c.0913 0 .1652-.07395.1652-.16517 0-.09123-.0739-.16518-.1652-.16518-.0912 0-.1651.07395-.1651.16518 0 .09122.0739.16517.1651.16517z"/><path d="m26.5336 2.5491c.0912 0 .1652-.07395.1652-.16517 0-.09123-.074-.16518-.1652-.16518s-.1652.07395-.1652.16518c0 .09122.074.16517.1652.16517z"/><path d="m27.0163 2.5491c.0912 0 .1651-.07395.1651-.16517 0-.09123-.0739-.16518-.1651-.16518-.0913 0-.1652.07395-.1652.16518 0 .09122.0739.16517.1652.16517z"/><path d="m27.4992 2.5491c.0912 0 .1651-.07395.1651-.16517 0-.09123-.0739-.16518-.1651-.16518-.0913 0-.1652.07395-.1652.16518 0 .09122.0739.16517.1652.16517z"/><path d="m27.9811 2.5491c.0912 0 .1652-.07395.1652-.16517 0-.09123-.074-.16518-.1652-.16518s-.1652.07395-.1652.16518c0 .09122.074.16517.1652.16517z"/><path d="m28.463 2.5491c.0912 0 .1652-.07395.1652-.16517 0-.09123-.074-.16518-.1652-.16518s-.1651.07395-.1651.16518c0 .09122.0739.16517.1651.16517z"/><path d="m28.945 2.5491c.0912 0 .1651-.07395.1651-.16517 0-.09123-.0739-.16518-.1651-.16518-.0913 0-.1652.07395-.1652.16518 0 .09122.0739.16517.1652.16517z"/><path d="m29.4298 2.5491c.0912 0 .1652-.07395.1652-.16517 0-.09123-.074-.16518-.1652-.16518s-.1652.07395-.1652.16518c0 .09122.074.16517.1652.16517z"/><path d="m29.9118 2.5491c.0912 0 .1651-.07395.1651-.16517 0-.09123-.0739-.16518-.1651-.16518-.0913 0-.1652.07395-.1652.16518 0 .09122.0739.16517.1652.16517z"/><path d="m30.3937 2.5491c.0912 0 .1652-.07395.1652-.16517 0-.09123-.074-.16518-.1652-.16518s-.1652.07395-.1652.16518c0 .09122.074.16517.1652.16517z"/><path d="m30.8756 2.5491c.0912 0 .1652-.07395.1652-.16517 0-.09123-.074-.16518-.1652-.16518s-.1652.07395-.1652.16518c0 .09122.074.16517.1652.16517z"/><path d="m31.3585 2.5491c.0913 0 .1652-.07395.1652-.16517 0-.09123-.0739-.16518-.1652-.16518-.0912 0-.1651.07395-.1651.16518 0 .09122.0739.16517.1651.16517z"/><path d="m40.4115 0h-24.8222c-2.0064 0-3.632 1.62573-3.632 3.632v48.7359c0 2.0063 1.6257 3.632 3.632 3.632h24.8212c2.0064 0 3.632-1.6258 3.632-3.632v-48.7359c.0011-2.00627-1.6247-3.632-3.631-3.632zm-2.5394 2.15684c.2213 0 .4012.17999.4012.40121 0 .22226-.1809.40122-.4012.40122-.2222 0-.4012-.17999-.4012-.40122-.001-.22122.179-.40121.4012-.40121zm-14.1681-.34629h8.9704c.3177 0 .5733.25671.5733.57235 0 .31667-.2556.57236-.5733.57236h-8.9704c-.3177 0-.5734-.25671-.5734-.57236.0011-.31554.2557-.57235.5734-.57235zm-3.6595 51.80055h-.8832c-.059 0-.1062-.0482-.1062-.1072 0-.0579.0472-.1072.1062-.1072h.8832c.0599 0 .1071.0493.1071.1072-.001.059-.0482.1072-.1071.1072zm0-.4308h-.8832c-.059 0-.1062-.0472-.1062-.1062s.0472-.1072.1062-.1072h.8832c.0599 0 .1071.0482.1071.1072-.001.059-.0482.1062-.1071.1062zm.7435.2803c0 .1269-.1024.2301-.2292.2301-.1269 0-.2302-.1032-.2302-.2301v-.7582h-1.4526v.7582c0 .1269-.1022.2301-.2291.2301s-.2301-.1032-.2301-.2301v-.9875c0-.1268.1032-.2301.2301-.2301h1.9119c.1268 0 .2292.1033.2292.2301zm10.0876-.0708c0 .5015-.4071.9077-.9087.9077h-3.9723c-.5027 0-.9088-.4062-.9088-.9077v-.7947c0-.5016.4061-.9077.9088-.9077h3.9723c.5016 0 .9087.4061.9087.9077zm5.9295.3442h-.721c-.1268 0-.2291-.1032-.2291-.2301 0-.1268.1022-.2292.2291-.2292h.721c.1554 0 .2812-.121.2812-.2694 0-.1486-.1259-.2685-.2812-.2685h-.6079c-.0226.0315-.0511.0472-.1022.0511-.0127.0068-.0344-.0029-.0501-.0098l-.3748-.1584c-.0452-.0197-.0757-.0639-.0757-.1132 0-.0491.0296-.0944.0748-.1131l.3748-.1583c.0451-.0196.0993-.0088.1347.0266.005.0049.0099.0098.0138.0157h.6128c.4082 0 .7395.3275.7395.7288-.0002.4013-.3315.7278-.7397.7278zm4.8161-3.1825h-27.5456v-44.95149h27.5456z"/></g></svg>