<svg fill="none" height="26" viewBox="0 0 26 26" width="26" xmlns="http://www.w3.org/2000/svg"><path d="m25.2383 13.8633-8.5313 8.5312c-.7617.7617-2.082.2285-2.082-.8633v-4.875h-6.90625c-.67539 0-1.21875-.5433-1.21875-1.2187v-4.875c0-.67541.54336-1.21877 1.21875-1.21877h6.90625v-4.875c0-1.08672 1.3152-1.625 2.082-.86328l8.5313 8.53125c.4722.4773.4722 1.2492 0 1.7266zm-15.4883 8.2773v-2.0312c0-.3352-.27422-.6094-.60938-.6094h-4.26562c-.89883 0-1.625-.7262-1.625-1.625v-9.75002c0-.89883.72617-1.625 1.625-1.625h4.26562c.33516 0 .60938-.27422.60938-.60937v-2.03125c0-.33516-.27422-.60938-.60938-.60938h-4.26562c-2.69141 0-4.875 2.1836-4.875 4.875v9.75002c0 2.6914 2.18359 4.875 4.875 4.875h4.26562c.33516 0 .60938-.2742.60938-.6094z" fill="#666"/></svg>