<svg fill="none" height="21" viewBox="0 0 25 21" width="25" xmlns="http://www.w3.org/2000/svg"><path clip-rule="evenodd" d="m10.9681 1.13899c.9903-.355731 2.0735-.355731 3.0638 0 .6288.22589 1.1543.63067 1.6871 1.15355.5201.51046 1.1101 1.19879 1.8454 2.05666v.00006l.0001.00003.0273.03187 2.8462 3.32069c.3258.38002.2818.95217-.0982 1.27781-.38.32577-.9522.28179-1.2778-.09824l-2.8464-3.3207c-.769-.89713-1.3086-1.52545-1.7662-1.97466-.4514-.44312-.7564-.64293-1.0302-.74129l-.013-.00459v12.70142c0 .5005-.4057.9063-.9062.9063s-.9062-.4058-.9062-.9063v-12.70142l-.013.00459c-.2738.09836-.5788.29817-1.0302.74129-.4576.44921-.99724 1.07753-1.76621 1.97466l-2.84632 3.3207c-.32571.38003-.89784.42401-1.27785.09824-.38002-.32564-.42402-.89779-.09829-1.27781l2.84631-3.32069.02731-.03187c.73534-.8579 1.32535-1.54627 1.84544-2.05675.53272-.52288 1.05831-.92766 1.68711-1.15355zm-8.43685 11.98601c0-.5005-.40575-.9063-.90625-.9063s-.90625.4058-.90625.9063v.2416.0388c-.000012.9822-.000012 1.7745.052394 2.416.053976.6604.167994 1.2406.441486 1.7774.43442.8526 1.12762 1.5457 1.98023 1.9802.53676.2735 1.11694.3876 1.77745.4414.64151.0525 1.4337.0525 2.41587.0525h.00003.03879 10.15.0388c.9822 0 1.7744 0 2.4159-.0525.6605-.0538 1.2406-.1679 1.7775-.4414.8526-.4345 1.5457-1.1276 1.9802-1.9802.2735-.5368.3875-1.117.4414-1.7774.0525-.6415.0524-1.4337.0524-2.416v-.0388-.2416c0-.5005-.4057-.9063-.9062-.9063s-.9062.4058-.9062.9063v.2416c0 1.0301-.0008 1.7481-.0465 2.3071-.0448.5485-.1283.8636-.2498 1.1022-.2608.5115-.6767.9274-1.1882 1.1882-.2386.1216-.5538.2051-1.1022.2499-.559.0457-1.277.0464-2.3071.0464h-10.15c-1.03004 0-1.74808-.0007-2.30709-.0464-.54843-.0448-.86353-.1283-1.1022-.2499-.51156-.2608-.92748-.6767-1.18813-1.1882-.1216-.2386-.20514-.5537-.24995-1.1022-.04568-.559-.04638-1.277-.04638-2.3071z" fill="#000" fill-rule="evenodd"/></svg>