<svg fill="none" height="40" viewBox="0 0 40 40" width="40" xmlns="http://www.w3.org/2000/svg" xmlns:xlink="http://www.w3.org/1999/xlink"><linearGradient id="a" gradientUnits="userSpaceOnUse" x1="19.9998" x2="19.9998" y1=".038208" y2="40.04"><stop offset="0" stop-color="#61fd7d"/><stop offset="1" stop-color="#2bb826"/></linearGradient><clipPath id="b"><path d="m0 0h40v40h-40z"/></clipPath><g clip-path="url(#b)"><path d="m39.9975 29.8888c0 .219-.0067.694-.0198 1.0609-.0322.8977-.1034 2.0562-.211 2.584-.1618.7932-.406 1.5419-.7243 2.1651-.3767.7371-.8572 1.3974-1.4281 1.9673-.5697.5687-1.2294 1.0473-1.9654 1.4225-.6264.3192-1.3798.5635-2.1775.7246-.5226.1055-1.6724.1753-2.5644.207-.3673.0131-.8424.0197-1.0606.0197l-19.6963-.0031c-.21901 0-.69393-.0068-1.06084-.0199-.89778-.0322-2.05621-.1034-2.58406-.211-.79321-.1618-1.54192-.4059-2.16504-.7243-.73719-.3767-1.39746-.8571-1.96735-1.4281-.56875-.5697-1.04734-1.2293-1.422458-1.9654-.319297-.6264-.563594-1.3798-.724649-2.1775-.105469-.5225-.1752733-1.6723-.2070311-2.5644-.0130469-.3672-.01964846-.8423-.01964846-1.0605l.003125-19.6964c0-.21898.00667968-.69394.01984376-1.06086.0322266-.89777.1033598-2.05621.2109768-2.58402.161758-.7932.405898-1.54192.724297-2.16508.376684-.73715.857184-1.39746 1.428084-1.96734.56969-.56871 1.22938-1.04735 1.96543-1.422503.62645-.319219 1.37985-.563516 2.17754-.72457.52254-.105508 1.67234-.1753127 2.56438-.2070315.36726-.0130859.84238-.0196875 1.0605-.0196875l19.6964.0031641c.219 0 .694.0066797 1.0609.0198437.8977.0322266 2.0561.1033592 2.584.2109762.7932.161758 1.5419.405899 2.1651.724297.7371.376681 1.3974.857191 1.9673 1.428091.5687.56968 1.0473 1.22933 1.4224 1.96543.3193.62644.5636 1.3798.7247 2.1775.1055.52257.1752 1.67234.207 2.56441.0131.36726.0197.84234.0197 1.06058z" fill="url(#a)"/><path d="m30.5979 9.50178c-2.7082-2.71043-6.3097-4.20387-10.147-4.20539-7.9063 0-14.34113 6.43231-14.3443 14.33871-.00101 2.5273.65949 4.9943 1.91473 7.1689l-2.035 7.4308 7.60407-1.994c2.0952 1.1423 4.454 1.7443 6.8548 1.7454h.0059c7.9055 0 14.3409-6.4332 14.3441-14.3397.0016-3.8315-1.4891-7.4343-4.1973-10.14472zm-10.1468 22.06252h-.0049c-2.1393-.0008-4.2376-.5753-6.0681-1.6613l-.4354-.2583-4.51239 1.1834 1.20449-4.3982-.2836-.4509c-1.19343-1.8976-1.82374-4.091-1.8228-6.3429.00258-6.5715 5.351-11.91784 11.9273-11.91784 3.1844.00121 6.1779 1.24262 8.4289 3.49544 2.2509 2.2527 3.4899 5.2473 3.4887 8.4319-.0026 6.572-5.3509 11.9187-11.9222 11.9187zm6.5396-8.9264c-.3584-.1793-2.1205-1.0461-2.4491-1.1657-.3285-.1196-.5674-.1794-.8064.1794-.2389.3587-.9257 1.1657-1.1349 1.4048-.209.2392-.4181.2691-.7765.0897-.3584-.1793-1.5133-.5577-2.8823-1.7783-1.0654-.95-1.7848-2.1234-1.9938-2.4822-.2091-.3587-.0223-.5526.1571-.7312.1613-.1606.3584-.4185.5377-.6277.1791-.2092.2389-.3588.3584-.5979s.0597-.4484-.0299-.6277-.8064-1.9429-1.1051-2.6603c-.2909-.6987-.5864-.6041-.8064-.6151-.2089-.0104-.4481-.0126-.687-.0126s-.6272.0897-.9557.4484-1.2544 1.2255-1.2544 2.9891c0 1.7635 1.2842 3.4673 1.4635 3.7064.1792.2392 2.5273 3.8583 6.1227 5.4102.8551.3692 1.5227.5897 2.0432.7548.8586.2726 1.64.2342 2.2576.142.6886-.1029 2.1204-.8668 2.4192-1.7037.2987-.837.2987-1.5544.2091-1.7038-.0897-.1495-.3286-.2392-.687-.4186z" fill="#fff"/></g></svg>