<svg fill="none" height="296" viewBox="0 0 284 296" width="284" xmlns="http://www.w3.org/2000/svg"><path d="m247.091 225.942h-31.211l-5.796 14.713h-21.302l32.607-75.733h20.56l32.66 75.733h-21.715zm-6.117-15.794-9.489-24.235-9.488 24.235z" fill="#f1cbb5"/><path d="m102.608 143.006c0 10.844-9.1682 17.213-26.4631 17.213h-34.7235v-62.7392h32.8938c16.9077 0 25.1745 6.7212 25.1745 16.3992 0 6.005-3.1251 10.845-8.6341 13.619 7.2586 2.514 11.7524 7.887 11.7524 15.508zm-43.1838-32.715v12.101h12.4938c6.0632 0 9.1883-2.058 9.1883-6.096s-3.1251-6.005-9.1883-6.005zm24.8072 30.741c0-4.298-3.3388-6.363-9.5556-6.363h-15.2516v12.726h15.2516c6.2435 0 9.5556-2.058 9.5556-6.363z" fill="#f1cbb5"/><path d="m12.8612 289.43s-12.8276992-64.823-12.86108715-78.155c-.04674315-18.458 14.44358715-25.805 14.44358715-25.805l-5.62249-15.631h30.93729l-4.868 15.52s16.3 8.428 14.023 27.57c-4.2203 35.789-11.0247 76.501-11.0247 76.501z" fill="#f1cbb5"/><path d="m42.3897 192.817c-.1153.013-.2319.013-.3472 0-.3346-.038-.6716-.053-1.0083-.046-1.2954.021-2.5735.293-3.7595.801-1.8687.822-3.5183 2.052-4.8212 3.595-.8232.953-1.5647 1.971-2.217 3.042-.7466 1.193-1.3963 2.44-1.9432 3.732-.6182 1.413-.9253 2.938-.9015 4.474.0465 1.651.6953 3.23 1.8297 4.455.5976.625 1.3529 1.085 2.1902 1.335.8749.256 1.8104.233 2.6711-.065.8833-.332 1.677-.857 2.3205-1.534s1.1197-1.489 1.3922-2.373c.2613-.938.2796-1.924.0535-2.869-.2261-.946-.6896-1.822-1.3489-2.55-1.3669-1.579-3.2567-2.641-5.3421-3.003-2.1642-.32-4.3769-.063-6.4038.743-3.1102 1.236-5.8703 3.182-8.0481 5.676-2.1777 2.493-3.7093 5.461-4.4657 8.652-.4325 2.02-.3891 4.109.1269 6.109.4321 1.936 1.5043 3.68 3.0516 4.963.7359.592 1.6217.979 2.5642 1.121.924.148 1.8719-.032 2.671-.508 1.0636-.761 1.8289-1.853 2.169-3.095.34-1.243.2345-2.561-.2992-3.738-.3522-.721-.8495-1.365-1.4624-1.895-1.1905-.991-2.6358-1.646-4.1802-1.895-2.676-.445-5.4275.015-7.79942 1.302-1.80576.946-3.37644 2.266-4.60086 3.869-.78764 1.003-1.41572 2.117-1.86305 3.302-.30717.814-.41401 1.264-.44072 1.257.08411-.442.20242-.877.35391-1.302.41952-1.212 1.03006-2.352 1.80963-3.381 1.22092-1.642 2.79883-3.001 4.62089-3.979 2.42822-1.347 5.25572-1.843 8.01312-1.407 1.6037.256 3.1061.931 4.3471 1.954.6542.558 1.1876 1.238 1.5692 2 .5771 1.257.693 2.669.3282 4s-1.188 2.499-2.3314 3.307c-.8679.515-1.8938.716-2.8981.567-1.0203-.15-1.9777-.574-2.7645-1.225-1.6226-1.322-2.7499-3.131-3.2053-5.145-.5359-2.059-.5861-4.21-.1469-6.291.9547-4.355 3.3587-8.28 6.8379-11.164 1.7434-1.481 3.7329-2.661 5.8829-3.491 2.098-.838 4.39-1.103 6.6309-.768 2.177.388 4.1468 1.505 5.5691 3.159.6787.808 1.1707 1.75 1.4423 2.761.2622.998.2321 2.047-.0868 3.029-.2931.947-.8074 1.816-1.5026 2.537-.6951.721-1.5522 1.274-2.5039 1.618-.9271.311-1.9304.334-2.8714.065-.9013-.273-1.7123-.774-2.3505-1.452-1.1606-1.288-1.816-2.936-1.8497-4.651-.0058-1.567.3193-3.119.9549-4.559.566-1.302 1.2358-2.558 2.0033-3.758.6645-1.08 1.4242-2.102 2.2704-3.054 1.333-1.562 3.0263-2.794 4.9414-3.595 1.2106-.498 2.5127-.748 3.8262-.736.4433-.013.8867.022 1.3222.104z" fill="#000"/><path d="m43.1906 241.781c.0747 1.109-.0221 2.222-.2871 3.303-.2734 1.271-.7226 2.5-1.3356 3.653-.809 1.545-1.9101 2.926-3.2453 4.071-1.616 1.397-3.5539 2.394-5.6492 2.905-2.4135.61-4.9511.574-7.3454-.105-2.6506-.783-4.9699-2.382-6.6108-4.559-1.8157-2.303-2.7169-5.169-2.5375-8.069.0733-1.491.7165-2.902 1.803-3.954.5755-.475 1.2653-.799 2.0047-.943.7394-.143 1.5041-.101 2.2222.123.6942.189 1.342.513 1.9043.953.5624.44 1.0276.987 1.3677 1.606.5993 1.216.7502 2.596.4274 3.908-.2842 1.236-.8968 2.377-1.7763 3.309-.8296.865-1.841 1.544-2.9648 1.993-2.0097.8-4.2 1.069-6.3504.781-3.1039-.372-6.01316-1.673-8.32696-3.725-.85802-.728-1.59666-1.581-2.19025-2.527.05501.051.10633.105.15359.163l.40065.495c.54623.618 1.14003 1.195 1.77624 1.726 2.32407 1.964 5.19933 3.203 8.25353 3.556 2.0959.255 4.2238-.023 6.1768-.808 1.0734-.448 2.0364-1.114 2.8246-1.954.8261-.886 1.3994-1.969 1.6627-3.139.2922-1.221.1485-2.503-.4073-3.634-.3134-.568-.742-1.068-1.2598-1.468-.5178-.401-1.1138-.695-1.7518-.864-.6468-.204-1.3362-.244-2.0032-.116-.667.127-1.2898.418-1.8097.845-1.0161.981-1.6148 2.3-1.6761 3.693-.1718 2.783.6859 5.533 2.4173 7.751 1.584 2.102 3.8202 3.65 6.3771 4.416 2.3214.669 4.785.717 7.1316.136 2.0506-.477 3.9523-1.431 5.5424-2.781 1.3188-1.111 2.4147-2.452 3.232-3.953.6285-1.129 1.1022-2.333 1.409-3.582.1923-.793.3218-1.598.3873-2.41-.0088-.218.0046-.436.04-.651-.0003-.048.0042-.096.0134-.144z" fill="#e0e0e0"/><path d="m37.4213 272.334c-.04.084-1.3822-.651-3.7261-1.303-.636-.188-1.2826-.34-1.9365-.456-.6677-.156-1.4624-.228-2.257-.332-1.7366-.163-3.4853-.163-5.2219 0-1.7319.208-3.44.574-5.1017 1.094-.7545.274-1.4824.508-2.1301.814-.6477.307-1.202.541-1.7829.854-2.1369 1.152-3.2921 2.129-3.3388 2.058.2364-.261.5005-.497.7879-.704.315-.269.6497-.515 1.0017-.736.454-.319.9215-.612 1.4023-.885.5765-.34 1.1742-.645 1.7896-.912.7008-.331 1.4185-.626 2.1501-.886 3.367-1.143 6.9548-1.533 10.4972-1.14.808.118 1.5826.202 2.2904.378.6602.132 1.3113.304 1.9499.515.5334.155 1.0573.34 1.5692.553.3897.15.7708.319 1.1419.508.3269.158.6339.353.9148.58z" fill="#000"/><path d="m35.2646 186.271c-.3187.265-.6631.498-1.0283.697-.6678.437-1.6761 1.01-2.9449 1.667-6.6759 3.42-14.0477 5.349-21.58194 5.647-1.44236.052-2.60426.046-3.40557 0-.41871.005-.83687-.03-1.24871-.104.41335-.058.8315-.078 1.24871-.059.80131 0 1.95653-.045 3.38553-.136 7.45898-.462 14.74848-2.371 21.44178-5.615 1.2821-.651 2.3104-1.146 3.0049-1.537.3567-.222.7346-.409 1.1285-.56z" fill="#000"/><path d="m39.1574 170.555c0 .046-.7612-.065-2.1301-.065-3.2706.016-6.4774.884-9.2885 2.514-.6366.372-1.2478.783-1.8297 1.231-.6196.456-1.1782.985-1.6627 1.576-.5121.605-.863 1.323-1.0217 2.091-.0707.386-.0425.783.0821 1.156.1247.372.3419.709.6324.98.6554.556 1.4427.943 2.2904 1.127.8383.3 1.7376.403 2.6243.3.4023-.122.755-.365 1.008-.693.2529-.329.3933-.727.401-1.137.0633-.842-.1172-1.684-.5209-2.43-.7532-1.457-1.9622-2.644-3.4523-3.387-1.337-.697-2.8188-1.089-4.3337-1.146-1.3252-.02-2.6448.171-3.9064.567-1.8347.591-3.558 1.471-5.1017 2.605-.5476.397-.9616.723-1.242.951-.1353.123-.2829.232-.4408.326.1127-.143.2403-.274.3807-.391.2604-.248.6677-.593 1.1952-1.023 1.5274-1.203 3.2553-2.142 5.1084-2.774 1.288-.438 2.6428-.658 4.0066-.652 1.5776.041 3.1245.435 4.5207 1.153 1.5733.775 2.8527 2.018 3.6526 3.55.4393.819.6358 1.741.5676 2.664-.0464.485-.2138.953-.4874 1.361-.2976.422-.7449.721-1.2554.84-.9614.123-1.9389.02-2.8514-.3-.9174-.208-1.7682-.633-2.4773-1.237-.34-.319-.5949-.714-.7427-1.151s-.184-.903-.1054-1.357c.1745-.835.5601-1.614 1.1218-2.266.5061-.618 1.0919-1.17 1.7429-1.641.5951-.455 1.2221-.869 1.8764-1.238 1.1715-.667 2.4171-1.203 3.7127-1.596 1.8707-.577 3.8283-.842 5.7895-.781.5319.014 1.0625.057 1.5893.13.1872.029.3707.077.5475.143z" fill="#000"/><path d="m270.429 11.9575h-83.496v118.0475h83.496z" fill="#d2977c"/><path d="m271.17 12.4397h-83.496v118.0483h83.496z" fill="#000" opacity=".2"/><path d="m266.249 11.9575h-83.497v118.0475h83.497z" fill="#d2977c"/><path d="m255.872 24.7427h-62.749v92.4783h62.749z" fill="#f0ebd6"/><path d="m255.872 117.234v-6.826c0-4.435-.033-10.8896-.053-19.0504 0-16.2824-.067-39.397-.107-66.5887l.207.2019h-62.77l.227-.2215c0 34.8836-.033 67.0838-.046 92.4847l-.181-.176 45.675.098 12.614.078h.1l-12.58.045-45.789.098h-.24v-.143c0-25.4009 0-57.5881-.047-92.4847v-.2214h63.23v.2214c-.046 27.2438-.08 50.3845-.106 66.7255 0 8.1348-.04 14.5762-.054 18.9982v6.337c.011.146-.017.292-.08.424z" fill="#e0e0e0"/><path d="m266.483 11.9575c-.43.7459-.928 1.4522-1.489 2.1102-.969 1.2635-2.344 2.9829-3.92 4.8456s-3.038 3.5105-4.127 4.6763c-.554.6573-1.168 1.2634-1.836 1.8107.476-.7175 1.01-1.397 1.596-2.0321l4.006-4.7545 4.007-4.761c.534-.6772 1.124-1.311 1.763-1.8952z" fill="#e0e0e0"/><path d="m256.193 116.921c3.125 4.832 6.796 9.306 10.944 13.339z" fill="#fff"/><path d="m267.137 130.26c-.69-.502-1.327-1.069-1.903-1.694-1.456-1.45-2.836-2.971-4.133-4.559-1.297-1.579-2.51-3.222-3.633-4.924-.494-.689-.921-1.421-1.275-2.188.567.631 1.082 1.304 1.542 2.012.922 1.257 2.211 2.983 3.72 4.827 1.509 1.843 2.951 3.451 4.006 4.604.609.598 1.169 1.24 1.676 1.922z" fill="#e0e0e0"/><path d="m182.739 129.908 10.938-13.163z" fill="#fff"/><path d="m193.677 116.745c.093.078-2.277 3.087-5.295 6.722-3.019 3.634-5.55 6.513-5.643 6.441s2.27-3.087 5.289-6.721c3.018-3.635 5.575-6.513 5.649-6.442z" fill="#e0e0e0"/><path d="m182.752 11.9578c.094-.0782 2.471 2.6964 5.309 6.1873 2.838 3.491 5.048 6.3893 4.948 6.4674-.1.0782-2.471-2.6964-5.309-6.1938-2.838-3.4975-5.041-6.3828-4.948-6.4609z" fill="#e0e0e0"/><path d="m236.327 43.5198h-21.015v58.1872h21.015z" fill="#d2977c"/><path d="m279.304 237.183h-12.828v14.876h12.828z" fill="#f5f5f5"/><path d="m266.917 236.213h-57.975v16.777h57.975z" fill="#72a07f"/><path d="m279.691 237.626h-14.323v-1.413h14.323c.192 0 .376.074.512.206.137.131.214.31.216.497 0 .189-.077.369-.213.502-.137.133-.322.208-.515.208z" fill="#72a07f"/><path d="m279.691 252.997h-14.323v-1.413h14.323c.095-.001.189.016.277.051.087.034.167.085.235.15s.121.142.159.227c.037.085.056.176.057.268 0 .189-.077.369-.213.502-.137.134-.322.208-.515.208z" fill="#72a07f"/><path d="m262.363 236.213h-6.851v16.777h6.851z" fill="#000" opacity=".4"/><path d="m220.935 236.213h-6.851v16.777h6.851z" fill="#000" opacity=".4"/><path d="m279.304 239.678c0 .039-2.778.071-6.197.071s-6.203-.032-6.203-.071 2.778-.078 6.203-.078c3.426 0 6.197 0 6.197.078z" fill="#e0e0e0"/><path d="m279.304 241.873c0 .045-2.778.078-6.197.078s-6.203-.033-6.203-.078c0-.046 2.778-.072 6.203-.072 3.426 0 6.197.033 6.197.072z" fill="#e0e0e0"/><path d="m279.304 244.621c0 .039-2.778.072-6.197.072s-6.203-.033-6.203-.072 2.778-.071 6.203-.071c3.426 0 6.197.032 6.197.071z" fill="#e0e0e0"/><path d="m279.304 247.37c0 .039-2.778.071-6.197.071s-6.203-.032-6.203-.071 2.778-.078 6.203-.078c3.426 0 6.197.032 6.197.078z" fill="#e0e0e0"/><path d="m279.304 250.098c0 .046-2.778.079-6.197.079s-6.203-.033-6.203-.079c0-.045 2.778-.071 6.203-.071 3.426 0 6.197.071 6.197.071z" fill="#e0e0e0"/><path d="m251.825 243.11h-26.082v3.022h26.082z" fill="#000" opacity=".2"/><path d="m279.177 253.323h-13.028v9.066h13.028z" fill="#fafafa"/><path d="m266.296 252.997h-55.431v9.724h55.431z" fill="#455a64"/><path d="m265.896 253.655h14.022c.091 0 .177-.035.241-.098.064-.062.1-.146.1-.235 0-.086-.035-.169-.098-.23-.062-.061-.147-.095-.236-.095h-14.023z" fill="#455a64"/><path d="m265.896 262.056h14.056c.037 0 .073.007.107.021s.065.034.091.059c.026.026.047.056.061.089s.021.069.021.105v.143c0 .073-.029.142-.082.194-.052.051-.124.08-.198.08h-14.056z" fill="#455a64"/><path d="m279.177 255.042c0 .045-2.885.078-6.444.078s-6.437 0-6.437-.078 2.885-.072 6.437-.072c3.553 0 6.444.033 6.444.072z" fill="#e0e0e0"/><path d="m279.177 256.761c0 .039-2.885.072-6.444.072s-6.437 0-6.437-.072c0-.071 2.885-.078 6.437-.078 3.553 0 6.444.033 6.444.078z" fill="#e0e0e0"/><path d="m279.177 258.474c0 .039-2.885.072-6.444.072s-6.437-.033-6.437-.072 2.885-.071 6.437-.071c3.553 0 6.444.032 6.444.071z" fill="#e0e0e0"/><path d="m279.177 260.187c0 .046-2.885.078-6.444.078s-6.437-.032-6.437-.078c0-.045 2.885-.072 6.437-.072 3.553 0 6.444.033 6.444.072z" fill="#e0e0e0"/><path d="m281.153 263.58h-13.295v24.574h13.295z" fill="#ebebeb"/><path d="m267.858 262.714h-62.408v26.638h62.408z" fill="#72a07f"/><path d="m282.189 289.359h-16.026v-1.733h16.026c.116 0 .232.021.34.064s.207.106.29.185c.083.08.149.175.194.28.046.105.07.217.071.331v.039c-.009.225-.107.438-.274.594s-.39.242-.621.24z" fill="#72a07f"/><path d="m266.129 262.714h16.193c.195 0 .382.076.519.21.138.134.216.317.216.507v.293c0 .19-.078.372-.216.506-.137.135-.324.21-.519.21h-16.193z" fill="#72a07f"/><path d="m281.153 266.876c0 .039-2.978.072-6.677.072-3.7 0-6.644-.033-6.644-.072s2.971-.078 6.644-.078c3.672 0 6.677.032 6.677.078z" fill="#e0e0e0"/><path d="m281.153 270.022c0 .045-2.978.078-6.677.078-3.7 0-6.644 0-6.644-.078s2.971-.072 6.644-.072c3.672 0 6.677.033 6.677.072z" fill="#e0e0e0"/><path d="m281.153 273.174c0 .046-2.978.078-6.677.078-3.7 0-6.644-.032-6.644-.078s2.971-.072 6.644-.072c3.672 0 6.677.033 6.677.072z" fill="#e0e0e0"/><path d="m281.153 276.326c0 .039-2.978.078-6.677.078-3.7 0-6.644-.039-6.644-.078s2.971-.071 6.644-.071c3.672 0 6.677.032 6.677.071z" fill="#e0e0e0"/><path d="m281.153 279.479c0 .039-2.978.071-6.677.071-3.7 0-6.644-.032-6.644-.071s2.971-.072 6.644-.072c3.672 0 6.677.033 6.677.072z" fill="#e0e0e0"/><path d="m281.153 282.663c0 .04-2.978.072-6.677.072-3.7 0-6.644-.032-6.644-.072 0-.039 2.971-.078 6.644-.078 3.672 0 6.677 0 6.677.078z" fill="#e0e0e0"/><path d="m281.153 285.783c0 .039-2.978.072-6.677.072-3.7 0-6.644 0-6.644-.072s2.971-.078 6.644-.078c3.672 0 6.677.033 6.677.078z" fill="#e0e0e0"/><path d="m220.935 262.714-8.594 26.645h-6.891v-26.645z" fill="#000" opacity=".3"/><g fill="#fff"><path d="m212.969 274.34h2.41c1.75 0 2.945 1.029 2.945 2.605s-1.195 2.605-2.945 2.605h-2.43zm2.37 4.22c.443 0 .868-.171 1.181-.477.313-.305.489-.719.489-1.151s-.176-.846-.489-1.151c-.313-.306-.738-.477-1.181-.477h-1.128v3.256z"/><path d="m219.279 274.34h1.235v5.21h-1.235z"/><path d="m221.442 276.945c.036-.561.24-1.1.587-1.55.347-.449.822-.789 1.365-.978.543-.188 1.131-.217 1.691-.083.56.135 1.068.426 1.459.839l-.795.717c-.223-.269-.526-.465-.867-.559-.342-.094-.705-.083-1.039.033-.335.115-.625.329-.83.611-.205.283-.315.621-.315.967s.11.684.315.966c.205.283.495.497.83.612.334.115.697.127 1.039.032.341-.094.644-.289.867-.558l.795.716c-.39.416-.896.71-1.457.847-.56.136-1.149.109-1.694-.08-.544-.188-1.02-.529-1.367-.979-.346-.45-.55-.991-.584-1.553z"/><path d="m228.427 275.323h-1.696v-.983h4.674v.983h-1.729v4.227h-1.242z"/><path d="m232.073 274.34h1.236v5.21h-1.236z"/><path d="m234.21 276.945c-.032-.563.108-1.124.402-1.61s.73-.875 1.252-1.12c.521-.244 1.105-.332 1.678-.253.573.08 1.109.323 1.54.7.431.376.738.869.881 1.416.144.547.118 1.123-.074 1.655s-.541.997-1.004 1.336c-.463.338-1.019.535-1.597.566h-.153c-.731.041-1.449-.203-1.997-.678-.547-.475-.878-1.142-.921-1.856-.005-.052-.008-.104-.007-.156zm4.594 0c-.006-.322-.11-.635-.299-.9-.188-.264-.453-.469-.76-.587-.307-.119-.643-.146-.966-.079s-.619.226-.85.456c-.23.231-.386.523-.447.84-.062.316-.026.643.103.94s.345.55.62.727c.276.178.6.272.93.27.214.006.427-.03.627-.105.199-.076.382-.188.537-.332s.279-.317.366-.507c.087-.191.134-.397.139-.606z"/><path d="m245.889 274.34v5.21h-1.015l-2.671-3.158v3.158h-1.188v-5.21h1.021l2.671 3.165v-3.165z"/><path d="m250.677 278.437h-2.484l-.474 1.113h-1.262l2.377-5.21h1.222l2.391 5.21h-1.296zm-.394-.919-.848-2.019-.848 1.993z"/><path d="m256.406 279.55-1.028-1.446h-1.135v1.453h-1.209v-5.211h2.317c1.429 0 2.317.723 2.317 1.896.017.351-.08.698-.277.992-.196.294-.482.521-.818.649l1.196 1.674zm-1.155-4.227h-1.008v1.817h1.008c.755 0 1.135-.345 1.135-.905s-.38-.912-1.135-.912z"/><path d="m261.101 277.707v1.843h-1.236v-1.856l-2.07-3.354h1.336l1.429 2.319 1.422-2.319h1.216z"/><path d="m228.327 241.983h.815l-.875 4.279h-.815z"/><path d="m230.444 245.168v.137c-.009.089.018.178.075.247.058.07.141.114.232.124.029.007.058.007.087 0 .157-.001.31-.046.441-.13l.14.56c-.245.138-.525.206-.808.196-.227.025-.454-.038-.634-.176-.179-.138-.294-.339-.321-.56-.003-.046-.003-.092 0-.137-.007-.085-.007-.17 0-.254l.321-1.544h-.575l.127-.612h.541l.154-.743h.781l-.154.743h.902l-.127.612h-.888z"/><path d="m235.819 242.999-.667 3.257h-.748l.067-.339c-.301.255-.69.39-1.089.378-.185.01-.369-.017-.544-.077-.174-.06-.335-.154-.472-.275s-.248-.267-.327-.43c-.079-.164-.124-.34-.133-.521v-.104c-.017-.241.015-.484.095-.713.079-.229.205-.441.369-.623.164-.181.363-.33.586-.436s.465-.168.713-.182h.134c.22-.017.441.021.642.113.2.091.372.232.5.408l.093-.482zm-1.075 1.427c.013-.204-.057-.404-.194-.558-.138-.153-.332-.248-.54-.263h-.154c-.306 0-.6.119-.817.33-.216.211-.338.498-.338.797v.091c-.015.204.053.405.19.559.136.155.329.252.538.268h.153c.154-.001.307-.031.449-.09.142-.058.27-.143.378-.251.108-.107.193-.234.251-.373.057-.139.086-.288.084-.439z"/><path d="m237.108 241.723h.782l-.922 4.559h-.788z"/><path d="m238.657 242.999h.762l-.668 3.257h-.788zm.101-.97c0-.13.052-.254.146-.345.094-.092.222-.143.354-.143h.034c.057-.005.114.002.169.019.054.017.104.045.148.081.043.036.079.081.105.131.025.049.041.104.045.159.003.064-.007.129-.03.189s-.058.115-.102.163c-.045.047-.099.085-.158.112-.06.027-.125.042-.191.044h-.053c-.058.004-.116-.004-.171-.022-.055-.019-.105-.047-.149-.085-.043-.037-.079-.083-.104-.134s-.04-.106-.043-.162z"/><path d="m243.739 243-.668 3.256h-.721l.067-.339c-.301.256-.69.39-1.089.378-.184.01-.369-.016-.544-.077-.174-.06-.334-.153-.471-.275-.138-.121-.249-.267-.328-.43s-.124-.34-.132-.52v-.105c-.012-.239.025-.479.108-.704.084-.226.212-.433.377-.611.166-.177.366-.32.588-.422.223-.102.464-.16.71-.171h.106c.22-.019.441.02.64.111.199.092.37.233.496.41l.093-.482zm-1.082 1.426c.013-.204-.057-.404-.194-.558-.138-.153-.332-.248-.54-.263h-.147c-.153 0-.304.03-.445.087-.141.058-.269.142-.377.248-.107.106-.192.232-.249.37-.058.138-.086.286-.084.435v.078c-.013.205.057.407.196.562s.335.25.545.265h.147c.307-.003.601-.125.817-.338.217-.213.338-.501.338-.801 0-.033-.007-.059-.007-.085z"/><path d="m247.806 244.061c-.001.131-.014.262-.041.391l-.367 1.81h-.788l.367-1.791c.007-.084.007-.169 0-.254 0-.377-.207-.592-.667-.592-.272-.01-.537.083-.741.259-.204.175-.331.421-.354.685l-.354 1.693h-.768l.668-3.256h.747l-.073.358c.321-.267.733-.409 1.155-.397.14-.02.283-.014.42.02s.266.093.38.175c.113.083.209.186.281.304.073.119.121.25.141.387.005.069.002.139-.006.208z"/></g><path d="m103.416 72.6197h-91.3628v4.5851h91.3628z" fill="#455a64"/><path d="m86.5886 26.2018c-.0125-.0574-.0428-.1097-.0868-.1498l-.2204-.3973c-.2003-.3451-.5141-.8466-.9615-1.4654-1.2638-1.7644-2.884-3.2582-4.7612-4.3897-1.309-.7763-2.7606-1.2961-4.2736-1.5306-1.7498-.2461-3.5349-.0648-5.1952.5276-1.8603.6402-3.4316 1.8962-4.4406 3.5495-1.0217 1.739-1.3355 3.7776-1.9432 5.725-.278.9649-.6962 1.8861-1.242 2.7354-.5741.788-1.2834 1.4732-2.0968 2.0256-.7946.5731-1.6226 1.0876-2.3772 1.6868-.7396.5908-1.3913 1.2791-1.9365 2.0451-.9885 1.4231-1.6701 3.0274-2.0033 4.7154-.2888 1.4583-.3786 2.9475-.2671 4.4288.1828 2.1326.5718 4.2435 1.1619 6.3046.2004.7294.3673 1.3026.4808 1.6738.0484.198.1132.3919.1937.5797-.0256-.2006-.068-.3989-.1269-.5927-.1002-.4168-.2337-.9835-.4073-1.6934-.5373-2.0608-.8859-4.1641-1.0417-6.285-.1009-1.459.0001-2.9245.3004-4.3572.3313-1.6325.9967-3.1832 1.9566-4.5591.533-.7302 1.1641-1.3874 1.8764-1.9539.7345-.5796 1.5625-1.0876 2.3705-1.6673.8728-.5647 1.6349-1.2772 2.2504-2.1037.5679-.8762 1.0021-1.8284 1.2888-2.8266.6076-1.9539.9348-3.9925 1.9097-5.6598.9661-1.5869 2.4709-2.7943 4.2537-3.4128 1.6058-.5866 3.336-.7746 5.0349-.5471 1.4778.2149 2.898.7105 4.1802 1.4589 1.8663 1.0954 3.4913 2.541 4.7811 4.253.4608.6057.7946 1.0942 1.015 1.4263.0961.1605.2055.3129.3272.4559z" fill="#e0e0e0"/><path d="m60.4592 33.353c.5543-.495.8214-.1498 1.5626 0 .7408.1577 1.4295.4935 2.0033.977 1.2612 1.02 2.1905 2.3762 2.6743 3.903.4838 1.5267.5013 3.1579.0501 4.6941-1.1814.0562-2.3565-.1995-3.4015-.74-1.045-.5404-1.9212-1.3458-2.5364-2.3311-.6151-.9854-.9465-2.1143-.9592-3.2679-.0126-1.1536.2939-2.2892.8873-3.2872" fill="#c0e1d9"/><path d="m83.0625 23.31c.2738-.6513.6678-.4754 1.3956-.6513.7358-.1627 1.501-.1493 2.2303.0391 1.5906.3887 3.0306 1.2209 4.1441 2.3949s1.8524 2.6389 2.1262 4.2158c-1.0417.5545-2.2178.8236-3.4037.7786-1.1858-.0451-2.337-.4025-3.3313-1.0343s-1.7946-1.5145-2.3159-2.5543-.7442-2.1979-.645-3.3513" fill="#c0e1d9"/><path d="m55.4575 46.9455c.7538-.8513 1.697-1.5234 2.7576-1.9651 1.0607-.4416 2.2107-.6412 3.3624-.5834s2.2747.3714 3.2833.9169c1.0085.5455 1.876 1.3085 2.5362 2.2308-1.6946 1.5018-3.8939 2.3473-6.1834 2.3772-2.3124-.0587-4.5251-.9308-6.2302-2.4554" fill="#e0e0e0"/><path d="m57.3141 36.7983c-1.008.0296-2.0121-.1349-2.955-.4838-.9429-.349-1.806-.8757-2.5402-1.55-.7342-.6744-1.325-1.4832-1.7387-2.3802s-.6422-1.8648-.6724-2.8479c-.0147-.5659.0346-1.1316.1469-1.6869 1.2099-.2694 2.4719-.2154 3.6529.1562 1.1811.3717 2.2374 1.0472 3.0578 1.9553.8204.9082 1.3744 2.0155 1.6036 3.205.2292 1.1896.1252 2.4175-.3012 3.5542" fill="#c0e1d9"/><path d="m65.2738 24.8666c-1.0767.4062-2.2335.5703-3.3842.4799s-2.2656-.4329-3.2618-1.0019c-.9961-.5691-1.8477-1.35-2.4914-2.2847s-1.0629-1.999-1.2262-3.1136c1.049-.647 2.2575-1.0059 3.4982-1.0389 1.2406-.0331 2.4674.261 3.5511.8511 1.0836.5902 1.9839 1.4545 2.606 2.502s.9429 2.2393.9286 3.4497" fill="#c0e1d9"/><path d="m67.9445 20.9719c1.8995-.7156 4.0126-.6662 5.8746.1375 1.8621.8036 3.3207 2.2957 4.055 4.1481.213.5259.3609 1.0747.4408 1.6347-1.05.645-2.2587 1.0021-3.4991 1.0338s-2.4666-.2633-3.5497-.8538-1.983-1.4548-2.6051-2.5019-.9434-2.2384-.9301-3.4486" fill="#c0e1d9"/><path d="m71.1434 18.8877c-.9558-.3138-1.8389-.8082-2.5986-1.4551-.7597-.6468-1.3813-1.4334-1.829-2.3148-.4478-.8813-.7131-1.8401-.7806-2.8216-.0675-.9814.0639-1.9661.387-2.89796.1822-.53342.4264-1.04475.7278-1.52403 1.2267.15976 2.3867.63846 3.3585 1.38592.9717.74747 1.7194 1.73617 2.1647 2.86237.4452 1.1263.5715 2.3486.3658 3.5389s-.736 2.3046-1.5352 3.2263" fill="#c0e1d9"/><path d="m79.2766 19.2523c-.6938-1.8707-.5975-3.9336.2678-5.7351s2.4287-3.1941 4.3464-3.87154c.5382-.18822 1.0957-.31924 1.6627-.39078.6479 1.03632.9956 2.22452 1.0062 3.43822.0107 1.2137-.3161 2.4075-.9457 3.4545-.6295 1.0469-1.5382 1.9079-2.6294 2.4913-1.0913.5834-2.3242.8674-3.5678.8218" fill="#c0e1d9"/><path d="m46.416 73.004-4.3472-26.5925 33.2879.3908-3.2854 25.85" fill="#263238"/><path d="m60.7796 41.5528c.804.5294 1.7336.8493 2.7003.9291s1.9382-.0831 2.822-.4732c.8571-.4748 1.5813-1.1478 2.1088-1.9599s.8422-1.7383.9162-2.6969c-.7387-.3919-1.5493-.6379-2.3855-.724-.8363-.0861-1.6817-.0105-2.488.2224-.8062.2329-1.5575.6185-2.2108 1.1349-.6533.5163-1.1959 1.1532-1.5966 1.8742-.2139.3876-.3862.7958-.5142 1.2179" fill="#72a07f"/><path d="m75.991 47.2777c.804.5324 1.735.8539 2.7033.9338.9684.0798 1.9415-.0847 2.8257-.4779.8559-.4755 1.5787-1.1489 2.1051-1.961.5263-.812.8399-1.7377.9132-2.6958-.7382-.3921-1.5485-.6385-2.3845-.7251-.8359-.0865-1.6812-.0115-2.4874.2208s-1.5576.6172-2.2111 1.1329c-.6536.5157-1.1966 1.152-1.5979 1.8724-.2139.3899-.3862.8002-.5141 1.2245" fill="#72a07f"/><path d="m67.4504 34.5188c.3737.8738.9707 1.6397 1.734 2.2246s1.6675.9693 2.6264 1.1166c.9834.0667 1.9684-.1055 2.8668-.501.8985-.3955 1.6824-1.0021 2.2817-1.7655-.7952-1.4562-2.1504-2.545-3.768-3.0274-1.6176-.4823-3.3654-.3188-4.8595.4547-.4066.2148-.7893.4702-1.1419.7621" fill="#72a07f"/><path d="m73.0063 41.1166c-.9644-.0417-1.9238.1564-2.7882.5757-.8644.4192-1.6053 1.0459-2.1532 1.8211-.4818.8397-.7441 1.7823-.7639 2.7444s.2036 1.9141.6504 2.7721c1.6919-.0777 3.283-.8073 4.4236-2.0285 1.1407-1.2213 1.7376-2.8343 1.6596-4.4845-.025-.4398-.0943-.8761-.207-1.3026" fill="#72a07f"/><path d="m78.3685 51.5829c-.4541.8368-.6803 1.7734-.6569 2.7199.0234.9466.2956 1.8714.7905 2.6859.5767.7799 1.3413 1.4094 2.2263 1.833.885.4237 1.8633.6285 2.8486.5963.3361-.8685.4813-1.7963.4261-2.723-.0553-.9268-.3096-1.8319-.7466-2.6567-.8747-1.5501-2.4506-2.3186-4.4205-2.755" fill="#72a07f"/><path d="m87.2164 52.8138c-.3856-.3549-.8395-.6316-1.3355-.8141-.5822-.198-1.1932-.3035-1.8097-.3127-.8211.0054-1.6414.0532-2.4573.1433-1.0132.1249-2.042.0384-3.0183-.254-1.1141-.4374-2.0098-1.2807-2.4974-2.3512-.527-1.1441-.8889-2.354-1.0751-3.5951-.1862-1.2965-.6211-2.5471-1.2821-3.6864-.793-1.0598-1.7426-1.9992-2.8179-2.7875-1.0127-.7629-1.9116-1.6595-2.6711-2.6639-1.1978-1.8103-1.673-3.9864-1.3355-6.1156.1984-1.4165.7612-2.7608 1.636-3.9078.24-.3056.5058-.591.7946-.8532.2004-.1824.3072-.2736.3139-.2606-.0737.1121-.1611.2149-.2604.3062-.2669.2795-.5124.5777-.7346.8922-.9971 1.4381-1.541 3.1294-1.5648 4.8653-.0237 1.7359.4738 3.4407 1.4313 4.9042.7593.9875 1.6586 1.8646 2.671 2.6052 1.108.8059 2.083 1.7723 2.8914 2.8657.6886 1.1714 1.1418 2.4601 1.3355 3.7971.1722 1.2107.516 2.3921 1.0217 3.5105.4451 1.0042 1.2703 1.8021 2.3038 2.2274.9381.2877 1.927.3831 2.9047.2801.8254-.0792 1.6549-.1096 2.4841-.0912.6318.0237 1.2549.1514 1.843.3778.3747.1503.7152.3717 1.0016.6512.0686.0621.1291.1321.1803.2085z" fill="#72a07f"/><path d="m87.2164 52.8138c-.3856-.3549-.8395-.6316-1.3355-.8141-.5822-.198-1.1932-.3035-1.8097-.3127-.8211.0054-1.6414.0532-2.4573.1433-1.0132.1249-2.042.0384-3.0183-.254-1.1141-.4374-2.0098-1.2807-2.4974-2.3512-.527-1.1441-.8889-2.354-1.0751-3.5951-.1862-1.2965-.6211-2.5471-1.2821-3.6864-.793-1.0598-1.7426-1.9992-2.8179-2.7875-1.0127-.7629-1.9116-1.6595-2.6711-2.6639-1.1978-1.8103-1.673-3.9864-1.3355-6.1156.1984-1.4165.7612-2.7608 1.636-3.9078.24-.3056.5058-.591.7946-.8532.2004-.1824.3072-.2736.3139-.2606-.0737.1121-.1611.2149-.2604.3062-.2669.2795-.5124.5777-.7346.8922-.9971 1.4381-1.541 3.1294-1.5648 4.8653-.0237 1.7359.4738 3.4407 1.4313 4.9042.7593.9875 1.6586 1.8646 2.671 2.6052 1.108.8059 2.083 1.7723 2.8914 2.8657.6886 1.1714 1.1418 2.4601 1.3355 3.7971.1722 1.2107.516 2.3921 1.0217 3.5105.4451 1.0042 1.2703 1.8021 2.3038 2.2274.9381.2877 1.927.3831 2.9047.2801.8254-.0792 1.6549-.1096 2.4841-.0912.6318.0237 1.2549.1514 1.843.3778.3747.1503.7152.3717 1.0016.6512.0686.0621.1291.1321.1803.2085z" fill="#72a07f"/><path d="m23.6721 55.5361c.0717-1.3635-.2064-2.7229-.8093-3.955-.6029-1.2322-1.5114-2.2981-2.6433-3.1014-1.1318-.8032-2.4513-1.3184-3.8388-1.4987s-2.7992-.0202-4.1073.466c.987 2.152 2.5274 4.0186 4.4719 5.4188 1.9446 1.4002 4.2271 2.2864 6.6263 2.5726" fill="#72a07f"/><path d="m21.4753 56.6629c-1.6294 1.7455-1.5225 4.5591-.3606 6.6172s3.1718 3.5365 5.1751 4.8456c.6886-2.2369.604-4.6326-.2406-6.8181s-2.4025-4.0395-4.4337-5.2765" fill="#72a07f"/><path d="m29.3349 48.4957c.1221 1.2381.4932 2.4406 1.0919 3.5388s1.4134 2.0707 2.3974 2.8618c.9841.7911 2.1184 1.3853 3.338 1.7488s2.5006.489 3.77.3695l.4474-.0521c-.6678-2.5465-1.6827-5.1192-3.7061-6.8516-2.0233-1.7325-5.2085-2.3773-7.4455-.9183" fill="#72a07f"/><path d="m29.335 45.8905c-.4073-2.3186-2.7578-4.0055-5.1618-4.2269-2.4039-.2215-4.7878.788-6.7176 2.2079 1.4613 1.6256 3.5017 2.6486 5.7076 2.8614 2.2059.2129 4.4122-.4003 6.1718-1.7152" fill="#72a07f"/><path d="m16.9078 65.6509c-2.2838 1.9018-2.858 5.295-1.9098 8.0761.9482 2.781 3.1785 4.9954 5.6759 6.6237.9616-2.755 1.5626-5.7119 1.0551-8.5841s-2.2771-5.6403-5.0149-6.8061" fill="#72a07f"/><path d="m28.9341 39.3774c.6026-.8726 1.4033-1.598 2.3399-2.1199.9367-.5218 1.9841-.8261 3.0608-.8891 1.0768-.063 2.1539.117 3.1478.5258.9939.4089 1.8778 1.0358 2.583 1.8319-.4664 1.0224-1.2203 1.8949-2.1743 2.5164-.9541.6215-2.0692.9665-3.2161.9952-1.1469.0286-2.2786-.2604-3.264-.8335s-1.7841-1.4068-2.3035-2.4045" fill="#72a07f"/><path d="m31.7453 32.6756c-1.147.3406-2.3515.4574-3.5448.3439-1.1934-.1135-2.3521-.4553-3.4099-1.0056-1.0579-.5504-1.9943-1.2987-2.7556-2.2021-.7614-.9034-1.3328-1.9442-1.6816-3.0631-.105-.3401-.1897-.6858-.2538-1.0355 1.8297-.2086 3.6796-.1823 5.5023.0781 1.8317.2692 3.5326 1.0862 4.868 2.3382.6045.5837 1.0406 1.3124 1.2645 2.1127.224.8004.2277 1.6442.0109 2.4464" fill="#72a07f"/><path d="m37.0208 30.9431c-.7592-.6042-1.3888-1.3483-1.8531-2.1898-.4642-.8416-.7539-1.7641-.8525-2.7149s-.0042-1.9112.2779-2.8264c.282-.9151.7462-1.7671 1.3659-2.5073.3041-.3638.6441-.6976 1.015-.9965 1.6509 1.9609 2.7712 4.2942 3.2587 6.7865.2403.9233.2403 1.8904 0 2.8136-.1318.4545-.3879.8655-.7407 1.1891-.3529.3235-.7893.5473-1.2626.6476" fill="#72a07f"/><path d="m23.6721 55.5361c.0717-1.3635-.2064-2.7229-.8093-3.955-.6029-1.2322-1.5114-2.2981-2.6433-3.1014-1.1318-.8032-2.4513-1.3184-3.8388-1.4987s-2.7992-.0202-4.1073.466c.987 2.152 2.5274 4.0186 4.4719 5.4188 1.9446 1.4002 4.2271 2.2864 6.6263 2.5726" fill="#000" opacity=".4"/><path d="m21.4753 56.6629c-1.6294 1.7455-1.5225 4.5591-.3606 6.6172s3.1718 3.5365 5.1751 4.8456c.6886-2.2369.604-4.6326-.2406-6.8181s-2.4025-4.0395-4.4337-5.2765" fill="#000" opacity=".4"/><path d="m29.3349 48.4957c.1221 1.2381.4932 2.4406 1.0919 3.5388s1.4134 2.0707 2.3974 2.8618c.9841.7911 2.1184 1.3853 3.338 1.7488s2.5006.489 3.77.3695l.4474-.0521c-.6678-2.5465-1.6827-5.1192-3.7061-6.8516-2.0233-1.7325-5.2085-2.3773-7.4455-.9183" fill="#000" opacity=".4"/><path d="m29.335 45.8905c-.4073-2.3186-2.7578-4.0055-5.1618-4.2269-2.4039-.2215-4.7878.788-6.7176 2.2079 1.4613 1.6256 3.5017 2.6486 5.7076 2.8614 2.2059.2129 4.4122-.4003 6.1718-1.7152" fill="#000" opacity=".4"/><path d="m16.9078 65.6509c-2.2838 1.9018-2.858 5.295-1.9098 8.0761.9482 2.781 3.1785 4.9954 5.6759 6.6237.9616-2.755 1.5626-5.7119 1.0551-8.5841s-2.2771-5.6403-5.0149-6.8061" fill="#000" opacity=".4"/><path d="m28.9341 39.3774c.6026-.8726 1.4033-1.598 2.3399-2.1199.9367-.5218 1.9841-.8261 3.0608-.8891 1.0768-.063 2.1539.117 3.1478.5258.9939.4089 1.8778 1.0358 2.583 1.8319-.4664 1.0224-1.2203 1.8949-2.1743 2.5164-.9541.6215-2.0692.9665-3.2161.9952-1.1469.0286-2.2786-.2604-3.264-.8335s-1.7841-1.4068-2.3035-2.4045" fill="#000" opacity=".4"/><path d="m31.7453 32.6756c-1.147.3406-2.3515.4574-3.5448.3439-1.1934-.1135-2.3521-.4553-3.4099-1.0056-1.0579-.5504-1.9943-1.2987-2.7556-2.2021-.7614-.9034-1.3328-1.9442-1.6816-3.0631-.105-.3401-.1897-.6858-.2538-1.0355 1.8297-.2086 3.6796-.1823 5.5023.0781 1.8317.2692 3.5326 1.0862 4.868 2.3382.6045.5837 1.0406 1.3124 1.2645 2.1127.224.8004.2277 1.6442.0109 2.4464" fill="#000" opacity=".4"/><path d="m37.0208 30.9431c-.7592-.6042-1.3888-1.3483-1.8531-2.1898-.4642-.8416-.7539-1.7641-.8525-2.7149s-.0042-1.9112.2779-2.8264c.282-.9151.7462-1.7671 1.3659-2.5073.3041-.3638.6441-.6976 1.015-.9965 1.6509 1.9609 2.7712 4.2942 3.2587 6.7865.2403.9233.2403 1.8904 0 2.8136-.1318.4545-.3879.8655-.7407 1.1891-.3529.3235-.7893.5473-1.2626.6476" fill="#000" opacity=".4"/><path d="m46.149 47.2648c-.0067-.0606-.0067-.1218 0-.1824v-.5341c0-.4689.0735-1.1593.0935-2.0515.1212-2.512-.2879-5.0214-1.202-7.3727-.6617-1.6024-1.6947-3.0335-3.0182-4.1814-1.5304-1.3026-3.5051-1.9996-5.5358-1.9539-1.093-.0047-2.1713.2454-3.1451.7295-1.0008.5199-1.8367 1.297-2.4173 2.247-1.202 1.9539-1.5025 4.3832-1.3956 6.7865.1068 2.4033.4407 4.8066.1602 7.1643-.1208 1.1428-.4274 2.2597-.9081 3.3086-.4576 1.0171-1.161 1.911-2.05 2.6052-.8675.6189-1.8298 1.1003-2.8514 1.4263-.9291.3088-1.8239.7081-2.671 1.1919-1.5084.9103-2.7306 2.2082-3.5325 3.7515-.6622 1.2652-1.0142 2.6631-1.0283 4.0836-.0003 1.0786.1802 2.15.5342 3.1718.3231.8669.7466 1.6951 1.2621 2.4684-.0456-.0431-.0859-.0911-.1202-.1432-.1165-.1385-.2236-.2843-.3205-.4364-.3919-.5744-.7104-1.1934-.9483-1.8432-.3862-1.0314-.5895-2.1194-.601-3.2174-.0172-1.464.3239-2.9108.995-4.2204.8054-1.6027 2.0515-2.9556 3.5992-3.9078 1.6427-1.0746 3.8196-1.3026 5.489-2.6052s2.5575-3.4714 2.818-5.7119c.2604-2.2404-.0868-4.6372-.1803-7.0861s.1669-4.9303 1.4557-6.9624c.6095-1.0032 1.4925-1.8216 2.5508-2.3642 1.0105-.5169 2.1312-.7957 3.272-.8141 2.1129-.0274 4.1595.7186 5.7361 2.0906 1.3545 1.1816 2.4104 2.6528 3.085 4.2986.5516 1.3494.9045 2.7681 1.0484 4.2139.108 1.0821.1392 2.1702.0935 3.2565-.0401.8988-.1068 1.5892-.1603 2.0581-.0111.1792-.0334.3575-.0667.5341.0003.0692-.0133.1378-.0401.2019z" fill="#72a07f"/><path d="m46.149 47.2648c-.0067-.0606-.0067-.1218 0-.1824v-.5341c0-.4689.0735-1.1593.0935-2.0515.1212-2.512-.2879-5.0214-1.202-7.3727-.6617-1.6024-1.6947-3.0335-3.0182-4.1814-1.5304-1.3026-3.5051-1.9996-5.5358-1.9539-1.093-.0047-2.1713.2454-3.1451.7295-1.0008.5199-1.8367 1.297-2.4173 2.247-1.202 1.9539-1.5025 4.3832-1.3956 6.7865.1068 2.4033.4407 4.8066.1602 7.1643-.1208 1.1428-.4274 2.2597-.9081 3.3086-.4576 1.0171-1.161 1.911-2.05 2.6052-.8675.6189-1.8298 1.1003-2.8514 1.4263-.9291.3088-1.8239.7081-2.671 1.1919-1.5084.9103-2.7306 2.2082-3.5325 3.7515-.6622 1.2652-1.0142 2.6631-1.0283 4.0836-.0003 1.0786.1802 2.15.5342 3.1718.3231.8669.7466 1.6951 1.2621 2.4684-.0456-.0431-.0859-.0911-.1202-.1432-.1165-.1385-.2236-.2843-.3205-.4364-.3919-.5744-.7104-1.1934-.9483-1.8432-.3862-1.0314-.5895-2.1194-.601-3.2174-.0172-1.464.3239-2.9108.995-4.2204.8054-1.6027 2.0515-2.9556 3.5992-3.9078 1.6427-1.0746 3.8196-1.3026 5.489-2.6052s2.5575-3.4714 2.818-5.7119c.2604-2.2404-.0868-4.6372-.1803-7.0861s.1669-4.9303 1.4557-6.9624c.6095-1.0032 1.4925-1.8216 2.5508-2.3642 1.0105-.5169 2.1312-.7957 3.272-.8141 2.1129-.0274 4.1595.7186 5.7361 2.0906 1.3545 1.1816 2.4104 2.6528 3.085 4.2986.5516 1.3494.9045 2.7681 1.0484 4.2139.108 1.0821.1392 2.1702.0935 3.2565-.0401.8988-.1068 1.5892-.1603 2.0581-.0111.1792-.0334.3575-.0667.5341.0003.0692-.0133.1378-.0401.2019z" fill="#000" opacity=".4"/><path d="m94.6148 41.4618c.31-.7595.4796-1.5666.5008-2.3838.0044-.9549-.2245-1.897-.6678-2.7485-.5927-1.1199-1.5481-2.0174-2.7177-2.5531-.6708-.3146-1.3951-.5067-2.1369-.5666-.8071-.0463-1.6163.0463-2.3906.2736-1.636.4233-3.2453 1.3026-5.1751 1.6998-.9905.2144-2.0197.1898-2.9982-.0716-1.0145-.3286-1.8745-1.001-2.424-1.8953-1.1619-1.7585-1.4958-3.9599-2.8981-5.5816-.6972-.7906-1.6092-1.3731-2.6309-1.6804-.9914-.3073-2.0376-.4093-3.0717-.2995-1.9789.2085-3.8037 1.1391-5.1084 2.6051-1.1833 1.3165-2.0503 2.8741-2.5375 4.5591-.4459 1.4787-.6355 3.0196-.5609 4.5591.1332 2.2265.421 4.4417.8614 6.6302.1336.7555.2404 1.3547.3139 1.7976 0 .1889.0534.3452.0734.469.007.054.007.1087 0 .1628-.0217-.0502-.0374-.1027-.0467-.1563 0-.1238-.0668-.2736-.1069-.4625-.0935-.4363-.227-1.0355-.3873-1.7845-.4936-2.1902-.8217-4.4127-.9816-6.6498-.0866-1.5596.094-3.1224.5342-4.6242.486-1.7547 1.3716-3.3799 2.5909-4.7545.67-.7283 1.4599-1.3424 2.3372-1.8171.9414-.4969 1.9754-.8048 3.0409-.9054 1.0655-.1007 2.1408.0079 3.1626.3192 1.0845.3259 2.0522.9447 2.7912 1.7846 1.4891 1.7325 1.803 3.9534 2.9181 5.6272.5131.8329 1.3131 1.4608 2.257 1.7716.9233.2516 1.896.2762 2.8313.0716 1.8431-.3387 3.4791-1.2375 5.1819-1.6413.8079-.2295 1.6512-.3177 2.4907-.2605.7758.0639 1.5323.2694 2.2303.6057 1.2072.5754 2.186 1.5232 2.7846 2.6964.4366.8841.6452 1.8589.6076 2.8396-.0191.6144-.1409 1.2216-.3606 1.7976-.0759.2014-.1793.392-.3071.5667z" fill="#72a07f"/><path d="m75.1497 29.6797c.8857.5231 1.8872.831 2.9202.8979 1.0331.0668 2.0675-.1093 3.0162-.5136.8543-.4777 1.5751-1.1529 2.099-1.966.524-.8131.8351-1.7394.9059-2.6973-.7386-.3919-1.5492-.638-2.3855-.724-.8362-.0861-1.6816-.0105-2.4879.2224-.8062.2328-1.5575.6185-2.2108 1.1348-.6534.5164-1.1959 1.1533-1.5966 1.8743-.2139.3876-.3862.7958-.5142 1.2179" fill="#72a07f"/><path d="m81.46 35.2678c.0064 1.0053.2602 1.9944.7402 2.8841.4799.8897 1.1718 1.654 2.0176 2.2286.8613.4667 1.827.7197 2.8121.7367.9851.0171 1.9594-.2024 2.8371-.639-.048-.9263-.3073-1.8305-.7591-2.6467-.4518-.8161-1.0847-1.5236-1.8525-2.0709-.7677-.5473-1.6511-.9205-2.5855-1.0925-.9345-.1721-1.8965-.1385-2.816.0982" fill="#72a07f"/><path d="m92.4045 34.0304c.9386.4247 1.9677.6245 3.0015.5826 1.0338-.042 2.0423-.3243 2.9415-.8236.7999-.5612 1.446-1.3056 1.8815-2.1676.436-.862.647-1.8153.616-2.7758-1.5633-.6281-3.318-.6264-4.88.0047-1.5619.6311-2.8038 1.8402-3.4537 3.3625-.1763.4195-.3061.8562-.3873 1.3026" fill="#72a07f"/><path d="m65.9547 25.9868c-1.596-1.3417-2.6711-3.6994-2.3572-5.4644.2116-.9387.6567-1.8123 1.296-2.5437s1.4532-1.2983 2.37-1.6507c.6828.6497 1.2078 1.4402 1.5365 2.3136s.4528 1.8075.3632 2.7337c-.0897.9263-.3908 1.8212-.8813 2.6192-.4905.7979-1.1579 1.4787-1.9533 1.9923" fill="#72a07f"/><path d="m23.2114 18.3404c.0081-.0529.0313-.1025.0668-.1433l.2204-.3973c.2003-.3451.5141-.8466.9615-1.4654 1.2638-1.7643 2.884-3.2582 4.7612-4.3897 1.3081-.7769 2.7603-1.2947 4.2736-1.5241 1.747-.2526 3.531-.0734 5.1885.5211 1.8504.6455 3.4115 1.9009 4.4139 3.5496 1.0217 1.7389 1.3355 3.7775 1.9499 5.7249.2727.9657.6889 1.8873 1.2353 2.7354.5892.7954 1.3197 1.4814 2.1569 2.0256.7946.5731 1.6293 1.0876 2.3772 1.6868.7396.5908 1.3913 1.2791 1.9365 2.0451.9939 1.4203 1.6759 3.0257 2.0033 4.7154.2922 1.4579.382 2.9475.2671 4.4288-.1828 2.1326-.5718 4.2435-1.1619 6.3046-.2003.7294-.3673 1.3026-.4808 1.6738-.0484.198-.1131.3919-.1937.5797.0256-.2006.068-.3989.1269-.5927.1002-.4168.2337-.9835.4074-1.6934.522-2.0626.8594-4.1655 1.0083-6.285.095-1.4593-.0083-2.9244-.3072-4.3572-.3312-1.6325-.9967-3.1832-1.9565-4.5591-.5276-.7346-1.1593-1.3925-1.8764-1.9539-.7346-.5796-1.5626-1.0876-2.3706-1.6673-.849-.5871-1.5839-1.3171-2.1702-2.1558-.568-.8762-1.0021-1.8284-1.2888-2.8266-.6076-1.9865-.9348-3.9925-1.9098-5.6598-.9643-1.5884-2.4697-2.7962-4.2536-3.4128-1.6035-.5866-3.3316-.7746-5.0282-.5471-1.4883.2148-2.9195.7104-4.2136 1.4589-1.8648 1.0974-3.4895 2.5426-4.7811 4.253-.4608.6057-.7947 1.0942-1.015 1.4263-.1013.1763-.2174.3441-.3473.5015z" fill="#72a07f"/><path d="m49.3676 25.4919c-.5542-.5015-.8213-.1498-1.5625 0-.7394.158-1.4274.4913-2.0033.9704-1.262 1.0249-2.1901 2.3866-2.6704 3.9183-.4804 1.5317-.4922 3.1668-.034 4.7049 1.1831.0591 2.3607-.1949 3.408-.7352 1.0472-.5402 1.9253-1.3466 2.5411-2.3337.6159-.9871.9467-2.1183.9574-3.2738.0106-1.1554-.2992-2.2922-.8967-3.29" fill="#72a07f"/><path d="m26.7439 15.4488c-.2805-.6513-.6678-.482-1.4023-.6513-.7358-.1627-1.501-.1493-2.2304.0391-1.5914.388-3.0319 1.221-4.1446 2.3965-1.1127 1.1756-1.8492 2.6425-2.1189 4.2207 1.0414.5528 2.2168.8205 3.4016.7747 1.1848-.0459 2.3348-.4036 3.3281-1.0352.9932-.6316 1.7928-1.5136 2.3138-2.5525.521-1.0388.7441-2.1958.6456-3.3483" fill="#72a07f"/><path d="m54.3425 39.078c-1.3166-1.4786-3.1806-2.3877-5.1834-2.5281-2.0027-.1404-3.9808.4994-5.5007 1.7791-.4646.3816-.8775.8193-1.2287 1.3026 1.6963 1.4992 3.8945 2.3443 6.1834 2.3772 2.3124-.0587 4.5251-.9307 6.2302-2.4554" fill="#72a07f"/><path d="m52.4861 28.9371c1.0081.0295 2.0122-.1349 2.955-.4838.9429-.349 1.8061-.8757 2.5402-1.5501.7342-.6743 1.325-1.4831 1.7387-2.3801s.6422-1.8648.6724-2.848c.0147-.5658-.0346-1.1315-.1469-1.6868-1.2099-.2694-2.4718-.2154-3.6529.1562-1.181.3717-2.2374 1.0472-3.0578 1.9553-.8204.9082-1.3744 2.0155-1.6036 3.205-.2292 1.1896-.1252 2.4175.3012 3.5542" fill="#72a07f"/><path d="m44.5264 17.0055c1.0776.4063 2.2354.57 3.387.4789 1.1515-.0912 2.2671-.4348 3.2635-1.0052.9964-.5705 1.8478-1.353 2.4907-2.2892.643-.9363 1.0609-2.0021 1.2224-3.1179-1.0499-.6449-2.2586-1.002-3.499-1.0337s-2.4666.2632-3.5497.8537c-1.0831.5906-1.983 1.4548-2.6051 2.502-.6221 1.0471-.9434 2.2384-.9301 3.4485" fill="#72a07f"/><path d="m41.8552 13.1042c-1.9048-.7123-4.0216-.6576-5.885.1522-1.8633.8098-3.3206 2.3083-4.0513 4.1659-.2082.518-.3539 1.0579-.434 1.6087 1.0499.645 2.2586 1.0021 3.499 1.0338s2.4666-.2633 3.5497-.8538 1.983-1.4548 2.6051-2.5019.9434-2.2384.9301-3.4486" fill="#72a07f"/><path d="m38.6832 11.0069c1.9297-.6417 3.5194-2.00433 4.4196-3.78855.9003-1.78422 1.0375-3.84403.3816-5.72688-.1858-.520568-.4276-1.020508-.7212-1.49147-1.2354.156967-2.4042.637013-3.3826 1.38926-.9784.75224-1.7298 1.74865-2.1748 2.88362-.4449 1.13497-.5667 2.36621-.3524 3.56321.2142 1.197.7565 2.31521 1.5693 3.23601" fill="#72a07f"/><path d="m30.5233 11.3911c.6937-1.87074.5974-3.93364-.2679-5.73512-.8652-1.80149-2.4286-3.19406-4.3464-3.87152-.5382-.18823-1.0956-.31925-1.6627-.39078-.6447 1.03573-.9904 2.2222-1.0005 3.43385-.01 1.21165.3159 2.40342.9434 3.4492.6274 1.04578 1.5331 1.90667 2.621 2.49157 1.088.585 2.3179.8722 3.5595.8312" fill="#72a07f"/><path d="m41.6484 69.9233 2.5442 3.0807h31.3246l2.1368-3.0807z" fill="#263238"/><path d="m76.9659 69.8909c0 .0977-7.6992.1758-17.1948.1758-9.4955 0-17.1881-.0781-17.1881-.1758s7.6926-.2019 17.2082-.2019c9.5155 0 17.1747.1042 17.1747.2019z" fill="#455a64"/><path d="m73.4469 58.2912c-.0549.093-.1223.1784-.2004.254-.2083.2306-.4313.4481-.6677.6513-.825.7591-1.7584 1.3975-2.7712 1.8953-1.5264.7298-3.19 1.1465-4.888 1.2244-1.0039.0416-2.0092-.0416-2.9916-.2475-1.0462-.235-2.0678-.5643-3.0516-.9834-2.0033-.8402-3.853-1.7976-5.6426-2.3512-1.5588-.5534-3.2364-.7103-4.8747-.4559-1.1032.1831-2.1361.6508-2.9915 1.3547-.2995.2726-.5826.5619-.8481.8662.0424-.0977.0938-.1914.1536-.28.1784-.2475.3796-.4786.601-.6904.8487-.7637 1.8983-1.2823 3.0316-1.498 1.6828-.2998 3.4169-.1628 5.0283.3973 1.8296.5471 3.686 1.5045 5.6826 2.3316.9629.4108 1.9619.7356 2.9849.9705.9529.2068 1.9291.2943 2.9047.2605 1.6572-.0592 3.2853-.4424 4.7879-1.1268 1.38-.6627 2.646-1.5306 3.7528-2.5726z" fill="#455a64"/><path d="m73.7542 55.9075c-.0652.0832-.1366.1616-.2137.2345-.2094.2173-.4325.4217-.6678.6122-.881.7081-1.8558 1.2974-2.898 1.752-1.5515.682-3.2214 1.071-4.9214 1.1463-1.0038.0457-2.0096-.0198-2.9983-.1954-1.0542-.1984-2.0904-.4793-3.0984-.8402-2.07-.7295-3.9664-1.5761-5.7828-2.0646-1.5856-.4952-3.2634-.6442-4.9147-.4364-1.1094.1489-2.1692.5432-3.0984 1.1528-.6677.4494-.9348.7881-.9615.762-.0267-.026.0601-.0912.1936-.254.2021-.2362.4256-.4542.6678-.6513.9246-.6722 2.0007-1.1189 3.1384-1.3026 1.6901-.2455 3.4151-.1187 5.0483.3713 1.8497.4819 3.7662 1.3026 5.8095 2.045.9883.3601 2.0042.6432 3.0383.8467.9639.1758 1.9447.2479 2.9248.215 1.6634-.0659 3.301-.4233 4.8346-1.0551 1.3998-.6085 2.7111-1.3947 3.8997-2.3382z" fill="#455a64"/><path d="m39.5379 76h-2.7444v7.4574h2.7444z" fill="#455a64"/><path d="m78.6756 76h-2.7444v7.4574h2.7444z" fill="#455a64"/><path d="m113.773 145.493 12.22-5.034 29.214-5.64 31.525 6.037-41.648 43.65-19.745 1.101-14.965-29.002z" fill="#ffbe9d"/><path d="m219.92 178.788s-19.899-31.178-25.241-34.897-22.437-6.07-22.437-6.07-18.804 41.416-36.726 39.983c-17.923-1.432-19.866-33.138-19.866-33.138l-7.887 3.068c-1.396.542-2.657 1.372-3.694 2.433s-1.827 2.329-2.315 3.715l-15.7862 44.823 26.8442 6.226c4.714 17.129 11.352 32.031 19.685 44.94l.855-4.28 55.778-.84 16.153-6.096-19.452-43.116z" fill="#638a66"/><path d="m116.885 217.26c-.067-.111-.121-.229-.16-.352-.094-.267-.221-.606-.374-1.022-.334-.932-.795-2.215-1.336-3.778-1.122-3.191-2.671-7.607-4.106-12.576-.668-2.495-1.269-4.892-1.703-7.087-.386-1.938-.669-3.894-.848-5.861-.101-.84-.121-1.602-.161-2.273s-.066-1.303-.066-1.752v-1.088c-.014-.126-.014-.252 0-.378.032.124.048.251.046.378-.006.364.014.727.06 1.088.061.436.047 1.042.114 1.713.067.67.1 1.426.214 2.266.173 1.674.494 3.66.915 5.862.42 2.201 1.021 4.559 1.722 7.053 1.409 4.957 2.945 9.379 4.007 12.596.534 1.603.961 2.905 1.242 3.811.127.423.234.768.314 1.042.053.115.093.235.12.358z" fill="#263238"/><path d="m173.037 210.083c-.09.066-.189.121-.294.162-.2.098-.494.254-.888.411-1.106.468-2.25.847-3.419 1.133-3.88.971-7.949.966-11.827-.015-3.877-.98-7.436-2.905-10.343-5.593-.88-.8-1.688-1.671-2.417-2.605-.267-.325-.441-.599-.574-.781-.075-.086-.133-.182-.174-.287l.848.984c.768.895 1.598 1.737 2.484 2.52 2.915 2.604 6.44 4.472 10.267 5.44 3.826.967 7.838 1.005 11.682.109 1.163-.26 2.305-.6 3.419-1.016.403-.177.815-.331 1.236-.462z" fill="#263238"/><path d="m178.953 161.079c.029-.263.085-.523.167-.775.127-.495.347-1.205.668-2.065.837-2.242 1.93-4.385 3.258-6.389 1.336-2.006 2.905-3.855 4.675-5.51.529-.505 1.084-.983 1.663-1.433.202-.182.426-.339.667-.469.04.046-.841.775-2.143 2.071-3.402 3.385-6.071 7.403-7.846 11.815-.742 1.687-1.049 2.774-1.109 2.755z" fill="#263238"/><path d="m180.796 195.826c-.093 0-.875-5.784-1.749-12.942-.875-7.157-1.503-12.974-1.409-12.98.093-.007.881 5.783 1.756 12.941s1.522 12.974 1.402 12.981z" fill="#263238"/><path d="m143.455 203.713c2.851 4.084 5.81 8.213 9.856 11.189 4.047 2.977 9.422 4.644 14.264 3.192 1.534-.485 2.985-1.189 4.307-2.091 1.916-1.251 3.779-2.964 4.053-5.21.069-.252.06-.518-.027-.764s-.247-.461-.461-.617c-.302-.116-.635-.132-.948-.046-3.405.651-6.377 2.977-9.843 3.257-1.78.034-3.554-.211-5.255-.723-6.01-1.479-11.833-3.654-15.946-8.174" fill="#000" opacity=".3"/><path d="m183.507 221.773c.868-1.022 1.456-1.862 2.27-2.807.407-.491.701-1.062.862-1.673.153-.707.153-1.437 0-2.143-.897-6.04-2.396-11.979-4.474-17.735-.052-.069-.09-.147-.111-.23-.022-.083-.026-.17-.013-.254.013-.085.043-.166.088-.24.046-.073.105-.137.176-.188.084-.059.179-.099.281-.117 1.015-.306 2.203-.717 3.218-1.023 1.489 7.165 2.725 15.123 4.194 21.995 0-.098-4.347 3.022-6.498 4.415" fill="#000" opacity=".3"/><path d="m112.544 205.009c-2.409-2.297-4.387-4.989-5.843-7.952-.641-1.26-1.12-2.593-1.429-3.967-.273-1.545-.367-3.116-.28-4.683.143-5.312.884-10.593 2.21-15.748.216.306.352.66.394 1.029 1.015 5.328.394 10.844 1.242 16.198.347 2.162.928 4.279 1.289 6.435.152 1.111.375 2.211.668 3.295.294.971.748 1.896 1.068 2.859.283.922.506 1.859.668 2.808" fill="#000" opacity=".3"/><path d="m154.132 242.198 35.872-24.938-4.193-21.871 23.505-11.853s8.527 34.831 2.891 48.267c-1.909 4.618-60.004 22.614-60.004 22.614z" fill="#ffbe9d"/><path d="m203.547 215.117c0 .059-.802-.228-2.111-.462-.768-.129-1.544-.204-2.323-.222-1.908-.04-3.806.281-5.59.945-.725.27-1.428.594-2.103.97-1.155.651-1.79 1.179-1.83 1.133-.04-.045.127-.163.414-.41.402-.343.833-.653 1.289-.925.672-.414 1.381-.769 2.117-1.061.907-.346 1.846-.605 2.805-.776.961-.157 1.936-.22 2.911-.188.793.031 1.582.131 2.357.299.523.111 1.037.261 1.536.45.187.058.364.141.528.247z" fill="#eb996e"/><path d="m198.458 210.753c-.48.287-.975.548-1.482.788-.908.489-2.137 1.231-3.446 2.098-1.132.711-2.143 1.59-2.998 2.605-.628.794-.861 1.394-.915 1.368.119-.55.363-1.067.715-1.511.819-1.087 1.835-2.019 2.998-2.749 1.124-.762 2.305-1.441 3.532-2.032.5-.266 1.038-.457 1.596-.567z" fill="#eb996e"/><path d="m125.559 259.015c1.923 0 3.479 0 3.479.045 0 .046-1.556.046-3.479.046s-3.479 0-3.479-.046c0-.045 1.563-.045 3.479-.045z" fill="#eb996e"/><path d="m129.906 244.614s-66.3218-26.54-77.3264-28.839c-11.0047-2.299-30.2829-3.426-38.3962 12.375-5.66928 11.026-6.2903 24.098 15.3585 35.235 21.6487 11.137 86.0611 21.493 86.0611 21.493s58.148 14.172 67.584 10.342c9.435-3.829 22.43-11.905 18.503-27.211-3.926-15.305-3.065-23.232-17.235-24.098-13.976-.834-17.415-1.303-30.717 11.209z" fill="#263238"/><path d="m204.989 237.926s11.913 19.402 7.399 30.611-16.026 18.51-16.026 18.51l-19.198-40.856z" fill="#263238"/><path d="m123.402 271.878-.24-.111-.708-.352c-.614-.312-1.523-.781-2.671-1.413-2.304-1.263-5.616-3.139-9.516-5.751-3.899-2.612-8.393-5.927-13.2681-9.769-2.4373-1.902-5.0015-3.908-7.6325-5.999-2.6309-2.09-5.342-4.279-8.2735-6.324-2.8368-1.999-5.8259-3.785-8.9413-5.341-2.926-1.426-5.9387-2.677-9.0214-3.745-5.2162-1.785-10.5505-3.223-15.9661-4.305-4.6209-.957-8.3871-1.576-10.9914-2.019l-2.9982-.501-.7612-.137-.2605-.059h.2605l.7879.105 3.0049.436c2.611.404 6.3905.99 11.0247 1.915 5.4371 1.049 10.7922 2.468 16.0263 4.246 3.0865 1.067 6.1037 2.315 9.0347 3.739 3.1345 1.559 6.1415 3.351 8.9948 5.36 2.9314 2.058 5.6559 4.246 8.2802 6.344 2.6243 2.097 5.1885 4.103 7.6191 6.018 4.8611 3.816 9.3151 7.164 13.2081 9.769s7.165 4.559 9.442 5.829c1.142.652 2.037 1.14 2.671 1.472.294.156.521.287.668.384.086.059.162.129.227.209z" fill="#455a64"/><path d="m124.23 271.461c2.831-1.133-6.056 1.739-9.008.938-4.674-1.27-7.859-6.48-12.734-6.611-3.1319-.078-5.823 2.026-8.7678 3.074-3.5992 1.303-7.5724.977-11.3519.424-3.7795-.554-7.6124-1.303-11.4187-.906-1.1256.033-2.2054.443-3.0583 1.16-.4777.549-.7662 1.23-.825 1.948-.0587.717.1154 1.435.4978 2.051.8069 1.218 2.0376 2.11 3.4657 2.514 1.417.384 2.8643.652 4.327.801 6.8179.996 13.2551 3.628 19.946 5.249 6.9042 1.681 14.0232 2.28 21.1282 2.866-.007 0-.494-10.199 7.799-13.508z" fill="#ffbe9d"/><path d="m185.764 271.865c.054.079.093.167.114.26.1.254.187.515.26.775.281.96.469 1.944.561 2.938.139 1.481.062 2.974-.227 4.435-.348 1.796-1.059 3.508-2.09 5.035-1.063 1.513-2.456 2.779-4.08 3.705-1.315.762-2.768 1.27-4.28 1.498-1.018.157-2.054.157-3.072 0-.275-.04-.547-.096-.815-.169-.096-.018-.19-.046-.28-.085 1.367.209 2.759.209 4.127 0 1.471-.255 2.882-.774 4.16-1.53 1.567-.919 2.913-2.156 3.946-3.628 1.008-1.492 1.711-3.159 2.07-4.911.302-1.43.4-2.894.294-4.35-.07-.992-.222-1.976-.454-2.944-.1-.338-.178-.682-.234-1.029z" fill="#455a64"/><path d="m139.956 259.073 40.446-18.047 12.888 2.631.561 1.355-47.271 18.484-6.624-1.557z" fill="#fff"/><path d="m181.524 242.693-41.568 19.246 13.642 3.204 42.971-19.623z" fill="#455a64"/><path d="m124.23 271.461s21.368-14.231 26.984-17.07c5.616-2.84 35.391-9.483 42.824-6.468 7.432 3.016-22.183 28.944-22.183 28.944z" fill="#263238"/><path d="m167.728 260.037-.16-.058-.454-.189-1.73-.743c-2.107-.935-4.283-1.715-6.51-2.331-1.525-.414-3.093-.656-4.675-.723-.892-.032-1.785.005-2.671.11-.928.123-1.844.321-2.737.593-3.713 1.101-7.252 3.524-10.898 6.038s-7.346 4.715-10.571 6.78c-1.629 1.029-3.165 2.032-4.574 2.996-1.337.841-2.502 1.919-3.432 3.178-.747 1.056-1.349 2.204-1.79 3.413-.407 1.061-.668 1.999-.895 2.774s-.354 1.355-.467 1.785l-.127.469c-.008.055-.026.108-.053.156-.007-.056-.007-.113 0-.169.018-.158.047-.315.086-.469.087-.417.214-1.023.414-1.804.227-.951.508-1.888.842-2.807.433-1.231 1.028-2.403 1.769-3.485.936-1.288 2.111-2.393 3.466-3.256 1.409-.984 2.938-1.993 4.567-3.029 3.246-2.084 6.885-4.272 10.544-6.793 3.66-2.52 7.219-4.956 11.005-6.063 1.773-.549 3.632-.781 5.489-.684 1.612.073 3.211.331 4.761.768 2.234.64 4.409 1.459 6.504 2.449.748.339 1.336.612 1.703.801l.441.215c.055.017.107.044.153.078z" fill="#455a64"/><path d="m171.187 258.891c-.04.045-.601-.482-1.683-1.068-1.419-.738-2.969-1.204-4.567-1.374-1.604-.19-3.222-.241-4.835-.15-.665.064-1.334.085-2.003.065.655-.17 1.327-.273 2.003-.306 1.629-.156 3.27-.138 4.895.052 1.652.169 3.246.685 4.674 1.511.427.249.826.541 1.189.873.128.116.239.25.327.397z" fill="#455a64"/><path d="m199.126 250.607-1.202-.776c-1.113-.669-2.295-1.223-3.526-1.654-1.835-.606-3.742-.983-5.676-1.12-2.369-.162-4.748-.099-7.104.189-2.511.299-4.888.742-7.052 1.146s-4.087.821-5.709 1.185c-1.623.365-2.925.684-3.827.906l-1.068.267c-.119.037-.243.061-.367.071.109-.058.226-.104.347-.136l1.028-.313c.888-.26 2.184-.619 3.8-1.016s3.552-.827 5.709-1.257 4.534-.879 7.072-1.179c2.378-.292 4.781-.346 7.171-.163 1.959.152 3.889.559 5.737 1.212 1.238.45 2.417 1.043 3.512 1.765.297.201.582.419.855.651.213.143.314.215.3.222z" fill="#455a64"/><path d="m97.0054 201.577s3.5856 26.338 5.0286 30.526c1.442 4.188 12.774 19.493 12.774 19.493l15.098-6.982-10.097-18.529-6.971-20.926z" fill="#ffbe9d"/><path d="m129.299 243.657c1.307-.195 2.632-.254 3.953-.176.502-.011.997.123 1.422.384.241.204.438.452.581.73.761 1.316 1.176 2.795 1.209 4.305.035.286-.036.575-.201.814-.327.378-.948.261-1.409.065-.649-.272-1.252-.639-1.789-1.087-.702-.635-1.337-1.335-1.897-2.091l-.587-.749c-.501-.651-1.002-1.257-1.496-1.889" fill="#eb996e"/><path d="m123.843 232.292c1.102 2.748 4.434 11.489 4.434 11.489l2.303 2.462-5.208-14.498c-.066-.191-.205-.35-.387-.445-.183-.094-.395-.117-.595-.063-.104.028-.201.077-.286.142-.084.065-.155.146-.208.238s-.086.193-.099.298c-.012.104-.004.21.026.312z" fill="#e0e0e0"/><path d="m120.971 244.53s-3.225.241-4.126 1.165c-.902.925-1.196 3.713-1.196 3.713s-1.849 2.54-.868 4.767c0 0-1.549 3.498-.287 4.657.526.549 1.137 1.015 1.81 1.381h14.53l5.75-8.617-5.757-5.366s-3.605-5.211-5.555-5.406c-1.95-.196-5.83.189-4.301 3.706z" fill="#ffbe9d"/><path d="m120.971 244.53c-.044-.084-.082-.171-.113-.261-.114-.24-.193-.494-.234-.755-.094-.438-.045-.894.14-1.303.275-.539.754-.953 1.336-1.153.705-.264 1.455-.399 2.21-.397.433-.024.867.011 1.289.104.442.154.852.386 1.209.684 1.588 1.377 2.986 2.949 4.16 4.676l5.769 5.354.1.091-.08.111-5.749 8.623-.047.078h-14.691c-.575-.328-1.108-.721-1.589-1.172-.267-.201-.48-.463-.621-.762-.119-.297-.18-.613-.18-.931.044-1.164.316-2.31.801-3.374v.111c-.339-.858-.382-1.8-.12-2.684.212-.784.557-1.528 1.022-2.201v.078c.104-1.162.423-2.296.941-3.348.126-.225.299-.422.508-.579.194-.129.402-.237.621-.319.375-.149.764-.263 1.162-.339.539-.117 1.086-.202 1.636-.254h.567c-.048.003-.095.014-.14.033l-.421.058c-.367.059-.921.137-1.616.3-.385.09-.762.209-1.128.358-.206.087-.403.194-.588.319-.181.15-.332.331-.447.534-.48 1.029-.774 2.13-.868 3.257-.442.654-.767 1.376-.962 2.136-.239.831-.195 1.716.127 2.52v.105c-.463 1.028-.719 2.134-.755 3.256.001.283.055.564.161.827.125.258.313.482.547.652.454.423.956.794 1.496 1.107h14.41l-.147.078 5.763-8.61v.202l-5.743-5.387c-1.148-1.717-2.517-3.284-4.073-4.663-.33-.282-.71-.503-1.122-.651-.402-.091-.815-.131-1.228-.117-.731-.014-1.458.105-2.144.351-.554.177-1.018.555-1.295 1.055-.181.38-.24.805-.167 1.218.037.267.102.528.193.782.042.063.076.131.1.202z" fill="#eb996e"/><path d="m127.796 256.019c-.629.005-1.257-.045-1.876-.15-.581-.065-1.262-.15-2.004-.254-.412-.053-.815-.156-1.201-.306-.407-.171-.79-.39-1.142-.652-1.221-.899-2.319-1.947-3.266-3.119-.414-.467-.758-.989-1.021-1.55.04-.033.46.54 1.215 1.393.983 1.109 2.082 2.116 3.279 3.003.327.258.686.477 1.068.651.362.142.738.244 1.122.306l2.003.326c.617.065 1.227.183 1.823.352z" fill="#eb996e"/><path d="m127.188 259.679c-.593.138-1.2.207-1.809.208-.669.037-1.339.016-2.004-.065-.816-.11-1.609-.345-2.35-.697-1.316-.671-2.507-1.551-3.526-2.605-.451-.403-.857-.853-1.208-1.341.488.353.948.742 1.375 1.165 1.046.98 2.225 1.813 3.506 2.475 1.313.591 2.749.874 4.193.828.608-.032 1.217-.021 1.823.032z" fill="#eb996e"/><path d="m129.752 252.391c-.51-.175-.995-.413-1.442-.71-2.236-1.311-4.22-2.993-5.863-4.969-.367-.39-.675-.829-.915-1.303.08-.065 1.569 1.85 3.853 3.778 2.284 1.927 4.427 3.113 4.367 3.204z" fill="#eb996e"/><path d="m97.0054 264.082v-5.009h42.9506v1.615.326l-6.017 4.129z" fill="#fff"/><path d="m133.145 265.515h-39.3511v-2.019h42.4431z" fill="#455a64"/><path d="m147.228 243.748c-.454.085-10.017 1.687-10.017 1.687l-6.824 7.992v5.646s2.09 1.186 3.091-.586c0 0-2.096 5.771-1.275 6.617.821.847 2.144 1.55 3.279 0 1.056-1.719 1.969-3.518 2.731-5.379l.274 2.383s5.736-2.735 6.37-3.536 4.374-6.038 4.374-6.038l1.729-1.511-1.729 2.664s-3.099 3.198-1.823 3.823c1.275.625 3.552-1.687 3.552-1.687l3.546-3.999 3.005-.351c.08-1.937-.073-3.875-.454-5.777-.207-1.231-2.364-3.719-2.15-3.98v-.039z" fill="#ffbe9d"/><path d="m139.288 247.975c-.36.496-.752.968-1.175 1.414-.953 1.114-1.844 2.277-2.671 3.484-.366.702-.616 1.456-.741 2.234-.201.716-.421 1.355-.615 1.882-.176.585-.418 1.148-.721 1.681.116-.596.279-1.182.488-1.752.167-.535.354-1.173.534-1.889.093-.365.167-.736.254-1.133.087-.43.259-.84.507-1.205.832-1.226 1.765-2.382 2.791-3.459.396-.47.849-.893 1.349-1.257z" fill="#eb996e"/><path d="m144.129 249.31s-.113.144-.34.378l-.935 1.01c-.394.429-.862.95-1.336 1.53-.247.293-.514.599-.774.925-.289.308-.515.666-.668 1.055-.815 2.69-1.516 5.015-1.81 5.771l-.08.208v-.215c0-.234-.033-.345 0-.352.034-.006.06.105.12.333h-.126c.166-.808.761-3.12 1.589-5.862.074-.219.177-.427.307-.619.127-.189.26-.358.394-.521.267-.332.541-.651.801-.925.521-.579 1.009-1.081 1.423-1.491.408-.48.893-.894 1.435-1.225z" fill="#eb996e"/><path d="m146.6 250.991c-.26.442-.581.847-.955 1.205l-1.108 1.237c-.219.234-.422.482-.608.742-.184.283-.336.584-.454.899-.247.652-.407 1.303-.587 1.915l-.475 1.576c-.119.495-.294.975-.52 1.433.039-.505.133-1.005.28-1.491l.407-1.603c.156-.66.345-1.312.568-1.953.126-.338.295-.66.501-.958.206-.269.429-.526.668-.768.427-.463.834-.86 1.168-1.192.34-.379.713-.727 1.115-1.042z" fill="#eb996e"/><path d="m157.825 251.101c-.067.027-.136.046-.207.059l-.634.156-2.458.567c-.487.56-1.048 1.205-1.689 1.954l-1.015 1.159c-.362.437-.747.854-1.155 1.251-.463.427-.974.803-1.523 1.12-.297.169-.619.294-.955.371-.186.052-.383.057-.572.015-.189-.043-.364-.13-.509-.256-.066-.08-.113-.172-.139-.271-.027-.098-.032-.201-.015-.302.025-.186.075-.367.147-.541.152-.336.335-.659.548-.964.435-.625.92-1.218 1.449-1.771l1.722-2.67.214.175-1.723 1.551-4.113 5.711c-.094.124-.174.248-.281.372-.117.12-.247.229-.387.325-.26.189-.527.359-.801.521-.548.326-1.109.652-1.683.932-1.14.603-2.315 1.196-3.526 1.778l-.213.104v-.234c-.087-.749-.181-1.564-.274-2.384l.327.045c-.454 1.069-.935 2.143-1.482 3.218-.267.54-.555 1.074-.875 1.602-.3.581-.763 1.067-1.336 1.4-.206.1-.43.158-.66.17-.23.013-.459-.021-.675-.098-.412-.155-.787-.39-1.102-.69-.085-.074-.163-.155-.234-.241-.07-.103-.117-.218-.14-.339-.04-.215-.053-.434-.04-.651.027-.405.08-.807.16-1.205.341-1.547.787-3.07 1.336-4.559l.314.136c-.152.282-.37.525-.637.707-.268.183-.576.3-.899.342-.626.038-1.25-.103-1.796-.404l-.081-.039v-5.862c2.478-2.885 4.775-5.562 6.852-7.972v-.039h.053l10.016-1.647 5.703-1.498 1.516-.385.394-.091c.04 0 .08-.032.1 0 .02.033 0 .033 0 .033-.163.015-.322.052-.474.11l-1.503.43-5.676 1.576-10.016 1.726.074-.065-6.812 8.005.04-.098v5.647l-.086-.143c.485.261 1.036.383 1.589.351.27-.033.528-.13.751-.284.222-.153.402-.357.524-.595l.308.137c-.529 1.465-.961 2.962-1.296 4.481-.078.382-.129.77-.154 1.159-.009.187.003.375.034.56.033.166.131.314.274.41.242.289.569.498.937.598s.759.087 1.119-.037c.507-.318.91-.77 1.162-1.303.314-.515.595-1.042.868-1.576.535-1.068 1.022-2.136 1.469-3.192l.261-.605.073.651c.094.814.187 1.628.267 2.377l-.24-.13c1.202-.573 2.377-1.166 3.512-1.758.568-.307 1.129-.606 1.67-.925.267-.163.534-.326.781-.502.118-.08.228-.172.327-.273.1-.111.187-.248.274-.365 1.442-1.954 2.825-3.908 4.127-5.686l1.729-1.511.775-.651-.554.846-1.736 2.658c-.521.545-1.001 1.126-1.436 1.739-.203.287-.378.592-.521.912-.07.126-.108.267-.112.411-.003.143.028.286.092.416.121.09.261.153.41.182.15.029.304.025.451-.013.313-.066.613-.18.888-.339.537-.302 1.036-.663 1.49-1.074.409-.391.796-.801 1.161-1.231l1.022-1.14 1.716-1.902 2.478-.514.667-.124c.091-.014.183-.016.274-.007z" fill="#eb996e"/><path d="m108.939 105.921c-1.547-1.118-2.735-2.644-3.424-4.398-.688-1.7534-.849-3.6624-.463-5.5022.169-.3033.208-.6594.107-.9903-.1-.3309-.33-.6095-.641-.7747-.097-.0584-.203-.1002-.314-.1238-.901-.4594-1.697-1.0931-2.338-1.8624-.642-.7693-1.117-1.658-1.395-2.612-.261-.9605-.259-1.9711.008-2.9303.266-.9592.786-1.8332 1.508-2.5341-2.958-1.0225-4.2-4.9043-2.8111-7.6462 1.3891-2.742 4.8081-4.1553 7.9261-3.7906-1.075-1.5436-.607-3.7645.668-5.1518 1.376-1.3157 3.156-2.1553 5.068-2.3902 2.531-.4494 5.569-.1629 7.018 1.9083.134-1.5306 1.717-2.5596 3.246-2.9309 2.073-.425 4.233-.091 6.07.9385 1.836 1.0295 3.219 2.6823 3.886 4.6432 1.257-1.0098 2.803-1.615 4.427-1.7325 1.616 0 3.339.9509 3.686 2.488.668-1.4003 2.431-1.9539 4.007-2.1233 1.141-.1558 2.304.0257 3.339.5211.512.2605.93.6681 1.198 1.1677.267.4997.371 1.0673.297 1.6263 1.051-.389 2.214-.3791 3.257.0276 1.044.4067 1.893 1.1806 2.38 2.1687.487.9882.576 2.1185.249 3.1675-.326 1.049-1.045 1.9402-2.013 2.4974.854.4648 1.571 1.1352 2.083 1.9473s.802 1.7387.842 2.6913-.17 1.8993-.612 2.7497-1.1 1.5761-1.912 2.1076c.962.0782 1.449 1.3417 1.015 2.1884-.257.4013-.607.7378-1.023.9823-.415.2444-.884.3898-1.367.4245l1.141 9.7039c.354 2.078.374 4.196.061 6.279-.435 2.058-1.67 4.071-3.64 4.924" fill="#263238"/><path d="m107.87 96.5743c-.494-7.8742 7.138-16.7318 15.225-16.8816l26.503 1.6478.454 4.2139 6.17 54.3506-28.874 16.055-1.776-20.458s-10.444-.403-14.236-13.169c-1.87-6.35-2.885-17.012-3.466-25.7587z" fill="#ffbe9d"/><path d="m112.137 106.103c.054.435.279.834.628 1.111.348.277.794.411 1.242.374.215-.009.427-.058.623-.147.195-.088.371-.214.517-.369s.259-.336.332-.534c.074-.197.107-.407.097-.618v-.052c-.052-.435-.276-.833-.623-1.11-.348-.277-.793-.411-1.24-.375-.436.019-.847.206-1.143.519-.295.314-.451.73-.433 1.155z" fill="#263238"/><path d="m110.968 101.811c.241.189 1.423-.905 3.266-1.127 1.843-.221 3.339.515 3.479.274.087-.111-.18-.476-.821-.827-.87-.4376-1.855-.6058-2.825-.4825-.958.112-1.855.5205-2.558 1.1655-.514.495-.654.912-.541.997z" fill="#263238"/><path d="m128.617 104.794c.051.437.275.837.624 1.114.35.278.797.411 1.246.371.216-.009.429-.06.625-.15.196-.089.372-.216.518-.372s.258-.339.332-.538c.073-.199.105-.41.094-.621v-.039c-.052-.435-.276-.833-.623-1.11-.348-.277-.793-.411-1.24-.375-.436.019-.847.206-1.143.519-.295.314-.451.729-.433 1.155z" fill="#263238"/><path d="m129.125 100.3c.24.195 1.422-.8991 3.265-1.1205s3.305.5145 3.479.267c.087-.1107-.18-.4754-.821-.8206-.868-.4422-1.854-.6128-2.825-.4885-.957.1163-1.852.5243-2.557 1.1658-.515.5211-.655.9378-.541.9968z" fill="#263238"/><path d="m124.157 114.081c0-.104-1.176-.156-3.065-.163-.475 0-.929 0-1.049-.332-.102-.467-.053-.954.14-1.393.294-1.166.615-2.391.942-3.667 1.295-5.211 2.17-9.4767 1.95-9.5223-.221-.0456-1.436 4.1353-2.731 9.3463l-.862 3.673c-.22.591-.22 1.239 0 1.83.089.154.213.285.363.385.149.099.32.164.499.188.268.033.539.033.808 0 1.843-.11 3.005-.241 3.005-.345z" fill="#263238"/><path d="m125.599 135.509c6.301-.675 12.286-3.042 17.288-6.839 0 0-3.579 9.679-17.101 10.089z" fill="#eb996e"/><path d="m125.492 118.315c.295-.473.708-.864 1.201-1.138.493-.273 1.05-.42 1.617-.425.412-.016.823.05 1.207.194.385.145.735.364 1.03.646.284.27.476.618.551.997.075.38.03.772-.13 1.126-.256.36-.615.637-1.033.795-.417.159-.874.193-1.311.097-.909-.196-1.769-.566-2.531-1.087-.226-.117-.428-.274-.594-.463-.076-.089-.124-.198-.139-.314-.014-.115.006-.232.059-.337" fill="#eb996e"/><path d="m129.732 114.661c-.3 0-.06 1.954-1.589 3.569s-3.693 1.635-3.673 1.908c0 .131.521.326 1.423.235 1.174-.125 2.264-.651 3.078-1.485.775-.798 1.204-1.858 1.195-2.957 0-.84-.3-1.303-.434-1.27z" fill="#263238"/><path d="m127.749 93.9757c.241.4624 2.057 0 4.247 0 2.191 0 4.007.3517 4.247-.1238.1-.2214-.26-.6513-1.028-1.0355-1.015-.4619-2.126-.685-3.245-.6513-1.123.011-2.227.2763-3.226.775-.754.3778-1.101.8467-.995 1.0356z" fill="#263238"/><path d="m110.982 96.5223c.374.3712 1.589-.2084 3.112-.4103 1.522-.2019 2.858-.0717 3.098-.5341.107-.228-.153-.6122-.768-.9249-.817-.3698-1.729-.4948-2.619-.3592-.89.1357-1.719.5259-2.382 1.1213-.488.4884-.621.9248-.441 1.1072z" fill="#263238"/><path d="m111.469 80.8911c-.282 1.2469-.173 2.5476.312 3.7334.486 1.1859 1.325 2.2021 2.41 2.9168s2.365 1.095 3.674 1.0914c1.309-.0035 2.587-.3907 3.667-1.1113-.781.9378-.44 2.4423.488 3.2565.992.7431 2.243 1.0795 3.485.9378 1.3-.0894 2.565-.4503 3.709-1.0583 1.144-.6079 2.141-1.4486 2.922-2.4652.262.9857.758 1.8973 1.449 2.6604s1.557 1.3561 2.527 1.7307c.971.3746 2.019.5202 3.058.4249s2.041-.4288 2.923-.9733c-.597.7116-1.016 1.5492-1.223 2.4462-.207.8971-.197 1.8288.03 2.7213s.664 1.7211 1.276 2.42c.613.6986 1.384 1.2486 2.253 1.6066.868.357 1.811.512 2.751.452.941-.06 1.854-.333 2.668-.797.814-.465 1.505-1.1079 2.019-1.8786.514-.7706.837-1.6476.943-2.5612.77-.4337 1.445-1.0111 1.986-1.6993s.937-1.4736 1.167-2.3114c.229-.8378.287-1.7115.17-2.5711-.117-.8597-.406-1.6884-.852-2.4387-.304-.5145-.679-.9857-1.115-1.4003.633-.321 1.168-.7986 1.553-1.385.384-.5864.604-1.2609.637-1.9562.043-1.3904-.284-2.7681-.948-3.999-1.489-3.0676-4.067-5.7444-7.346-6.793-3.278-1.0486-7.345-.1954-9.448 2.488-.201.3299-.499.5931-.855.7555-.267.028-.536-.0058-.787-.0986s-.475-.242-.655-.4355c-1.837-1.4784-3.767-3.0676-6.117-3.4063-1.43-.1651-2.876.145-4.104.88-1.227.7351-2.164 1.8523-2.661 3.1711-1.929-2.4749-5.562-3.7515-8.493-2.5336-2.932 1.218-4.474 5.1583-2.672 7.731" fill="#263238"/><path d="m146.42 98.7366c.476 2.6324 1.335 5.1854 2.551 7.5814.514 1.009 1.269 2.11 2.424 2.221.53.002 1.046-.161 1.474-.465.428-.305.744-.736.903-1.229.294-.996.333-2.047.113-3.061-.602-3.617-1.454-7.1895-2.55-10.6942" fill="#263238"/><path d="m149.712 101.459c.153-.104 6.444-3.1196 7.405 3.511.962 6.63-6.063 6.206-6.103 6.018-.04-.189-1.302-9.529-1.302-9.529z" fill="#ffbe9d"/><path d="m152.73 108.194c.11.051.224.093.341.123.299.078.617.04.888-.104.668-.358 1.129-1.55.988-2.755-.067-.571-.264-1.12-.574-1.609-.094-.198-.236-.371-.414-.504s-.387-.221-.608-.258c-.144-.021-.291.009-.414.086s-.213.194-.253.331c-.067.196 0 .319-.04.339-.041.019-.161-.091-.147-.371.013-.171.086-.332.207-.456.179-.168.419-.261.667-.261.287.017.564.105.806.256.241.15.44.358.577.604.366.536.595 1.15.667 1.791.147 1.342-.367 2.69-1.335 3.107-.173.08-.363.122-.554.122-.192 0-.381-.042-.555-.122-.213-.163-.267-.306-.247-.319z" fill="#eb996e"/><path d="m113.145 112.603c-1.629 0-3.652-.111-4.314-.651-.974-.756-2.237-3.837-3.338-6.748-.141-.371-.234-.651-.267-.69l.581-.313c.121.254.226.515.313.782.595 1.563 2.164 5.712 3.125 6.46 1.136.88 9.776.417 10.511-.24.454-.469 1.202-4.429 1.583-7.093l.04-.241 3.405-.482.107.208c.862 1.674 3.446 6.175 5.042 6.885 2.003.885 9.262-.476 9.729-1.303.407-.697 1.202-5.308 1.636-8.232l.04-.261 10.464-.7489.047.6509-9.923.717c-.221 1.452-1.122 7.249-1.676 8.2-.748 1.302-8.574 2.462-10.591 1.569-2.017-.892-4.674-5.861-5.249-6.975l-2.437.345c-.22 1.505-1.008 6.467-1.73 7.21-.721.742-5.008.873-5.495.892-.488.02-.982.059-1.603.059z" fill="#455a64"/><path d="m125.112 104.52-.795-1.048c4.233-3.055 12.146-5.022 17.535-2.873l-.501 1.205c-4.807-1.9146-12.28-.143-16.239 2.716z" fill="#455a64"/><path d="m105.713 105.158-.668-1.146c5.242-2.755 12.367-2.859 16.941-.247l-.667 1.126c-4.1-2.364-10.825-2.247-15.606.267z" fill="#455a64"/><path d="m154.974 104.976c-.371-.214-.794-.327-1.226-.327-.431 0-.854.113-1.225.327-.241.178-.423.421-.525.699-.101.278-.118.579-.047.866.071.286.226.547.446.749s.496.337.794.389c.312.013.621.072.915.176.143.093.261.219.344.366.083.148.127.313.13.481 0 .334-.034.668-.1.996-.106.765-.049 1.543.167 2.286.051.221.167.422.333.58.154.111.343.169.535.163.296-.013.586-.095.844-.239.258-.143.476-.345.638-.589.319-.49.522-1.044.594-1.621.153-.887.175-1.791.067-2.684-.033-.552-.213-1.086-.521-1.55-.527-.716-2.551-1.302-3.452-1.394" fill="#263238"/><path d="m132.31 86.8178c-.063.0339-.13.0601-.2.0782-.14.0456-.347.1042-.621.1693-.79.1962-1.603.2925-2.418.2866-.584-.0057-1.165-.0845-1.729-.2345-.726-.1769-1.399-.5154-1.968-.9889s-1.017-1.069-1.311-1.74c-.362-.8049-.405-1.7126-.12-2.5466l.24.1563c-1.45 1.2834-3.286 2.078-5.235 2.2666-1.063.1058-2.138.0241-3.172-.241-.546-.1369-1.066-.3567-1.542-.6513-.496-.3046-.897-.7345-1.162-1.244-.281-.5982-.42-1.2505-.407-1.9083-.002-.6259.048-1.2509.146-1.8692.074-.6111.241-1.2081.495-1.7716.116-.2867.296-.5447.527-.7553s.507-.3686.808-.4626l.114.2996c-1.11.4773-2.351.5782-3.526.2866-1.069-.2427-2.046-.7756-2.818-1.5371-.689-.6762-1.154-1.5383-1.336-2.4749-.178-.9627-.095-1.9541.243-2.8754.337-.9212.917-1.7398 1.681-2.3741.313-.2737.672-.4939 1.061-.6513-.345.2154-.675.4525-.988.7099-.848.7468-1.442 1.7285-1.703 2.8136-.188.7558-.206 1.5423-.053 2.3056.183.8845.632 1.696 1.289 2.3317.738.7084 1.662 1.2042 2.671 1.4328 1.114.2719 2.29.171 3.338-.2865l.114.2996c-.259.0824-.495.2198-.693.4022-.197.1825-.351.4055-.449.6529-.239.532-.395 1.0963-.461 1.6738-.153 1.1789-.307 2.4749.234 3.5821.263.4415.62.8225 1.048 1.1169.427.2945.915.4956 1.429.5895 1.411.3541 2.888.364 4.303.0289s2.724-1.0049 3.811-1.9502l.454-.4038-.207.5601c-.269.7658-.236 1.6016.093 2.3447.291.6821.75 1.2838 1.336 1.752.514.4098 1.11.7113 1.749.8858.548.1547 1.113.2422 1.683.2605.802.0204 1.604-.0473 2.391-.2019.567-.0586.861-.1368.861-.1173z" fill="#fff"/><path d="m110.888 86.4728c-.125.1165-.272.2073-.434.267-.422.1827-.875.2865-1.335.3061-.704.0395-1.402-.1309-2.004-.4884-.38-.2318-.653-.5984-.761-1.0226-.065-.2366-.056-.4866.024-.7185.081-.2319.231-.4352.43-.5841l.174.2931-.114.0456c-.731.2982-1.519.4364-2.311.4049-.791-.0315-1.566-.2319-2.27-.5873-.422-.2081-.81-.4783-1.148-.8011-.234-.2344-.341-.3842-.327-.3973.496.3729 1.026.702 1.582.9835.677.3064 1.412.4721 2.158.4867s1.487-.1223 2.176-.402l.107-.0391 1.569-.6513-1.396.9248c-.143.1105-.25.2592-.308.4281-.058.1688-.065.3505-.019.5228.091.3414.31.6367.615.8272.548.3402 1.186.5189 1.836.5145.597-.0258 1.188-.131 1.756-.3126z" fill="#fff"/><path d="m118.454 100.638c0 .046-.441-.247-1.182-.553-.96-.4131-2.008-.5927-3.055-.5235s-2.061.3851-2.955.9205c-.668.404-1.055.749-1.095.71.246-.371.574-.683.962-.912.9-.6138 1.955-.9754 3.051-1.0455 1.096-.07 2.191.1542 3.165.6485.427.16.808.419 1.109.755z" fill="#eb996e"/><path d="m136.524 98.398c-.328-.1303-.668-.2736-.969-.4299-.772-.321-1.611-.46-2.449-.4057-.837.0543-1.65.3004-2.372.7183-.286.2006-.585.3834-.895.5471.203-.2968.464-.5514.768-.749.73-.501 1.587-.7964 2.478-.8538.89-.0574 1.779.1253 2.571.5282.601.3126.928.5927.868.6448z" fill="#eb996e"/><path d="m131.449 115.143c-.047 0-.141-.104-.321-.248-.244-.174-.524-.294-.821-.351-.708-.124-1.336-.052-1.336-.17.443-.228.958-.286 1.443-.162.36.063.686.247.921.521.167.215.167.39.114.41z" fill="#eb996e"/><path d="m132.838 115.931c-.094 0-.301-.456-.668-.997-.367-.54-.668-.937-.601-1.009s.541.247.901.834c.361.586.488 1.172.368 1.172z" fill="#eb996e"/><path d="m118.694 133.041c.034.088.059.18.074.273.046.202.107.476.187.821.16.742.394 1.797.667 3.159.621 2.735 1.483 6.708 3.032 11.488 1.712 5.627 4.488 10.891 8.187 15.521 1.061 1.303 2.217 2.56 3.412 3.843.562.668 1.2 1.271 1.903 1.797.724.496 1.618.697 2.491.56.892-.174 1.733-.539 2.464-1.068.764-.541 1.483-1.14 2.15-1.791 1.396-1.27 2.718-2.644 4.007-4.058 5.188-5.698 9.074-12.101 10.918-18.47.893-3.006 1.383-6.113 1.455-9.242.062-2.727-.108-5.455-.507-8.155-.619-3.911-1.459-7.785-2.518-11.606-.36-1.341-.667-2.39-.834-3.126-.087-.345-.161-.612-.214-.814-.027-.092-.047-.186-.06-.28.039.089.073.18.1.273.06.196.14.463.24.808.214.723.515 1.772.895 3.107 1.106 3.814 1.978 7.69 2.611 11.606.413 2.712.596 5.452.548 8.193-.059 3.155-.542 6.288-1.436 9.32-1.843 6.429-5.749 12.883-10.965 18.608-1.335 1.426-2.671 2.807-4.053 4.084-.675.66-1.403 1.268-2.177 1.817-.772.559-1.661.943-2.604 1.126-.963.143-1.945-.091-2.731-.651-.725-.539-1.383-1.158-1.963-1.843-1.189-1.303-2.351-2.566-3.413-3.869-3.698-4.668-6.47-9.97-8.173-15.631-1.177-3.794-2.155-7.644-2.932-11.534-.267-1.362-.48-2.43-.627-3.172-.067-.352-.114-.652-.154-.827-.003-.09.004-.179.02-.267z" fill="#263238"/><path d="m143.348 243.058c-.008-.064-.028-.126-.06-.182-.065-.181-.116-.366-.154-.554-.06-.228-.14-.554-.234-.905-.086-.418-.146-.84-.18-1.264-.248-2.708-.006-5.437.715-8.063.774-3.348 2.263-7.164 3.338-11.554.597-2.281.886-4.628.862-6.982-.087-2.524-.636-5.012-1.623-7.347-.948-2.429-2.123-4.708-3.192-6.942-1.068-2.234-2.123-4.442-2.257-6.761-.133-2.319.802-4.39 1.336-6.311.274-.921.413-1.874.414-2.833-.031-.892-.216-1.773-.548-2.605-.608-1.412-1.32-2.779-2.13-4.09-.608-1.008-1.095-2.081-1.449-3.198-.12-.413-.2-.836-.24-1.264-.02-.31-.02-.621 0-.931l.1-.573c.006-.065.02-.128.04-.189-.146.977-.068 1.973.227 2.918.375 1.097.875 2.15 1.489 3.139.835 1.313 1.569 2.685 2.197 4.103.343.848.539 1.746.581 2.657.013.995-.119 1.986-.394 2.944-.501 1.954-1.396 3.98-1.262 6.22.133 2.241 1.175 4.429 2.244 6.643 1.068 2.215 2.25 4.507 3.211 6.956.996 2.374 1.55 4.901 1.637 7.464.022 2.381-.277 4.755-.889 7.06-1.121 4.409-2.637 8.22-3.439 11.541-.734 2.598-1.016 5.297-.834 7.985.027.421.079.841.153 1.257.074.352.141.651.194.905s.087.417.12.561c.016.064.025.129.027.195z" fill="#263238"/><path d="m136.236 169.813-.207.723 1.623 2.006h.681l1.79-2.006-.287-.723z" fill="#455a64"/><path d="m.874993 237.984 29.915607 51.407 115.9964.046c.469-.003.917-.187 1.247-.512.331-.325.516-.763.516-1.22.002-.457-.182-.896-.511-1.22-.329-.325-.777-.509-1.245-.513l-38.537-1.048c-.867-.011-1.716-.249-2.457-.69-.74-.441-1.345-1.069-1.75-1.818l-25.0205-46.535c-.2541-.47-.6331-.864-1.0972-1.141s-.9962-.428-1.5404-.435l-72.87258-.71c-.53152-.01-1.05608.119-1.52038.371-.46429.253-.85178.621-1.123095 1.066-.271312.446-.416777.954-.421619 1.473-.004841.518.131115 1.029.394056 1.479z" fill="#c0e1d9"/><path d="m1.02832 236.05h5.28198l14.3969.124 47.5044.527 3.459.046h1.7094c.5955-.003 1.1827.135 1.7118.402.529.266.9841.653 1.3265 1.129.3272.488.5409.97.8147 1.452l1.5359 2.859 5.8562 10.896c3.7261 6.943 7.0783 13.202 9.8962 18.458l6.6777 12.46c.768 1.465 1.375 2.605 1.789 3.393.194.384.348.651.461.886.114.234.14.312.14.312l-.173-.293c-.12-.208-.281-.501-.488-.873-.434-.781-1.055-1.914-1.849-3.367-1.6029-2.937-3.9067-7.164-6.7447-12.407s-6.2101-11.469-10.0164-18.406l-5.8762-10.889-1.5426-2.853c-.2604-.469-.5008-.99-.7879-1.413-.3101-.431-.7225-.782-1.202-1.023-.4816-.24-1.0149-.365-1.5559-.365h-1.7161l-3.4523-.039-47.5311-.651-14.39692-.228-3.89304-.072h-1.015z" fill="#263238"/><path d="m49.4679 260.168c.0494.547-.0686 1.095-.3391 1.577-.2705.481-.6813.874-1.1805 1.127-.4992.254-1.0643.357-1.6238.297-.5595-.059-1.0882-.28-1.5193-.633-.4311-.352-.7451-.822-.9024-1.349-.1572-.527-.1506-1.088.019-1.612.1696-.523.4946-.986.9339-1.329s.973-.552 1.5338-.599h.2471c.7172-.028 1.4168.221 1.947.693.5301.472.8479 1.129.8843 1.828z" fill="#f0ebd6"/><path d="m177.745 120.803 11.031-6.109c6.277 3.78 13.776 5.134 21.024 3.795 7.249-1.34 13.721-5.275 18.145-11.032 4.425-5.758 6.481-12.9215 5.765-20.0828-.717-7.1612-4.153-13.8021-9.635-18.6173-5.482-4.8151-12.612-7.4561-19.989-7.4038s-14.467 2.7941-19.876 7.6864c-5.41 4.8923-8.747 11.5813-9.356 18.7519-.61 7.1707 1.553 14.3046 6.062 19.9986z" fill="#fff"/><path d="m177.744 120.803 3.059-13.026v-.13l.106.084-.126.118c-1.451-1.825-2.677-3.81-3.653-5.914-1.15-2.5113-1.928-5.1692-2.31-7.894-.219-1.5098-.297-3.0357-.234-4.5591.04-.7816.06-1.5762.133-2.3838.074-.8076.247-1.6087.374-2.4293 1.456-7.2455 5.69-13.6766 11.84-17.9824 3.399-2.3978 7.286-4.0569 11.398-4.8652 4.346-.8296 8.827-.714 13.122.3387 4.5 1.0795 8.672 3.1919 12.166 6.1613l1.336 1.1789c.441.3842.808.8466 1.222 1.2635.421.4046.809.84 1.162 1.3026l1.062 1.3807c.367.4616.701.9468 1.001 1.4524l.908 1.4589.762 1.5306c.268.4997.504 1.0152.707 1.5436 1.648 4.0984 2.333 8.5051 2.004 12.8957-.293 4.1552-1.517 8.1969-3.586 11.8409-3.734 6.546-9.904 11.443-17.235 13.677-3.117.887-6.356 1.302-9.602 1.231-2.818-.079-5.609-.553-8.287-1.407-2.225-.718-4.356-1.686-6.351-2.885h.087l-11.071 6.037 10.998-6.193h.08c1.991 1.179 4.115 2.13 6.33 2.833 2.657.835 5.423 1.293 8.214 1.361 3.217.051 6.424-.377 9.508-1.27 7.247-2.226 13.344-7.077 17.035-13.554 2.045-3.607 3.251-7.6098 3.532-11.723.319-4.3414-.365-8.6972-2.003-12.7459-.189-.5213-.412-1.0304-.668-1.5241l-.748-1.511-.901-1.4459c-.281-.4938-.601-.9662-.955-1.4133l-1.082-1.3417c-.34-.4689-.774-.8597-1.155-1.3026-.371-.4447-.775-.8626-1.209-1.2505l-1.335-1.1593c-3.453-2.9368-7.573-5.0288-12.02-6.1026-4.246-1.0417-8.676-1.1596-12.974-.3452-4.065.8-7.907 2.4364-11.272 4.8-6.09 4.2574-10.294 10.6134-11.759 17.7805-.127.8076-.254 1.6152-.381 2.4033-.127.788-.087 1.5891-.14 2.3642-.06 1.51.013 3.0223.22 4.52.681 5.0022 2.703 9.7401 5.863 13.7361l.401.514-.521-.39.134-.046z" fill="#263238"/><path d="m199.086 88.8177h-7.572l-1.509 3.4193h-2.899l6.818-14.778h2.758l6.838 14.778h-2.945zm-.928-2.1558-2.858-6.4609-2.831 6.4609z" fill="#263238"/><path d="m221.222 91.8919h-13.856c-.266 0-.521-.1029-.708-.2862-.188-.1832-.294-.4317-.294-.6908s.106-.5076.294-.6908c.187-.1832.442-.2861.708-.2861h13.836c.266 0 .52.1029.708.2861s.294.4317.294.6908-.106.5076-.294.6908c-.188.1833-.442.2862-.708.2862z" fill="#263238"/><path d="m214.304 91.8918c-.266 0-.521-.103-.708-.2862-.188-.1832-.294-.4317-.294-.6908v-3.6407c0-.2591.106-.5076.294-.6908.187-.1832.442-.2862.708-.2862s.52.103.708.2862.294.4317.294.6908v3.6407c0 .2591-.106.5076-.294.6908s-.442.2862-.708.2862z" fill="#263238"/><path d="m207.733 103.504c-.241.012-.479-.063-.669-.209-.189-.146-.318-.354-.363-.586-.045-.231-.002-.471.12-.674.122-.204.316-.357.545-.432.093-.039 9.268-3.8625 10.063-10.8249.012-.1305.051-.2574.114-.3731s.149-.218.253-.3008.224-.1445.353-.1814.264-.0484.398-.0336c.133.0147.262.0554.38.1195.117.0641.22.1504.302.2539.083.1034.143.2219.178.3485.035.1265.043.2586.025.3884-.928 8.1022-10.857 12.2315-11.278 12.4075-.13.065-.275.098-.421.097z" fill="#263238"/><path d="m218.718 103.504c-.095 0-.189-.013-.281-.039-5.128-1.459-9.188-7.9781-9.348-8.2516-.068-.1099-.113-.2318-.133-.3587s-.013-.2564.018-.381c.032-.1245.088-.2418.166-.3451s.177-.1906.289-.2569c.113-.0663.238-.1103.368-.1295.13-.0191.263-.0131.391.0177.127.0309.248.0859.354.1621s.195.172.263.2819c.04.0651 3.826 6.1421 8.2 7.3861.252.076.462.246.587.472.125.227.154.492.081.739-.06.202-.185.38-.357.507s-.382.196-.598.196z" fill="#263238"/><path d="m233.937 255.154-.273.597-.565-.356.261-.597zm-.801.372-.267.604-.564-.35.254-.604zm1.681 4.599h-.498c-.17 0-.315-.168-.443-.51-.113-.316-.19-.649-.23-.989-.063.146-.154.271-.267.363-.098.083-.215.128-.334.131-.224.005-.447-.017-.668-.065-.182-.044-.267-.102-.267-.167.018-.156.061-.306.128-.441s.155-.252.261-.345c.29-.314.62-.572.977-.764-.014-.058-.024-.116-.031-.175-.004-.058-.004-.117 0-.175.006-.112.033-.222.079-.32.054-.101.113-.199.176-.291.025.175.049.342.073.502 0 .16.049.328.085.502l.103.728c.061.393.115.684.158.873.042.189.146.437.224.437h.498zm-1.214-1.863-.067-.451c-.165.069-.323.159-.473.269-.118.098-.217.224-.291.371.055.026.112.045.17.058.089.009.178.009.267 0 .078-.005.153-.032.222-.077.068-.045.127-.109.172-.185z" fill="#f0ebd6"/><path d="m236.658 260.1h-1.817v-.723h1.584c.008-.246-.022-.492-.089-.723-.08-.19-.181-.363-.3-.513l.25-.68c.117.179.215.379.289.593.068.345.096.7.083 1.056zm0 .824-.255.6-.512-.354.239-.593zm-.739.376-.239.6-.517-.347.234-.6z" fill="#f0ebd6"/><path d="m238.478 259.669h-1.817v-.605h1.578c.008-.206-.022-.411-.089-.605-.079-.157-.178-.302-.294-.429l.244-.569c.12.148.217.316.289.496.073.288.103.586.089.884zm-.328.841-.25.502-.516-.29.238-.508z" fill="#f0ebd6"/><path d="m242.123 259.928c-.012.352-.11.686-.277.946-.171.288-.374.534-.601.728-.167.167-.361.269-.565.298-.149 0-.297-.027-.441-.08-.118-.044-.257-.109-.426-.196l-.421-.226.046-.167.406.109c.127.035.255.055.385.058.279-.011.55-.129.785-.342.242-.206.456-.472.631-.786.153-.239.245-.544.262-.866-.003-.242-.049-.48-.133-.691-.086-.215-.189-.416-.308-.597l.169-.655c.142.184.263.398.359.633.086.25.13.524.129.801z" fill="#f0ebd6"/><path d="m245.764 260.124h-.609c-.19-.003-.378-.053-.55-.147-.207-.09-.378-.26-.485-.479-.185.187-.398.336-.629.439-.317.132-.654.196-.992.187h-.376v-.813h.376c.217 0 .434-.03.644-.089.234-.067.459-.171.666-.309l-.174-.252c-.034-.053-.079-.096-.13-.127-.052-.03-.108-.048-.166-.052-.043-.009-.088-.009-.131 0-.05.034-.094.078-.13.13h-.087v-.268c-.014-.131 0-.264.042-.387s.109-.233.197-.32c.237-.135.502-.194.767-.171.247-.004.492.043.724.138.11.035.207.108.277.209.071.101.111.224.114.352-.007.155-.063.303-.159.415-.123.159-.259.306-.406.438.064.091.154.154.254.179.1.05.208.078.318.082h.608z" fill="#f0ebd6"/><path d="m247.584 260.125h-2.73v-.719h2.171l-.657-3.487-.289-.108c-.003-.176.019-.352.068-.524.048-.167.116-.331.202-.489l.087.043c0 .081.034.159.098.224.065.065.155.112.259.135l.56.166c-.003.147-.019.293-.049.438-.014.121-.049.239-.106.352l-.26-.064.646 3.22z" fill="#f0ebd6"/><path d="m248.494 259.124c-.001.189-.046.377-.134.553-.086.155-.186.305-.301.448l-.079-.031c0-.069 0-.15 0-.243s0-.149 0-.18c0-.243 0-.591-.072-1.032-.071-.442-.11-.902-.182-1.387-.039-.286-.095-.584-.142-.889.055-.105.135-.217.206-.335l.221-.342c.048.267.111.621.182 1.106.072.485.135.896.175 1.244.055.472.087.827.087 1.063z" fill="#f0ebd6"/></svg>