<svg xmlns="http://www.w3.org/2000/svg" data-name="Layer 1" viewBox="0 0 512 512"><path fill="#f2f2f2" d="M508.5,256A251.74,251.74,0,0,1,482,368.61H30A252.91,252.91,0,0,1,17.74,172.32,240.16,240.16,0,0,1,29.25,144.8H482.74a238.44,238.44,0,0,1,11.52,27.52A250.83,250.83,0,0,1,508.5,256Z"/><path fill="#ef2b2d" d="M494.26,172.32H17.74A240.16,240.16,0,0,1,29.25,144.8a252.58,252.58,0,0,1,453.49,0A238.44,238.44,0,0,1,494.26,172.32Z"/><path fill="#242d44" d="M494.26,339.73A249.27,249.27,0,0,1,482,368.61a252.57,252.57,0,0,1-452.08,0,249.27,249.27,0,0,1-12.22-28.88Z"/><polygon fill="#f28623" points="291.56 222.49 294.31 292.91 300.43 299.03 296.91 218.13 291.56 222.49"/><polygon fill="#f28623" points="287.89 286.49 291.56 290.92 288.96 224.72 284.22 228.23 287.89 286.49"/><path fill="#f28623" d="M213,215.61l-4.38,3.9c0-2.28.42-5.82,2.94-7.58,4.27-3,9.63-2.17,15.92,2.41a25.48,25.48,0,0,0,14.21,4.58c-.59.86-1,1.38-1,1.4a.78.78,0,0,0,.61,1.25c1.42,0,4.28-1.31,5.94-2.14l-.17,3a.78.78,0,0,0,.35.69.83.83,0,0,0,.42.13.73.73,0,0,0,.35-.09,34,34,0,0,0,5-3.6l2.29,2.69a.78.78,0,0,0,.54.27.7.7,0,0,0,.57-.21l2.51-2.31c2.09,2.38,6.32,2.51,6.52,2.52a.61.61,0,0,0,.58-.25.78.78,0,0,0,.21-.6l-.11-1.14a14.06,14.06,0,0,0,4.87.41.79.79,0,0,0,.64-.47.76.76,0,0,0-.12-.79c-.23-.28-.39-.6-.61-.89,2.42-.22,7.37-.92,11-3.12,3.36-2,11.24-6.74,16.49-5.13a6.42,6.42,0,0,1,4,3.74,10.62,10.62,0,0,1,.89,5.25l-4.42-3.94,2.76,84.18,6.72,6.27-2.6-84.31-1.05-.94a12,12,0,0,0-.93-7.21,7.91,7.91,0,0,0-4.91-4.52c-5.91-1.82-14.21,3.15-17.75,5.28-3.91,2.35-9.63,2.87-11.25,3-3.85-6.55-3.8-15.25-3.76-20.69,0-1.52,0-2.83,0-3.8a7.5,7.5,0,0,0-.11-.92c-.83-4.42-4.55-5.73-8.86-7.25a5.74,5.74,0,0,0-4.63,0,3.31,3.31,0,0,0-1.27,1.21,26.66,26.66,0,0,0-5.87-.72,2.83,2.83,0,0,0-.41,0,3.1,3.1,0,0,0-2.47,2.09,11.8,11.8,0,0,0-.55,4.91.77.77,0,0,0,1.16.59l1.63-1c1.85.12,3.23,1.88,3.89,2.94.35.56.49.85.49.85,1.93,7.33-3.44,17-6.55,21.81a24.39,24.39,0,0,1-14.34-4.27c-8.57-6.25-14.36-4.76-17.72-2.43-3.73,2.6-3.72,8-3.55,10.19l-1,.9-2.59,84.31,6.72-6.27ZM250.68,195s-.18-.39-.51-1a8.77,8.77,0,0,1,3.53.23s-4-4.65-7-5.07a2.1,2.1,0,0,0-2.33,1.06.38.38,0,0,0-.1,0l-.69.41a8.54,8.54,0,0,1,.49-2.9,2.86,2.86,0,0,1,.23-.43,23.79,23.79,0,0,1,3.77-.2c1.84.12,7.41,5.19,7.41,5.19a8.93,8.93,0,0,1,5.77-2.63,3.59,3.59,0,0,1,2.88,1,5.56,5.56,0,0,1,.5,1.49,6.44,6.44,0,0,1,.09.75c.07.91.06,2.19.05,3.67-.05,5.71-.08,14.85,4.19,21.81a.66.66,0,0,0,.17.28c.16.25.27.51.44.75a6.91,6.91,0,0,1-3.64-.81c-3.65-4-3.91-15.18-3.91-15.29a.77.77,0,0,0-.77-.76h0a.77.77,0,0,0-.76.79c0,.48.28,11.61,4.18,16.13l.13,1.4c-1.52-.2-3.93-.83-4.86-2.41-1.38-4.43-.76-15-.76-15.09a.78.78,0,0,0-.72-.82.72.72,0,0,0-.82.73c0,.43-.61,10.42.73,15.28l-2.22,2-1.89-2.22c1.51-2.8,2.45-12.2,2.72-15.26a.77.77,0,0,0-1.54-.14c-.58,6.54-1.75,14.08-2.63,14.87h0s-2.27,2-4.1,3.17l.15-2.54c3.05-2.31,4.87-12.86,5.22-15a.78.78,0,1,0-1.53-.25c-.79,5-2.78,13.21-4.78,14.18h0a42.28,42.28,0,0,1-4.57,2.1C246.06,215.26,253,203.89,250.68,195Z"/><polygon fill="#f28623" points="211.57 299.03 217.69 292.91 220.44 222.49 215.09 218.13 211.57 299.03"/><polygon fill="#f28623" points="227.78 228.23 223.04 224.72 220.44 290.92 224.11 286.49 227.78 228.23"/><path fill="#f28623" d="M248.5 264.71V231.77a36.78 36.78 0 01-11.21 2.12C238.05 248.42 243.42 258.41 248.5 264.71zM264 231.74v33.49c8.42-10.43 10.73-24.82 11.36-31.26A46.75 46.75 0 01264 231.74z"/><path fill="#f28623" d="M302.49,311.3h-1.61a6.12,6.12,0,0,0-4.11-3.11V307a4.91,4.91,0,0,0-.51-4.38,8.1,8.1,0,0,0-5.84-3,16.72,16.72,0,0,0-3.83.63l-5.73-19.51,3.36,3.14-1.53-54.74-3,1.24c0-.09,0-.19-.1-.26a.82.82,0,0,0-.55-.24c-15.38-.18-22.27-6.68-22.33-6.75a.78.78,0,0,0-1-.06,32.09,32.09,0,0,1-21.91,6.54.71.71,0,0,0-.57.21.8.8,0,0,0-.24.56c0,.1,0,.18,0,.28l-3.67-1.52-1.53,54.74,3.86-3.6L230,286v0l-4.39,14.94a12.22,12.22,0,0,1-2-.74,3.33,3.33,0,0,0-2.85-.43,2.64,2.64,0,0,0-1.31,1.1,4.21,4.21,0,0,0-3.1,1.59c-1.25,1.62-1.14,4-1,5.31a4.52,4.52,0,0,0-3.65,3.86l-1.85.62a.77.77,0,0,0-.09,1.43l1.17.56A5.17,5.17,0,0,0,214,319c-.76,3.41,1.64,4.24,3.11,4.74a5.84,5.84,0,0,1,1.06.43c1.91,1.08,24.75,2.95,35.91,3.51,1.81.09,3.62.13,5.42.13a221.81,221.81,0,0,0,25.84-1.95l5.3-.61c4.27-.46,6.95-1.69,8-3.64a4,4,0,0,0,.31-2.82c1.88-.89,2.32-3.07,2.27-4.46l1.8-1.73a.77.77,0,0,0-.54-1.33Zm-17-9.14-1.18.19,1.16-.26Zm-44.17-40.51a.75.75,0,0,0-.16.48l.55,6.61-4.6,4.45-1.27-1.87,3.74-12.73C240.18,259.66,240.76,260.67,241.36,261.65Zm31.5-2.66,3.62,12.32-1.27,1.88-4.6-4.45.54-6.56C271.76,261.13,272.34,260.07,272.86,259Zm-25.29,37.19-1.79-5.5v0a.71.71,0,0,0,.33-.22l3.89-4.33Zm16.24-4.06-1.33-5.88,3.78,4.2a.67.67,0,0,0,.33.22v0l-1.79,5.5Zm1.66,6.94,2.1-6.43,3.32,4.74a.79.79,0,0,0,.72.32.77.77,0,0,0,.63-.48l2.09-5.15,3.29,4.79a.76.76,0,0,0,.53.29h0l-2,5.37-.32.06-2.28-3.05a.8.8,0,0,0-.69-.31.78.78,0,0,0-.62.43l-1.88,3.78a22.65,22.65,0,0,1-3.82.14Zm8.68,3.82c-.66.12-1.29.21-1.92.3l.85-1.73Zm3.8-.72,1.16-3.15,1.89,2.5Zm.06-7.48L274.79,290a.8.8,0,0,0-.72-.33.77.77,0,0,0-.63.48l-2.1,5.17L268,290.48a.79.79,0,0,0-.39-.29.19.19,0,0,0,0-.07l2-7.8,3.24,4a.76.76,0,0,0,.74.27.79.79,0,0,0,.6-.53l1.53-5,5.07,5.31ZM275.89,279a.76.76,0,0,0-.73-.22.78.78,0,0,0-.57.53l-1.49,4.87-3.28-4a.78.78,0,0,0-.77-.27.77.77,0,0,0-.58.57l-2,7.88-4.14-4.62,3.19-8.74,3,3.58a.77.77,0,0,0,.59.28.85.85,0,0,0,.23,0,.77.77,0,0,0,.54-.68l.61-7.4,4.35,4.21a.77.77,0,0,0,.53.22h.08a.81.81,0,0,0,.57-.34l1.06-1.58,3,10.06Zm-6.71-11.66-.86-.83c.36-.49.71-1,1.05-1.49Zm-1.81.4,1.64,1.59-.56,6.78-4.13-5A40.7,40.7,0,0,0,267.37,267.75Zm-4.18,4.46,1.16,1.4-2.92,8-1.51-6.72A36.7,36.7,0,0,0,263.19,272.21Zm-10.75,2.36v0l.23.29h0l-.09-.05-1.43,6.41-.14.59-3-8.22,1.44-1.74C250.55,272.94,251.56,273.84,252.44,274.57Zm-8.54,1.55-.55-6.78,2-2c1,1.25,2,2.41,3,3.4Zm-.72-8.77-.27-3.29c.5.72,1,1.44,1.5,2.1Zm-7.86,5.89,1.06,1.58a.79.79,0,0,0,.56.34H237a.79.79,0,0,0,.54-.22l4.35-4.21.61,7.4a.76.76,0,0,0,.53.68l.24,0a.77.77,0,0,0,.59-.28l3-3.58,3.2,8.74-4.15,4.62-2-7.88a.77.77,0,0,0-1.35-.3l-3.28,4-1.5-4.87a.75.75,0,0,0-.56-.53.78.78,0,0,0-.74.22l-4.1,4.29Zm1.35,7.79,1.53,5a.78.78,0,0,0,.59.53.79.79,0,0,0,.75-.27l3.23-4,2,7.8a.19.19,0,0,0,0,.07.75.75,0,0,0-.39.29L241,295.32l-2.1-5.17a.77.77,0,0,0-.63-.48h-.08a.76.76,0,0,0-.64.33l-3.22,4.68-2.75-8.34Zm-1.95,22c-1.35-.24-2.66-.5-3.9-.77l2.43-3.22Zm3,.49,1.52-2,1.18,2.38C239.57,303.74,238.67,303.62,237.75,303.49Zm4.52.51-2.17-4.36a.8.8,0,0,0-.62-.43.83.83,0,0,0-.69.31l-2.48,3.32-2.1-5.7h0a.78.78,0,0,0,.53-.29l3.29-4.79,2.09,5.15a.74.74,0,0,0,.63.48.82.82,0,0,0,.72-.32l3.32-4.74,2.09,6.43-1.21,5.06C244.66,304.14,243.5,304.1,242.27,304Zm5.63-2.55.79,1.56,3-2.41,2.83-16.71-.84,17.7,2.25,2.67,2.91-2.67-.92-18.78L260.74,301l3.07,2.26a6.37,6.37,0,0,0-4.06.86,2.93,2.93,0,0,0-.85.92,3.84,3.84,0,0,0-2.67,1.55,4.69,4.69,0,0,0-3.49-1.62c-.41-.9-1.7-1.34-5.45-1Zm16.71.64.32,1.31c-.34,0-.69-.09-1-.11Zm2.5,3.06-.17,0v0Zm16.81-4.29-1.27.28L279.49,297a.77.77,0,0,0-.51-.28s0,0,0,0l2.6-7.91,3.48,11.86Zm-10.07-44a72,72,0,0,0,4.7-15.57l1,34.95Zm-17.73-32.18c1.84,1.52,8.75,6.39,22.1,6.74-.25,5-2.52,32.91-22,44-2.85-1.87-21.33-15.07-21.66-44.24A33.54,33.54,0,0,0,256.12,224.69Zm-22.6,14a58.25,58.25,0,0,0,5.1,17.92.35.35,0,0,0-.05.08l-4.29,14.62h0l-1.86,6.31Zm-2.75,50.07,2.6,7.91s0,0,0,0a.73.73,0,0,0-.51.28l-3.71,4.91c-.75-.18-1.45-.35-2.09-.52Zm69.12,24.76a.79.79,0,0,0-.23.64c0,.12.29,3-1.86,3.46a.76.76,0,0,0-.5,1.12,2.57,2.57,0,0,1,0,2.2c-.53,1-2.13,2.32-6.76,2.83-1.7.18-3.47.39-5.31.6-9.41,1.11-20.08,2.36-31,1.81-14-.69-33.71-2.55-35.22-3.31a7.25,7.25,0,0,0-1.33-.54c-1.6-.55-2.75-.95-2-3.51a.72.72,0,0,0,0-.59.75.75,0,0,0-.46-.38,3.72,3.72,0,0,1-2.65-4,.77.77,0,0,0-.35-.75l.49-.16a.79.79,0,0,0,.53-.69,3.07,3.07,0,0,1,3.08-3,.77.77,0,0,0,.6-.29.79.79,0,0,0,.15-.66s-.76-3.22.53-4.89a2.81,2.81,0,0,1,2.36-1,.8.8,0,0,0,.72-.51,1.19,1.19,0,0,1,.65-.67,2,2,0,0,1,1.54.33,14.62,14.62,0,0,0,2.31.88l-.05.16a.78.78,0,0,0,.09.63.73.73,0,0,0,.53.35L236,305.2h0l9.91,1.61H246a.77.77,0,0,0,.75-.59l.16-.65h.19c3.71-.39,4.25.08,4.26.13a1,1,0,0,0,1,.84,3.06,3.06,0,0,1,3.24,2.12.76.76,0,0,0,.82.53.78.78,0,0,0,.69-.71c0-.18.2-1.8,2.39-1.94a.83.83,0,0,0,.7-.62s.51-1.65,5.11-.93l.3,1.24a.77.77,0,0,0,.75.59h.12l9.91-1.61h0l10.24-1.67a.73.73,0,0,0,.53-.35.74.74,0,0,0,.09-.63l-.23-.79a31.81,31.81,0,0,1,3.31-.59,6.56,6.56,0,0,1,4.64,2.34,3.31,3.31,0,0,1,.28,3.13,1.09,1.09,0,0,0,0,.25v2a.76.76,0,0,0,.24.55.83.83,0,0,0,.56.22c.11,0,2.26,0,3.72,2.78a.78.78,0,0,0,.69.42h.14Z"/><path fill="#fff" d="M396.34,78.37A228.06,228.06,0,0,0,247.11,29.68C123.44,33.84,24.56,137.47,25.9,261.2a228.32,228.32,0,0,0,10.29,65.54,20.87,20.87,0,0,0,20.58,14.73c251.12-8.56,328-184.13,346.33-240.69A20.51,20.51,0,0,0,396.34,78.37Z" opacity=".12"/></svg>