<svg id="Layer_1" data-name="Layer 1" xmlns="http://www.w3.org/2000/svg" xmlns:xlink="http://www.w3.org/1999/xlink" viewBox="0 0 590.1 373.3"><defs><style>.cls-1{fill:url(#linear-gradient);}.cls-2,.cls-3,.cls-4,.cls-5{isolation:isolate;opacity:0.53;}.cls-2{fill:url(#linear-gradient-2);}.cls-3{fill:url(#linear-gradient-3);}.cls-4{fill:url(#linear-gradient-4);}.cls-5{fill:url(#linear-gradient-5);}</style><linearGradient id="linear-gradient" x1="65.15" y1="79.57" x2="526.01" y2="540.94" gradientTransform="matrix(1, 0, 0, -1, 0, 497.41)" gradientUnits="userSpaceOnUse"><stop offset="0" stop-color="#05262e"/><stop offset="1" stop-color="#98d099"/></linearGradient><linearGradient id="linear-gradient-2" x1="26.53" y1="212.09" x2="409.55" y2="212.29" gradientTransform="matrix(1, 0, 0, -1, 0, 497.41)" gradientUnits="userSpaceOnUse"><stop offset="0" stop-color="#30c5f4"/><stop offset="1" stop-color="#98d099"/></linearGradient><linearGradient id="linear-gradient-3" x1="-68.48" y1="268.99" x2="118.33" y2="456" xlink:href="#linear-gradient-2"/><linearGradient id="linear-gradient-4" x1="192.58" y1="459.03" x2="268.41" y2="534.94" xlink:href="#linear-gradient-2"/><linearGradient id="linear-gradient-5" x1="919.35" y1="139.04" x2="260.92" y2="528.26" xlink:href="#linear-gradient-2"/></defs><path class="cls-1" d="M590.55,35.53l.16,302.94a35.33,35.33,0,0,1-35.29,35.31L36,374.06a34.92,34.92,0,0,1-9.37-1.27,35.29,35.29,0,0,1-26-34L.46,35.84A35.3,35.3,0,0,1,35.76.53L555.24.25a35.39,35.39,0,0,1,35.31,35.28Z"/><path class="cls-2" d="M409.6,373.86,36,374.06a34.92,34.92,0,0,1-9.37-1.27L192.33,206.86a34.77,34.77,0,0,1,17.35-9.53,35.16,35.16,0,0,1,32.7,9.51Z"/><path class="cls-3" d="M162.4,135.47.6,297.43.46,35.86A35.33,35.33,0,0,1,35.74.53H77.39l85,84.9A35.36,35.36,0,0,1,162.4,135.47Z"/><path class="cls-4" d="M306.36.38l-50.8,50.87a35.37,35.37,0,0,1-50.05,0L154.63.46Z"/><path class="cls-5" d="M590.55,35.53l.14,270.55a35.2,35.2,0,0,1-26.38-10.32L349.37,81.05a35.41,35.41,0,0,1,0-50.08L379.94.32,555.22.23a35.41,35.41,0,0,1,35.33,35.3Z"/></svg>