<svg fill="none" height="20" viewBox="0 0 20 20" width="20" xmlns="http://www.w3.org/2000/svg"><g fill="#878181"><path d="m18.8955 5.82576h-3.2617c-.1861 0-.337.1509-.337.33699s.1509.33699.337.33699h3.2617c.2374 0 .4305.19309.4305.43047s-.1931.43047-.4305.43047h-17.79105c-.237341 0-.430466-.19309-.430466-.43047 0-.23734.193086-.43047.430466-.43047h13.08755c.1861 0 .337-.1509.337-.33699s-.1509-.33699-.337-.33699h-12.17493v-2.03516c0-.42969.34957-.77934.77934-.77934.42968 0 .77929.34958.77929.77934v.06977c0 .18609.1509.33699.337.33699.18609 0 .33699-.1509.33699-.33699v-.06977c0-.80133-.65196-1.45332-1.45332-1.45332-.80133 0-1.45328.65195-1.45328 1.45332v2.03512h-.2386c-.609021.00004-1.10449.49547-1.10449 1.10449 0 .47855.305977.88684.732539 1.03988v1.68114c0 .18613.150898.33699.336991.33699.1861 0 .33699-.1509.33699-.33699v-1.61653h17.18688v.37121c0 .71817-.1164 1.4236-.346 2.09669-.0601.1761.034.3676.2102.4278.036.0123.0727.0181.1088.0181.1402 0 .2711-.0881.319-.2283.2535-.74327.3821-1.5219.3821-2.31425v-.43578c.4265-.15312.7325-.56144.7325-1.04 0-.60894-.4954-1.10441-1.1045-1.10441z"/><path d="m18.3564 17.2054-1.3617-3.5659c.5085-.4754.948-1.0239 1.3006-1.6281.0938-.1608.0395-.3671-.1213-.461-.1608-.0937-.3671-.0395-.4609.1213-.5621.9633-1.3676 1.7708-2.3295 2.3355-.9905.5813-2.1247.8886-3.2801.8886h-7.67771c-1.66485 0-3.01926-1.3544-3.01926-3.0193v-.8996c0-.1861-.1509-.337-.33699-.337-.186098 0-.336996.1509-.336996.337v.8996c0 1.1297.510386 2.142 1.312106 2.82l-.95851 2.509c-.03953.1036-.02567.22.03726.3113.06289.0914.16672.1459.27762.1459h1.18606c.07152 0 .14128-.0227.19902-.065l2.77164-2.028h6.54586c.5236 0 1.0429-.058 1.5493-.17l3.0037 2.1978c.0577.0423.1274.065.199.065h1.1861c.1109 0 .2147-.0545.2775-.1459.0628-.0913.0768-.2077.0372-.3112zm-15.87948-.2166h-.58652l.72414-1.8955c.53308.3013 1.14761.4746 1.80199.4762zm14.48868-.0002-2.4905-1.8223c.4331-.1516.8519-.3445 1.2497-.5779.2517-.1477.4933-.311.7243-.4876l1.103 2.8879h-.5865z"/></g></svg>