<svg fill="none" height="20" viewBox="0 0 20 20" width="20" xmlns="http://www.w3.org/2000/svg" xmlns:xlink="http://www.w3.org/1999/xlink"><clipPath id="a"><path d="m0 0h20v20h-20z"/></clipPath><g clip-path="url(#a)"><path d="m18.5789 9.30058h-.1972v-3.25854c0-1.14266-.9296-2.07231-2.0722-2.07231h-12.61896c-1.1426 0-2.07225.92965-2.07225 2.07231v3.25854h-.19721c-.783556 0-1.42108.63753-1.42108 1.42112v2.1056c0 .7836.637524 1.4211 1.42114 1.4211h1.75696v1.3374c0 .2455.19898.4444.44444.4444s.44444-.1989.44444-.4444v-1.3374h11.86612v1.3374c0 .2455.199.4444.4444.4444.2455 0 .4445-.1989.4445-.4444v-1.3374h1.7569c.7836 0 1.4212-.6375 1.4212-1.4211v-2.1056c-.0001-.78359-.6376-1.42112-1.4212-1.42112zm-16.07173-3.25854c0-.6525.5308-1.18342 1.18337-1.18342h12.61896c.6525 0 1.1833.53085 1.1833 1.18342v3.25854h-.5698v-.8925c0-.56915-.4629-1.03213-1.032-1.03213h-4.5558c-.5692 0-1.0323.46298-1.0323 1.03213v.8925h-.60588v-.8925c0-.56915-.46305-1.03213-1.03226-1.03213h-4.55574c-.56908 0-1.03207.46298-1.03207 1.03213v.8925h-.56978zm8.68463 3.25854v-.8925c0-.07765.0657-.14324.1434-.14324h4.5558c.0776 0 .1432.06559.1432.14324v.8925zm-7.22596 0v-.8925c0-.07765.06553-.14324.14318-.14324h4.55581c.07771 0 .14336.06559.14336.14324v.8925zm15.14526 3.52672c0 .2934-.2388.5322-.5322.5322h-17.15776c-.29346 0-.532251-.2388-.532251-.5322v-2.1056c0-.2934.238791-.5322.532251-.5322h17.15776c.2934 0 .5322.2388.5322.5322z" fill="#878181"/></g></svg>