<svg fill="none" height="20" viewBox="0 0 20 20" width="20" xmlns="http://www.w3.org/2000/svg"><g fill="#878181"><path d="m5.55168 18.3129h1.52117c.24784 0 .44866-.2008.44866-.4486 0-.4012 0-3.3999 0-3.8029 0-.2478-.20088-.4486-.44866-.4486h-1.52117c-.24784 0-.44865.2008-.44865.4486v3.8029c0 .2478.20081.4486.44865.4486zm.44865-3.8028h.62387v1.0041h-.62387zm0 1.9014h.62387v1.0041h-.62387z"/><path d="m12.9272 18.3129h1.5211c.2479 0 .4487-.2008.4487-.4486 0-.4012 0-3.3999 0-3.8029 0-.2478-.2008-.4486-.4487-.4486h-1.5211c-.2479 0-.4487.2008-.4487.4486v3.8029c0 .2478.2008.4486.4487.4486zm.4487-3.8028h.6238v1.0041h-.6238zm-.0001 1.9014h.6239v1.0041h-.6239z"/><path d="m5.55168 11.0201h1.52117c.24784 0 .44866-.2008.44866-.4487 0-.4013 0-3.39985 0-3.8028 0-.24784-.20082-.44865-.44866-.44865h-1.52117c-.24784 0-.44865.20081-.44865.44865v3.8028c0 .2478.20081.4487.44865.4487zm.44865-3.80291h.62387v1.00409h-.62387zm0 1.90145h.62387v1.00416h-.62387z"/><path d="m12.9273 11.0201h1.5212c.2478 0 .4486-.2008.4486-.4487 0-.4013 0-3.39985 0-3.8028 0-.24784-.2008-.44865-.4486-.44865h-1.5212c-.2478 0-.4487.20081-.4487.44865v3.8028c0 .2478.2009.4487.4487.4487zm.4486-3.80291h.6239v1.00409h-.6239zm0 1.90145h.6239v1.00416h-.6239z"/><path d="m17.5265 4.72258-1.1769-2.55989c-.0733-.15924-.2324-.26124-.4076-.26124h-1.045v-1.452797c0-.247836-.2008-.448653-.4486-.448653h-1.5212c-.2479 0-.4487.200817-.4487.448653v1.452797h-8.42047c-.17528 0-.33446.102-.40762.26124l-1.17697 2.55989c-.13651.29707.081.63607.40762.63607h.72831v14.19265c0 .2479.20082.4487.44866.4487h11.88397c.2478 0 .4486-.2008.4486-.4487v-7.2928-.0557-6.84415h.7283c.327 0 .544-.33936.4076-.63607zm-4.1506-3.825274h.6239v1.004144h-.6239zm-2.0868 18.205394h-2.57824v-4.5926h2.57824zm4.2042 0h-3.3069v-5.0413c0-.2478-.2008-.4486-.4486-.4486h-3.47559c-.24784 0-.44866.2008-.44866.4486v5.0413h-3.30687v-6.3956h10.98662zm-6.78244-7.3485v-4.53699h2.57824v4.53699zm6.78244 0h-3.3069v-4.98564c0-.24784-.2008-.44865-.4486-.44865h-3.47559c-.24784 0-.44866.20081-.44866.44865v4.98564h-3.30687v-6.39555h10.98662zm-11.91216-7.29285.76438-1.66259h11.30888l.7644 1.66259c-.269 0-12.56901 0-12.83766 0z"/></g></svg>