<svg fill="none" height="20" viewBox="0 0 20 20" width="20" xmlns="http://www.w3.org/2000/svg" xmlns:xlink="http://www.w3.org/1999/xlink"><clipPath id="a"><path d="m0 0h20v20h-20z"/></clipPath><g clip-path="url(#a)" fill="#878181"><path d="m17.9259 8.35305c-.0928 0-.1849.00633-.2759.01844v-1.53762c0-1.33332-.7191-2.57426-1.8767-3.23856-.1491-.08558-.3394-.03406-.425.11504-.0855.1491-.034.33938.1151.42496.9647.55364 1.564 1.58766 1.564 2.69856v1.72379c-.7111.34195-1.1752 1.06703-1.1752 1.86914v.9649c-.2086-.1332-.4559-.2108-.7211-.2108h-4.0986c-.4146 0-.7858.1888-1.0324.4848-.24672-.296-.61793-.4848-1.03246-.4848h-4.0986c-.26523 0-.51258.0776-.72109.2108v-.9649c0-.87781-.55574-1.66375-1.38266-1.95563-.22867-.08093-.46887-.12027-.71433-.118-.3418.00371-.68075.09386-.98008.26074-.150158.08371-.204064.27332-.120315.42351.083715.15016.273355.20411.423515.12032.20895-.11653.44539-.17946.68363-.182.17188-.00207.34028.02586.50016.08243.57871.20425.96754.75425.96754 1.36863v3.1556h-1.37539c-.00027-.7894-.36082-1.54-.96457-2.008-.362033-.2806-.567111-.7041-.562775-1.1618.002266-.2382.064844-.47467.180937-.68365.083477-.15032.029297-.33981-.120976-.42332-.150391-.08348-.339883-.02934-.42332.12097-.1663286.2995-.25597702.6384-.25921921.98-.00621094.654.28675821 1.2589.80386721 1.6598.453006.3512.723436.9183.723436 1.5169v.3104 1.0804c0 .1719.13938.3113.31129.3113h.48789c.05914.1844.17031.3502.32477.4771.08402.0688.10074.2006.038.3004l-.22457.3578c-.06023.096-.06355.2171-.00871.3162.05481.0991.15914.1606.27243.1606h1.2755c.17192 0 .31129-.1393.31129-.3112v-1.3009h9.82681c.1719 0 .3112-.1394.3112-.3113s-.1393-.3113-.3112-.3113h-11.99208v-.4577h15.69958v.4578h-2.8772c-.1719 0-.3113.1393-.3113.3112 0 .172.1394.3113.3113.3113h.712v1.3009c0 .1719.1394.3113.3113.3113h1.2755c.1133 0 .2176-.0615.2725-.1607.0548-.0991.0514-.2202-.0088-.3161l-.2246-.358c-.0627-.0997-.0459-.2315.0386-.3007.1541-.1266.2651-.2923.3242-.4767h.4879c.1719 0 .3112-.1394.3112-.3113v-1.0804-.338c0-.5801.2716-1.1291.7451-1.506.4974-.396.7827-.9875.7827-1.6229 0-1.14344-.9304-2.07375-2.0741-2.07375zm-14.23326 6.93245v.9895h-.41336c.14851-.3439.0605-.7494-.2284-.9895zm5.99609-1.703h-.00004-5.54078v-1.0578c0-.3977.32348-.7211.72109-.7211h4.0986c.39761 0 .72109.3235.72109.7211v1.0578zm.62257 0v-1.0578c0-.3977.3235-.7211.7211-.7211h4.0986c.3976 0 .7211.3235.7211.7211v1.0578zm6.4091 2.6925h-.4133v-.9895h.6418c-.289.2406-.377.6459-.2285.9895zm2.1091-4.7124c-.6227.4958-.9799 1.2223-.9799 1.9932v.0267h-1.3749v-3.1557c0-.6143.3889-1.1643.9678-1.36867.1546-.05473.3172-.08242.4834-.08242.8004 0 1.4515.65101 1.4515 1.45109 0 .4446-.1997.8586-.5479 1.1358z"/><path d="m14.8773 3.22687c-.3113-.08258-.6339-.12445-.9588-.12445h-7.83692c-2.05758 0-3.73148 1.67394-3.73148 3.73152v1.07316c0 .17192.13933.31129.31129.31129.17191 0 .31129-.13937.31129-.31129v-1.07316c0-1.71426 1.39464-3.10891 3.10886-3.10891h7.83696c.271 0 .5399.03489.7992.10364.1661.04406.3366-.05496.3807-.2211.0441-.16617-.0549-.3366-.2211-.3807z"/><path d="m6.69031 6.69952h-.34656v-.34648c0-.17192-.13938-.31129-.31129-.31129-.17192 0-.31129.13937-.31129.31129v.34648h-.34653c-.17191 0-.31129.13938-.31129.31129s.13938.31129.31129.31129h.34649v.34656c0 .17192.13937.31129.31129.31129.17191 0 .31129-.13937.31129-.31129v-.34656h.34656c.17191 0 .31129-.13938.31129-.31129.00004-.17191-.13934-.31129-.31125-.31129z"/><path d="m10.6578 6.69952h-.3464v-.34648c0-.17192-.1394-.31129-.3113-.31129-.17195 0-.31132.13937-.31132.31129v.34648h-.34648c-.17192 0-.31129.13938-.31129.31129s.13937.31129.31129.31129h.34648v.34656c0 .17192.13937.31129.31132.31129.1719 0 .3113-.13937.3113-.31129v-.34656h.3464c.172 0 .3113-.13938.3113-.31129s-.1393-.31129-.3113-.31129z"/><path d="m14.6253 6.69952h-.3465v-.34648c0-.17192-.1393-.31129-.3112-.31129-.172 0-.3113.13937-.3113.31129v.34648h-.3466c-.1719 0-.3113.13938-.3113.31129s.1394.31129.3113.31129h.3466v.34656c0 .17192.1393.31129.3113.31129.1719 0 .3112-.13937.3112-.31129v-.34656h.3465c.1719 0 .3113-.13938.3113-.31129s-.1394-.31129-.3113-.31129z"/></g></svg>