<svg fill="none" height="20" viewBox="0 0 20 20" width="20" xmlns="http://www.w3.org/2000/svg"><g fill="#878181"><path d="m19.8662 6.92699-6.7929-6.792978c-.0859-.0858236-.2022-.134012-.3235-.134012-.1214 0-.2377.0481884-.3236.134012l-12.291959 12.291988c-.1786626.1787-.1786626.4684 0 .647l6.792909 6.7929c.08583.0859.20221.134.32354.134.12132 0 .23764-.0481.32353-.134l12.29208-12.29197c.1786-.1786.1786-.46828-.0001-.64694zm-12.61551 11.96851-6.14597-6.146 11.64508-11.64501 6.1459 6.14597z"/><path d="m9.99997 7.95654c-.54581 0-1.05898.21252-1.44498.59851-.79663.79676-.79663 2.09305 0 2.88985.38594.386.89911.5985 1.44498.5985.54583 0 1.05903-.2125 1.44493-.5985.7967-.7967.7967-2.09309 0-2.88985-.3859-.38599-.8991-.59851-1.44493-.59851zm.79793 2.84136c-.2131.2131-.4965.3305-.79793.3305-.30139 0-.58478-.1174-.79791-.3305-.43998-.44-.43998-1.15592 0-1.5959.21313-.21313.49652-.33055.79791-.33055.30143 0 .58483.11736.79793.33055.44.44004.44 1.1559 0 1.5959z"/><path d="m11.6281 3.27802c-.1213 0-.2376.04818-.3235.13401l-7.89253 7.89257c-.17866.1787-.17866.4684 0 .647.44004.4399.43998 1.1559 0 1.5958-.17866.1787-.17866.4684 0 .647l2.39344 2.3935c.08582.0858.20215.134.32353.134.12133 0 .23765-.0482.32354-.134.21312-.2131.49652-.3305.79791-.3305s.58479.1174.79791.3305c.08583.0858.20215.134.32354.134.12138 0 .23764-.0482.32353-.134l7.89263-7.8926c.1786-.17866.1786-.46834 0-.64694-.4401-.43998-.44-1.15591 0-1.59589.1786-.17866.1786-.46834 0-.64694l-2.3935-2.3935c-.0858-.08583-.2021-.13401-.3235-.13401-.1213 0-.2377.04818-.3236.13401-.2131.21312-.4965.33048-.7979.33048s-.5848-.11736-.7979-.33048c-.0859-.08583-.2022-.13401-.3236-.13401zm2.2067 1.06831 1.8192 1.81914c-.4141.66092-.4141 1.50897 0 2.16982l-7.31824 7.31831c-.32206-.2027-.69531-.3112-1.08527-.3112s-.76321.1085-1.08528.3112l-1.81914-1.8192c.41412-.6609.41412-1.5089 0-2.1698l7.31823-7.31827c.3221.2027.6953.31115 1.0853.31115.3899 0 .7632-.10845 1.0852-.31115z"/></g></svg>