<svg fill="none" height="20" viewBox="0 0 20 20" width="20" xmlns="http://www.w3.org/2000/svg" xmlns:xlink="http://www.w3.org/1999/xlink"><clipPath id="a"><path d="m0 0h20v20h-20z"/></clipPath><g clip-path="url(#a)" fill="#878181"><path d="m14.6666 16.3333v-3.6667c0-.5666-.4333-.9999-1-.9999h-.1666c-.1667 0-.3-.1-.3333-.2334l-1.1667-4.06662v-.03332c-.2667-.59999-.8667-.99999-1.5333-.99999h-6.26672c-.66667 0-1.26666.4-1.53334.99999v.03332l-1.16666 4.06662c-.06668.1334-.2.2334-.33332.2334h-.166674c-.566672 0-.999986.4333-.999986.9999v3.6667c0 .5667.433314 1 .999986 1v1.6667c0 .5666.433314.9999.999984.9999h.66667c.56668 0 .99999-.4333.99999-.9999v-1.6667h7.33337v1.6667c0 .5666.4333.9999 1 .9999h.6666c.5667 0 1-.4333 1-.9999v-1.6667c.5667 0 1-.4333 1-1zm-11.6666 2.6667c0 .2-.13332.3333-.33332.3333h-.66667c-.2 0-.33331-.1333-.33331-.3333v-1.6667h1.33334v1.6667zm10 0c0 .2-.1333.3333-.3333.3333h-.6667c-.2 0-.3333-.1333-.3333-.3333v-1.6667h1.3333zm1-2.6667c0 .2-.1333.3333-.3333.3333h-.3333-2-8.00009-1.99997-.333354c-.199997 0-.333315-.1333-.333315-.3333v-3.6667c0-.2.133318-.3333.333315-.3333h.166674c.43332 0 .83335-.3.96667-.7333l1.16666-4.03336c.16668-.33332.5-.56668.89999-.56668h6.26672c.3666 0 .7333.2.8999.56668l1.1667 4.03336c.1333.4333.5334.7333.9667.7333h.1666c.2 0 .3334.1333.3334.3333z"/><path d="m2.99997 13c-.73335 0-1.33334.6-1.33334 1.3333 0 .7334.59999 1.3334 1.33334 1.3334s1.33334-.6 1.33334-1.3334c0-.7333-.59999-1.3333-1.33334-1.3333zm0 2c-.36668 0-.66667-.3-.66667-.6667 0-.3666.29999-.6666.66667-.6666.36667 0 .66667.3.66667.6666 0 .3667-.3.6667-.66667.6667z"/><path d="m11.6667 13c-.7333 0-1.3333.6-1.3333 1.3333 0 .7334.6 1.3334 1.3333 1.3334.7334 0 1.3334-.6 1.3334-1.3334 0-.7333-.6001-1.3333-1.3334-1.3333zm0 2c-.3667 0-.6667-.3-.6667-.6667 0-.3666.3-.6666.6667-.6666s.6667.3.6667.6666c0 .3667-.3.6667-.6667.6667z"/><path d="m8.00003 14.6666h-1.33334c-.2 0-.33332.1333-.33332.3333s.13332.3334.33332.3334h1.33334c.2 0 .33332-.1334.33332-.3334 0-.1999-.13332-.3333-.33332-.3333z"/><path d="m8.66662 13.3334h-2.66668c-.2 0-.33331.1333-.33331.3333s.13331.3333.33331.3333h2.66668c.2 0 .33332-.1333.33332-.3333.00004-.2-.13328-.3333-.33332-.3333z"/><path d="m4.13336 11.6666h6.43334c.2 0 .4-.0999.5333-.2666.1334-.1667.1667-.4.1-.6l-.8-2.6667c-.0667-.26668-.3334-.46667-.63336-.46667h-4.83329c-.3 0-.53335.16667-.63335.46667l-.79999 2.6667c-.06668.2-.03332.4333.1.6.13336.1666.33335.2666.53335.2666zm.79999-3.3333h4.83333l.80002 2.6667h-6.43334z"/><path d="m19.6667 0h-5.6666c-.2 0-.3334.133318-.3334.333315v5.666685c0 .19999.1334.33331.3334.33331h2.3333v10.33329h-.6667c-.2 0-.3333.1334-.3333.3334v.9999h-.6667c-.2 0-.3333.1334-.3333.3334v1.3333c0 .2.1333.3333.3333.3333h4c.2 0 .3333-.1333.3333-.3333v-1.3333c0-.2-.1333-.3334-.3333-.3334h-.6667v-.9999c0-.2-.1333-.3334-.3333-.3334h-.6666v-10.33329h2.6666c.2 0 .3334-.13332.3334-.33331v-5.666685c0-.199997-.1334-.333315-.3334-.333315zm-1.3333 19.3333h-3.3334v-.6666h.6667 2 .6667zm-1-1.3333h-1.3334v-.6667h1.3334zm2-12.33332h-5v-5.000009h5z"/><path d="m16.3334 4.99996c.2 0 .3333-.13332.3333-.33331v-.66672h.3333c.7333 0 1.3333-.59999 1.3333-1.33334s-.6-1.33334-1.3333-1.33334h-.6667c-.2 0-.3333.13332-.3333.33332v2.00001.99999c0 .20003.1334.33339.3334.33339zm1.3333-2.33333c0 .36668-.3.66667-.6667.66667h-.3333v-1.33334h.3333c.3667 0 .6667.3.6667.66667z"/></g></svg>