<svg fill="none" height="27" viewBox="0 0 27 27" width="27" xmlns="http://www.w3.org/2000/svg" xmlns:xlink="http://www.w3.org/1999/xlink"><clipPath id="a"><path d="m0 0h20v20h-20z" transform="matrix(.9131055 .40772336 -.40772336 .9131055 8.15454 0)"/></clipPath><g clip-path="url(#a)"><path d="m13.6532 2.45532-8.15448 18.26208 7.26488 3.244 8.1545-18.26212zm3.5319 3.82359-.9608.17531-.5109-.83248zm-8.97699 13.40179 5.78109-12.9468 1.2214 1.99035 2.2974-.41913-.9198 2.05978-1.4048-.62722-.8363 1.87302 1.4048.6273-.8364 1.873-1.4048-.6272-.8363 1.873 1.4047.6273-.8363 1.873-1.4048-.6273-.8363 1.8731 1.4047.6272-.6795 1.5219z" fill="#878181"/></g></svg>