<svg fill="none" height="39" viewBox="0 0 162 39" width="162" xmlns="http://www.w3.org/2000/svg" xmlns:xlink="http://www.w3.org/1999/xlink"><filter id="a" color-interpolation-filters="sRGB" filterUnits="userSpaceOnUse" height="47" width="170" x="-4" y="-4"><feFlood flood-opacity="0" result="BackgroundImageFix"/><feGaussianBlur in="BackgroundImageFix" stdDeviation="2"/><feComposite in2="SourceAlpha" operator="in" result="effect1_backgroundBlur_371_14755"/><feBlend in="SourceGraphic" in2="effect1_backgroundBlur_371_14755" mode="normal" result="shape"/></filter><g filter="url(#a)"><rect fill="#fff" fill-opacity=".7" height="39" rx="15" width="162"/><path d="m41.608 24.368 2.496-7.184h1.936l-3.36 8.816h-2.176l-3.344-8.816h1.952zm6.7388-8.352c-.3307 0-.608-.112-.832-.336s-.336-.5013-.336-.832.112-.608.336-.832.5013-.336.832-.336c.32 0 .592.112.816.336s.336.5013.336.832-.112.608-.336.832-.496.336-.816.336zm.896 1.168v8.816h-1.824v-8.816zm4.2187 1.28c.2667-.448.6187-.7947 1.056-1.04.448-.256.976-.384 1.584-.384v1.888h-.464c-.7147 0-1.2587.1813-1.632.544-.3627.3627-.544.992-.544 1.888v4.64h-1.824v-8.816h1.824zm6.4446.208v4.88c0 .3307.0747.5707.224.72.16.1387.4267.208.8.208h1.12v1.52h-1.44c-.8213 0-1.4506-.192-1.888-.576-.4373-.384-.656-1.008-.656-1.872v-4.88h-1.04v-1.488h1.04v-2.192h1.84v2.192h2.144v1.488zm11.8092-1.488v8.816h-1.824v-1.04c-.288.3627-.6667.6507-1.136.864-.4587.2027-.9494.304-1.472.304-.6934 0-1.3174-.144-1.872-.432-.544-.288-.976-.7147-1.296-1.28-.3094-.5653-.464-1.248-.464-2.048v-5.184h1.808v4.912c0 .7893.1973 1.3973.592 1.824.3946.416.9333.624 1.616.624.6826 0 1.2213-.208 1.616-.624.4053-.4267.608-1.0347.608-1.824v-4.912zm1.7986 4.368c0-.8853.1813-1.6693.544-2.352.3733-.6827.8746-1.2107 1.504-1.584.64-.384 1.344-.576 2.112-.576.6933 0 1.296.1387 1.808.416.5226.2667.9386.6027 1.248 1.008v-1.28h1.84v8.816h-1.84v-1.312c-.3094.416-.7307.7627-1.264 1.04-.5334.2773-1.1414.416-1.824.416-.7574 0-1.4507-.192-2.08-.576-.6294-.3947-1.1307-.9387-1.504-1.632-.3627-.704-.544-1.4987-.544-2.384zm7.216.032c0-.608-.128-1.136-.384-1.584-.2454-.448-.5707-.7893-.976-1.024-.4054-.2347-.8427-.352-1.312-.352-.4694 0-.9067.1173-1.312.352-.4054.224-.736.56-.992 1.008-.2454.4373-.368.96-.368 1.568s.1226 1.1413.368 1.6c.256.4587.5866.8107.992 1.056.416.2347.8533.352 1.312.352.4693 0 .9066-.1173 1.312-.352.4053-.2347.7306-.576.976-1.024.256-.4587.384-.992.384-1.6zm6.0597-7.424v11.84h-1.824v-11.84zm8.679 4.512v4.88c0 .3307.0747.5707.224.72.16.1387.4267.208.8.208h1.12v1.52h-1.44c-.8213 0-1.4506-.192-1.888-.576-.4373-.384-.656-1.008-.656-1.872v-4.88h-1.04v-1.488h1.04v-2.192h1.84v2.192h2.144v1.488zm7.6494 7.472c-.832 0-1.584-.1867-2.256-.56-.672-.384-1.2002-.9173-1.5842-1.6-.384-.6933-.576-1.4933-.576-2.4 0-.896.1973-1.6907.592-2.384.3946-.6933.9332-1.2267 1.6162-1.6.682-.3733 1.445-.56 2.288-.56.842 0 1.605.1867 2.288.56.682.3733 1.221.9067 1.616 1.6.394.6933.592 1.488.592 2.384s-.203 1.6907-.608 2.384c-.406.6933-.96 1.232-1.664 1.616-.694.3733-1.462.56-2.304.56zm0-1.584c.469 0 .906-.112 1.312-.336.416-.224.752-.56 1.008-1.008s.384-.992.384-1.632-.123-1.1787-.368-1.616c-.246-.448-.571-.784-.976-1.008-.406-.224-.843-.336-1.312-.336-.47 0-.907.112-1.312.336-.395.224-.71.56-.944 1.008-.235.4373-.352.976-.352 1.616 0 .9493.24 1.6853.72 2.208.49.512 1.104.768 1.84.768zm14.363-7.376v8.816h-1.824v-1.04c-.288.3627-.667.6507-1.136.864-.459.2027-.949.304-1.472.304-.693 0-1.317-.144-1.872-.432-.544-.288-.976-.7147-1.296-1.28-.309-.5653-.464-1.248-.464-2.048v-5.184h1.808v4.912c0 .7893.197 1.3973.592 1.824.395.416.933.624 1.616.624s1.221-.208 1.616-.624c.405-.4267.608-1.0347.608-1.824v-4.912zm4.231 1.28c.266-.448.618-.7947 1.056-1.04.448-.256.976-.384 1.584-.384v1.888h-.464c-.715 0-1.259.1813-1.632.544-.363.3627-.544.992-.544 1.888v4.64h-1.824v-8.816h1.824z" fill="#000"/></g></svg>